G04*
G04 #@! TF.GenerationSoftware,Altium Limited,Altium Designer,25.0.2 (28)*
G04*
G04 Layer_Color=128*
%FSLAX25Y25*%
%MOIN*%
G70*
G04*
G04 #@! TF.SameCoordinates,7C83500D-BFB9-469C-A41D-0C693C3E1856*
G04*
G04*
G04 #@! TF.FilePolarity,Positive*
G04*
G01*
G75*
%ADD14C,0.00500*%
D14*
X651105Y372157D02*
X655120D01*
X653112Y370149D02*
Y374165D01*
X651105Y299401D02*
X655120D01*
X653112Y297393D02*
Y301409D01*
X678055Y544477D02*
X683173D01*
X680614Y541918D02*
Y547036D01*
X626874Y447233D02*
X631992D01*
X629433Y444674D02*
Y449792D01*
X673898Y112205D02*
X677913D01*
X675906Y110197D02*
Y114213D01*
X662087Y112205D02*
X666102D01*
X664094Y110197D02*
Y114213D01*
X687008Y112205D02*
X698819D01*
X692913Y106299D02*
Y118110D01*
X34055Y81693D02*
X46654D01*
X40354Y75394D02*
Y87992D01*
X677756Y253445D02*
X682874D01*
X680315Y250886D02*
Y256004D01*
X626575Y156201D02*
X631693D01*
X629134Y153642D02*
Y158760D01*
X613779Y609252D02*
X626378D01*
X620079Y602953D02*
Y615551D01*
X34055Y609252D02*
X46654D01*
X40354Y602953D02*
Y615551D01*
X690551Y81693D02*
X703150D01*
X696850Y75394D02*
Y87992D01*
X613779Y81693D02*
X626378D01*
X620079Y75394D02*
Y87992D01*
X690551Y609252D02*
X703150D01*
X696850Y602953D02*
Y615551D01*
X623425Y105315D02*
X624606D01*
X624016Y104724D02*
Y105905D01*
X624409Y112205D02*
X625591D01*
X625000Y111614D02*
Y112795D01*
X624972Y108917D02*
X626153D01*
X625563Y108326D02*
Y109507D01*
X627362Y106299D02*
X628543D01*
X627953Y105709D02*
Y106890D01*
X630315Y111221D02*
X631496D01*
X630905Y110630D02*
Y111811D01*
X642396Y333567D02*
X643577D01*
X642987Y332976D02*
Y334157D01*
X85774Y556422D02*
X86955D01*
X86364Y555832D02*
Y557013D01*
X79550Y429284D02*
X80731D01*
X80141Y428693D02*
Y429874D01*
X692323Y580709D02*
X693504D01*
X692913Y580118D02*
Y581299D01*
X700197Y564961D02*
X701378D01*
X700787Y564370D02*
Y565551D01*
X692323Y549213D02*
X693504D01*
X692913Y548622D02*
Y549803D01*
X700197Y501968D02*
X701378D01*
X700787Y501378D02*
Y502559D01*
X692323Y423228D02*
X693504D01*
X692913Y422638D02*
Y423819D01*
X692323Y391732D02*
X693504D01*
X692913Y391142D02*
Y392323D01*
X692323Y360236D02*
X693504D01*
X692913Y359646D02*
Y360827D01*
X692323Y297244D02*
X693504D01*
X692913Y296654D02*
Y297835D01*
X692323Y265748D02*
X693504D01*
X692913Y265158D02*
Y266338D01*
X700197Y155512D02*
X701378D01*
X700787Y154921D02*
Y156102D01*
X692323Y139764D02*
X693504D01*
X692913Y139173D02*
Y140354D01*
X700197Y124016D02*
X701378D01*
X700787Y123425D02*
Y124606D01*
X676575Y612205D02*
X677756D01*
X677165Y611614D02*
Y612795D01*
X684449Y596457D02*
X685630D01*
X685039Y595866D02*
Y597047D01*
X676575Y580709D02*
X677756D01*
X677165Y580118D02*
Y581299D01*
X676575Y549213D02*
X677756D01*
X677165Y548622D02*
Y549803D01*
X684449Y470472D02*
X685630D01*
X685039Y469882D02*
Y471063D01*
X676575Y454724D02*
X677756D01*
X677165Y454134D02*
Y455315D01*
X684449Y438976D02*
X685630D01*
X685039Y438386D02*
Y439567D01*
X676575Y423228D02*
X677756D01*
X677165Y422638D02*
Y423819D01*
X684449Y407480D02*
X685630D01*
X685039Y406890D02*
Y408071D01*
X676575Y391732D02*
X677756D01*
X677165Y391142D02*
Y392323D01*
X684449Y375984D02*
X685630D01*
X685039Y375394D02*
Y376575D01*
X684449Y312992D02*
X685630D01*
X685039Y312402D02*
Y313583D01*
X676575Y297244D02*
X677756D01*
X677165Y296654D02*
Y297835D01*
X676575Y265748D02*
X677756D01*
X677165Y265158D02*
Y266338D01*
X676575Y171260D02*
X677756D01*
X677165Y170669D02*
Y171850D01*
X684449Y124016D02*
X685630D01*
X685039Y123425D02*
Y124606D01*
X684449Y92520D02*
X685630D01*
X685039Y91929D02*
Y93110D01*
X676575Y76772D02*
X677756D01*
X677165Y76181D02*
Y77362D01*
X660827Y612205D02*
X662008D01*
X661417Y611614D02*
Y612795D01*
X668701Y596457D02*
X669882D01*
X669291Y595866D02*
Y597047D01*
X660827Y580709D02*
X662008D01*
X661417Y580118D02*
Y581299D01*
X668701Y564961D02*
X669882D01*
X669291Y564370D02*
Y565551D01*
X660827Y549213D02*
X662008D01*
X661417Y548622D02*
Y549803D01*
X668701Y533464D02*
X669882D01*
X669291Y532874D02*
Y534055D01*
X660827Y517717D02*
X662008D01*
X661417Y517126D02*
Y518307D01*
X660827Y486220D02*
X662008D01*
X661417Y485630D02*
Y486811D01*
X660827Y423228D02*
X662008D01*
X661417Y422638D02*
Y423819D01*
X668701Y407480D02*
X669882D01*
X669291Y406890D02*
Y408071D01*
X660827Y391732D02*
X662008D01*
X661417Y391142D02*
Y392323D01*
X668701Y375984D02*
X669882D01*
X669291Y375394D02*
Y376575D01*
X660827Y360236D02*
X662008D01*
X661417Y359646D02*
Y360827D01*
X668701Y281496D02*
X669882D01*
X669291Y280906D02*
Y282087D01*
X660827Y265748D02*
X662008D01*
X661417Y265158D02*
Y266338D01*
X660827Y202756D02*
X662008D01*
X661417Y202165D02*
Y203346D01*
X660827Y139764D02*
X662008D01*
X661417Y139173D02*
Y140354D01*
X668701Y92520D02*
X669882D01*
X669291Y91929D02*
Y93110D01*
X660827Y76772D02*
X662008D01*
X661417Y76181D02*
Y77362D01*
X645079Y612205D02*
X646260D01*
X645669Y611614D02*
Y612795D01*
X652953Y596457D02*
X654134D01*
X653543Y595866D02*
Y597047D01*
X645079Y580709D02*
X646260D01*
X645669Y580118D02*
Y581299D01*
X645079Y549213D02*
X646260D01*
X645669Y548622D02*
Y549803D01*
X652953Y407480D02*
X654134D01*
X653543Y406890D02*
Y408071D01*
X652953Y312992D02*
X654134D01*
X653543Y312402D02*
Y313583D01*
X645079Y297244D02*
X646260D01*
X645669Y296654D02*
Y297835D01*
X652953Y281496D02*
X654134D01*
X653543Y280906D02*
Y282087D01*
X645079Y265748D02*
X646260D01*
X645669Y265158D02*
Y266338D01*
X645079Y202756D02*
X646260D01*
X645669Y202165D02*
Y203346D01*
X652953Y187008D02*
X654134D01*
X653543Y186417D02*
Y187598D01*
X645079Y171260D02*
X646260D01*
X645669Y170669D02*
Y171850D01*
X652953Y124016D02*
X654134D01*
X653543Y123425D02*
Y124606D01*
X652953Y92520D02*
X654134D01*
X653543Y91929D02*
Y93110D01*
X645079Y76772D02*
X646260D01*
X645669Y76181D02*
Y77362D01*
X629331Y580709D02*
X630512D01*
X629921Y580118D02*
Y581299D01*
X637205Y564961D02*
X638386D01*
X637795Y564370D02*
Y565551D01*
X629331Y549213D02*
X630512D01*
X629921Y548622D02*
Y549803D01*
X637205Y470472D02*
X638386D01*
X637795Y469882D02*
Y471063D01*
X637205Y438976D02*
X638386D01*
X637795Y438386D02*
Y439567D01*
X629331Y423228D02*
X630512D01*
X629921Y422638D02*
Y423819D01*
X637205Y407480D02*
X638386D01*
X637795Y406890D02*
Y408071D01*
X637205Y375984D02*
X638386D01*
X637795Y375394D02*
Y376575D01*
X629331Y297244D02*
X630512D01*
X629921Y296654D02*
Y297835D01*
X613583Y580709D02*
X614764D01*
X614173Y580118D02*
Y581299D01*
X621457Y501968D02*
X622638D01*
X622047Y501378D02*
Y502559D01*
X621457Y470472D02*
X622638D01*
X622047Y469882D02*
Y471063D01*
X613583Y423228D02*
X614764D01*
X614173Y422638D02*
Y423819D01*
X621457Y407480D02*
X622638D01*
X622047Y406890D02*
Y408071D01*
X621457Y375984D02*
X622638D01*
X622047Y375394D02*
Y376575D01*
X613583Y328740D02*
X614764D01*
X614173Y328150D02*
Y329331D01*
X621457Y281496D02*
X622638D01*
X622047Y280906D02*
Y282087D01*
X613583Y139764D02*
X614764D01*
X614173Y139173D02*
Y140354D01*
X613583Y108268D02*
X614764D01*
X614173Y107677D02*
Y108858D01*
X605709Y596457D02*
X606890D01*
X606299Y595866D02*
Y597047D01*
X605709Y564961D02*
X606890D01*
X606299Y564370D02*
Y565551D01*
X605709Y533464D02*
X606890D01*
X606299Y532874D02*
Y534055D01*
X597835Y517717D02*
X599016D01*
X598425Y517126D02*
Y518307D01*
X605709Y501968D02*
X606890D01*
X606299Y501378D02*
Y502559D01*
X605709Y470472D02*
X606890D01*
X606299Y469882D02*
Y471063D01*
X597835Y454724D02*
X599016D01*
X598425Y454134D02*
Y455315D01*
X605709Y407480D02*
X606890D01*
X606299Y406890D02*
Y408071D01*
X597835Y391732D02*
X599016D01*
X598425Y391142D02*
Y392323D01*
X605709Y344488D02*
X606890D01*
X606299Y343898D02*
Y345079D01*
X605709Y281496D02*
X606890D01*
X606299Y280906D02*
Y282087D01*
X605709Y250000D02*
X606890D01*
X606299Y249409D02*
Y250590D01*
X597835Y234252D02*
X599016D01*
X598425Y233661D02*
Y234842D01*
X605709Y218504D02*
X606890D01*
X606299Y217913D02*
Y219094D01*
X605709Y187008D02*
X606890D01*
X606299Y186417D02*
Y187598D01*
X597835Y171260D02*
X599016D01*
X598425Y170669D02*
Y171850D01*
X605709Y155512D02*
X606890D01*
X606299Y154921D02*
Y156102D01*
X605709Y124016D02*
X606890D01*
X606299Y123425D02*
Y124606D01*
X597835Y108268D02*
X599016D01*
X598425Y107677D02*
Y108858D01*
X605709Y92520D02*
X606890D01*
X606299Y91929D02*
Y93110D01*
X582087Y612205D02*
X583268D01*
X582677Y611614D02*
Y612795D01*
X589961Y596457D02*
X591142D01*
X590551Y595866D02*
Y597047D01*
X582087Y580709D02*
X583268D01*
X582677Y580118D02*
Y581299D01*
X582087Y517717D02*
X583268D01*
X582677Y517126D02*
Y518307D01*
X582087Y454724D02*
X583268D01*
X582677Y454134D02*
Y455315D01*
X582087Y423228D02*
X583268D01*
X582677Y422638D02*
Y423819D01*
X582087Y391732D02*
X583268D01*
X582677Y391142D02*
Y392323D01*
X582087Y360236D02*
X583268D01*
X582677Y359646D02*
Y360827D01*
X589961Y344488D02*
X591142D01*
X590551Y343898D02*
Y345079D01*
X582087Y328740D02*
X583268D01*
X582677Y328150D02*
Y329331D01*
X582087Y297244D02*
X583268D01*
X582677Y296654D02*
Y297835D01*
X582087Y234252D02*
X583268D01*
X582677Y233661D02*
Y234842D01*
X582087Y171260D02*
X583268D01*
X582677Y170669D02*
Y171850D01*
X582087Y139764D02*
X583268D01*
X582677Y139173D02*
Y140354D01*
X582087Y108268D02*
X583268D01*
X582677Y107677D02*
Y108858D01*
X589961Y92520D02*
X591142D01*
X590551Y91929D02*
Y93110D01*
X582087Y76772D02*
X583268D01*
X582677Y76181D02*
Y77362D01*
X574213Y596457D02*
X575394D01*
X574803Y595866D02*
Y597047D01*
X566338Y580709D02*
X567520D01*
X566929Y580118D02*
Y581299D01*
X574213Y564961D02*
X575394D01*
X574803Y564370D02*
Y565551D01*
X574213Y533464D02*
X575394D01*
X574803Y532874D02*
Y534055D01*
X566338Y517717D02*
X567520D01*
X566929Y517126D02*
Y518307D01*
X574213Y470472D02*
X575394D01*
X574803Y469882D02*
Y471063D01*
X574213Y438976D02*
X575394D01*
X574803Y438386D02*
Y439567D01*
X566338Y423228D02*
X567520D01*
X566929Y422638D02*
Y423819D01*
X574213Y407480D02*
X575394D01*
X574803Y406890D02*
Y408071D01*
X566338Y391732D02*
X567520D01*
X566929Y391142D02*
Y392323D01*
X574213Y344488D02*
X575394D01*
X574803Y343898D02*
Y345079D01*
X566338Y297244D02*
X567520D01*
X566929Y296654D02*
Y297835D01*
X574213Y281496D02*
X575394D01*
X574803Y280906D02*
Y282087D01*
X574213Y250000D02*
X575394D01*
X574803Y249409D02*
Y250590D01*
X566338Y234252D02*
X567520D01*
X566929Y233661D02*
Y234842D01*
X574213Y187008D02*
X575394D01*
X574803Y186417D02*
Y187598D01*
X574213Y155512D02*
X575394D01*
X574803Y154921D02*
Y156102D01*
X566338Y139764D02*
X567520D01*
X566929Y139173D02*
Y140354D01*
X574213Y124016D02*
X575394D01*
X574803Y123425D02*
Y124606D01*
X566338Y108268D02*
X567520D01*
X566929Y107677D02*
Y108858D01*
X574213Y92520D02*
X575394D01*
X574803Y91929D02*
Y93110D01*
X558464Y596457D02*
X559646D01*
X559055Y595866D02*
Y597047D01*
X550591Y517717D02*
X551772D01*
X551181Y517126D02*
Y518307D01*
X558464Y344488D02*
X559646D01*
X559055Y343898D02*
Y345079D01*
X550591Y234252D02*
X551772D01*
X551181Y233661D02*
Y234842D01*
X534842Y612205D02*
X536024D01*
X535433Y611614D02*
Y612795D01*
X542717Y596457D02*
X543898D01*
X543307Y595866D02*
Y597047D01*
X534842Y580709D02*
X536024D01*
X535433Y580118D02*
Y581299D01*
X534842Y517717D02*
X536024D01*
X535433Y517126D02*
Y518307D01*
X542717Y501968D02*
X543898D01*
X543307Y501378D02*
Y502559D01*
X542717Y470472D02*
X543898D01*
X543307Y469882D02*
Y471063D01*
X534842Y454724D02*
X536024D01*
X535433Y454134D02*
Y455315D01*
X534842Y391732D02*
X536024D01*
X535433Y391142D02*
Y392323D01*
X534842Y360236D02*
X536024D01*
X535433Y359646D02*
Y360827D01*
X542717Y344488D02*
X543898D01*
X543307Y343898D02*
Y345079D01*
X534842Y328740D02*
X536024D01*
X535433Y328150D02*
Y329331D01*
X534842Y297244D02*
X536024D01*
X535433Y296654D02*
Y297835D01*
X534842Y234252D02*
X536024D01*
X535433Y233661D02*
Y234842D01*
X542717Y218504D02*
X543898D01*
X543307Y217913D02*
Y219094D01*
X542717Y187008D02*
X543898D01*
X543307Y186417D02*
Y187598D01*
X534842Y171260D02*
X536024D01*
X535433Y170669D02*
Y171850D01*
X534842Y108268D02*
X536024D01*
X535433Y107677D02*
Y108858D01*
X534842Y76772D02*
X536024D01*
X535433Y76181D02*
Y77362D01*
X519094Y517717D02*
X520275D01*
X519685Y517126D02*
Y518307D01*
X519094Y454724D02*
X520275D01*
X519685Y454134D02*
Y455315D01*
X526968Y344488D02*
X528150D01*
X527559Y343898D02*
Y345079D01*
X519094Y234252D02*
X520275D01*
X519685Y233661D02*
Y234842D01*
X519094Y171260D02*
X520275D01*
X519685Y170669D02*
Y171850D01*
X526968Y92520D02*
X528150D01*
X527559Y91929D02*
Y93110D01*
X503346Y612205D02*
X504528D01*
X503937Y611614D02*
Y612795D01*
X503346Y360236D02*
X504528D01*
X503937Y359646D02*
Y360827D01*
X511220Y344488D02*
X512401D01*
X511811Y343898D02*
Y345079D01*
X503346Y328740D02*
X504528D01*
X503937Y328150D02*
Y329331D01*
X511220Y92520D02*
X512401D01*
X511811Y91929D02*
Y93110D01*
X503346Y76772D02*
X504528D01*
X503937Y76181D02*
Y77362D01*
X487598Y517717D02*
X488779D01*
X488189Y517126D02*
Y518307D01*
X487598Y454724D02*
X488779D01*
X488189Y454134D02*
Y455315D01*
X495472Y438976D02*
X496654D01*
X496063Y438386D02*
Y439567D01*
X495472Y407480D02*
X496654D01*
X496063Y406890D02*
Y408071D01*
X495472Y375984D02*
X496654D01*
X496063Y375394D02*
Y376575D01*
X495472Y344488D02*
X496654D01*
X496063Y343898D02*
Y345079D01*
X495472Y312992D02*
X496654D01*
X496063Y312402D02*
Y313583D01*
X487598Y234252D02*
X488779D01*
X488189Y233661D02*
Y234842D01*
X487598Y171260D02*
X488779D01*
X488189Y170669D02*
Y171850D01*
X495472Y155512D02*
X496654D01*
X496063Y154921D02*
Y156102D01*
X495472Y124016D02*
X496654D01*
X496063Y123425D02*
Y124606D01*
X471850Y612205D02*
X473031D01*
X472441Y611614D02*
Y612795D01*
X471850Y580709D02*
X473031D01*
X472441Y580118D02*
Y581299D01*
X479724Y564961D02*
X480905D01*
X480315Y564370D02*
Y565551D01*
X471850Y549213D02*
X473031D01*
X472441Y548622D02*
Y549803D01*
X479724Y533464D02*
X480905D01*
X480315Y532874D02*
Y534055D01*
X471850Y517717D02*
X473031D01*
X472441Y517126D02*
Y518307D01*
X479724Y501968D02*
X480905D01*
X480315Y501378D02*
Y502559D01*
X471850Y454724D02*
X473031D01*
X472441Y454134D02*
Y455315D01*
X471850Y423228D02*
X473031D01*
X472441Y422638D02*
Y423819D01*
X471850Y391732D02*
X473031D01*
X472441Y391142D02*
Y392323D01*
X479724Y375984D02*
X480905D01*
X480315Y375394D02*
Y376575D01*
X471850Y360236D02*
X473031D01*
X472441Y359646D02*
Y360827D01*
X479724Y344488D02*
X480905D01*
X480315Y343898D02*
Y345079D01*
X471850Y328740D02*
X473031D01*
X472441Y328150D02*
Y329331D01*
X479724Y312992D02*
X480905D01*
X480315Y312402D02*
Y313583D01*
X471850Y297244D02*
X473031D01*
X472441Y296654D02*
Y297835D01*
X479724Y281496D02*
X480905D01*
X480315Y280906D02*
Y282087D01*
X479724Y250000D02*
X480905D01*
X480315Y249409D02*
Y250590D01*
X471850Y234252D02*
X473031D01*
X472441Y233661D02*
Y234842D01*
X479724Y218504D02*
X480905D01*
X480315Y217913D02*
Y219094D01*
X471850Y171260D02*
X473031D01*
X472441Y170669D02*
Y171850D01*
X471850Y139764D02*
X473031D01*
X472441Y139173D02*
Y140354D01*
X471850Y108268D02*
X473031D01*
X472441Y107677D02*
Y108858D01*
X471850Y76772D02*
X473031D01*
X472441Y76181D02*
Y77362D01*
X463976Y564961D02*
X465157D01*
X464567Y564370D02*
Y565551D01*
X463976Y533464D02*
X465157D01*
X464567Y532874D02*
Y534055D01*
X456102Y517717D02*
X457283D01*
X456693Y517126D02*
Y518307D01*
X463976Y501968D02*
X465157D01*
X464567Y501378D02*
Y502559D01*
X463976Y470472D02*
X465157D01*
X464567Y469882D02*
Y471063D01*
X456102Y454724D02*
X457283D01*
X456693Y454134D02*
Y455315D01*
X463976Y438976D02*
X465157D01*
X464567Y438386D02*
Y439567D01*
X456102Y423228D02*
X457283D01*
X456693Y422638D02*
Y423819D01*
X463976Y407480D02*
X465157D01*
X464567Y406890D02*
Y408071D01*
X456102Y391732D02*
X457283D01*
X456693Y391142D02*
Y392323D01*
X463976Y375984D02*
X465157D01*
X464567Y375394D02*
Y376575D01*
X463976Y344488D02*
X465157D01*
X464567Y343898D02*
Y345079D01*
X463976Y312992D02*
X465157D01*
X464567Y312402D02*
Y313583D01*
X463976Y281496D02*
X465157D01*
X464567Y280906D02*
Y282087D01*
X463976Y250000D02*
X465157D01*
X464567Y249409D02*
Y250590D01*
X456102Y234252D02*
X457283D01*
X456693Y233661D02*
Y234842D01*
X463976Y218504D02*
X465157D01*
X464567Y217913D02*
Y219094D01*
X463976Y187008D02*
X465157D01*
X464567Y186417D02*
Y187598D01*
X456102Y171260D02*
X457283D01*
X456693Y170669D02*
Y171850D01*
X463976Y155512D02*
X465157D01*
X464567Y154921D02*
Y156102D01*
X456102Y139764D02*
X457283D01*
X456693Y139173D02*
Y140354D01*
X463976Y124016D02*
X465157D01*
X464567Y123425D02*
Y124606D01*
X456102Y108268D02*
X457283D01*
X456693Y107677D02*
Y108858D01*
X440354Y612205D02*
X441535D01*
X440945Y611614D02*
Y612795D01*
X440354Y580709D02*
X441535D01*
X440945Y580118D02*
Y581299D01*
X440354Y517717D02*
X441535D01*
X440945Y517126D02*
Y518307D01*
X440354Y454724D02*
X441535D01*
X440945Y454134D02*
Y455315D01*
X440354Y423228D02*
X441535D01*
X440945Y422638D02*
Y423819D01*
X440354Y391732D02*
X441535D01*
X440945Y391142D02*
Y392323D01*
X448228Y375984D02*
X449409D01*
X448819Y375394D02*
Y376575D01*
X440354Y360236D02*
X441535D01*
X440945Y359646D02*
Y360827D01*
X448228Y344488D02*
X449409D01*
X448819Y343898D02*
Y345079D01*
X440354Y328740D02*
X441535D01*
X440945Y328150D02*
Y329331D01*
X448228Y312992D02*
X449409D01*
X448819Y312402D02*
Y313583D01*
X440354Y297244D02*
X441535D01*
X440945Y296654D02*
Y297835D01*
X440354Y234252D02*
X441535D01*
X440945Y233661D02*
Y234842D01*
X440354Y171260D02*
X441535D01*
X440945Y170669D02*
Y171850D01*
X440354Y139764D02*
X441535D01*
X440945Y139173D02*
Y140354D01*
X440354Y108268D02*
X441535D01*
X440945Y107677D02*
Y108858D01*
X440354Y76772D02*
X441535D01*
X440945Y76181D02*
Y77362D01*
X424606Y580709D02*
X425787D01*
X425197Y580118D02*
Y581299D01*
X432480Y564961D02*
X433661D01*
X433071Y564370D02*
Y565551D01*
X432480Y533464D02*
X433661D01*
X433071Y532874D02*
Y534055D01*
X424606Y517717D02*
X425787D01*
X425197Y517126D02*
Y518307D01*
X432480Y470472D02*
X433661D01*
X433071Y469882D02*
Y471063D01*
X432480Y438976D02*
X433661D01*
X433071Y438386D02*
Y439567D01*
X424606Y423228D02*
X425787D01*
X425197Y422638D02*
Y423819D01*
X432480Y407480D02*
X433661D01*
X433071Y406890D02*
Y408071D01*
X424606Y391732D02*
X425787D01*
X425197Y391142D02*
Y392323D01*
X432480Y375984D02*
X433661D01*
X433071Y375394D02*
Y376575D01*
X432480Y344488D02*
X433661D01*
X433071Y343898D02*
Y345079D01*
X432480Y312992D02*
X433661D01*
X433071Y312402D02*
Y313583D01*
X424606Y297244D02*
X425787D01*
X425197Y296654D02*
Y297835D01*
X432480Y281496D02*
X433661D01*
X433071Y280906D02*
Y282087D01*
X432480Y250000D02*
X433661D01*
X433071Y249409D02*
Y250590D01*
X424606Y234252D02*
X425787D01*
X425197Y233661D02*
Y234842D01*
X432480Y187008D02*
X433661D01*
X433071Y186417D02*
Y187598D01*
X432480Y155512D02*
X433661D01*
X433071Y154921D02*
Y156102D01*
X424606Y139764D02*
X425787D01*
X425197Y139173D02*
Y140354D01*
X432480Y124016D02*
X433661D01*
X433071Y123425D02*
Y124606D01*
X424606Y108268D02*
X425787D01*
X425197Y107677D02*
Y108858D01*
X408858Y517717D02*
X410039D01*
X409449Y517126D02*
Y518307D01*
X416732Y344488D02*
X417913D01*
X417323Y343898D02*
Y345079D01*
X416732Y312992D02*
X417913D01*
X417323Y312402D02*
Y313583D01*
X408858Y234252D02*
X410039D01*
X409449Y233661D02*
Y234842D01*
X393110Y612205D02*
X394291D01*
X393701Y611614D02*
Y612795D01*
X393110Y580709D02*
X394291D01*
X393701Y580118D02*
Y581299D01*
X393110Y517717D02*
X394291D01*
X393701Y517126D02*
Y518307D01*
X400984Y501968D02*
X402165D01*
X401575Y501378D02*
Y502559D01*
X400984Y470472D02*
X402165D01*
X401575Y469882D02*
Y471063D01*
X393110Y454724D02*
X394291D01*
X393701Y454134D02*
Y455315D01*
X393110Y391732D02*
X394291D01*
X393701Y391142D02*
Y392323D01*
X393110Y360236D02*
X394291D01*
X393701Y359646D02*
Y360827D01*
X400984Y344488D02*
X402165D01*
X401575Y343898D02*
Y345079D01*
X393110Y328740D02*
X394291D01*
X393701Y328150D02*
Y329331D01*
X400984Y312992D02*
X402165D01*
X401575Y312402D02*
Y313583D01*
X393110Y297244D02*
X394291D01*
X393701Y296654D02*
Y297835D01*
X393110Y234252D02*
X394291D01*
X393701Y233661D02*
Y234842D01*
X400984Y218504D02*
X402165D01*
X401575Y217913D02*
Y219094D01*
X400984Y187008D02*
X402165D01*
X401575Y186417D02*
Y187598D01*
X393110Y171260D02*
X394291D01*
X393701Y170669D02*
Y171850D01*
X393110Y108268D02*
X394291D01*
X393701Y107677D02*
Y108858D01*
X393110Y76772D02*
X394291D01*
X393701Y76181D02*
Y77362D01*
X377362Y517717D02*
X378543D01*
X377953Y517126D02*
Y518307D01*
X377362Y454724D02*
X378543D01*
X377953Y454134D02*
Y455315D01*
X385236Y375984D02*
X386417D01*
X385827Y375394D02*
Y376575D01*
X385236Y344488D02*
X386417D01*
X385827Y343898D02*
Y345079D01*
X377362Y234252D02*
X378543D01*
X377953Y233661D02*
Y234842D01*
X377362Y171260D02*
X378543D01*
X377953Y170669D02*
Y171850D01*
X361614Y612205D02*
X362795D01*
X362205Y611614D02*
Y612795D01*
X369488Y375984D02*
X370669D01*
X370079Y375394D02*
Y376575D01*
X361614Y360236D02*
X362795D01*
X362205Y359646D02*
Y360827D01*
X369488Y344488D02*
X370669D01*
X370079Y343898D02*
Y345079D01*
X361614Y328740D02*
X362795D01*
X362205Y328150D02*
Y329331D01*
X361614Y76772D02*
X362795D01*
X362205Y76181D02*
Y77362D01*
X353740Y596457D02*
X354921D01*
X354331Y595866D02*
Y597047D01*
X345866Y517717D02*
X347047D01*
X346457Y517126D02*
Y518307D01*
X345866Y454724D02*
X347047D01*
X346457Y454134D02*
Y455315D01*
X353740Y438976D02*
X354921D01*
X354331Y438386D02*
Y439567D01*
X353740Y407480D02*
X354921D01*
X354331Y406890D02*
Y408071D01*
X353740Y344488D02*
X354921D01*
X354331Y343898D02*
Y345079D01*
X345866Y234252D02*
X347047D01*
X346457Y233661D02*
Y234842D01*
X345866Y171260D02*
X347047D01*
X346457Y170669D02*
Y171850D01*
X353740Y155512D02*
X354921D01*
X354331Y154921D02*
Y156102D01*
X353740Y124016D02*
X354921D01*
X354331Y123425D02*
Y124606D01*
X353740Y92520D02*
X354921D01*
X354331Y91929D02*
Y93110D01*
X330118Y612205D02*
X331299D01*
X330709Y611614D02*
Y612795D01*
X337992Y596457D02*
X339173D01*
X338583Y595866D02*
Y597047D01*
X330118Y580709D02*
X331299D01*
X330709Y580118D02*
Y581299D01*
X337992Y564961D02*
X339173D01*
X338583Y564370D02*
Y565551D01*
X330118Y549213D02*
X331299D01*
X330709Y548622D02*
Y549803D01*
X337992Y533464D02*
X339173D01*
X338583Y532874D02*
Y534055D01*
X330118Y517717D02*
X331299D01*
X330709Y517126D02*
Y518307D01*
X337992Y501968D02*
X339173D01*
X338583Y501378D02*
Y502559D01*
X330118Y423228D02*
X331299D01*
X330709Y422638D02*
Y423819D01*
X330118Y391732D02*
X331299D01*
X330709Y391142D02*
Y392323D01*
X330118Y360236D02*
X331299D01*
X330709Y359646D02*
Y360827D01*
X337992Y344488D02*
X339173D01*
X338583Y343898D02*
Y345079D01*
X330118Y328740D02*
X331299D01*
X330709Y328150D02*
Y329331D01*
X330118Y297244D02*
X331299D01*
X330709Y296654D02*
Y297835D01*
X337992Y281496D02*
X339173D01*
X338583Y280906D02*
Y282087D01*
X337992Y250000D02*
X339173D01*
X338583Y249409D02*
Y250590D01*
X337992Y218504D02*
X339173D01*
X338583Y217913D02*
Y219094D01*
X330118Y139764D02*
X331299D01*
X330709Y139173D02*
Y140354D01*
X330118Y108268D02*
X331299D01*
X330709Y107677D02*
Y108858D01*
X337992Y92520D02*
X339173D01*
X338583Y91929D02*
Y93110D01*
X330118Y76772D02*
X331299D01*
X330709Y76181D02*
Y77362D01*
X322244Y596457D02*
X323425D01*
X322835Y595866D02*
Y597047D01*
X322244Y564961D02*
X323425D01*
X322835Y564370D02*
Y565551D01*
X322244Y533464D02*
X323425D01*
X322835Y532874D02*
Y534055D01*
X314370Y517717D02*
X315551D01*
X314961Y517126D02*
Y518307D01*
X322244Y501968D02*
X323425D01*
X322835Y501378D02*
Y502559D01*
X322244Y470472D02*
X323425D01*
X322835Y469882D02*
Y471063D01*
X314370Y454724D02*
X315551D01*
X314961Y454134D02*
Y455315D01*
X322244Y438976D02*
X323425D01*
X322835Y438386D02*
Y439567D01*
X314370Y423228D02*
X315551D01*
X314961Y422638D02*
Y423819D01*
X322244Y407480D02*
X323425D01*
X322835Y406890D02*
Y408071D01*
X314370Y391732D02*
X315551D01*
X314961Y391142D02*
Y392323D01*
X322244Y344488D02*
X323425D01*
X322835Y343898D02*
Y345079D01*
X322244Y281496D02*
X323425D01*
X322835Y280906D02*
Y282087D01*
X322244Y250000D02*
X323425D01*
X322835Y249409D02*
Y250590D01*
X314370Y234252D02*
X315551D01*
X314961Y233661D02*
Y234842D01*
X322244Y218504D02*
X323425D01*
X322835Y217913D02*
Y219094D01*
X322244Y187008D02*
X323425D01*
X322835Y186417D02*
Y187598D01*
X314370Y171260D02*
X315551D01*
X314961Y170669D02*
Y171850D01*
X322244Y155512D02*
X323425D01*
X322835Y154921D02*
Y156102D01*
X314370Y139764D02*
X315551D01*
X314961Y139173D02*
Y140354D01*
X322244Y124016D02*
X323425D01*
X322835Y123425D02*
Y124606D01*
X314370Y108268D02*
X315551D01*
X314961Y107677D02*
Y108858D01*
X322244Y92520D02*
X323425D01*
X322835Y91929D02*
Y93110D01*
X298622Y612205D02*
X299803D01*
X299213Y611614D02*
Y612795D01*
X306496Y596457D02*
X307677D01*
X307087Y595866D02*
Y597047D01*
X298622Y580709D02*
X299803D01*
X299213Y580118D02*
Y581299D01*
X298622Y517717D02*
X299803D01*
X299213Y517126D02*
Y518307D01*
X298622Y454724D02*
X299803D01*
X299213Y454134D02*
Y455315D01*
X298622Y423228D02*
X299803D01*
X299213Y422638D02*
Y423819D01*
X298622Y391732D02*
X299803D01*
X299213Y391142D02*
Y392323D01*
X298622Y360236D02*
X299803D01*
X299213Y359646D02*
Y360827D01*
X306496Y344488D02*
X307677D01*
X307087Y343898D02*
Y345079D01*
X298622Y328740D02*
X299803D01*
X299213Y328150D02*
Y329331D01*
X298622Y297244D02*
X299803D01*
X299213Y296654D02*
Y297835D01*
X298622Y234252D02*
X299803D01*
X299213Y233661D02*
Y234842D01*
X298622Y171260D02*
X299803D01*
X299213Y170669D02*
Y171850D01*
X298622Y139764D02*
X299803D01*
X299213Y139173D02*
Y140354D01*
X298622Y108268D02*
X299803D01*
X299213Y107677D02*
Y108858D01*
X306496Y92520D02*
X307677D01*
X307087Y91929D02*
Y93110D01*
X298622Y76772D02*
X299803D01*
X299213Y76181D02*
Y77362D01*
X290748Y596457D02*
X291929D01*
X291338Y595866D02*
Y597047D01*
X282874Y580709D02*
X284055D01*
X283465Y580118D02*
Y581299D01*
X290748Y564961D02*
X291929D01*
X291338Y564370D02*
Y565551D01*
X290748Y533464D02*
X291929D01*
X291338Y532874D02*
Y534055D01*
X282874Y517717D02*
X284055D01*
X283465Y517126D02*
Y518307D01*
X290748Y470472D02*
X291929D01*
X291338Y469882D02*
Y471063D01*
X290748Y438976D02*
X291929D01*
X291338Y438386D02*
Y439567D01*
X282874Y423228D02*
X284055D01*
X283465Y422638D02*
Y423819D01*
X290748Y407480D02*
X291929D01*
X291338Y406890D02*
Y408071D01*
X282874Y391732D02*
X284055D01*
X283465Y391142D02*
Y392323D01*
X290748Y344488D02*
X291929D01*
X291338Y343898D02*
Y345079D01*
X282874Y297244D02*
X284055D01*
X283465Y296654D02*
Y297835D01*
X290748Y281496D02*
X291929D01*
X291338Y280906D02*
Y282087D01*
X290748Y250000D02*
X291929D01*
X291338Y249409D02*
Y250590D01*
X282874Y234252D02*
X284055D01*
X283465Y233661D02*
Y234842D01*
X290748Y187008D02*
X291929D01*
X291338Y186417D02*
Y187598D01*
X290748Y155512D02*
X291929D01*
X291338Y154921D02*
Y156102D01*
X282874Y139764D02*
X284055D01*
X283465Y139173D02*
Y140354D01*
X290748Y124016D02*
X291929D01*
X291338Y123425D02*
Y124606D01*
X282874Y108268D02*
X284055D01*
X283465Y107677D02*
Y108858D01*
X290748Y92520D02*
X291929D01*
X291338Y91929D02*
Y93110D01*
X275000Y596457D02*
X276181D01*
X275590Y595866D02*
Y597047D01*
X267126Y517717D02*
X268307D01*
X267717Y517126D02*
Y518307D01*
X275000Y344488D02*
X276181D01*
X275590Y343898D02*
Y345079D01*
X267126Y234252D02*
X268307D01*
X267717Y233661D02*
Y234842D01*
X251378Y612205D02*
X252559D01*
X251969Y611614D02*
Y612795D01*
X259252Y596457D02*
X260433D01*
X259842Y595866D02*
Y597047D01*
X251378Y580709D02*
X252559D01*
X251969Y580118D02*
Y581299D01*
X251378Y517717D02*
X252559D01*
X251969Y517126D02*
Y518307D01*
X259252Y501968D02*
X260433D01*
X259842Y501378D02*
Y502559D01*
X259252Y470472D02*
X260433D01*
X259842Y469882D02*
Y471063D01*
X251378Y454724D02*
X252559D01*
X251969Y454134D02*
Y455315D01*
X251378Y391732D02*
X252559D01*
X251969Y391142D02*
Y392323D01*
X251378Y360236D02*
X252559D01*
X251969Y359646D02*
Y360827D01*
X259252Y344488D02*
X260433D01*
X259842Y343898D02*
Y345079D01*
X251378Y328740D02*
X252559D01*
X251969Y328150D02*
Y329331D01*
X251378Y297244D02*
X252559D01*
X251969Y296654D02*
Y297835D01*
X251378Y234252D02*
X252559D01*
X251969Y233661D02*
Y234842D01*
X259252Y218504D02*
X260433D01*
X259842Y217913D02*
Y219094D01*
X259252Y187008D02*
X260433D01*
X259842Y186417D02*
Y187598D01*
X251378Y171260D02*
X252559D01*
X251969Y170669D02*
Y171850D01*
X251378Y108268D02*
X252559D01*
X251969Y107677D02*
Y108858D01*
X251378Y76772D02*
X252559D01*
X251969Y76181D02*
Y77362D01*
X235630Y517717D02*
X236811D01*
X236220Y517126D02*
Y518307D01*
X235630Y454724D02*
X236811D01*
X236220Y454134D02*
Y455315D01*
X243504Y344488D02*
X244685D01*
X244094Y343898D02*
Y345079D01*
X235630Y234252D02*
X236811D01*
X236220Y233661D02*
Y234842D01*
X235630Y171260D02*
X236811D01*
X236220Y170669D02*
Y171850D01*
X243504Y92520D02*
X244685D01*
X244094Y91929D02*
Y93110D01*
X219882Y612205D02*
X221063D01*
X220472Y611614D02*
Y612795D01*
X219882Y360236D02*
X221063D01*
X220472Y359646D02*
Y360827D01*
X227756Y344488D02*
X228937D01*
X228346Y343898D02*
Y345079D01*
X219882Y328740D02*
X221063D01*
X220472Y328150D02*
Y329331D01*
X227756Y92520D02*
X228937D01*
X228346Y91929D02*
Y93110D01*
X219882Y76772D02*
X221063D01*
X220472Y76181D02*
Y77362D01*
X204134Y517717D02*
X205315D01*
X204724Y517126D02*
Y518307D01*
X204134Y454724D02*
X205315D01*
X204724Y454134D02*
Y455315D01*
X212008Y438976D02*
X213189D01*
X212598Y438386D02*
Y439567D01*
X212008Y407480D02*
X213189D01*
X212598Y406890D02*
Y408071D01*
X212008Y375984D02*
X213189D01*
X212598Y375394D02*
Y376575D01*
X212008Y344488D02*
X213189D01*
X212598Y343898D02*
Y345079D01*
X212008Y312992D02*
X213189D01*
X212598Y312402D02*
Y313583D01*
X204134Y234252D02*
X205315D01*
X204724Y233661D02*
Y234842D01*
X204134Y171260D02*
X205315D01*
X204724Y170669D02*
Y171850D01*
X212008Y155512D02*
X213189D01*
X212598Y154921D02*
Y156102D01*
X212008Y124016D02*
X213189D01*
X212598Y123425D02*
Y124606D01*
X188386Y612205D02*
X189567D01*
X188976Y611614D02*
Y612795D01*
X188386Y580709D02*
X189567D01*
X188976Y580118D02*
Y581299D01*
X196260Y564961D02*
X197441D01*
X196850Y564370D02*
Y565551D01*
X196260Y533464D02*
X197441D01*
X196850Y532874D02*
Y534055D01*
X196260Y501968D02*
X197441D01*
X196850Y501378D02*
Y502559D01*
X188386Y486220D02*
X189567D01*
X188976Y485630D02*
Y486811D01*
X188386Y423228D02*
X189567D01*
X188976Y422638D02*
Y423819D01*
X188386Y391732D02*
X189567D01*
X188976Y391142D02*
Y392323D01*
X196260Y375984D02*
X197441D01*
X196850Y375394D02*
Y376575D01*
X188386Y360236D02*
X189567D01*
X188976Y359646D02*
Y360827D01*
X196260Y344488D02*
X197441D01*
X196850Y343898D02*
Y345079D01*
X188386Y328740D02*
X189567D01*
X188976Y328150D02*
Y329331D01*
X196260Y312992D02*
X197441D01*
X196850Y312402D02*
Y313583D01*
X188386Y297244D02*
X189567D01*
X188976Y296654D02*
Y297835D01*
X196260Y281496D02*
X197441D01*
X196850Y280906D02*
Y282087D01*
X196260Y250000D02*
X197441D01*
X196850Y249409D02*
Y250590D01*
X188386Y202756D02*
X189567D01*
X188976Y202165D02*
Y203346D01*
X188386Y139764D02*
X189567D01*
X188976Y139173D02*
Y140354D01*
X188386Y108268D02*
X189567D01*
X188976Y107677D02*
Y108858D01*
X188386Y76772D02*
X189567D01*
X188976Y76181D02*
Y77362D01*
X180512Y564961D02*
X181693D01*
X181102Y564370D02*
Y565551D01*
X180512Y533464D02*
X181693D01*
X181102Y532874D02*
Y534055D01*
X172638Y517717D02*
X173819D01*
X173228Y517126D02*
Y518307D01*
X180512Y501968D02*
X181693D01*
X181102Y501378D02*
Y502559D01*
X172638Y486220D02*
X173819D01*
X173228Y485630D02*
Y486811D01*
X180512Y470472D02*
X181693D01*
X181102Y469882D02*
Y471063D01*
X172638Y454724D02*
X173819D01*
X173228Y454134D02*
Y455315D01*
X180512Y438976D02*
X181693D01*
X181102Y438386D02*
Y439567D01*
X172638Y423228D02*
X173819D01*
X173228Y422638D02*
Y423819D01*
X180512Y407480D02*
X181693D01*
X181102Y406890D02*
Y408071D01*
X172638Y391732D02*
X173819D01*
X173228Y391142D02*
Y392323D01*
X180512Y375984D02*
X181693D01*
X181102Y375394D02*
Y376575D01*
X180512Y344488D02*
X181693D01*
X181102Y343898D02*
Y345079D01*
X180512Y312992D02*
X181693D01*
X181102Y312402D02*
Y313583D01*
X180512Y281496D02*
X181693D01*
X181102Y280906D02*
Y282087D01*
X180512Y250000D02*
X181693D01*
X181102Y249409D02*
Y250590D01*
X172638Y234252D02*
X173819D01*
X173228Y233661D02*
Y234842D01*
X180512Y218504D02*
X181693D01*
X181102Y217913D02*
Y219094D01*
X172638Y202756D02*
X173819D01*
X173228Y202165D02*
Y203346D01*
X180512Y187008D02*
X181693D01*
X181102Y186417D02*
Y187598D01*
X172638Y171260D02*
X173819D01*
X173228Y170669D02*
Y171850D01*
X180512Y155512D02*
X181693D01*
X181102Y154921D02*
Y156102D01*
X172638Y139764D02*
X173819D01*
X173228Y139173D02*
Y140354D01*
X180512Y124016D02*
X181693D01*
X181102Y123425D02*
Y124606D01*
X172638Y108268D02*
X173819D01*
X173228Y107677D02*
Y108858D01*
X156890Y612205D02*
X158071D01*
X157480Y611614D02*
Y612795D01*
X156890Y580709D02*
X158071D01*
X157480Y580118D02*
Y581299D01*
X156890Y517717D02*
X158071D01*
X157480Y517126D02*
Y518307D01*
X156890Y486220D02*
X158071D01*
X157480Y485630D02*
Y486811D01*
X156890Y454724D02*
X158071D01*
X157480Y454134D02*
Y455315D01*
X156890Y423228D02*
X158071D01*
X157480Y422638D02*
Y423819D01*
X156890Y391732D02*
X158071D01*
X157480Y391142D02*
Y392323D01*
X164764Y375984D02*
X165945D01*
X165354Y375394D02*
Y376575D01*
X156890Y360236D02*
X158071D01*
X157480Y359646D02*
Y360827D01*
X164764Y344488D02*
X165945D01*
X165354Y343898D02*
Y345079D01*
X156890Y328740D02*
X158071D01*
X157480Y328150D02*
Y329331D01*
X164764Y312992D02*
X165945D01*
X165354Y312402D02*
Y313583D01*
X156890Y297244D02*
X158071D01*
X157480Y296654D02*
Y297835D01*
X156890Y234252D02*
X158071D01*
X157480Y233661D02*
Y234842D01*
X156890Y202756D02*
X158071D01*
X157480Y202165D02*
Y203346D01*
X156890Y171260D02*
X158071D01*
X157480Y170669D02*
Y171850D01*
X156890Y139764D02*
X158071D01*
X157480Y139173D02*
Y140354D01*
X156890Y108268D02*
X158071D01*
X157480Y107677D02*
Y108858D01*
X156890Y76772D02*
X158071D01*
X157480Y76181D02*
Y77362D01*
X141142Y580709D02*
X142323D01*
X141732Y580118D02*
Y581299D01*
X149016Y564961D02*
X150197D01*
X149606Y564370D02*
Y565551D01*
X149016Y533464D02*
X150197D01*
X149606Y532874D02*
Y534055D01*
X141142Y517717D02*
X142323D01*
X141732Y517126D02*
Y518307D01*
X141142Y486220D02*
X142323D01*
X141732Y485630D02*
Y486811D01*
X149016Y470472D02*
X150197D01*
X149606Y469882D02*
Y471063D01*
X149016Y438976D02*
X150197D01*
X149606Y438386D02*
Y439567D01*
X141142Y423228D02*
X142323D01*
X141732Y422638D02*
Y423819D01*
X149016Y407480D02*
X150197D01*
X149606Y406890D02*
Y408071D01*
X141142Y391732D02*
X142323D01*
X141732Y391142D02*
Y392323D01*
X149016Y375984D02*
X150197D01*
X149606Y375394D02*
Y376575D01*
X149016Y344488D02*
X150197D01*
X149606Y343898D02*
Y345079D01*
X149016Y312992D02*
X150197D01*
X149606Y312402D02*
Y313583D01*
X141142Y297244D02*
X142323D01*
X141732Y296654D02*
Y297835D01*
X149016Y281496D02*
X150197D01*
X149606Y280906D02*
Y282087D01*
X149016Y250000D02*
X150197D01*
X149606Y249409D02*
Y250590D01*
X141142Y234252D02*
X142323D01*
X141732Y233661D02*
Y234842D01*
X141142Y202756D02*
X142323D01*
X141732Y202165D02*
Y203346D01*
X149016Y187008D02*
X150197D01*
X149606Y186417D02*
Y187598D01*
X149016Y155512D02*
X150197D01*
X149606Y154921D02*
Y156102D01*
X141142Y139764D02*
X142323D01*
X141732Y139173D02*
Y140354D01*
X149016Y124016D02*
X150197D01*
X149606Y123425D02*
Y124606D01*
X141142Y108268D02*
X142323D01*
X141732Y107677D02*
Y108858D01*
X125394Y517717D02*
X126575D01*
X125984Y517126D02*
Y518307D01*
X125394Y486220D02*
X126575D01*
X125984Y485630D02*
Y486811D01*
X133268Y344488D02*
X134449D01*
X133858Y343898D02*
Y345079D01*
X133268Y312992D02*
X134449D01*
X133858Y312402D02*
Y313583D01*
X125394Y234252D02*
X126575D01*
X125984Y233661D02*
Y234842D01*
X125394Y202756D02*
X126575D01*
X125984Y202165D02*
Y203346D01*
X109646Y612205D02*
X110827D01*
X110236Y611614D02*
Y612795D01*
X109646Y580709D02*
X110827D01*
X110236Y580118D02*
Y581299D01*
X109646Y517717D02*
X110827D01*
X110236Y517126D02*
Y518307D01*
X117520Y501968D02*
X118701D01*
X118110Y501378D02*
Y502559D01*
X109646Y486220D02*
X110827D01*
X110236Y485630D02*
Y486811D01*
X117520Y470472D02*
X118701D01*
X118110Y469882D02*
Y471063D01*
X109646Y454724D02*
X110827D01*
X110236Y454134D02*
Y455315D01*
X109646Y391732D02*
X110827D01*
X110236Y391142D02*
Y392323D01*
X109646Y360236D02*
X110827D01*
X110236Y359646D02*
Y360827D01*
X117520Y344488D02*
X118701D01*
X118110Y343898D02*
Y345079D01*
X109646Y328740D02*
X110827D01*
X110236Y328150D02*
Y329331D01*
X117520Y312992D02*
X118701D01*
X118110Y312402D02*
Y313583D01*
X109646Y297244D02*
X110827D01*
X110236Y296654D02*
Y297835D01*
X109646Y234252D02*
X110827D01*
X110236Y233661D02*
Y234842D01*
X117520Y218504D02*
X118701D01*
X118110Y217913D02*
Y219094D01*
X109646Y202756D02*
X110827D01*
X110236Y202165D02*
Y203346D01*
X117520Y187008D02*
X118701D01*
X118110Y186417D02*
Y187598D01*
X109646Y171260D02*
X110827D01*
X110236Y170669D02*
Y171850D01*
X109646Y108268D02*
X110827D01*
X110236Y107677D02*
Y108858D01*
X109646Y76772D02*
X110827D01*
X110236Y76181D02*
Y77362D01*
X93898Y517717D02*
X95079D01*
X94488Y517126D02*
Y518307D01*
X93898Y486220D02*
X95079D01*
X94488Y485630D02*
Y486811D01*
X93898Y454724D02*
X95079D01*
X94488Y454134D02*
Y455315D01*
X101772Y375984D02*
X102953D01*
X102362Y375394D02*
Y376575D01*
X101772Y344488D02*
X102953D01*
X102362Y343898D02*
Y345079D01*
X93898Y234252D02*
X95079D01*
X94488Y233661D02*
Y234842D01*
X93898Y202756D02*
X95079D01*
X94488Y202165D02*
Y203346D01*
X93898Y171260D02*
X95079D01*
X94488Y170669D02*
Y171850D01*
X78150Y612205D02*
X79331D01*
X78740Y611614D02*
Y612795D01*
X86024Y407480D02*
X87205D01*
X86614Y406890D02*
Y408071D01*
X86024Y375984D02*
X87205D01*
X86614Y375394D02*
Y376575D01*
X78150Y360236D02*
X79331D01*
X78740Y359646D02*
Y360827D01*
X86024Y344488D02*
X87205D01*
X86614Y343898D02*
Y345079D01*
X78150Y328740D02*
X79331D01*
X78740Y328150D02*
Y329331D01*
X78150Y297244D02*
X79331D01*
X78740Y296654D02*
Y297835D01*
X78150Y76772D02*
X79331D01*
X78740Y76181D02*
Y77362D01*
X70276Y596457D02*
X71457D01*
X70866Y595866D02*
Y597047D01*
X62402Y517717D02*
X63583D01*
X62992Y517126D02*
Y518307D01*
X62402Y486220D02*
X63583D01*
X62992Y485630D02*
Y486811D01*
X62402Y454724D02*
X63583D01*
X62992Y454134D02*
Y455315D01*
X70276Y438976D02*
X71457D01*
X70866Y438386D02*
Y439567D01*
X70276Y407480D02*
X71457D01*
X70866Y406890D02*
Y408071D01*
X70276Y375984D02*
X71457D01*
X70866Y375394D02*
Y376575D01*
X70276Y344488D02*
X71457D01*
X70866Y343898D02*
Y345079D01*
X70276Y312992D02*
X71457D01*
X70866Y312402D02*
Y313583D01*
X62402Y234252D02*
X63583D01*
X62992Y233661D02*
Y234842D01*
X62402Y202756D02*
X63583D01*
X62992Y202165D02*
Y203346D01*
X62402Y171260D02*
X63583D01*
X62992Y170669D02*
Y171850D01*
X70276Y155512D02*
X71457D01*
X70866Y154921D02*
Y156102D01*
X70276Y124016D02*
X71457D01*
X70866Y123425D02*
Y124606D01*
X70276Y92520D02*
X71457D01*
X70866Y91929D02*
Y93110D01*
X54527Y596457D02*
X55709D01*
X55118Y595866D02*
Y597047D01*
X46654Y580709D02*
X47835D01*
X47244Y580118D02*
Y581299D01*
X54527Y564961D02*
X55709D01*
X55118Y564370D02*
Y565551D01*
X46654Y549213D02*
X47835D01*
X47244Y548622D02*
Y549803D01*
X54527Y533464D02*
X55709D01*
X55118Y532874D02*
Y534055D01*
X46654Y517717D02*
X47835D01*
X47244Y517126D02*
Y518307D01*
X54527Y501968D02*
X55709D01*
X55118Y501378D02*
Y502559D01*
X46654Y486220D02*
X47835D01*
X47244Y485630D02*
Y486811D01*
X46654Y454724D02*
X47835D01*
X47244Y454134D02*
Y455315D01*
X46654Y423228D02*
X47835D01*
X47244Y422638D02*
Y423819D01*
X46654Y391732D02*
X47835D01*
X47244Y391142D02*
Y392323D01*
X54527Y375984D02*
X55709D01*
X55118Y375394D02*
Y376575D01*
X46654Y360236D02*
X47835D01*
X47244Y359646D02*
Y360827D01*
X54527Y344488D02*
X55709D01*
X55118Y343898D02*
Y345079D01*
X46654Y328740D02*
X47835D01*
X47244Y328150D02*
Y329331D01*
X54527Y312992D02*
X55709D01*
X55118Y312402D02*
Y313583D01*
X46654Y297244D02*
X47835D01*
X47244Y296654D02*
Y297835D01*
X54527Y281496D02*
X55709D01*
X55118Y280906D02*
Y282087D01*
X46654Y265748D02*
X47835D01*
X47244Y265158D02*
Y266338D01*
X54527Y250000D02*
X55709D01*
X55118Y249409D02*
Y250590D01*
X46654Y234252D02*
X47835D01*
X47244Y233661D02*
Y234842D01*
X54527Y218504D02*
X55709D01*
X55118Y217913D02*
Y219094D01*
X46654Y202756D02*
X47835D01*
X47244Y202165D02*
Y203346D01*
X46654Y171260D02*
X47835D01*
X47244Y170669D02*
Y171850D01*
X46654Y139764D02*
X47835D01*
X47244Y139173D02*
Y140354D01*
X46654Y108268D02*
X47835D01*
X47244Y107677D02*
Y108858D01*
X54527Y92520D02*
X55709D01*
X55118Y91929D02*
Y93110D01*
X30906Y580709D02*
X32087D01*
X31496Y580118D02*
Y581299D01*
X38780Y564961D02*
X39961D01*
X39370Y564370D02*
Y565551D01*
X30906Y549213D02*
X32087D01*
X31496Y548622D02*
Y549803D01*
X38780Y533464D02*
X39961D01*
X39370Y532874D02*
Y534055D01*
X30906Y517717D02*
X32087D01*
X31496Y517126D02*
Y518307D01*
X38780Y501968D02*
X39961D01*
X39370Y501378D02*
Y502559D01*
X30906Y486220D02*
X32087D01*
X31496Y485630D02*
Y486811D01*
X38780Y470472D02*
X39961D01*
X39370Y469882D02*
Y471063D01*
X30906Y454724D02*
X32087D01*
X31496Y454134D02*
Y455315D01*
X38780Y438976D02*
X39961D01*
X39370Y438386D02*
Y439567D01*
X30906Y423228D02*
X32087D01*
X31496Y422638D02*
Y423819D01*
X38780Y407480D02*
X39961D01*
X39370Y406890D02*
Y408071D01*
X30906Y391732D02*
X32087D01*
X31496Y391142D02*
Y392323D01*
X38780Y375984D02*
X39961D01*
X39370Y375394D02*
Y376575D01*
X30906Y360236D02*
X32087D01*
X31496Y359646D02*
Y360827D01*
X38780Y344488D02*
X39961D01*
X39370Y343898D02*
Y345079D01*
X30906Y328740D02*
X32087D01*
X31496Y328150D02*
Y329331D01*
X38780Y312992D02*
X39961D01*
X39370Y312402D02*
Y313583D01*
X30906Y297244D02*
X32087D01*
X31496Y296654D02*
Y297835D01*
X38780Y281496D02*
X39961D01*
X39370Y280906D02*
Y282087D01*
X30906Y265748D02*
X32087D01*
X31496Y265158D02*
Y266338D01*
X38780Y250000D02*
X39961D01*
X39370Y249409D02*
Y250590D01*
X30906Y234252D02*
X32087D01*
X31496Y233661D02*
Y234842D01*
X38780Y218504D02*
X39961D01*
X39370Y217913D02*
Y219094D01*
X30906Y202756D02*
X32087D01*
X31496Y202165D02*
Y203346D01*
X38780Y187008D02*
X39961D01*
X39370Y186417D02*
Y187598D01*
X30906Y171260D02*
X32087D01*
X31496Y170669D02*
Y171850D01*
X38780Y155512D02*
X39961D01*
X39370Y154921D02*
Y156102D01*
X30906Y139764D02*
X32087D01*
X31496Y139173D02*
Y140354D01*
X38780Y124016D02*
X39961D01*
X39370Y123425D02*
Y124606D01*
X30906Y108268D02*
X32087D01*
X31496Y107677D02*
Y108858D01*
X76007Y404894D02*
X77188D01*
X76598Y404304D02*
Y405485D01*
X82809Y420621D02*
X83990D01*
X83400Y420031D02*
Y421212D01*
X86015Y416202D02*
X87196D01*
X86606Y415612D02*
Y416793D01*
X82501Y562590D02*
X83682D01*
X83092Y561999D02*
Y563180D01*
X79251Y570590D02*
X80432D01*
X79842Y569999D02*
Y571180D01*
X75876Y544505D02*
X77057D01*
X76466Y543915D02*
Y545096D01*
X217706Y558875D02*
X218888D01*
X218297Y558285D02*
Y559466D01*
X220933Y562930D02*
X222114D01*
X221523Y562339D02*
Y563520D01*
X224421Y570429D02*
X225602D01*
X225012Y569839D02*
Y571020D01*
X227822Y548149D02*
X229003D01*
X228413Y547558D02*
Y548740D01*
X217670Y416008D02*
X218851D01*
X218260Y415417D02*
Y416598D01*
X221152Y420573D02*
X222333D01*
X221743Y419982D02*
Y421163D01*
X224352Y428526D02*
X225533D01*
X224943Y427935D02*
Y429116D01*
X227741Y406078D02*
X228922D01*
X228331Y405488D02*
Y406669D01*
X362691Y428688D02*
X363873D01*
X363282Y428097D02*
Y429279D01*
X366045Y419867D02*
X367226D01*
X366636Y419276D02*
Y420457D01*
X369488Y413386D02*
X370669D01*
X370079Y412795D02*
Y413976D01*
X359383Y404016D02*
X360564D01*
X359974Y403426D02*
Y404607D01*
X359527Y546511D02*
X360708D01*
X360117Y545920D02*
Y547101D01*
X362811Y570941D02*
X363992D01*
X363401Y570351D02*
Y571532D01*
X366175Y561009D02*
X367356D01*
X366766Y560418D02*
Y561599D01*
X369339Y555682D02*
X370520D01*
X369930Y555091D02*
Y556273D01*
X501052Y555703D02*
X502233D01*
X501642Y555112D02*
Y556293D01*
X504557Y562478D02*
X505738D01*
X505148Y561887D02*
Y563068D01*
X507748Y569804D02*
X508929D01*
X508338Y569214D02*
Y570395D01*
X511204Y540315D02*
X512385D01*
X511795Y539724D02*
Y540905D01*
X501132Y413402D02*
X502313D01*
X501722Y412812D02*
Y413993D01*
X504457Y420658D02*
X505638D01*
X505048Y420067D02*
Y421248D01*
X507883Y427107D02*
X509064D01*
X508474Y426516D02*
Y427698D01*
X511290Y399132D02*
X512471D01*
X511880Y398542D02*
Y399723D01*
X81869Y285433D02*
X83050D01*
X82460Y284842D02*
Y286024D01*
X78304Y277581D02*
X79485D01*
X78895Y276991D02*
Y278172D01*
X74850Y270636D02*
X76031D01*
X75440Y270045D02*
Y271227D01*
X85102Y263434D02*
X86283D01*
X85693Y262843D02*
Y264024D01*
X74975Y133831D02*
X76156D01*
X75565Y133240D02*
Y134421D01*
X78263Y137834D02*
X79444D01*
X78853Y137244D02*
Y138425D01*
X81778Y144084D02*
X82959D01*
X82368Y143493D02*
Y144674D01*
X84833Y122278D02*
X86014D01*
X85423Y121687D02*
Y122868D01*
X226715Y133298D02*
X227896D01*
X227306Y132707D02*
Y133888D01*
X223400Y137489D02*
X224581D01*
X223991Y136899D02*
Y138080D01*
X219970Y143701D02*
X221152D01*
X220561Y143110D02*
Y144291D01*
X216687Y120746D02*
X217868D01*
X217278Y120155D02*
Y121336D01*
X220092Y285673D02*
X221273D01*
X220683Y285082D02*
Y286263D01*
X223467Y278115D02*
X224648D01*
X224058Y277525D02*
Y278706D01*
X226659Y272392D02*
X227840D01*
X227249Y271802D02*
Y272983D01*
X216717Y263881D02*
X217898D01*
X217307Y263290D02*
Y264472D01*
X359159Y274743D02*
X360340D01*
X359750Y274153D02*
Y275334D01*
X362614Y279469D02*
X363795D01*
X363205Y278879D02*
Y280060D01*
X365878Y287408D02*
X367059D01*
X366468Y286818D02*
Y287999D01*
X369205Y264309D02*
X370386D01*
X369795Y263718D02*
Y264899D01*
X359091Y133284D02*
X360272D01*
X359681Y132694D02*
Y133875D01*
X362493Y137633D02*
X363674D01*
X363083Y137043D02*
Y138224D01*
X365965Y144788D02*
X367146D01*
X366556Y144197D02*
Y145379D01*
X369357Y123979D02*
X370538D01*
X369947Y123388D02*
Y124569D01*
X510203Y131109D02*
X511384D01*
X510793Y130518D02*
Y131699D01*
X506929Y137691D02*
X508110D01*
X507519Y137100D02*
Y138282D01*
X503518Y143284D02*
X504699D01*
X504109Y142694D02*
Y143875D01*
X500176Y120604D02*
X501357D01*
X500766Y120014D02*
Y121195D01*
X510147Y273212D02*
X511328D01*
X510738Y272621D02*
Y273802D01*
X506748Y276393D02*
X507930D01*
X507339Y275803D02*
Y276984D01*
X503531Y279177D02*
X504712D01*
X504121Y278586D02*
Y279767D01*
X500169Y265366D02*
X501350D01*
X500759Y264776D02*
Y265957D01*
X631398Y313155D02*
X632579D01*
X631989Y312564D02*
Y313745D01*
X449036Y319908D02*
X450217D01*
X449627Y319317D02*
Y320498D01*
X555260Y319884D02*
X556441D01*
X555851Y319293D02*
Y320475D01*
X590693Y319884D02*
X591874D01*
X591284Y319293D02*
Y320475D01*
X376527Y401910D02*
X377708D01*
X377117Y401320D02*
Y402501D01*
X236352Y390611D02*
X237533D01*
X236943Y390020D02*
Y391201D01*
X341094Y366477D02*
X342275D01*
X341684Y365887D02*
Y367068D01*
X305678Y366354D02*
X306859D01*
X306268Y365764D02*
Y366945D01*
X307218Y355178D02*
X308399D01*
X307809Y354587D02*
Y355768D01*
X376527Y437344D02*
X377708D01*
X377117Y436753D02*
Y437934D01*
X484539Y603347D02*
X485720D01*
X485130Y602756D02*
Y603937D01*
X482999Y579091D02*
X484180D01*
X483589Y578500D02*
Y579681D01*
X447663Y579167D02*
X448844D01*
X448253Y578576D02*
Y579757D01*
X412230Y579167D02*
X413411D01*
X412820Y578576D02*
Y579757D01*
X376797Y579167D02*
X377978D01*
X377387Y578576D02*
Y579757D01*
X341364Y579167D02*
X342545D01*
X341954Y578576D02*
Y579757D01*
X305856Y579160D02*
X307037D01*
X306446Y578569D02*
Y579750D01*
X590715Y355319D02*
X591896D01*
X591306Y354728D02*
Y355909D01*
X706508Y341940D02*
X707689D01*
X707098Y341349D02*
Y342530D01*
X667230Y300264D02*
X668411D01*
X667821Y299673D02*
Y300854D01*
X655711Y303393D02*
X656892D01*
X656301Y302802D02*
Y303983D01*
X616535Y299213D02*
X617717D01*
X617126Y298622D02*
Y299803D01*
X631457Y346578D02*
X632638D01*
X632048Y345987D02*
Y347168D01*
X625722Y337404D02*
X626903D01*
X626312Y336813D02*
Y337995D01*
X619882Y333645D02*
X621063D01*
X620473Y333054D02*
Y334236D01*
X631556Y357652D02*
X632737D01*
X632146Y357061D02*
Y358242D01*
X631292Y326539D02*
X632473D01*
X631883Y325949D02*
Y327130D01*
X625918Y305809D02*
X627100D01*
X626509Y305219D02*
Y306400D01*
X620025Y301943D02*
X621206D01*
X620616Y301353D02*
Y302534D01*
X631464Y318758D02*
X632646D01*
X632055Y318168D02*
Y319349D01*
X621193Y313349D02*
X622374D01*
X621783Y312759D02*
Y313940D01*
X619981Y341127D02*
X621162D01*
X620572Y340537D02*
Y341718D01*
X621281Y345258D02*
X622462D01*
X621872Y344668D02*
Y345849D01*
X699071Y307719D02*
X700252D01*
X699662Y307129D02*
Y308310D01*
X705447Y315857D02*
X706629D01*
X706038Y315266D02*
Y316448D01*
X696053Y310612D02*
X697234D01*
X696643Y310022D02*
Y311203D01*
X701714Y316025D02*
X702895D01*
X702305Y315435D02*
Y316616D01*
X689274Y318846D02*
X690455D01*
X689864Y318255D02*
Y319436D01*
X694638Y338924D02*
X695819D01*
X695229Y338334D02*
Y339515D01*
X702125Y325431D02*
X703306D01*
X702716Y324841D02*
Y326022D01*
X694589Y349456D02*
X695770D01*
X695179Y348865D02*
Y350046D01*
X699904Y336562D02*
X701085D01*
X700494Y335972D02*
Y337153D01*
X702090Y333374D02*
X703271D01*
X702680Y332784D02*
Y333965D01*
X651774Y378196D02*
X652955D01*
X652364Y377606D02*
Y378787D01*
X654727Y361464D02*
X655908D01*
X655317Y360873D02*
Y362054D01*
X665553Y341779D02*
X666735D01*
X666144Y341188D02*
Y342369D01*
X665804Y371645D02*
X666986D01*
X666395Y371054D02*
Y372235D01*
X654727Y332920D02*
X655908D01*
X655317Y332330D02*
Y333511D01*
X654727Y345716D02*
X655908D01*
X655317Y345125D02*
Y346306D01*
X660632Y311267D02*
X661813D01*
X661223Y310676D02*
Y311857D01*
X654642Y319188D02*
X655824D01*
X655233Y318597D02*
Y319778D01*
X666538Y352606D02*
X667719D01*
X667128Y352015D02*
Y353196D01*
X689274Y323767D02*
X690455D01*
X689864Y323176D02*
Y324358D01*
X666538Y327015D02*
X667719D01*
X667128Y326424D02*
Y327606D01*
X689372Y328787D02*
X690553D01*
X689963Y328196D02*
Y329377D01*
X686683Y339709D02*
X687864D01*
X687274Y339118D02*
Y340299D01*
X680809Y343649D02*
X681990D01*
X681400Y343058D02*
Y344239D01*
X620026Y309327D02*
X621207D01*
X620616Y308736D02*
Y309917D01*
X642629Y365699D02*
X643810D01*
X643219Y365108D02*
Y366289D01*
X636868Y305629D02*
X638050D01*
X637459Y305039D02*
Y306220D01*
X609181Y302102D02*
X610362D01*
X609771Y301511D02*
Y302692D01*
X636863Y336782D02*
X638044D01*
X637453Y336191D02*
Y337372D01*
X616462Y331455D02*
X617643D01*
X617052Y330865D02*
Y332046D01*
X609181Y334416D02*
X610362D01*
X609771Y333825D02*
Y335007D01*
X642817Y308413D02*
X643998D01*
X643408Y307822D02*
Y309003D01*
X642873Y301890D02*
X644054D01*
X643463Y301299D02*
Y302480D01*
X631523Y352148D02*
X632704D01*
X632113Y351557D02*
Y352738D01*
X648233Y454304D02*
X649414D01*
X648824Y453714D02*
Y454895D01*
X690324Y496894D02*
X691505D01*
X690914Y496304D02*
Y497485D01*
X669295Y486999D02*
X670476D01*
X669885Y486408D02*
Y487589D01*
X682652Y486790D02*
X683833D01*
X683242Y486199D02*
Y487380D01*
X682701Y498696D02*
X683882D01*
X683292Y498105D02*
Y499286D01*
X679060Y495054D02*
X680241D01*
X679650Y494463D02*
Y495645D01*
X675689Y211910D02*
X676870D01*
X676279Y211319D02*
Y212500D01*
X667913Y220472D02*
X669095D01*
X668504Y219882D02*
Y221063D01*
X675492Y220276D02*
X676673D01*
X676083Y219685D02*
Y220866D01*
X672365Y230928D02*
X673546D01*
X672956Y230338D02*
Y231519D01*
X690103Y205876D02*
X691284D01*
X690694Y205285D02*
Y206467D01*
X575681Y554331D02*
X576862D01*
X576272Y553741D02*
Y554922D01*
X627412Y536248D02*
X628593D01*
X628002Y535658D02*
Y536839D01*
X627358Y484035D02*
X628539D01*
X627949Y483444D02*
Y484625D01*
X630339Y497711D02*
X631520D01*
X630930Y497121D02*
Y498302D01*
X632649Y483921D02*
X633830D01*
X633240Y483331D02*
Y484512D01*
X118145Y429866D02*
X119326D01*
X118736Y429275D02*
Y430456D01*
X123270Y429843D02*
X124451D01*
X123861Y429253D02*
Y430434D01*
X113044Y429850D02*
X114225D01*
X113635Y429259D02*
Y430441D01*
X613624Y477467D02*
X614805D01*
X614214Y476877D02*
Y478058D01*
X613583Y468504D02*
X614764D01*
X614173Y467913D02*
Y469095D01*
X613206Y458217D02*
X614387D01*
X613797Y457627D02*
Y458808D01*
X575558Y419683D02*
X576739D01*
X576148Y419093D02*
Y420274D01*
X632379Y217354D02*
X633560D01*
X632970Y216764D02*
Y217945D01*
X535567Y265060D02*
X536748D01*
X536158Y264470D02*
Y265651D01*
X575535Y270868D02*
X576717D01*
X576126Y270278D02*
Y271459D01*
X174626Y151658D02*
X175807D01*
X175216Y151067D02*
Y152248D01*
X553869Y153829D02*
X555050D01*
X554460Y153239D02*
Y154420D01*
X632252Y165131D02*
X633433D01*
X632843Y164541D02*
Y165722D01*
X627174Y165129D02*
X628355D01*
X627764Y164538D02*
Y165719D01*
X632258Y193040D02*
X633439D01*
X632848Y192449D02*
Y193631D01*
X627153Y193064D02*
X628334D01*
X627743Y192473D02*
Y193654D01*
X627133Y217385D02*
X628314D01*
X627724Y216795D02*
Y217976D01*
X632266Y245156D02*
X633447D01*
X632857Y244566D02*
Y245747D01*
X627185Y245181D02*
X628366D01*
X627776Y244591D02*
Y245772D01*
X632556Y456209D02*
X633737D01*
X633146Y455619D02*
Y456800D01*
X627447Y456185D02*
X628628D01*
X628037Y455594D02*
Y456776D01*
X632490Y536313D02*
X633671D01*
X633080Y535722D02*
Y536903D01*
X627448Y508340D02*
X628629D01*
X628038Y507749D02*
Y508930D01*
X656583Y92124D02*
X657764D01*
X657173Y91533D02*
Y92714D01*
X648540Y92028D02*
X649721D01*
X649130Y91437D02*
Y92619D01*
X632898Y96428D02*
X634079D01*
X633489Y95837D02*
Y97018D01*
X635411Y98576D02*
X636592D01*
X636002Y97985D02*
Y99166D01*
X637166Y95611D02*
X638347D01*
X637756Y95020D02*
Y96201D01*
X637226Y100905D02*
X638408D01*
X637817Y100315D02*
Y101496D01*
X632386Y100875D02*
X633567D01*
X632976Y100284D02*
Y101465D01*
X614021Y99593D02*
X615202D01*
X614611Y99002D02*
Y100183D01*
X668701Y133858D02*
X669882D01*
X669291Y133268D02*
Y134449D01*
X678543Y133858D02*
X679724D01*
X679134Y133268D02*
Y134449D01*
X678543Y143701D02*
X679724D01*
X679134Y143110D02*
Y144291D01*
X668701Y143701D02*
X669882D01*
X669291Y143110D02*
Y144291D01*
X609646Y123031D02*
X610827D01*
X610236Y122441D02*
Y123622D01*
X613583Y123031D02*
X614764D01*
X614173Y122441D02*
Y123622D01*
X616535Y118110D02*
X617717D01*
X617126Y117520D02*
Y118701D01*
X611614Y127953D02*
X612795D01*
X612205Y127362D02*
Y128543D01*
X616535Y127953D02*
X617717D01*
X617126Y127362D02*
Y128543D01*
X610630Y118110D02*
X611811D01*
X611221Y117520D02*
Y118701D01*
X617520Y123031D02*
X618701D01*
X618110Y122441D02*
Y123622D01*
X656385Y123902D02*
X657566D01*
X656975Y123311D02*
Y124492D01*
X647570Y126404D02*
X648751D01*
X648161Y125814D02*
Y126995D01*
X624409Y135827D02*
X625591D01*
X625000Y135236D02*
Y136417D01*
X653937Y139764D02*
X655118D01*
X654528Y139173D02*
Y140354D01*
X643110Y139764D02*
X644291D01*
X643701Y139173D02*
Y140354D01*
X633268Y139764D02*
X634449D01*
X633858Y139173D02*
Y140354D01*
X669685Y82677D02*
X670866D01*
X670276Y82087D02*
Y83268D01*
X662795Y82677D02*
X663976D01*
X663386Y82087D02*
Y83268D01*
X168897Y275859D02*
X170079D01*
X169488Y275268D02*
Y276449D01*
X139067Y328819D02*
X140248D01*
X139658Y328229D02*
Y329410D01*
X174500Y328819D02*
X175681D01*
X175091Y328229D02*
Y329410D01*
X103634Y222520D02*
X104815D01*
X104225Y221930D02*
Y223111D01*
X139067Y222520D02*
X140248D01*
X139658Y221930D02*
Y223111D01*
X68201Y328819D02*
X69382D01*
X68792Y328229D02*
Y329410D01*
X174500Y293386D02*
X175681D01*
X175091Y292796D02*
Y293977D01*
X174500Y222520D02*
X175681D01*
X175091Y221930D02*
Y223111D01*
X174500Y257953D02*
X175681D01*
X175091Y257363D02*
Y258544D01*
X103634Y328819D02*
X104815D01*
X104225Y328229D02*
Y329410D01*
X68201Y293386D02*
X69382D01*
X68792Y292796D02*
Y293977D01*
X150288Y276851D02*
X151469D01*
X150878Y276260D02*
Y277441D01*
X139067Y293386D02*
X140248D01*
X139658Y292796D02*
Y293977D01*
X128308Y280328D02*
X129489D01*
X128899Y279737D02*
Y280918D01*
X124697Y270945D02*
X125878D01*
X125288Y270355D02*
Y271536D01*
X103634Y293386D02*
X104815D01*
X104225Y292796D02*
Y293977D01*
X151862Y254016D02*
X153044D01*
X152453Y253426D02*
Y254607D01*
X103492Y256459D02*
X104673D01*
X104082Y255868D02*
Y257049D01*
X139067Y257953D02*
X140248D01*
X139658Y257363D02*
Y258544D01*
X68201Y257953D02*
X69382D01*
X68792Y257363D02*
Y258544D01*
X68201Y222520D02*
X69382D01*
X68792Y221930D02*
Y223111D01*
X163905Y331138D02*
X165086D01*
X164495Y330547D02*
Y331729D01*
X128472Y331138D02*
X129653D01*
X129062Y330547D02*
Y331729D01*
X93038Y224839D02*
X94220D01*
X93629Y224248D02*
Y225429D01*
X57605Y331138D02*
X58786D01*
X58196Y330547D02*
Y331729D01*
X93038Y331138D02*
X94220D01*
X93629Y330547D02*
Y331729D01*
X105215Y279956D02*
X106396D01*
X105806Y279366D02*
Y280547D01*
X128472Y295705D02*
X129653D01*
X129062Y295114D02*
Y296295D01*
X163905Y295705D02*
X165086D01*
X164495Y295114D02*
Y296295D01*
X130695Y256917D02*
X131877D01*
X131286Y256326D02*
Y257507D01*
X130603Y270945D02*
X131784D01*
X131193Y270355D02*
Y271536D01*
X93038Y295705D02*
X94220D01*
X93629Y295114D02*
Y296295D01*
X57605Y295705D02*
X58786D01*
X58196Y295114D02*
Y296295D01*
X163905Y224839D02*
X165086D01*
X164495Y224248D02*
Y225429D01*
X128472Y224839D02*
X129653D01*
X129062Y224248D02*
Y225429D01*
X150288Y270945D02*
X151469D01*
X150878Y270355D02*
Y271536D01*
X163905Y260272D02*
X165086D01*
X164495Y259681D02*
Y260862D01*
X93038Y260272D02*
X94220D01*
X93629Y259681D02*
Y260862D01*
X57605Y260272D02*
X58786D01*
X58196Y259681D02*
Y260862D01*
X57605Y224839D02*
X58786D01*
X58196Y224248D02*
Y225429D01*
X105162Y265242D02*
X106343D01*
X105753Y264652D02*
Y265833D01*
X59146Y249095D02*
X60327D01*
X59737Y248504D02*
Y249686D01*
X125487Y282906D02*
X126668D01*
X126077Y282315D02*
Y283497D01*
X134698Y284515D02*
X135879D01*
X135289Y283925D02*
Y285106D01*
X123141Y288111D02*
X124322D01*
X123731Y287521D02*
Y288702D01*
X165445Y284528D02*
X166626D01*
X166036Y283938D02*
Y285119D01*
X120617Y283524D02*
X121799D01*
X121208Y282933D02*
Y284115D01*
X165445Y319961D02*
X166626D01*
X166036Y319371D02*
Y320552D01*
X118015Y288134D02*
X119196D01*
X118606Y287543D02*
Y288724D01*
X130012Y319961D02*
X131193D01*
X130603Y319371D02*
Y320552D01*
X115427Y283568D02*
X116608D01*
X116018Y282977D02*
Y284158D01*
X94579Y319961D02*
X95760D01*
X95170Y319371D02*
Y320552D01*
X112915Y288118D02*
X114096D01*
X113505Y287528D02*
Y288709D01*
X59146Y319961D02*
X60327D01*
X59737Y319371D02*
Y320552D01*
X110330Y283272D02*
X111511D01*
X110921Y282682D02*
Y283863D01*
X59146Y284528D02*
X60327D01*
X59737Y283938D02*
Y285119D01*
X123074Y260212D02*
X124255D01*
X123664Y259622D02*
Y260803D01*
X165445Y249095D02*
X166626D01*
X166036Y248504D02*
Y249686D01*
X120559Y264944D02*
X121740D01*
X121149Y264353D02*
Y265534D01*
X130012Y249095D02*
X131193D01*
X130603Y248504D02*
Y249686D01*
X118029Y260382D02*
X119210D01*
X118620Y259791D02*
Y260972D01*
X165445Y213662D02*
X166626D01*
X166036Y213071D02*
Y214252D01*
X115442Y264980D02*
X116623D01*
X116032Y264389D02*
Y265570D01*
X130012Y213662D02*
X131193D01*
X130603Y213071D02*
Y214252D01*
X112819Y260277D02*
X114000D01*
X113410Y259686D02*
Y260868D01*
X94579Y213662D02*
X95760D01*
X95170Y213071D02*
Y214252D01*
X110319Y265137D02*
X111501D01*
X110910Y264547D02*
Y265728D01*
X59146Y213662D02*
X60327D01*
X59737Y213071D02*
Y214252D01*
X107732Y260102D02*
X108913D01*
X108323Y259512D02*
Y260693D01*
X94579Y249095D02*
X95760D01*
X95170Y248504D02*
Y249686D01*
X107805Y288206D02*
X108986D01*
X108395Y287616D02*
Y288797D01*
X94579Y284528D02*
X95760D01*
X95170Y283938D02*
Y285119D01*
X594168Y417516D02*
X595349D01*
X594758Y416925D02*
Y418106D01*
X564337Y470476D02*
X565518D01*
X564928Y469886D02*
Y471067D01*
X599770Y470476D02*
X600951D01*
X600361Y469886D02*
Y471067D01*
X528904Y364177D02*
X530085D01*
X529495Y363587D02*
Y364768D01*
X564337Y364177D02*
X565518D01*
X564928Y363587D02*
Y364768D01*
X493471Y470476D02*
X494652D01*
X494062Y469886D02*
Y471067D01*
X599770Y435043D02*
X600951D01*
X600361Y434453D02*
Y435634D01*
X599770Y364177D02*
X600951D01*
X600361Y363587D02*
Y364768D01*
X599770Y399610D02*
X600951D01*
X600361Y399020D02*
Y400201D01*
X528904Y470476D02*
X530085D01*
X529495Y469886D02*
Y471067D01*
X493471Y435043D02*
X494652D01*
X494062Y434453D02*
Y435634D01*
X564337Y435043D02*
X565518D01*
X564928Y434453D02*
Y435634D01*
X553578Y421985D02*
X554759D01*
X554169Y421394D02*
Y422575D01*
X549967Y412602D02*
X551148D01*
X550558Y412012D02*
Y413193D01*
X528904Y435043D02*
X530085D01*
X529495Y434453D02*
Y435634D01*
X577132Y395673D02*
X578314D01*
X577723Y395083D02*
Y396264D01*
X528762Y398116D02*
X529943D01*
X529352Y397525D02*
Y398706D01*
X564337Y399610D02*
X565518D01*
X564928Y399020D02*
Y400201D01*
X493471Y399610D02*
X494652D01*
X494062Y399020D02*
Y400201D01*
X493471Y364177D02*
X494652D01*
X494062Y363587D02*
Y364768D01*
X589175Y472795D02*
X590356D01*
X589765Y472204D02*
Y473385D01*
X553742Y472795D02*
X554923D01*
X554332Y472204D02*
Y473385D01*
X518308Y366496D02*
X519489D01*
X518899Y365905D02*
Y367086D01*
X482875Y472795D02*
X484057D01*
X483466Y472204D02*
Y473385D01*
X518308Y472795D02*
X519489D01*
X518899Y472204D02*
Y473385D01*
X530485Y421613D02*
X531666D01*
X531076Y421023D02*
Y422204D01*
X553742Y437362D02*
X554923D01*
X554332Y436771D02*
Y437952D01*
X589175Y437362D02*
X590356D01*
X589765Y436771D02*
Y437952D01*
X555965Y398574D02*
X557147D01*
X556556Y397983D02*
Y399164D01*
X555873Y412602D02*
X557054D01*
X556463Y412012D02*
Y413193D01*
X518308Y437362D02*
X519489D01*
X518899Y436771D02*
Y437952D01*
X482875Y437362D02*
X484057D01*
X483466Y436771D02*
Y437952D01*
X589175Y366496D02*
X590356D01*
X589765Y365905D02*
Y367086D01*
X553742Y366496D02*
X554923D01*
X554332Y365905D02*
Y367086D01*
X575558Y412602D02*
X576739D01*
X576148Y412012D02*
Y413193D01*
X589175Y401929D02*
X590356D01*
X589765Y401338D02*
Y402519D01*
X518308Y401929D02*
X519489D01*
X518899Y401338D02*
Y402519D01*
X482875Y401929D02*
X484057D01*
X483466Y401338D02*
Y402519D01*
X482875Y366496D02*
X484057D01*
X483466Y365905D02*
Y367086D01*
X530432Y406899D02*
X531613D01*
X531023Y406309D02*
Y407490D01*
X484416Y390752D02*
X485597D01*
X485007Y390161D02*
Y391342D01*
X550757Y424563D02*
X551938D01*
X551347Y423973D02*
Y425154D01*
X559968Y426172D02*
X561149D01*
X560559Y425582D02*
Y426763D01*
X548411Y429768D02*
X549592D01*
X549001Y429178D02*
Y430359D01*
X590715Y426185D02*
X591896D01*
X591306Y425594D02*
Y426776D01*
X545887Y425181D02*
X547069D01*
X546478Y424590D02*
Y425772D01*
X590715Y461618D02*
X591896D01*
X591306Y461027D02*
Y462209D01*
X543285Y429791D02*
X544466D01*
X543876Y429200D02*
Y430381D01*
X555282Y461618D02*
X556463D01*
X555873Y461027D02*
Y462209D01*
X540697Y425225D02*
X541878D01*
X541288Y424634D02*
Y425815D01*
X519849Y461618D02*
X521030D01*
X520439Y461027D02*
Y462209D01*
X538185Y429775D02*
X539366D01*
X538775Y429184D02*
Y430366D01*
X484416Y461618D02*
X485597D01*
X485007Y461027D02*
Y462209D01*
X535600Y424929D02*
X536781D01*
X536191Y424339D02*
Y425520D01*
X484416Y426185D02*
X485597D01*
X485007Y425594D02*
Y426776D01*
X548344Y401869D02*
X549525D01*
X548934Y401279D02*
Y402460D01*
X590715Y390752D02*
X591896D01*
X591306Y390161D02*
Y391342D01*
X545829Y406601D02*
X547010D01*
X546419Y406010D02*
Y407191D01*
X555282Y390752D02*
X556463D01*
X555873Y390161D02*
Y391342D01*
X543299Y402039D02*
X544481D01*
X543890Y401448D02*
Y402630D01*
X540712Y406637D02*
X541893D01*
X541302Y406046D02*
Y407228D01*
X555282Y355319D02*
X556463D01*
X555873Y354728D02*
Y355909D01*
X538089Y401934D02*
X539270D01*
X538680Y401343D02*
Y402525D01*
X519849Y355319D02*
X521030D01*
X520439Y354728D02*
Y355909D01*
X535589Y406794D02*
X536770D01*
X536180Y406204D02*
Y407385D01*
X484416Y355319D02*
X485597D01*
X485007Y354728D02*
Y355909D01*
X533002Y401759D02*
X534183D01*
X533593Y401169D02*
Y402350D01*
X519849Y390752D02*
X521030D01*
X520439Y390161D02*
Y391342D01*
X533075Y429863D02*
X534256D01*
X533665Y429273D02*
Y430454D01*
X519849Y426185D02*
X521030D01*
X520439Y425594D02*
Y426776D01*
X452386Y417497D02*
X453567D01*
X452976Y416907D02*
Y418088D01*
X422555Y470458D02*
X423737D01*
X423146Y469868D02*
Y471049D01*
X457989Y470458D02*
X459170D01*
X458579Y469868D02*
Y471049D01*
X387122Y364159D02*
X388303D01*
X387713Y363568D02*
Y364749D01*
X422555Y364159D02*
X423737D01*
X423146Y363568D02*
Y364749D01*
X351689Y470458D02*
X352870D01*
X352280Y469868D02*
Y471049D01*
X457989Y435025D02*
X459170D01*
X458579Y434435D02*
Y435616D01*
X457989Y364159D02*
X459170D01*
X458579Y363568D02*
Y364749D01*
X457989Y399592D02*
X459170D01*
X458579Y399001D02*
Y400182D01*
X387122Y470458D02*
X388303D01*
X387713Y469868D02*
Y471049D01*
X351689Y435025D02*
X352870D01*
X352280Y434435D02*
Y435616D01*
X433776Y418490D02*
X434957D01*
X434367Y417899D02*
Y419080D01*
X422555Y435025D02*
X423737D01*
X423146Y434435D02*
Y435616D01*
X411797Y421967D02*
X412978D01*
X412387Y421376D02*
Y422557D01*
X408185Y412584D02*
X409367D01*
X408776Y411994D02*
Y413175D01*
X387122Y435025D02*
X388303D01*
X387713Y434435D02*
Y435616D01*
X435351Y395655D02*
X436532D01*
X435941Y395064D02*
Y396246D01*
X386980Y398097D02*
X388161D01*
X387570Y397507D02*
Y398688D01*
X422555Y399592D02*
X423737D01*
X423146Y399001D02*
Y400182D01*
X351689Y399592D02*
X352870D01*
X352280Y399001D02*
Y400182D01*
X351689Y364159D02*
X352870D01*
X352280Y363568D02*
Y364749D01*
X447393Y472777D02*
X448574D01*
X447984Y472186D02*
Y473367D01*
X411960Y472777D02*
X413141D01*
X412550Y472186D02*
Y473367D01*
X376527Y366477D02*
X377708D01*
X377117Y365887D02*
Y367068D01*
X341094Y472777D02*
X342275D01*
X341684Y472186D02*
Y473367D01*
X376527Y472777D02*
X377708D01*
X377117Y472186D02*
Y473367D01*
X388703Y421595D02*
X389884D01*
X389294Y421005D02*
Y422186D01*
X411960Y437344D02*
X413141D01*
X412550Y436753D02*
Y437934D01*
X447393Y437344D02*
X448574D01*
X447984Y436753D02*
Y437934D01*
X414184Y398555D02*
X415365D01*
X414774Y397965D02*
Y399146D01*
X414091Y412584D02*
X415272D01*
X414681Y411994D02*
Y413175D01*
X341094Y437344D02*
X342275D01*
X341684Y436753D02*
Y437934D01*
X447393Y366477D02*
X448574D01*
X447984Y365887D02*
Y367068D01*
X411960Y366477D02*
X413141D01*
X412550Y365887D02*
Y367068D01*
X433776Y412584D02*
X434957D01*
X434367Y411994D02*
Y413175D01*
X447393Y401910D02*
X448574D01*
X447984Y401320D02*
Y402501D01*
X341094Y401910D02*
X342275D01*
X341684Y401320D02*
Y402501D01*
X388650Y406881D02*
X389831D01*
X389241Y406290D02*
Y407472D01*
X342634Y390734D02*
X343815D01*
X343225Y390143D02*
Y391324D01*
X408975Y424545D02*
X410156D01*
X409565Y423954D02*
Y425135D01*
X418186Y426154D02*
X419367D01*
X418777Y425564D02*
Y426745D01*
X406629Y429750D02*
X407810D01*
X407219Y429159D02*
Y430341D01*
X448933Y426167D02*
X450114D01*
X449524Y425576D02*
Y426757D01*
X404106Y425163D02*
X405287D01*
X404696Y424572D02*
Y425753D01*
X448933Y461600D02*
X450114D01*
X449524Y461009D02*
Y462190D01*
X401504Y429773D02*
X402685D01*
X402094Y429182D02*
Y430363D01*
X413500Y461600D02*
X414681D01*
X414091Y461009D02*
Y462190D01*
X398916Y425207D02*
X400097D01*
X399506Y424616D02*
Y425797D01*
X378067Y461600D02*
X379248D01*
X378658Y461009D02*
Y462190D01*
X396403Y429757D02*
X397584D01*
X396994Y429166D02*
Y430347D01*
X342634Y461600D02*
X343815D01*
X343225Y461009D02*
Y462190D01*
X393819Y424911D02*
X395000D01*
X394409Y424320D02*
Y425501D01*
X342634Y426167D02*
X343815D01*
X343225Y425576D02*
Y426757D01*
X406562Y401851D02*
X407743D01*
X407153Y401261D02*
Y402442D01*
X448933Y390734D02*
X450114D01*
X449524Y390143D02*
Y391324D01*
X404047Y406582D02*
X405228D01*
X404637Y405992D02*
Y407173D01*
X413500Y390734D02*
X414681D01*
X414091Y390143D02*
Y391324D01*
X401518Y402021D02*
X402699D01*
X402108Y401430D02*
Y402611D01*
X448933Y355301D02*
X450114D01*
X449524Y354710D02*
Y355891D01*
X398930Y406619D02*
X400111D01*
X399521Y406028D02*
Y407209D01*
X413500Y355301D02*
X414681D01*
X414091Y354710D02*
Y355891D01*
X396308Y401916D02*
X397489D01*
X396898Y401325D02*
Y402506D01*
X378067Y355301D02*
X379248D01*
X378658Y354710D02*
Y355891D01*
X393808Y406776D02*
X394989D01*
X394398Y406185D02*
Y407367D01*
X342634Y355301D02*
X343815D01*
X343225Y354710D02*
Y355891D01*
X391220Y401741D02*
X392401D01*
X391811Y401150D02*
Y402331D01*
X378067Y390734D02*
X379248D01*
X378658Y390143D02*
Y391324D01*
X391293Y429845D02*
X392474D01*
X391883Y429254D02*
Y430436D01*
X378067Y426167D02*
X379248D01*
X378658Y425576D02*
Y426757D01*
X310671Y417375D02*
X311852D01*
X311261Y416784D02*
Y417965D01*
X280840Y470335D02*
X282021D01*
X281431Y469744D02*
Y470926D01*
X316273Y470335D02*
X317454D01*
X316864Y469744D02*
Y470926D01*
X245407Y364036D02*
X246588D01*
X245998Y363445D02*
Y364626D01*
X280840Y364036D02*
X282021D01*
X281431Y363445D02*
Y364626D01*
X209974Y470335D02*
X211155D01*
X210565Y469744D02*
Y470926D01*
X316273Y434902D02*
X317454D01*
X316864Y434311D02*
Y435493D01*
X316273Y364036D02*
X317454D01*
X316864Y363445D02*
Y364626D01*
X316273Y399469D02*
X317454D01*
X316864Y398878D02*
Y400060D01*
X245407Y470335D02*
X246588D01*
X245998Y469744D02*
Y470926D01*
X209974Y434902D02*
X211155D01*
X210565Y434311D02*
Y435493D01*
X292061Y418367D02*
X293242D01*
X292651Y417776D02*
Y418957D01*
X280840Y434902D02*
X282021D01*
X281431Y434311D02*
Y435493D01*
X270081Y421843D02*
X271262D01*
X270672Y421253D02*
Y422434D01*
X266470Y412461D02*
X267651D01*
X267061Y411870D02*
Y413052D01*
X245407Y434902D02*
X246588D01*
X245998Y434311D02*
Y435493D01*
X293636Y395532D02*
X294817D01*
X294226Y394941D02*
Y396123D01*
X245265Y397974D02*
X246446D01*
X245855Y397384D02*
Y398565D01*
X280840Y399469D02*
X282021D01*
X281431Y398878D02*
Y400060D01*
X209974Y399469D02*
X211155D01*
X210565Y398878D02*
Y400060D01*
X209974Y364036D02*
X211155D01*
X210565Y363445D02*
Y364626D01*
X305678Y472654D02*
X306859D01*
X306268Y472063D02*
Y473244D01*
X270245Y472654D02*
X271426D01*
X270835Y472063D02*
Y473244D01*
X234811Y366354D02*
X235993D01*
X235402Y365764D02*
Y366945D01*
X199379Y472654D02*
X200560D01*
X199969Y472063D02*
Y473244D01*
X234811Y472654D02*
X235993D01*
X235402Y472063D02*
Y473244D01*
X246988Y421472D02*
X248169D01*
X247579Y420882D02*
Y422063D01*
X270245Y437220D02*
X271426D01*
X270835Y436630D02*
Y437811D01*
X305678Y437220D02*
X306859D01*
X306268Y436630D02*
Y437811D01*
X272468Y398432D02*
X273650D01*
X273059Y397842D02*
Y399023D01*
X272376Y412461D02*
X273557D01*
X272966Y411870D02*
Y413052D01*
X234811Y437220D02*
X235993D01*
X235402Y436630D02*
Y437811D01*
X199379Y437220D02*
X200560D01*
X199969Y436630D02*
Y437811D01*
X270245Y366354D02*
X271426D01*
X270835Y365764D02*
Y366945D01*
X292061Y412461D02*
X293242D01*
X292651Y411870D02*
Y413052D01*
X305678Y401787D02*
X306859D01*
X306268Y401197D02*
Y402378D01*
X234811Y401787D02*
X235993D01*
X235402Y401197D02*
Y402378D01*
X199379Y401787D02*
X200560D01*
X199969Y401197D02*
Y402378D01*
X199379Y366354D02*
X200560D01*
X199969Y365764D02*
Y366945D01*
X246935Y406758D02*
X248116D01*
X247526Y406167D02*
Y407348D01*
X200919Y390611D02*
X202100D01*
X201510Y390020D02*
Y391201D01*
X267260Y424422D02*
X268441D01*
X267850Y423831D02*
Y425012D01*
X276471Y426031D02*
X277652D01*
X277062Y425441D02*
Y426622D01*
X264914Y429627D02*
X266095D01*
X265504Y429037D02*
Y430218D01*
X307218Y426044D02*
X308399D01*
X307809Y425453D02*
Y426634D01*
X262390Y425040D02*
X263572D01*
X262981Y424449D02*
Y425630D01*
X307218Y461477D02*
X308399D01*
X307809Y460886D02*
Y462067D01*
X259788Y429650D02*
X260970D01*
X260379Y429059D02*
Y430240D01*
X271785Y461477D02*
X272966D01*
X272376Y460886D02*
Y462067D01*
X257200Y425083D02*
X258381D01*
X257791Y424493D02*
Y425674D01*
X236352Y461477D02*
X237533D01*
X236943Y460886D02*
Y462067D01*
X254688Y429634D02*
X255869D01*
X255278Y429043D02*
Y430224D01*
X200919Y461477D02*
X202100D01*
X201510Y460886D02*
Y462067D01*
X252103Y424788D02*
X253285D01*
X252694Y424197D02*
Y425379D01*
X200919Y426044D02*
X202100D01*
X201510Y425453D02*
Y426634D01*
X264847Y401728D02*
X266028D01*
X265437Y401137D02*
Y402318D01*
X307218Y390611D02*
X308399D01*
X307809Y390020D02*
Y391201D01*
X262332Y406459D02*
X263513D01*
X262922Y405869D02*
Y407050D01*
X271785Y390611D02*
X272966D01*
X272376Y390020D02*
Y391201D01*
X259802Y401898D02*
X260984D01*
X260393Y401307D02*
Y402488D01*
X257215Y406496D02*
X258396D01*
X257805Y405905D02*
Y407086D01*
X271785Y355178D02*
X272966D01*
X272376Y354587D02*
Y355768D01*
X254592Y401793D02*
X255774D01*
X255183Y401202D02*
Y402383D01*
X236352Y355178D02*
X237533D01*
X236943Y354587D02*
Y355768D01*
X252093Y406653D02*
X253274D01*
X252683Y406063D02*
Y407244D01*
X200919Y355178D02*
X202100D01*
X201510Y354587D02*
Y355768D01*
X249505Y401618D02*
X250686D01*
X250096Y401027D02*
Y402208D01*
X249578Y429722D02*
X250759D01*
X250168Y429131D02*
Y430312D01*
X236352Y426044D02*
X237533D01*
X236943Y425453D02*
Y426634D01*
X169027Y417591D02*
X170208D01*
X169618Y417000D02*
Y418181D01*
X139197Y470551D02*
X140378D01*
X139787Y469961D02*
Y471142D01*
X174630Y470551D02*
X175811D01*
X175220Y469961D02*
Y471142D01*
X103764Y364252D02*
X104945D01*
X104354Y363662D02*
Y364843D01*
X139197Y364252D02*
X140378D01*
X139787Y363662D02*
Y364843D01*
X68331Y470551D02*
X69512D01*
X68921Y469961D02*
Y471142D01*
X174630Y435118D02*
X175811D01*
X175220Y434528D02*
Y435709D01*
X174630Y364252D02*
X175811D01*
X175220Y363662D02*
Y364843D01*
X174630Y399685D02*
X175811D01*
X175220Y399095D02*
Y400276D01*
X103764Y470551D02*
X104945D01*
X104354Y469961D02*
Y471142D01*
X68331Y435118D02*
X69512D01*
X68921Y434528D02*
Y435709D01*
X150417Y418583D02*
X151598D01*
X151008Y417992D02*
Y419173D01*
X139197Y435118D02*
X140378D01*
X139787Y434528D02*
Y435709D01*
X128438Y422060D02*
X129619D01*
X129028Y421469D02*
Y422650D01*
X124827Y412677D02*
X126008D01*
X125417Y412087D02*
Y413268D01*
X103764Y435118D02*
X104945D01*
X104354Y434528D02*
Y435709D01*
X151992Y395748D02*
X153173D01*
X152583Y395158D02*
Y396339D01*
X103621Y398191D02*
X104802D01*
X104212Y397600D02*
Y398781D01*
X139197Y399685D02*
X140378D01*
X139787Y399095D02*
Y400276D01*
X68331Y399685D02*
X69512D01*
X68921Y399095D02*
Y400276D01*
X68331Y364252D02*
X69512D01*
X68921Y363662D02*
Y364843D01*
X164034Y472870D02*
X165215D01*
X164625Y472279D02*
Y473460D01*
X128601Y472870D02*
X129782D01*
X129192Y472279D02*
Y473460D01*
X93168Y366571D02*
X94349D01*
X93759Y365980D02*
Y367161D01*
X57735Y472870D02*
X58916D01*
X58325Y472279D02*
Y473460D01*
X93168Y472870D02*
X94349D01*
X93759Y472279D02*
Y473460D01*
X105345Y421688D02*
X106526D01*
X105935Y421098D02*
Y422279D01*
X128601Y437437D02*
X129782D01*
X129192Y436846D02*
Y438027D01*
X164034Y437437D02*
X165215D01*
X164625Y436846D02*
Y438027D01*
X130825Y398649D02*
X132006D01*
X131415Y398058D02*
Y399239D01*
X130732Y412677D02*
X131913D01*
X131323Y412087D02*
Y413268D01*
X93168Y437437D02*
X94349D01*
X93759Y436846D02*
Y438027D01*
X57735Y437437D02*
X58916D01*
X58325Y436846D02*
Y438027D01*
X164034Y366571D02*
X165215D01*
X164625Y365980D02*
Y367161D01*
X128601Y366571D02*
X129782D01*
X129192Y365980D02*
Y367161D01*
X150417Y412677D02*
X151598D01*
X151008Y412087D02*
Y413268D01*
X164034Y402004D02*
X165215D01*
X164625Y401413D02*
Y402594D01*
X93168Y402004D02*
X94349D01*
X93759Y401413D02*
Y402594D01*
X57735Y402004D02*
X58916D01*
X58325Y401413D02*
Y402594D01*
X57735Y366571D02*
X58916D01*
X58325Y365980D02*
Y367161D01*
X105291Y406974D02*
X106473D01*
X105882Y406384D02*
Y407565D01*
X59276Y390827D02*
X60457D01*
X59866Y390236D02*
Y391418D01*
X125616Y424638D02*
X126797D01*
X126207Y424048D02*
Y425229D01*
X134827Y426247D02*
X136009D01*
X135418Y425657D02*
Y426838D01*
X165575Y426260D02*
X166756D01*
X166165Y425669D02*
Y426851D01*
X120747Y425256D02*
X121928D01*
X121338Y424665D02*
Y425846D01*
X165575Y461693D02*
X166756D01*
X166165Y461102D02*
Y462284D01*
X130142Y461693D02*
X131323D01*
X130732Y461102D02*
Y462284D01*
X115557Y425300D02*
X116738D01*
X116147Y424709D02*
Y425890D01*
X94709Y461693D02*
X95890D01*
X95299Y461102D02*
Y462284D01*
X59276Y461693D02*
X60457D01*
X59866Y461102D02*
Y462284D01*
X110460Y425004D02*
X111641D01*
X111050Y424414D02*
Y425595D01*
X59276Y426260D02*
X60457D01*
X59866Y425669D02*
Y426851D01*
X123203Y401944D02*
X124384D01*
X123794Y401354D02*
Y402535D01*
X165575Y390827D02*
X166756D01*
X166165Y390236D02*
Y391418D01*
X120688Y406675D02*
X121869D01*
X121279Y406085D02*
Y407266D01*
X130142Y390827D02*
X131323D01*
X130732Y390236D02*
Y391418D01*
X118159Y402114D02*
X119340D01*
X118749Y401523D02*
Y402704D01*
X165575Y355394D02*
X166756D01*
X166165Y354803D02*
Y355984D01*
X115571Y406712D02*
X116753D01*
X116162Y406121D02*
Y407303D01*
X130142Y355394D02*
X131323D01*
X130732Y354803D02*
Y355984D01*
X112949Y402009D02*
X114130D01*
X113540Y401418D02*
Y402599D01*
X94709Y355394D02*
X95890D01*
X95299Y354803D02*
Y355984D01*
X110449Y406869D02*
X111630D01*
X111039Y406279D02*
Y407460D01*
X59276Y355394D02*
X60457D01*
X59866Y354803D02*
Y355984D01*
X107861Y401834D02*
X109043D01*
X108452Y401244D02*
Y402425D01*
X94709Y390827D02*
X95890D01*
X95299Y390236D02*
Y391418D01*
X107934Y429938D02*
X109115D01*
X108525Y429348D02*
Y430529D01*
X94709Y426260D02*
X95890D01*
X95299Y425669D02*
Y426851D01*
X594291Y559244D02*
X595472D01*
X594881Y558654D02*
Y559835D01*
X564461Y612205D02*
X565642D01*
X565051Y611615D02*
Y612796D01*
X599894Y612205D02*
X601075D01*
X600484Y611615D02*
Y612796D01*
X529028Y505906D02*
X530209D01*
X529618Y505315D02*
Y506496D01*
X564461Y505906D02*
X565642D01*
X565051Y505315D02*
Y506496D01*
X493594Y612205D02*
X494775D01*
X494185Y611615D02*
Y612796D01*
X599894Y576772D02*
X601075D01*
X600484Y576182D02*
Y577363D01*
X599894Y505906D02*
X601075D01*
X600484Y505315D02*
Y506496D01*
X599894Y541339D02*
X601075D01*
X600484Y540748D02*
Y541929D01*
X529028Y612205D02*
X530209D01*
X529618Y611615D02*
Y612796D01*
X493594Y576772D02*
X494775D01*
X494185Y576182D02*
Y577363D01*
X575681Y560237D02*
X576862D01*
X576272Y559646D02*
Y560827D01*
X564461Y576772D02*
X565642D01*
X565051Y576182D02*
Y577363D01*
X553702Y563714D02*
X554883D01*
X554292Y563123D02*
Y564304D01*
X550091Y554331D02*
X551272D01*
X550681Y553741D02*
Y554922D01*
X529028Y576772D02*
X530209D01*
X529618Y576182D02*
Y577363D01*
X577256Y537402D02*
X578437D01*
X577846Y536811D02*
Y537992D01*
X528885Y539844D02*
X530066D01*
X529475Y539254D02*
Y540435D01*
X564461Y541339D02*
X565642D01*
X565051Y540748D02*
Y541929D01*
X493594Y541339D02*
X494775D01*
X494185Y540748D02*
Y541929D01*
X493594Y505906D02*
X494775D01*
X494185Y505315D02*
Y506496D01*
X589298Y614524D02*
X590479D01*
X589888Y613933D02*
Y615114D01*
X553865Y614524D02*
X555046D01*
X554455Y613933D02*
Y615114D01*
X518432Y508224D02*
X519613D01*
X519022Y507634D02*
Y508815D01*
X482999Y614524D02*
X484180D01*
X483589Y613933D02*
Y615114D01*
X518432Y614524D02*
X519613D01*
X519022Y613933D02*
Y615114D01*
X530608Y563342D02*
X531789D01*
X531199Y562752D02*
Y563933D01*
X553865Y579091D02*
X555046D01*
X554455Y578500D02*
Y579681D01*
X589298Y579091D02*
X590479D01*
X589888Y578500D02*
Y579681D01*
X556089Y540302D02*
X557270D01*
X556679Y539712D02*
Y540893D01*
X555996Y554331D02*
X557177D01*
X556587Y553741D02*
Y554922D01*
X518432Y579091D02*
X519613D01*
X519022Y578500D02*
Y579681D01*
X589298Y508224D02*
X590479D01*
X589888Y507634D02*
Y508815D01*
X553865Y508224D02*
X555046D01*
X554455Y507634D02*
Y508815D01*
X589298Y543657D02*
X590479D01*
X589888Y543067D02*
Y544248D01*
X518432Y543657D02*
X519613D01*
X519022Y543067D02*
Y544248D01*
X482999Y543657D02*
X484180D01*
X483589Y543067D02*
Y544248D01*
X482999Y508224D02*
X484180D01*
X483589Y507634D02*
Y508815D01*
X530555Y548628D02*
X531736D01*
X531146Y548037D02*
Y549219D01*
X484539Y532481D02*
X485720D01*
X485130Y531890D02*
Y533071D01*
X550880Y566292D02*
X552061D01*
X551470Y565701D02*
Y566882D01*
X560091Y567901D02*
X561272D01*
X560682Y567311D02*
Y568492D01*
X548534Y571497D02*
X549715D01*
X549124Y570907D02*
Y572088D01*
X590838Y567914D02*
X592020D01*
X591429Y567323D02*
Y568504D01*
X546011Y566910D02*
X547192D01*
X546601Y566319D02*
Y567500D01*
X590838Y603347D02*
X592020D01*
X591429Y602756D02*
Y603937D01*
X543409Y571520D02*
X544590D01*
X543999Y570929D02*
Y572110D01*
X555405Y603347D02*
X556587D01*
X555996Y602756D02*
Y603937D01*
X540821Y566954D02*
X542002D01*
X541411Y566363D02*
Y567544D01*
X519972Y603347D02*
X521153D01*
X520563Y602756D02*
Y603937D01*
X538308Y571504D02*
X539489D01*
X538899Y570913D02*
Y572094D01*
X535724Y566658D02*
X536905D01*
X536314Y566067D02*
Y567248D01*
X484539Y567914D02*
X485720D01*
X485130Y567323D02*
Y568504D01*
X548467Y543598D02*
X549648D01*
X549058Y543008D02*
Y544189D01*
X590838Y532481D02*
X592020D01*
X591429Y531890D02*
Y533071D01*
X545952Y548329D02*
X547133D01*
X546543Y547739D02*
Y548920D01*
X555405Y532481D02*
X556587D01*
X555996Y531890D02*
Y533071D01*
X543423Y543768D02*
X544604D01*
X544013Y543177D02*
Y544358D01*
X590838Y497048D02*
X592020D01*
X591429Y496457D02*
Y497638D01*
X540835Y548366D02*
X542016D01*
X541426Y547775D02*
Y548956D01*
X555405Y497048D02*
X556587D01*
X555996Y496457D02*
Y497638D01*
X538213Y543663D02*
X539394D01*
X538803Y543072D02*
Y544253D01*
X519972Y497048D02*
X521153D01*
X520563Y496457D02*
Y497638D01*
X535713Y548523D02*
X536894D01*
X536303Y547932D02*
Y549114D01*
X484539Y497048D02*
X485720D01*
X485130Y496457D02*
Y497638D01*
X533125Y543488D02*
X534306D01*
X533716Y542897D02*
Y544078D01*
X519972Y532481D02*
X521153D01*
X520563Y531890D02*
Y533071D01*
X533198Y571592D02*
X534379D01*
X533788Y571001D02*
Y572183D01*
X519972Y567914D02*
X521153D01*
X520563Y567323D02*
Y568504D01*
X452656Y559321D02*
X453837D01*
X453246Y558730D02*
Y559911D01*
X422825Y612282D02*
X424007D01*
X423416Y611691D02*
Y612872D01*
X458258Y612282D02*
X459440D01*
X458849Y611691D02*
Y612872D01*
X387392Y505982D02*
X388574D01*
X387983Y505392D02*
Y506573D01*
X422825Y505982D02*
X424007D01*
X423416Y505392D02*
Y506573D01*
X351959Y612282D02*
X353140D01*
X352550Y611691D02*
Y612872D01*
X458258Y576849D02*
X459440D01*
X458849Y576258D02*
Y577439D01*
X458258Y505982D02*
X459440D01*
X458849Y505392D02*
Y506573D01*
X458258Y541415D02*
X459440D01*
X458849Y540825D02*
Y542006D01*
X387392Y612282D02*
X388574D01*
X387983Y611691D02*
Y612872D01*
X351959Y576849D02*
X353140D01*
X352550Y576258D02*
Y577439D01*
X434046Y560313D02*
X435227D01*
X434636Y559723D02*
Y560904D01*
X422825Y576849D02*
X424007D01*
X423416Y576258D02*
Y577439D01*
X412067Y563790D02*
X413248D01*
X412657Y563199D02*
Y564381D01*
X408455Y554408D02*
X409636D01*
X409046Y553817D02*
Y554998D01*
X387392Y576849D02*
X388574D01*
X387983Y576258D02*
Y577439D01*
X435621Y537478D02*
X436802D01*
X436211Y536888D02*
Y538069D01*
X387250Y539921D02*
X388431D01*
X387840Y539330D02*
Y540511D01*
X422825Y541415D02*
X424007D01*
X423416Y540825D02*
Y542006D01*
X351959Y541415D02*
X353140D01*
X352550Y540825D02*
Y542006D01*
X351959Y505982D02*
X353140D01*
X352550Y505392D02*
Y506573D01*
X447663Y614600D02*
X448844D01*
X448253Y614010D02*
Y615191D01*
X412230Y614600D02*
X413411D01*
X412820Y614010D02*
Y615191D01*
X376797Y508301D02*
X377978D01*
X377387Y507710D02*
Y508891D01*
X341364Y614600D02*
X342545D01*
X341954Y614010D02*
Y615191D01*
X376797Y614600D02*
X377978D01*
X377387Y614010D02*
Y615191D01*
X388973Y563418D02*
X390155D01*
X389564Y562828D02*
Y564009D01*
X414454Y540379D02*
X415635D01*
X415044Y539788D02*
Y540969D01*
X414361Y554408D02*
X415542D01*
X414951Y553817D02*
Y554998D01*
X447663Y508301D02*
X448844D01*
X448253Y507710D02*
Y508891D01*
X412230Y508301D02*
X413411D01*
X412820Y507710D02*
Y508891D01*
X434046Y554408D02*
X435227D01*
X434636Y553817D02*
Y554998D01*
X447663Y543734D02*
X448844D01*
X448253Y543143D02*
Y544324D01*
X376797Y543734D02*
X377978D01*
X377387Y543143D02*
Y544324D01*
X341364Y543734D02*
X342545D01*
X341954Y543143D02*
Y544324D01*
X341364Y508301D02*
X342545D01*
X341954Y507710D02*
Y508891D01*
X388920Y548704D02*
X390101D01*
X389511Y548114D02*
Y549295D01*
X342904Y532557D02*
X344085D01*
X343495Y531967D02*
Y533148D01*
X409245Y566368D02*
X410426D01*
X409835Y565778D02*
Y566959D01*
X418456Y567978D02*
X419637D01*
X419047Y567387D02*
Y568568D01*
X406899Y571573D02*
X408080D01*
X407489Y570983D02*
Y572164D01*
X449203Y567990D02*
X450385D01*
X449794Y567400D02*
Y568581D01*
X404376Y566986D02*
X405557D01*
X404966Y566396D02*
Y567577D01*
X449203Y603423D02*
X450385D01*
X449794Y602833D02*
Y604014D01*
X401774Y571596D02*
X402955D01*
X402364Y571005D02*
Y572187D01*
X413770Y603423D02*
X414951D01*
X414361Y602833D02*
Y604014D01*
X399185Y567030D02*
X400366D01*
X399776Y566439D02*
Y567621D01*
X378337Y603423D02*
X379518D01*
X378928Y602833D02*
Y604014D01*
X396673Y571580D02*
X397854D01*
X397264Y570990D02*
Y572171D01*
X342904Y603423D02*
X344085D01*
X343495Y602833D02*
Y604014D01*
X394089Y566734D02*
X395270D01*
X394679Y566144D02*
Y567325D01*
X342904Y567990D02*
X344085D01*
X343495Y567400D02*
Y568581D01*
X406832Y543674D02*
X408013D01*
X407422Y543084D02*
Y544265D01*
X449203Y532557D02*
X450385D01*
X449794Y531967D02*
Y533148D01*
X404317Y548406D02*
X405498D01*
X404907Y547815D02*
Y548996D01*
X413770Y532557D02*
X414951D01*
X414361Y531967D02*
Y533148D01*
X401788Y543844D02*
X402969D01*
X402378Y543254D02*
Y544435D01*
X449203Y497124D02*
X450385D01*
X449794Y496533D02*
Y497715D01*
X399200Y548442D02*
X400381D01*
X399791Y547852D02*
Y549033D01*
X413770Y497124D02*
X414951D01*
X414361Y496533D02*
Y497715D01*
X396578Y543739D02*
X397759D01*
X397168Y543149D02*
Y544330D01*
X378337Y497124D02*
X379518D01*
X378928Y496533D02*
Y497715D01*
X394078Y548599D02*
X395259D01*
X394668Y548009D02*
Y549190D01*
X342904Y497124D02*
X344085D01*
X343495Y496533D02*
Y497715D01*
X391490Y543564D02*
X392671D01*
X392081Y542974D02*
Y544155D01*
X378337Y532557D02*
X379518D01*
X378928Y531967D02*
Y533148D01*
X391563Y571668D02*
X392744D01*
X392153Y571078D02*
Y572259D01*
X378337Y567990D02*
X379518D01*
X378928Y567400D02*
Y568581D01*
X310849Y559314D02*
X312030D01*
X311439Y558723D02*
Y559904D01*
X281018Y612274D02*
X282200D01*
X281609Y611684D02*
Y612865D01*
X316452Y612274D02*
X317633D01*
X317042Y611684D02*
Y612865D01*
X245585Y505975D02*
X246766D01*
X246176Y505384D02*
Y506566D01*
X281018Y505975D02*
X282200D01*
X281609Y505384D02*
Y506566D01*
X210152Y612274D02*
X211333D01*
X210743Y611684D02*
Y612865D01*
X316452Y576841D02*
X317633D01*
X317042Y576251D02*
Y577432D01*
X316452Y505975D02*
X317633D01*
X317042Y505384D02*
Y506566D01*
X316452Y541408D02*
X317633D01*
X317042Y540817D02*
Y541998D01*
X245585Y612274D02*
X246766D01*
X246176Y611684D02*
Y612865D01*
X210152Y576841D02*
X211333D01*
X210743Y576251D02*
Y577432D01*
X292239Y560306D02*
X293420D01*
X292829Y559715D02*
Y560896D01*
X281018Y576841D02*
X282200D01*
X281609Y576251D02*
Y577432D01*
X270259Y563783D02*
X271441D01*
X270850Y563192D02*
Y564373D01*
X266648Y554400D02*
X267829D01*
X267239Y553810D02*
Y554991D01*
X245585Y576841D02*
X246766D01*
X246176Y576251D02*
Y577432D01*
X293814Y537471D02*
X294995D01*
X294404Y536880D02*
Y538062D01*
X245443Y539914D02*
X246624D01*
X246033Y539323D02*
Y540504D01*
X281018Y541408D02*
X282200D01*
X281609Y540817D02*
Y541998D01*
X210152Y541408D02*
X211333D01*
X210743Y540817D02*
Y541998D01*
X210152Y505975D02*
X211333D01*
X210743Y505384D02*
Y506566D01*
X305856Y614593D02*
X307037D01*
X306446Y614002D02*
Y615183D01*
X270423Y614593D02*
X271604D01*
X271013Y614002D02*
Y615183D01*
X234990Y508293D02*
X236171D01*
X235580Y507703D02*
Y508884D01*
X199557Y614593D02*
X200738D01*
X200147Y614002D02*
Y615183D01*
X234990Y614593D02*
X236171D01*
X235580Y614002D02*
Y615183D01*
X247166Y563411D02*
X248347D01*
X247757Y562821D02*
Y564002D01*
X270423Y579160D02*
X271604D01*
X271013Y578569D02*
Y579750D01*
X272647Y540371D02*
X273828D01*
X273237Y539781D02*
Y540962D01*
X272554Y554400D02*
X273735D01*
X273144Y553810D02*
Y554991D01*
X234990Y579160D02*
X236171D01*
X235580Y578569D02*
Y579750D01*
X199557Y579160D02*
X200738D01*
X200147Y578569D02*
Y579750D01*
X305856Y508293D02*
X307037D01*
X306446Y507703D02*
Y508884D01*
X270423Y508293D02*
X271604D01*
X271013Y507703D02*
Y508884D01*
X292239Y554400D02*
X293420D01*
X292829Y553810D02*
Y554991D01*
X305856Y543726D02*
X307037D01*
X306446Y543136D02*
Y544317D01*
X234990Y543726D02*
X236171D01*
X235580Y543136D02*
Y544317D01*
X199557Y543726D02*
X200738D01*
X200147Y543136D02*
Y544317D01*
X199557Y508293D02*
X200738D01*
X200147Y507703D02*
Y508884D01*
X247113Y548697D02*
X248294D01*
X247704Y548106D02*
Y549288D01*
X201097Y532550D02*
X202278D01*
X201688Y531959D02*
Y533140D01*
X267438Y566361D02*
X268619D01*
X268028Y565770D02*
Y566951D01*
X276649Y567970D02*
X277830D01*
X277240Y567380D02*
Y568561D01*
X265092Y571566D02*
X266273D01*
X265682Y570976D02*
Y572157D01*
X307396Y567983D02*
X308577D01*
X307987Y567392D02*
Y568573D01*
X262569Y566979D02*
X263750D01*
X263159Y566388D02*
Y567569D01*
X307396Y603416D02*
X308577D01*
X307987Y602825D02*
Y604006D01*
X259967Y571589D02*
X261148D01*
X260557Y570998D02*
Y572179D01*
X271963Y603416D02*
X273144D01*
X272554Y602825D02*
Y604006D01*
X257378Y567023D02*
X258559D01*
X257969Y566432D02*
Y567613D01*
X236530Y603416D02*
X237711D01*
X237121Y602825D02*
Y604006D01*
X254866Y571573D02*
X256047D01*
X255457Y570982D02*
Y572163D01*
X201097Y603416D02*
X202278D01*
X201688Y602825D02*
Y604006D01*
X252281Y566727D02*
X253463D01*
X252872Y566137D02*
Y567318D01*
X201097Y567983D02*
X202278D01*
X201688Y567392D02*
Y568573D01*
X265025Y543667D02*
X266206D01*
X265616Y543077D02*
Y544258D01*
X307396Y532550D02*
X308577D01*
X307987Y531959D02*
Y533140D01*
X262510Y548398D02*
X263691D01*
X263100Y547808D02*
Y548989D01*
X271963Y532550D02*
X273144D01*
X272554Y531959D02*
Y533140D01*
X259981Y543837D02*
X261162D01*
X260571Y543246D02*
Y544427D01*
X307396Y497117D02*
X308577D01*
X307987Y496526D02*
Y497707D01*
X257393Y548435D02*
X258574D01*
X257984Y547844D02*
Y549025D01*
X271963Y497117D02*
X273144D01*
X272554Y496526D02*
Y497707D01*
X254771Y543732D02*
X255952D01*
X255361Y543141D02*
Y544322D01*
X236530Y497117D02*
X237711D01*
X237121Y496526D02*
Y497707D01*
X252271Y548592D02*
X253452D01*
X252861Y548001D02*
Y549183D01*
X201097Y497117D02*
X202278D01*
X201688Y496526D02*
Y497707D01*
X249683Y543557D02*
X250864D01*
X250274Y542966D02*
Y544147D01*
X236530Y532550D02*
X237711D01*
X237121Y531959D02*
Y533140D01*
X249756Y571661D02*
X250937D01*
X250346Y571070D02*
Y572252D01*
X236530Y567983D02*
X237711D01*
X237121Y567392D02*
Y568573D01*
X594295Y133983D02*
X595476D01*
X594886Y133393D02*
Y134574D01*
X564465Y186944D02*
X565646D01*
X565055Y186353D02*
Y187534D01*
X599898Y186944D02*
X601079D01*
X600489Y186353D02*
Y187534D01*
X529032Y80644D02*
X530213D01*
X529622Y80054D02*
Y81235D01*
X564465Y80644D02*
X565646D01*
X565055Y80054D02*
Y81235D01*
X493599Y186944D02*
X494780D01*
X494189Y186353D02*
Y187534D01*
X599898Y151511D02*
X601079D01*
X600489Y150920D02*
Y152101D01*
X599898Y80644D02*
X601079D01*
X600489Y80054D02*
Y81235D01*
X599898Y116077D02*
X601079D01*
X600489Y115487D02*
Y116668D01*
X529032Y186944D02*
X530213D01*
X529622Y186353D02*
Y187534D01*
X493599Y151511D02*
X494780D01*
X494189Y150920D02*
Y152101D01*
X575685Y134975D02*
X576866D01*
X576276Y134385D02*
Y135566D01*
X564465Y151511D02*
X565646D01*
X565055Y150920D02*
Y152101D01*
X553706Y138452D02*
X554887D01*
X554296Y137862D02*
Y139043D01*
X550095Y129070D02*
X551276D01*
X550685Y128479D02*
Y129660D01*
X529032Y151511D02*
X530213D01*
X529622Y150920D02*
Y152101D01*
X577260Y112141D02*
X578441D01*
X577851Y111550D02*
Y112731D01*
X528889Y114583D02*
X530070D01*
X529480Y113992D02*
Y115173D01*
X564465Y116077D02*
X565646D01*
X565055Y115487D02*
Y116668D01*
X493599Y116077D02*
X494780D01*
X494189Y115487D02*
Y116668D01*
X493599Y80644D02*
X494780D01*
X494189Y80054D02*
Y81235D01*
X589302Y189262D02*
X590483D01*
X589893Y188672D02*
Y189853D01*
X553869Y189262D02*
X555050D01*
X554460Y188672D02*
Y189853D01*
X518436Y82963D02*
X519617D01*
X519027Y82372D02*
Y83553D01*
X483003Y189262D02*
X484184D01*
X483594Y188672D02*
Y189853D01*
X518436Y189262D02*
X519617D01*
X519027Y188672D02*
Y189853D01*
X530613Y138081D02*
X531794D01*
X531203Y137490D02*
Y138671D01*
X589302Y153829D02*
X590483D01*
X589893Y153239D02*
Y154420D01*
X556093Y115041D02*
X557274D01*
X556684Y114450D02*
Y115631D01*
X556000Y129070D02*
X557181D01*
X556591Y128479D02*
Y129660D01*
X518436Y153829D02*
X519617D01*
X519027Y153239D02*
Y154420D01*
X483003Y153829D02*
X484184D01*
X483594Y153239D02*
Y154420D01*
X589302Y82963D02*
X590483D01*
X589893Y82372D02*
Y83553D01*
X553869Y82963D02*
X555050D01*
X554460Y82372D02*
Y83553D01*
X575685Y129070D02*
X576866D01*
X576276Y128479D02*
Y129660D01*
X589302Y118396D02*
X590483D01*
X589893Y117806D02*
Y118987D01*
X518436Y118396D02*
X519617D01*
X519027Y117806D02*
Y118987D01*
X483003Y118396D02*
X484184D01*
X483594Y117806D02*
Y118987D01*
X483003Y82963D02*
X484184D01*
X483594Y82372D02*
Y83553D01*
X530560Y123366D02*
X531741D01*
X531150Y122776D02*
Y123957D01*
X484544Y107219D02*
X485725D01*
X485134Y106629D02*
Y107810D01*
X550884Y141030D02*
X552065D01*
X551475Y140440D02*
Y141621D01*
X560096Y142640D02*
X561277D01*
X560686Y142049D02*
Y143230D01*
X548538Y146236D02*
X549719D01*
X549129Y145645D02*
Y146826D01*
X590843Y142652D02*
X592024D01*
X591433Y142062D02*
Y143243D01*
X546015Y141648D02*
X547196D01*
X546606Y141058D02*
Y142239D01*
X590843Y178085D02*
X592024D01*
X591433Y177495D02*
Y178676D01*
X543413Y146258D02*
X544594D01*
X544004Y145668D02*
Y146849D01*
X555410Y178085D02*
X556591D01*
X556000Y177495D02*
Y178676D01*
X540825Y141692D02*
X542006D01*
X541415Y141102D02*
Y142283D01*
X519977Y178085D02*
X521158D01*
X520567Y177495D02*
Y178676D01*
X538312Y146242D02*
X539494D01*
X538903Y145652D02*
Y146833D01*
X484544Y178085D02*
X485725D01*
X485134Y177495D02*
Y178676D01*
X535728Y141396D02*
X536909D01*
X536319Y140806D02*
Y141987D01*
X484544Y142652D02*
X485725D01*
X485134Y142062D02*
Y143243D01*
X548471Y118337D02*
X549652D01*
X549062Y117746D02*
Y118927D01*
X590843Y107219D02*
X592024D01*
X591433Y106629D02*
Y107810D01*
X545956Y123068D02*
X547137D01*
X546547Y122477D02*
Y123658D01*
X555410Y107219D02*
X556591D01*
X556000Y106629D02*
Y107810D01*
X543427Y118506D02*
X544608D01*
X544018Y117916D02*
Y119097D01*
X590843Y71786D02*
X592024D01*
X591433Y71196D02*
Y72377D01*
X540840Y123104D02*
X542021D01*
X541430Y122514D02*
Y123695D01*
X555410Y71786D02*
X556591D01*
X556000Y71196D02*
Y72377D01*
X538217Y118401D02*
X539398D01*
X538808Y117811D02*
Y118992D01*
X519977Y71786D02*
X521158D01*
X520567Y71196D02*
Y72377D01*
X535717Y123262D02*
X536898D01*
X536308Y122671D02*
Y123852D01*
X484544Y71786D02*
X485725D01*
X485134Y71196D02*
Y72377D01*
X533130Y118227D02*
X534311D01*
X533720Y117636D02*
Y118817D01*
X519977Y107219D02*
X521158D01*
X520567Y106629D02*
Y107810D01*
X533202Y146330D02*
X534383D01*
X533793Y145740D02*
Y146921D01*
X519977Y142652D02*
X521158D01*
X520567Y142062D02*
Y143243D01*
X452510Y134043D02*
X453691D01*
X453101Y133453D02*
Y134634D01*
X422680Y187004D02*
X423861D01*
X423271Y186413D02*
Y187594D01*
X458113Y187004D02*
X459294D01*
X458704Y186413D02*
Y187594D01*
X387247Y80705D02*
X388428D01*
X387838Y80114D02*
Y81295D01*
X422680Y80705D02*
X423861D01*
X423271Y80114D02*
Y81295D01*
X351814Y187004D02*
X352995D01*
X352404Y186413D02*
Y187594D01*
X458113Y151571D02*
X459294D01*
X458704Y150980D02*
Y152161D01*
X458113Y80705D02*
X459294D01*
X458704Y80114D02*
Y81295D01*
X458113Y116138D02*
X459294D01*
X458704Y115547D02*
Y116728D01*
X387247Y187004D02*
X388428D01*
X387838Y186413D02*
Y187594D01*
X351814Y151571D02*
X352995D01*
X352404Y150980D02*
Y152161D01*
X433900Y135035D02*
X435082D01*
X434491Y134445D02*
Y135626D01*
X422680Y151571D02*
X423861D01*
X423271Y150980D02*
Y152161D01*
X411921Y138512D02*
X413102D01*
X412512Y137922D02*
Y139103D01*
X408310Y129130D02*
X409491D01*
X408900Y128539D02*
Y129720D01*
X387247Y151571D02*
X388428D01*
X387838Y150980D02*
Y152161D01*
X435475Y112201D02*
X436656D01*
X436066Y111610D02*
Y112791D01*
X387104Y114643D02*
X388285D01*
X387695Y114052D02*
Y115234D01*
X422680Y116138D02*
X423861D01*
X423271Y115547D02*
Y116728D01*
X351814Y116138D02*
X352995D01*
X352404Y115547D02*
Y116728D01*
X351814Y80705D02*
X352995D01*
X352404Y80114D02*
Y81295D01*
X447517Y189322D02*
X448699D01*
X448108Y188732D02*
Y189913D01*
X412084Y189322D02*
X413265D01*
X412675Y188732D02*
Y189913D01*
X376651Y83023D02*
X377832D01*
X377242Y82433D02*
Y83614D01*
X341218Y189322D02*
X342399D01*
X341809Y188732D02*
Y189913D01*
X376651Y189322D02*
X377832D01*
X377242Y188732D02*
Y189913D01*
X388828Y138141D02*
X390009D01*
X389418Y137550D02*
Y138731D01*
X412084Y153889D02*
X413265D01*
X412675Y153299D02*
Y154480D01*
X447517Y153889D02*
X448699D01*
X448108Y153299D02*
Y154480D01*
X414308Y115101D02*
X415489D01*
X414899Y114511D02*
Y115692D01*
X414215Y129130D02*
X415396D01*
X414806Y128539D02*
Y129720D01*
X376651Y153889D02*
X377832D01*
X377242Y153299D02*
Y154480D01*
X341218Y153889D02*
X342399D01*
X341809Y153299D02*
Y154480D01*
X447517Y83023D02*
X448699D01*
X448108Y82433D02*
Y83614D01*
X412084Y83023D02*
X413265D01*
X412675Y82433D02*
Y83614D01*
X433900Y129130D02*
X435082D01*
X434491Y128539D02*
Y129720D01*
X447517Y118456D02*
X448699D01*
X448108Y117866D02*
Y119047D01*
X376651Y118456D02*
X377832D01*
X377242Y117866D02*
Y119047D01*
X341218Y118456D02*
X342399D01*
X341809Y117866D02*
Y119047D01*
X341218Y83023D02*
X342399D01*
X341809Y82433D02*
Y83614D01*
X388775Y123427D02*
X389956D01*
X389365Y122836D02*
Y124017D01*
X342759Y107279D02*
X343940D01*
X343349Y106689D02*
Y107870D01*
X409099Y141091D02*
X410281D01*
X409690Y140500D02*
Y141681D01*
X418311Y142700D02*
X419492D01*
X418901Y142109D02*
Y143290D01*
X406753Y146296D02*
X407934D01*
X407344Y145705D02*
Y146886D01*
X449058Y142712D02*
X450239D01*
X449649Y142122D02*
Y143303D01*
X404230Y141708D02*
X405411D01*
X404821Y141118D02*
Y142299D01*
X449058Y178146D02*
X450239D01*
X449649Y177555D02*
Y178736D01*
X401628Y146318D02*
X402809D01*
X402219Y145728D02*
Y146909D01*
X413625Y178146D02*
X414806D01*
X414215Y177555D02*
Y178736D01*
X399040Y141752D02*
X400221D01*
X399630Y141162D02*
Y142343D01*
X378192Y178146D02*
X379373D01*
X378782Y177555D02*
Y178736D01*
X396528Y146302D02*
X397709D01*
X397118Y145712D02*
Y146893D01*
X342759Y178146D02*
X343940D01*
X343349Y177555D02*
Y178736D01*
X393943Y141457D02*
X395124D01*
X394534Y140866D02*
Y142047D01*
X342759Y142712D02*
X343940D01*
X343349Y142122D02*
Y143303D01*
X406686Y118397D02*
X407868D01*
X407277Y117806D02*
Y118987D01*
X449058Y107279D02*
X450239D01*
X449649Y106689D02*
Y107870D01*
X404171Y123128D02*
X405352D01*
X404762Y122537D02*
Y123719D01*
X413625Y107279D02*
X414806D01*
X414215Y106689D02*
Y107870D01*
X401642Y118566D02*
X402823D01*
X402233Y117976D02*
Y119157D01*
X449058Y71846D02*
X450239D01*
X449649Y71256D02*
Y72437D01*
X399055Y123164D02*
X400236D01*
X399645Y122574D02*
Y123755D01*
X413625Y71846D02*
X414806D01*
X414215Y71256D02*
Y72437D01*
X396432Y118461D02*
X397613D01*
X397023Y117871D02*
Y119052D01*
X378192Y71846D02*
X379373D01*
X378782Y71256D02*
Y72437D01*
X393932Y123322D02*
X395113D01*
X394523Y122731D02*
Y123912D01*
X342759Y71846D02*
X343940D01*
X343349Y71256D02*
Y72437D01*
X391345Y118287D02*
X392526D01*
X391935Y117696D02*
Y118877D01*
X378192Y107279D02*
X379373D01*
X378782Y106689D02*
Y107870D01*
X391417Y146391D02*
X392599D01*
X392008Y145800D02*
Y146981D01*
X378192Y142712D02*
X379373D01*
X378782Y142122D02*
Y143303D01*
X310782Y134011D02*
X311963D01*
X311372Y133420D02*
Y134601D01*
X280951Y186971D02*
X282133D01*
X281542Y186381D02*
Y187562D01*
X316385Y186971D02*
X317566D01*
X316975Y186381D02*
Y187562D01*
X245518Y80672D02*
X246700D01*
X246109Y80082D02*
Y81263D01*
X280951Y80672D02*
X282133D01*
X281542Y80082D02*
Y81263D01*
X210085Y186971D02*
X211266D01*
X210676Y186381D02*
Y187562D01*
X316385Y151538D02*
X317566D01*
X316975Y150948D02*
Y152129D01*
X316385Y80672D02*
X317566D01*
X316975Y80082D02*
Y81263D01*
X316385Y116105D02*
X317566D01*
X316975Y115515D02*
Y116696D01*
X245518Y186971D02*
X246700D01*
X246109Y186381D02*
Y187562D01*
X210085Y151538D02*
X211266D01*
X210676Y150948D02*
Y152129D01*
X292172Y135003D02*
X293353D01*
X292763Y134412D02*
Y135593D01*
X280951Y151538D02*
X282133D01*
X281542Y150948D02*
Y152129D01*
X270193Y138480D02*
X271374D01*
X270783Y137889D02*
Y139070D01*
X266581Y129097D02*
X267763D01*
X267172Y128507D02*
Y129688D01*
X245518Y151538D02*
X246700D01*
X246109Y150948D02*
Y152129D01*
X293747Y112168D02*
X294928D01*
X294337Y111578D02*
Y112759D01*
X245376Y114611D02*
X246557D01*
X245967Y114020D02*
Y115201D01*
X280951Y116105D02*
X282133D01*
X281542Y115515D02*
Y116696D01*
X210085Y116105D02*
X211266D01*
X210676Y115515D02*
Y116696D01*
X210085Y80672D02*
X211266D01*
X210676Y80082D02*
Y81263D01*
X305789Y189290D02*
X306970D01*
X306380Y188699D02*
Y189880D01*
X270356Y189290D02*
X271537D01*
X270946Y188699D02*
Y189880D01*
X234923Y82991D02*
X236104D01*
X235513Y82400D02*
Y83581D01*
X199490Y189290D02*
X200671D01*
X200080Y188699D02*
Y189880D01*
X234923Y189290D02*
X236104D01*
X235513Y188699D02*
Y189880D01*
X247099Y138108D02*
X248281D01*
X247690Y137518D02*
Y138699D01*
X270356Y153857D02*
X271537D01*
X270946Y153266D02*
Y154447D01*
X305789Y153857D02*
X306970D01*
X306380Y153266D02*
Y154447D01*
X272580Y115069D02*
X273761D01*
X273170Y114478D02*
Y115659D01*
X272487Y129097D02*
X273668D01*
X273078Y128507D02*
Y129688D01*
X234923Y153857D02*
X236104D01*
X235513Y153266D02*
Y154447D01*
X199490Y153857D02*
X200671D01*
X200080Y153266D02*
Y154447D01*
X305789Y82991D02*
X306970D01*
X306380Y82400D02*
Y83581D01*
X270356Y82991D02*
X271537D01*
X270946Y82400D02*
Y83581D01*
X292172Y129097D02*
X293353D01*
X292763Y128507D02*
Y129688D01*
X305789Y118424D02*
X306970D01*
X306380Y117833D02*
Y119014D01*
X234923Y118424D02*
X236104D01*
X235513Y117833D02*
Y119014D01*
X199490Y118424D02*
X200671D01*
X200080Y117833D02*
Y119014D01*
X199490Y82991D02*
X200671D01*
X200080Y82400D02*
Y83581D01*
X247046Y123394D02*
X248227D01*
X247637Y122804D02*
Y123985D01*
X201030Y107247D02*
X202211D01*
X201621Y106656D02*
Y107837D01*
X267371Y141058D02*
X268552D01*
X267961Y140468D02*
Y141649D01*
X276582Y142667D02*
X277763D01*
X277173Y142077D02*
Y143258D01*
X265025Y146263D02*
X266206D01*
X265615Y145673D02*
Y146854D01*
X307330Y142680D02*
X308511D01*
X307920Y142089D02*
Y143271D01*
X262502Y141676D02*
X263683D01*
X263092Y141085D02*
Y142266D01*
X307330Y178113D02*
X308511D01*
X307920Y177523D02*
Y178704D01*
X259900Y146286D02*
X261081D01*
X260490Y145695D02*
Y146876D01*
X271896Y178113D02*
X273078D01*
X272487Y177523D02*
Y178704D01*
X257312Y141720D02*
X258493D01*
X257902Y141129D02*
Y142310D01*
X236463Y178113D02*
X237644D01*
X237054Y177523D02*
Y178704D01*
X254799Y146270D02*
X255980D01*
X255390Y145679D02*
Y146861D01*
X201030Y178113D02*
X202211D01*
X201621Y177523D02*
Y178704D01*
X252215Y141424D02*
X253396D01*
X252805Y140834D02*
Y142015D01*
X201030Y142680D02*
X202211D01*
X201621Y142089D02*
Y143271D01*
X264958Y118364D02*
X266139D01*
X265549Y117774D02*
Y118955D01*
X307330Y107247D02*
X308511D01*
X307920Y106656D02*
Y107837D01*
X262443Y123095D02*
X263624D01*
X263034Y122505D02*
Y123686D01*
X271896Y107247D02*
X273078D01*
X272487Y106656D02*
Y107837D01*
X259914Y118534D02*
X261095D01*
X260504Y117943D02*
Y119124D01*
X307330Y71814D02*
X308511D01*
X307920Y71223D02*
Y72404D01*
X257326Y123132D02*
X258507D01*
X257917Y122541D02*
Y123723D01*
X271896Y71814D02*
X273078D01*
X272487Y71223D02*
Y72404D01*
X254704Y118429D02*
X255885D01*
X255294Y117838D02*
Y119019D01*
X236463Y71814D02*
X237644D01*
X237054Y71223D02*
Y72404D01*
X252204Y123289D02*
X253385D01*
X252794Y122699D02*
Y123880D01*
X201030Y71814D02*
X202211D01*
X201621Y71223D02*
Y72404D01*
X249616Y118254D02*
X250797D01*
X250207Y117664D02*
Y118845D01*
X236463Y107247D02*
X237644D01*
X237054Y106656D02*
Y107837D01*
X249689Y146358D02*
X250870D01*
X250279Y145768D02*
Y146949D01*
X236463Y142680D02*
X237644D01*
X237054Y142089D02*
Y143271D01*
X169023Y134130D02*
X170204D01*
X169614Y133540D02*
Y134721D01*
X139193Y187091D02*
X140374D01*
X139783Y186500D02*
Y187681D01*
X174626Y187091D02*
X175807D01*
X175216Y186500D02*
Y187681D01*
X103760Y80792D02*
X104941D01*
X104350Y80201D02*
Y81382D01*
X139193Y80792D02*
X140374D01*
X139783Y80201D02*
Y81382D01*
X68327Y187091D02*
X69508D01*
X68917Y186500D02*
Y187681D01*
X174626Y80792D02*
X175807D01*
X175216Y80201D02*
Y81382D01*
X174626Y116225D02*
X175807D01*
X175216Y115634D02*
Y116815D01*
X103760Y187091D02*
X104941D01*
X104350Y186500D02*
Y187681D01*
X68327Y151658D02*
X69508D01*
X68917Y151067D02*
Y152248D01*
X150413Y135122D02*
X151594D01*
X151004Y134532D02*
Y135713D01*
X139193Y151658D02*
X140374D01*
X139783Y151067D02*
Y152248D01*
X128434Y138599D02*
X129615D01*
X129024Y138009D02*
Y139190D01*
X124823Y129217D02*
X126004D01*
X125413Y128626D02*
Y129807D01*
X103760Y151658D02*
X104941D01*
X104350Y151067D02*
Y152248D01*
X151988Y112288D02*
X153169D01*
X152579Y111697D02*
Y112878D01*
X103617Y114730D02*
X104798D01*
X104208Y114140D02*
Y115321D01*
X139193Y116225D02*
X140374D01*
X139783Y115634D02*
Y116815D01*
X68327Y116225D02*
X69508D01*
X68917Y115634D02*
Y116815D01*
X68327Y80792D02*
X69508D01*
X68917Y80201D02*
Y81382D01*
X164030Y189409D02*
X165211D01*
X164621Y188819D02*
Y190000D01*
X128597Y189409D02*
X129778D01*
X129188Y188819D02*
Y190000D01*
X93164Y83110D02*
X94345D01*
X93755Y82520D02*
Y83701D01*
X57731Y189409D02*
X58912D01*
X58321Y188819D02*
Y190000D01*
X93164Y189409D02*
X94345D01*
X93755Y188819D02*
Y190000D01*
X105341Y138228D02*
X106522D01*
X105931Y137637D02*
Y138818D01*
X128597Y153976D02*
X129778D01*
X129188Y153386D02*
Y154567D01*
X164030Y153976D02*
X165211D01*
X164621Y153386D02*
Y154567D01*
X130821Y115188D02*
X132002D01*
X131412Y114597D02*
Y115779D01*
X130728Y129217D02*
X131909D01*
X131319Y128626D02*
Y129807D01*
X93164Y153976D02*
X94345D01*
X93755Y153386D02*
Y154567D01*
X57731Y153976D02*
X58912D01*
X58321Y153386D02*
Y154567D01*
X164030Y83110D02*
X165211D01*
X164621Y82520D02*
Y83701D01*
X128597Y83110D02*
X129778D01*
X129188Y82520D02*
Y83701D01*
X150413Y129217D02*
X151594D01*
X151004Y128626D02*
Y129807D01*
X164030Y118543D02*
X165211D01*
X164621Y117953D02*
Y119134D01*
X93164Y118543D02*
X94345D01*
X93755Y117953D02*
Y119134D01*
X57731Y118543D02*
X58912D01*
X58321Y117953D02*
Y119134D01*
X57731Y83110D02*
X58912D01*
X58321Y82520D02*
Y83701D01*
X105288Y123514D02*
X106469D01*
X105878Y122923D02*
Y124104D01*
X59272Y107366D02*
X60453D01*
X59862Y106776D02*
Y107957D01*
X125612Y141177D02*
X126793D01*
X126203Y140587D02*
Y141768D01*
X134824Y142787D02*
X136005D01*
X135414Y142196D02*
Y143377D01*
X123266Y146383D02*
X124447D01*
X123857Y145792D02*
Y146973D01*
X165571Y142799D02*
X166752D01*
X166161Y142209D02*
Y143390D01*
X120743Y141795D02*
X121924D01*
X121334Y141205D02*
Y142386D01*
X165571Y178233D02*
X166752D01*
X166161Y177642D02*
Y178823D01*
X118141Y146405D02*
X119322D01*
X118732Y145815D02*
Y146996D01*
X130138Y178233D02*
X131319D01*
X130728Y177642D02*
Y178823D01*
X115553Y141839D02*
X116734D01*
X116143Y141249D02*
Y142430D01*
X94705Y178233D02*
X95886D01*
X95295Y177642D02*
Y178823D01*
X113040Y146390D02*
X114222D01*
X113631Y145799D02*
Y146980D01*
X59272Y178233D02*
X60453D01*
X59862Y177642D02*
Y178823D01*
X110456Y141544D02*
X111637D01*
X111047Y140953D02*
Y142134D01*
X59272Y142799D02*
X60453D01*
X59862Y142209D02*
Y143390D01*
X123199Y118484D02*
X124380D01*
X123790Y117893D02*
Y119074D01*
X165571Y107366D02*
X166752D01*
X166161Y106776D02*
Y107957D01*
X120684Y123215D02*
X121865D01*
X121275Y122624D02*
Y123805D01*
X130138Y107366D02*
X131319D01*
X130728Y106776D02*
Y107957D01*
X118155Y118653D02*
X119336D01*
X118746Y118063D02*
Y119244D01*
X165571Y71933D02*
X166752D01*
X166161Y71343D02*
Y72524D01*
X115568Y123251D02*
X116749D01*
X116158Y122661D02*
Y123842D01*
X130138Y71933D02*
X131319D01*
X130728Y71343D02*
Y72524D01*
X112945Y118549D02*
X114126D01*
X113536Y117958D02*
Y119139D01*
X94705Y71933D02*
X95886D01*
X95295Y71343D02*
Y72524D01*
X110445Y123409D02*
X111626D01*
X111036Y122818D02*
Y123999D01*
X59272Y71933D02*
X60453D01*
X59862Y71343D02*
Y72524D01*
X107858Y118374D02*
X109039D01*
X108448Y117783D02*
Y118964D01*
X94705Y107366D02*
X95886D01*
X95295Y106776D02*
Y107957D01*
X107930Y146478D02*
X109111D01*
X108521Y145887D02*
Y147068D01*
X94705Y142799D02*
X95886D01*
X95295Y142209D02*
Y143390D01*
X594145Y275782D02*
X595327D01*
X594736Y275191D02*
Y276372D01*
X564315Y328742D02*
X565496D01*
X564906Y328152D02*
Y329333D01*
X599748Y328742D02*
X600929D01*
X600339Y328152D02*
Y329333D01*
X528882Y222443D02*
X530063D01*
X529472Y221852D02*
Y223034D01*
X564315Y222443D02*
X565496D01*
X564906Y221852D02*
Y223034D01*
X493449Y328742D02*
X494630D01*
X494039Y328152D02*
Y329333D01*
X599748Y293309D02*
X600929D01*
X600339Y292719D02*
Y293900D01*
X599748Y222443D02*
X600929D01*
X600339Y221852D02*
Y223034D01*
X599748Y257876D02*
X600929D01*
X600339Y257286D02*
Y258467D01*
X528882Y328742D02*
X530063D01*
X529472Y328152D02*
Y329333D01*
X493449Y293309D02*
X494630D01*
X494039Y292719D02*
Y293900D01*
X575535Y276774D02*
X576717D01*
X576126Y276183D02*
Y277364D01*
X564315Y293309D02*
X565496D01*
X564906Y292719D02*
Y293900D01*
X553556Y280251D02*
X554737D01*
X554147Y279660D02*
Y280841D01*
X549945Y270868D02*
X551126D01*
X550535Y270278D02*
Y271459D01*
X528882Y293309D02*
X530063D01*
X529472Y292719D02*
Y293900D01*
X577110Y253939D02*
X578291D01*
X577701Y253349D02*
Y254530D01*
X528740Y256382D02*
X529921D01*
X529330Y255791D02*
Y256972D01*
X564315Y257876D02*
X565496D01*
X564906Y257286D02*
Y258467D01*
X493449Y257876D02*
X494630D01*
X494039Y257286D02*
Y258467D01*
X493449Y222443D02*
X494630D01*
X494039Y221852D02*
Y223034D01*
X589152Y331061D02*
X590334D01*
X589743Y330470D02*
Y331651D01*
X553719Y331061D02*
X554901D01*
X554310Y330470D02*
Y331651D01*
X518286Y224762D02*
X519467D01*
X518877Y224171D02*
Y225352D01*
X482853Y331061D02*
X484034D01*
X483444Y330470D02*
Y331651D01*
X518286Y331061D02*
X519467D01*
X518877Y330470D02*
Y331651D01*
X530463Y279879D02*
X531644D01*
X531053Y279289D02*
Y280470D01*
X553719Y295628D02*
X554901D01*
X554310Y295037D02*
Y296218D01*
X589152Y295628D02*
X590334D01*
X589743Y295037D02*
Y296218D01*
X555943Y256839D02*
X557124D01*
X556534Y256249D02*
Y257430D01*
X555851Y270868D02*
X557032D01*
X556441Y270278D02*
Y271459D01*
X518286Y295628D02*
X519467D01*
X518877Y295037D02*
Y296218D01*
X482853Y295628D02*
X484034D01*
X483444Y295037D02*
Y296218D01*
X589152Y224762D02*
X590334D01*
X589743Y224171D02*
Y225352D01*
X553719Y224762D02*
X554901D01*
X554310Y224171D02*
Y225352D01*
X589152Y260195D02*
X590334D01*
X589743Y259604D02*
Y260785D01*
X518286Y260195D02*
X519467D01*
X518877Y259604D02*
Y260785D01*
X482853Y260195D02*
X484034D01*
X483444Y259604D02*
Y260785D01*
X482853Y224762D02*
X484034D01*
X483444Y224171D02*
Y225352D01*
X530410Y265165D02*
X531591D01*
X531000Y264575D02*
Y265756D01*
X484394Y249018D02*
X485575D01*
X484984Y248427D02*
Y249608D01*
X550734Y282829D02*
X551916D01*
X551325Y282238D02*
Y283419D01*
X559946Y284438D02*
X561127D01*
X560536Y283848D02*
Y285029D01*
X548388Y288034D02*
X549569D01*
X548979Y287444D02*
Y288625D01*
X590693Y284451D02*
X591874D01*
X591284Y283860D02*
Y285041D01*
X545865Y283447D02*
X547046D01*
X546456Y282856D02*
Y284037D01*
X543263Y288057D02*
X544444D01*
X543854Y287466D02*
Y288647D01*
X540675Y283491D02*
X541856D01*
X541266Y282900D02*
Y284081D01*
X519827Y319884D02*
X521008D01*
X520417Y319293D02*
Y320475D01*
X538163Y288041D02*
X539344D01*
X538753Y287451D02*
Y288632D01*
X484394Y319884D02*
X485575D01*
X484984Y319293D02*
Y320475D01*
X535578Y283195D02*
X536759D01*
X536169Y282605D02*
Y283786D01*
X484394Y284451D02*
X485575D01*
X484984Y283860D02*
Y285041D01*
X548322Y260135D02*
X549503D01*
X548912Y259545D02*
Y260726D01*
X590693Y249018D02*
X591874D01*
X591284Y248427D02*
Y249608D01*
X545807Y264866D02*
X546988D01*
X546397Y264276D02*
Y265457D01*
X555260Y249018D02*
X556441D01*
X555851Y248427D02*
Y249608D01*
X543277Y260305D02*
X544458D01*
X543868Y259714D02*
Y260895D01*
X590693Y213585D02*
X591874D01*
X591284Y212994D02*
Y214175D01*
X540690Y264903D02*
X541871D01*
X541280Y264312D02*
Y265493D01*
X555260Y213585D02*
X556441D01*
X555851Y212994D02*
Y214175D01*
X538067Y260200D02*
X539248D01*
X538658Y259609D02*
Y260790D01*
X519827Y213585D02*
X521008D01*
X520417Y212994D02*
Y214175D01*
X484394Y213585D02*
X485575D01*
X484984Y212994D02*
Y214175D01*
X532980Y260025D02*
X534161D01*
X533570Y259435D02*
Y260616D01*
X519827Y249018D02*
X521008D01*
X520417Y248427D02*
Y249608D01*
X533052Y288129D02*
X534234D01*
X533643Y287539D02*
Y288720D01*
X519827Y284451D02*
X521008D01*
X520417Y283860D02*
Y285041D01*
X452489Y275806D02*
X453670D01*
X453079Y275215D02*
Y276396D01*
X422658Y328766D02*
X423840D01*
X423249Y328176D02*
Y329357D01*
X458092Y328766D02*
X459273D01*
X458682Y328176D02*
Y329357D01*
X387225Y222467D02*
X388406D01*
X387816Y221876D02*
Y223058D01*
X422658Y222467D02*
X423840D01*
X423249Y221876D02*
Y223058D01*
X351792Y328766D02*
X352974D01*
X352383Y328176D02*
Y329357D01*
X458092Y293333D02*
X459273D01*
X458682Y292742D02*
Y293924D01*
X458092Y222467D02*
X459273D01*
X458682Y221876D02*
Y223058D01*
X458092Y257900D02*
X459273D01*
X458682Y257310D02*
Y258491D01*
X387225Y328766D02*
X388406D01*
X387816Y328176D02*
Y329357D01*
X351792Y293333D02*
X352974D01*
X352383Y292742D02*
Y293924D01*
X433879Y276798D02*
X435060D01*
X434470Y276207D02*
Y277388D01*
X422658Y293333D02*
X423840D01*
X423249Y292742D02*
Y293924D01*
X411900Y280275D02*
X413081D01*
X412490Y279684D02*
Y280865D01*
X408288Y270892D02*
X409470D01*
X408879Y270302D02*
Y271483D01*
X387225Y293333D02*
X388406D01*
X387816Y292742D02*
Y293924D01*
X435454Y253963D02*
X436635D01*
X436044Y253373D02*
Y254554D01*
X387083Y256405D02*
X388264D01*
X387673Y255815D02*
Y256996D01*
X422658Y257900D02*
X423840D01*
X423249Y257310D02*
Y258491D01*
X351792Y257900D02*
X352974D01*
X352383Y257310D02*
Y258491D01*
X351792Y222467D02*
X352974D01*
X352383Y221876D02*
Y223058D01*
X447496Y331085D02*
X448677D01*
X448087Y330494D02*
Y331675D01*
X412063Y331085D02*
X413244D01*
X412653Y330494D02*
Y331675D01*
X376630Y224785D02*
X377811D01*
X377220Y224195D02*
Y225376D01*
X341197Y331085D02*
X342378D01*
X341787Y330494D02*
Y331675D01*
X376630Y331085D02*
X377811D01*
X377220Y330494D02*
Y331675D01*
X388806Y279903D02*
X389987D01*
X389397Y279313D02*
Y280494D01*
X412063Y295652D02*
X413244D01*
X412653Y295061D02*
Y296242D01*
X447496Y295652D02*
X448677D01*
X448087Y295061D02*
Y296242D01*
X414287Y256863D02*
X415468D01*
X414877Y256273D02*
Y257454D01*
X414194Y270892D02*
X415375D01*
X414784Y270302D02*
Y271483D01*
X376630Y295652D02*
X377811D01*
X377220Y295061D02*
Y296242D01*
X341197Y295652D02*
X342378D01*
X341787Y295061D02*
Y296242D01*
X447496Y224785D02*
X448677D01*
X448087Y224195D02*
Y225376D01*
X412063Y224785D02*
X413244D01*
X412653Y224195D02*
Y225376D01*
X433879Y270892D02*
X435060D01*
X434470Y270302D02*
Y271483D01*
X447496Y260219D02*
X448677D01*
X448087Y259628D02*
Y260809D01*
X376630Y260219D02*
X377811D01*
X377220Y259628D02*
Y260809D01*
X341197Y260219D02*
X342378D01*
X341787Y259628D02*
Y260809D01*
X341197Y224785D02*
X342378D01*
X341787Y224195D02*
Y225376D01*
X388753Y265189D02*
X389934D01*
X389344Y264598D02*
Y265780D01*
X342737Y249042D02*
X343918D01*
X343328Y248451D02*
Y249632D01*
X409078Y282853D02*
X410259D01*
X409668Y282262D02*
Y283443D01*
X418289Y284462D02*
X419470D01*
X418880Y283872D02*
Y285053D01*
X406732Y288058D02*
X407913D01*
X407322Y287468D02*
Y288649D01*
X449036Y284475D02*
X450217D01*
X449627Y283884D02*
Y285065D01*
X404209Y283471D02*
X405390D01*
X404799Y282880D02*
Y284061D01*
X401607Y288081D02*
X402788D01*
X402197Y287490D02*
Y288671D01*
X413603Y319908D02*
X414784D01*
X414194Y319317D02*
Y320498D01*
X399018Y283515D02*
X400200D01*
X399609Y282924D02*
Y284105D01*
X378170Y319908D02*
X379351D01*
X378761Y319317D02*
Y320498D01*
X396506Y288065D02*
X397687D01*
X397097Y287474D02*
Y288655D01*
X342737Y319908D02*
X343918D01*
X343328Y319317D02*
Y320498D01*
X393922Y283219D02*
X395103D01*
X394512Y282628D02*
Y283810D01*
X342737Y284475D02*
X343918D01*
X343328Y283884D02*
Y285065D01*
X406665Y260159D02*
X407846D01*
X407256Y259569D02*
Y260750D01*
X449036Y249042D02*
X450217D01*
X449627Y248451D02*
Y249632D01*
X404150Y264890D02*
X405331D01*
X404740Y264300D02*
Y265481D01*
X413603Y249042D02*
X414784D01*
X414194Y248451D02*
Y249632D01*
X401621Y260329D02*
X402802D01*
X402211Y259738D02*
Y260919D01*
X449036Y213609D02*
X450217D01*
X449627Y213018D02*
Y214199D01*
X399033Y264927D02*
X400214D01*
X399624Y264336D02*
Y265517D01*
X413603Y213609D02*
X414784D01*
X414194Y213018D02*
Y214199D01*
X396411Y260224D02*
X397592D01*
X397001Y259633D02*
Y260814D01*
X378170Y213609D02*
X379351D01*
X378761Y213018D02*
Y214199D01*
X393911Y265084D02*
X395092D01*
X394501Y264494D02*
Y265675D01*
X342737Y213609D02*
X343918D01*
X343328Y213018D02*
Y214199D01*
X391323Y260049D02*
X392504D01*
X391914Y259458D02*
Y260640D01*
X378170Y249042D02*
X379351D01*
X378761Y248451D02*
Y249632D01*
X391396Y288153D02*
X392577D01*
X391986Y287562D02*
Y288744D01*
X378170Y284475D02*
X379351D01*
X378761Y283884D02*
Y285065D01*
X310633Y275689D02*
X311815D01*
X311224Y275099D02*
Y276280D01*
X280803Y328650D02*
X281984D01*
X281394Y328059D02*
Y329240D01*
X316236Y328650D02*
X317417D01*
X316827Y328059D02*
Y329240D01*
X245370Y222351D02*
X246551D01*
X245961Y221760D02*
Y222941D01*
X280803Y222351D02*
X281984D01*
X281394Y221760D02*
Y222941D01*
X209937Y328650D02*
X211118D01*
X210528Y328059D02*
Y329240D01*
X316236Y293217D02*
X317417D01*
X316827Y292626D02*
Y293807D01*
X316236Y222351D02*
X317417D01*
X316827Y221760D02*
Y222941D01*
X316236Y257784D02*
X317417D01*
X316827Y257193D02*
Y258374D01*
X245370Y328650D02*
X246551D01*
X245961Y328059D02*
Y329240D01*
X209937Y293217D02*
X211118D01*
X210528Y292626D02*
Y293807D01*
X292024Y276681D02*
X293205D01*
X292614Y276091D02*
Y277272D01*
X280803Y293217D02*
X281984D01*
X281394Y292626D02*
Y293807D01*
X270044Y280158D02*
X271225D01*
X270635Y279568D02*
Y280749D01*
X266433Y270776D02*
X267614D01*
X267024Y270185D02*
Y271366D01*
X245370Y293217D02*
X246551D01*
X245961Y292626D02*
Y293807D01*
X293599Y253847D02*
X294780D01*
X294189Y253256D02*
Y254437D01*
X245228Y256289D02*
X246409D01*
X245818Y255698D02*
Y256880D01*
X280803Y257784D02*
X281984D01*
X281394Y257193D02*
Y258374D01*
X209937Y257784D02*
X211118D01*
X210528Y257193D02*
Y258374D01*
X209937Y222351D02*
X211118D01*
X210528Y221760D02*
Y222941D01*
X305641Y330968D02*
X306822D01*
X306231Y330378D02*
Y331559D01*
X270208Y330968D02*
X271389D01*
X270798Y330378D02*
Y331559D01*
X234774Y224669D02*
X235956D01*
X235365Y224078D02*
Y225260D01*
X199341Y330968D02*
X200522D01*
X199932Y330378D02*
Y331559D01*
X234774Y330968D02*
X235956D01*
X235365Y330378D02*
Y331559D01*
X246951Y279787D02*
X248132D01*
X247542Y279196D02*
Y280377D01*
X270208Y295535D02*
X271389D01*
X270798Y294945D02*
Y296126D01*
X305641Y295535D02*
X306822D01*
X306231Y294945D02*
Y296126D01*
X272431Y256747D02*
X273612D01*
X273022Y256156D02*
Y257337D01*
X272339Y270776D02*
X273520D01*
X272929Y270185D02*
Y271366D01*
X234774Y295535D02*
X235956D01*
X235365Y294945D02*
Y296126D01*
X199341Y295535D02*
X200522D01*
X199932Y294945D02*
Y296126D01*
X305641Y224669D02*
X306822D01*
X306231Y224078D02*
Y225260D01*
X270208Y224669D02*
X271389D01*
X270798Y224078D02*
Y225260D01*
X292024Y270776D02*
X293205D01*
X292614Y270185D02*
Y271366D01*
X305641Y260102D02*
X306822D01*
X306231Y259512D02*
Y260693D01*
X234774Y260102D02*
X235956D01*
X235365Y259512D02*
Y260693D01*
X199341Y260102D02*
X200522D01*
X199932Y259512D02*
Y260693D01*
X199341Y224669D02*
X200522D01*
X199932Y224078D02*
Y225260D01*
X246898Y265073D02*
X248079D01*
X247488Y264482D02*
Y265663D01*
X200882Y248925D02*
X202063D01*
X201472Y248335D02*
Y249516D01*
X267222Y282736D02*
X268404D01*
X267813Y282146D02*
Y283327D01*
X276434Y284346D02*
X277615D01*
X277025Y283755D02*
Y284936D01*
X264877Y287942D02*
X266057D01*
X265467Y287351D02*
Y288532D01*
X307181Y284358D02*
X308362D01*
X307772Y283768D02*
Y284949D01*
X262353Y283354D02*
X263534D01*
X262944Y282764D02*
Y283945D01*
X307181Y319792D02*
X308362D01*
X307772Y319201D02*
Y320382D01*
X259751Y287964D02*
X260932D01*
X260342Y287374D02*
Y288555D01*
X271748Y319792D02*
X272929D01*
X272339Y319201D02*
Y320382D01*
X257163Y283398D02*
X258344D01*
X257754Y282808D02*
Y283989D01*
X236315Y319792D02*
X237496D01*
X236906Y319201D02*
Y320382D01*
X254651Y287948D02*
X255832D01*
X255241Y287358D02*
Y288539D01*
X200882Y319792D02*
X202063D01*
X201472Y319201D02*
Y320382D01*
X252066Y283103D02*
X253247D01*
X252657Y282512D02*
Y283693D01*
X200882Y284358D02*
X202063D01*
X201472Y283768D02*
Y284949D01*
X264810Y260043D02*
X265991D01*
X265400Y259452D02*
Y260633D01*
X307181Y248925D02*
X308362D01*
X307772Y248335D02*
Y249516D01*
X262295Y264774D02*
X263476D01*
X262885Y264183D02*
Y265364D01*
X271748Y248925D02*
X272929D01*
X272339Y248335D02*
Y249516D01*
X259765Y260212D02*
X260946D01*
X260356Y259622D02*
Y260803D01*
X307181Y213492D02*
X308362D01*
X307772Y212902D02*
Y214083D01*
X257178Y264810D02*
X258359D01*
X257768Y264220D02*
Y265401D01*
X271748Y213492D02*
X272929D01*
X272339Y212902D02*
Y214083D01*
X254555Y260107D02*
X255736D01*
X255146Y259517D02*
Y260698D01*
X236315Y213492D02*
X237496D01*
X236906Y212902D02*
Y214083D01*
X252055Y264968D02*
X253237D01*
X252646Y264377D02*
Y265558D01*
X200882Y213492D02*
X202063D01*
X201472Y212902D02*
Y214083D01*
X249468Y259933D02*
X250649D01*
X250059Y259342D02*
Y260523D01*
X236315Y248925D02*
X237496D01*
X236906Y248335D02*
Y249516D01*
X249541Y288037D02*
X250722D01*
X250131Y287446D02*
Y288627D01*
X236315Y284358D02*
X237496D01*
X236906Y283768D02*
Y284949D01*
X123180Y543598D02*
X124361D01*
X123770Y543007D02*
Y544188D01*
X139173Y541339D02*
X140354D01*
X139764Y540748D02*
Y541929D01*
X130801Y540302D02*
X131983D01*
X131392Y539711D02*
Y540893D01*
X130118Y497047D02*
X131299D01*
X130709Y496457D02*
Y497638D01*
X120665Y548329D02*
X121846D01*
X121255Y547738D02*
Y548919D01*
X118135Y543767D02*
X119316D01*
X118726Y543177D02*
Y544358D01*
X115548Y548365D02*
X116729D01*
X116139Y547775D02*
Y548956D01*
X112926Y543662D02*
X114107D01*
X113516Y543072D02*
Y544253D01*
X110425Y548523D02*
X111607D01*
X111016Y547932D02*
Y549113D01*
X107838Y543488D02*
X109019D01*
X108429Y542897D02*
Y544078D01*
X105268Y548628D02*
X106449D01*
X105859Y548037D02*
Y549218D01*
X103598Y539844D02*
X104779D01*
X104188Y539254D02*
Y540435D01*
X134804Y567901D02*
X135985D01*
X135395Y567310D02*
Y568491D01*
X169004Y559244D02*
X170185D01*
X169594Y558654D02*
Y559835D01*
X174606Y505905D02*
X175787D01*
X175197Y505315D02*
Y506496D01*
X164011Y508224D02*
X165192D01*
X164601Y507633D02*
Y508815D01*
X165551Y497047D02*
X166732D01*
X166142Y496457D02*
Y497638D01*
X139173Y505905D02*
X140354D01*
X139764Y505315D02*
Y506496D01*
X128578Y508224D02*
X129759D01*
X129168Y507633D02*
Y508815D01*
X103740Y505905D02*
X104921D01*
X104331Y505315D02*
Y506496D01*
X93145Y508224D02*
X94326D01*
X93735Y507633D02*
Y508815D01*
X94685Y497047D02*
X95866D01*
X95276Y496457D02*
Y497638D01*
X68307Y505905D02*
X69488D01*
X68898Y505315D02*
Y506496D01*
X57711Y508224D02*
X58893D01*
X58302Y507633D02*
Y508815D01*
X59252Y497047D02*
X60433D01*
X59842Y496457D02*
Y497638D01*
X93145Y543657D02*
X94326D01*
X93735Y543067D02*
Y544248D01*
X165551Y532480D02*
X166732D01*
X166142Y531890D02*
Y533071D01*
X164011Y543657D02*
X165192D01*
X164601Y543067D02*
Y544248D01*
X174606Y541339D02*
X175787D01*
X175197Y540748D02*
Y541929D01*
X130118Y532480D02*
X131299D01*
X130709Y531890D02*
Y533071D01*
X94685Y532480D02*
X95866D01*
X95276Y531890D02*
Y533071D01*
X59252Y532480D02*
X60433D01*
X59842Y531890D02*
Y533071D01*
X57711Y543657D02*
X58893D01*
X58302Y543067D02*
Y544248D01*
X68307Y541339D02*
X69488D01*
X68898Y540748D02*
Y541929D01*
X59252Y567913D02*
X60433D01*
X59842Y567323D02*
Y568504D01*
X57711Y579090D02*
X58893D01*
X58302Y578500D02*
Y579681D01*
X68307Y576772D02*
X69488D01*
X68898Y576181D02*
Y577362D01*
X94685Y567913D02*
X95866D01*
X95276Y567323D02*
Y568504D01*
X93145Y579090D02*
X94326D01*
X93735Y578500D02*
Y579681D01*
X103740Y576772D02*
X104921D01*
X104331Y576181D02*
Y577362D01*
X128578Y579090D02*
X129759D01*
X129168Y578500D02*
Y579681D01*
X139173Y576772D02*
X140354D01*
X139764Y576181D02*
Y577362D01*
X165551Y567913D02*
X166732D01*
X166142Y567323D02*
Y568504D01*
X164011Y579090D02*
X165192D01*
X164601Y578500D02*
Y579681D01*
X174606Y576772D02*
X175787D01*
X175197Y576181D02*
Y577362D01*
X165551Y603346D02*
X166732D01*
X166142Y602756D02*
Y603937D01*
X164011Y614523D02*
X165192D01*
X164601Y613933D02*
Y615114D01*
X174606Y612205D02*
X175787D01*
X175197Y611614D02*
Y612795D01*
X130118Y603346D02*
X131299D01*
X130709Y602756D02*
Y603937D01*
X128578Y614523D02*
X129759D01*
X129168Y613933D02*
Y615114D01*
X139173Y612205D02*
X140354D01*
X139764Y611614D02*
Y612795D01*
X94685Y603346D02*
X95866D01*
X95276Y602756D02*
Y603937D01*
X93145Y614523D02*
X94326D01*
X93735Y613933D02*
Y615114D01*
X103740Y612205D02*
X104921D01*
X104331Y611614D02*
Y612795D01*
X68307Y612205D02*
X69488D01*
X68898Y611614D02*
Y612795D01*
X57711Y614523D02*
X58893D01*
X58302Y613933D02*
Y615114D01*
X59252Y603346D02*
X60433D01*
X59842Y602756D02*
Y603937D01*
X675713Y511294D02*
X676894D01*
X676304Y510704D02*
Y511885D01*
X640043Y453082D02*
X641224D01*
X640634Y452491D02*
Y453672D01*
X659867Y454404D02*
X661048D01*
X660457Y453814D02*
Y454995D01*
X672662Y453420D02*
X673843D01*
X673252Y452830D02*
Y454011D01*
X680536Y453420D02*
X681717D01*
X681126Y452830D02*
Y454011D01*
X686442Y530192D02*
X687623D01*
X687032Y529601D02*
Y530782D01*
X680536Y534129D02*
X681717D01*
X681126Y533538D02*
Y534719D01*
X635260Y491806D02*
X636442D01*
X635851Y491215D02*
Y492396D01*
X638213Y502633D02*
X639394D01*
X638804Y502042D02*
Y503223D01*
X647071Y495743D02*
X648252D01*
X647662Y495152D02*
Y496334D01*
X642150Y462278D02*
X643331D01*
X642741Y461688D02*
Y462869D01*
X657898Y465231D02*
X659079D01*
X658489Y464641D02*
Y465822D01*
X643134Y470152D02*
X644315D01*
X643725Y469562D02*
Y470743D01*
X642150Y478026D02*
X643331D01*
X642741Y477436D02*
Y478617D01*
X657898Y481963D02*
X659079D01*
X658489Y481373D02*
Y482554D01*
X655930Y530192D02*
X657111D01*
X656520Y529601D02*
Y530782D01*
X642150Y530192D02*
X643331D01*
X642741Y529601D02*
Y530782D01*
X658882Y521334D02*
X660064D01*
X659473Y520743D02*
Y521924D01*
X634252Y210630D02*
X635433D01*
X634842Y210039D02*
Y211221D01*
X635236Y198819D02*
X636417D01*
X635827Y198228D02*
Y199409D01*
X642126Y171260D02*
X643307D01*
X642717Y170669D02*
Y171850D01*
X641142Y179134D02*
X642323D01*
X641732Y178543D02*
Y179724D01*
X641142Y187008D02*
X642323D01*
X641732Y186417D02*
Y187598D01*
X657874Y190945D02*
X659055D01*
X658465Y190354D02*
Y191535D01*
X642126Y239173D02*
X643307D01*
X642717Y238583D02*
Y239764D01*
X642126Y223425D02*
X643307D01*
X642717Y222835D02*
Y224016D01*
X628346Y204724D02*
X629528D01*
X628937Y204134D02*
Y205315D01*
X642126Y204724D02*
X643307D01*
X642717Y204134D02*
Y205315D01*
X672638Y170276D02*
X673819D01*
X673228Y169685D02*
Y170866D01*
X680512Y169291D02*
X681693D01*
X681102Y168701D02*
Y169882D01*
X659105Y253585D02*
X660287D01*
X659696Y252994D02*
Y254175D01*
X648279Y253585D02*
X649460D01*
X648869Y252994D02*
Y254175D01*
X638436Y253585D02*
X639617D01*
X639027Y252994D02*
Y254175D01*
X670669Y253937D02*
X671850D01*
X671260Y253346D02*
Y254528D01*
X689699Y209494D02*
X690880D01*
X690290Y208904D02*
Y210085D01*
X680019Y219488D02*
X681201D01*
X680610Y218898D02*
Y220079D01*
X678937Y207677D02*
X680118D01*
X679528Y207087D02*
Y208268D01*
X679035Y211417D02*
X680217D01*
X679626Y210827D02*
Y212008D01*
X678839Y204035D02*
X680020D01*
X679429Y203445D02*
Y204626D01*
X693307Y250984D02*
X694488D01*
X693898Y250394D02*
Y251575D01*
X690443Y500818D02*
X691624D01*
X691034Y500227D02*
Y501408D01*
X679158Y498696D02*
X680339D01*
X679748Y498105D02*
Y499286D01*
X675418Y498696D02*
X676599D01*
X676008Y498105D02*
Y499286D01*
X675418Y494955D02*
X676599D01*
X676008Y494365D02*
Y495546D01*
X675418Y502436D02*
X676599D01*
X676008Y501845D02*
Y503026D01*
X682898Y502436D02*
X684079D01*
X683489Y501845D02*
Y503026D01*
X637198Y599305D02*
X638379D01*
X637789Y598714D02*
Y599895D01*
X637205Y618307D02*
X638386D01*
X637795Y617717D02*
Y618898D01*
X665617Y457118D02*
X666798D01*
X666208Y456528D02*
Y457709D01*
X695201Y510900D02*
X696382D01*
X695792Y510310D02*
Y511491D01*
X694980Y187106D02*
X696161D01*
X695571Y186516D02*
Y187697D01*
X695103Y498892D02*
X696284D01*
X695693Y498302D02*
Y499483D01*
X694685Y211221D02*
X695866D01*
X695276Y210630D02*
Y211811D01*
X694980Y218898D02*
X696161D01*
X695571Y218307D02*
Y219488D01*
X694783Y225886D02*
X695965D01*
X695374Y225295D02*
Y226476D01*
X694882Y238976D02*
X696063D01*
X695472Y238386D02*
Y239567D01*
X687032Y447416D02*
X688213D01*
X687623Y446826D02*
Y448007D01*
X653543Y607382D02*
X654724D01*
X654134Y606791D02*
Y607972D01*
X646654Y607283D02*
X647835D01*
X647244Y606693D02*
Y607874D01*
X673425Y606890D02*
X674606D01*
X674016Y606299D02*
Y607480D01*
X620472Y559547D02*
X621654D01*
X621063Y558957D02*
Y560138D01*
X620374Y566142D02*
X621555D01*
X620965Y565551D02*
Y566732D01*
X654035Y558957D02*
X655217D01*
X654626Y558366D02*
Y559547D01*
X654232Y565650D02*
X655413D01*
X654823Y565059D02*
Y566240D01*
X687598Y558464D02*
X688779D01*
X688189Y557874D02*
Y559055D01*
X687598Y565354D02*
X688779D01*
X688189Y564764D02*
Y565945D01*
X687502Y584548D02*
X688683D01*
X688092Y583957D02*
Y585138D01*
X654037Y584548D02*
X655218D01*
X654628Y583957D02*
Y585138D01*
X620573Y584548D02*
X621754D01*
X621163Y583957D02*
Y585138D01*
X679256Y502436D02*
X680438D01*
X679847Y501845D02*
Y503026D01*
X680241Y510507D02*
X681422D01*
X680831Y509916D02*
Y511097D01*
X682898Y494955D02*
X684079D01*
X683489Y494365D02*
Y495546D01*
X668745Y479002D02*
X669926D01*
X669336Y478412D02*
Y479593D01*
X664514Y470033D02*
X665695D01*
X665104Y469442D02*
Y470623D01*
X678280Y486632D02*
X679461D01*
X678871Y486042D02*
Y487223D01*
X678174Y474089D02*
X679355D01*
X678764Y473499D02*
Y474680D01*
X664633Y534368D02*
X665814D01*
X665224Y533777D02*
Y534958D01*
X664394Y514444D02*
X665575D01*
X664985Y513853D02*
Y515034D01*
X668134Y511491D02*
X669315D01*
X668725Y510900D02*
Y512081D01*
X667938Y545054D02*
X669119D01*
X668528Y544463D02*
Y545645D01*
X678174Y523302D02*
X679355D01*
X678764Y522711D02*
Y523892D01*
X668451Y526374D02*
X669632D01*
X669041Y525784D02*
Y526965D01*
X672465Y521826D02*
X673646D01*
X673056Y521235D02*
Y522416D01*
X671087Y447121D02*
X672268D01*
X671678Y446530D02*
Y447711D01*
X678666Y446826D02*
X679847D01*
X679256Y446235D02*
Y447416D01*
X650221Y447121D02*
X651402D01*
X650811Y446530D02*
Y447711D01*
X661540Y446924D02*
X662721D01*
X662130Y446334D02*
Y447515D01*
X639493Y447318D02*
X640674D01*
X640083Y446727D02*
Y447908D01*
X618233Y447613D02*
X619414D01*
X618823Y447022D02*
Y448204D01*
X613410Y504109D02*
X614591D01*
X614001Y503518D02*
Y504700D01*
X629882Y476018D02*
X631063D01*
X630473Y475427D02*
Y476608D01*
X613410Y521629D02*
X614591D01*
X614001Y521038D02*
Y522219D01*
X629945Y470152D02*
X631126D01*
X630536Y469562D02*
Y470743D01*
X613607Y512377D02*
X614788D01*
X614197Y511786D02*
Y512967D01*
X632505Y508440D02*
X633686D01*
X633095Y507849D02*
Y509030D01*
X629945Y517396D02*
X631126D01*
X630536Y516806D02*
Y517987D01*
X629987Y464209D02*
X631169D01*
X630578Y463618D02*
Y464799D01*
X629945Y523302D02*
X631126D01*
X630536Y522711D02*
Y523892D01*
X613410Y530585D02*
X614591D01*
X614001Y529995D02*
Y531176D01*
X629969Y528705D02*
X631150D01*
X630559Y528114D02*
Y529295D01*
X614394Y539739D02*
X615575D01*
X614985Y539148D02*
Y540330D01*
X623942Y544070D02*
X625123D01*
X624532Y543479D02*
Y544660D01*
X646481D02*
X647662D01*
X647071Y544070D02*
Y545251D01*
X655297Y501410D02*
X656478D01*
X655888Y500819D02*
Y502000D01*
X657898Y544463D02*
X659079D01*
X658489Y543873D02*
Y545054D01*
X653448Y491925D02*
X654629D01*
X654039Y491335D02*
Y492516D01*
X636245Y544857D02*
X637426D01*
X636835Y544267D02*
Y545448D01*
X686638Y544463D02*
X687819D01*
X687229Y543873D02*
Y545054D01*
X695300Y522908D02*
X696481D01*
X695890Y522318D02*
Y523499D01*
X695005Y537967D02*
X696186D01*
X695595Y537377D02*
Y538558D01*
X695103Y529995D02*
X696284D01*
X695693Y529404D02*
Y530585D01*
X692642Y543282D02*
X693823D01*
X693233Y542692D02*
Y543873D01*
X694808Y468184D02*
X695989D01*
X695398Y467593D02*
Y468774D01*
X695103Y479798D02*
X696284D01*
X695693Y479208D02*
Y480389D01*
X694808Y459916D02*
X695989D01*
X695398Y459326D02*
Y460507D01*
X694315Y452534D02*
X695497D01*
X694906Y451944D02*
Y453125D01*
X686048Y474089D02*
X687229D01*
X686638Y473499D02*
Y474680D01*
X684612Y510271D02*
X685793D01*
X685203Y509680D02*
Y510861D01*
X686048Y523302D02*
X687229D01*
X686638Y522711D02*
Y523892D01*
X695103Y487771D02*
X696284D01*
X695693Y487180D02*
Y488361D01*
X686056Y489846D02*
X687237D01*
X686646Y489255D02*
Y490437D01*
X623721Y253051D02*
X624902D01*
X624311Y252461D02*
Y253642D01*
X614173Y248721D02*
X615354D01*
X614764Y248130D02*
Y249311D01*
X613189Y239567D02*
X614370D01*
X613779Y238976D02*
Y240158D01*
X613189Y230610D02*
X614370D01*
X613779Y230020D02*
Y231201D01*
X613386Y221358D02*
X614567D01*
X613976Y220768D02*
Y221949D01*
X613189Y213090D02*
X614370D01*
X613779Y212500D02*
Y213681D01*
X613287Y194587D02*
X614468D01*
X613878Y193996D02*
Y195177D01*
X613484Y187598D02*
X614665D01*
X614075Y187008D02*
Y188189D01*
X613386Y179429D02*
X614567D01*
X613976Y178839D02*
Y180020D01*
X613189Y169783D02*
X614370D01*
X613779Y169193D02*
Y170374D01*
X618012Y156595D02*
X619193D01*
X618602Y156004D02*
Y157185D01*
X639272Y156299D02*
X640453D01*
X639862Y155709D02*
Y156890D01*
X650000Y156102D02*
X651181D01*
X650591Y155512D02*
Y156693D01*
X661319Y155905D02*
X662500D01*
X661909Y155315D02*
Y156496D01*
X670866Y156102D02*
X672047D01*
X671457Y155512D02*
Y156693D01*
X678445Y155807D02*
X679626D01*
X679035Y155217D02*
Y156398D01*
X688386Y155807D02*
X689567D01*
X688976Y155217D02*
Y156398D01*
X694095Y161516D02*
X695276D01*
X694685Y160925D02*
Y162106D01*
X694587Y168898D02*
X695768D01*
X695177Y168307D02*
Y169488D01*
X694587Y177165D02*
X695768D01*
X695177Y176575D02*
Y177756D01*
X694882Y196752D02*
X696063D01*
X695472Y196161D02*
Y197343D01*
X695079Y231890D02*
X696260D01*
X695669Y231299D02*
Y232480D01*
X685835Y198828D02*
X687016D01*
X686425Y198237D02*
Y199418D01*
X669074Y195980D02*
X670255D01*
X669664Y195390D02*
Y196571D01*
X678059Y195614D02*
X679240D01*
X678650Y195023D02*
Y196204D01*
X675197Y203937D02*
X676378D01*
X675787Y203346D02*
Y204528D01*
X682677Y203937D02*
X683858D01*
X683268Y203346D02*
Y204528D01*
X682480Y207677D02*
X683661D01*
X683071Y207087D02*
Y208268D01*
X681739Y195771D02*
X682920D01*
X682329Y195180D02*
Y196362D01*
X684391Y219252D02*
X685572D01*
X684982Y218662D02*
Y219843D01*
X682677Y211417D02*
X683858D01*
X683268Y210827D02*
Y212008D01*
X675197Y207677D02*
X676378D01*
X675787Y207087D02*
Y208268D01*
X629724Y232283D02*
X630905D01*
X630315Y231693D02*
Y232874D01*
X629724Y226378D02*
X630905D01*
X630315Y225787D02*
Y226969D01*
X629724Y179134D02*
X630905D01*
X630315Y178543D02*
Y179724D01*
X629766Y173190D02*
X630947D01*
X630357Y172600D02*
Y173781D01*
X665396Y166100D02*
X666577D01*
X665987Y165509D02*
Y166690D01*
X664293Y179015D02*
X665474D01*
X664883Y178424D02*
Y179605D01*
X668524Y187984D02*
X669705D01*
X669114Y187393D02*
Y188575D01*
X629748Y237686D02*
X630929D01*
X630338Y237095D02*
Y238277D01*
X629661Y184999D02*
X630842D01*
X630252Y184409D02*
Y185590D01*
X653227Y200907D02*
X654408D01*
X653818Y200316D02*
Y201497D01*
X664173Y223425D02*
X665354D01*
X664764Y222835D02*
Y224016D01*
X655076Y210391D02*
X656257D01*
X655667Y209801D02*
Y210982D01*
X668230Y235356D02*
X669411D01*
X668820Y234765D02*
Y235946D01*
X664412Y243349D02*
X665593D01*
X665003Y242758D02*
Y243940D01*
X677953Y183071D02*
X679134D01*
X678543Y182480D02*
Y183661D01*
X685827Y183071D02*
X687008D01*
X686417Y182480D02*
Y183661D01*
X677953Y232283D02*
X679134D01*
X678543Y231693D02*
Y232874D01*
X685827Y232283D02*
X687008D01*
X686417Y231693D02*
Y232874D01*
X125593Y566291D02*
X126774D01*
X126183Y565701D02*
Y566882D01*
X113021Y571503D02*
X114202D01*
X113611Y570913D02*
Y572094D01*
X123247Y571497D02*
X124428D01*
X123837Y570906D02*
Y572087D01*
X120723Y566909D02*
X121905D01*
X121314Y566319D02*
Y567500D01*
X118122Y571519D02*
X119303D01*
X118712Y570929D02*
Y572110D01*
X115533Y566953D02*
X116714D01*
X116124Y566363D02*
Y567544D01*
X110436Y566658D02*
X111618D01*
X111027Y566067D02*
Y567248D01*
X107911Y571592D02*
X109092D01*
X108501Y571001D02*
Y572182D01*
X128414Y563713D02*
X129595D01*
X129005Y563123D02*
Y564304D01*
X105321Y563342D02*
X106502D01*
X105912Y562751D02*
Y563932D01*
X151969Y537402D02*
X153150D01*
X152559Y536811D02*
Y537992D01*
X150394Y560236D02*
X151575D01*
X150984Y559646D02*
Y560827D01*
X150394Y554331D02*
X151575D01*
X150984Y553740D02*
Y554921D01*
X124803Y554331D02*
X125984D01*
X125394Y553740D02*
Y554921D01*
X130709Y554331D02*
X131890D01*
X131299Y553740D02*
Y554921D01*
M02*
