G04*
G04 #@! TF.GenerationSoftware,Altium Limited,Altium Designer,25.0.2 (28)*
G04*
G04 Layer_Physical_Order=2*
G04 Layer_Color=32768*
%FSLAX25Y25*%
%MOIN*%
G70*
G04*
G04 #@! TF.SameCoordinates,7C83500D-BFB9-469C-A41D-0C693C3E1856*
G04*
G04*
G04 #@! TF.FilePolarity,Negative*
G04*
G01*
G75*
%ADD76C,0.04000*%
%ADD77C,0.06016*%
G04:AMPARAMS|DCode=78|XSize=111.181mil|YSize=111.181mil|CornerRadius=0mil|HoleSize=0mil|Usage=FLASHONLY|Rotation=0.000|XOffset=0mil|YOffset=0mil|HoleType=Round|Shape=Relief|Width=10mil|Gap=10mil|Entries=4|*
%AMTHD78*
7,0,0,0.11118,0.09118,0.01000,45*
%
%ADD78THD78*%
G04:AMPARAMS|DCode=79|XSize=100.157mil|YSize=100.157mil|CornerRadius=0mil|HoleSize=0mil|Usage=FLASHONLY|Rotation=0.000|XOffset=0mil|YOffset=0mil|HoleType=Round|Shape=Relief|Width=10mil|Gap=10mil|Entries=4|*
%AMTHD79*
7,0,0,0.10016,0.08016,0.01000,45*
%
%ADD79THD79*%
%ADD80C,0.13811*%
%ADD81C,0.14598*%
%ADD82C,0.03181*%
D76*
X700000Y65945D02*
G03*
X712598Y78543I0J12598D01*
G01*
Y612402D02*
G03*
X700000Y625000I-12598J0D01*
G01*
X24588Y78543D02*
G03*
X37187Y65945I12598J0D01*
G01*
Y625000D02*
G03*
X24588Y612402I0J-12598D01*
G01*
X37187Y65945D02*
X700000D01*
X712598Y78543D02*
Y612402D01*
X37187Y625000D02*
X700000D01*
X24588Y78543D02*
Y612402D01*
D77*
X653112Y372157D02*
D03*
Y299401D02*
D03*
X664094Y112205D02*
D03*
D78*
X680614Y544477D02*
D03*
X629433Y447233D02*
D03*
X680315Y253445D02*
D03*
X629134Y156201D02*
D03*
D79*
X675906Y112205D02*
D03*
D80*
X692913D02*
D03*
D81*
X40354Y81693D02*
D03*
X620079Y609252D02*
D03*
X40354D02*
D03*
X696850Y81693D02*
D03*
X620079D02*
D03*
X696850Y609252D02*
D03*
D82*
X624016Y105315D02*
D03*
X625000Y112205D02*
D03*
X625563Y108917D02*
D03*
X627953Y106299D02*
D03*
X630905Y111221D02*
D03*
X86364Y556422D02*
D03*
X80141Y429284D02*
D03*
X76598Y404894D02*
D03*
X83400Y420621D02*
D03*
X86606Y416202D02*
D03*
X83092Y562590D02*
D03*
X79842Y570590D02*
D03*
X76466Y544505D02*
D03*
X218297Y558875D02*
D03*
X221523Y562930D02*
D03*
X225012Y570429D02*
D03*
X228413Y548149D02*
D03*
X218260Y416008D02*
D03*
X221743Y420573D02*
D03*
X224943Y428526D02*
D03*
X228331Y406078D02*
D03*
X363282Y428688D02*
D03*
X366636Y419867D02*
D03*
X370079Y413386D02*
D03*
X359974Y404016D02*
D03*
X360117Y546511D02*
D03*
X363401Y570941D02*
D03*
X366766Y561009D02*
D03*
X369930Y555682D02*
D03*
X501642Y555703D02*
D03*
X505148Y562478D02*
D03*
X508338Y569804D02*
D03*
X511795Y540315D02*
D03*
X501722Y413402D02*
D03*
X505048Y420658D02*
D03*
X508474Y427107D02*
D03*
X511880Y399132D02*
D03*
X82460Y285433D02*
D03*
X78895Y277581D02*
D03*
X75440Y270636D02*
D03*
X85693Y263434D02*
D03*
X75565Y133831D02*
D03*
X78853Y137834D02*
D03*
X82368Y144084D02*
D03*
X85423Y122278D02*
D03*
X227306Y133298D02*
D03*
X223991Y137489D02*
D03*
X220561Y143701D02*
D03*
X217278Y120746D02*
D03*
X220683Y285673D02*
D03*
X224058Y278115D02*
D03*
X227249Y272392D02*
D03*
X217307Y263881D02*
D03*
X359750Y274743D02*
D03*
X363205Y279469D02*
D03*
X366468Y287408D02*
D03*
X369795Y264309D02*
D03*
X359681Y133284D02*
D03*
X363083Y137633D02*
D03*
X366556Y144788D02*
D03*
X369947Y123979D02*
D03*
X510793Y131109D02*
D03*
X507519Y137691D02*
D03*
X504109Y143284D02*
D03*
X500766Y120604D02*
D03*
X510738Y273212D02*
D03*
X507339Y276393D02*
D03*
X504121Y279177D02*
D03*
X500759Y265366D02*
D03*
X449627Y319908D02*
D03*
X555851Y319884D02*
D03*
X591284D02*
D03*
X377117Y401910D02*
D03*
X236943Y390611D02*
D03*
X341684Y366477D02*
D03*
X306268Y366354D02*
D03*
X307809Y355178D02*
D03*
X377117Y437344D02*
D03*
X485130Y603347D02*
D03*
X483589Y579091D02*
D03*
X448253Y579167D02*
D03*
X412820D02*
D03*
X377387D02*
D03*
X341954D02*
D03*
X306446Y579160D02*
D03*
X591306Y355319D02*
D03*
X707098Y341940D02*
D03*
X617126Y299213D02*
D03*
X626312Y337404D02*
D03*
X626509Y305809D02*
D03*
X621783Y313349D02*
D03*
X621872Y345258D02*
D03*
X699662Y307719D02*
D03*
X706038Y315857D02*
D03*
X696643Y310612D02*
D03*
X702305Y316025D02*
D03*
X695229Y338924D02*
D03*
X702716Y325431D02*
D03*
X700494Y336562D02*
D03*
X702680Y333374D02*
D03*
X687274Y339709D02*
D03*
X643219Y365699D02*
D03*
X637459Y305629D02*
D03*
X609771Y302102D02*
D03*
X637453Y336782D02*
D03*
X617052Y331455D02*
D03*
X609771Y334416D02*
D03*
X690914Y496894D02*
D03*
X683242Y486790D02*
D03*
X676083Y220276D02*
D03*
X690694Y205876D02*
D03*
X576272Y554331D02*
D03*
X628002Y536248D02*
D03*
X627949Y484035D02*
D03*
X633240Y483921D02*
D03*
X118736Y429866D02*
D03*
X123861Y429843D02*
D03*
X113635Y429850D02*
D03*
X632970Y217354D02*
D03*
X536158Y265060D02*
D03*
X576126Y270868D02*
D03*
X554460Y153829D02*
D03*
X632843Y165131D02*
D03*
X627764Y165129D02*
D03*
X632848Y193040D02*
D03*
X627743Y193064D02*
D03*
X627724Y217385D02*
D03*
X632857Y245156D02*
D03*
X627776Y245181D02*
D03*
X633146Y456209D02*
D03*
X628037Y456185D02*
D03*
X633080Y536313D02*
D03*
X628038Y508340D02*
D03*
X649130Y92028D02*
D03*
X679134Y143701D02*
D03*
X669291D02*
D03*
X610236Y123031D02*
D03*
X614173D02*
D03*
X617126Y118110D02*
D03*
X612205Y127953D02*
D03*
X617126D02*
D03*
X611221Y118110D02*
D03*
X618110Y123031D02*
D03*
X169488Y275859D02*
D03*
X164495Y331138D02*
D03*
X129062D02*
D03*
X93629Y224839D02*
D03*
X58196Y331138D02*
D03*
X93629D02*
D03*
X105806Y279956D02*
D03*
X129062Y295705D02*
D03*
X164495D02*
D03*
X131286Y256917D02*
D03*
X131193Y270945D02*
D03*
X93629Y295705D02*
D03*
X58196D02*
D03*
X164495Y224839D02*
D03*
X129062D02*
D03*
X150878Y270945D02*
D03*
X164495Y260272D02*
D03*
X93629D02*
D03*
X58196D02*
D03*
Y224839D02*
D03*
X105753Y265242D02*
D03*
X59737Y249095D02*
D03*
X126077Y282906D02*
D03*
X135289Y284515D02*
D03*
X123731Y288111D02*
D03*
X166036Y284528D02*
D03*
X121208Y283524D02*
D03*
X166036Y319961D02*
D03*
X118606Y288134D02*
D03*
X130603Y319961D02*
D03*
X116018Y283568D02*
D03*
X95170Y319961D02*
D03*
X113505Y288118D02*
D03*
X59737Y319961D02*
D03*
X110921Y283272D02*
D03*
X59737Y284528D02*
D03*
X123664Y260212D02*
D03*
X166036Y249095D02*
D03*
X121149Y264944D02*
D03*
X130603Y249095D02*
D03*
X118620Y260382D02*
D03*
X166036Y213662D02*
D03*
X116032Y264980D02*
D03*
X130603Y213662D02*
D03*
X113410Y260277D02*
D03*
X95170Y213662D02*
D03*
X110910Y265137D02*
D03*
X59737Y213662D02*
D03*
X108323Y260102D02*
D03*
X95170Y249095D02*
D03*
X108395Y288206D02*
D03*
X95170Y284528D02*
D03*
X594758Y417516D02*
D03*
X589765Y472795D02*
D03*
X554332D02*
D03*
X518899Y366496D02*
D03*
X483466Y472795D02*
D03*
X518899D02*
D03*
X531076Y421613D02*
D03*
X554332Y437362D02*
D03*
X589765D02*
D03*
X556556Y398574D02*
D03*
X556463Y412602D02*
D03*
X518899Y437362D02*
D03*
X483466D02*
D03*
X589765Y366496D02*
D03*
X554332D02*
D03*
X576148Y412602D02*
D03*
X589765Y401929D02*
D03*
X518899D02*
D03*
X483466D02*
D03*
Y366496D02*
D03*
X531023Y406899D02*
D03*
X485007Y390752D02*
D03*
X551347Y424563D02*
D03*
X560559Y426172D02*
D03*
X549001Y429768D02*
D03*
X591306Y426185D02*
D03*
X546478Y425181D02*
D03*
X591306Y461618D02*
D03*
X543876Y429791D02*
D03*
X555873Y461618D02*
D03*
X541288Y425225D02*
D03*
X520439Y461618D02*
D03*
X538775Y429775D02*
D03*
X485007Y461618D02*
D03*
X536191Y424929D02*
D03*
X485007Y426185D02*
D03*
X548934Y401869D02*
D03*
X591306Y390752D02*
D03*
X546419Y406601D02*
D03*
X555873Y390752D02*
D03*
X543890Y402039D02*
D03*
X541302Y406637D02*
D03*
X555873Y355319D02*
D03*
X538680Y401934D02*
D03*
X520439Y355319D02*
D03*
X536180Y406794D02*
D03*
X485007Y355319D02*
D03*
X533593Y401759D02*
D03*
X520439Y390752D02*
D03*
X533665Y429863D02*
D03*
X520439Y426185D02*
D03*
X452976Y417497D02*
D03*
X447984Y472777D02*
D03*
X412550D02*
D03*
X377117Y366477D02*
D03*
X341684Y472777D02*
D03*
X377117D02*
D03*
X389294Y421595D02*
D03*
X412550Y437344D02*
D03*
X447984D02*
D03*
X414774Y398555D02*
D03*
X414681Y412584D02*
D03*
X341684Y437344D02*
D03*
X447984Y366477D02*
D03*
X412550D02*
D03*
X434367Y412584D02*
D03*
X447984Y401910D02*
D03*
X341684D02*
D03*
X389241Y406881D02*
D03*
X343225Y390734D02*
D03*
X409565Y424545D02*
D03*
X418777Y426154D02*
D03*
X407219Y429750D02*
D03*
X449524Y426167D02*
D03*
X404696Y425163D02*
D03*
X449524Y461600D02*
D03*
X402094Y429773D02*
D03*
X414091Y461600D02*
D03*
X399506Y425207D02*
D03*
X378658Y461600D02*
D03*
X396994Y429757D02*
D03*
X343225Y461600D02*
D03*
X394409Y424911D02*
D03*
X343225Y426167D02*
D03*
X407153Y401851D02*
D03*
X449524Y390734D02*
D03*
X404637Y406582D02*
D03*
X414091Y390734D02*
D03*
X402108Y402021D02*
D03*
X449524Y355301D02*
D03*
X399521Y406619D02*
D03*
X414091Y355301D02*
D03*
X396898Y401916D02*
D03*
X378658Y355301D02*
D03*
X394398Y406776D02*
D03*
X343225Y355301D02*
D03*
X391811Y401741D02*
D03*
X378658Y390734D02*
D03*
X391883Y429845D02*
D03*
X378658Y426167D02*
D03*
X311261Y417375D02*
D03*
X306268Y472654D02*
D03*
X270835D02*
D03*
X235402Y366354D02*
D03*
X199969Y472654D02*
D03*
X235402D02*
D03*
X247579Y421472D02*
D03*
X270835Y437220D02*
D03*
X306268D02*
D03*
X273059Y398432D02*
D03*
X272966Y412461D02*
D03*
X235402Y437220D02*
D03*
X199969D02*
D03*
X270835Y366354D02*
D03*
X292651Y412461D02*
D03*
X306268Y401787D02*
D03*
X235402D02*
D03*
X199969D02*
D03*
Y366354D02*
D03*
X247526Y406758D02*
D03*
X201510Y390611D02*
D03*
X267850Y424422D02*
D03*
X277062Y426031D02*
D03*
X265504Y429627D02*
D03*
X307809Y426044D02*
D03*
X262981Y425040D02*
D03*
X307809Y461477D02*
D03*
X260379Y429650D02*
D03*
X272376Y461477D02*
D03*
X257791Y425083D02*
D03*
X236943Y461477D02*
D03*
X255278Y429634D02*
D03*
X201510Y461477D02*
D03*
X252694Y424788D02*
D03*
X201510Y426044D02*
D03*
X265437Y401728D02*
D03*
X307809Y390611D02*
D03*
X262922Y406459D02*
D03*
X272376Y390611D02*
D03*
X260393Y401898D02*
D03*
X257805Y406496D02*
D03*
X272376Y355178D02*
D03*
X255183Y401793D02*
D03*
X236943Y355178D02*
D03*
X252683Y406653D02*
D03*
X201510Y355178D02*
D03*
X250096Y401618D02*
D03*
X250168Y429722D02*
D03*
X236943Y426044D02*
D03*
X169618Y417591D02*
D03*
X164625Y472870D02*
D03*
X129192D02*
D03*
X93759Y366571D02*
D03*
X58325Y472870D02*
D03*
X93759D02*
D03*
X105935Y421688D02*
D03*
X129192Y437437D02*
D03*
X164625D02*
D03*
X131415Y398649D02*
D03*
X131323Y412677D02*
D03*
X93759Y437437D02*
D03*
X58325D02*
D03*
X164625Y366571D02*
D03*
X129192D02*
D03*
X151008Y412677D02*
D03*
X164625Y402004D02*
D03*
X93759D02*
D03*
X58325D02*
D03*
Y366571D02*
D03*
X105882Y406974D02*
D03*
X59866Y390827D02*
D03*
X126207Y424638D02*
D03*
X135418Y426247D02*
D03*
X166165Y426260D02*
D03*
X121338Y425256D02*
D03*
X166165Y461693D02*
D03*
X130732D02*
D03*
X116147Y425300D02*
D03*
X95299Y461693D02*
D03*
X59866D02*
D03*
X111050Y425004D02*
D03*
X59866Y426260D02*
D03*
X123794Y401944D02*
D03*
X166165Y390827D02*
D03*
X121279Y406675D02*
D03*
X130732Y390827D02*
D03*
X118749Y402114D02*
D03*
X166165Y355394D02*
D03*
X116162Y406712D02*
D03*
X130732Y355394D02*
D03*
X113540Y402009D02*
D03*
X95299Y355394D02*
D03*
X111039Y406869D02*
D03*
X59866Y355394D02*
D03*
X108452Y401834D02*
D03*
X95299Y390827D02*
D03*
X108525Y429938D02*
D03*
X95299Y426260D02*
D03*
X594881Y559244D02*
D03*
X589888Y614524D02*
D03*
X554455D02*
D03*
X519022Y508224D02*
D03*
X483589Y614524D02*
D03*
X519022D02*
D03*
X531199Y563342D02*
D03*
X554455Y579091D02*
D03*
X589888D02*
D03*
X556679Y540302D02*
D03*
X556587Y554331D02*
D03*
X519022Y579091D02*
D03*
X589888Y508224D02*
D03*
X554455D02*
D03*
X589888Y543657D02*
D03*
X519022D02*
D03*
X483589D02*
D03*
Y508224D02*
D03*
X531146Y548628D02*
D03*
X485130Y532481D02*
D03*
X551470Y566292D02*
D03*
X560682Y567901D02*
D03*
X549124Y571497D02*
D03*
X591429Y567914D02*
D03*
X546601Y566910D02*
D03*
X591429Y603347D02*
D03*
X543999Y571520D02*
D03*
X555996Y603347D02*
D03*
X541411Y566954D02*
D03*
X520563Y603347D02*
D03*
X538899Y571504D02*
D03*
X536314Y566658D02*
D03*
X485130Y567914D02*
D03*
X549058Y543598D02*
D03*
X591429Y532481D02*
D03*
X546543Y548329D02*
D03*
X555996Y532481D02*
D03*
X544013Y543768D02*
D03*
X591429Y497048D02*
D03*
X541426Y548366D02*
D03*
X555996Y497048D02*
D03*
X538803Y543663D02*
D03*
X520563Y497048D02*
D03*
X536303Y548523D02*
D03*
X485130Y497048D02*
D03*
X533716Y543488D02*
D03*
X520563Y532481D02*
D03*
X533788Y571592D02*
D03*
X520563Y567914D02*
D03*
X453246Y559321D02*
D03*
X448253Y614600D02*
D03*
X412820D02*
D03*
X377387Y508301D02*
D03*
X341954Y614600D02*
D03*
X377387D02*
D03*
X389564Y563418D02*
D03*
X415044Y540379D02*
D03*
X414951Y554408D02*
D03*
X448253Y508301D02*
D03*
X412820D02*
D03*
X434636Y554408D02*
D03*
X448253Y543734D02*
D03*
X377387D02*
D03*
X341954D02*
D03*
Y508301D02*
D03*
X389511Y548704D02*
D03*
X343495Y532557D02*
D03*
X409835Y566368D02*
D03*
X419047Y567978D02*
D03*
X407489Y571573D02*
D03*
X449794Y567990D02*
D03*
X404966Y566986D02*
D03*
X449794Y603423D02*
D03*
X402364Y571596D02*
D03*
X414361Y603423D02*
D03*
X399776Y567030D02*
D03*
X378928Y603423D02*
D03*
X397264Y571580D02*
D03*
X343495Y603423D02*
D03*
X394679Y566734D02*
D03*
X343495Y567990D02*
D03*
X407422Y543674D02*
D03*
X449794Y532557D02*
D03*
X404907Y548406D02*
D03*
X414361Y532557D02*
D03*
X402378Y543844D02*
D03*
X449794Y497124D02*
D03*
X399791Y548442D02*
D03*
X414361Y497124D02*
D03*
X397168Y543739D02*
D03*
X378928Y497124D02*
D03*
X394668Y548599D02*
D03*
X343495Y497124D02*
D03*
X392081Y543564D02*
D03*
X378928Y532557D02*
D03*
X392153Y571668D02*
D03*
X378928Y567990D02*
D03*
X311439Y559314D02*
D03*
X306446Y614593D02*
D03*
X271013D02*
D03*
X235580Y508293D02*
D03*
X200147Y614593D02*
D03*
X235580D02*
D03*
X247757Y563411D02*
D03*
X271013Y579160D02*
D03*
X273237Y540371D02*
D03*
X273144Y554400D02*
D03*
X235580Y579160D02*
D03*
X200147D02*
D03*
X306446Y508293D02*
D03*
X271013D02*
D03*
X292829Y554400D02*
D03*
X306446Y543726D02*
D03*
X235580D02*
D03*
X200147D02*
D03*
Y508293D02*
D03*
X247704Y548697D02*
D03*
X201688Y532550D02*
D03*
X268028Y566361D02*
D03*
X277240Y567970D02*
D03*
X265682Y571566D02*
D03*
X307987Y567983D02*
D03*
X263159Y566979D02*
D03*
X307987Y603416D02*
D03*
X260557Y571589D02*
D03*
X272554Y603416D02*
D03*
X257969Y567023D02*
D03*
X237121Y603416D02*
D03*
X255457Y571573D02*
D03*
X201688Y603416D02*
D03*
X252872Y566727D02*
D03*
X201688Y567983D02*
D03*
X265616Y543667D02*
D03*
X307987Y532550D02*
D03*
X263100Y548398D02*
D03*
X272554Y532550D02*
D03*
X260571Y543837D02*
D03*
X307987Y497117D02*
D03*
X257984Y548435D02*
D03*
X272554Y497117D02*
D03*
X255361Y543732D02*
D03*
X237121Y497117D02*
D03*
X252861Y548592D02*
D03*
X201688Y497117D02*
D03*
X250274Y543557D02*
D03*
X237121Y532550D02*
D03*
X250346Y571661D02*
D03*
X237121Y567983D02*
D03*
X594886Y133983D02*
D03*
X589893Y189262D02*
D03*
X554460D02*
D03*
X519027Y82963D02*
D03*
X483594Y189262D02*
D03*
X519027D02*
D03*
X531203Y138081D02*
D03*
X589893Y153829D02*
D03*
X556684Y115041D02*
D03*
X556591Y129070D02*
D03*
X519027Y153829D02*
D03*
X483594D02*
D03*
X589893Y82963D02*
D03*
X554460D02*
D03*
X576276Y129070D02*
D03*
X589893Y118396D02*
D03*
X519027D02*
D03*
X483594D02*
D03*
Y82963D02*
D03*
X531150Y123366D02*
D03*
X485134Y107219D02*
D03*
X551475Y141030D02*
D03*
X560686Y142640D02*
D03*
X549129Y146236D02*
D03*
X591433Y142652D02*
D03*
X546606Y141648D02*
D03*
X591433Y178085D02*
D03*
X544004Y146258D02*
D03*
X556000Y178085D02*
D03*
X541415Y141692D02*
D03*
X520567Y178085D02*
D03*
X538903Y146242D02*
D03*
X485134Y178085D02*
D03*
X536319Y141396D02*
D03*
X485134Y142652D02*
D03*
X549062Y118337D02*
D03*
X591433Y107219D02*
D03*
X546547Y123068D02*
D03*
X556000Y107219D02*
D03*
X544018Y118506D02*
D03*
X591433Y71786D02*
D03*
X541430Y123104D02*
D03*
X556000Y71786D02*
D03*
X538808Y118401D02*
D03*
X520567Y71786D02*
D03*
X536308Y123262D02*
D03*
X485134Y71786D02*
D03*
X533720Y118227D02*
D03*
X520567Y107219D02*
D03*
X533793Y146330D02*
D03*
X520567Y142652D02*
D03*
X453101Y134043D02*
D03*
X448108Y189322D02*
D03*
X412675D02*
D03*
X377242Y83023D02*
D03*
X341809Y189322D02*
D03*
X377242D02*
D03*
X389418Y138141D02*
D03*
X412675Y153889D02*
D03*
X448108D02*
D03*
X414899Y115101D02*
D03*
X414806Y129130D02*
D03*
X377242Y153889D02*
D03*
X341809D02*
D03*
X448108Y83023D02*
D03*
X412675D02*
D03*
X434491Y129130D02*
D03*
X448108Y118456D02*
D03*
X377242D02*
D03*
X341809D02*
D03*
Y83023D02*
D03*
X389365Y123427D02*
D03*
X343349Y107279D02*
D03*
X409690Y141091D02*
D03*
X418901Y142700D02*
D03*
X407344Y146296D02*
D03*
X449649Y142712D02*
D03*
X404821Y141708D02*
D03*
X449649Y178146D02*
D03*
X402219Y146318D02*
D03*
X414215Y178146D02*
D03*
X399630Y141752D02*
D03*
X378782Y178146D02*
D03*
X397118Y146302D02*
D03*
X343349Y178146D02*
D03*
X394534Y141457D02*
D03*
X343349Y142712D02*
D03*
X407277Y118397D02*
D03*
X449649Y107279D02*
D03*
X404762Y123128D02*
D03*
X414215Y107279D02*
D03*
X402233Y118566D02*
D03*
X449649Y71846D02*
D03*
X399645Y123164D02*
D03*
X414215Y71846D02*
D03*
X397023Y118461D02*
D03*
X378782Y71846D02*
D03*
X394523Y123322D02*
D03*
X343349Y71846D02*
D03*
X391935Y118287D02*
D03*
X378782Y107279D02*
D03*
X392008Y146391D02*
D03*
X378782Y142712D02*
D03*
X311372Y134011D02*
D03*
X306380Y189290D02*
D03*
X270946D02*
D03*
X235513Y82991D02*
D03*
X200080Y189290D02*
D03*
X235513D02*
D03*
X247690Y138108D02*
D03*
X270946Y153857D02*
D03*
X306380D02*
D03*
X273170Y115069D02*
D03*
X273078Y129097D02*
D03*
X235513Y153857D02*
D03*
X200080D02*
D03*
X306380Y82991D02*
D03*
X270946D02*
D03*
X292763Y129097D02*
D03*
X306380Y118424D02*
D03*
X235513D02*
D03*
X200080D02*
D03*
Y82991D02*
D03*
X247637Y123394D02*
D03*
X201621Y107247D02*
D03*
X267961Y141058D02*
D03*
X277173Y142667D02*
D03*
X265615Y146263D02*
D03*
X307920Y142680D02*
D03*
X263092Y141676D02*
D03*
X307920Y178113D02*
D03*
X260490Y146286D02*
D03*
X272487Y178113D02*
D03*
X257902Y141720D02*
D03*
X237054Y178113D02*
D03*
X255390Y146270D02*
D03*
X201621Y178113D02*
D03*
X252805Y141424D02*
D03*
X201621Y142680D02*
D03*
X265549Y118364D02*
D03*
X307920Y107247D02*
D03*
X263034Y123095D02*
D03*
X272487Y107247D02*
D03*
X260504Y118534D02*
D03*
X307920Y71814D02*
D03*
X257917Y123132D02*
D03*
X272487Y71814D02*
D03*
X255294Y118429D02*
D03*
X237054Y71814D02*
D03*
X252794Y123289D02*
D03*
X201621Y71814D02*
D03*
X250207Y118254D02*
D03*
X237054Y107247D02*
D03*
X250279Y146358D02*
D03*
X237054Y142680D02*
D03*
X169614Y134130D02*
D03*
X164621Y189409D02*
D03*
X129188D02*
D03*
X93755Y83110D02*
D03*
X58321Y189409D02*
D03*
X93755D02*
D03*
X105931Y138228D02*
D03*
X129188Y153976D02*
D03*
X164621D02*
D03*
X131412Y115188D02*
D03*
X131319Y129217D02*
D03*
X93755Y153976D02*
D03*
X58321D02*
D03*
X164621Y83110D02*
D03*
X129188D02*
D03*
X151004Y129217D02*
D03*
X164621Y118543D02*
D03*
X93755D02*
D03*
X58321D02*
D03*
Y83110D02*
D03*
X105878Y123514D02*
D03*
X59862Y107366D02*
D03*
X126203Y141177D02*
D03*
X135414Y142787D02*
D03*
X123857Y146383D02*
D03*
X166161Y142799D02*
D03*
X121334Y141795D02*
D03*
X166161Y178233D02*
D03*
X118732Y146405D02*
D03*
X130728Y178233D02*
D03*
X116143Y141839D02*
D03*
X95295Y178233D02*
D03*
X113631Y146390D02*
D03*
X59862Y178233D02*
D03*
X111047Y141544D02*
D03*
X59862Y142799D02*
D03*
X123790Y118484D02*
D03*
X166161Y107366D02*
D03*
X121275Y123215D02*
D03*
X130728Y107366D02*
D03*
X118746Y118653D02*
D03*
X166161Y71933D02*
D03*
X116158Y123251D02*
D03*
X130728Y71933D02*
D03*
X113536Y118549D02*
D03*
X95295Y71933D02*
D03*
X111036Y123409D02*
D03*
X59862Y71933D02*
D03*
X108448Y118374D02*
D03*
X95295Y107366D02*
D03*
X108521Y146478D02*
D03*
X95295Y142799D02*
D03*
X594736Y275782D02*
D03*
X589743Y331061D02*
D03*
X554310D02*
D03*
X518877Y224762D02*
D03*
X483444Y331061D02*
D03*
X518877D02*
D03*
X531053Y279879D02*
D03*
X554310Y295628D02*
D03*
X589743D02*
D03*
X556534Y256839D02*
D03*
X556441Y270868D02*
D03*
X518877Y295628D02*
D03*
X483444D02*
D03*
X589743Y224762D02*
D03*
X554310D02*
D03*
X589743Y260195D02*
D03*
X518877D02*
D03*
X483444D02*
D03*
Y224762D02*
D03*
X531000Y265165D02*
D03*
X484984Y249018D02*
D03*
X551325Y282829D02*
D03*
X560536Y284438D02*
D03*
X548979Y288034D02*
D03*
X591284Y284451D02*
D03*
X546456Y283447D02*
D03*
X543854Y288057D02*
D03*
X541266Y283491D02*
D03*
X520417Y319884D02*
D03*
X538753Y288041D02*
D03*
X484984Y319884D02*
D03*
X536169Y283195D02*
D03*
X484984Y284451D02*
D03*
X548912Y260135D02*
D03*
X591284Y249018D02*
D03*
X546397Y264866D02*
D03*
X555851Y249018D02*
D03*
X543868Y260305D02*
D03*
X591284Y213585D02*
D03*
X541280Y264903D02*
D03*
X555851Y213585D02*
D03*
X538658Y260200D02*
D03*
X520417Y213585D02*
D03*
X484984D02*
D03*
X533570Y260025D02*
D03*
X520417Y249018D02*
D03*
X533643Y288129D02*
D03*
X520417Y284451D02*
D03*
X453079Y275806D02*
D03*
X448087Y331085D02*
D03*
X412653D02*
D03*
X377220Y224785D02*
D03*
X341787Y331085D02*
D03*
X377220D02*
D03*
X389397Y279903D02*
D03*
X412653Y295652D02*
D03*
X448087D02*
D03*
X414877Y256863D02*
D03*
X414784Y270892D02*
D03*
X377220Y295652D02*
D03*
X341787D02*
D03*
X448087Y224785D02*
D03*
X412653D02*
D03*
X434470Y270892D02*
D03*
X448087Y260219D02*
D03*
X377220D02*
D03*
X341787D02*
D03*
Y224785D02*
D03*
X389344Y265189D02*
D03*
X343328Y249042D02*
D03*
X409668Y282853D02*
D03*
X418880Y284462D02*
D03*
X407322Y288058D02*
D03*
X449627Y284475D02*
D03*
X404799Y283471D02*
D03*
X402197Y288081D02*
D03*
X414194Y319908D02*
D03*
X399609Y283515D02*
D03*
X378761Y319908D02*
D03*
X397097Y288065D02*
D03*
X343328Y319908D02*
D03*
X394512Y283219D02*
D03*
X343328Y284475D02*
D03*
X407256Y260159D02*
D03*
X449627Y249042D02*
D03*
X404740Y264890D02*
D03*
X414194Y249042D02*
D03*
X402211Y260329D02*
D03*
X449627Y213609D02*
D03*
X399624Y264927D02*
D03*
X414194Y213609D02*
D03*
X397001Y260224D02*
D03*
X378761Y213609D02*
D03*
X394501Y265084D02*
D03*
X343328Y213609D02*
D03*
X391914Y260049D02*
D03*
X378761Y249042D02*
D03*
X391986Y288153D02*
D03*
X378761Y284475D02*
D03*
X311224Y275689D02*
D03*
X306231Y330968D02*
D03*
X270798D02*
D03*
X235365Y224669D02*
D03*
X199932Y330968D02*
D03*
X235365D02*
D03*
X247542Y279787D02*
D03*
X270798Y295535D02*
D03*
X306231D02*
D03*
X273022Y256747D02*
D03*
X272929Y270776D02*
D03*
X235365Y295535D02*
D03*
X199932D02*
D03*
X306231Y224669D02*
D03*
X270798D02*
D03*
X292614Y270776D02*
D03*
X306231Y260102D02*
D03*
X235365D02*
D03*
X199932D02*
D03*
Y224669D02*
D03*
X247488Y265073D02*
D03*
X201472Y248925D02*
D03*
X267813Y282736D02*
D03*
X277025Y284346D02*
D03*
X265467Y287942D02*
D03*
X307772Y284358D02*
D03*
X262944Y283354D02*
D03*
X307772Y319792D02*
D03*
X260342Y287964D02*
D03*
X272339Y319792D02*
D03*
X257754Y283398D02*
D03*
X236906Y319792D02*
D03*
X255241Y287948D02*
D03*
X201472Y319792D02*
D03*
X252657Y283103D02*
D03*
X201472Y284358D02*
D03*
X265400Y260043D02*
D03*
X307772Y248925D02*
D03*
X262885Y264774D02*
D03*
X272339Y248925D02*
D03*
X260356Y260212D02*
D03*
X307772Y213492D02*
D03*
X257768Y264810D02*
D03*
X272339Y213492D02*
D03*
X255146Y260107D02*
D03*
X236906Y213492D02*
D03*
X252646Y264968D02*
D03*
X201472Y213492D02*
D03*
X250059Y259933D02*
D03*
X236906Y248925D02*
D03*
X250131Y288037D02*
D03*
X236906Y284358D02*
D03*
X123770Y543598D02*
D03*
X131392Y540302D02*
D03*
X130709Y497047D02*
D03*
X121255Y548329D02*
D03*
X118726Y543767D02*
D03*
X116139Y548365D02*
D03*
X113516Y543662D02*
D03*
X111016Y548523D02*
D03*
X108429Y543488D02*
D03*
X105859Y548628D02*
D03*
X135395Y567901D02*
D03*
X169594Y559244D02*
D03*
X164601Y508224D02*
D03*
X166142Y497047D02*
D03*
X129168Y508224D02*
D03*
X93735D02*
D03*
X95276Y497047D02*
D03*
X58302Y508224D02*
D03*
X59842Y497047D02*
D03*
X93735Y543657D02*
D03*
X166142Y532480D02*
D03*
X164601Y543657D02*
D03*
X130709Y532480D02*
D03*
X95276D02*
D03*
X59842D02*
D03*
X58302Y543657D02*
D03*
X59842Y567913D02*
D03*
X58302Y579090D02*
D03*
X95276Y567913D02*
D03*
X93735Y579090D02*
D03*
X129168D02*
D03*
X166142Y567913D02*
D03*
X164601Y579090D02*
D03*
X166142Y603346D02*
D03*
X164601Y614523D02*
D03*
X130709Y603346D02*
D03*
X129168Y614523D02*
D03*
X95276Y603346D02*
D03*
X93735Y614523D02*
D03*
X58302D02*
D03*
X59842Y603346D02*
D03*
X676304Y511294D02*
D03*
X690290Y209494D02*
D03*
X680610Y219488D02*
D03*
X691034Y500818D02*
D03*
X637789Y599305D02*
D03*
X654134Y607382D02*
D03*
X647244Y607283D02*
D03*
X621063Y559547D02*
D03*
X620965Y566142D02*
D03*
X654626Y558957D02*
D03*
X654823Y565650D02*
D03*
X688189Y558464D02*
D03*
Y565354D02*
D03*
X680831Y510507D02*
D03*
X678871Y486632D02*
D03*
X678764Y474089D02*
D03*
Y523302D02*
D03*
X633095Y508440D02*
D03*
X630536Y517396D02*
D03*
X630578Y464209D02*
D03*
X686638Y474089D02*
D03*
X685203Y510271D02*
D03*
X686638Y523302D02*
D03*
X686646Y489846D02*
D03*
X686425Y198828D02*
D03*
X678650Y195614D02*
D03*
X682329Y195771D02*
D03*
X684982Y219252D02*
D03*
X630315Y226378D02*
D03*
X630357Y173190D02*
D03*
X678543Y183071D02*
D03*
X686417D02*
D03*
X678543Y232283D02*
D03*
X686417D02*
D03*
X126183Y566291D02*
D03*
X113611Y571503D02*
D03*
X123837Y571497D02*
D03*
X121314Y566909D02*
D03*
X118712Y571519D02*
D03*
X116124Y566953D02*
D03*
X111027Y566658D02*
D03*
X108501Y571592D02*
D03*
X105912Y563342D02*
D03*
X150984Y554331D02*
D03*
X131299D02*
D03*
M02*
