G04*
G04 #@! TF.GenerationSoftware,Altium Limited,Altium Designer,25.0.2 (28)*
G04*
G04 Layer_Color=32768*
%FSLAX25Y25*%
%MOIN*%
G70*
G04*
G04 #@! TF.SameCoordinates,7C83500D-BFB9-469C-A41D-0C693C3E1856*
G04*
G04*
G04 #@! TF.FilePolarity,Positive*
G04*
G01*
G75*
%ADD101C,0.00591*%
D101*
X642715Y108269D02*
Y114172D01*
X638779D01*
X636812D02*
X634844D01*
X635828D01*
Y108269D01*
X636812Y109253D01*
X657483Y474700D02*
X651580D01*
X653548Y476668D01*
X651580Y478636D01*
X657483D01*
Y480604D02*
X651580D01*
Y483556D01*
X652564Y484540D01*
X654532D01*
X655515Y483556D01*
Y480604D01*
X657483Y486507D02*
Y488475D01*
Y487491D01*
X651580D01*
X652564Y486507D01*
X658467Y491427D02*
Y495363D01*
X657483Y497331D02*
X653548D01*
X651580Y499298D01*
X653548Y501266D01*
X657483D01*
X654532D01*
Y497331D01*
X651580Y503234D02*
X657483D01*
Y506186D01*
X656499Y507170D01*
X652564D01*
X651580Y506186D01*
Y503234D01*
X652564Y513074D02*
X651580Y512090D01*
Y510122D01*
X652564Y509138D01*
X656499D01*
X657483Y510122D01*
Y512090D01*
X656499Y513074D01*
X657483Y515041D02*
Y517009D01*
Y516025D01*
X651580D01*
X652564Y515041D01*
X656596Y576476D02*
X657580Y577460D01*
Y579428D01*
X656596Y580412D01*
X652660D01*
X651676Y579428D01*
Y577460D01*
X652660Y576476D01*
X657580Y570572D02*
Y574508D01*
X654628D01*
X655612Y572540D01*
Y571556D01*
X654628Y570572D01*
X652660D01*
X651676Y571556D01*
Y573524D01*
X652660Y574508D01*
X651676Y568604D02*
Y566637D01*
Y567621D01*
X657580D01*
X656596Y568604D01*
X666140Y605316D02*
X667124Y604332D01*
X669092D01*
X670076Y605316D01*
Y609251D01*
X669092Y610235D01*
X667124D01*
X666140Y609251D01*
X661221Y610235D02*
Y604332D01*
X664173Y607283D01*
X660237D01*
X658269Y609251D02*
X657285Y610235D01*
X655317D01*
X654333Y609251D01*
Y605316D01*
X655317Y604332D01*
X657285D01*
X658269Y605316D01*
Y606299D01*
X657285Y607283D01*
X654333D01*
X623131Y577460D02*
X624115Y578444D01*
Y580412D01*
X623131Y581395D01*
X619195D01*
X618211Y580412D01*
Y578444D01*
X619195Y577460D01*
X624115Y571556D02*
Y575492D01*
X621163D01*
X622147Y573524D01*
Y572540D01*
X621163Y571556D01*
X619195D01*
X618211Y572540D01*
Y574508D01*
X619195Y575492D01*
X618211Y565653D02*
Y569588D01*
X622147Y565653D01*
X623131D01*
X624115Y566637D01*
Y568604D01*
X623131Y569588D01*
X658661Y80709D02*
X659644Y79725D01*
X661612D01*
X662596Y80709D01*
Y84645D01*
X661612Y85629D01*
X659644D01*
X658661Y84645D01*
X653741Y85629D02*
Y79725D01*
X656693Y82677D01*
X652757D01*
X650789Y85629D02*
X648821D01*
X649805D01*
Y79725D01*
X650789Y80709D01*
X657184Y182684D02*
X651281D01*
X653249Y184652D01*
X651281Y186620D01*
X657184D01*
Y188588D02*
X651281D01*
Y191540D01*
X652265Y192524D01*
X654232D01*
X655216Y191540D01*
Y188588D01*
X657184Y194492D02*
Y196459D01*
Y195475D01*
X651281D01*
X652265Y194492D01*
X658168Y199411D02*
Y203347D01*
X657184Y205315D02*
X653249D01*
X651281Y207283D01*
X653249Y209251D01*
X657184D01*
X654232D01*
Y205315D01*
X651281Y211218D02*
X657184D01*
Y214170D01*
X656200Y215154D01*
X652265D01*
X651281Y214170D01*
Y211218D01*
X652265Y221058D02*
X651281Y220074D01*
Y218106D01*
X652265Y217122D01*
X656200D01*
X657184Y218106D01*
Y220074D01*
X656200Y221058D01*
X657184Y226961D02*
Y223026D01*
X653249Y226961D01*
X652265D01*
X651281Y225977D01*
Y224009D01*
X652265Y223026D01*
X690060Y577460D02*
X691044Y578444D01*
Y580412D01*
X690060Y581395D01*
X686124D01*
X685140Y580412D01*
Y578444D01*
X686124Y577460D01*
X691044Y571556D02*
Y575492D01*
X688092D01*
X689076Y573524D01*
Y572540D01*
X688092Y571556D01*
X686124D01*
X685140Y572540D01*
Y574508D01*
X686124Y575492D01*
X690060Y569588D02*
X691044Y568604D01*
Y566637D01*
X690060Y565653D01*
X686124D01*
X685140Y566637D01*
Y568604D01*
X686124Y569588D01*
X690060D01*
M02*
