G04*
G04 #@! TF.GenerationSoftware,Altium Limited,Altium Designer,25.0.2 (28)*
G04*
G04 Layer_Color=8388736*
%FSLAX25Y25*%
%MOIN*%
G70*
G04*
G04 #@! TF.SameCoordinates,7C83500D-BFB9-469C-A41D-0C693C3E1856*
G04*
G04*
G04 #@! TF.FilePolarity,Positive*
G04*
G01*
G75*
%ADD15C,0.00787*%
D15*
X570370Y126117D02*
Y137928D01*
X582181D01*
Y126117D02*
Y137928D01*
X570370Y126117D02*
X582181D01*
X428585Y126177D02*
Y137988D01*
X440396D01*
Y126177D02*
Y137988D01*
X428585Y126177D02*
X440396D01*
X286857Y126145D02*
Y137956D01*
X298668D01*
Y126145D02*
Y137956D01*
X286857Y126145D02*
X298668D01*
X145098Y126264D02*
Y138075D01*
X156909D01*
Y126264D02*
Y138075D01*
X145098Y126264D02*
X156909D01*
X570221Y267916D02*
Y279727D01*
X582032D01*
Y267916D02*
Y279727D01*
X570221Y267916D02*
X582032D01*
X428564Y267939D02*
Y279750D01*
X440375D01*
Y267939D02*
Y279750D01*
X428564Y267939D02*
X440375D01*
X286709Y267823D02*
Y279634D01*
X298520D01*
Y267823D02*
Y279634D01*
X286709Y267823D02*
X298520D01*
X144973Y267993D02*
Y279804D01*
X156784D01*
Y267993D02*
Y279804D01*
X144973Y267993D02*
X156784D01*
X570243Y409650D02*
Y421461D01*
X582054D01*
Y409650D02*
Y421461D01*
X570243Y409650D02*
X582054D01*
X428461Y409631D02*
Y421442D01*
X440272D01*
Y409631D02*
Y421442D01*
X428461Y409631D02*
X440272D01*
X286746Y409508D02*
Y421319D01*
X298557D01*
Y409508D02*
Y421319D01*
X286746Y409508D02*
X298557D01*
X145102Y409725D02*
Y421536D01*
X156913D01*
Y409725D02*
Y421536D01*
X145102Y409725D02*
X156913D01*
X570366Y551378D02*
Y563189D01*
X582177D01*
Y551378D02*
Y563189D01*
X570366Y551378D02*
X582177D01*
X428731Y551455D02*
Y563266D01*
X440542D01*
Y551455D02*
Y563266D01*
X428731Y551455D02*
X440542D01*
X286924Y551447D02*
Y563258D01*
X298735D01*
Y551447D02*
Y563258D01*
X286924Y551447D02*
X298735D01*
X145079Y563189D02*
X145079Y551378D01*
X145079Y563189D02*
X156890D01*
X156890Y551378D02*
X156890Y563189D01*
X145079Y551378D02*
X156890D01*
M02*
