G04*
G04 #@! TF.GenerationSoftware,Altium Limited,Altium Designer,25.0.2 (28)*
G04*
G04 Layer_Color=8388736*
%FSLAX25Y25*%
%MOIN*%
G70*
G04*
G04 #@! TF.SameCoordinates,7C83500D-BFB9-469C-A41D-0C693C3E1856*
G04*
G04*
G04 #@! TF.FilePolarity,Positive*
G04*
G01*
G75*
%ADD12C,0.00394*%
%ADD15C,0.00787*%
%ADD100C,0.00158*%
D12*
X689472Y446642D02*
G03*
X696362Y453532I-0J6890D01*
G01*
Y538178D02*
G03*
X689472Y545067I-6890J0D01*
G01*
X620575D02*
G03*
X613685Y538178I0J-6890D01*
G01*
Y453532D02*
G03*
X620575Y446642I6890J0D01*
G01*
X689173Y155610D02*
G03*
X696063Y162500I-0J6890D01*
G01*
Y247146D02*
G03*
X689173Y254035I-6890J0D01*
G01*
X620276D02*
G03*
X613386Y247146I0J-6890D01*
G01*
Y162500D02*
G03*
X620276Y155610I6890J0D01*
G01*
X620575Y545067D02*
X689472D01*
X696362Y453532D02*
Y538178D01*
X620575Y446642D02*
X689472D01*
X613685Y453532D02*
Y538178D01*
X641636Y566635D02*
Y586517D01*
Y566635D02*
X647738Y560533D01*
X661517Y560533D02*
X667620Y566635D01*
X647738Y560533D02*
X661517D01*
X667620Y566635D02*
X667620Y586517D01*
X641636Y586517D02*
X667620Y586517D01*
X655316Y620276D02*
X675198Y620276D01*
X649213Y614173D02*
X655316Y620276D01*
X649213Y600394D02*
X655316Y594291D01*
X649213Y600394D02*
X649213Y614173D01*
X655316Y594291D02*
X675198Y594291D01*
X675198Y620276D01*
X608171Y586517D02*
X608171Y566635D01*
X614273Y560533D01*
X628053D02*
X634155Y566635D01*
X614273Y560533D02*
X628053D01*
X634155Y586517D02*
X634155Y566635D01*
X608171Y586517D02*
X634155Y586517D01*
X648819Y95669D02*
X668702Y95669D01*
X642717Y89567D02*
X648819Y95669D01*
X642717Y75787D02*
X648819Y69685D01*
X642717Y75787D02*
Y89567D01*
X648819Y69685D02*
X668701D01*
X668702Y95669D01*
X620276Y254035D02*
X689173D01*
X696063Y162500D02*
Y247146D01*
X620276Y155610D02*
X689173D01*
X613386Y162500D02*
Y247146D01*
X675100Y586517D02*
X701084Y586517D01*
Y566635D02*
Y586517D01*
X681202Y560533D02*
X694982Y560533D01*
X701084Y566635D01*
X675100Y566635D02*
X681202Y560533D01*
X675100Y586517D02*
X675100Y566635D01*
D15*
X620693Y513656D02*
X640379D01*
Y530979D01*
X620693D02*
X640379D01*
X620693Y513656D02*
Y530979D01*
Y461491D02*
X640379D01*
Y478814D01*
X620693D02*
X640379D01*
X620693Y461491D02*
Y478814D01*
X620472Y170473D02*
X640158D01*
Y187795D01*
X620472D02*
X640158D01*
X620472Y170473D02*
Y187795D01*
Y222638D02*
X640158D01*
Y239961D01*
X620472D02*
X640158D01*
X620472Y222638D02*
Y239961D01*
D100*
X700621Y476130D02*
X701671D01*
X701071D02*
X700846Y476205D01*
X700696Y476355D01*
X700621Y476505D01*
Y476730D01*
X701071Y476873D02*
Y477772D01*
X700921D01*
X700771Y477697D01*
X700696Y477622D01*
X700621Y477472D01*
Y477247D01*
X700696Y477098D01*
X700846Y476948D01*
X701071Y476873D01*
X701221D01*
X701446Y476948D01*
X701596Y477098D01*
X701671Y477247D01*
Y477472D01*
X701596Y477622D01*
X701446Y477772D01*
X700846Y479009D02*
X700696Y478859D01*
X700621Y478710D01*
Y478484D01*
X700696Y478335D01*
X700846Y478185D01*
X701071Y478110D01*
X701221D01*
X701446Y478185D01*
X701596Y478335D01*
X701671Y478484D01*
Y478710D01*
X701596Y478859D01*
X701446Y479009D01*
X700621Y479722D02*
X700696Y479572D01*
X700846Y479422D01*
X701071Y479347D01*
X701221D01*
X701446Y479422D01*
X701596Y479572D01*
X701671Y479722D01*
Y479947D01*
X701596Y480096D01*
X701446Y480246D01*
X701221Y480321D01*
X701071D01*
X700846Y480246D01*
X700696Y480096D01*
X700621Y479947D01*
Y479722D01*
Y480666D02*
X701671D01*
X700921D02*
X700696Y480891D01*
X700621Y481041D01*
Y481266D01*
X700696Y481416D01*
X700921Y481491D01*
X701671D01*
X700921D02*
X700696Y481716D01*
X700621Y481866D01*
Y482091D01*
X700696Y482241D01*
X700921Y482316D01*
X701671D01*
X700621Y482811D02*
X701671D01*
X700921D02*
X700696Y483036D01*
X700621Y483185D01*
Y483410D01*
X700696Y483560D01*
X700921Y483635D01*
X701671D01*
X700921D02*
X700696Y483860D01*
X700621Y484010D01*
Y484235D01*
X700696Y484385D01*
X700921Y484460D01*
X701671D01*
X701071Y484955D02*
Y485854D01*
X700921D01*
X700771Y485780D01*
X700696Y485705D01*
X700621Y485555D01*
Y485330D01*
X700696Y485180D01*
X700846Y485030D01*
X701071Y484955D01*
X701221D01*
X701446Y485030D01*
X701596Y485180D01*
X701671Y485330D01*
Y485555D01*
X701596Y485705D01*
X701446Y485854D01*
X700621Y486192D02*
X701671D01*
X700921D02*
X700696Y486417D01*
X700621Y486567D01*
Y486792D01*
X700696Y486942D01*
X700921Y487017D01*
X701671D01*
X700097Y488329D02*
X701671D01*
X700846D02*
X700696Y488179D01*
X700621Y488029D01*
Y487804D01*
X700696Y487654D01*
X700846Y487504D01*
X701071Y487429D01*
X701221D01*
X701446Y487504D01*
X701596Y487654D01*
X701671Y487804D01*
Y488029D01*
X701596Y488179D01*
X701446Y488329D01*
X701071Y488749D02*
Y489648D01*
X700921D01*
X700771Y489573D01*
X700696Y489498D01*
X700621Y489348D01*
Y489123D01*
X700696Y488974D01*
X700846Y488824D01*
X701071Y488749D01*
X701221D01*
X701446Y488824D01*
X701596Y488974D01*
X701671Y489123D01*
Y489348D01*
X701596Y489498D01*
X701446Y489648D01*
X700097Y490885D02*
X701671D01*
X700846D02*
X700696Y490735D01*
X700621Y490585D01*
Y490360D01*
X700696Y490210D01*
X700846Y490061D01*
X701071Y489986D01*
X701221D01*
X701446Y490061D01*
X701596Y490210D01*
X701671Y490360D01*
Y490585D01*
X701596Y490735D01*
X701446Y490885D01*
X700097Y492767D02*
X701371D01*
X701596Y492842D01*
X701671Y492992D01*
Y493142D01*
X700621Y492542D02*
Y493067D01*
X700097Y493517D02*
X700172Y493592D01*
X700097Y493667D01*
X700022Y493592D01*
X700097Y493517D01*
X700621Y493592D02*
X701671D01*
X700621Y493944D02*
X701671D01*
X700921D02*
X700696Y494169D01*
X700621Y494319D01*
Y494544D01*
X700696Y494694D01*
X700921Y494769D01*
X701671D01*
X700621Y496418D02*
X702196D01*
X700846D02*
X700696Y496568D01*
X700621Y496718D01*
Y496943D01*
X700696Y497093D01*
X700846Y497243D01*
X701071Y497318D01*
X701221D01*
X701446Y497243D01*
X701596Y497093D01*
X701671Y496943D01*
Y496718D01*
X701596Y496568D01*
X701446Y496418D01*
X700621Y498555D02*
X701671D01*
X700846D02*
X700696Y498405D01*
X700621Y498255D01*
Y498030D01*
X700696Y497880D01*
X700846Y497730D01*
X701071Y497655D01*
X701221D01*
X701446Y497730D01*
X701596Y497880D01*
X701671Y498030D01*
Y498255D01*
X701596Y498405D01*
X701446Y498555D01*
X700846Y499800D02*
X700696Y499725D01*
X700621Y499500D01*
Y499275D01*
X700696Y499050D01*
X700846Y498975D01*
X700996Y499050D01*
X701071Y499200D01*
X701146Y499575D01*
X701221Y499725D01*
X701371Y499800D01*
X701446D01*
X701596Y499725D01*
X701671Y499500D01*
Y499275D01*
X701596Y499050D01*
X701446Y498975D01*
X700097Y500355D02*
X701371D01*
X701596Y500430D01*
X701671Y500580D01*
Y500730D01*
X700621Y500130D02*
Y500655D01*
X701071Y500954D02*
Y501854D01*
X700921D01*
X700771Y501779D01*
X700696Y501704D01*
X700621Y501554D01*
Y501329D01*
X700696Y501179D01*
X700846Y501029D01*
X701071Y500954D01*
X701221D01*
X701446Y501029D01*
X701596Y501179D01*
X701671Y501329D01*
Y501554D01*
X701596Y501704D01*
X701446Y501854D01*
X700097Y503653D02*
X701371D01*
X701596Y503728D01*
X701671Y503878D01*
Y504028D01*
X700621Y503429D02*
Y503953D01*
X700097Y504253D02*
X701671D01*
X700921D02*
X700696Y504478D01*
X700621Y504628D01*
Y504853D01*
X700696Y505003D01*
X700921Y505078D01*
X701671D01*
X700097Y505640D02*
X700172Y505715D01*
X700097Y505790D01*
X700022Y505715D01*
X700097Y505640D01*
X700621Y505715D02*
X701671D01*
X700846Y506967D02*
X700696Y506817D01*
X700621Y506668D01*
Y506442D01*
X700696Y506293D01*
X700846Y506143D01*
X701071Y506068D01*
X701221D01*
X701446Y506143D01*
X701596Y506293D01*
X701671Y506442D01*
Y506668D01*
X701596Y506817D01*
X701446Y506967D01*
X700097Y507305D02*
X701671D01*
X700621Y508054D02*
X701371Y507305D01*
X701071Y507605D02*
X701671Y508130D01*
X700621Y508377D02*
X701671D01*
X700921D02*
X700696Y508602D01*
X700621Y508752D01*
Y508977D01*
X700696Y509127D01*
X700921Y509202D01*
X701671D01*
X701071Y509614D02*
Y510514D01*
X700921D01*
X700771Y510439D01*
X700696Y510364D01*
X700621Y510214D01*
Y509989D01*
X700696Y509839D01*
X700846Y509689D01*
X701071Y509614D01*
X701221D01*
X701446Y509689D01*
X701596Y509839D01*
X701671Y509989D01*
Y510214D01*
X701596Y510364D01*
X701446Y510514D01*
X700846Y511676D02*
X700696Y511601D01*
X700621Y511376D01*
Y511151D01*
X700696Y510926D01*
X700846Y510851D01*
X700996Y510926D01*
X701071Y511076D01*
X701146Y511451D01*
X701221Y511601D01*
X701371Y511676D01*
X701446D01*
X701596Y511601D01*
X701671Y511376D01*
Y511151D01*
X701596Y510926D01*
X701446Y510851D01*
X700846Y512830D02*
X700696Y512755D01*
X700621Y512531D01*
Y512305D01*
X700696Y512081D01*
X700846Y512006D01*
X700996Y512081D01*
X701071Y512231D01*
X701146Y512605D01*
X701221Y512755D01*
X701371Y512830D01*
X701446D01*
X701596Y512755D01*
X701671Y512531D01*
Y512305D01*
X701596Y512081D01*
X701446Y512006D01*
X700771Y513160D02*
Y514510D01*
X701221Y513160D02*
Y514510D01*
X700097Y515424D02*
X700172Y515200D01*
X700396Y515050D01*
X700771Y514975D01*
X700996D01*
X701371Y515050D01*
X701596Y515200D01*
X701671Y515424D01*
Y515574D01*
X701596Y515799D01*
X701371Y515949D01*
X700996Y516024D01*
X700771D01*
X700396Y515949D01*
X700172Y515799D01*
X700097Y515574D01*
Y515424D01*
X701521Y516452D02*
X701596Y516377D01*
X701671Y516452D01*
X701596Y516527D01*
X701521Y516452D01*
X700097Y517771D02*
Y517021D01*
X700771Y516947D01*
X700696Y517021D01*
X700621Y517246D01*
Y517471D01*
X700696Y517696D01*
X700846Y517846D01*
X701071Y517921D01*
X701221D01*
X701446Y517846D01*
X701596Y517696D01*
X701671Y517471D01*
Y517246D01*
X701596Y517021D01*
X701521Y516947D01*
X701371Y516872D01*
X700621Y518273D02*
X701671D01*
X700921D02*
X700696Y518498D01*
X700621Y518648D01*
Y518873D01*
X700696Y519023D01*
X700921Y519098D01*
X701671D01*
X700921D02*
X700696Y519323D01*
X700621Y519473D01*
Y519698D01*
X700696Y519848D01*
X700921Y519923D01*
X701671D01*
X700621Y520418D02*
X701671D01*
X700921D02*
X700696Y520643D01*
X700621Y520793D01*
Y521018D01*
X700696Y521168D01*
X700921Y521243D01*
X701671D01*
X700921D02*
X700696Y521467D01*
X700621Y521617D01*
Y521842D01*
X700696Y521992D01*
X700921Y522067D01*
X701671D01*
X703713Y477030D02*
X703563Y476880D01*
X703488Y476730D01*
Y476505D01*
X703563Y476355D01*
X703713Y476205D01*
X703938Y476130D01*
X704088D01*
X704313Y476205D01*
X704463Y476355D01*
X704538Y476505D01*
Y476730D01*
X704463Y476880D01*
X704313Y477030D01*
X703488Y477367D02*
X704238D01*
X704463Y477442D01*
X704538Y477592D01*
Y477817D01*
X704463Y477967D01*
X704238Y478192D01*
X703488D02*
X704538D01*
X703713Y479429D02*
X703563Y479354D01*
X703488Y479129D01*
Y478904D01*
X703563Y478680D01*
X703713Y478605D01*
X703863Y478680D01*
X703938Y478829D01*
X704013Y479204D01*
X704088Y479354D01*
X704238Y479429D01*
X704313D01*
X704463Y479354D01*
X704538Y479129D01*
Y478904D01*
X704463Y478680D01*
X704313Y478605D01*
X702964Y479984D02*
X704238D01*
X704463Y480059D01*
X704538Y480209D01*
Y480359D01*
X703488Y479759D02*
Y480284D01*
Y480959D02*
X703563Y480809D01*
X703713Y480659D01*
X703938Y480584D01*
X704088D01*
X704313Y480659D01*
X704463Y480809D01*
X704538Y480959D01*
Y481184D01*
X704463Y481334D01*
X704313Y481484D01*
X704088Y481559D01*
X703938D01*
X703713Y481484D01*
X703563Y481334D01*
X703488Y481184D01*
Y480959D01*
Y481903D02*
X704538D01*
X703788D02*
X703563Y482128D01*
X703488Y482278D01*
Y482503D01*
X703563Y482653D01*
X703788Y482728D01*
X704538D01*
X703788D02*
X703563Y482953D01*
X703488Y483103D01*
Y483328D01*
X703563Y483478D01*
X703788Y483553D01*
X704538D01*
X703938Y484048D02*
Y484947D01*
X703788D01*
X703639Y484872D01*
X703563Y484797D01*
X703488Y484648D01*
Y484422D01*
X703563Y484273D01*
X703713Y484123D01*
X703938Y484048D01*
X704088D01*
X704313Y484123D01*
X704463Y484273D01*
X704538Y484422D01*
Y484648D01*
X704463Y484797D01*
X704313Y484947D01*
X703488Y485285D02*
X704538D01*
X703938D02*
X703713Y485360D01*
X703563Y485510D01*
X703488Y485660D01*
Y485885D01*
X702964Y487489D02*
X704238D01*
X704463Y487564D01*
X704538Y487714D01*
Y487864D01*
X703488Y487264D02*
Y487789D01*
Y488464D02*
X703563Y488314D01*
X703713Y488164D01*
X703938Y488089D01*
X704088D01*
X704313Y488164D01*
X704463Y488314D01*
X704538Y488464D01*
Y488689D01*
X704463Y488838D01*
X704313Y488988D01*
X704088Y489064D01*
X703938D01*
X703713Y488988D01*
X703563Y488838D01*
X703488Y488689D01*
Y488464D01*
X702964Y491545D02*
X704538D01*
X703713D02*
X703563Y491395D01*
X703488Y491245D01*
Y491020D01*
X703563Y490870D01*
X703713Y490720D01*
X703938Y490645D01*
X704088D01*
X704313Y490720D01*
X704463Y490870D01*
X704538Y491020D01*
Y491245D01*
X704463Y491395D01*
X704313Y491545D01*
X703938Y491965D02*
Y492865D01*
X703788D01*
X703639Y492790D01*
X703563Y492715D01*
X703488Y492565D01*
Y492340D01*
X703563Y492190D01*
X703713Y492040D01*
X703938Y491965D01*
X704088D01*
X704313Y492040D01*
X704463Y492190D01*
X704538Y492340D01*
Y492565D01*
X704463Y492715D01*
X704313Y492865D01*
X702964Y493802D02*
Y493652D01*
X703039Y493502D01*
X703264Y493427D01*
X704538D01*
X703488Y493202D02*
Y493727D01*
X702964Y494177D02*
X703039Y494252D01*
X702964Y494327D01*
X702889Y494252D01*
X702964Y494177D01*
X703488Y494252D02*
X704538D01*
X703488Y494604D02*
X704538D01*
X703788D02*
X703563Y494829D01*
X703488Y494979D01*
Y495204D01*
X703563Y495354D01*
X703788Y495429D01*
X704538D01*
X703938Y495841D02*
Y496741D01*
X703788D01*
X703639Y496666D01*
X703563Y496591D01*
X703488Y496441D01*
Y496216D01*
X703563Y496066D01*
X703713Y495916D01*
X703938Y495841D01*
X704088D01*
X704313Y495916D01*
X704463Y496066D01*
X704538Y496216D01*
Y496441D01*
X704463Y496591D01*
X704313Y496741D01*
X702964Y498540D02*
X704238D01*
X704463Y498615D01*
X704538Y498765D01*
Y498915D01*
X703488Y498315D02*
Y498840D01*
X702964Y499140D02*
X704538D01*
X703788D02*
X703563Y499365D01*
X703488Y499515D01*
Y499740D01*
X703563Y499890D01*
X703788Y499965D01*
X704538D01*
X703938Y500377D02*
Y501277D01*
X703788D01*
X703639Y501202D01*
X703563Y501127D01*
X703488Y500977D01*
Y500752D01*
X703563Y500602D01*
X703713Y500452D01*
X703938Y500377D01*
X704088D01*
X704313Y500452D01*
X704463Y500602D01*
X704538Y500752D01*
Y500977D01*
X704463Y501127D01*
X704313Y501277D01*
X702964Y503451D02*
Y503301D01*
X703039Y503151D01*
X703264Y503076D01*
X704538D01*
X703488Y502851D02*
Y503376D01*
X702964Y503826D02*
X703039Y503901D01*
X702964Y503976D01*
X702889Y503901D01*
X702964Y503826D01*
X703488Y503901D02*
X704538D01*
X703488Y504253D02*
X704538D01*
X703788D02*
X703563Y504478D01*
X703488Y504628D01*
Y504853D01*
X703563Y505003D01*
X703788Y505078D01*
X704538D01*
X703488Y506390D02*
X704538D01*
X703713D02*
X703563Y506240D01*
X703488Y506090D01*
Y505865D01*
X703563Y505715D01*
X703713Y505565D01*
X703938Y505490D01*
X704088D01*
X704313Y505565D01*
X704463Y505715D01*
X704538Y505865D01*
Y506090D01*
X704463Y506240D01*
X704313Y506390D01*
X702964Y506810D02*
X704538D01*
X703713Y509202D02*
X703563Y509127D01*
X703488Y508902D01*
Y508677D01*
X703563Y508452D01*
X703713Y508377D01*
X703863Y508452D01*
X703938Y508602D01*
X704013Y508977D01*
X704088Y509127D01*
X704238Y509202D01*
X704313D01*
X704463Y509127D01*
X704538Y508902D01*
Y508677D01*
X704463Y508452D01*
X704313Y508377D01*
X702964Y509756D02*
X704238D01*
X704463Y509831D01*
X704538Y509981D01*
Y510131D01*
X703488Y509531D02*
Y510056D01*
X703938Y510356D02*
Y511256D01*
X703788D01*
X703639Y511181D01*
X703563Y511106D01*
X703488Y510956D01*
Y510731D01*
X703563Y510581D01*
X703713Y510431D01*
X703938Y510356D01*
X704088D01*
X704313Y510431D01*
X704463Y510581D01*
X704538Y510731D01*
Y510956D01*
X704463Y511106D01*
X704313Y511256D01*
X703488Y511593D02*
X704538D01*
X703788D02*
X703563Y511818D01*
X703488Y511968D01*
Y512193D01*
X703563Y512343D01*
X703788Y512418D01*
X704538D01*
X703713Y513730D02*
X703563Y513580D01*
X703488Y513430D01*
Y513205D01*
X703563Y513055D01*
X703713Y512905D01*
X703938Y512830D01*
X704088D01*
X704313Y512905D01*
X704463Y513055D01*
X704538Y513205D01*
Y513430D01*
X704463Y513580D01*
X704313Y513730D01*
X702964Y514217D02*
X703039Y514292D01*
X702964Y514367D01*
X702889Y514292D01*
X702964Y514217D01*
X703488Y514292D02*
X704538D01*
X702964Y514645D02*
X704538D01*
X703488Y517111D02*
X704688D01*
X704913Y517036D01*
X704988Y516961D01*
X705063Y516812D01*
Y516587D01*
X704988Y516437D01*
X703713Y517111D02*
X703563Y516961D01*
X703488Y516812D01*
Y516587D01*
X703563Y516437D01*
X703713Y516287D01*
X703938Y516212D01*
X704088D01*
X704313Y516287D01*
X704463Y516437D01*
X704538Y516587D01*
Y516812D01*
X704463Y516961D01*
X704313Y517111D01*
X703488Y518431D02*
X704538D01*
X703713D02*
X703563Y518281D01*
X703488Y518131D01*
Y517906D01*
X703563Y517756D01*
X703713Y517606D01*
X703938Y517531D01*
X704088D01*
X704313Y517606D01*
X704463Y517756D01*
X704538Y517906D01*
Y518131D01*
X704463Y518281D01*
X704313Y518431D01*
X703488Y518851D02*
X705063D01*
X703713D02*
X703563Y519001D01*
X703488Y519151D01*
Y519376D01*
X703563Y519526D01*
X703713Y519675D01*
X703938Y519750D01*
X704088D01*
X704313Y519675D01*
X704463Y519526D01*
X704538Y519376D01*
Y519151D01*
X704463Y519001D01*
X704313Y518851D01*
X700322Y185098D02*
X701372D01*
X700772D02*
X700547Y185173D01*
X700397Y185323D01*
X700322Y185473D01*
Y185698D01*
X700772Y185841D02*
Y186740D01*
X700622D01*
X700472Y186665D01*
X700397Y186590D01*
X700322Y186441D01*
Y186216D01*
X700397Y186066D01*
X700547Y185916D01*
X700772Y185841D01*
X700922D01*
X701147Y185916D01*
X701297Y186066D01*
X701372Y186216D01*
Y186441D01*
X701297Y186590D01*
X701147Y186740D01*
X700547Y187978D02*
X700397Y187828D01*
X700322Y187678D01*
Y187453D01*
X700397Y187303D01*
X700547Y187153D01*
X700772Y187078D01*
X700922D01*
X701147Y187153D01*
X701297Y187303D01*
X701372Y187453D01*
Y187678D01*
X701297Y187828D01*
X701147Y187978D01*
X700322Y188690D02*
X700397Y188540D01*
X700547Y188390D01*
X700772Y188315D01*
X700922D01*
X701147Y188390D01*
X701297Y188540D01*
X701372Y188690D01*
Y188915D01*
X701297Y189065D01*
X701147Y189215D01*
X700922Y189289D01*
X700772D01*
X700547Y189215D01*
X700397Y189065D01*
X700322Y188915D01*
Y188690D01*
Y189634D02*
X701372D01*
X700622D02*
X700397Y189859D01*
X700322Y190009D01*
Y190234D01*
X700397Y190384D01*
X700622Y190459D01*
X701372D01*
X700622D02*
X700397Y190684D01*
X700322Y190834D01*
Y191059D01*
X700397Y191209D01*
X700622Y191284D01*
X701372D01*
X700322Y191779D02*
X701372D01*
X700622D02*
X700397Y192004D01*
X700322Y192154D01*
Y192378D01*
X700397Y192528D01*
X700622Y192603D01*
X701372D01*
X700622D02*
X700397Y192828D01*
X700322Y192978D01*
Y193203D01*
X700397Y193353D01*
X700622Y193428D01*
X701372D01*
X700772Y193923D02*
Y194823D01*
X700622D01*
X700472Y194748D01*
X700397Y194673D01*
X700322Y194523D01*
Y194298D01*
X700397Y194148D01*
X700547Y193998D01*
X700772Y193923D01*
X700922D01*
X701147Y193998D01*
X701297Y194148D01*
X701372Y194298D01*
Y194523D01*
X701297Y194673D01*
X701147Y194823D01*
X700322Y195160D02*
X701372D01*
X700622D02*
X700397Y195385D01*
X700322Y195535D01*
Y195760D01*
X700397Y195910D01*
X700622Y195985D01*
X701372D01*
X699797Y197297D02*
X701372D01*
X700547D02*
X700397Y197147D01*
X700322Y196997D01*
Y196772D01*
X700397Y196622D01*
X700547Y196472D01*
X700772Y196397D01*
X700922D01*
X701147Y196472D01*
X701297Y196622D01*
X701372Y196772D01*
Y196997D01*
X701297Y197147D01*
X701147Y197297D01*
X700772Y197717D02*
Y198616D01*
X700622D01*
X700472Y198541D01*
X700397Y198466D01*
X700322Y198317D01*
Y198091D01*
X700397Y197942D01*
X700547Y197792D01*
X700772Y197717D01*
X700922D01*
X701147Y197792D01*
X701297Y197942D01*
X701372Y198091D01*
Y198317D01*
X701297Y198466D01*
X701147Y198616D01*
X699797Y199853D02*
X701372D01*
X700547D02*
X700397Y199704D01*
X700322Y199554D01*
Y199329D01*
X700397Y199179D01*
X700547Y199029D01*
X700772Y198954D01*
X700922D01*
X701147Y199029D01*
X701297Y199179D01*
X701372Y199329D01*
Y199554D01*
X701297Y199704D01*
X701147Y199853D01*
X699797Y201735D02*
X701072D01*
X701297Y201810D01*
X701372Y201960D01*
Y202110D01*
X700322Y201510D02*
Y202035D01*
X699797Y202485D02*
X699872Y202560D01*
X699797Y202635D01*
X699722Y202560D01*
X699797Y202485D01*
X700322Y202560D02*
X701372D01*
X700322Y202912D02*
X701372D01*
X700622D02*
X700397Y203137D01*
X700322Y203287D01*
Y203512D01*
X700397Y203662D01*
X700622Y203737D01*
X701372D01*
X700322Y205386D02*
X701897D01*
X700547D02*
X700397Y205537D01*
X700322Y205686D01*
Y205911D01*
X700397Y206061D01*
X700547Y206211D01*
X700772Y206286D01*
X700922D01*
X701147Y206211D01*
X701297Y206061D01*
X701372Y205911D01*
Y205686D01*
X701297Y205537D01*
X701147Y205386D01*
X700322Y207523D02*
X701372D01*
X700547D02*
X700397Y207373D01*
X700322Y207223D01*
Y206998D01*
X700397Y206849D01*
X700547Y206699D01*
X700772Y206624D01*
X700922D01*
X701147Y206699D01*
X701297Y206849D01*
X701372Y206998D01*
Y207223D01*
X701297Y207373D01*
X701147Y207523D01*
X700547Y208768D02*
X700397Y208693D01*
X700322Y208468D01*
Y208243D01*
X700397Y208018D01*
X700547Y207943D01*
X700697Y208018D01*
X700772Y208168D01*
X700847Y208543D01*
X700922Y208693D01*
X701072Y208768D01*
X701147D01*
X701297Y208693D01*
X701372Y208468D01*
Y208243D01*
X701297Y208018D01*
X701147Y207943D01*
X699797Y209323D02*
X701072D01*
X701297Y209398D01*
X701372Y209548D01*
Y209698D01*
X700322Y209098D02*
Y209623D01*
X700772Y209923D02*
Y210822D01*
X700622D01*
X700472Y210747D01*
X700397Y210672D01*
X700322Y210522D01*
Y210297D01*
X700397Y210147D01*
X700547Y209998D01*
X700772Y209923D01*
X700922D01*
X701147Y209998D01*
X701297Y210147D01*
X701372Y210297D01*
Y210522D01*
X701297Y210672D01*
X701147Y210822D01*
X699797Y212622D02*
X701072D01*
X701297Y212697D01*
X701372Y212846D01*
Y212997D01*
X700322Y212397D02*
Y212922D01*
X699797Y213221D02*
X701372D01*
X700622D02*
X700397Y213446D01*
X700322Y213596D01*
Y213821D01*
X700397Y213971D01*
X700622Y214046D01*
X701372D01*
X699797Y214608D02*
X699872Y214683D01*
X699797Y214758D01*
X699722Y214683D01*
X699797Y214608D01*
X700322Y214683D02*
X701372D01*
X700547Y215935D02*
X700397Y215786D01*
X700322Y215636D01*
Y215411D01*
X700397Y215261D01*
X700547Y215111D01*
X700772Y215036D01*
X700922D01*
X701147Y215111D01*
X701297Y215261D01*
X701372Y215411D01*
Y215636D01*
X701297Y215786D01*
X701147Y215935D01*
X699797Y216273D02*
X701372D01*
X700322Y217023D02*
X701072Y216273D01*
X700772Y216573D02*
X701372Y217098D01*
X700322Y217345D02*
X701372D01*
X700622D02*
X700397Y217570D01*
X700322Y217720D01*
Y217945D01*
X700397Y218095D01*
X700622Y218170D01*
X701372D01*
X700772Y218582D02*
Y219482D01*
X700622D01*
X700472Y219407D01*
X700397Y219332D01*
X700322Y219182D01*
Y218957D01*
X700397Y218807D01*
X700547Y218657D01*
X700772Y218582D01*
X700922D01*
X701147Y218657D01*
X701297Y218807D01*
X701372Y218957D01*
Y219182D01*
X701297Y219332D01*
X701147Y219482D01*
X700547Y220644D02*
X700397Y220569D01*
X700322Y220344D01*
Y220119D01*
X700397Y219894D01*
X700547Y219819D01*
X700697Y219894D01*
X700772Y220044D01*
X700847Y220419D01*
X700922Y220569D01*
X701072Y220644D01*
X701147D01*
X701297Y220569D01*
X701372Y220344D01*
Y220119D01*
X701297Y219894D01*
X701147Y219819D01*
X700547Y221798D02*
X700397Y221724D01*
X700322Y221499D01*
Y221274D01*
X700397Y221049D01*
X700547Y220974D01*
X700697Y221049D01*
X700772Y221199D01*
X700847Y221573D01*
X700922Y221724D01*
X701072Y221798D01*
X701147D01*
X701297Y221724D01*
X701372Y221499D01*
Y221274D01*
X701297Y221049D01*
X701147Y220974D01*
X700472Y222128D02*
Y223478D01*
X700922Y222128D02*
Y223478D01*
X699797Y224393D02*
X699872Y224168D01*
X700097Y224018D01*
X700472Y223943D01*
X700697D01*
X701072Y224018D01*
X701297Y224168D01*
X701372Y224393D01*
Y224542D01*
X701297Y224767D01*
X701072Y224917D01*
X700697Y224992D01*
X700472D01*
X700097Y224917D01*
X699872Y224767D01*
X699797Y224542D01*
Y224393D01*
X701222Y225420D02*
X701297Y225345D01*
X701372Y225420D01*
X701297Y225495D01*
X701222Y225420D01*
X699797Y226739D02*
Y225990D01*
X700472Y225915D01*
X700397Y225990D01*
X700322Y226214D01*
Y226439D01*
X700397Y226664D01*
X700547Y226814D01*
X700772Y226889D01*
X700922D01*
X701147Y226814D01*
X701297Y226664D01*
X701372Y226439D01*
Y226214D01*
X701297Y225990D01*
X701222Y225915D01*
X701072Y225840D01*
X700322Y227242D02*
X701372D01*
X700622D02*
X700397Y227467D01*
X700322Y227617D01*
Y227841D01*
X700397Y227991D01*
X700622Y228066D01*
X701372D01*
X700622D02*
X700397Y228291D01*
X700322Y228441D01*
Y228666D01*
X700397Y228816D01*
X700622Y228891D01*
X701372D01*
X700322Y229386D02*
X701372D01*
X700622D02*
X700397Y229611D01*
X700322Y229761D01*
Y229986D01*
X700397Y230136D01*
X700622Y230211D01*
X701372D01*
X700622D02*
X700397Y230435D01*
X700322Y230586D01*
Y230810D01*
X700397Y230960D01*
X700622Y231035D01*
X701372D01*
X703414Y185998D02*
X703264Y185848D01*
X703189Y185698D01*
Y185473D01*
X703264Y185323D01*
X703414Y185173D01*
X703639Y185098D01*
X703789D01*
X704014Y185173D01*
X704164Y185323D01*
X704239Y185473D01*
Y185698D01*
X704164Y185848D01*
X704014Y185998D01*
X703189Y186336D02*
X703939D01*
X704164Y186410D01*
X704239Y186560D01*
Y186785D01*
X704164Y186935D01*
X703939Y187160D01*
X703189D02*
X704239D01*
X703414Y188397D02*
X703264Y188322D01*
X703189Y188097D01*
Y187873D01*
X703264Y187648D01*
X703414Y187573D01*
X703564Y187648D01*
X703639Y187797D01*
X703714Y188172D01*
X703789Y188322D01*
X703939Y188397D01*
X704014D01*
X704164Y188322D01*
X704239Y188097D01*
Y187873D01*
X704164Y187648D01*
X704014Y187573D01*
X702665Y188952D02*
X703939D01*
X704164Y189027D01*
X704239Y189177D01*
Y189327D01*
X703189Y188727D02*
Y189252D01*
Y189927D02*
X703264Y189777D01*
X703414Y189627D01*
X703639Y189552D01*
X703789D01*
X704014Y189627D01*
X704164Y189777D01*
X704239Y189927D01*
Y190152D01*
X704164Y190302D01*
X704014Y190452D01*
X703789Y190527D01*
X703639D01*
X703414Y190452D01*
X703264Y190302D01*
X703189Y190152D01*
Y189927D01*
Y190872D02*
X704239D01*
X703489D02*
X703264Y191096D01*
X703189Y191246D01*
Y191471D01*
X703264Y191621D01*
X703489Y191696D01*
X704239D01*
X703489D02*
X703264Y191921D01*
X703189Y192071D01*
Y192296D01*
X703264Y192446D01*
X703489Y192521D01*
X704239D01*
X703639Y193016D02*
Y193915D01*
X703489D01*
X703339Y193841D01*
X703264Y193765D01*
X703189Y193616D01*
Y193391D01*
X703264Y193241D01*
X703414Y193091D01*
X703639Y193016D01*
X703789D01*
X704014Y193091D01*
X704164Y193241D01*
X704239Y193391D01*
Y193616D01*
X704164Y193765D01*
X704014Y193915D01*
X703189Y194253D02*
X704239D01*
X703639D02*
X703414Y194328D01*
X703264Y194478D01*
X703189Y194628D01*
Y194853D01*
X702665Y196457D02*
X703939D01*
X704164Y196532D01*
X704239Y196682D01*
Y196832D01*
X703189Y196232D02*
Y196757D01*
Y197432D02*
X703264Y197282D01*
X703414Y197132D01*
X703639Y197057D01*
X703789D01*
X704014Y197132D01*
X704164Y197282D01*
X704239Y197432D01*
Y197657D01*
X704164Y197807D01*
X704014Y197957D01*
X703789Y198031D01*
X703639D01*
X703414Y197957D01*
X703264Y197807D01*
X703189Y197657D01*
Y197432D01*
X702665Y200513D02*
X704239D01*
X703414D02*
X703264Y200363D01*
X703189Y200213D01*
Y199988D01*
X703264Y199838D01*
X703414Y199688D01*
X703639Y199613D01*
X703789D01*
X704014Y199688D01*
X704164Y199838D01*
X704239Y199988D01*
Y200213D01*
X704164Y200363D01*
X704014Y200513D01*
X703639Y200933D02*
Y201833D01*
X703489D01*
X703339Y201758D01*
X703264Y201683D01*
X703189Y201533D01*
Y201308D01*
X703264Y201158D01*
X703414Y201008D01*
X703639Y200933D01*
X703789D01*
X704014Y201008D01*
X704164Y201158D01*
X704239Y201308D01*
Y201533D01*
X704164Y201683D01*
X704014Y201833D01*
X702665Y202770D02*
Y202620D01*
X702739Y202470D01*
X702964Y202395D01*
X704239D01*
X703189Y202170D02*
Y202695D01*
X702665Y203145D02*
X702739Y203220D01*
X702665Y203295D01*
X702590Y203220D01*
X702665Y203145D01*
X703189Y203220D02*
X704239D01*
X703189Y203572D02*
X704239D01*
X703489D02*
X703264Y203797D01*
X703189Y203947D01*
Y204172D01*
X703264Y204322D01*
X703489Y204397D01*
X704239D01*
X703639Y204809D02*
Y205709D01*
X703489D01*
X703339Y205634D01*
X703264Y205559D01*
X703189Y205409D01*
Y205184D01*
X703264Y205034D01*
X703414Y204884D01*
X703639Y204809D01*
X703789D01*
X704014Y204884D01*
X704164Y205034D01*
X704239Y205184D01*
Y205409D01*
X704164Y205559D01*
X704014Y205709D01*
X702665Y207508D02*
X703939D01*
X704164Y207583D01*
X704239Y207733D01*
Y207883D01*
X703189Y207283D02*
Y207808D01*
X702665Y208108D02*
X704239D01*
X703489D02*
X703264Y208333D01*
X703189Y208483D01*
Y208708D01*
X703264Y208858D01*
X703489Y208933D01*
X704239D01*
X703639Y209345D02*
Y210245D01*
X703489D01*
X703339Y210170D01*
X703264Y210095D01*
X703189Y209945D01*
Y209720D01*
X703264Y209570D01*
X703414Y209420D01*
X703639Y209345D01*
X703789D01*
X704014Y209420D01*
X704164Y209570D01*
X704239Y209720D01*
Y209945D01*
X704164Y210095D01*
X704014Y210245D01*
X702665Y212419D02*
Y212269D01*
X702739Y212119D01*
X702964Y212044D01*
X704239D01*
X703189Y211819D02*
Y212344D01*
X702665Y212794D02*
X702739Y212869D01*
X702665Y212944D01*
X702590Y212869D01*
X702665Y212794D01*
X703189Y212869D02*
X704239D01*
X703189Y213221D02*
X704239D01*
X703489D02*
X703264Y213446D01*
X703189Y213596D01*
Y213821D01*
X703264Y213971D01*
X703489Y214046D01*
X704239D01*
X703189Y215358D02*
X704239D01*
X703414D02*
X703264Y215208D01*
X703189Y215058D01*
Y214833D01*
X703264Y214683D01*
X703414Y214533D01*
X703639Y214458D01*
X703789D01*
X704014Y214533D01*
X704164Y214683D01*
X704239Y214833D01*
Y215058D01*
X704164Y215208D01*
X704014Y215358D01*
X702665Y215778D02*
X704239D01*
X703414Y218170D02*
X703264Y218095D01*
X703189Y217870D01*
Y217645D01*
X703264Y217420D01*
X703414Y217345D01*
X703564Y217420D01*
X703639Y217570D01*
X703714Y217945D01*
X703789Y218095D01*
X703939Y218170D01*
X704014D01*
X704164Y218095D01*
X704239Y217870D01*
Y217645D01*
X704164Y217420D01*
X704014Y217345D01*
X702665Y218724D02*
X703939D01*
X704164Y218799D01*
X704239Y218949D01*
Y219099D01*
X703189Y218500D02*
Y219024D01*
X703639Y219324D02*
Y220224D01*
X703489D01*
X703339Y220149D01*
X703264Y220074D01*
X703189Y219924D01*
Y219699D01*
X703264Y219549D01*
X703414Y219399D01*
X703639Y219324D01*
X703789D01*
X704014Y219399D01*
X704164Y219549D01*
X704239Y219699D01*
Y219924D01*
X704164Y220074D01*
X704014Y220224D01*
X703189Y220561D02*
X704239D01*
X703489D02*
X703264Y220786D01*
X703189Y220936D01*
Y221161D01*
X703264Y221311D01*
X703489Y221386D01*
X704239D01*
X703414Y222698D02*
X703264Y222548D01*
X703189Y222398D01*
Y222173D01*
X703264Y222023D01*
X703414Y221873D01*
X703639Y221798D01*
X703789D01*
X704014Y221873D01*
X704164Y222023D01*
X704239Y222173D01*
Y222398D01*
X704164Y222548D01*
X704014Y222698D01*
X702665Y223185D02*
X702739Y223260D01*
X702665Y223335D01*
X702590Y223260D01*
X702665Y223185D01*
X703189Y223260D02*
X704239D01*
X702665Y223613D02*
X704239D01*
X703189Y226080D02*
X704389D01*
X704614Y226005D01*
X704689Y225930D01*
X704764Y225780D01*
Y225555D01*
X704689Y225405D01*
X703414Y226080D02*
X703264Y225930D01*
X703189Y225780D01*
Y225555D01*
X703264Y225405D01*
X703414Y225255D01*
X703639Y225180D01*
X703789D01*
X704014Y225255D01*
X704164Y225405D01*
X704239Y225555D01*
Y225780D01*
X704164Y225930D01*
X704014Y226080D01*
X703189Y227399D02*
X704239D01*
X703414D02*
X703264Y227249D01*
X703189Y227099D01*
Y226874D01*
X703264Y226724D01*
X703414Y226574D01*
X703639Y226499D01*
X703789D01*
X704014Y226574D01*
X704164Y226724D01*
X704239Y226874D01*
Y227099D01*
X704164Y227249D01*
X704014Y227399D01*
X703189Y227819D02*
X704764D01*
X703414D02*
X703264Y227969D01*
X703189Y228119D01*
Y228344D01*
X703264Y228494D01*
X703414Y228644D01*
X703639Y228719D01*
X703789D01*
X704014Y228644D01*
X704164Y228494D01*
X704239Y228344D01*
Y228119D01*
X704164Y227969D01*
X704014Y227819D01*
M02*
