G04*
G04 #@! TF.GenerationSoftware,Altium Limited,Altium Designer,25.0.2 (28)*
G04*
G04 Layer_Color=0*
%FSLAX25Y25*%
%MOIN*%
G70*
G04*
G04 #@! TF.SameCoordinates,7C83500D-BFB9-469C-A41D-0C693C3E1856*
G04*
G04*
G04 #@! TF.FilePolarity,Positive*
G04*
G01*
G75*
%ADD12C,0.00394*%
%ADD15C,0.00787*%
%ADD103C,0.00197*%
D12*
X540160Y130282D02*
Y134219D01*
X538191Y132251D02*
X542128D01*
X398375Y130342D02*
Y134279D01*
X396406Y132311D02*
X400343D01*
X256646Y130310D02*
Y134247D01*
X254678Y132278D02*
X258615D01*
X114887Y130429D02*
Y134366D01*
X112919Y132398D02*
X116856D01*
X540010Y272081D02*
Y276018D01*
X538041Y274049D02*
X541978D01*
X398353Y272105D02*
Y276042D01*
X396385Y274073D02*
X400322D01*
X256498Y271988D02*
Y275925D01*
X254529Y273957D02*
X258466D01*
X114762Y272158D02*
Y276095D01*
X112793Y274126D02*
X116730D01*
X540032Y413815D02*
Y417752D01*
X538063Y415783D02*
X542000D01*
X398250Y413797D02*
Y417734D01*
X396282Y415765D02*
X400219D01*
X256535Y413673D02*
Y417611D01*
X254566Y415642D02*
X258503D01*
X114891Y413890D02*
Y417827D01*
X112923Y415858D02*
X116860D01*
X540155Y555544D02*
Y559481D01*
X538187Y557512D02*
X542124D01*
X398520Y555620D02*
Y559557D01*
X396552Y557588D02*
X400489D01*
X256713Y555613D02*
Y559550D01*
X254745Y557581D02*
X258682D01*
X114868Y555543D02*
Y559480D01*
X112899Y557512D02*
X116836D01*
D15*
X561995Y124148D02*
Y139896D01*
X590557D01*
Y124148D02*
Y139896D01*
X561995Y124148D02*
X590557D01*
X420210Y124208D02*
Y139956D01*
X448772D01*
Y124208D02*
Y139956D01*
X420210Y124208D02*
X448772D01*
X278481Y124176D02*
Y139924D01*
X307044D01*
Y124176D02*
Y139924D01*
X278481Y124176D02*
X307044D01*
X136722Y124296D02*
Y140044D01*
X165285D01*
Y124296D02*
Y140044D01*
X136722Y124296D02*
X165285D01*
X561845Y265947D02*
Y281695D01*
X590408D01*
Y265947D02*
Y281695D01*
X561845Y265947D02*
X590408D01*
X420188Y265971D02*
Y281719D01*
X448751D01*
Y265971D02*
Y281719D01*
X420188Y265971D02*
X448751D01*
X278333Y265855D02*
Y281603D01*
X306896D01*
Y265855D02*
Y281603D01*
X278333Y265855D02*
X306896D01*
X136597Y266024D02*
Y281772D01*
X165160D01*
Y266024D02*
Y281772D01*
X136597Y266024D02*
X165160D01*
X561867Y407681D02*
Y423429D01*
X590430D01*
Y407681D02*
Y423429D01*
X561867Y407681D02*
X590430D01*
X420085Y407663D02*
Y423411D01*
X448648D01*
Y407663D02*
Y423411D01*
X420085Y407663D02*
X448648D01*
X278370Y407540D02*
Y423288D01*
X306933D01*
Y407540D02*
Y423288D01*
X278370Y407540D02*
X306933D01*
X136726Y407756D02*
Y423504D01*
X165289D01*
Y407756D02*
Y423504D01*
X136726Y407756D02*
X165289D01*
X561990Y549410D02*
Y565158D01*
X590553D01*
Y549410D02*
Y565158D01*
X561990Y549410D02*
X590553D01*
X420355Y549486D02*
Y565234D01*
X448918D01*
Y549486D02*
Y565234D01*
X420355Y549486D02*
X448918D01*
X278548Y549479D02*
Y565227D01*
X307111D01*
Y549479D02*
Y565227D01*
X278548Y549479D02*
X307111D01*
X136703Y549409D02*
Y565158D01*
X165266Y565158D01*
Y549409D02*
Y565158D01*
X136703Y549409D02*
X165266Y549409D01*
D103*
X608156Y108548D02*
X608156Y137288D01*
X642802D01*
X642802Y108548D01*
X608156D02*
X642802D01*
X626049Y107744D02*
X644946Y107744D01*
X626049Y88847D02*
Y107744D01*
Y88847D02*
X644946D01*
Y107744D01*
X518900Y115125D02*
X561419D01*
X518900Y149377D02*
X561419D01*
Y115125D02*
Y149377D01*
X518900Y115125D02*
Y149377D01*
X377115Y115185D02*
X419634D01*
X377115Y149437D02*
X419634D01*
Y115185D02*
Y149437D01*
X377115Y115185D02*
Y149437D01*
X235386Y115152D02*
X277906D01*
X235386Y149404D02*
X277906D01*
Y115152D02*
Y149404D01*
X235386Y115152D02*
Y149404D01*
X93628Y115272D02*
X136147D01*
X93628Y149524D02*
X136147D01*
Y115272D02*
Y149524D01*
X93628Y115272D02*
Y149524D01*
X518750Y256923D02*
X561270D01*
X518750Y291175D02*
X561270D01*
Y256923D02*
Y291175D01*
X518750Y256923D02*
Y291175D01*
X377093Y256947D02*
X419613D01*
X377093Y291199D02*
X419613D01*
Y256947D02*
Y291199D01*
X377093Y256947D02*
Y291199D01*
X235238Y256831D02*
X277758D01*
X235238Y291083D02*
X277758D01*
Y256831D02*
Y291083D01*
X235238Y256831D02*
Y291083D01*
X93502Y257000D02*
X136022D01*
X93502Y291252D02*
X136022D01*
Y257000D02*
Y291252D01*
X93502Y257000D02*
Y291252D01*
X518772Y398657D02*
X561292D01*
X518772Y432909D02*
X561292D01*
Y398657D02*
Y432909D01*
X518772Y398657D02*
Y432909D01*
X376990Y398639D02*
X419510D01*
X376990Y432891D02*
X419510D01*
Y398639D02*
Y432891D01*
X376990Y398639D02*
Y432891D01*
X235275Y398516D02*
X277795D01*
X235275Y432768D02*
X277795D01*
Y398516D02*
Y432768D01*
X235275Y398516D02*
Y432768D01*
X93632Y398732D02*
X136151D01*
X93632Y432984D02*
X136151D01*
Y398732D02*
Y432984D01*
X93632Y398732D02*
Y432984D01*
X518895Y540386D02*
X561415D01*
X518895Y574638D02*
X561415D01*
Y540386D02*
Y574638D01*
X518895Y540386D02*
Y574638D01*
X377260Y540462D02*
X419780D01*
X377260Y574715D02*
X419780D01*
Y540462D02*
Y574715D01*
X377260Y540462D02*
Y574715D01*
X235453Y540455D02*
X277973D01*
X235453Y574707D02*
X277973D01*
Y540455D02*
Y574707D01*
X235453Y540455D02*
Y574707D01*
X93608Y540386D02*
X136128D01*
X93608Y574638D02*
X136128D01*
Y540386D02*
Y574638D01*
X93608Y540386D02*
Y574638D01*
M02*
