G04*
G04 #@! TF.GenerationSoftware,Altium Limited,Altium Designer,25.0.2 (28)*
G04*
G04 Layer_Color=32768*
%FSLAX25Y25*%
%MOIN*%
G70*
G04*
G04 #@! TF.SameCoordinates,7C83500D-BFB9-469C-A41D-0C693C3E1856*
G04*
G04*
G04 #@! TF.FilePolarity,Positive*
G04*
G01*
G75*
%ADD12C,0.00394*%
%ADD15C,0.00787*%
%ADD103C,0.00197*%
D12*
X643801Y302802D02*
Y333905D01*
X620573Y333905D02*
X643801Y333905D01*
X620573Y302802D02*
Y333905D01*
Y302802D02*
X643801D01*
X643605Y334397D02*
Y365499D01*
X620376Y365499D02*
X643605Y365499D01*
X620376Y334397D02*
Y365499D01*
Y334397D02*
X643605D01*
X678546Y308511D02*
Y339613D01*
Y308511D02*
X701774D01*
Y339613D01*
X678546D02*
X701774D01*
X487299Y182022D02*
X491236D01*
X489268Y180054D02*
Y183991D01*
X487299Y146589D02*
X491236D01*
X489268Y144621D02*
Y148558D01*
X487299Y111156D02*
X491236D01*
X489268Y109188D02*
Y113125D01*
X487299Y75723D02*
X491236D01*
X489268Y73755D02*
Y77692D01*
X522733Y75723D02*
X526670D01*
X524701Y73755D02*
Y77692D01*
X522733Y146589D02*
X526670D01*
X524701Y144621D02*
Y148558D01*
X522733Y111156D02*
X526670D01*
X524701Y109188D02*
Y113125D01*
X593599Y75723D02*
X597536D01*
X595567Y73755D02*
Y77692D01*
X558166Y75723D02*
X562103D01*
X560134Y73755D02*
Y77692D01*
X558166Y111156D02*
X562103D01*
X560134Y109188D02*
Y113125D01*
X558166Y146589D02*
X562103D01*
X560134Y144621D02*
Y148558D01*
X558166Y182022D02*
X562103D01*
X560134Y180054D02*
Y183991D01*
X522733Y182022D02*
X526670D01*
X524701Y180054D02*
Y183991D01*
X593599Y146589D02*
X597536D01*
X595567Y144621D02*
Y148558D01*
X593599Y182022D02*
X597536D01*
X595567Y180054D02*
Y183991D01*
X593599Y111156D02*
X597536D01*
X595567Y109188D02*
Y113125D01*
X345515Y182082D02*
X349452D01*
X347483Y180114D02*
Y184051D01*
X345515Y146650D02*
X349452D01*
X347483Y144681D02*
Y148618D01*
X345515Y111216D02*
X349452D01*
X347483Y109248D02*
Y113185D01*
X345515Y75783D02*
X349452D01*
X347483Y73815D02*
Y77752D01*
X451814Y182082D02*
X455751D01*
X453782Y180114D02*
Y184051D01*
X451814Y75783D02*
X455751D01*
X453782Y73815D02*
Y77752D01*
X380948Y182082D02*
X384885D01*
X382916Y180114D02*
Y184051D01*
X416381Y146650D02*
X420318D01*
X418349Y144681D02*
Y148618D01*
X416381Y182082D02*
X420318D01*
X418349Y180114D02*
Y184051D01*
X380948Y146650D02*
X384885D01*
X382916Y144681D02*
Y148618D01*
X416381Y111216D02*
X420318D01*
X418349Y109248D02*
Y113185D01*
X416381Y75783D02*
X420318D01*
X418349Y73815D02*
Y77752D01*
X380948Y111216D02*
X384885D01*
X382916Y109248D02*
Y113185D01*
X380948Y75783D02*
X384885D01*
X382916Y73815D02*
Y77752D01*
X451814Y146650D02*
X455751D01*
X453782Y144681D02*
Y148618D01*
X451814Y111216D02*
X455751D01*
X453782Y109248D02*
Y113185D01*
X239219Y182050D02*
X243156D01*
X241188Y180082D02*
Y184019D01*
X203786Y182050D02*
X207723D01*
X205755Y180082D02*
Y184019D01*
X274652Y182050D02*
X278589D01*
X276621Y180082D02*
Y184019D01*
X274652Y146617D02*
X278589D01*
X276621Y144649D02*
Y148585D01*
X274652Y111184D02*
X278589D01*
X276621Y109215D02*
Y113152D01*
X310085Y111184D02*
X314022D01*
X312054Y109215D02*
Y113152D01*
X310085Y75751D02*
X314022D01*
X312054Y73782D02*
Y77719D01*
X274652Y75751D02*
X278589D01*
X276621Y73782D02*
Y77719D01*
X310085Y182050D02*
X314022D01*
X312054Y180082D02*
Y184019D01*
X310085Y146617D02*
X314022D01*
X312054Y144649D02*
Y148585D01*
X239219Y146617D02*
X243156D01*
X241188Y144649D02*
Y148585D01*
X239219Y75751D02*
X243156D01*
X241188Y73782D02*
Y77719D01*
X239219Y111184D02*
X243156D01*
X241188Y109215D02*
Y113152D01*
X203786Y75751D02*
X207723D01*
X205755Y73782D02*
Y77719D01*
X203786Y146617D02*
X207723D01*
X205755Y144649D02*
Y148585D01*
X203786Y111184D02*
X207723D01*
X205755Y109215D02*
Y113152D01*
X168327Y75870D02*
X172264D01*
X170295Y73902D02*
Y77839D01*
X168327Y146737D02*
X172264D01*
X170295Y144768D02*
Y148705D01*
X168327Y182170D02*
X172264D01*
X170295Y180201D02*
Y184138D01*
X168327Y111303D02*
X172264D01*
X170295Y109335D02*
Y113272D01*
X132894Y75870D02*
X136831D01*
X134862Y73902D02*
Y77839D01*
X132894Y111303D02*
X136831D01*
X134862Y109335D02*
Y113272D01*
X62027Y111303D02*
X65964D01*
X63996Y109335D02*
Y113272D01*
X97461Y182170D02*
X101398D01*
X99429Y180201D02*
Y184138D01*
X62027Y146737D02*
X65964D01*
X63996Y144768D02*
Y148705D01*
X97461Y146737D02*
X101398D01*
X99429Y144768D02*
Y148705D01*
X132894Y146737D02*
X136831D01*
X134862Y144768D02*
Y148705D01*
X132894Y182170D02*
X136831D01*
X134862Y180201D02*
Y184138D01*
X97461Y111303D02*
X101398D01*
X99429Y109335D02*
Y113272D01*
X97461Y75870D02*
X101398D01*
X99429Y73902D02*
Y77839D01*
X62027Y75870D02*
X65964D01*
X63996Y73902D02*
Y77839D01*
X62027Y182170D02*
X65964D01*
X63996Y180201D02*
Y184138D01*
X487150Y323821D02*
X491087D01*
X489118Y321852D02*
Y325789D01*
X487150Y288388D02*
X491087D01*
X489118Y286419D02*
Y290356D01*
X522583Y323821D02*
X526520D01*
X524551Y321852D02*
Y325789D01*
X522583Y288388D02*
X526520D01*
X524551Y286419D02*
Y290356D01*
X558016Y288388D02*
X561953D01*
X559984Y286419D02*
Y290356D01*
X558016Y323821D02*
X561953D01*
X559984Y321852D02*
Y325789D01*
X593449Y323821D02*
X597386D01*
X595417Y321852D02*
Y325789D01*
X593449Y288388D02*
X597386D01*
X595417Y286419D02*
Y290356D01*
X558016Y252955D02*
X561953D01*
X559984Y250986D02*
Y254923D01*
X522583Y252955D02*
X526520D01*
X524551Y250986D02*
Y254923D01*
X593449Y252955D02*
X597386D01*
X595417Y250986D02*
Y254923D01*
X593449Y217522D02*
X597386D01*
X595417Y215553D02*
Y219490D01*
X558016Y217522D02*
X561953D01*
X559984Y215553D02*
Y219490D01*
X522583Y217522D02*
X526520D01*
X524551Y215553D02*
Y219490D01*
X487150Y217522D02*
X491087D01*
X489118Y215553D02*
Y219490D01*
X487150Y252955D02*
X491087D01*
X489118Y250986D02*
Y254923D01*
X345493Y217546D02*
X349430D01*
X347462Y215577D02*
Y219514D01*
X345493Y252979D02*
X349430D01*
X347462Y251010D02*
Y254947D01*
X345493Y323845D02*
X349430D01*
X347462Y321876D02*
Y325813D01*
X345493Y288412D02*
X349430D01*
X347462Y286443D02*
Y290380D01*
X380926Y323845D02*
X384863D01*
X382895Y321876D02*
Y325813D01*
X380926Y288412D02*
X384863D01*
X382895Y286443D02*
Y290380D01*
X380926Y217546D02*
X384863D01*
X382895Y215577D02*
Y219514D01*
X380926Y252979D02*
X384863D01*
X382895Y251010D02*
Y254947D01*
X416359Y217546D02*
X420296D01*
X418328Y215577D02*
Y219514D01*
X416359Y323845D02*
X420296D01*
X418328Y321876D02*
Y325813D01*
X416359Y288412D02*
X420296D01*
X418328Y286443D02*
Y290380D01*
X416359Y252979D02*
X420296D01*
X418328Y251010D02*
Y254947D01*
X451792Y323845D02*
X455729D01*
X453761Y321876D02*
Y325813D01*
X451792Y288412D02*
X455729D01*
X453761Y286443D02*
Y290380D01*
X451792Y217546D02*
X455729D01*
X453761Y215577D02*
Y219514D01*
X451792Y252979D02*
X455729D01*
X453761Y251010D02*
Y254947D01*
X203638Y217429D02*
X207575D01*
X205606Y215461D02*
Y219398D01*
X203638Y288295D02*
X207575D01*
X205606Y286327D02*
Y290264D01*
X203638Y252862D02*
X207575D01*
X205606Y250894D02*
Y254831D01*
X203638Y323728D02*
X207575D01*
X205606Y321760D02*
Y325697D01*
X239071Y217429D02*
X243008D01*
X241039Y215461D02*
Y219398D01*
X239071Y252862D02*
X243008D01*
X241039Y250894D02*
Y254831D01*
X239071Y323728D02*
X243008D01*
X241039Y321760D02*
Y325697D01*
X239071Y288295D02*
X243008D01*
X241039Y286327D02*
Y290264D01*
X274504Y323728D02*
X278441D01*
X276472Y321760D02*
Y325697D01*
X274504Y288295D02*
X278441D01*
X276472Y286327D02*
Y290264D01*
X274504Y252862D02*
X278441D01*
X276472Y250894D02*
Y254831D01*
X274504Y217429D02*
X278441D01*
X276472Y215461D02*
Y219398D01*
X309937Y217429D02*
X313874D01*
X311906Y215461D02*
Y219398D01*
X309937Y288295D02*
X313874D01*
X311906Y286327D02*
Y290264D01*
X309937Y323728D02*
X313874D01*
X311906Y321760D02*
Y325697D01*
X309937Y252862D02*
X313874D01*
X311906Y250894D02*
Y254831D01*
X97335Y323898D02*
X101272D01*
X99303Y321930D02*
Y325867D01*
X97335Y288465D02*
X101272D01*
X99303Y286496D02*
Y290434D01*
X168201Y253032D02*
X172138D01*
X170169Y251063D02*
Y255000D01*
X168201Y217599D02*
X172138D01*
X170169Y215630D02*
Y219567D01*
X61902Y323898D02*
X65839D01*
X63870Y321930D02*
Y325867D01*
X61902Y288465D02*
X65839D01*
X63870Y286496D02*
Y290434D01*
X132768Y217599D02*
X136705D01*
X134737Y215630D02*
Y219567D01*
X132768Y253032D02*
X136705D01*
X134737Y251063D02*
Y255000D01*
X132768Y288465D02*
X136705D01*
X134737Y286496D02*
Y290434D01*
X168201Y288465D02*
X172138D01*
X170169Y286496D02*
Y290434D01*
X168201Y323898D02*
X172138D01*
X170169Y321930D02*
Y325867D01*
X132768Y323898D02*
X136705D01*
X134737Y321930D02*
Y325867D01*
X61902Y253032D02*
X65839D01*
X63870Y251063D02*
Y255000D01*
X97335Y217599D02*
X101272D01*
X99303Y215630D02*
Y219567D01*
X97335Y253032D02*
X101272D01*
X99303Y251063D02*
Y255000D01*
X61902Y217599D02*
X65839D01*
X63870Y215630D02*
Y219567D01*
X522605Y430122D02*
X526542D01*
X524573Y428154D02*
Y432091D01*
X487172Y430122D02*
X491109D01*
X489140Y428154D02*
Y432091D01*
X487172Y465555D02*
X491109D01*
X489140Y463587D02*
Y467524D01*
X558038Y430122D02*
X561975D01*
X560007Y428154D02*
Y432091D01*
X593471Y430122D02*
X597408D01*
X595439Y428154D02*
Y432091D01*
X593471Y394689D02*
X597408D01*
X595439Y392720D02*
Y396657D01*
X558038Y394689D02*
X561975D01*
X560007Y392720D02*
Y396657D01*
X558038Y359256D02*
X561975D01*
X560007Y357287D02*
Y361224D01*
X593471Y359256D02*
X597408D01*
X595439Y357287D02*
Y361224D01*
X522605Y465555D02*
X526542D01*
X524573Y463587D02*
Y467524D01*
X593471Y465555D02*
X597408D01*
X595439Y463587D02*
Y467524D01*
X558038Y465555D02*
X561975D01*
X560007Y463587D02*
Y467524D01*
X487172Y394689D02*
X491109D01*
X489140Y392720D02*
Y396657D01*
X522605Y359256D02*
X526542D01*
X524573Y357287D02*
Y361224D01*
X487172Y359256D02*
X491109D01*
X489140Y357287D02*
Y361224D01*
X522605Y394689D02*
X526542D01*
X524573Y392720D02*
Y396657D01*
X345390Y465537D02*
X349327D01*
X347359Y463568D02*
Y467505D01*
X380823Y465537D02*
X384760D01*
X382792Y463568D02*
Y467505D01*
X451689Y465537D02*
X455626D01*
X453658Y463568D02*
Y467505D01*
X416256Y394671D02*
X420193D01*
X418225Y392702D02*
Y396639D01*
X345390Y430104D02*
X349327D01*
X347359Y428135D02*
Y432072D01*
X380823Y394671D02*
X384760D01*
X382792Y392702D02*
Y396639D01*
X451689Y430104D02*
X455626D01*
X453658Y428135D02*
Y432072D01*
X451689Y394671D02*
X455626D01*
X453658Y392702D02*
Y396639D01*
X451689Y359238D02*
X455626D01*
X453658Y357269D02*
Y361206D01*
X416256Y359238D02*
X420193D01*
X418225Y357269D02*
Y361206D01*
X380823Y359238D02*
X384760D01*
X382792Y357269D02*
Y361206D01*
X416256Y430104D02*
X420193D01*
X418225Y428135D02*
Y432072D01*
X416256Y465537D02*
X420193D01*
X418225Y463568D02*
Y467505D01*
X380823Y430104D02*
X384760D01*
X382792Y428135D02*
Y432072D01*
X345390Y359238D02*
X349327D01*
X347359Y357269D02*
Y361206D01*
X345390Y394671D02*
X349327D01*
X347359Y392702D02*
Y396639D01*
X203675Y394548D02*
X207612D01*
X205643Y392579D02*
Y396516D01*
X203675Y465414D02*
X207612D01*
X205643Y463445D02*
Y467382D01*
X203675Y429981D02*
X207612D01*
X205643Y428012D02*
Y431949D01*
X203675Y359115D02*
X207612D01*
X205643Y357146D02*
Y361083D01*
X239108Y394548D02*
X243045D01*
X241076Y392579D02*
Y396516D01*
X239108Y465414D02*
X243045D01*
X241076Y463445D02*
Y467382D01*
X239108Y429981D02*
X243045D01*
X241076Y428012D02*
Y431949D01*
X309974Y465414D02*
X313911D01*
X311943Y463445D02*
Y467382D01*
X309974Y429981D02*
X313911D01*
X311943Y428012D02*
Y431949D01*
X274541Y465414D02*
X278478D01*
X276510Y463445D02*
Y467382D01*
X274541Y429981D02*
X278478D01*
X276510Y428012D02*
Y431949D01*
X274541Y394548D02*
X278478D01*
X276510Y392579D02*
Y396516D01*
X239108Y359115D02*
X243045D01*
X241076Y357146D02*
Y361083D01*
X274541Y359115D02*
X278478D01*
X276510Y357146D02*
Y361083D01*
X309974Y394548D02*
X313911D01*
X311943Y392579D02*
Y396516D01*
X309974Y359115D02*
X313911D01*
X311943Y357146D02*
Y361083D01*
X132897Y465630D02*
X136835D01*
X134866Y463662D02*
Y467599D01*
X132897Y430197D02*
X136835D01*
X134866Y428229D02*
Y432165D01*
X168331Y465630D02*
X172268D01*
X170299Y463662D02*
Y467599D01*
X168331Y430197D02*
X172268D01*
X170299Y428229D02*
Y432165D01*
X168331Y359331D02*
X172268D01*
X170299Y357362D02*
Y361299D01*
X168331Y394764D02*
X172268D01*
X170299Y392795D02*
Y396732D01*
X132897Y359331D02*
X136835D01*
X134866Y357362D02*
Y361299D01*
X132897Y394764D02*
X136835D01*
X134866Y392795D02*
Y396732D01*
X97464Y359331D02*
X101401D01*
X99433Y357362D02*
Y361299D01*
X97464Y394764D02*
X101401D01*
X99433Y392795D02*
Y396732D01*
X97464Y465630D02*
X101401D01*
X99433Y463662D02*
Y467599D01*
X97464Y430197D02*
X101401D01*
X99433Y428229D02*
Y432165D01*
X62031Y359331D02*
X65968D01*
X64000Y357362D02*
Y361299D01*
X62031Y465630D02*
X65968D01*
X64000Y463662D02*
Y467599D01*
X62031Y394764D02*
X65968D01*
X64000Y392795D02*
Y396732D01*
X62031Y430197D02*
X65968D01*
X64000Y428229D02*
Y432165D01*
X522728Y571851D02*
X526665D01*
X524697Y569882D02*
Y573819D01*
X558161Y607284D02*
X562098D01*
X560130Y605315D02*
Y609252D01*
X593594Y607284D02*
X597531D01*
X595563Y605315D02*
Y609252D01*
X487295Y571851D02*
X491232D01*
X489264Y569882D02*
Y573819D01*
X522728Y607284D02*
X526665D01*
X524697Y605315D02*
Y609252D01*
X487295Y607284D02*
X491232D01*
X489264Y605315D02*
Y609252D01*
X558161Y571851D02*
X562098D01*
X560130Y569882D02*
Y573819D01*
X593594Y571851D02*
X597531D01*
X595563Y569882D02*
Y573819D01*
X593594Y536418D02*
X597531D01*
X595563Y534449D02*
Y538386D01*
X558161Y536418D02*
X562098D01*
X560130Y534449D02*
Y538386D01*
X522728Y500985D02*
X526665D01*
X524697Y499016D02*
Y502953D01*
X522728Y536418D02*
X526665D01*
X524697Y534449D02*
Y538386D01*
X487295Y500985D02*
X491232D01*
X489264Y499016D02*
Y502953D01*
X487295Y536418D02*
X491232D01*
X489264Y534449D02*
Y538386D01*
X558161Y500985D02*
X562098D01*
X560130Y499016D02*
Y502953D01*
X593594Y500985D02*
X597531D01*
X595563Y499016D02*
Y502953D01*
X345660Y501061D02*
X349597D01*
X347629Y499093D02*
Y503030D01*
X416526Y607360D02*
X420463D01*
X418495Y605392D02*
Y609329D01*
X381093Y607360D02*
X385030D01*
X383062Y605392D02*
Y609329D01*
X451959Y536494D02*
X455896D01*
X453928Y534526D02*
Y538463D01*
X416526Y536494D02*
X420463D01*
X418495Y534526D02*
Y538463D01*
X451959Y501061D02*
X455896D01*
X453928Y499093D02*
Y503030D01*
X416526Y501061D02*
X420463D01*
X418495Y499093D02*
Y503030D01*
X381093Y501061D02*
X385030D01*
X383062Y499093D02*
Y503030D01*
X345660Y536494D02*
X349597D01*
X347629Y534526D02*
Y538463D01*
X345660Y607360D02*
X349597D01*
X347629Y605392D02*
Y609329D01*
X345660Y571927D02*
X349597D01*
X347629Y569959D02*
Y573896D01*
X451959Y607360D02*
X455896D01*
X453928Y605392D02*
Y609329D01*
X451959Y571927D02*
X455896D01*
X453928Y569959D02*
Y573896D01*
X416526Y571927D02*
X420463D01*
X418495Y569959D02*
Y573896D01*
X381093Y536494D02*
X385030D01*
X383062Y534526D02*
Y538463D01*
X381093Y571927D02*
X385030D01*
X383062Y569959D02*
Y573896D01*
X310152Y571920D02*
X314089D01*
X312121Y569951D02*
Y573888D01*
X274719Y501054D02*
X278656D01*
X276688Y499085D02*
Y503022D01*
X310152Y536487D02*
X314089D01*
X312121Y534518D02*
Y538455D01*
X310152Y501054D02*
X314089D01*
X312121Y499085D02*
Y503022D01*
X310152Y607353D02*
X314089D01*
X312121Y605384D02*
Y609321D01*
X274719Y536487D02*
X278656D01*
X276688Y534518D02*
Y538455D01*
X274719Y571920D02*
X278656D01*
X276688Y569951D02*
Y573888D01*
X274719Y607353D02*
X278656D01*
X276688Y605384D02*
Y609321D01*
X239286Y501054D02*
X243223D01*
X241255Y499085D02*
Y503022D01*
X239286Y536487D02*
X243223D01*
X241255Y534518D02*
Y538455D01*
X203853Y501054D02*
X207790D01*
X205821Y499085D02*
Y503022D01*
X239286Y607353D02*
X243223D01*
X241255Y605384D02*
Y609321D01*
X239286Y571920D02*
X243223D01*
X241255Y569951D02*
Y573888D01*
X203853Y571920D02*
X207790D01*
X205821Y569951D02*
Y573888D01*
X203853Y536487D02*
X207790D01*
X205821Y534518D02*
Y538455D01*
X203853Y607353D02*
X207790D01*
X205821Y605384D02*
Y609321D01*
X134843Y534449D02*
Y538386D01*
X132874Y536417D02*
X136811D01*
X63976Y605315D02*
Y609252D01*
X62008Y607283D02*
X65945D01*
X63976Y569882D02*
Y573819D01*
X62008Y571850D02*
X65945D01*
X168307D02*
X172244D01*
X170276Y569882D02*
Y573819D01*
X97441Y607283D02*
X101378D01*
X99410Y605315D02*
Y609252D01*
X97441Y571850D02*
X101378D01*
X99410Y569882D02*
Y573819D01*
X132874Y571850D02*
X136811D01*
X134843Y569882D02*
Y573819D01*
X168307Y607283D02*
X172244D01*
X170276Y605315D02*
Y609252D01*
X132874Y607283D02*
X136811D01*
X134843Y605315D02*
Y609252D01*
X97441Y500984D02*
X101378D01*
X99410Y499016D02*
Y502953D01*
X62008Y500984D02*
X65945D01*
X63976Y499016D02*
Y502953D01*
X97441Y536417D02*
X101378D01*
X99410Y534449D02*
Y538386D01*
X62008Y536417D02*
X65945D01*
X63976Y534449D02*
Y538386D01*
X168307Y536417D02*
X172244D01*
X170276Y534449D02*
Y538386D01*
X168307Y500984D02*
X172244D01*
X170276Y499016D02*
Y502953D01*
X132874Y500984D02*
X136811D01*
X134843Y499016D02*
Y502953D01*
D15*
X618725Y505446D02*
X642347D01*
Y539189D01*
X618725D02*
X642347D01*
X618725Y505446D02*
Y539189D01*
Y453281D02*
X642347D01*
Y487024D01*
X618725D02*
X642347D01*
X618725Y453281D02*
Y487024D01*
X618504Y162262D02*
X642126D01*
Y196005D01*
X618504D02*
X642126D01*
X618504Y162262D02*
Y196005D01*
Y214428D02*
X642126D01*
Y248171D01*
X618504D02*
X642126D01*
X618504Y214428D02*
Y248171D01*
D103*
X645730Y295760D02*
X676518D01*
Y375799D01*
X645730D02*
X676518D01*
X645730Y295760D02*
Y375799D01*
X656102Y125591D02*
X656102Y96850D01*
X621457Y125591D02*
X656102D01*
X621457Y96850D02*
Y125591D01*
Y96850D02*
X656102Y96850D01*
X699512Y443493D02*
Y548217D01*
X610535Y443493D02*
X699512D01*
X655024Y493886D02*
Y497823D01*
X653055Y495855D02*
X656992D01*
X610535Y443493D02*
Y548217D01*
X699512D01*
X652659Y573524D02*
X656596D01*
X654628Y571556D02*
Y575493D01*
X640454Y592225D02*
X668801Y592225D01*
X640454Y554823D02*
X640454Y592225D01*
X640454Y554823D02*
X668801Y554823D01*
Y592225D01*
X662205Y605315D02*
Y609252D01*
X660236Y607283D02*
X664173D01*
X680905Y621457D02*
X680905Y593110D01*
X643504Y621457D02*
X680905D01*
X643504Y593110D02*
X643504Y621457D01*
X643504Y593110D02*
X680905D01*
X619195Y573524D02*
X623132D01*
X621163Y571556D02*
Y575493D01*
X606990Y592225D02*
X635336Y592225D01*
X606990Y554823D02*
Y592225D01*
Y554823D02*
X635336Y554823D01*
X635336Y592225D02*
X635336Y554823D01*
X656302Y94114D02*
Y130295D01*
X715236D01*
Y94114D02*
Y130295D01*
X656302Y94114D02*
X715236D01*
X481689Y175133D02*
Y188912D01*
X496847Y175133D02*
Y188912D01*
X481689D02*
X496847D01*
X481689Y175133D02*
X496847D01*
X481689Y139700D02*
Y153479D01*
X496847Y139700D02*
Y153479D01*
X481689D02*
X496847D01*
X481689Y139700D02*
X496847D01*
X481689Y104267D02*
Y118046D01*
X496847Y104267D02*
Y118046D01*
X481689D02*
X496847D01*
X481689Y104267D02*
X496847D01*
X481689Y68833D02*
Y82613D01*
X496847Y68833D02*
Y82613D01*
X481689D02*
X496847D01*
X481689Y68833D02*
X496847D01*
X517122D02*
Y82613D01*
X532280Y68833D02*
Y82613D01*
X517122D02*
X532280D01*
X517122Y68833D02*
X532280D01*
X517122Y139700D02*
Y153479D01*
X532280Y139700D02*
Y153479D01*
X517122D02*
X532280D01*
X517122Y139700D02*
X532280D01*
X517122Y104267D02*
Y118046D01*
X532280Y104267D02*
Y118046D01*
X517122D02*
X532280D01*
X517122Y104267D02*
X532280D01*
X587989Y68833D02*
Y82613D01*
X603146Y68833D02*
Y82613D01*
X587989D02*
X603146D01*
X587989Y68833D02*
X603146D01*
X552555D02*
Y82613D01*
X567713Y68833D02*
Y82613D01*
X552555D02*
X567713D01*
X552555Y68833D02*
X567713D01*
X552555Y104267D02*
Y118046D01*
X567713Y104267D02*
Y118046D01*
X552555D02*
X567713D01*
X552555Y104267D02*
X567713D01*
X552555Y139700D02*
Y153479D01*
X567713Y139700D02*
Y153479D01*
X552555D02*
X567713D01*
X552555Y139700D02*
X567713D01*
X552555Y175133D02*
Y188912D01*
X567713Y175133D02*
Y188912D01*
X552555D02*
X567713D01*
X552555Y175133D02*
X567713D01*
X517122D02*
Y188912D01*
X532280Y175133D02*
Y188912D01*
X517122D02*
X532280D01*
X517122Y175133D02*
X532280D01*
X587989Y139700D02*
Y153479D01*
X603146Y139700D02*
Y153479D01*
X587989D02*
X603146D01*
X587989Y139700D02*
X603146D01*
X587989Y175133D02*
Y188912D01*
X603146Y175133D02*
Y188912D01*
X587989D02*
X603146D01*
X587989Y175133D02*
X603146D01*
X587989Y104267D02*
Y118046D01*
X603146Y104267D02*
Y118046D01*
X587989D02*
X603146D01*
X587989Y104267D02*
X603146D01*
X339904Y175193D02*
Y188972D01*
X355062Y175193D02*
Y188972D01*
X339904D02*
X355062D01*
X339904Y175193D02*
X355062D01*
X339904Y139760D02*
Y153539D01*
X355062Y139760D02*
Y153539D01*
X339904D02*
X355062D01*
X339904Y139760D02*
X355062D01*
X339904Y104327D02*
Y118106D01*
X355062Y104327D02*
Y118106D01*
X339904D02*
X355062D01*
X339904Y104327D02*
X355062D01*
X339904Y68894D02*
Y82673D01*
X355062Y68894D02*
Y82673D01*
X339904D02*
X355062D01*
X339904Y68894D02*
X355062D01*
X446204Y175193D02*
Y188972D01*
X461361Y175193D02*
Y188972D01*
X446204D02*
X461361D01*
X446204Y175193D02*
X461361D01*
X446204Y68894D02*
Y82673D01*
X461361Y68894D02*
Y82673D01*
X446204D02*
X461361D01*
X446204Y68894D02*
X461361D01*
X375338Y175193D02*
Y188972D01*
X390495Y175193D02*
Y188972D01*
X375338D02*
X390495D01*
X375338Y175193D02*
X390495D01*
X410771Y139760D02*
Y153539D01*
X425928Y139760D02*
Y153539D01*
X410771D02*
X425928D01*
X410771Y139760D02*
X425928D01*
X410771Y175193D02*
Y188972D01*
X425928Y175193D02*
Y188972D01*
X410771D02*
X425928D01*
X410771Y175193D02*
X425928D01*
X375338Y139760D02*
Y153539D01*
X390495Y139760D02*
Y153539D01*
X375338D02*
X390495D01*
X375338Y139760D02*
X390495D01*
X410771Y104327D02*
Y118106D01*
X425928Y104327D02*
Y118106D01*
X410771D02*
X425928D01*
X410771Y104327D02*
X425928D01*
X410771Y68894D02*
Y82673D01*
X425928Y68894D02*
Y82673D01*
X410771D02*
X425928D01*
X410771Y68894D02*
X425928D01*
X375338Y104327D02*
Y118106D01*
X390495Y104327D02*
Y118106D01*
X375338D02*
X390495D01*
X375338Y104327D02*
X390495D01*
X375338Y68894D02*
Y82673D01*
X390495Y68894D02*
Y82673D01*
X375338D02*
X390495D01*
X375338Y68894D02*
X390495D01*
X446204Y139760D02*
Y153539D01*
X461361Y139760D02*
Y153539D01*
X446204D02*
X461361D01*
X446204Y139760D02*
X461361D01*
X446204Y104327D02*
Y118106D01*
X461361Y104327D02*
Y118106D01*
X446204D02*
X461361D01*
X446204Y104327D02*
X461361D01*
X233609Y175160D02*
Y188940D01*
X248766Y175160D02*
Y188940D01*
X233609D02*
X248766D01*
X233609Y175160D02*
X248766D01*
X198176D02*
Y188940D01*
X213333Y175160D02*
Y188940D01*
X198176D02*
X213333D01*
X198176Y175160D02*
X213333D01*
X269042D02*
Y188940D01*
X284200Y175160D02*
Y188940D01*
X269042D02*
X284200D01*
X269042Y175160D02*
X284200D01*
X269042Y139727D02*
Y153507D01*
X284200Y139727D02*
Y153507D01*
X269042D02*
X284200D01*
X269042Y139727D02*
X284200D01*
X269042Y104294D02*
Y118074D01*
X284200Y104294D02*
Y118074D01*
X269042D02*
X284200D01*
X269042Y104294D02*
X284200D01*
X304475D02*
Y118074D01*
X319633Y104294D02*
Y118074D01*
X304475D02*
X319633D01*
X304475Y104294D02*
X319633D01*
X304475Y68861D02*
Y82641D01*
X319633Y68861D02*
Y82641D01*
X304475D02*
X319633D01*
X304475Y68861D02*
X319633D01*
X269042D02*
Y82641D01*
X284200Y68861D02*
Y82641D01*
X269042D02*
X284200D01*
X269042Y68861D02*
X284200D01*
X304475Y175160D02*
Y188940D01*
X319633Y175160D02*
Y188940D01*
X304475D02*
X319633D01*
X304475Y175160D02*
X319633D01*
X304475Y139727D02*
Y153507D01*
X319633Y139727D02*
Y153507D01*
X304475D02*
X319633D01*
X304475Y139727D02*
X319633D01*
X233609D02*
Y153507D01*
X248766Y139727D02*
Y153507D01*
X233609D02*
X248766D01*
X233609Y139727D02*
X248766D01*
X233609Y68861D02*
Y82641D01*
X248766Y68861D02*
Y82641D01*
X233609D02*
X248766D01*
X233609Y68861D02*
X248766D01*
X233609Y104294D02*
Y118074D01*
X248766Y104294D02*
Y118074D01*
X233609D02*
X248766D01*
X233609Y104294D02*
X248766D01*
X198176Y68861D02*
Y82641D01*
X213333Y68861D02*
Y82641D01*
X198176D02*
X213333D01*
X198176Y68861D02*
X213333D01*
X198176Y139727D02*
Y153507D01*
X213333Y139727D02*
Y153507D01*
X198176D02*
X213333D01*
X198176Y139727D02*
X213333D01*
X198176Y104294D02*
Y118074D01*
X213333Y104294D02*
Y118074D01*
X198176D02*
X213333D01*
X198176Y104294D02*
X213333D01*
X162716Y68981D02*
Y82760D01*
X177874Y68981D02*
Y82760D01*
X162716D02*
X177874D01*
X162716Y68981D02*
X177874D01*
X162716Y139847D02*
Y153626D01*
X177874Y139847D02*
Y153626D01*
X162716D02*
X177874D01*
X162716Y139847D02*
X177874D01*
X162716Y175280D02*
Y189059D01*
X177874Y175280D02*
Y189059D01*
X162716D02*
X177874D01*
X162716Y175280D02*
X177874D01*
X162716Y104414D02*
Y118193D01*
X177874Y104414D02*
Y118193D01*
X162716D02*
X177874D01*
X162716Y104414D02*
X177874D01*
X127283Y68981D02*
Y82760D01*
X142441Y68981D02*
Y82760D01*
X127283D02*
X142441D01*
X127283Y68981D02*
X142441D01*
X127283Y104414D02*
Y118193D01*
X142441Y104414D02*
Y118193D01*
X127283D02*
X142441D01*
X127283Y104414D02*
X142441D01*
X56417D02*
Y118193D01*
X71575Y104414D02*
Y118193D01*
X56417D02*
X71575D01*
X56417Y104414D02*
X71575D01*
X91850Y175280D02*
Y189059D01*
X107008Y175280D02*
Y189059D01*
X91850D02*
X107008D01*
X91850Y175280D02*
X107008D01*
X56417Y139847D02*
Y153626D01*
X71575Y139847D02*
Y153626D01*
X56417D02*
X71575D01*
X56417Y139847D02*
X71575D01*
X91850D02*
Y153626D01*
X107008Y139847D02*
Y153626D01*
X91850D02*
X107008D01*
X91850Y139847D02*
X107008D01*
X127283D02*
Y153626D01*
X142441Y139847D02*
Y153626D01*
X127283D02*
X142441D01*
X127283Y139847D02*
X142441D01*
X127283Y175280D02*
Y189059D01*
X142441Y175280D02*
Y189059D01*
X127283D02*
X142441D01*
X127283Y175280D02*
X142441D01*
X91850Y104414D02*
Y118193D01*
X107008Y104414D02*
Y118193D01*
X91850D02*
X107008D01*
X91850Y104414D02*
X107008D01*
X91850Y68981D02*
Y82760D01*
X107008Y68981D02*
Y82760D01*
X91850D02*
X107008D01*
X91850Y68981D02*
X107008D01*
X56417D02*
Y82760D01*
X71575Y68981D02*
Y82760D01*
X56417D02*
X71575D01*
X56417Y68981D02*
X71575D01*
X56417Y175280D02*
Y189059D01*
X71575Y175280D02*
Y189059D01*
X56417D02*
X71575D01*
X56417Y175280D02*
X71575D01*
X481539Y316931D02*
Y330711D01*
X496697Y316931D02*
Y330711D01*
X481539D02*
X496697D01*
X481539Y316931D02*
X496697D01*
X481539Y281498D02*
Y295278D01*
X496697Y281498D02*
Y295278D01*
X481539D02*
X496697D01*
X481539Y281498D02*
X496697D01*
X516972Y316931D02*
Y330711D01*
X532130Y316931D02*
Y330711D01*
X516972D02*
X532130D01*
X516972Y316931D02*
X532130D01*
X516972Y281498D02*
Y295278D01*
X532130Y281498D02*
Y295278D01*
X516972D02*
X532130D01*
X516972Y281498D02*
X532130D01*
X552406D02*
Y295278D01*
X567563Y281498D02*
Y295278D01*
X552406D02*
X567563D01*
X552406Y281498D02*
X567563D01*
X552406Y316931D02*
Y330711D01*
X567563Y316931D02*
Y330711D01*
X552406D02*
X567563D01*
X552406Y316931D02*
X567563D01*
X587839D02*
Y330711D01*
X602996Y316931D02*
Y330711D01*
X587839D02*
X602996D01*
X587839Y316931D02*
X602996D01*
X587839Y281498D02*
Y295278D01*
X602996Y281498D02*
Y295278D01*
X587839D02*
X602996D01*
X587839Y281498D02*
X602996D01*
X552406Y246065D02*
Y259845D01*
X567563Y246065D02*
Y259845D01*
X552406D02*
X567563D01*
X552406Y246065D02*
X567563D01*
X516972D02*
Y259845D01*
X532130Y246065D02*
Y259845D01*
X516972D02*
X532130D01*
X516972Y246065D02*
X532130D01*
X587839D02*
Y259845D01*
X602996Y246065D02*
Y259845D01*
X587839D02*
X602996D01*
X587839Y246065D02*
X602996D01*
X587839Y210632D02*
Y224412D01*
X602996Y210632D02*
Y224412D01*
X587839D02*
X602996D01*
X587839Y210632D02*
X602996D01*
X552406D02*
Y224412D01*
X567563Y210632D02*
Y224412D01*
X552406D02*
X567563D01*
X552406Y210632D02*
X567563D01*
X516972D02*
Y224412D01*
X532130Y210632D02*
Y224412D01*
X516972D02*
X532130D01*
X516972Y210632D02*
X532130D01*
X481539D02*
Y224412D01*
X496697Y210632D02*
Y224412D01*
X481539D02*
X496697D01*
X481539Y210632D02*
X496697D01*
X481539Y246065D02*
Y259845D01*
X496697Y246065D02*
Y259845D01*
X481539D02*
X496697D01*
X481539Y246065D02*
X496697D01*
X339883Y210656D02*
Y224435D01*
X355040Y210656D02*
Y224435D01*
X339883D02*
X355040D01*
X339883Y210656D02*
X355040D01*
X339883Y246089D02*
Y259869D01*
X355040Y246089D02*
Y259869D01*
X339883D02*
X355040D01*
X339883Y246089D02*
X355040D01*
X339883Y316955D02*
Y330735D01*
X355040Y316955D02*
Y330735D01*
X339883D02*
X355040D01*
X339883Y316955D02*
X355040D01*
X339883Y281522D02*
Y295302D01*
X355040Y281522D02*
Y295302D01*
X339883D02*
X355040D01*
X339883Y281522D02*
X355040D01*
X375316Y316955D02*
Y330735D01*
X390474Y316955D02*
Y330735D01*
X375316D02*
X390474D01*
X375316Y316955D02*
X390474D01*
X375316Y281522D02*
Y295302D01*
X390474Y281522D02*
Y295302D01*
X375316D02*
X390474D01*
X375316Y281522D02*
X390474D01*
X375316Y210656D02*
Y224435D01*
X390474Y210656D02*
Y224435D01*
X375316D02*
X390474D01*
X375316Y210656D02*
X390474D01*
X375316Y246089D02*
Y259869D01*
X390474Y246089D02*
Y259869D01*
X375316D02*
X390474D01*
X375316Y246089D02*
X390474D01*
X410749Y210656D02*
Y224435D01*
X425907Y210656D02*
Y224435D01*
X410749D02*
X425907D01*
X410749Y210656D02*
X425907D01*
X410749Y316955D02*
Y330735D01*
X425907Y316955D02*
Y330735D01*
X410749D02*
X425907D01*
X410749Y316955D02*
X425907D01*
X410749Y281522D02*
Y295302D01*
X425907Y281522D02*
Y295302D01*
X410749D02*
X425907D01*
X410749Y281522D02*
X425907D01*
X410749Y246089D02*
Y259869D01*
X425907Y246089D02*
Y259869D01*
X410749D02*
X425907D01*
X410749Y246089D02*
X425907D01*
X446182Y316955D02*
Y330735D01*
X461340Y316955D02*
Y330735D01*
X446182D02*
X461340D01*
X446182Y316955D02*
X461340D01*
X446182Y281522D02*
Y295302D01*
X461340Y281522D02*
Y295302D01*
X446182D02*
X461340D01*
X446182Y281522D02*
X461340D01*
X446182Y210656D02*
Y224435D01*
X461340Y210656D02*
Y224435D01*
X446182D02*
X461340D01*
X446182Y210656D02*
X461340D01*
X446182Y246089D02*
Y259869D01*
X461340Y246089D02*
Y259869D01*
X446182D02*
X461340D01*
X446182Y246089D02*
X461340D01*
X198028Y210540D02*
Y224319D01*
X213185Y210540D02*
Y224319D01*
X198028D02*
X213185D01*
X198028Y210540D02*
X213185D01*
X198028Y281406D02*
Y295185D01*
X213185Y281406D02*
Y295185D01*
X198028D02*
X213185D01*
X198028Y281406D02*
X213185D01*
X198028Y245973D02*
Y259752D01*
X213185Y245973D02*
Y259752D01*
X198028D02*
X213185D01*
X198028Y245973D02*
X213185D01*
X198028Y316839D02*
Y330618D01*
X213185Y316839D02*
Y330618D01*
X198028D02*
X213185D01*
X198028Y316839D02*
X213185D01*
X233461Y210540D02*
Y224319D01*
X248618Y210540D02*
Y224319D01*
X233461D02*
X248618D01*
X233461Y210540D02*
X248618D01*
X233461Y245973D02*
Y259752D01*
X248618Y245973D02*
Y259752D01*
X233461D02*
X248618D01*
X233461Y245973D02*
X248618D01*
X233461Y316839D02*
Y330618D01*
X248618Y316839D02*
Y330618D01*
X233461D02*
X248618D01*
X233461Y316839D02*
X248618D01*
X233461Y281406D02*
Y295185D01*
X248618Y281406D02*
Y295185D01*
X233461D02*
X248618D01*
X233461Y281406D02*
X248618D01*
X268894Y316839D02*
Y330618D01*
X284051Y316839D02*
Y330618D01*
X268894D02*
X284051D01*
X268894Y316839D02*
X284051D01*
X268894Y281406D02*
Y295185D01*
X284051Y281406D02*
Y295185D01*
X268894D02*
X284051D01*
X268894Y281406D02*
X284051D01*
X268894Y245973D02*
Y259752D01*
X284051Y245973D02*
Y259752D01*
X268894D02*
X284051D01*
X268894Y245973D02*
X284051D01*
X268894Y210540D02*
Y224319D01*
X284051Y210540D02*
Y224319D01*
X268894D02*
X284051D01*
X268894Y210540D02*
X284051D01*
X304327D02*
Y224319D01*
X319484Y210540D02*
Y224319D01*
X304327D02*
X319484D01*
X304327Y210540D02*
X319484D01*
X304327Y281406D02*
Y295185D01*
X319484Y281406D02*
Y295185D01*
X304327D02*
X319484D01*
X304327Y281406D02*
X319484D01*
X304327Y316839D02*
Y330618D01*
X319484Y316839D02*
Y330618D01*
X304327D02*
X319484D01*
X304327Y316839D02*
X319484D01*
X304327Y245973D02*
Y259752D01*
X319484Y245973D02*
Y259752D01*
X304327D02*
X319484D01*
X304327Y245973D02*
X319484D01*
X91725Y317008D02*
Y330788D01*
X106882Y317008D02*
Y330788D01*
X91725D02*
X106882D01*
X91725Y317008D02*
X106882D01*
X91725Y281575D02*
Y295355D01*
X106882Y281575D02*
Y295355D01*
X91725D02*
X106882D01*
X91725Y281575D02*
X106882D01*
X162591Y246142D02*
Y259922D01*
X177748Y246142D02*
Y259922D01*
X162591D02*
X177748D01*
X162591Y246142D02*
X177748D01*
X162591Y210709D02*
Y224489D01*
X177748Y210709D02*
Y224489D01*
X162591D02*
X177748D01*
X162591Y210709D02*
X177748D01*
X56292Y317008D02*
Y330788D01*
X71449Y317008D02*
Y330788D01*
X56292D02*
X71449D01*
X56292Y317008D02*
X71449D01*
X56292Y281575D02*
Y295355D01*
X71449Y281575D02*
Y295355D01*
X56292D02*
X71449D01*
X56292Y281575D02*
X71449D01*
X127158Y210709D02*
Y224489D01*
X142315Y210709D02*
Y224489D01*
X127158D02*
X142315D01*
X127158Y210709D02*
X142315D01*
X127158Y246142D02*
Y259922D01*
X142315Y246142D02*
Y259922D01*
X127158D02*
X142315D01*
X127158Y246142D02*
X142315D01*
X127158Y281575D02*
Y295355D01*
X142315Y281575D02*
Y295355D01*
X127158D02*
X142315D01*
X127158Y281575D02*
X142315D01*
X162591D02*
Y295355D01*
X177748Y281575D02*
Y295355D01*
X162591D02*
X177748D01*
X162591Y281575D02*
X177748D01*
X162591Y317008D02*
Y330788D01*
X177748Y317008D02*
Y330788D01*
X162591D02*
X177748D01*
X162591Y317008D02*
X177748D01*
X127158D02*
Y330788D01*
X142315Y317008D02*
Y330788D01*
X127158D02*
X142315D01*
X127158Y317008D02*
X142315D01*
X56292Y246142D02*
Y259922D01*
X71449Y246142D02*
Y259922D01*
X56292D02*
X71449D01*
X56292Y246142D02*
X71449D01*
X91725Y210709D02*
Y224489D01*
X106882Y210709D02*
Y224489D01*
X91725D02*
X106882D01*
X91725Y210709D02*
X106882D01*
X91725Y246142D02*
Y259922D01*
X106882Y246142D02*
Y259922D01*
X91725D02*
X106882D01*
X91725Y246142D02*
X106882D01*
X56292Y210709D02*
Y224489D01*
X71449Y210709D02*
Y224489D01*
X56292D02*
X71449D01*
X56292Y210709D02*
X71449D01*
X516995Y423232D02*
Y437012D01*
X532152Y423232D02*
Y437012D01*
X516995D02*
X532152D01*
X516995Y423232D02*
X532152D01*
X481562D02*
Y437012D01*
X496719Y423232D02*
Y437012D01*
X481562D02*
X496719D01*
X481562Y423232D02*
X496719D01*
X481562Y458665D02*
Y472445D01*
X496719Y458665D02*
Y472445D01*
X481562D02*
X496719D01*
X481562Y458665D02*
X496719D01*
X552428Y423232D02*
Y437012D01*
X567585Y423232D02*
Y437012D01*
X552428D02*
X567585D01*
X552428Y423232D02*
X567585D01*
X587861D02*
Y437012D01*
X603018Y423232D02*
Y437012D01*
X587861D02*
X603018D01*
X587861Y423232D02*
X603018D01*
X587861Y387799D02*
Y401579D01*
X603018Y387799D02*
Y401579D01*
X587861D02*
X603018D01*
X587861Y387799D02*
X603018D01*
X552428D02*
Y401579D01*
X567585Y387799D02*
Y401579D01*
X552428D02*
X567585D01*
X552428Y387799D02*
X567585D01*
X552428Y352366D02*
Y366146D01*
X567585Y352366D02*
Y366146D01*
X552428D02*
X567585D01*
X552428Y352366D02*
X567585D01*
X587861D02*
Y366146D01*
X603018Y352366D02*
Y366146D01*
X587861D02*
X603018D01*
X587861Y352366D02*
X603018D01*
X516995Y458665D02*
Y472445D01*
X532152Y458665D02*
Y472445D01*
X516995D02*
X532152D01*
X516995Y458665D02*
X532152D01*
X587861D02*
Y472445D01*
X603018Y458665D02*
Y472445D01*
X587861D02*
X603018D01*
X587861Y458665D02*
X603018D01*
X552428D02*
Y472445D01*
X567585Y458665D02*
Y472445D01*
X552428D02*
X567585D01*
X552428Y458665D02*
X567585D01*
X481562Y387799D02*
Y401579D01*
X496719Y387799D02*
Y401579D01*
X481562D02*
X496719D01*
X481562Y387799D02*
X496719D01*
X516995Y352366D02*
Y366146D01*
X532152Y352366D02*
Y366146D01*
X516995D02*
X532152D01*
X516995Y352366D02*
X532152D01*
X481562D02*
Y366146D01*
X496719Y352366D02*
Y366146D01*
X481562D02*
X496719D01*
X481562Y352366D02*
X496719D01*
X516995Y387799D02*
Y401579D01*
X532152Y387799D02*
Y401579D01*
X516995D02*
X532152D01*
X516995Y387799D02*
X532152D01*
X339780Y458647D02*
Y472427D01*
X354937Y458647D02*
Y472427D01*
X339780D02*
X354937D01*
X339780Y458647D02*
X354937D01*
X375213D02*
Y472427D01*
X390370Y458647D02*
Y472427D01*
X375213D02*
X390370D01*
X375213Y458647D02*
X390370D01*
X446079D02*
Y472427D01*
X461237Y458647D02*
Y472427D01*
X446079D02*
X461237D01*
X446079Y458647D02*
X461237D01*
X410646Y387781D02*
Y401560D01*
X425804Y387781D02*
Y401560D01*
X410646D02*
X425804D01*
X410646Y387781D02*
X425804D01*
X339780Y423214D02*
Y436994D01*
X354937Y423214D02*
Y436994D01*
X339780D02*
X354937D01*
X339780Y423214D02*
X354937D01*
X375213Y387781D02*
Y401560D01*
X390370Y387781D02*
Y401560D01*
X375213D02*
X390370D01*
X375213Y387781D02*
X390370D01*
X446079Y423214D02*
Y436994D01*
X461237Y423214D02*
Y436994D01*
X446079D02*
X461237D01*
X446079Y423214D02*
X461237D01*
X446079Y387781D02*
Y401560D01*
X461237Y387781D02*
Y401560D01*
X446079D02*
X461237D01*
X446079Y387781D02*
X461237D01*
X446079Y352348D02*
Y366127D01*
X461237Y352348D02*
Y366127D01*
X446079D02*
X461237D01*
X446079Y352348D02*
X461237D01*
X410646D02*
Y366127D01*
X425804Y352348D02*
Y366127D01*
X410646D02*
X425804D01*
X410646Y352348D02*
X425804D01*
X375213D02*
Y366127D01*
X390370Y352348D02*
Y366127D01*
X375213D02*
X390370D01*
X375213Y352348D02*
X390370D01*
X410646Y423214D02*
Y436994D01*
X425804Y423214D02*
Y436994D01*
X410646D02*
X425804D01*
X410646Y423214D02*
X425804D01*
X410646Y458647D02*
Y472427D01*
X425804Y458647D02*
Y472427D01*
X410646D02*
X425804D01*
X410646Y458647D02*
X425804D01*
X375213Y423214D02*
Y436994D01*
X390370Y423214D02*
Y436994D01*
X375213D02*
X390370D01*
X375213Y423214D02*
X390370D01*
X339780Y352348D02*
Y366127D01*
X354937Y352348D02*
Y366127D01*
X339780D02*
X354937D01*
X339780Y352348D02*
X354937D01*
X339780Y387781D02*
Y401560D01*
X354937Y387781D02*
Y401560D01*
X339780D02*
X354937D01*
X339780Y387781D02*
X354937D01*
X198065Y387658D02*
Y401437D01*
X213222Y387658D02*
Y401437D01*
X198065D02*
X213222D01*
X198065Y387658D02*
X213222D01*
X198065Y458524D02*
Y472304D01*
X213222Y458524D02*
Y472304D01*
X198065D02*
X213222D01*
X198065Y458524D02*
X213222D01*
X198065Y423091D02*
Y436870D01*
X213222Y423091D02*
Y436870D01*
X198065D02*
X213222D01*
X198065Y423091D02*
X213222D01*
X198065Y352225D02*
Y366004D01*
X213222Y352225D02*
Y366004D01*
X198065D02*
X213222D01*
X198065Y352225D02*
X213222D01*
X233498Y387658D02*
Y401437D01*
X248655Y387658D02*
Y401437D01*
X233498D02*
X248655D01*
X233498Y387658D02*
X248655D01*
X233498Y458524D02*
Y472304D01*
X248655Y458524D02*
Y472304D01*
X233498D02*
X248655D01*
X233498Y458524D02*
X248655D01*
X233498Y423091D02*
Y436870D01*
X248655Y423091D02*
Y436870D01*
X233498D02*
X248655D01*
X233498Y423091D02*
X248655D01*
X304364Y458524D02*
Y472304D01*
X319521Y458524D02*
Y472304D01*
X304364D02*
X319521D01*
X304364Y458524D02*
X319521D01*
X304364Y423091D02*
Y436870D01*
X319521Y423091D02*
Y436870D01*
X304364D02*
X319521D01*
X304364Y423091D02*
X319521D01*
X268931Y458524D02*
Y472304D01*
X284088Y458524D02*
Y472304D01*
X268931D02*
X284088D01*
X268931Y458524D02*
X284088D01*
X268931Y423091D02*
Y436870D01*
X284088Y423091D02*
Y436870D01*
X268931D02*
X284088D01*
X268931Y423091D02*
X284088D01*
X268931Y387658D02*
Y401437D01*
X284088Y387658D02*
Y401437D01*
X268931D02*
X284088D01*
X268931Y387658D02*
X284088D01*
X233498Y352225D02*
Y366004D01*
X248655Y352225D02*
Y366004D01*
X233498D02*
X248655D01*
X233498Y352225D02*
X248655D01*
X268931D02*
Y366004D01*
X284088Y352225D02*
Y366004D01*
X268931D02*
X284088D01*
X268931Y352225D02*
X284088D01*
X304364Y387658D02*
Y401437D01*
X319521Y387658D02*
Y401437D01*
X304364D02*
X319521D01*
X304364Y387658D02*
X319521D01*
X304364Y352225D02*
Y366004D01*
X319521Y352225D02*
Y366004D01*
X304364D02*
X319521D01*
X304364Y352225D02*
X319521D01*
X127287Y458740D02*
Y472520D01*
X142445Y458740D02*
Y472520D01*
X127287D02*
X142445D01*
X127287Y458740D02*
X142445D01*
X127287Y423307D02*
Y437087D01*
X142445Y423307D02*
Y437087D01*
X127287D02*
X142445D01*
X127287Y423307D02*
X142445D01*
X162720Y458740D02*
Y472520D01*
X177878Y458740D02*
Y472520D01*
X162720D02*
X177878D01*
X162720Y458740D02*
X177878D01*
X162720Y423307D02*
Y437087D01*
X177878Y423307D02*
Y437087D01*
X162720D02*
X177878D01*
X162720Y423307D02*
X177878D01*
X162720Y352441D02*
Y366221D01*
X177878Y352441D02*
Y366221D01*
X162720D02*
X177878D01*
X162720Y352441D02*
X177878D01*
X162720Y387874D02*
Y401654D01*
X177878Y387874D02*
Y401654D01*
X162720D02*
X177878D01*
X162720Y387874D02*
X177878D01*
X127287Y352441D02*
Y366221D01*
X142445Y352441D02*
Y366221D01*
X127287D02*
X142445D01*
X127287Y352441D02*
X142445D01*
X127287Y387874D02*
Y401654D01*
X142445Y387874D02*
Y401654D01*
X127287D02*
X142445D01*
X127287Y387874D02*
X142445D01*
X91854Y352441D02*
Y366221D01*
X107012Y352441D02*
Y366221D01*
X91854D02*
X107012D01*
X91854Y352441D02*
X107012D01*
X91854Y387874D02*
Y401654D01*
X107012Y387874D02*
Y401654D01*
X91854D02*
X107012D01*
X91854Y387874D02*
X107012D01*
X91854Y458740D02*
Y472520D01*
X107012Y458740D02*
Y472520D01*
X91854D02*
X107012D01*
X91854Y458740D02*
X107012D01*
X91854Y423307D02*
Y437087D01*
X107012Y423307D02*
Y437087D01*
X91854D02*
X107012D01*
X91854Y423307D02*
X107012D01*
X56421Y352441D02*
Y366221D01*
X71579Y352441D02*
Y366221D01*
X56421D02*
X71579D01*
X56421Y352441D02*
X71579D01*
X56421Y458740D02*
Y472520D01*
X71579Y458740D02*
Y472520D01*
X56421D02*
X71579D01*
X56421Y458740D02*
X71579D01*
X56421Y387874D02*
Y401654D01*
X71579Y387874D02*
Y401654D01*
X56421D02*
X71579D01*
X56421Y387874D02*
X71579D01*
X56421Y423307D02*
Y437087D01*
X71579Y423307D02*
Y437087D01*
X56421D02*
X71579D01*
X56421Y423307D02*
X71579D01*
X517118Y564961D02*
Y578741D01*
X532275Y564961D02*
Y578741D01*
X517118D02*
X532275D01*
X517118Y564961D02*
X532275D01*
X552551Y600394D02*
Y614174D01*
X567709Y600394D02*
Y614174D01*
X552551D02*
X567709D01*
X552551Y600394D02*
X567709D01*
X587984D02*
Y614174D01*
X603142Y600394D02*
Y614174D01*
X587984D02*
X603142D01*
X587984Y600394D02*
X603142D01*
X481685Y564961D02*
Y578741D01*
X496842Y564961D02*
Y578741D01*
X481685D02*
X496842D01*
X481685Y564961D02*
X496842D01*
X517118Y600394D02*
Y614174D01*
X532275Y600394D02*
Y614174D01*
X517118D02*
X532275D01*
X517118Y600394D02*
X532275D01*
X481685D02*
Y614174D01*
X496842Y600394D02*
Y614174D01*
X481685D02*
X496842D01*
X481685Y600394D02*
X496842D01*
X552551Y564961D02*
Y578741D01*
X567709Y564961D02*
Y578741D01*
X552551D02*
X567709D01*
X552551Y564961D02*
X567709D01*
X587984D02*
Y578741D01*
X603142Y564961D02*
Y578741D01*
X587984D02*
X603142D01*
X587984Y564961D02*
X603142D01*
X587984Y529528D02*
Y543307D01*
X603142Y529528D02*
Y543307D01*
X587984D02*
X603142D01*
X587984Y529528D02*
X603142D01*
X552551D02*
Y543307D01*
X567709Y529528D02*
Y543307D01*
X552551D02*
X567709D01*
X552551Y529528D02*
X567709D01*
X517118Y494095D02*
Y507874D01*
X532275Y494095D02*
Y507874D01*
X517118D02*
X532275D01*
X517118Y494095D02*
X532275D01*
X517118Y529528D02*
Y543307D01*
X532275Y529528D02*
Y543307D01*
X517118D02*
X532275D01*
X517118Y529528D02*
X532275D01*
X481685Y494095D02*
Y507874D01*
X496842Y494095D02*
Y507874D01*
X481685D02*
X496842D01*
X481685Y494095D02*
X496842D01*
X481685Y529528D02*
Y543307D01*
X496842Y529528D02*
Y543307D01*
X481685D02*
X496842D01*
X481685Y529528D02*
X496842D01*
X552551Y494095D02*
Y507874D01*
X567709Y494095D02*
Y507874D01*
X552551D02*
X567709D01*
X552551Y494095D02*
X567709D01*
X587984D02*
Y507874D01*
X603142Y494095D02*
Y507874D01*
X587984D02*
X603142D01*
X587984Y494095D02*
X603142D01*
X340050Y494171D02*
Y507951D01*
X355207Y494171D02*
Y507951D01*
X340050D02*
X355207D01*
X340050Y494171D02*
X355207D01*
X410916Y600470D02*
Y614250D01*
X426074Y600470D02*
Y614250D01*
X410916D02*
X426074D01*
X410916Y600470D02*
X426074D01*
X375483D02*
Y614250D01*
X390640Y600470D02*
Y614250D01*
X375483D02*
X390640D01*
X375483Y600470D02*
X390640D01*
X446349Y529604D02*
Y543384D01*
X461507Y529604D02*
Y543384D01*
X446349D02*
X461507D01*
X446349Y529604D02*
X461507D01*
X410916D02*
Y543384D01*
X426074Y529604D02*
Y543384D01*
X410916D02*
X426074D01*
X410916Y529604D02*
X426074D01*
X446349Y494171D02*
Y507951D01*
X461507Y494171D02*
Y507951D01*
X446349D02*
X461507D01*
X446349Y494171D02*
X461507D01*
X410916D02*
Y507951D01*
X426074Y494171D02*
Y507951D01*
X410916D02*
X426074D01*
X410916Y494171D02*
X426074D01*
X375483D02*
Y507951D01*
X390640Y494171D02*
Y507951D01*
X375483D02*
X390640D01*
X375483Y494171D02*
X390640D01*
X340050Y529604D02*
Y543384D01*
X355207Y529604D02*
Y543384D01*
X340050D02*
X355207D01*
X340050Y529604D02*
X355207D01*
X340050Y600470D02*
Y614250D01*
X355207Y600470D02*
Y614250D01*
X340050D02*
X355207D01*
X340050Y600470D02*
X355207D01*
X340050Y565037D02*
Y578817D01*
X355207Y565037D02*
Y578817D01*
X340050D02*
X355207D01*
X340050Y565037D02*
X355207D01*
X446349Y600470D02*
Y614250D01*
X461507Y600470D02*
Y614250D01*
X446349D02*
X461507D01*
X446349Y600470D02*
X461507D01*
X446349Y565037D02*
Y578817D01*
X461507Y565037D02*
Y578817D01*
X446349D02*
X461507D01*
X446349Y565037D02*
X461507D01*
X410916D02*
Y578817D01*
X426074Y565037D02*
Y578817D01*
X410916D02*
X426074D01*
X410916Y565037D02*
X426074D01*
X375483Y529604D02*
Y543384D01*
X390640Y529604D02*
Y543384D01*
X375483D02*
X390640D01*
X375483Y529604D02*
X390640D01*
X375483Y565037D02*
Y578817D01*
X390640Y565037D02*
Y578817D01*
X375483D02*
X390640D01*
X375483Y565037D02*
X390640D01*
X304542Y565030D02*
Y578810D01*
X319700Y565030D02*
Y578810D01*
X304542D02*
X319700D01*
X304542Y565030D02*
X319700D01*
X269109Y494164D02*
Y507943D01*
X284266Y494164D02*
Y507943D01*
X269109D02*
X284266D01*
X269109Y494164D02*
X284266D01*
X304542Y529597D02*
Y543376D01*
X319700Y529597D02*
Y543376D01*
X304542D02*
X319700D01*
X304542Y529597D02*
X319700D01*
X304542Y494164D02*
Y507943D01*
X319700Y494164D02*
Y507943D01*
X304542D02*
X319700D01*
X304542Y494164D02*
X319700D01*
X304542Y600463D02*
Y614243D01*
X319700Y600463D02*
Y614243D01*
X304542D02*
X319700D01*
X304542Y600463D02*
X319700D01*
X269109Y529597D02*
Y543376D01*
X284266Y529597D02*
Y543376D01*
X269109D02*
X284266D01*
X269109Y529597D02*
X284266D01*
X269109Y565030D02*
Y578810D01*
X284266Y565030D02*
Y578810D01*
X269109D02*
X284266D01*
X269109Y565030D02*
X284266D01*
X269109Y600463D02*
Y614243D01*
X284266Y600463D02*
Y614243D01*
X269109D02*
X284266D01*
X269109Y600463D02*
X284266D01*
X233676Y494164D02*
Y507943D01*
X248833Y494164D02*
Y507943D01*
X233676D02*
X248833D01*
X233676Y494164D02*
X248833D01*
X233676Y529597D02*
Y543376D01*
X248833Y529597D02*
Y543376D01*
X233676D02*
X248833D01*
X233676Y529597D02*
X248833D01*
X198243Y494164D02*
Y507943D01*
X213400Y494164D02*
Y507943D01*
X198243D02*
X213400D01*
X198243Y494164D02*
X213400D01*
X233676Y600463D02*
Y614243D01*
X248833Y600463D02*
Y614243D01*
X233676D02*
X248833D01*
X233676Y600463D02*
X248833D01*
X233676Y565030D02*
Y578810D01*
X248833Y565030D02*
Y578810D01*
X233676D02*
X248833D01*
X233676Y565030D02*
X248833D01*
X198243D02*
Y578810D01*
X213400Y565030D02*
Y578810D01*
X198243D02*
X213400D01*
X198243Y565030D02*
X213400D01*
X198243Y529597D02*
Y543376D01*
X213400Y529597D02*
Y543376D01*
X198243D02*
X213400D01*
X198243Y529597D02*
X213400D01*
X198243Y600463D02*
Y614243D01*
X213400Y600463D02*
Y614243D01*
X198243D02*
X213400D01*
X198243Y600463D02*
X213400D01*
X127264Y529528D02*
X142421D01*
X127264Y543307D02*
X142421D01*
Y529528D02*
Y543307D01*
X127264Y529528D02*
Y543307D01*
X56398Y600394D02*
X71555D01*
X56398Y614173D02*
X71555D01*
Y600394D02*
Y614173D01*
X56398Y600394D02*
Y614173D01*
Y564961D02*
X71555D01*
X56398Y578740D02*
X71555D01*
Y564961D02*
Y578740D01*
X56398Y564961D02*
Y578740D01*
X655709Y80709D02*
Y84646D01*
X653740Y82677D02*
X657677D01*
X674409Y96850D02*
X674409Y68504D01*
X637008Y96850D02*
X674409D01*
X637008D02*
X637008Y68504D01*
X674409Y68504D01*
X699213Y152461D02*
Y257185D01*
X610236Y152461D02*
X699213D01*
X654724Y202854D02*
Y206791D01*
X652756Y204823D02*
X656693D01*
X610236Y152461D02*
Y257185D01*
X699213D01*
X690083Y488361D02*
Y509030D01*
X669414Y488361D02*
X690083D01*
X669414D02*
Y509030D01*
X690083D01*
X689862Y197343D02*
Y218012D01*
X669193Y197343D02*
X689862D01*
X669193D02*
Y218012D01*
X689862D01*
X162697Y564961D02*
Y578740D01*
X177854Y564961D02*
Y578740D01*
X162697D02*
X177854D01*
X162697Y564961D02*
X177854D01*
X91831Y600394D02*
Y614173D01*
X106988Y600394D02*
Y614173D01*
X91831D02*
X106988D01*
X91831Y600394D02*
X106988D01*
X91831Y564961D02*
Y578740D01*
X106988Y564961D02*
Y578740D01*
X91831D02*
X106988D01*
X91831Y564961D02*
X106988D01*
X127264D02*
Y578740D01*
X142421Y564961D02*
Y578740D01*
X127264D02*
X142421D01*
X127264Y564961D02*
X142421D01*
X162697Y600394D02*
Y614173D01*
X177854Y600394D02*
Y614173D01*
X162697D02*
X177854D01*
X162697Y600394D02*
X177854D01*
X127264D02*
Y614173D01*
X142421Y600394D02*
Y614173D01*
X127264D02*
X142421D01*
X127264Y600394D02*
X142421D01*
X91831Y494095D02*
Y507874D01*
X106988Y494095D02*
Y507874D01*
X91831D02*
X106988D01*
X91831Y494095D02*
X106988D01*
X56398D02*
Y507874D01*
X71555Y494095D02*
Y507874D01*
X56398Y507874D02*
X71555Y507874D01*
X56398Y494095D02*
X71555D01*
X91831Y529528D02*
Y543307D01*
X106988Y529528D02*
Y543307D01*
X91831Y543307D02*
X106988Y543307D01*
X91831Y529528D02*
X106988D01*
X56398D02*
Y543307D01*
X71555Y529528D02*
Y543307D01*
X56398D02*
X71555D01*
X56398Y529528D02*
X71555D01*
X162697D02*
Y543307D01*
X177854Y529528D02*
Y543307D01*
X162697D02*
X177854D01*
X162697Y529528D02*
X177854D01*
X162697Y494095D02*
Y507874D01*
X177854Y494095D02*
Y507874D01*
X162697D02*
X177854D01*
X162697Y494095D02*
X177854D01*
X127264D02*
Y507874D01*
X142421Y494095D02*
Y507874D01*
X127264D02*
X142421D01*
X127264Y494095D02*
X142421D01*
X702265Y592225D02*
X702265Y554823D01*
X673919Y554823D02*
X702265Y554823D01*
X673919Y554823D02*
Y592225D01*
X702265Y592225D01*
X688092Y571556D02*
Y575493D01*
X686124Y573524D02*
X690061D01*
M02*
