G04*
G04 #@! TF.GenerationSoftware,Altium Limited,Altium Designer,25.0.2 (28)*
G04*
G04 Layer_Color=8388736*
%FSLAX25Y25*%
%MOIN*%
G70*
G04*
G04 #@! TF.SameCoordinates,7C83500D-BFB9-469C-A41D-0C693C3E1856*
G04*
G04*
G04 #@! TF.FilePolarity,Positive*
G04*
G01*
G75*
%ADD12C,0.00394*%
%ADD103C,0.00197*%
D12*
X576276Y130054D02*
Y133991D01*
X574307Y132022D02*
X578244D01*
X434491Y130114D02*
Y134051D01*
X432522Y132082D02*
X436459D01*
X292763Y130082D02*
Y134019D01*
X290794Y132050D02*
X294731D01*
X151004Y130201D02*
Y134138D01*
X149035Y132170D02*
X152972D01*
X576126Y271852D02*
Y275789D01*
X574158Y273821D02*
X578095D01*
X434470Y271876D02*
Y275813D01*
X432501Y273845D02*
X436438D01*
X292614Y271760D02*
Y275697D01*
X290646Y273728D02*
X294583D01*
X150878Y271930D02*
Y275867D01*
X148910Y273898D02*
X152847D01*
X576148Y413587D02*
Y417524D01*
X574180Y415555D02*
X578117D01*
X434367Y413568D02*
Y417505D01*
X432398Y415537D02*
X436335D01*
X292651Y413445D02*
Y417382D01*
X290683Y415414D02*
X294620D01*
X151008Y413662D02*
Y417599D01*
X149039Y415630D02*
X152976D01*
X576272Y555315D02*
Y559252D01*
X574303Y557284D02*
X578240D01*
X434636Y555392D02*
Y559329D01*
X432668Y557360D02*
X436605D01*
X292829Y555384D02*
Y559321D01*
X290861Y557353D02*
X294798D01*
X150984Y555315D02*
Y559252D01*
X149016Y557283D02*
X152953D01*
D103*
X625479Y120949D02*
Y124886D01*
X623511Y122918D02*
X627448D01*
M02*
