G04*
G04 #@! TF.GenerationSoftware,Altium Limited,Altium Designer,25.0.2 (28)*
G04*
G04 Layer_Color=128*
%FSLAX25Y25*%
%MOIN*%
G70*
G04*
G04 #@! TF.SameCoordinates,7C83500D-BFB9-469C-A41D-0C693C3E1856*
G04*
G04*
G04 #@! TF.FilePolarity,Positive*
G04*
G01*
G75*
%ADD20R,0.11614X0.13780*%
G04:AMPARAMS|DCode=24|XSize=31.5mil|YSize=39.37mil|CornerRadius=3.94mil|HoleSize=0mil|Usage=FLASHONLY|Rotation=90.000|XOffset=0mil|YOffset=0mil|HoleType=Round|Shape=RoundedRectangle|*
%AMROUNDEDRECTD24*
21,1,0.03150,0.03150,0,0,90.0*
21,1,0.02362,0.03937,0,0,90.0*
1,1,0.00787,0.01575,0.01181*
1,1,0.00787,0.01575,-0.01181*
1,1,0.00787,-0.01575,-0.01181*
1,1,0.00787,-0.01575,0.01181*
%
%ADD24ROUNDEDRECTD24*%
G04:AMPARAMS|DCode=27|XSize=31.5mil|YSize=39.37mil|CornerRadius=3.94mil|HoleSize=0mil|Usage=FLASHONLY|Rotation=0.000|XOffset=0mil|YOffset=0mil|HoleType=Round|Shape=RoundedRectangle|*
%AMROUNDEDRECTD27*
21,1,0.03150,0.03150,0,0,0.0*
21,1,0.02362,0.03937,0,0,0.0*
1,1,0.00787,0.01181,-0.01575*
1,1,0.00787,-0.01181,-0.01575*
1,1,0.00787,-0.01181,0.01575*
1,1,0.00787,0.01181,0.01575*
%
%ADD27ROUNDEDRECTD27*%
G04:AMPARAMS|DCode=29|XSize=55.12mil|YSize=66.93mil|CornerRadius=6.89mil|HoleSize=0mil|Usage=FLASHONLY|Rotation=270.000|XOffset=0mil|YOffset=0mil|HoleType=Round|Shape=RoundedRectangle|*
%AMROUNDEDRECTD29*
21,1,0.05512,0.05315,0,0,270.0*
21,1,0.04134,0.06693,0,0,270.0*
1,1,0.01378,-0.02657,-0.02067*
1,1,0.01378,-0.02657,0.02067*
1,1,0.01378,0.02657,0.02067*
1,1,0.01378,0.02657,-0.02067*
%
%ADD29ROUNDEDRECTD29*%
G04:AMPARAMS|DCode=34|XSize=31.5mil|YSize=39.37mil|CornerRadius=3.94mil|HoleSize=0mil|Usage=FLASHONLY|Rotation=135.000|XOffset=0mil|YOffset=0mil|HoleType=Round|Shape=RoundedRectangle|*
%AMROUNDEDRECTD34*
21,1,0.03150,0.03150,0,0,135.0*
21,1,0.02362,0.03937,0,0,135.0*
1,1,0.00787,0.00278,0.01949*
1,1,0.00787,0.01949,0.00278*
1,1,0.00787,-0.00278,-0.01949*
1,1,0.00787,-0.01949,-0.00278*
%
%ADD34ROUNDEDRECTD34*%
%ADD84R,0.03543X0.01181*%
%ADD85R,0.01181X0.03543*%
%ADD86R,0.08465X0.08465*%
G04:AMPARAMS|DCode=87|XSize=50mil|YSize=82.68mil|CornerRadius=6.25mil|HoleSize=0mil|Usage=FLASHONLY|Rotation=180.000|XOffset=0mil|YOffset=0mil|HoleType=Round|Shape=RoundedRectangle|*
%AMROUNDEDRECTD87*
21,1,0.05000,0.07018,0,0,180.0*
21,1,0.03750,0.08268,0,0,180.0*
1,1,0.01250,-0.01875,0.03509*
1,1,0.01250,0.01875,0.03509*
1,1,0.01250,0.01875,-0.03509*
1,1,0.01250,-0.01875,-0.03509*
%
%ADD87ROUNDEDRECTD87*%
G04:AMPARAMS|DCode=88|XSize=80.87mil|YSize=19.68mil|CornerRadius=9.84mil|HoleSize=0mil|Usage=FLASHONLY|Rotation=0.000|XOffset=0mil|YOffset=0mil|HoleType=Round|Shape=RoundedRectangle|*
%AMROUNDEDRECTD88*
21,1,0.08087,0.00000,0,0,0.0*
21,1,0.06119,0.01968,0,0,0.0*
1,1,0.01968,0.03059,0.00000*
1,1,0.01968,-0.03059,0.00000*
1,1,0.01968,-0.03059,0.00000*
1,1,0.01968,0.03059,0.00000*
%
%ADD88ROUNDEDRECTD88*%
%ADD89R,0.08087X0.01968*%
%ADD90O,0.01378X0.07284*%
G04:AMPARAMS|DCode=91|XSize=55.12mil|YSize=66.93mil|CornerRadius=6.89mil|HoleSize=0mil|Usage=FLASHONLY|Rotation=180.000|XOffset=0mil|YOffset=0mil|HoleType=Round|Shape=RoundedRectangle|*
%AMROUNDEDRECTD91*
21,1,0.05512,0.05315,0,0,180.0*
21,1,0.04134,0.06693,0,0,180.0*
1,1,0.01378,-0.02067,0.02657*
1,1,0.01378,0.02067,0.02657*
1,1,0.01378,0.02067,-0.02657*
1,1,0.01378,-0.02067,-0.02657*
%
%ADD91ROUNDEDRECTD91*%
D20*
X614751Y122918D02*
D03*
X636208Y122918D02*
D03*
D24*
X695081Y334692D02*
D03*
Y328787D02*
D03*
X695179Y343550D02*
D03*
Y349456D02*
D03*
X657151Y98099D02*
D03*
Y92193D02*
D03*
X649277Y98099D02*
D03*
Y92193D02*
D03*
X649168Y105177D02*
D03*
Y111083D02*
D03*
X656975Y117996D02*
D03*
Y123902D02*
D03*
X657103Y111083D02*
D03*
X657103Y105177D02*
D03*
X594977Y128085D02*
D03*
Y133991D02*
D03*
X453192Y128146D02*
D03*
Y134051D02*
D03*
X311463Y128113D02*
D03*
Y134019D02*
D03*
X169705Y128233D02*
D03*
Y134138D02*
D03*
X594827Y269884D02*
D03*
Y275789D02*
D03*
X453170Y269908D02*
D03*
Y275813D02*
D03*
X311315Y269792D02*
D03*
Y275697D02*
D03*
X169579Y269961D02*
D03*
Y275867D02*
D03*
X594849Y411618D02*
D03*
Y417524D02*
D03*
X453067Y411600D02*
D03*
Y417505D02*
D03*
X311352Y411477D02*
D03*
Y417382D02*
D03*
X169709Y411693D02*
D03*
Y417599D02*
D03*
X594972Y553347D02*
D03*
Y559252D02*
D03*
X453337Y553423D02*
D03*
Y559329D02*
D03*
X311530Y553416D02*
D03*
Y559321D02*
D03*
X682701Y492889D02*
D03*
Y486983D02*
D03*
X685752Y504503D02*
D03*
Y510408D02*
D03*
X680930Y504306D02*
D03*
Y510211D02*
D03*
X630536Y523302D02*
D03*
Y517396D02*
D03*
Y470152D02*
D03*
Y464247D02*
D03*
X688803Y492889D02*
D03*
Y486983D02*
D03*
X688582Y201870D02*
D03*
Y195965D02*
D03*
X682480Y201870D02*
D03*
Y195965D02*
D03*
X680709Y213287D02*
D03*
Y219193D02*
D03*
X685532Y213484D02*
D03*
Y219390D02*
D03*
X630315Y179134D02*
D03*
Y173228D02*
D03*
Y232283D02*
D03*
Y226378D02*
D03*
X169685Y553346D02*
D03*
Y559252D02*
D03*
D27*
X681359Y346913D02*
D03*
X687265D02*
D03*
X687274Y339709D02*
D03*
X681368D02*
D03*
X637459Y309270D02*
D03*
X643365D02*
D03*
X626378Y333645D02*
D03*
X620473D02*
D03*
X626477Y341127D02*
D03*
X620572D02*
D03*
X626521Y301943D02*
D03*
X620616Y301943D02*
D03*
X637503Y340501D02*
D03*
X643408Y340501D02*
D03*
X637558Y301890D02*
D03*
X643463D02*
D03*
X626522Y309327D02*
D03*
X620616D02*
D03*
X637404Y333117D02*
D03*
X643309D02*
D03*
X614681Y99625D02*
D03*
X620586Y99625D02*
D03*
X565055Y120015D02*
D03*
X570961D02*
D03*
X577851Y112141D02*
D03*
X583756D02*
D03*
X577851Y120015D02*
D03*
X583756D02*
D03*
X436066Y120075D02*
D03*
X441971D02*
D03*
X436066Y112201D02*
D03*
X441971D02*
D03*
X423271Y120075D02*
D03*
X429176D02*
D03*
X294337Y112168D02*
D03*
X300243D02*
D03*
X281542Y120042D02*
D03*
X287448D02*
D03*
X294337D02*
D03*
X300243D02*
D03*
X139783Y120162D02*
D03*
X145689D02*
D03*
X152579Y112288D02*
D03*
X158484D02*
D03*
X152579Y120162D02*
D03*
X158484D02*
D03*
X577701Y261813D02*
D03*
X583606D02*
D03*
X564906D02*
D03*
X570811D02*
D03*
X577701Y253939D02*
D03*
X583606D02*
D03*
X423249Y261837D02*
D03*
X429154D02*
D03*
X436044D02*
D03*
X441950D02*
D03*
X436044Y253963D02*
D03*
X441950D02*
D03*
X281394Y261721D02*
D03*
X287299D02*
D03*
X294189Y253847D02*
D03*
X300095D02*
D03*
X294189Y261721D02*
D03*
X300095D02*
D03*
X139658Y261890D02*
D03*
X145563D02*
D03*
X152453D02*
D03*
X158359D02*
D03*
X152453Y254016D02*
D03*
X158359D02*
D03*
X564928Y403547D02*
D03*
X570833D02*
D03*
X577723Y395673D02*
D03*
X583629D02*
D03*
X577723Y403547D02*
D03*
X583629D02*
D03*
X435941Y395655D02*
D03*
X441847D02*
D03*
X435941Y403529D02*
D03*
X441847D02*
D03*
X423146D02*
D03*
X429051D02*
D03*
X281431Y403406D02*
D03*
X287336D02*
D03*
X294226D02*
D03*
X300132D02*
D03*
X294226Y395532D02*
D03*
X300132D02*
D03*
X152583Y395748D02*
D03*
X158488D02*
D03*
X152583Y403622D02*
D03*
X158488D02*
D03*
X139787D02*
D03*
X145693D02*
D03*
X577846Y545276D02*
D03*
X583752D02*
D03*
X577846Y537402D02*
D03*
X583752D02*
D03*
X565051Y545276D02*
D03*
X570957D02*
D03*
X423416Y545352D02*
D03*
X429321D02*
D03*
X436211Y537478D02*
D03*
X442117D02*
D03*
X436211Y545352D02*
D03*
X442117D02*
D03*
X281609Y545345D02*
D03*
X287514D02*
D03*
X294404Y537471D02*
D03*
X300310D02*
D03*
X294404Y545345D02*
D03*
X300310D02*
D03*
X670005Y486983D02*
D03*
X675910D02*
D03*
X668922Y511392D02*
D03*
X674827D02*
D03*
X669783Y195965D02*
D03*
X675689D02*
D03*
X668701Y220374D02*
D03*
X674606D02*
D03*
X139764Y545276D02*
D03*
X145669D02*
D03*
X152559D02*
D03*
X158465D02*
D03*
X152559Y537402D02*
D03*
X158465D02*
D03*
D29*
X648117Y119402D02*
D03*
Y128402D02*
D03*
X669505Y143502D02*
D03*
Y134502D02*
D03*
X679348Y143502D02*
D03*
Y134502D02*
D03*
D34*
X672838Y521059D02*
D03*
X677014Y516883D02*
D03*
X672617Y230041D02*
D03*
X676793Y225865D02*
D03*
D84*
X642190Y102233D02*
D03*
X642190Y100264D02*
D03*
Y98295D02*
D03*
X642190Y96327D02*
D03*
Y94358D02*
D03*
X628804Y94358D02*
D03*
Y96327D02*
D03*
X628804Y98295D02*
D03*
X628804Y100264D02*
D03*
Y102233D02*
D03*
D85*
X639434Y91603D02*
D03*
X637466Y91603D02*
D03*
X635497Y91603D02*
D03*
X633529D02*
D03*
X631560D02*
D03*
X631560Y104988D02*
D03*
X633529D02*
D03*
X635497Y104988D02*
D03*
X637466Y104988D02*
D03*
X639434Y104988D02*
D03*
D86*
X635497Y98295D02*
D03*
D87*
X680059Y99409D02*
D03*
X664429D02*
D03*
D88*
X584545Y128184D02*
D03*
Y130743D02*
D03*
Y133302D02*
D03*
Y135861D02*
D03*
X568007D02*
D03*
Y133302D02*
D03*
Y130743D02*
D03*
X442760Y128244D02*
D03*
Y130803D02*
D03*
Y133362D02*
D03*
Y135921D02*
D03*
X426222D02*
D03*
Y133362D02*
D03*
Y130803D02*
D03*
X301032Y128211D02*
D03*
Y130771D02*
D03*
Y133330D02*
D03*
Y135889D02*
D03*
X284493D02*
D03*
Y133330D02*
D03*
Y130771D02*
D03*
X159273Y128331D02*
D03*
Y130890D02*
D03*
Y133449D02*
D03*
Y136008D02*
D03*
X142734D02*
D03*
Y133449D02*
D03*
Y130890D02*
D03*
X584395Y269982D02*
D03*
Y272541D02*
D03*
Y275100D02*
D03*
Y277660D02*
D03*
X567857D02*
D03*
Y275100D02*
D03*
Y272541D02*
D03*
X442739Y270006D02*
D03*
Y272565D02*
D03*
Y275124D02*
D03*
Y277683D02*
D03*
X426200D02*
D03*
Y275124D02*
D03*
Y272565D02*
D03*
X300884Y269890D02*
D03*
Y272449D02*
D03*
Y275008D02*
D03*
Y277567D02*
D03*
X284345D02*
D03*
Y275008D02*
D03*
Y272449D02*
D03*
X159148Y270059D02*
D03*
Y272619D02*
D03*
Y275178D02*
D03*
Y277737D02*
D03*
X142609D02*
D03*
Y275178D02*
D03*
Y272619D02*
D03*
X584418Y411717D02*
D03*
Y414276D02*
D03*
Y416835D02*
D03*
Y419394D02*
D03*
X567879D02*
D03*
Y416835D02*
D03*
Y414276D02*
D03*
X442636Y411698D02*
D03*
Y414257D02*
D03*
Y416816D02*
D03*
Y419375D02*
D03*
X426097D02*
D03*
Y416816D02*
D03*
Y414257D02*
D03*
X300921Y411575D02*
D03*
Y414134D02*
D03*
Y416693D02*
D03*
Y419252D02*
D03*
X284382D02*
D03*
Y416693D02*
D03*
Y414134D02*
D03*
X159277Y411792D02*
D03*
Y414351D02*
D03*
Y416910D02*
D03*
Y419469D02*
D03*
X142738D02*
D03*
Y416910D02*
D03*
Y414351D02*
D03*
X584541Y553445D02*
D03*
Y556004D02*
D03*
Y558563D02*
D03*
Y561122D02*
D03*
X568002D02*
D03*
Y558563D02*
D03*
Y556004D02*
D03*
X442906Y553522D02*
D03*
Y556081D02*
D03*
Y558640D02*
D03*
Y561199D02*
D03*
X426367D02*
D03*
Y558640D02*
D03*
Y556081D02*
D03*
X301099Y553514D02*
D03*
Y556073D02*
D03*
Y558632D02*
D03*
Y561192D02*
D03*
X284560D02*
D03*
Y558632D02*
D03*
Y556073D02*
D03*
X159254Y553445D02*
D03*
Y556004D02*
D03*
Y558563D02*
D03*
Y561122D02*
D03*
X142715D02*
D03*
Y558563D02*
D03*
Y556004D02*
D03*
D89*
X568007Y128184D02*
D03*
X426222Y128244D02*
D03*
X284493Y128211D02*
D03*
X142734Y128331D02*
D03*
X567857Y269982D02*
D03*
X426200Y270006D02*
D03*
X284345Y269890D02*
D03*
X142609Y270059D02*
D03*
X567879Y411717D02*
D03*
X426097Y411698D02*
D03*
X284382Y411575D02*
D03*
X142738Y411792D02*
D03*
X568002Y553445D02*
D03*
X426367Y553522D02*
D03*
X284560Y553514D02*
D03*
X142715Y553445D02*
D03*
D90*
X556793Y120735D02*
D03*
X554234D02*
D03*
X551675D02*
D03*
X549116D02*
D03*
X546557D02*
D03*
X543998D02*
D03*
X541439D02*
D03*
X538880D02*
D03*
X536321D02*
D03*
X533762D02*
D03*
X531203D02*
D03*
X528644D02*
D03*
X526085D02*
D03*
X523526D02*
D03*
X556793Y143766D02*
D03*
X554234D02*
D03*
X551675D02*
D03*
X549116D02*
D03*
X546557D02*
D03*
X543998D02*
D03*
X541439D02*
D03*
X538880D02*
D03*
X536321D02*
D03*
X533762D02*
D03*
X531203D02*
D03*
X528644D02*
D03*
X526085D02*
D03*
X523526D02*
D03*
X415008Y120795D02*
D03*
X412449D02*
D03*
X409890D02*
D03*
X407331D02*
D03*
X404772D02*
D03*
X402213D02*
D03*
X399654D02*
D03*
X397095D02*
D03*
X394536D02*
D03*
X391977D02*
D03*
X389418D02*
D03*
X386859D02*
D03*
X384300D02*
D03*
X381741D02*
D03*
X415008Y143826D02*
D03*
X412449D02*
D03*
X409890D02*
D03*
X407331D02*
D03*
X404772D02*
D03*
X402213D02*
D03*
X399654D02*
D03*
X397095D02*
D03*
X394536D02*
D03*
X391977D02*
D03*
X389418D02*
D03*
X386859D02*
D03*
X384300D02*
D03*
X381741D02*
D03*
X273280Y120763D02*
D03*
X270721D02*
D03*
X268162D02*
D03*
X265603D02*
D03*
X263044D02*
D03*
X260485D02*
D03*
X257926D02*
D03*
X255367D02*
D03*
X252808D02*
D03*
X250249D02*
D03*
X247690D02*
D03*
X245130D02*
D03*
X242571D02*
D03*
X240012D02*
D03*
X273280Y143794D02*
D03*
X270721D02*
D03*
X268162D02*
D03*
X265603D02*
D03*
X263044D02*
D03*
X260485D02*
D03*
X257926D02*
D03*
X255367D02*
D03*
X252808D02*
D03*
X250249D02*
D03*
X247690D02*
D03*
X245130D02*
D03*
X242571D02*
D03*
X240012D02*
D03*
X131521Y120882D02*
D03*
X128962D02*
D03*
X126403D02*
D03*
X123844D02*
D03*
X121285D02*
D03*
X118726D02*
D03*
X116167D02*
D03*
X113608D02*
D03*
X111049D02*
D03*
X108490D02*
D03*
X105931D02*
D03*
X103372D02*
D03*
X100813D02*
D03*
X98254D02*
D03*
X131521Y143914D02*
D03*
X128962D02*
D03*
X126403D02*
D03*
X123844D02*
D03*
X121285D02*
D03*
X118726D02*
D03*
X116167D02*
D03*
X113608D02*
D03*
X111049D02*
D03*
X108490D02*
D03*
X105931D02*
D03*
X103372D02*
D03*
X100813D02*
D03*
X98254D02*
D03*
X556643Y262533D02*
D03*
X554084D02*
D03*
X551525D02*
D03*
X548966D02*
D03*
X546407D02*
D03*
X543848D02*
D03*
X541289D02*
D03*
X538730D02*
D03*
X536171D02*
D03*
X533612D02*
D03*
X531053D02*
D03*
X528494D02*
D03*
X525935D02*
D03*
X523376D02*
D03*
X556643Y285565D02*
D03*
X554084D02*
D03*
X551525D02*
D03*
X548966D02*
D03*
X546407D02*
D03*
X543848D02*
D03*
X541289D02*
D03*
X538730D02*
D03*
X536171D02*
D03*
X533612D02*
D03*
X531053D02*
D03*
X528494D02*
D03*
X525935D02*
D03*
X523376D02*
D03*
X414987Y262557D02*
D03*
X412428D02*
D03*
X409869D02*
D03*
X407310D02*
D03*
X404751D02*
D03*
X402192D02*
D03*
X399633D02*
D03*
X397074D02*
D03*
X394514D02*
D03*
X391955D02*
D03*
X389396D02*
D03*
X386837D02*
D03*
X384278D02*
D03*
X381719D02*
D03*
X414987Y285589D02*
D03*
X412428D02*
D03*
X409869D02*
D03*
X407310D02*
D03*
X404751D02*
D03*
X402192D02*
D03*
X399633D02*
D03*
X397074D02*
D03*
X394514D02*
D03*
X391955D02*
D03*
X389396D02*
D03*
X386837D02*
D03*
X384278D02*
D03*
X381719D02*
D03*
X273132Y262441D02*
D03*
X270573D02*
D03*
X268014D02*
D03*
X265455D02*
D03*
X262895D02*
D03*
X260336D02*
D03*
X257777D02*
D03*
X255218D02*
D03*
X252659D02*
D03*
X250100D02*
D03*
X247541D02*
D03*
X244982D02*
D03*
X242423D02*
D03*
X239864D02*
D03*
X273132Y285472D02*
D03*
X270573D02*
D03*
X268014D02*
D03*
X265455D02*
D03*
X262895D02*
D03*
X260336D02*
D03*
X257777D02*
D03*
X255218D02*
D03*
X252659D02*
D03*
X250100D02*
D03*
X247541D02*
D03*
X244982D02*
D03*
X242423D02*
D03*
X239864D02*
D03*
X131396Y262611D02*
D03*
X128837D02*
D03*
X126277D02*
D03*
X123719D02*
D03*
X121159D02*
D03*
X118600D02*
D03*
X116041D02*
D03*
X113482D02*
D03*
X110923D02*
D03*
X108364D02*
D03*
X105805D02*
D03*
X103246D02*
D03*
X100687D02*
D03*
X98128D02*
D03*
X131396Y285642D02*
D03*
X128837D02*
D03*
X126277D02*
D03*
X123719D02*
D03*
X121159D02*
D03*
X118600D02*
D03*
X116041D02*
D03*
X113482D02*
D03*
X110923D02*
D03*
X108364D02*
D03*
X105805D02*
D03*
X103246D02*
D03*
X100687D02*
D03*
X98128D02*
D03*
X556666Y404268D02*
D03*
X554107D02*
D03*
X551547D02*
D03*
X548988D02*
D03*
X546429D02*
D03*
X543870D02*
D03*
X541311D02*
D03*
X538752D02*
D03*
X536193D02*
D03*
X533634D02*
D03*
X531075D02*
D03*
X528516D02*
D03*
X525957D02*
D03*
X523398D02*
D03*
X556666Y427299D02*
D03*
X554107D02*
D03*
X551547D02*
D03*
X548988D02*
D03*
X546429D02*
D03*
X543870D02*
D03*
X541311D02*
D03*
X538752D02*
D03*
X536193D02*
D03*
X533634D02*
D03*
X531075D02*
D03*
X528516D02*
D03*
X525957D02*
D03*
X523398D02*
D03*
X414884Y404249D02*
D03*
X412325D02*
D03*
X409766D02*
D03*
X407207D02*
D03*
X404648D02*
D03*
X402089D02*
D03*
X399530D02*
D03*
X396971D02*
D03*
X394411D02*
D03*
X391852D02*
D03*
X389293D02*
D03*
X386734D02*
D03*
X384175D02*
D03*
X381616D02*
D03*
X414884Y427281D02*
D03*
X412325D02*
D03*
X409766D02*
D03*
X407207D02*
D03*
X404648D02*
D03*
X402089D02*
D03*
X399530D02*
D03*
X396971D02*
D03*
X394411D02*
D03*
X391852D02*
D03*
X389293D02*
D03*
X386734D02*
D03*
X384175D02*
D03*
X381616D02*
D03*
X273169Y404126D02*
D03*
X270610D02*
D03*
X268051D02*
D03*
X265492D02*
D03*
X262932D02*
D03*
X260373D02*
D03*
X257814D02*
D03*
X255255D02*
D03*
X252696D02*
D03*
X250137D02*
D03*
X247578D02*
D03*
X245019D02*
D03*
X242460D02*
D03*
X239901D02*
D03*
X273169Y427158D02*
D03*
X270610D02*
D03*
X268051D02*
D03*
X265492D02*
D03*
X262932D02*
D03*
X260373D02*
D03*
X257814D02*
D03*
X255255D02*
D03*
X252696D02*
D03*
X250137D02*
D03*
X247578D02*
D03*
X245019D02*
D03*
X242460D02*
D03*
X239901D02*
D03*
X131525Y404343D02*
D03*
X128966D02*
D03*
X126407D02*
D03*
X123848D02*
D03*
X121289D02*
D03*
X118730D02*
D03*
X116171D02*
D03*
X113612D02*
D03*
X111053D02*
D03*
X108494D02*
D03*
X105935D02*
D03*
X103376D02*
D03*
X100817D02*
D03*
X98257D02*
D03*
X131525Y427374D02*
D03*
X128966D02*
D03*
X126407D02*
D03*
X123848D02*
D03*
X121289D02*
D03*
X118730D02*
D03*
X116171D02*
D03*
X113612D02*
D03*
X111053D02*
D03*
X108494D02*
D03*
X105935D02*
D03*
X103376D02*
D03*
X100817D02*
D03*
X98257D02*
D03*
X556789Y545996D02*
D03*
X554230D02*
D03*
X551671D02*
D03*
X549112D02*
D03*
X546553D02*
D03*
X543994D02*
D03*
X541435D02*
D03*
X538876D02*
D03*
X536317D02*
D03*
X533757D02*
D03*
X531199D02*
D03*
X528639D02*
D03*
X526080D02*
D03*
X523521D02*
D03*
X556789Y569028D02*
D03*
X554230D02*
D03*
X551671D02*
D03*
X549112D02*
D03*
X546553D02*
D03*
X543994D02*
D03*
X541435D02*
D03*
X538876D02*
D03*
X536317D02*
D03*
X533757D02*
D03*
X531199D02*
D03*
X528639D02*
D03*
X526080D02*
D03*
X523521D02*
D03*
X415154Y546073D02*
D03*
X412595D02*
D03*
X410036D02*
D03*
X407477D02*
D03*
X404918D02*
D03*
X402359D02*
D03*
X399800D02*
D03*
X397240D02*
D03*
X394682D02*
D03*
X392122D02*
D03*
X389563D02*
D03*
X387004D02*
D03*
X384445D02*
D03*
X381886D02*
D03*
X415154Y569104D02*
D03*
X412595D02*
D03*
X410036D02*
D03*
X407477D02*
D03*
X404918D02*
D03*
X402359D02*
D03*
X399800D02*
D03*
X397240D02*
D03*
X394682D02*
D03*
X392122D02*
D03*
X389563D02*
D03*
X387004D02*
D03*
X384445D02*
D03*
X381886D02*
D03*
X273347Y546065D02*
D03*
X270788D02*
D03*
X268229D02*
D03*
X265670D02*
D03*
X263111D02*
D03*
X260552D02*
D03*
X257993D02*
D03*
X255434D02*
D03*
X252874D02*
D03*
X250315D02*
D03*
X247756D02*
D03*
X245197D02*
D03*
X242638D02*
D03*
X240079D02*
D03*
X273347Y569097D02*
D03*
X270788D02*
D03*
X268229D02*
D03*
X265670D02*
D03*
X263111D02*
D03*
X260552D02*
D03*
X257993D02*
D03*
X255434D02*
D03*
X252874D02*
D03*
X250315D02*
D03*
X247756D02*
D03*
X245197D02*
D03*
X242638D02*
D03*
X240079D02*
D03*
X131502Y545996D02*
D03*
X128943D02*
D03*
X126384D02*
D03*
X123825D02*
D03*
X121265D02*
D03*
X118706D02*
D03*
X116147D02*
D03*
X113588D02*
D03*
X111029D02*
D03*
X108470D02*
D03*
X105911D02*
D03*
X103352D02*
D03*
X100793D02*
D03*
X98234D02*
D03*
X131502Y569028D02*
D03*
X128943D02*
D03*
X126384D02*
D03*
X123825D02*
D03*
X121265D02*
D03*
X118706D02*
D03*
X116147D02*
D03*
X113588D02*
D03*
X111029D02*
D03*
X108470D02*
D03*
X105911D02*
D03*
X103352D02*
D03*
X100793D02*
D03*
X98234D02*
D03*
D91*
X665160Y121270D02*
D03*
X674160D02*
D03*
M02*
