G04*
G04 #@! TF.GenerationSoftware,Altium Limited,Altium Designer,25.0.2 (28)*
G04*
G04 Layer_Color=65535*
%FSLAX25Y25*%
%MOIN*%
G70*
G04*
G04 #@! TF.SameCoordinates,7C83500D-BFB9-469C-A41D-0C693C3E1856*
G04*
G04*
G04 #@! TF.FilePolarity,Positive*
G04*
G01*
G75*
%ADD10C,0.01000*%
%ADD11C,0.00984*%
%ADD12C,0.00394*%
%ADD13C,0.01968*%
%ADD14C,0.00500*%
%ADD15C,0.00787*%
%ADD16C,0.00600*%
G36*
X674665Y391198D02*
X674631D01*
X674631Y391232D01*
X674563D01*
Y391266D01*
X674495D01*
Y391301D01*
X674461D01*
Y391335D01*
X674392D01*
Y391369D01*
X674324D01*
Y391403D01*
X674256D01*
X674256Y391437D01*
X674222D01*
Y391471D01*
X674154D01*
Y391505D01*
X674085D01*
Y391539D01*
X674017D01*
Y391573D01*
X673983D01*
Y391607D01*
X673915D01*
Y391641D01*
X673847D01*
X673847Y391676D01*
X673813D01*
Y391710D01*
X673744D01*
Y391744D01*
X673676Y391744D01*
Y391778D01*
X673608Y391778D01*
Y391812D01*
X673574Y391812D01*
Y391846D01*
X673506D01*
Y391880D01*
X673438Y391880D01*
Y391914D01*
X673369Y391914D01*
Y391948D01*
X673335Y391948D01*
Y391983D01*
X673267D01*
Y392017D01*
X673199Y392017D01*
Y392051D01*
X673131D01*
Y392085D01*
X673097D01*
Y392119D01*
X673028D01*
Y392153D01*
X672960D01*
Y392187D01*
X672926D01*
Y392221D01*
X672858D01*
Y392255D01*
X672790D01*
Y392289D01*
X672721D01*
Y392323D01*
X672687D01*
X672687Y392358D01*
X672619D01*
Y392392D01*
X672551D01*
Y392426D01*
X672483D01*
Y392460D01*
X672449D01*
Y392494D01*
X672380Y392494D01*
Y392528D01*
X672312D01*
Y392562D01*
X672278D01*
Y392596D01*
X672210D01*
X672210Y392630D01*
X672142D01*
X672142Y392665D01*
X672074D01*
Y392699D01*
X672040Y392699D01*
Y392733D01*
X671971D01*
Y392767D01*
X671903D01*
Y392801D01*
X671835D01*
Y392835D01*
X671801D01*
Y392869D01*
X671733D01*
Y392903D01*
X671664D01*
Y392937D01*
X671596D01*
Y392971D01*
X671562D01*
Y393005D01*
X671494D01*
Y393040D01*
X671426D01*
Y393074D01*
X671392D01*
Y393108D01*
X671323D01*
X671323Y393142D01*
X671255D01*
X671255Y393176D01*
X671187D01*
Y393210D01*
X671153D01*
Y393244D01*
X671085D01*
Y393278D01*
X671017D01*
Y393312D01*
X670948D01*
Y393346D01*
X670914Y393346D01*
Y393380D01*
X670846D01*
Y393415D01*
X670778Y393415D01*
Y393449D01*
X670710D01*
Y393483D01*
X670676Y393483D01*
Y393517D01*
X670607D01*
Y393551D01*
X670539Y393551D01*
Y393585D01*
X670505D01*
Y393619D01*
X670437D01*
X670437Y393653D01*
X670369D01*
X670369Y393687D01*
X670300D01*
X670300Y393722D01*
X670266D01*
Y393756D01*
X670198D01*
X670198Y393790D01*
X670130D01*
Y393824D01*
X670062D01*
Y393858D01*
X670028D01*
Y393892D01*
X669959D01*
Y393926D01*
X669891D01*
X669891Y393960D01*
X669857D01*
Y393994D01*
X669789D01*
Y394028D01*
X669721D01*
Y394062D01*
X669653D01*
Y394097D01*
X669619D01*
Y394131D01*
X669550D01*
X669550Y394165D01*
X669482D01*
Y394199D01*
X669414D01*
Y394233D01*
X669380D01*
Y394267D01*
X669312D01*
Y394301D01*
X669243D01*
Y394335D01*
X669175D01*
Y394369D01*
X669141D01*
Y394404D01*
X669073Y394404D01*
Y394438D01*
X669005D01*
Y394472D01*
X668971D01*
Y394506D01*
X668902Y394506D01*
Y394540D01*
X668834D01*
Y394574D01*
X668766D01*
Y394608D01*
X668732D01*
X668732Y394642D01*
X668664D01*
X668664Y394676D01*
X668596D01*
Y394710D01*
X668527D01*
Y394744D01*
X668493D01*
Y394779D01*
X668425D01*
Y394813D01*
X668357D01*
Y394847D01*
X668289D01*
Y394881D01*
X668255D01*
Y394915D01*
X668186D01*
Y394949D01*
X668118D01*
Y394983D01*
X668084D01*
Y395017D01*
X668016D01*
Y395051D01*
X667948D01*
Y395086D01*
X667879D01*
Y395120D01*
X667845D01*
Y395154D01*
X667777D01*
X667777Y395188D01*
X667709Y395188D01*
Y395222D01*
X667641Y395222D01*
Y395256D01*
X667607D01*
Y395290D01*
X667538Y395290D01*
Y395324D01*
X667470Y395324D01*
Y395358D01*
X667402Y395358D01*
Y395392D01*
X667368D01*
Y395427D01*
X667300Y395427D01*
Y395461D01*
X667232D01*
X667232Y395495D01*
X667198D01*
Y395529D01*
X667129D01*
Y395563D01*
X667061D01*
Y395597D01*
X666993D01*
X666993Y395631D01*
X666959D01*
Y395665D01*
X666891D01*
X666891Y395699D01*
X666822D01*
Y395733D01*
X666754D01*
Y395767D01*
X666720D01*
Y395801D01*
X666652D01*
Y395836D01*
X666584D01*
Y395870D01*
X666550D01*
Y395904D01*
X666481Y395904D01*
Y395938D01*
X666413D01*
Y395972D01*
X666345D01*
Y396006D01*
X666311D01*
Y396040D01*
X666243D01*
Y396074D01*
X666175Y396074D01*
Y396108D01*
X666106D01*
X666106Y396143D01*
X666072Y396143D01*
X666072Y396177D01*
X666004D01*
Y396211D01*
X665936D01*
Y396245D01*
X665868D01*
X665868Y396279D01*
X665834D01*
Y396313D01*
X665765D01*
Y396347D01*
X665697D01*
Y396381D01*
X665663D01*
Y396415D01*
X665595Y396415D01*
Y396449D01*
X665527D01*
Y396483D01*
X665458D01*
Y396518D01*
X665424D01*
Y396552D01*
X665356D01*
Y396586D01*
X665288D01*
Y396620D01*
X665220D01*
Y396654D01*
X665186D01*
Y396688D01*
X665118D01*
X665118Y396722D01*
X665049D01*
Y396756D01*
X664981D01*
Y396790D01*
X664947D01*
Y396825D01*
X664879Y396825D01*
Y396859D01*
X664811D01*
Y396893D01*
X664777Y396893D01*
Y396927D01*
X664708D01*
Y396961D01*
X664640D01*
Y396995D01*
X664572D01*
Y397029D01*
X664538Y397029D01*
Y397063D01*
X664470D01*
Y397097D01*
X664401D01*
Y397131D01*
X664333D01*
X664333Y397165D01*
X664299D01*
X664299Y397200D01*
X664231D01*
X664231Y397234D01*
X664163D01*
Y397268D01*
X664129D01*
Y397302D01*
X664060D01*
Y397336D01*
X663992Y397336D01*
Y397370D01*
X663924D01*
X663924Y397404D01*
X663890D01*
Y397438D01*
X663822D01*
Y397472D01*
X663754D01*
X663754Y397506D01*
X663685D01*
Y397541D01*
X663651D01*
Y397575D01*
X663583D01*
Y397609D01*
X663515D01*
Y397643D01*
X663447D01*
Y397677D01*
X663413D01*
Y397711D01*
X663344D01*
Y397745D01*
X663276D01*
Y397779D01*
X663242D01*
Y397813D01*
X663174Y397813D01*
Y397847D01*
X663106D01*
Y397882D01*
X663037D01*
Y397916D01*
X663003D01*
Y397950D01*
X662935D01*
Y397984D01*
X662867D01*
Y398018D01*
X662799D01*
Y398052D01*
X662765D01*
X662765Y398086D01*
X662697D01*
Y398120D01*
X662628D01*
Y398154D01*
X662560D01*
X662560Y398188D01*
X662526D01*
Y398222D01*
X662458D01*
Y398257D01*
X662390D01*
Y398291D01*
X662356D01*
Y398325D01*
X662287D01*
Y398359D01*
X662219D01*
Y398393D01*
X662151D01*
Y398427D01*
X662117D01*
Y398461D01*
X662049D01*
Y398495D01*
X661980D01*
Y398529D01*
X661912D01*
Y398564D01*
X661878D01*
Y398598D01*
X661776D01*
X661776Y398564D01*
X661742D01*
X661742Y398529D01*
X661708D01*
Y398495D01*
X661673D01*
Y398461D01*
X661639D01*
X661639Y398427D01*
X661605D01*
Y398393D01*
X661571D01*
X661571Y398359D01*
X661537D01*
Y398325D01*
X661503D01*
X661503Y398291D01*
X661469D01*
Y398222D01*
X661435D01*
Y398188D01*
X661401D01*
Y398154D01*
X661367D01*
Y398120D01*
X661333D01*
Y398086D01*
X661298D01*
Y398052D01*
X661264D01*
Y398018D01*
X661230D01*
Y397984D01*
X661196D01*
Y397950D01*
X661162D01*
Y397916D01*
X661128D01*
Y397882D01*
X661094Y397882D01*
Y397847D01*
X661060D01*
Y397813D01*
X661026D01*
X661026Y397779D01*
X660991D01*
Y397745D01*
X660957Y397745D01*
Y397711D01*
X660923D01*
Y397677D01*
X660889D01*
Y397643D01*
X660855D01*
Y397609D01*
X660821D01*
Y397575D01*
X660753D01*
X660753Y397541D01*
X660719D01*
Y397506D01*
X660685D01*
Y397472D01*
X660651D01*
X660651Y397438D01*
X660616D01*
Y397404D01*
X660582D01*
X660582Y397370D01*
X660548D01*
Y397336D01*
X660514Y397336D01*
Y397302D01*
X660446D01*
Y397268D01*
X660412D01*
Y397234D01*
X660378Y397234D01*
Y397200D01*
X660344D01*
Y397165D01*
X660310Y397165D01*
Y397131D01*
X660241D01*
Y397097D01*
X660207D01*
Y397063D01*
X660173D01*
Y397029D01*
X660139Y397029D01*
X660139Y396995D01*
X660105D01*
Y396961D01*
X660037D01*
Y396927D01*
X660003D01*
Y396893D01*
X659969D01*
Y396859D01*
X659935D01*
Y396825D01*
X659866D01*
Y396790D01*
X659832D01*
Y396756D01*
X659798D01*
Y396722D01*
X659730D01*
Y396688D01*
X659696D01*
Y396654D01*
X659662Y396654D01*
Y396620D01*
X659593D01*
Y396586D01*
X659559D01*
Y396552D01*
X659491D01*
Y396518D01*
X659457D01*
Y396483D01*
X659423D01*
X659423Y396449D01*
X659355D01*
X659355Y396415D01*
X659321D01*
X659321Y396381D01*
X659253D01*
X659253Y396347D01*
X659218D01*
Y396313D01*
X659150D01*
Y396279D01*
X659116D01*
Y396245D01*
X659048D01*
Y396211D01*
X659014D01*
Y396177D01*
X658946Y396177D01*
Y396143D01*
X658912Y396143D01*
Y396108D01*
X658843Y396108D01*
Y396074D01*
X658809D01*
Y396040D01*
X658741D01*
Y396006D01*
X658673Y396006D01*
Y395972D01*
X658639Y395972D01*
Y395938D01*
X658570D01*
Y395904D01*
X658502D01*
Y395870D01*
X658468D01*
Y395836D01*
X658400D01*
X658400Y395801D01*
X658332D01*
Y395767D01*
X658264D01*
X658264Y395733D01*
X658230D01*
Y395699D01*
X658161D01*
Y395665D01*
X658093D01*
X658093Y395631D01*
X658025D01*
Y395597D01*
X657957Y395597D01*
Y395563D01*
X657889D01*
Y395529D01*
X657820D01*
Y395495D01*
X657752D01*
Y395461D01*
X657718D01*
X657718Y395427D01*
X657650D01*
Y395392D01*
X657548D01*
X657548Y395358D01*
X657479D01*
Y395324D01*
X657411Y395324D01*
Y395290D01*
X657343Y395290D01*
Y395256D01*
X657275Y395256D01*
Y395222D01*
X657207Y395222D01*
Y395188D01*
X657138Y395188D01*
Y395154D01*
X657036D01*
Y395120D01*
X656968D01*
Y395086D01*
X656866D01*
Y395051D01*
X656797D01*
Y395017D01*
X656729D01*
Y394983D01*
X656627D01*
Y394949D01*
X656559D01*
Y394915D01*
X656456D01*
X656456Y394881D01*
X656354D01*
Y394847D01*
X656252D01*
Y394813D01*
X656184D01*
Y394779D01*
X656081D01*
Y394744D01*
X655979D01*
Y394710D01*
X655877D01*
X655877Y394676D01*
X655774D01*
Y394642D01*
X655672D01*
X655672Y394608D01*
X655536Y394608D01*
Y394574D01*
X655434D01*
Y394540D01*
X655331D01*
Y394506D01*
X655195Y394506D01*
Y394472D01*
X655058D01*
Y394438D01*
X654922D01*
Y394404D01*
X654786D01*
Y394369D01*
X654649Y394369D01*
Y394335D01*
X654479D01*
Y394301D01*
X654308D01*
Y394267D01*
X654138D01*
Y394233D01*
X653967D01*
Y394199D01*
X653728D01*
Y394165D01*
X653490D01*
X653490Y394131D01*
X653251D01*
Y394097D01*
X652876D01*
Y394062D01*
X652433D01*
Y394028D01*
X650967D01*
Y394062D01*
X650489D01*
Y394097D01*
X650182D01*
Y394131D01*
X649875D01*
X649875Y394165D01*
X649671D01*
Y394199D01*
X649466D01*
Y394233D01*
X649228D01*
Y394267D01*
X649091D01*
Y394301D01*
X648921D01*
Y394335D01*
X648750D01*
Y394369D01*
X648614D01*
Y394404D01*
X648477D01*
Y394438D01*
X648341D01*
Y394472D01*
X648205D01*
Y394506D01*
X648068D01*
X648068Y394540D01*
X647966D01*
Y394574D01*
X647829D01*
Y394608D01*
X647727D01*
Y394642D01*
X647625D01*
Y394676D01*
X647523D01*
Y394710D01*
X647420D01*
Y394744D01*
X647318D01*
X647318Y394779D01*
X647216D01*
Y394813D01*
X647113D01*
Y394847D01*
X647045D01*
Y394881D01*
X646943D01*
Y394915D01*
X646841D01*
Y394949D01*
X646738D01*
Y394983D01*
X646670Y394983D01*
Y395017D01*
X646602D01*
Y395051D01*
X646500D01*
X646500Y395086D01*
X646431D01*
Y395120D01*
X646363D01*
Y395154D01*
X646295D01*
X646295Y395188D01*
X646193Y395188D01*
Y395222D01*
X646125D01*
Y395256D01*
X646056D01*
Y395290D01*
X645988D01*
Y395324D01*
X645920Y395324D01*
Y395358D01*
X645852Y395358D01*
Y395392D01*
X645784D01*
Y395427D01*
X645715D01*
Y395461D01*
X645647D01*
Y395495D01*
X645545D01*
Y395529D01*
X645511D01*
Y395563D01*
X645443D01*
Y395597D01*
X645374D01*
Y395631D01*
X645306D01*
X645306Y395665D01*
X645238D01*
Y395699D01*
X645170D01*
Y395733D01*
X645136D01*
Y395767D01*
X645068D01*
Y395801D01*
X644999D01*
X644999Y395836D01*
X644931D01*
Y395870D01*
X644897D01*
Y395904D01*
X644829D01*
Y395938D01*
X644761D01*
X644761Y395972D01*
X644727D01*
X644727Y396006D01*
X644658Y396006D01*
Y396040D01*
X644590D01*
Y396074D01*
X644556Y396074D01*
Y396108D01*
X644488Y396108D01*
Y396143D01*
X644454D01*
Y396177D01*
X644385D01*
Y396211D01*
X644351D01*
Y396245D01*
X644283Y396245D01*
Y396279D01*
X644249D01*
Y396313D01*
X644181D01*
Y396347D01*
X644147D01*
Y396381D01*
X644079D01*
Y396415D01*
X644044D01*
Y396449D01*
X643976D01*
Y396483D01*
X643942D01*
Y396518D01*
X643874D01*
Y396552D01*
X643840D01*
X643840Y396586D01*
X643806D01*
Y396620D01*
X643738D01*
Y396654D01*
X643704D01*
Y396688D01*
X643669D01*
Y396722D01*
X643601Y396722D01*
Y396756D01*
X643567D01*
Y396790D01*
X643533D01*
Y396825D01*
X643465D01*
Y396859D01*
X643431D01*
Y396893D01*
X643397Y396893D01*
Y396927D01*
X643328D01*
Y396961D01*
X643294D01*
Y396995D01*
X643260Y396995D01*
Y397029D01*
X643226D01*
Y397063D01*
X643192D01*
Y397097D01*
X643124D01*
X643124Y397131D01*
X643090D01*
Y397165D01*
X643056D01*
Y397200D01*
X643022D01*
X643022Y397234D01*
X642987D01*
X642987Y397268D01*
X642919D01*
Y397302D01*
X642885D01*
Y397336D01*
X642851D01*
X642851Y397370D01*
X642817D01*
X642817Y397404D01*
X642783D01*
Y397438D01*
X642749D01*
X642749Y397472D01*
X642715D01*
Y397506D01*
X642681D01*
Y397541D01*
X642612D01*
Y397575D01*
X642578Y397575D01*
Y397609D01*
X642544D01*
Y397643D01*
X642510D01*
Y397677D01*
X642476D01*
Y397711D01*
X642442D01*
Y397745D01*
X642408D01*
Y397779D01*
X642374D01*
Y397813D01*
X642340Y397813D01*
Y397847D01*
X642306D01*
Y397882D01*
X642271D01*
Y397916D01*
X642237D01*
Y397950D01*
X642203D01*
Y397984D01*
X642169D01*
X642169Y398018D01*
X642135D01*
Y398052D01*
X642101D01*
X642101Y398086D01*
X642067D01*
Y398120D01*
X642033D01*
Y398154D01*
X641999D01*
Y398188D01*
X641964D01*
Y398222D01*
X641930D01*
Y398257D01*
X641896D01*
Y398291D01*
X641862D01*
X641862Y398325D01*
X641828D01*
Y398359D01*
X641794D01*
Y398393D01*
X641760D01*
Y398461D01*
X641726Y398461D01*
Y398495D01*
X641692D01*
Y398529D01*
X641658D01*
Y398564D01*
X641623Y398564D01*
Y398598D01*
X641589D01*
Y398632D01*
X641555Y398632D01*
Y398666D01*
X641521D01*
Y398700D01*
X641487Y398700D01*
Y398768D01*
X641453Y398768D01*
Y398802D01*
X641419D01*
Y398836D01*
X641385D01*
X641385Y398870D01*
X641351D01*
Y398904D01*
X641317D01*
X641317Y398973D01*
X641283D01*
X641283Y399007D01*
X641248D01*
Y399041D01*
X641214D01*
Y399075D01*
X641180D01*
Y399109D01*
X641146D01*
Y399177D01*
X641112D01*
X641112Y399211D01*
X641078D01*
Y399246D01*
X641044D01*
Y399314D01*
X641010Y399314D01*
Y399348D01*
X640976D01*
Y399382D01*
X640942Y399382D01*
Y399450D01*
X640907D01*
Y399484D01*
X640873Y399484D01*
Y399518D01*
X640839D01*
Y399587D01*
X640805D01*
Y399621D01*
X640771D01*
Y399655D01*
X640737D01*
Y399723D01*
X640703D01*
Y399757D01*
X640669Y399757D01*
Y399825D01*
X640635D01*
X640635Y399859D01*
X640601D01*
Y399927D01*
X640566D01*
Y399962D01*
X640532D01*
X640532Y400030D01*
X640498D01*
X640498Y400064D01*
X640464D01*
X640464Y400132D01*
X640430D01*
X640430Y400166D01*
X640396D01*
Y400234D01*
X640362D01*
Y400268D01*
X640328D01*
Y400337D01*
X640294D01*
Y400371D01*
X640260D01*
Y400439D01*
X640226D01*
Y400507D01*
X640191Y400507D01*
Y400541D01*
X640157D01*
Y400609D01*
X640123D01*
Y400678D01*
X640089D01*
Y400712D01*
X640055D01*
Y400780D01*
X640021D01*
Y400848D01*
X639987D01*
Y400916D01*
X639953D01*
Y400950D01*
X639919D01*
Y401019D01*
X639885D01*
Y401087D01*
X639850D01*
Y401155D01*
X639816Y401155D01*
Y401223D01*
X639782Y401223D01*
Y401291D01*
X639748Y401291D01*
Y401360D01*
X639714D01*
Y401428D01*
X639680D01*
X639680Y401496D01*
X639646D01*
X639646Y401564D01*
X639612D01*
X639612Y401632D01*
X639578D01*
X639578Y401701D01*
X639543D01*
X639543Y401769D01*
X639509D01*
Y401837D01*
X639475D01*
Y401905D01*
X639441D01*
Y401973D01*
X639407D01*
Y402076D01*
X639373Y402076D01*
Y402144D01*
X639339Y402144D01*
Y402212D01*
X639305D01*
Y402314D01*
X639271Y402314D01*
Y402383D01*
X639237D01*
Y402485D01*
X639202Y402485D01*
Y402553D01*
X639168D01*
Y402655D01*
X639134D01*
Y402724D01*
X639100Y402724D01*
Y402826D01*
X639066D01*
Y402928D01*
X639032Y402928D01*
Y403030D01*
X638998Y403030D01*
Y403133D01*
X638964D01*
X638964Y403201D01*
X638930D01*
Y403303D01*
X638896D01*
Y403440D01*
X638862D01*
Y403542D01*
X638827D01*
Y403644D01*
X638793D01*
Y403747D01*
X638759D01*
Y403883D01*
X638725D01*
Y403985D01*
X638691D01*
X638691Y404156D01*
X638657D01*
Y404292D01*
X638623D01*
X638623Y404428D01*
X638589Y404428D01*
Y404565D01*
X638555D01*
Y404735D01*
X638521D01*
Y404906D01*
X638486D01*
Y405076D01*
X638452D01*
Y405247D01*
X638418D01*
Y405485D01*
X638384D01*
Y405724D01*
X638350Y405724D01*
X638350Y405963D01*
X638316D01*
Y406338D01*
X638282D01*
Y406781D01*
X638248Y406781D01*
Y408282D01*
X638282Y408282D01*
Y408725D01*
X638316D01*
Y409066D01*
X638350D01*
X638350Y409339D01*
X638384D01*
Y409577D01*
X638418D01*
Y409782D01*
X638452D01*
Y409987D01*
X638486D01*
Y410157D01*
X638521D01*
Y410327D01*
X638555D01*
Y410498D01*
X638589D01*
Y410634D01*
X638623Y410634D01*
Y410771D01*
X638657Y410771D01*
Y410907D01*
X638691D01*
Y411044D01*
X638725D01*
Y411146D01*
X638759D01*
X638759Y411248D01*
X638793D01*
X638793Y411385D01*
X638827Y411385D01*
Y411487D01*
X638862D01*
Y411589D01*
X638896Y411589D01*
Y411726D01*
X638930D01*
Y411794D01*
X638964D01*
Y411896D01*
X638998D01*
Y411998D01*
X639032D01*
X639032Y412101D01*
X639066D01*
Y412203D01*
X639100D01*
Y412305D01*
X639134Y412305D01*
Y412373D01*
X639168D01*
Y412476D01*
X639202D01*
Y412544D01*
X639237D01*
Y412646D01*
X639271D01*
Y412714D01*
X639305D01*
Y412817D01*
X639339D01*
X639339Y412885D01*
X639373D01*
Y412953D01*
X639407D01*
Y413021D01*
X639441D01*
Y413090D01*
X639475D01*
Y413158D01*
X639509D01*
Y413260D01*
X639543Y413260D01*
X639543Y413328D01*
X639578D01*
X639578Y413396D01*
X639612D01*
Y413465D01*
X639646D01*
Y413533D01*
X639680D01*
Y413601D01*
X639714D01*
X639714Y413669D01*
X639748D01*
Y413737D01*
X639782D01*
X639782Y413806D01*
X639816D01*
Y413874D01*
X639850D01*
Y413942D01*
X639885D01*
Y413976D01*
X639919Y413976D01*
Y414044D01*
X639953Y414044D01*
Y414113D01*
X639987D01*
Y414181D01*
X640021D01*
Y414215D01*
X640055D01*
Y414283D01*
X640089D01*
Y414351D01*
X640123D01*
Y414419D01*
X640157D01*
Y414454D01*
X640191D01*
Y414522D01*
X640226D01*
Y414590D01*
X640260D01*
Y414624D01*
X640294D01*
Y414692D01*
X640328D01*
Y414726D01*
X640362D01*
X640362Y414794D01*
X640396D01*
Y414829D01*
X640430Y414829D01*
X640430Y414897D01*
X640464D01*
X640464Y414931D01*
X640498Y414931D01*
X640498Y414999D01*
X640532Y414999D01*
Y415067D01*
X640566D01*
Y415101D01*
X640601D01*
Y415135D01*
X640635D01*
Y415204D01*
X640669D01*
Y415238D01*
X640703D01*
X640703Y415306D01*
X640737D01*
Y415340D01*
X640771D01*
Y415374D01*
X640805D01*
Y415442D01*
X640839D01*
Y415476D01*
X640873Y415476D01*
Y415545D01*
X640907D01*
Y415579D01*
X640942D01*
Y415613D01*
X640976D01*
Y415681D01*
X641010D01*
Y415715D01*
X641044Y415715D01*
Y415749D01*
X641078D01*
Y415783D01*
X641112Y415783D01*
Y415851D01*
X641146Y415851D01*
Y415886D01*
X641180Y415886D01*
Y415920D01*
X641214Y415920D01*
Y415988D01*
X641248D01*
X641248Y416022D01*
X641283D01*
Y416056D01*
X641317D01*
X641317Y416090D01*
X641351D01*
Y416124D01*
X641385D01*
Y416192D01*
X641419D01*
Y416227D01*
X641453D01*
Y416261D01*
X641487D01*
Y416295D01*
X641521D01*
Y416329D01*
X641555D01*
Y416363D01*
X641589D01*
Y416431D01*
X641623D01*
Y416465D01*
X641658Y416465D01*
Y416499D01*
X641692D01*
Y416534D01*
X641726Y416534D01*
Y416568D01*
X641760D01*
Y416602D01*
X641794D01*
Y416636D01*
X641828Y416636D01*
Y416670D01*
X641862Y416670D01*
Y416704D01*
X641896Y416704D01*
Y416738D01*
X641930D01*
Y416772D01*
X641964D01*
Y416840D01*
X641999Y416840D01*
Y416875D01*
X642033D01*
Y416909D01*
X642067D01*
X642067Y416943D01*
X642101D01*
X642101Y416977D01*
X642135D01*
Y417011D01*
X642169D01*
X642169Y417045D01*
X642203D01*
X642203Y417079D01*
X642237D01*
Y417113D01*
X642271D01*
Y417147D01*
X642306D01*
Y417181D01*
X642340D01*
Y417215D01*
X642374D01*
X642374Y417250D01*
X642408D01*
Y417284D01*
X642442Y417284D01*
Y417318D01*
X642510D01*
Y417352D01*
X642544D01*
Y417386D01*
X642578Y417386D01*
Y417420D01*
X642612D01*
Y417454D01*
X642647Y417454D01*
Y417488D01*
X642681D01*
Y417522D01*
X642715Y417522D01*
Y417556D01*
X642749D01*
Y417591D01*
X642783Y417591D01*
Y417625D01*
X642851D01*
Y417659D01*
X642885D01*
Y417693D01*
X642919D01*
Y417727D01*
X642953D01*
Y417761D01*
X642987D01*
Y417795D01*
X643022D01*
Y417829D01*
X643056D01*
Y417863D01*
X643124D01*
Y417897D01*
X643158D01*
Y417932D01*
X643192D01*
Y417966D01*
X643226D01*
Y418000D01*
X643294D01*
Y418034D01*
X643328D01*
Y418068D01*
X643363D01*
Y418102D01*
X643397D01*
Y418136D01*
X643465D01*
Y418170D01*
X643499D01*
Y418204D01*
X643533Y418204D01*
Y418238D01*
X643567D01*
Y418272D01*
X643635Y418272D01*
Y418307D01*
X643669Y418307D01*
Y418341D01*
X643738Y418341D01*
Y418375D01*
X643772D01*
Y418409D01*
X643806D01*
X643806Y418443D01*
X643874D01*
X643874Y418477D01*
X643908D01*
Y418511D01*
X643942D01*
X643942Y418545D01*
X644010D01*
Y418579D01*
X644044Y418579D01*
Y418613D01*
X644113D01*
Y418648D01*
X644147D01*
Y418682D01*
X644215D01*
Y418716D01*
X644249Y418716D01*
Y418750D01*
X644317D01*
Y418784D01*
X644351D01*
Y418818D01*
X644420D01*
Y418852D01*
X644454D01*
Y418886D01*
X644522D01*
Y418920D01*
X644556D01*
Y418955D01*
X644624D01*
Y418989D01*
X644692D01*
X644692Y419023D01*
X644727D01*
Y419057D01*
X644795D01*
Y419091D01*
X644863D01*
Y419125D01*
X644897D01*
Y419159D01*
X644965D01*
Y419193D01*
X645033D01*
Y419227D01*
X645102Y419227D01*
Y419261D01*
X645136D01*
Y419296D01*
X645204D01*
Y419330D01*
X645272D01*
Y419364D01*
X645340D01*
Y419398D01*
X645408Y419398D01*
Y419432D01*
X645477D01*
X645477Y419466D01*
X645545D01*
Y419500D01*
X645613D01*
Y419534D01*
X645647D01*
X645647Y419568D01*
X645715D01*
Y419602D01*
X645784D01*
Y419636D01*
X645886D01*
Y419671D01*
X645954D01*
Y419705D01*
X646022D01*
Y419739D01*
X646090D01*
Y419773D01*
X646159Y419773D01*
Y419807D01*
X646227D01*
Y419841D01*
X646329D01*
Y419875D01*
X646397D01*
X646397Y419909D01*
X646465D01*
X646465Y419943D01*
X646568D01*
Y419978D01*
X646636D01*
Y420012D01*
X646738D01*
Y420046D01*
X646806D01*
Y420080D01*
X646909D01*
Y420114D01*
X646977Y420114D01*
Y420148D01*
X647079D01*
Y420182D01*
X647182D01*
Y420216D01*
X647284D01*
Y420250D01*
X647386D01*
X647386Y420284D01*
X647488D01*
Y420319D01*
X647591D01*
Y420353D01*
X647693D01*
Y420387D01*
X647795D01*
Y420421D01*
X647932D01*
Y420455D01*
X648034D01*
Y420489D01*
X648136D01*
X648136Y420523D01*
X648273D01*
Y420557D01*
X648409D01*
Y420591D01*
X648546D01*
Y420625D01*
X648716D01*
Y420659D01*
X648852D01*
Y420693D01*
X648989D01*
X648989Y420728D01*
X649125D01*
Y420762D01*
X649159Y420762D01*
Y420728D01*
X649193D01*
Y420523D01*
X649228D01*
Y420319D01*
X649262Y420318D01*
Y420114D01*
X649296D01*
Y419943D01*
X649330Y419943D01*
Y419739D01*
X649364D01*
Y419534D01*
X649398Y419534D01*
Y419330D01*
X649432D01*
Y419125D01*
X649466D01*
Y418920D01*
X649500D01*
Y418716D01*
X649534D01*
Y418511D01*
X649569D01*
Y418307D01*
X649603D01*
Y418238D01*
X649534D01*
Y418204D01*
X649398D01*
Y418170D01*
X649262D01*
Y418136D01*
X649125D01*
Y418102D01*
X648989D01*
Y418068D01*
X648818D01*
Y418034D01*
X648716D01*
Y418000D01*
X648580D01*
Y417966D01*
X648477Y417966D01*
X648477Y417932D01*
X648341D01*
Y417897D01*
X648239D01*
Y417863D01*
X648136D01*
Y417829D01*
X648034D01*
Y417795D01*
X647932D01*
Y417761D01*
X647864D01*
Y417727D01*
X647761D01*
Y417693D01*
X647659D01*
Y417659D01*
X647591Y417659D01*
Y417625D01*
X647488D01*
Y417591D01*
X647420Y417591D01*
Y417556D01*
X647318Y417556D01*
Y417522D01*
X647250D01*
X647250Y417488D01*
X647182D01*
Y417454D01*
X647079Y417454D01*
Y417420D01*
X647011D01*
Y417386D01*
X646943D01*
Y417352D01*
X646875D01*
Y417318D01*
X646806D01*
Y417284D01*
X646738D01*
Y417250D01*
X646670D01*
Y417215D01*
X646602D01*
X646602Y417181D01*
X646534D01*
Y417147D01*
X646465D01*
Y417113D01*
X646397D01*
Y417079D01*
X646363D01*
Y417045D01*
X646295D01*
X646295Y417011D01*
X646227D01*
X646227Y416977D01*
X646159D01*
Y416943D01*
X646090D01*
Y416909D01*
X646056D01*
Y416875D01*
X645988D01*
Y416840D01*
X645920Y416840D01*
Y416806D01*
X645886Y416806D01*
Y416772D01*
X645818D01*
Y416738D01*
X645784D01*
Y416704D01*
X645715D01*
Y416670D01*
X645681Y416670D01*
Y416636D01*
X645613Y416636D01*
Y416602D01*
X645545D01*
X645545Y416568D01*
X645511D01*
Y416534D01*
X645443D01*
Y416499D01*
X645408D01*
Y416465D01*
X645340Y416465D01*
Y416431D01*
X645306D01*
X645306Y416397D01*
X645272D01*
Y416363D01*
X645204D01*
Y416329D01*
X645170D01*
Y416295D01*
X645102Y416295D01*
Y416261D01*
X645068D01*
Y416227D01*
X645033D01*
Y416192D01*
X644965D01*
Y416158D01*
X644931D01*
X644931Y416124D01*
X644897D01*
Y416090D01*
X644863D01*
Y416056D01*
X644795D01*
Y416022D01*
X644761D01*
X644761Y415988D01*
X644727D01*
X644727Y415954D01*
X644692D01*
X644692Y415920D01*
X644624D01*
Y415886D01*
X644590D01*
Y415851D01*
X644556Y415851D01*
Y415817D01*
X644522Y415817D01*
Y415783D01*
X644488D01*
Y415749D01*
X644420Y415749D01*
Y415715D01*
X644385D01*
Y415681D01*
X644351D01*
Y415647D01*
X644317D01*
Y415613D01*
X644283D01*
Y415579D01*
X644249D01*
Y415545D01*
X644215D01*
Y415511D01*
X644181D01*
Y415476D01*
X644147D01*
Y415442D01*
X644113D01*
Y415408D01*
X644044D01*
Y415374D01*
X644010D01*
Y415340D01*
X643976D01*
Y415306D01*
X643942D01*
X643942Y415272D01*
X643908D01*
Y415238D01*
X643874D01*
X643874Y415204D01*
X643840D01*
Y415169D01*
X643806D01*
X643806Y415135D01*
X643772D01*
Y415101D01*
X643738D01*
Y415067D01*
X643704D01*
Y414999D01*
X643669D01*
Y414965D01*
X643635D01*
Y414931D01*
X643601D01*
Y414897D01*
X643567Y414897D01*
Y414863D01*
X643533D01*
Y414829D01*
X643499D01*
Y414794D01*
X643465D01*
Y414760D01*
X643431D01*
Y414726D01*
X643397D01*
Y414692D01*
X643363D01*
Y414658D01*
X643328D01*
Y414590D01*
X643294D01*
Y414556D01*
X643260D01*
Y414522D01*
X643226D01*
Y414488D01*
X643192D01*
Y414454D01*
X643158D01*
Y414419D01*
X643124D01*
Y414351D01*
X643090D01*
Y414317D01*
X643056D01*
Y414283D01*
X643022D01*
Y414215D01*
X642987D01*
Y414181D01*
X642953D01*
Y414147D01*
X642919Y414147D01*
Y414113D01*
X642885D01*
Y414044D01*
X642851D01*
Y414010D01*
X642817Y414010D01*
Y413976D01*
X642783D01*
Y413908D01*
X642749D01*
Y413874D01*
X642715D01*
Y413806D01*
X642681Y413806D01*
Y413771D01*
X642647D01*
Y413737D01*
X642612Y413737D01*
Y413669D01*
X642578D01*
X642578Y413635D01*
X642544D01*
Y413567D01*
X642510D01*
Y413533D01*
X642476D01*
Y413465D01*
X642442D01*
Y413431D01*
X642408Y413431D01*
Y413362D01*
X642374D01*
Y413328D01*
X642340D01*
Y413260D01*
X642306D01*
Y413192D01*
X642271D01*
Y413158D01*
X642237D01*
Y413090D01*
X642203D01*
Y413021D01*
X642169D01*
Y412987D01*
X642135D01*
Y412919D01*
X642101D01*
Y412851D01*
X642067D01*
Y412783D01*
X642033D01*
Y412748D01*
X641999D01*
X641999Y412680D01*
X641964D01*
Y412612D01*
X641930D01*
Y412544D01*
X641896D01*
Y412476D01*
X641862D01*
Y412408D01*
X641828Y412407D01*
Y412339D01*
X641794Y412339D01*
Y412271D01*
X641760D01*
Y412203D01*
X641726D01*
Y412135D01*
X641692D01*
Y412067D01*
X641658Y412067D01*
Y411998D01*
X641623D01*
X641623Y411896D01*
X641589D01*
X641589Y411828D01*
X641555D01*
Y411760D01*
X641521D01*
X641521Y411657D01*
X641487D01*
Y411589D01*
X641453Y411589D01*
Y411487D01*
X641419D01*
Y411419D01*
X641385D01*
Y411316D01*
X641351D01*
X641351Y411248D01*
X641317D01*
Y411146D01*
X641283D01*
Y411044D01*
X641248D01*
Y410941D01*
X641214D01*
Y410839D01*
X641180D01*
X641180Y410737D01*
X641146D01*
Y410600D01*
X641112D01*
Y410498D01*
X641078Y410498D01*
Y410362D01*
X641044D01*
Y410259D01*
X641010D01*
X641010Y410123D01*
X640976D01*
Y409952D01*
X640942Y409952D01*
Y409816D01*
X640907Y409816D01*
Y409646D01*
X640873Y409646D01*
Y409475D01*
X640839D01*
Y409270D01*
X640805D01*
Y409066D01*
X640771D01*
Y408827D01*
X640737D01*
Y408520D01*
X640703D01*
Y408009D01*
X640669D01*
Y406986D01*
X640703D01*
Y406508D01*
X640737D01*
Y406168D01*
X640771Y406168D01*
Y405895D01*
X640805D01*
Y405690D01*
X640839D01*
Y405485D01*
X640873D01*
Y405315D01*
X640907D01*
Y405145D01*
X640942D01*
Y405008D01*
X640976D01*
Y404838D01*
X641010D01*
Y404701D01*
X641044D01*
Y404599D01*
X641078Y404599D01*
Y404497D01*
X641112D01*
Y404360D01*
X641146D01*
Y404258D01*
X641180D01*
Y404156D01*
X641214D01*
Y404053D01*
X641248D01*
Y403951D01*
X641283D01*
X641283Y403849D01*
X641317D01*
X641317Y403747D01*
X641351D01*
Y403644D01*
X641385D01*
Y403576D01*
X641419D01*
Y403474D01*
X641453D01*
Y403371D01*
X641487D01*
Y403303D01*
X641521D01*
Y403201D01*
X641555D01*
Y403133D01*
X641589Y403133D01*
Y403064D01*
X641623Y403065D01*
Y402996D01*
X641658D01*
Y402928D01*
X641692D01*
Y402826D01*
X641726D01*
Y402758D01*
X641760D01*
Y402689D01*
X641794Y402690D01*
Y402621D01*
X641828D01*
X641828Y402553D01*
X641862D01*
X641862Y402485D01*
X641896D01*
Y402417D01*
X641930D01*
Y402349D01*
X641964D01*
Y402280D01*
X641999D01*
X641999Y402212D01*
X642033D01*
Y402178D01*
X642067D01*
Y402110D01*
X642101Y402110D01*
Y402042D01*
X642135Y402042D01*
Y402007D01*
X642169D01*
Y401939D01*
X642203D01*
X642203Y401871D01*
X642237D01*
Y401803D01*
X642271D01*
X642271Y401769D01*
X642306D01*
Y401701D01*
X642340D01*
Y401666D01*
X642374D01*
Y401598D01*
X642408D01*
Y401564D01*
X642442D01*
Y401496D01*
X642476Y401496D01*
Y401428D01*
X642510D01*
Y401394D01*
X642544D01*
Y401326D01*
X642578D01*
Y401291D01*
X642612Y401291D01*
Y401257D01*
X642647D01*
Y401189D01*
X642681D01*
Y401155D01*
X642715Y401155D01*
Y401087D01*
X642749D01*
Y401053D01*
X642783Y401053D01*
Y401019D01*
X642817D01*
Y400950D01*
X642851D01*
X642851Y400916D01*
X642885D01*
Y400882D01*
X642919D01*
X642919Y400814D01*
X642953D01*
Y400780D01*
X642987D01*
Y400746D01*
X643022D01*
X643022Y400712D01*
X643056D01*
Y400643D01*
X643090D01*
Y400609D01*
X643124D01*
X643124Y400575D01*
X643158D01*
Y400507D01*
X643192Y400507D01*
Y400473D01*
X643226D01*
Y400439D01*
X643260D01*
Y400405D01*
X643294D01*
Y400371D01*
X643328D01*
Y400337D01*
X643363D01*
Y400303D01*
X643397Y400303D01*
Y400234D01*
X643431D01*
Y400200D01*
X643465D01*
Y400166D01*
X643499D01*
Y400132D01*
X643533D01*
Y400098D01*
X643567D01*
Y400064D01*
X643601D01*
X643601Y400030D01*
X643635D01*
Y399996D01*
X643669D01*
X643669Y399962D01*
X643704D01*
Y399927D01*
X643738D01*
Y399893D01*
X643772D01*
Y399859D01*
X643806D01*
Y399791D01*
X643840D01*
Y399757D01*
X643874D01*
X643874Y399723D01*
X643908D01*
Y399689D01*
X643976D01*
Y399655D01*
X644010D01*
Y399621D01*
X644044D01*
Y399587D01*
X644079D01*
Y399552D01*
X644113Y399552D01*
Y399518D01*
X644147D01*
Y399484D01*
X644181D01*
Y399450D01*
X644215D01*
Y399416D01*
X644249D01*
Y399382D01*
X644283D01*
Y399348D01*
X644317D01*
Y399314D01*
X644351Y399314D01*
Y399280D01*
X644420D01*
Y399246D01*
X644454D01*
Y399211D01*
X644488D01*
X644488Y399177D01*
X644522D01*
Y399143D01*
X644556D01*
X644556Y399109D01*
X644590D01*
X644590Y399075D01*
X644624D01*
Y399041D01*
X644692D01*
X644692Y399007D01*
X644727D01*
X644727Y398973D01*
X644761D01*
X644761Y398939D01*
X644829D01*
Y398904D01*
X644863D01*
Y398870D01*
X644897D01*
Y398836D01*
X644931D01*
Y398802D01*
X644999Y398802D01*
Y398768D01*
X645033D01*
Y398734D01*
X645068D01*
Y398700D01*
X645136D01*
Y398666D01*
X645170Y398666D01*
Y398632D01*
X645204Y398632D01*
Y398598D01*
X645272D01*
Y398564D01*
X645306D01*
Y398529D01*
X645374D01*
Y398495D01*
X645408D01*
Y398461D01*
X645443D01*
Y398427D01*
X645511D01*
Y398393D01*
X645545D01*
X645545Y398359D01*
X645613D01*
X645613Y398325D01*
X645681D01*
Y398291D01*
X645715D01*
Y398257D01*
X645784D01*
Y398222D01*
X645818D01*
Y398188D01*
X645886D01*
Y398154D01*
X645920D01*
X645920Y398120D01*
X645988D01*
Y398086D01*
X646056Y398086D01*
Y398052D01*
X646125D01*
Y398018D01*
X646159Y398018D01*
Y397984D01*
X646227D01*
X646227Y397950D01*
X646295D01*
X646295Y397916D01*
X646329D01*
Y397882D01*
X646397Y397882D01*
Y397847D01*
X646465D01*
Y397813D01*
X646534D01*
Y397779D01*
X646602D01*
Y397745D01*
X646670Y397745D01*
Y397711D01*
X646738Y397711D01*
Y397677D01*
X646806D01*
Y397643D01*
X646875D01*
Y397609D01*
X646943D01*
Y397575D01*
X647045D01*
Y397541D01*
X647113D01*
Y397506D01*
X647182D01*
Y397472D01*
X647250D01*
X647250Y397438D01*
X647318D01*
Y397404D01*
X647420D01*
X647420Y397370D01*
X647488D01*
X647488Y397336D01*
X647591D01*
X647591Y397302D01*
X647659D01*
Y397268D01*
X647761D01*
Y397234D01*
X647829Y397234D01*
Y397200D01*
X647932D01*
Y397165D01*
X648034D01*
Y397131D01*
X648136D01*
Y397097D01*
X648239Y397097D01*
Y397063D01*
X648341D01*
Y397029D01*
X648477D01*
Y396995D01*
X648580D01*
Y396961D01*
X648716D01*
Y396927D01*
X648818D01*
Y396893D01*
X648955D01*
Y396859D01*
X649125D01*
Y396825D01*
X649262D01*
Y396790D01*
X649432D01*
Y396756D01*
X649603D01*
Y396722D01*
X649807D01*
X649807Y396688D01*
X650012D01*
Y396654D01*
X650285D01*
Y396620D01*
X650592D01*
Y396586D01*
X651103D01*
Y396552D01*
X652092D01*
Y396586D01*
X652569D01*
X652569Y396620D01*
X652910D01*
Y396654D01*
X653149D01*
Y396688D01*
X653388D01*
Y396722D01*
X653558Y396722D01*
Y396756D01*
X653763D01*
Y396790D01*
X653933D01*
X653933Y396825D01*
X654070D01*
Y396859D01*
X654206D01*
Y396893D01*
X654342D01*
Y396927D01*
X654479Y396927D01*
Y396961D01*
X654581D01*
Y396995D01*
X654717D01*
Y397029D01*
X654820D01*
Y397063D01*
X654922Y397063D01*
X654922Y397097D01*
X655024D01*
X655024Y397131D01*
X655127D01*
X655127Y397165D01*
X655229D01*
X655229Y397200D01*
X655331D01*
Y397234D01*
X655434Y397234D01*
Y397268D01*
X655502D01*
Y397302D01*
X655604D01*
Y397336D01*
X655672D01*
X655672Y397370D01*
X655774D01*
Y397404D01*
X655843D01*
X655843Y397438D01*
X655911D01*
Y397472D01*
X656013D01*
Y397506D01*
X656081D01*
Y397541D01*
X656149D01*
Y397575D01*
X656218D01*
Y397609D01*
X656286D01*
Y397643D01*
X656388D01*
Y397677D01*
X656422D01*
Y397711D01*
X656491Y397711D01*
Y397745D01*
X656559D01*
Y397779D01*
X656627D01*
Y397813D01*
X656695D01*
X656695Y397848D01*
X656763Y397847D01*
X656763Y397882D01*
X656832D01*
Y397916D01*
X656900D01*
Y397950D01*
X656934D01*
Y397984D01*
X657002Y397984D01*
Y398018D01*
X657070D01*
Y398052D01*
X657138D01*
Y398086D01*
X657172Y398086D01*
Y398120D01*
X657241D01*
Y398154D01*
X657309D01*
Y398188D01*
X657343D01*
Y398222D01*
X657411D01*
X657411Y398257D01*
X657445D01*
Y398291D01*
X657514D01*
X657514Y398325D01*
X657548D01*
X657548Y398359D01*
X657616D01*
X657616Y398393D01*
X657684D01*
Y398427D01*
X657718D01*
Y398461D01*
X657752D01*
Y398495D01*
X657820D01*
Y398529D01*
X657855D01*
Y398564D01*
X657923Y398564D01*
Y398598D01*
X657957D01*
Y398632D01*
X657991Y398632D01*
Y398666D01*
X658059D01*
Y398700D01*
X658093D01*
Y398734D01*
X658127D01*
Y398768D01*
X658195Y398768D01*
Y398802D01*
X658230D01*
Y398836D01*
X658264Y398836D01*
Y398870D01*
X658332D01*
X658332Y398904D01*
X658366D01*
X658366Y398939D01*
X658400D01*
X658400Y398973D01*
X658434D01*
X658434Y399007D01*
X658502D01*
Y399041D01*
X658536D01*
X658536Y399075D01*
X658570D01*
Y399109D01*
X658605D01*
X658605Y399143D01*
X658639D01*
Y399177D01*
X658707D01*
Y399211D01*
X658741D01*
Y399246D01*
X658775D01*
Y399280D01*
X658809D01*
Y399314D01*
X658843D01*
Y399348D01*
X658877D01*
Y399382D01*
X658912D01*
Y399416D01*
X658980D01*
Y399450D01*
X659014Y399450D01*
Y399484D01*
X659048Y399484D01*
Y399518D01*
X659082D01*
Y399552D01*
X659116D01*
Y399587D01*
X659150Y399587D01*
Y399621D01*
X659184D01*
Y399655D01*
X659218Y399655D01*
Y399689D01*
X659253D01*
X659253Y399723D01*
X659287D01*
X659287Y399757D01*
X659321D01*
X659321Y399791D01*
X659355D01*
Y399825D01*
X659389D01*
Y399859D01*
X659423D01*
Y399893D01*
X659457D01*
X659457Y399927D01*
X659491D01*
Y399962D01*
X659457D01*
X659457Y399996D01*
X659389D01*
Y400030D01*
X659321D01*
Y400064D01*
X659253D01*
X659253Y400098D01*
X659218D01*
Y400132D01*
X659150D01*
Y400166D01*
X659082D01*
Y400200D01*
X659048D01*
Y400234D01*
X658980D01*
Y400268D01*
X658912D01*
Y400303D01*
X658843Y400303D01*
Y400337D01*
X658809D01*
Y400371D01*
X658741D01*
Y400405D01*
X658673D01*
Y400439D01*
X658605D01*
Y400473D01*
X658570D01*
Y400507D01*
X658502D01*
Y400541D01*
X658434D01*
X658434Y400575D01*
X658400D01*
X658400Y400609D01*
X658332D01*
X658332Y400643D01*
X658264D01*
Y400678D01*
X658195D01*
Y400712D01*
X658161D01*
X658161Y400746D01*
X658093Y400746D01*
Y400780D01*
X658025D01*
Y400814D01*
X657957Y400814D01*
Y400848D01*
X657923D01*
Y400882D01*
X657855D01*
X657855Y400916D01*
X657786D01*
X657786Y400950D01*
X657718D01*
X657718Y400984D01*
X657684D01*
Y401019D01*
X657616D01*
Y401053D01*
X657548D01*
X657548Y401087D01*
X657514D01*
Y401121D01*
X657445D01*
Y401155D01*
X657377D01*
Y401189D01*
X657309D01*
Y401223D01*
X657275Y401223D01*
Y401257D01*
X657207Y401257D01*
Y401291D01*
X657138D01*
Y401326D01*
X657070D01*
Y401360D01*
X657036D01*
Y401394D01*
X656968Y401394D01*
Y401428D01*
X656900D01*
Y401462D01*
X656832D01*
Y401496D01*
X656797D01*
Y401530D01*
X656729D01*
Y401564D01*
X656661D01*
X656661Y401598D01*
X656627D01*
X656627Y401632D01*
X656559D01*
Y401666D01*
X656491D01*
Y401701D01*
X656422D01*
X656422Y401735D01*
X656388D01*
Y401769D01*
X656320D01*
Y401803D01*
X656252D01*
Y401837D01*
X656184D01*
Y401871D01*
X656149D01*
Y401905D01*
X656081D01*
Y401939D01*
X656013D01*
Y401973D01*
X655979D01*
Y402007D01*
X655911D01*
Y402042D01*
X655843D01*
Y402076D01*
X655774Y402076D01*
Y402110D01*
X655740D01*
Y402144D01*
X655672D01*
Y402178D01*
X655604D01*
Y402212D01*
X655536Y402212D01*
Y402246D01*
X655502D01*
Y402280D01*
X655434D01*
Y402314D01*
X655365Y402314D01*
Y402349D01*
X655297D01*
Y402383D01*
X655263D01*
Y402417D01*
X655195D01*
X655195Y402451D01*
X655127D01*
X655127Y402485D01*
X655092D01*
Y402519D01*
X655024D01*
X655024Y402553D01*
X654956D01*
X654956Y402587D01*
X654888D01*
Y402621D01*
X654854D01*
X654854Y402655D01*
X654786D01*
Y402689D01*
X654717Y402690D01*
Y402724D01*
X654649D01*
Y402758D01*
X654615D01*
Y402792D01*
X654547Y402792D01*
Y402826D01*
X654479D01*
Y402860D01*
X654411Y402860D01*
Y402894D01*
X654376Y402894D01*
Y402928D01*
X654308Y402928D01*
Y402962D01*
X654240Y402962D01*
Y402996D01*
X654206Y402996D01*
Y403030D01*
X654138Y403030D01*
Y403064D01*
X654070D01*
Y403099D01*
X654001D01*
Y403133D01*
X653967D01*
Y403167D01*
X653899D01*
Y403201D01*
X653831D01*
Y403235D01*
X653763D01*
Y403269D01*
X653728D01*
Y403303D01*
X653660D01*
Y403337D01*
X653592D01*
Y403371D01*
X653524D01*
Y403406D01*
X653490D01*
Y403440D01*
X653422D01*
Y403474D01*
X653353D01*
X653353Y403508D01*
X653319D01*
X653319Y403542D01*
X653251D01*
Y403576D01*
X653183D01*
Y403610D01*
X653115D01*
X653115Y403644D01*
X653081D01*
Y403678D01*
X653013D01*
Y403712D01*
X652944D01*
Y403747D01*
X652876D01*
Y403781D01*
X652842D01*
Y403815D01*
X652774D01*
Y403849D01*
X652706D01*
Y403883D01*
X652671D01*
Y403917D01*
X652603D01*
Y403951D01*
X652535D01*
X652535Y403985D01*
X652467D01*
Y404019D01*
X652433D01*
X652433Y404053D01*
X652365D01*
Y404087D01*
X652296D01*
Y404122D01*
X652228D01*
Y404156D01*
X652194D01*
X652194Y404190D01*
X652126D01*
X652126Y404224D01*
X652058D01*
Y404258D01*
X651990D01*
Y404292D01*
X651955Y404292D01*
Y404326D01*
X651887D01*
Y404360D01*
X651819Y404360D01*
Y404394D01*
X651785D01*
Y404428D01*
X651717Y404428D01*
Y404463D01*
X651649D01*
X651649Y404497D01*
X651580D01*
X651580Y404531D01*
X651546D01*
X651546Y404565D01*
X651478D01*
Y404599D01*
X651410D01*
Y404633D01*
X651342D01*
Y404667D01*
X651307Y404667D01*
Y404701D01*
X651239D01*
Y404735D01*
X651171D01*
Y404770D01*
X651103D01*
Y404804D01*
X651069Y404804D01*
Y404838D01*
X651001D01*
Y404872D01*
X650932D01*
Y404906D01*
X650898D01*
Y404940D01*
X650830D01*
X650830Y404974D01*
X650762D01*
X650762Y405008D01*
X650694D01*
X650694Y405042D01*
X650660D01*
Y405076D01*
X650592D01*
Y405111D01*
X650523D01*
Y405145D01*
X650455D01*
X650455Y405179D01*
X650421D01*
Y405213D01*
X650353D01*
Y405247D01*
X650285D01*
Y405281D01*
X650250D01*
Y405315D01*
X650182D01*
Y405349D01*
X650114D01*
Y405383D01*
X650046D01*
Y405417D01*
X650012D01*
Y405451D01*
X649944D01*
Y405485D01*
X649875D01*
Y405520D01*
X649807Y405520D01*
Y405554D01*
X649773Y405554D01*
Y405588D01*
X649705D01*
Y405622D01*
X649637Y405622D01*
Y405656D01*
X649569D01*
Y405690D01*
X649534Y405690D01*
Y405724D01*
X649466D01*
Y405758D01*
X649398D01*
Y405792D01*
X649364D01*
Y405827D01*
X649296D01*
Y405861D01*
X649228D01*
Y405895D01*
X649159D01*
Y405929D01*
X649125D01*
Y405963D01*
X649057D01*
Y405997D01*
X648989D01*
X648989Y406031D01*
X648921D01*
Y406065D01*
X648886D01*
X648886Y406099D01*
X648818D01*
Y406133D01*
X648750D01*
Y406168D01*
X648682D01*
Y406202D01*
X648648Y406202D01*
Y406236D01*
X648580D01*
Y406270D01*
X648511Y406270D01*
Y406304D01*
X648477D01*
Y406338D01*
X648409Y406338D01*
Y406372D01*
X648341Y406372D01*
Y406406D01*
X648273D01*
Y406440D01*
X648239D01*
Y406474D01*
X648171D01*
X648171Y406508D01*
X648102D01*
Y406543D01*
X648034D01*
Y406577D01*
X648000D01*
Y406611D01*
X647932D01*
Y406645D01*
X647864D01*
Y406679D01*
X647795D01*
Y406713D01*
X647761D01*
Y406747D01*
X647693D01*
Y406781D01*
X647625D01*
Y406815D01*
X647591D01*
Y406849D01*
X647523D01*
Y406884D01*
X647454D01*
Y406918D01*
X647386D01*
X647386Y406952D01*
X647352D01*
Y406986D01*
X647284D01*
Y407020D01*
X647216D01*
X647216Y407054D01*
X647148D01*
Y407088D01*
X647113Y407088D01*
Y407122D01*
X647045D01*
Y407156D01*
X646977Y407156D01*
Y407191D01*
X646943D01*
Y407225D01*
X646875D01*
Y407259D01*
X646806D01*
Y407293D01*
X646738Y407293D01*
Y407327D01*
X646704D01*
Y407361D01*
X646636D01*
Y407395D01*
X646568D01*
Y407429D01*
X646500D01*
Y407463D01*
X646465D01*
Y407497D01*
X646500D01*
X646500Y407531D01*
X646568D01*
X646568Y407566D01*
X646636D01*
Y407600D01*
X646670D01*
X646670Y407634D01*
X646738D01*
X646738Y407668D01*
X646806D01*
Y407702D01*
X646875D01*
Y407736D01*
X646909D01*
Y407770D01*
X646977D01*
X646977Y407804D01*
X647045D01*
Y407838D01*
X647079D01*
Y407872D01*
X647148D01*
Y407907D01*
X647216D01*
X647216Y407941D01*
X647284D01*
X647284Y407975D01*
X647318D01*
X647318Y408009D01*
X647386D01*
Y408043D01*
X647454D01*
Y408077D01*
X647523D01*
Y408111D01*
X647557D01*
Y408145D01*
X647625D01*
Y408179D01*
X647693D01*
Y408213D01*
X647761D01*
Y408248D01*
X647795D01*
Y408282D01*
X647864D01*
Y408316D01*
X647932D01*
Y408350D01*
X647966D01*
Y408384D01*
X648034D01*
Y408418D01*
X648102D01*
Y408452D01*
X648171D01*
X648171Y408486D01*
X648205D01*
Y408520D01*
X648273D01*
Y408554D01*
X648341D01*
Y408589D01*
X648409D01*
X648409Y408623D01*
X648443D01*
Y408657D01*
X648511D01*
Y408691D01*
X648580D01*
Y408725D01*
X648648D01*
Y408759D01*
X648682D01*
Y408793D01*
X648750D01*
Y408827D01*
X648818D01*
Y408861D01*
X648852D01*
Y408895D01*
X648921D01*
Y408929D01*
X648989D01*
Y408964D01*
X649057D01*
Y408998D01*
X649091D01*
X649091Y409032D01*
X649159D01*
Y409066D01*
X649228D01*
Y409100D01*
X649296D01*
Y409134D01*
X649330D01*
Y409168D01*
X649398D01*
Y409202D01*
X649466Y409202D01*
Y409236D01*
X649534D01*
Y409270D01*
X649569Y409270D01*
Y409305D01*
X649637D01*
X649637Y409339D01*
X649705D01*
Y409373D01*
X649739D01*
X649739Y409407D01*
X649807D01*
X649807Y409441D01*
X649875D01*
X649875Y409475D01*
X649944D01*
Y409509D01*
X649978D01*
X649978Y409543D01*
X650046D01*
Y409577D01*
X650114D01*
Y409612D01*
X650182D01*
Y409646D01*
X650216Y409646D01*
Y409680D01*
X650285D01*
Y409714D01*
X650353D01*
Y409748D01*
X650387D01*
Y409782D01*
X650455Y409782D01*
Y409816D01*
X650523D01*
Y409850D01*
X650592D01*
Y409884D01*
X650626D01*
Y409918D01*
X650694Y409918D01*
Y409952D01*
X650762D01*
X650762Y409987D01*
X650830D01*
X650830Y410021D01*
X650864D01*
Y410055D01*
X650932D01*
Y410089D01*
X651001D01*
Y410123D01*
X651069D01*
Y410157D01*
X651103D01*
Y410191D01*
X651171D01*
Y410225D01*
X651239D01*
Y410259D01*
X651273D01*
Y410293D01*
X651342D01*
Y410327D01*
X651410D01*
Y410362D01*
X651478D01*
X651478Y410396D01*
X651512D01*
Y410430D01*
X651580D01*
Y410464D01*
X651649D01*
Y410498D01*
X651717Y410498D01*
Y410532D01*
X651751D01*
Y410566D01*
X651819Y410566D01*
Y410600D01*
X651887Y410600D01*
Y410634D01*
X651955Y410634D01*
Y410669D01*
X651990D01*
Y410703D01*
X652058D01*
Y410737D01*
X652126Y410737D01*
Y410771D01*
X652160D01*
Y410805D01*
X652228D01*
Y410839D01*
X652296D01*
Y410873D01*
X652365D01*
Y410907D01*
X652399D01*
X652399Y410941D01*
X652467D01*
Y410975D01*
X652535D01*
X652535Y411010D01*
X652603D01*
Y411044D01*
X652637D01*
X652637Y411078D01*
X652706D01*
Y411112D01*
X652774D01*
Y411146D01*
X652808D01*
Y411180D01*
X652876Y411180D01*
Y411214D01*
X652944D01*
Y411248D01*
X653013Y411248D01*
Y411282D01*
X653047D01*
Y411316D01*
X653115Y411316D01*
Y411350D01*
X653183D01*
Y411385D01*
X653251Y411385D01*
Y411419D01*
X653285D01*
Y411453D01*
X653353D01*
Y411487D01*
X653422D01*
Y411521D01*
X653490D01*
Y411555D01*
X653524Y411555D01*
Y411589D01*
X653592D01*
Y411623D01*
X653660D01*
Y411657D01*
X653694D01*
Y411692D01*
X653763D01*
Y411726D01*
X653831D01*
Y411760D01*
X653899D01*
Y411794D01*
X653933D01*
Y411828D01*
X654001D01*
Y411862D01*
X654070D01*
Y411896D01*
X654138D01*
X654138Y411930D01*
X654172D01*
Y411964D01*
X654240D01*
Y411998D01*
X654308D01*
X654308Y412033D01*
X654376D01*
X654376Y412067D01*
X654411D01*
Y412101D01*
X654479D01*
Y412135D01*
X654547D01*
Y412169D01*
X654581D01*
Y412203D01*
X654649D01*
Y412237D01*
X654717D01*
Y412271D01*
X654786D01*
Y412305D01*
X654820D01*
Y412339D01*
X654888D01*
Y412373D01*
X654956D01*
Y412408D01*
X655024D01*
Y412442D01*
X655058D01*
Y412476D01*
X655127D01*
Y412510D01*
X655195Y412510D01*
Y412544D01*
X655263D01*
Y412578D01*
X655297D01*
Y412612D01*
X655365D01*
Y412646D01*
X655434D01*
Y412680D01*
X655468Y412680D01*
Y412714D01*
X655536D01*
X655536Y412748D01*
X655604D01*
Y412783D01*
X655672D01*
Y412817D01*
X655706D01*
Y412851D01*
X655774D01*
Y412885D01*
X655843D01*
X655843Y412919D01*
X655911D01*
Y412953D01*
X655945D01*
X655945Y412987D01*
X656013D01*
Y413021D01*
X656081D01*
Y413055D01*
X656115Y413055D01*
Y413090D01*
X656184D01*
Y413124D01*
X656252D01*
Y413158D01*
X656320D01*
Y413192D01*
X656354Y413192D01*
Y413226D01*
X656422Y413226D01*
Y413260D01*
X656491Y413260D01*
Y413294D01*
X656559D01*
Y413328D01*
X656593D01*
X656593Y413362D01*
X656661D01*
Y413396D01*
X656729D01*
X656729Y413431D01*
X656797D01*
Y413465D01*
X656832D01*
Y413499D01*
X656900D01*
Y413533D01*
X656968D01*
X656968Y413567D01*
X657002D01*
Y413601D01*
X657070D01*
Y413635D01*
X657138D01*
Y413669D01*
X657207Y413669D01*
Y413703D01*
X657241D01*
Y413737D01*
X657309D01*
Y413771D01*
X657377D01*
Y413806D01*
X657445D01*
Y413840D01*
X657479D01*
Y413874D01*
X657548D01*
Y413908D01*
X657616D01*
X657616Y413942D01*
X657684D01*
Y413976D01*
X657718Y413976D01*
Y414010D01*
X657786Y414010D01*
Y414044D01*
X657855Y414044D01*
Y414078D01*
X657889Y414078D01*
Y414113D01*
X657957D01*
Y414147D01*
X658025Y414147D01*
Y414181D01*
X658093Y414181D01*
Y414215D01*
X658127D01*
Y414249D01*
X658195D01*
Y414283D01*
X658264D01*
Y414317D01*
X658332D01*
X658332Y414351D01*
X658366D01*
Y414385D01*
X658434D01*
Y414419D01*
X658502D01*
Y414454D01*
X658536D01*
X658536Y414488D01*
X658605D01*
Y414522D01*
X658673D01*
Y414556D01*
X658741D01*
Y414590D01*
X658775D01*
Y414624D01*
X658843D01*
Y414658D01*
X658912Y414658D01*
Y414692D01*
X658980D01*
Y414726D01*
X659014Y414726D01*
Y414760D01*
X659082D01*
Y414794D01*
X659150Y414794D01*
Y414829D01*
X659218D01*
Y414863D01*
X659253D01*
Y414897D01*
X659321D01*
Y414931D01*
X659389D01*
Y414965D01*
X659423Y414965D01*
Y414999D01*
X659491Y414999D01*
Y415033D01*
X659559D01*
Y415067D01*
X659628D01*
Y415101D01*
X659662D01*
Y415135D01*
X659730D01*
Y415169D01*
X659798D01*
Y415204D01*
X659866D01*
Y415238D01*
X659900D01*
X659900Y415272D01*
X659969D01*
Y415306D01*
X660037D01*
Y415340D01*
X660105D01*
Y415374D01*
X660139D01*
Y415408D01*
X660207D01*
X660207Y415442D01*
X660276D01*
X660276Y415476D01*
X660310D01*
Y415511D01*
X660378D01*
Y415545D01*
X660446Y415545D01*
Y415579D01*
X660514D01*
Y415613D01*
X660548D01*
Y415647D01*
X660616D01*
Y415681D01*
X660685D01*
Y415715D01*
X660753Y415715D01*
Y415749D01*
X660787Y415749D01*
Y415783D01*
X660855D01*
Y415817D01*
X660923Y415817D01*
Y415851D01*
X660957D01*
X660957Y415886D01*
X661026D01*
Y415920D01*
X661094Y415920D01*
Y415954D01*
X661162D01*
Y415988D01*
X661196Y415988D01*
Y416022D01*
X661264D01*
Y416056D01*
X661333Y416056D01*
Y416090D01*
X661401D01*
Y416124D01*
X661435D01*
Y416158D01*
X661503Y416158D01*
Y416192D01*
X661571D01*
Y416227D01*
X661639D01*
X661639Y416261D01*
X661673D01*
X661673Y416295D01*
X661742D01*
Y416329D01*
X661810D01*
Y416363D01*
X661844D01*
X661844Y416397D01*
X661912D01*
X661912Y416431D01*
X661980D01*
Y416465D01*
X662049D01*
Y416499D01*
X662083D01*
Y416534D01*
X662151Y416534D01*
Y416568D01*
X662219D01*
Y416602D01*
X662287D01*
Y416636D01*
X662321Y416636D01*
Y416670D01*
X662390Y416670D01*
Y416704D01*
X662458Y416704D01*
Y416738D01*
X662526D01*
Y416772D01*
X662560D01*
X662560Y416806D01*
X662628D01*
X662628Y416840D01*
X662697D01*
Y416875D01*
X662731D01*
Y416909D01*
X662799D01*
Y416943D01*
X662867D01*
Y416977D01*
X662935D01*
Y417011D01*
X662969D01*
Y417045D01*
X663037D01*
Y417079D01*
X663106D01*
Y417113D01*
X663174D01*
Y417147D01*
X663208Y417147D01*
Y417181D01*
X663276D01*
Y417215D01*
X663344D01*
Y417250D01*
X663413D01*
Y417284D01*
X663447Y417284D01*
Y417318D01*
X663515D01*
Y417352D01*
X663583D01*
X663583Y417386D01*
X663617D01*
Y417420D01*
X663685D01*
Y417454D01*
X663754Y417454D01*
Y417488D01*
X663822Y417488D01*
Y417522D01*
X663856Y417522D01*
Y417556D01*
X663924Y417556D01*
Y417591D01*
X663992Y417591D01*
Y417625D01*
X664060D01*
Y417659D01*
X664094Y417659D01*
Y417693D01*
X664163D01*
Y417727D01*
X664231D01*
X664231Y417761D01*
X664265D01*
Y417795D01*
X664333D01*
X664333Y417829D01*
X664401D01*
Y417863D01*
X664470D01*
Y417897D01*
X664504D01*
Y417932D01*
X664572D01*
Y417966D01*
X664640D01*
Y418000D01*
X664708D01*
Y418034D01*
X664742D01*
Y418068D01*
X664811D01*
Y418102D01*
X664879D01*
Y418136D01*
X664947D01*
Y418170D01*
X664981D01*
Y418204D01*
X665049Y418204D01*
Y418238D01*
X665118D01*
Y418272D01*
X665152Y418272D01*
Y418307D01*
X665220Y418307D01*
Y418341D01*
X665288Y418341D01*
X665288Y418375D01*
X665356D01*
Y418409D01*
X665390D01*
Y418443D01*
X665458D01*
Y418477D01*
X665527D01*
Y418511D01*
X665595D01*
Y418545D01*
X665629D01*
Y418579D01*
X665697D01*
Y418613D01*
X665765D01*
Y418648D01*
X665834D01*
Y418682D01*
X665868D01*
X665868Y418716D01*
X665936D01*
Y418750D01*
X666004D01*
Y418784D01*
X666038D01*
X666038Y418818D01*
X666106D01*
Y418852D01*
X666175D01*
X666175Y418886D01*
X666243D01*
Y418920D01*
X666277D01*
Y418955D01*
X666345D01*
Y418989D01*
X666413D01*
Y419023D01*
X666481Y419023D01*
Y419057D01*
X666515D01*
Y419091D01*
X666584D01*
Y419125D01*
X666652Y419125D01*
Y419159D01*
X666686Y419159D01*
Y419193D01*
X666754D01*
Y419227D01*
X666822D01*
Y419261D01*
X666891D01*
X666891Y419296D01*
X666925D01*
X666925Y419330D01*
X666993D01*
X666993Y419364D01*
X667061D01*
X667061Y419398D01*
X667129D01*
Y419432D01*
X667163D01*
Y419466D01*
X667232D01*
X667232Y419500D01*
X667300D01*
X667300Y419534D01*
X667368D01*
Y419568D01*
X667402D01*
Y419602D01*
X667470D01*
Y419636D01*
X667538D01*
X667538Y419671D01*
X667573D01*
Y419705D01*
X667641D01*
Y419739D01*
X667709D01*
Y419773D01*
X667777D01*
X667777Y419807D01*
X667811D01*
Y419841D01*
X667879D01*
X667879Y419875D01*
X667948D01*
Y419909D01*
X668016D01*
Y419943D01*
X668050D01*
Y419978D01*
X668118D01*
Y420012D01*
X668186D01*
Y420046D01*
X668255D01*
Y420080D01*
X668289D01*
Y420114D01*
X668357Y420114D01*
Y420148D01*
X668425D01*
Y420182D01*
X668459D01*
Y420216D01*
X668527Y420216D01*
Y420250D01*
X668596D01*
Y420284D01*
X668664D01*
X668664Y420318D01*
X668698D01*
X668698Y420353D01*
X668766D01*
Y420387D01*
X668834D01*
Y420421D01*
X668902D01*
Y420455D01*
X668936D01*
Y420489D01*
X669005D01*
Y420523D01*
X669073D01*
Y420557D01*
X669141D01*
Y420591D01*
X669175D01*
Y420625D01*
X669243D01*
Y420659D01*
X669312D01*
Y420693D01*
X669346D01*
Y420728D01*
X669414D01*
Y420762D01*
X669482D01*
Y420796D01*
X669550Y420796D01*
Y420830D01*
X669584D01*
Y420864D01*
X669653Y420864D01*
Y420898D01*
X669721Y420898D01*
Y420932D01*
X669789Y420932D01*
Y420966D01*
X669823D01*
Y421000D01*
X669891D01*
Y421034D01*
X669959Y421034D01*
Y421069D01*
X669994Y421069D01*
Y421103D01*
X670062D01*
Y421137D01*
X670130Y421137D01*
Y421171D01*
X670198D01*
X670198Y421205D01*
X670232D01*
Y421239D01*
X670300D01*
X670300Y421273D01*
X670369D01*
X670369Y421307D01*
X670437D01*
X670437Y421341D01*
X670471D01*
Y421376D01*
X670539D01*
X670539Y421410D01*
X670607D01*
Y421444D01*
X670676D01*
Y421478D01*
X670710D01*
Y421512D01*
X670778Y421512D01*
Y421546D01*
X670846D01*
Y421580D01*
X670880D01*
Y421614D01*
X670948Y421614D01*
Y421648D01*
X671017D01*
Y421682D01*
X671085D01*
Y421716D01*
X671119D01*
Y421751D01*
X671187Y421751D01*
Y421785D01*
X671255D01*
X671255Y421819D01*
X671323Y421819D01*
Y421853D01*
X671357D01*
Y421887D01*
X671426D01*
Y421921D01*
X671494D01*
Y421955D01*
X671562D01*
Y421989D01*
X671596D01*
Y422023D01*
X671664D01*
Y422057D01*
X671733D01*
Y422092D01*
X671767D01*
X671767Y422126D01*
X671835D01*
Y422160D01*
X671903D01*
Y422194D01*
X671971D01*
Y422228D01*
X672005D01*
X672005Y422262D01*
X672074D01*
Y422296D01*
X672142D01*
Y422330D01*
X672210D01*
Y422364D01*
X672244D01*
Y422399D01*
X672312D01*
X672312Y422433D01*
X672380D01*
Y422467D01*
X672415D01*
Y422501D01*
X672483D01*
Y422535D01*
X672551D01*
Y422569D01*
X672619D01*
Y422603D01*
X672653Y422603D01*
Y422637D01*
X672721D01*
Y422671D01*
X672790D01*
Y422705D01*
X672858D01*
Y422740D01*
X672892D01*
Y422774D01*
X672960D01*
X672960Y422808D01*
X673028D01*
Y422842D01*
X673097D01*
Y422876D01*
X673131D01*
X673131Y422910D01*
X673199D01*
X673199Y422944D01*
X673267D01*
Y422978D01*
X673301D01*
Y423012D01*
X673369D01*
X673369Y423046D01*
X673438D01*
X673438Y423080D01*
X673506D01*
X673506Y423114D01*
X673540D01*
Y423149D01*
X673608D01*
Y423183D01*
X673676D01*
X673676Y423217D01*
X673744D01*
X673744Y423251D01*
X673778D01*
X673778Y423285D01*
X673847D01*
Y423319D01*
X673915D01*
Y423353D01*
X673983D01*
Y423387D01*
X674017D01*
Y423421D01*
X674085D01*
Y423455D01*
X674154D01*
Y423490D01*
X674188D01*
Y423524D01*
X674256Y423524D01*
Y423558D01*
X674324D01*
Y423592D01*
X674392D01*
Y423626D01*
X674426D01*
Y423660D01*
X674495D01*
Y423694D01*
X674563D01*
Y423728D01*
X674631D01*
X674631Y423762D01*
X674665D01*
Y391198D01*
D02*
G37*
G36*
X656593Y421512D02*
X656797D01*
Y421478D01*
X656934D01*
X656934Y421444D01*
X657036D01*
X657036Y421410D01*
X657104D01*
X657104Y421376D01*
X657207Y421376D01*
Y421341D01*
X657275D01*
X657275Y421307D01*
X657343D01*
X657343Y421273D01*
X657411D01*
Y421239D01*
X657479D01*
Y421205D01*
X657514D01*
X657514Y421171D01*
X657582D01*
X657582Y421137D01*
X657616D01*
X657616Y421103D01*
X657684D01*
Y421069D01*
X657718Y421069D01*
X657718Y421034D01*
X657752D01*
Y421000D01*
X657786D01*
Y420966D01*
X657820Y420966D01*
Y420932D01*
X657889D01*
Y420898D01*
X657923D01*
Y420864D01*
X657957Y420864D01*
Y420796D01*
X657991Y420796D01*
Y420762D01*
X658025D01*
Y420728D01*
X658059D01*
Y420693D01*
X658093D01*
Y420659D01*
X658127D01*
Y420591D01*
X658161D01*
X658161Y420557D01*
X658195D01*
Y420489D01*
X658230D01*
Y420455D01*
X658264D01*
X658264Y420387D01*
X658298D01*
Y420318D01*
X658332D01*
Y420250D01*
X658366D01*
Y420182D01*
X658400D01*
Y420114D01*
X658434D01*
Y420012D01*
X658468D01*
X658468Y419909D01*
X658502D01*
Y419773D01*
X658536D01*
X658536Y419568D01*
X658570D01*
Y419500D01*
Y419466D01*
Y418989D01*
X658536D01*
Y418784D01*
X658502D01*
Y418648D01*
X658468D01*
Y418545D01*
X658434D01*
Y418443D01*
X658400D01*
Y418375D01*
X658366D01*
Y418307D01*
X658332Y418307D01*
Y418238D01*
X658298D01*
Y418170D01*
X658264D01*
Y418102D01*
X658230D01*
Y418068D01*
X658195D01*
Y418000D01*
X658161D01*
X658161Y417966D01*
X658127D01*
Y417897D01*
X658093D01*
X658093Y417863D01*
X658059D01*
Y417829D01*
X658025D01*
Y417795D01*
X657991D01*
Y417761D01*
X657957D01*
Y417727D01*
X657923Y417727D01*
Y417693D01*
X657889D01*
Y417659D01*
X657855Y417659D01*
Y417625D01*
X657820D01*
Y417591D01*
X657786Y417591D01*
Y417556D01*
X657752D01*
Y417522D01*
X657718Y417522D01*
Y417488D01*
X657650D01*
Y417454D01*
X657616D01*
Y417420D01*
X657582D01*
X657582Y417386D01*
X657514D01*
Y417352D01*
X657445D01*
Y417318D01*
X657411D01*
Y417284D01*
X657343Y417284D01*
Y417250D01*
X657275D01*
Y417215D01*
X657207Y417215D01*
Y417181D01*
X657104D01*
Y417147D01*
X657002Y417147D01*
Y417113D01*
X656900D01*
Y417079D01*
X656763D01*
Y417045D01*
X656559D01*
Y417011D01*
X656013D01*
Y417045D01*
X655809D01*
Y417079D01*
X655672D01*
Y417113D01*
X655570D01*
Y417147D01*
X655468Y417147D01*
Y417181D01*
X655365D01*
Y417215D01*
X655297Y417215D01*
Y417250D01*
X655229D01*
Y417284D01*
X655161Y417284D01*
Y417318D01*
X655127D01*
Y417352D01*
X655058D01*
Y417386D01*
X654990D01*
X654990Y417420D01*
X654956D01*
X654956Y417454D01*
X654922D01*
X654922Y417488D01*
X654854Y417488D01*
Y417522D01*
X654820Y417522D01*
Y417556D01*
X654786D01*
Y417591D01*
X654751Y417591D01*
Y417625D01*
X654717D01*
Y417659D01*
X654683D01*
Y417693D01*
X654649D01*
Y417727D01*
X654615D01*
Y417761D01*
X654581D01*
Y417795D01*
X654547D01*
Y417829D01*
X654513D01*
Y417863D01*
X654479D01*
Y417932D01*
X654445D01*
X654445Y417966D01*
X654411D01*
Y418000D01*
X654376D01*
Y418068D01*
X654342D01*
Y418136D01*
X654308D01*
Y418170D01*
X654274D01*
Y418238D01*
X654240D01*
Y418307D01*
X654206Y418307D01*
Y418375D01*
X654172D01*
Y418477D01*
X654138D01*
X654138Y418545D01*
X654104D01*
X654104Y418682D01*
X654070D01*
Y418818D01*
X654035D01*
Y419023D01*
X654001D01*
Y419534D01*
X654035D01*
Y419773D01*
X654070D01*
Y419875D01*
X654104D01*
X654104Y420012D01*
X654138D01*
Y420080D01*
X654172D01*
Y420182D01*
X654206D01*
Y420250D01*
X654240D01*
Y420318D01*
X654274D01*
Y420387D01*
X654308D01*
X654308Y420455D01*
X654342D01*
Y420489D01*
X654376D01*
Y420557D01*
X654411D01*
Y420591D01*
X654445D01*
Y420625D01*
X654479D01*
X654479Y420693D01*
X654513D01*
Y420728D01*
X654547D01*
Y420762D01*
X654581D01*
Y420796D01*
X654615Y420796D01*
Y420830D01*
X654649D01*
Y420898D01*
X654717D01*
Y420932D01*
X654751D01*
Y420966D01*
X654786Y420966D01*
Y421000D01*
X654820D01*
Y421034D01*
X654854D01*
X654854Y421069D01*
X654922D01*
X654922Y421103D01*
X654956D01*
Y421137D01*
X654990D01*
X654990Y421171D01*
X655058D01*
X655058Y421205D01*
X655092D01*
Y421239D01*
X655161D01*
Y421273D01*
X655229D01*
X655229Y421307D01*
X655297D01*
X655297Y421341D01*
X655365D01*
X655365Y421376D01*
X655468D01*
X655468Y421410D01*
X655536D01*
Y421444D01*
X655672Y421444D01*
X655672Y421478D01*
X655809D01*
Y421512D01*
X655979D01*
X655979Y421546D01*
X656593D01*
X656593Y421512D01*
D02*
G37*
%LPC*%
G36*
X672244Y419398D02*
X672210D01*
Y419364D01*
X672142D01*
Y419330D01*
X672074D01*
Y419296D01*
X672040D01*
Y419261D01*
X671971D01*
Y419227D01*
X671903D01*
Y419193D01*
X671835D01*
Y419159D01*
X671801D01*
Y419125D01*
X671733D01*
Y419091D01*
X671664D01*
Y419057D01*
X671630D01*
Y419023D01*
X671562D01*
Y418989D01*
X671494D01*
Y418955D01*
X671426D01*
Y418920D01*
X671392D01*
Y418886D01*
X671323D01*
Y418852D01*
X671255D01*
Y418818D01*
X671187D01*
Y418784D01*
X671153D01*
Y418750D01*
X671085D01*
Y418716D01*
X671017D01*
Y418682D01*
X670982D01*
Y418648D01*
X670914D01*
Y418613D01*
X670846D01*
Y418579D01*
X670778D01*
Y418545D01*
X670744D01*
Y418511D01*
X670676D01*
Y418477D01*
X670607D01*
Y418443D01*
X670539D01*
Y418409D01*
X670505D01*
Y418375D01*
X670437D01*
Y418341D01*
X670369D01*
Y418307D01*
X670300D01*
Y418272D01*
X670266D01*
Y418238D01*
X670198D01*
Y418204D01*
X670130D01*
Y418170D01*
X670096D01*
Y418136D01*
X670028D01*
Y418102D01*
X669959D01*
Y418068D01*
X669891D01*
Y418034D01*
X669857D01*
Y418000D01*
X669789D01*
Y417966D01*
X669721D01*
Y417932D01*
X669653D01*
Y417897D01*
X669619D01*
Y417863D01*
X669550D01*
Y417829D01*
X669482D01*
Y417795D01*
X669414D01*
Y417761D01*
X669380D01*
Y417727D01*
X669312D01*
Y417693D01*
X669243D01*
Y417659D01*
X669209D01*
Y417625D01*
X669141D01*
Y417591D01*
X669073D01*
Y417556D01*
X669005D01*
Y417522D01*
X668971D01*
Y417488D01*
X668902D01*
Y417454D01*
X668834D01*
Y417420D01*
X668766D01*
Y417386D01*
X668732D01*
Y417352D01*
X668664D01*
Y417318D01*
X668596D01*
Y417284D01*
X668561D01*
Y417250D01*
X668493D01*
Y417215D01*
X668425D01*
Y417181D01*
X668357D01*
Y417147D01*
X668323D01*
Y417113D01*
X668255D01*
Y417079D01*
X668186D01*
Y417045D01*
X668118D01*
Y417011D01*
X668084D01*
Y416977D01*
X668016D01*
Y416943D01*
X667948D01*
Y416909D01*
X667879D01*
Y416875D01*
X667845D01*
Y416840D01*
X667777D01*
Y416806D01*
X667709D01*
Y416772D01*
X667675D01*
Y416738D01*
X667607D01*
Y416704D01*
X667538D01*
Y416670D01*
X667470D01*
Y416636D01*
X667436D01*
Y416602D01*
X667368D01*
Y416568D01*
X667300D01*
Y416534D01*
X667232D01*
Y416499D01*
X667198D01*
Y416465D01*
X667129D01*
Y416431D01*
X667061D01*
Y416397D01*
X666993D01*
Y416363D01*
X666959D01*
Y416329D01*
X666891D01*
Y416295D01*
X666822D01*
Y416261D01*
X666788D01*
Y416227D01*
X666720D01*
Y416192D01*
X666652D01*
Y416158D01*
X666584D01*
Y416124D01*
X666550D01*
Y416090D01*
X666481D01*
Y416056D01*
X666413D01*
Y416022D01*
X666345D01*
Y415988D01*
X666311D01*
Y415954D01*
X666243D01*
Y415920D01*
X666175D01*
Y415886D01*
X666140D01*
Y415851D01*
X666072D01*
Y415817D01*
X666004D01*
Y415783D01*
X665936D01*
Y415749D01*
X665902D01*
Y415715D01*
X665834D01*
Y415681D01*
X665765D01*
Y415647D01*
X665697D01*
Y415613D01*
X665663D01*
Y415579D01*
X665595D01*
Y415545D01*
X665527D01*
Y415511D01*
X665458D01*
Y415476D01*
X665424D01*
Y415442D01*
X665356D01*
Y415408D01*
X665288D01*
Y415374D01*
X665254D01*
Y415340D01*
X665186D01*
Y415306D01*
X665118D01*
Y415272D01*
X665049D01*
Y415238D01*
X665015D01*
Y415204D01*
X664947D01*
Y415169D01*
X664879D01*
Y415135D01*
X664811D01*
Y415101D01*
X664777D01*
Y415067D01*
X664708D01*
Y415033D01*
X664640D01*
Y414999D01*
X664572D01*
Y414965D01*
X664538D01*
Y414931D01*
X664470D01*
Y414897D01*
X664401D01*
Y414863D01*
X664367D01*
Y414829D01*
X664299D01*
Y414794D01*
X664231D01*
Y414760D01*
X664163D01*
Y414726D01*
X664129D01*
Y414692D01*
X664060D01*
Y414658D01*
X663992D01*
Y414624D01*
X663924D01*
Y414590D01*
X663890D01*
Y414556D01*
X663822D01*
Y414522D01*
X663754D01*
Y414488D01*
X663685D01*
Y414454D01*
X663651D01*
Y414419D01*
X663583D01*
Y414385D01*
X663515D01*
Y414351D01*
X663481D01*
Y414317D01*
X663413D01*
Y414283D01*
X663344D01*
Y414249D01*
X663276D01*
Y414215D01*
X663242D01*
Y414181D01*
X663174D01*
Y414147D01*
X663106D01*
Y414113D01*
X663037D01*
Y414078D01*
X663003D01*
Y414044D01*
X662935D01*
Y414010D01*
X662867D01*
Y413976D01*
X662833D01*
Y413942D01*
X662765D01*
Y413908D01*
X662697D01*
Y413874D01*
X662628D01*
Y413840D01*
X662594D01*
Y413806D01*
X662526D01*
Y413771D01*
X662458D01*
Y413737D01*
X662390D01*
Y413703D01*
X662356D01*
Y413669D01*
X662287D01*
Y413635D01*
X662219D01*
Y413601D01*
X662151D01*
Y413567D01*
X662117D01*
Y413533D01*
X662049D01*
Y413499D01*
X661980D01*
Y413465D01*
X661946D01*
Y413431D01*
X661878D01*
Y413396D01*
X661810D01*
Y413362D01*
X661742D01*
Y413328D01*
X661708D01*
Y413294D01*
X661639D01*
Y413260D01*
X661571D01*
Y413226D01*
X661503D01*
Y413192D01*
X661469D01*
Y413158D01*
X661401D01*
Y413124D01*
X661333D01*
Y413090D01*
X661264D01*
Y413055D01*
X661230D01*
Y413021D01*
X661162D01*
Y412987D01*
X661094D01*
Y412953D01*
X661060D01*
Y412919D01*
X660991D01*
Y412885D01*
X660923D01*
Y412851D01*
X660855D01*
Y412817D01*
X660821D01*
Y412783D01*
X660753D01*
Y412748D01*
X660685D01*
Y412714D01*
X660616D01*
Y412680D01*
X660582D01*
Y412646D01*
X660514D01*
Y412612D01*
X660446D01*
Y412578D01*
X660412D01*
Y412544D01*
X660344D01*
Y412510D01*
X660276D01*
Y412476D01*
X660207D01*
Y412442D01*
X660173D01*
Y412408D01*
X660105D01*
Y412373D01*
X660037D01*
Y412339D01*
X659969D01*
Y412305D01*
X659935D01*
Y412271D01*
X659866D01*
Y412237D01*
X659798D01*
Y412203D01*
X659730D01*
Y412169D01*
X659696D01*
Y412135D01*
X659628D01*
Y412101D01*
X659559D01*
Y412067D01*
X659525D01*
Y412033D01*
X659457D01*
Y411998D01*
X659389D01*
Y411964D01*
X659321D01*
Y411930D01*
X659287D01*
Y411896D01*
X659218D01*
Y411862D01*
X659150D01*
Y411828D01*
X659082D01*
Y411794D01*
X659048D01*
Y411760D01*
X658980D01*
Y411726D01*
X658912D01*
Y411692D01*
X658843D01*
Y411657D01*
X658809D01*
Y411623D01*
X658741D01*
Y411589D01*
X658673D01*
Y411555D01*
X658639D01*
Y411521D01*
X658570D01*
Y411487D01*
X658502D01*
Y411453D01*
X658434D01*
Y411419D01*
X658400D01*
Y411385D01*
X658332D01*
Y411350D01*
X658264D01*
Y411316D01*
X658195D01*
Y411282D01*
X658161D01*
Y411248D01*
X658093D01*
Y411214D01*
X658025D01*
Y411180D01*
X657991D01*
Y411146D01*
X657923D01*
Y411112D01*
X657855D01*
Y411078D01*
X657786D01*
Y411044D01*
X657752D01*
Y411010D01*
X657684D01*
Y410975D01*
X657616D01*
Y410941D01*
X657548D01*
Y410907D01*
X657514D01*
Y410873D01*
X657445D01*
Y410839D01*
X657377D01*
Y410805D01*
X657309D01*
Y410771D01*
X657275D01*
Y410737D01*
X657207D01*
Y410703D01*
X657138D01*
Y410669D01*
X657104D01*
Y410634D01*
X657036D01*
Y410600D01*
X656968D01*
Y410566D01*
X656900D01*
Y410532D01*
X656866D01*
Y410498D01*
X656797D01*
Y410464D01*
X656729D01*
Y410430D01*
X656661D01*
Y410396D01*
X656627D01*
Y410362D01*
X656559D01*
Y410327D01*
X656491D01*
Y410293D01*
X656422D01*
Y410259D01*
X656388D01*
Y410225D01*
X656320D01*
Y410191D01*
X656252D01*
Y410157D01*
X656218D01*
Y410123D01*
X656149D01*
Y410089D01*
X656081D01*
Y410055D01*
X656013D01*
Y410021D01*
X655979D01*
Y409987D01*
X655911D01*
Y409952D01*
X655843D01*
Y409918D01*
X655774D01*
Y409884D01*
X655740D01*
Y409850D01*
X655672D01*
Y409816D01*
X655604D01*
Y409782D01*
X655570D01*
Y409748D01*
X655502D01*
Y409714D01*
X655434D01*
Y409680D01*
X655365D01*
Y409646D01*
X655331D01*
Y409612D01*
X655263D01*
Y409577D01*
X655195D01*
Y409543D01*
X655127D01*
Y409509D01*
X655092D01*
Y409475D01*
X655024D01*
Y409441D01*
X654956D01*
Y409407D01*
X654888D01*
Y409373D01*
X654854D01*
Y409339D01*
X654786D01*
Y409305D01*
X654717D01*
Y409270D01*
X654683D01*
Y409236D01*
X654615D01*
Y409202D01*
X654547D01*
Y409168D01*
X654479D01*
Y409134D01*
X654445D01*
Y409100D01*
X654376D01*
Y409066D01*
X654308D01*
Y409032D01*
X654240D01*
Y408998D01*
X654206D01*
Y408964D01*
X654138D01*
Y408929D01*
X654070D01*
Y408895D01*
X654001D01*
Y408861D01*
X653967D01*
Y408827D01*
X653899D01*
Y408793D01*
X653831D01*
Y408759D01*
X653797D01*
Y408725D01*
X653728D01*
Y408691D01*
X653660D01*
Y408657D01*
X653592D01*
Y408623D01*
X653558D01*
Y408589D01*
X653490D01*
Y408554D01*
X653422D01*
Y408520D01*
X653353D01*
Y408486D01*
X653319D01*
Y408452D01*
X653251D01*
Y408418D01*
X653183D01*
Y408384D01*
X653115D01*
Y408350D01*
X653081D01*
Y408316D01*
X653013D01*
Y408282D01*
X652944D01*
Y408248D01*
X652910D01*
Y408213D01*
X652842D01*
Y408179D01*
X652774D01*
Y408145D01*
X652706D01*
Y408111D01*
X652671D01*
Y408077D01*
X652603D01*
Y408043D01*
X652535D01*
Y408009D01*
X652467D01*
Y407975D01*
X652433D01*
Y407941D01*
X652365D01*
Y407907D01*
X652296D01*
Y407872D01*
X652262D01*
Y407838D01*
X652194D01*
Y407804D01*
X652126D01*
Y407770D01*
X652058D01*
Y407736D01*
X652024D01*
Y407702D01*
X651955D01*
Y407668D01*
X651887D01*
Y407634D01*
X651819D01*
Y407600D01*
X651785D01*
Y407566D01*
X651717D01*
Y407531D01*
X651649D01*
Y407497D01*
X651614D01*
Y407463D01*
X651649D01*
Y407429D01*
X651717D01*
Y407395D01*
X651785D01*
Y407361D01*
X651853D01*
Y407327D01*
X651887D01*
Y407293D01*
X651955D01*
Y407259D01*
X652024D01*
Y407225D01*
X652092D01*
Y407191D01*
X652126D01*
Y407156D01*
X652194D01*
Y407122D01*
X652262D01*
Y407088D01*
X652296D01*
Y407054D01*
X652365D01*
Y407020D01*
X652433D01*
Y406986D01*
X652501D01*
Y406952D01*
X652535D01*
Y406918D01*
X652603D01*
Y406884D01*
X652671D01*
Y406849D01*
X652740D01*
Y406815D01*
X652774D01*
Y406781D01*
X652842D01*
Y406747D01*
X652910D01*
Y406713D01*
X652978D01*
Y406679D01*
X653013D01*
Y406645D01*
X653081D01*
Y406611D01*
X653149D01*
Y406577D01*
X653183D01*
Y406543D01*
X653251D01*
Y406508D01*
X653319D01*
Y406474D01*
X653388D01*
Y406440D01*
X653422D01*
Y406406D01*
X653490D01*
Y406372D01*
X653558D01*
Y406338D01*
X653626D01*
Y406304D01*
X653660D01*
Y406270D01*
X653728D01*
Y406236D01*
X653797D01*
Y406202D01*
X653865D01*
Y406168D01*
X653899D01*
Y406133D01*
X653967D01*
Y406099D01*
X654035D01*
Y406065D01*
X654070D01*
Y406031D01*
X654138D01*
Y405997D01*
X654206D01*
Y405963D01*
X654274D01*
Y405929D01*
X654308D01*
Y405895D01*
X654376D01*
Y405861D01*
X654445D01*
Y405827D01*
X654513D01*
Y405792D01*
X654547D01*
Y405758D01*
X654615D01*
Y405724D01*
X654683D01*
Y405690D01*
X654717D01*
Y405656D01*
X654786D01*
Y405622D01*
X654854D01*
Y405588D01*
X654922D01*
Y405554D01*
X654956D01*
Y405520D01*
X655024D01*
Y405485D01*
X655092D01*
Y405451D01*
X655161D01*
Y405417D01*
X655195D01*
Y405383D01*
X655263D01*
Y405349D01*
X655331D01*
Y405315D01*
X655399D01*
Y405281D01*
X655434D01*
Y405247D01*
X655502D01*
Y405213D01*
X655570D01*
Y405179D01*
X655604D01*
Y405145D01*
X655672D01*
Y405111D01*
X655740D01*
Y405076D01*
X655809D01*
Y405042D01*
X655843D01*
Y405008D01*
X655911D01*
Y404974D01*
X655979D01*
Y404940D01*
X656047D01*
Y404906D01*
X656081D01*
Y404872D01*
X656149D01*
Y404838D01*
X656218D01*
Y404804D01*
X656286D01*
Y404770D01*
X656320D01*
Y404735D01*
X656388D01*
Y404701D01*
X656456D01*
Y404667D01*
X656491D01*
Y404633D01*
X656559D01*
Y404599D01*
X656627D01*
Y404565D01*
X656695D01*
Y404531D01*
X656729D01*
Y404497D01*
X656797D01*
Y404463D01*
X656866D01*
Y404428D01*
X656934D01*
Y404394D01*
X656968D01*
Y404360D01*
X657036D01*
Y404326D01*
X657104D01*
Y404292D01*
X657172D01*
Y404258D01*
X657207D01*
Y404224D01*
X657275D01*
Y404190D01*
X657343D01*
Y404156D01*
X657377D01*
Y404122D01*
X657445D01*
Y404087D01*
X657514D01*
Y404053D01*
X657582D01*
Y404019D01*
X657616D01*
Y403985D01*
X657684D01*
Y403951D01*
X657752D01*
Y403917D01*
X657820D01*
Y403883D01*
X657855D01*
Y403849D01*
X657923D01*
Y403815D01*
X657991D01*
Y403781D01*
X658025D01*
Y403747D01*
X658093D01*
Y403712D01*
X658161D01*
Y403678D01*
X658230D01*
Y403644D01*
X658264D01*
Y403610D01*
X658332D01*
Y403576D01*
X658400D01*
Y403542D01*
X658468D01*
Y403508D01*
X658502D01*
Y403474D01*
X658570D01*
Y403440D01*
X658639D01*
Y403406D01*
X658707D01*
Y403371D01*
X658741D01*
Y403337D01*
X658809D01*
Y403303D01*
X658877D01*
Y403269D01*
X658912D01*
Y403235D01*
X658980D01*
Y403201D01*
X659048D01*
Y403167D01*
X659116D01*
Y403133D01*
X659150D01*
Y403099D01*
X659218D01*
Y403064D01*
X659287D01*
Y403030D01*
X659355D01*
Y402996D01*
X659389D01*
Y402962D01*
X659457D01*
Y402928D01*
X659525D01*
Y402894D01*
X659593D01*
Y402860D01*
X659628D01*
Y402826D01*
X659696D01*
Y402792D01*
X659764D01*
Y402758D01*
X659798D01*
Y402724D01*
X659866D01*
Y402690D01*
X659935D01*
Y402655D01*
X660003D01*
Y402621D01*
X660037D01*
Y402587D01*
X660105D01*
Y402553D01*
X660173D01*
Y402519D01*
X660241D01*
Y402485D01*
X660276D01*
Y402451D01*
X660344D01*
Y402417D01*
X660412D01*
Y402383D01*
X660480D01*
Y402349D01*
X660514D01*
Y402314D01*
X660582D01*
Y402280D01*
X660651D01*
Y402246D01*
X660685D01*
Y402212D01*
X660753D01*
Y402178D01*
X660821D01*
Y402144D01*
X660889D01*
Y402110D01*
X660923D01*
Y402076D01*
X660991D01*
Y402042D01*
X661060D01*
Y402110D01*
X661094D01*
Y402144D01*
X661128D01*
Y402212D01*
X661162D01*
Y402280D01*
X661196D01*
Y402349D01*
X661230D01*
Y402417D01*
X661264D01*
Y402485D01*
X661298D01*
Y402553D01*
X661333D01*
Y402621D01*
X661367D01*
Y402690D01*
X661401D01*
Y402758D01*
X661435D01*
Y402826D01*
X661469D01*
Y402894D01*
X661503D01*
Y402962D01*
X661537D01*
Y403030D01*
X661571D01*
Y403133D01*
X661605D01*
Y403201D01*
X661639D01*
Y403269D01*
X661673D01*
Y403371D01*
X661708D01*
Y403440D01*
X661742D01*
Y403542D01*
X661776D01*
Y403610D01*
X661810D01*
Y403712D01*
X661844D01*
Y403815D01*
X661878D01*
Y403917D01*
X661912D01*
Y404019D01*
X661946D01*
Y404122D01*
X661980D01*
Y404224D01*
X662014D01*
Y404326D01*
X662049D01*
Y404463D01*
X662083D01*
Y404565D01*
X662117D01*
Y404701D01*
X662151D01*
Y404838D01*
X662185D01*
Y404974D01*
X662219D01*
Y405111D01*
X662253D01*
Y405281D01*
X662287D01*
Y405451D01*
X662321D01*
Y405656D01*
X662356D01*
Y405861D01*
X662390D01*
Y406133D01*
X662424D01*
Y406406D01*
X662458D01*
Y406849D01*
X662492D01*
Y408009D01*
X662458D01*
Y408350D01*
X662424D01*
Y408691D01*
X662390D01*
Y409032D01*
X662356D01*
Y409100D01*
X662458D01*
Y409134D01*
X662628D01*
Y409168D01*
X662833D01*
Y409202D01*
X663037D01*
Y409236D01*
X663242D01*
Y409270D01*
X663413D01*
Y409305D01*
X663617D01*
Y409339D01*
X663822D01*
Y409373D01*
X664026D01*
Y409407D01*
X664231D01*
Y409441D01*
X664401D01*
Y409475D01*
X664606D01*
Y409509D01*
X664811D01*
Y409543D01*
X664981D01*
Y409441D01*
X665015D01*
Y409100D01*
X665049D01*
Y408759D01*
X665083D01*
Y408350D01*
X665118D01*
Y406577D01*
X665083D01*
Y406202D01*
X665049D01*
Y405861D01*
X665015D01*
Y405622D01*
X664981D01*
Y405383D01*
X664947D01*
Y405179D01*
X664913D01*
Y405008D01*
X664879D01*
Y404804D01*
X664845D01*
Y404633D01*
X664811D01*
Y404497D01*
X664777D01*
Y404360D01*
X664742D01*
Y404224D01*
X664708D01*
Y404087D01*
X664674D01*
Y403951D01*
X664640D01*
Y403815D01*
X664606D01*
Y403712D01*
X664572D01*
Y403610D01*
X664538D01*
Y403474D01*
X664504D01*
Y403371D01*
X664470D01*
Y403269D01*
X664435D01*
Y403167D01*
X664401D01*
Y403064D01*
X664367D01*
Y402962D01*
X664333D01*
Y402894D01*
X664299D01*
Y402792D01*
X664265D01*
Y402690D01*
X664231D01*
Y402621D01*
X664197D01*
Y402519D01*
X664163D01*
Y402451D01*
X664129D01*
Y402349D01*
X664094D01*
Y402280D01*
X664060D01*
Y402178D01*
X664026D01*
Y402110D01*
X663992D01*
Y402042D01*
X663958D01*
Y401973D01*
X663924D01*
Y401871D01*
X663890D01*
Y401803D01*
X663856D01*
Y401735D01*
X663822D01*
Y401666D01*
X663788D01*
Y401598D01*
X663754D01*
Y401530D01*
X663719D01*
Y401462D01*
X663685D01*
Y401394D01*
X663651D01*
Y401326D01*
X663617D01*
Y401257D01*
X663583D01*
Y401189D01*
X663549D01*
Y401121D01*
X663515D01*
Y401053D01*
X663481D01*
Y401019D01*
X663447D01*
Y400950D01*
X663413D01*
Y400882D01*
X663378D01*
Y400814D01*
X663344D01*
Y400780D01*
X663310D01*
Y400712D01*
X663344D01*
Y400678D01*
X663413D01*
Y400643D01*
X663481D01*
Y400609D01*
X663549D01*
Y400575D01*
X663583D01*
Y400541D01*
X663651D01*
Y400507D01*
X663719D01*
Y400473D01*
X663788D01*
Y400439D01*
X663822D01*
Y400405D01*
X663890D01*
Y400371D01*
X663958D01*
Y400337D01*
X663992D01*
Y400303D01*
X664060D01*
Y400268D01*
X664129D01*
Y400234D01*
X664197D01*
Y400200D01*
X664231D01*
Y400166D01*
X664299D01*
Y400132D01*
X664367D01*
Y400098D01*
X664435D01*
Y400064D01*
X664470D01*
Y400030D01*
X664538D01*
Y399996D01*
X664606D01*
Y399962D01*
X664640D01*
Y399927D01*
X664708D01*
Y399893D01*
X664777D01*
Y399859D01*
X664845D01*
Y399825D01*
X664879D01*
Y399791D01*
X664947D01*
Y399757D01*
X665015D01*
Y399723D01*
X665083D01*
Y399689D01*
X665118D01*
Y399655D01*
X665186D01*
Y399621D01*
X665254D01*
Y399587D01*
X665322D01*
Y399552D01*
X665356D01*
Y399518D01*
X665424D01*
Y399484D01*
X665493D01*
Y399450D01*
X665527D01*
Y399416D01*
X665595D01*
Y399382D01*
X665663D01*
Y399348D01*
X665731D01*
Y399314D01*
X665765D01*
Y399280D01*
X665834D01*
Y399246D01*
X665902D01*
Y399211D01*
X665970D01*
Y399177D01*
X666004D01*
Y399143D01*
X666072D01*
Y399109D01*
X666140D01*
Y399075D01*
X666209D01*
Y399041D01*
X666243D01*
Y399007D01*
X666311D01*
Y398973D01*
X666379D01*
Y398939D01*
X666413D01*
Y398904D01*
X666481D01*
Y398870D01*
X666550D01*
Y398836D01*
X666618D01*
Y398802D01*
X666652D01*
Y398768D01*
X666720D01*
Y398734D01*
X666788D01*
Y398700D01*
X666856D01*
Y398666D01*
X666891D01*
Y398632D01*
X666959D01*
Y398598D01*
X667027D01*
Y398564D01*
X667095D01*
Y398529D01*
X667129D01*
Y398495D01*
X667198D01*
Y398461D01*
X667266D01*
Y398427D01*
X667300D01*
Y398393D01*
X667368D01*
Y398359D01*
X667436D01*
Y398325D01*
X667504D01*
Y398291D01*
X667538D01*
Y398257D01*
X667607D01*
Y398222D01*
X667675D01*
Y398188D01*
X667743D01*
Y398154D01*
X667777D01*
Y398120D01*
X667845D01*
Y398086D01*
X667914D01*
Y398052D01*
X667948D01*
Y398018D01*
X668016D01*
Y397984D01*
X668084D01*
Y397950D01*
X668152D01*
Y397916D01*
X668186D01*
Y397882D01*
X668255D01*
Y397847D01*
X668323D01*
Y397813D01*
X668391D01*
Y397779D01*
X668425D01*
Y397745D01*
X668493D01*
Y397711D01*
X668561D01*
Y397677D01*
X668630D01*
Y397643D01*
X668664D01*
Y397609D01*
X668732D01*
Y397575D01*
X668800D01*
Y397541D01*
X668834D01*
Y397506D01*
X668902D01*
Y397472D01*
X668971D01*
Y397438D01*
X669039D01*
Y397404D01*
X669073D01*
Y397370D01*
X669141D01*
Y397336D01*
X669209D01*
Y397302D01*
X669277D01*
Y397268D01*
X669312D01*
Y397234D01*
X669380D01*
Y397200D01*
X669448D01*
Y397165D01*
X669516D01*
Y397131D01*
X669550D01*
Y397097D01*
X669619D01*
Y397063D01*
X669687D01*
Y397029D01*
X669721D01*
Y396995D01*
X669789D01*
Y396961D01*
X669857D01*
Y396927D01*
X669925D01*
Y396893D01*
X669959D01*
Y396859D01*
X670028D01*
Y396825D01*
X670096D01*
Y396790D01*
X670164D01*
Y396756D01*
X670198D01*
Y396722D01*
X670266D01*
Y396688D01*
X670335D01*
Y396654D01*
X670403D01*
Y396620D01*
X670437D01*
Y396586D01*
X670505D01*
Y396552D01*
X670573D01*
Y396518D01*
X670607D01*
Y396483D01*
X670676D01*
Y396449D01*
X670744D01*
Y396415D01*
X670812D01*
Y396381D01*
X670846D01*
Y396347D01*
X670914D01*
Y396313D01*
X670982D01*
Y396279D01*
X671051D01*
Y396245D01*
X671085D01*
Y396211D01*
X671153D01*
Y396177D01*
X671221D01*
Y396143D01*
X671255D01*
Y396108D01*
X671323D01*
Y396074D01*
X671392D01*
Y396040D01*
X671460D01*
Y396006D01*
X671494D01*
Y395972D01*
X671562D01*
Y395938D01*
X671630D01*
Y395904D01*
X671699D01*
Y395870D01*
X671733D01*
Y395836D01*
X671801D01*
Y395801D01*
X671869D01*
Y395767D01*
X671937D01*
Y395733D01*
X671971D01*
Y395699D01*
X672040D01*
Y395665D01*
X672108D01*
Y395631D01*
X672142D01*
Y395597D01*
X672210D01*
Y395563D01*
X672244D01*
Y419398D01*
D02*
G37*
%LPD*%
D10*
X712598Y612402D02*
G03*
X700000Y625000I-12598J0D01*
G01*
Y65945D02*
G03*
X712598Y78543I0J12598D01*
G01*
X37187Y625000D02*
G03*
X24588Y612402I0J-12598D01*
G01*
Y78543D02*
G03*
X37187Y65945I12598J0D01*
G01*
X700000D01*
X37187Y625000D02*
X700000D01*
X712598Y78543D02*
Y612402D01*
X24588Y78543D02*
Y612402D01*
X40237Y585222D02*
X41680D01*
Y586665D01*
X40237D01*
Y585222D01*
X41680Y583779D01*
X44566D01*
X46009Y585222D01*
Y588108D01*
X44566Y589551D01*
X38794D01*
X37351Y588108D01*
Y583779D01*
Y580893D02*
Y576563D01*
X38794Y575120D01*
X40237Y576563D01*
Y579450D01*
X41680Y580893D01*
X43123Y579450D01*
Y575120D01*
Y570791D02*
Y567905D01*
X41680Y566462D01*
X37351D01*
Y570791D01*
X38794Y572234D01*
X40237Y570791D01*
Y566462D01*
X37351Y563575D02*
X43123D01*
Y562132D01*
X41680Y560689D01*
X37351D01*
X41680D01*
X43123Y559246D01*
X41680Y557803D01*
X37351D01*
Y554917D02*
Y550587D01*
X38794Y549144D01*
X40237Y550587D01*
Y553474D01*
X41680Y554917D01*
X43123Y553474D01*
Y549144D01*
X46009Y546258D02*
X37351D01*
X41680D01*
X43123Y544815D01*
Y541929D01*
X41680Y540486D01*
X37351D01*
X41680Y528941D02*
Y523168D01*
X37351Y505851D02*
Y511624D01*
X43123Y505851D01*
X44566D01*
X46009Y507294D01*
Y510181D01*
X44566Y511624D01*
Y502965D02*
X46009Y501522D01*
Y498636D01*
X44566Y497193D01*
X38794D01*
X37351Y498636D01*
Y501522D01*
X38794Y502965D01*
X44566D01*
X37351Y488534D02*
Y494306D01*
X43123Y488534D01*
X44566D01*
X46009Y489977D01*
Y492863D01*
X44566Y494306D01*
X37351Y481318D02*
X46009D01*
X41680Y485648D01*
Y479875D01*
X37351Y476989D02*
X43123Y471217D01*
X37351Y468330D02*
Y465444D01*
Y466887D01*
X46009D01*
X44566Y468330D01*
Y461115D02*
X46009Y459672D01*
Y456786D01*
X44566Y455343D01*
X38794D01*
X37351Y456786D01*
Y459672D01*
X38794Y461115D01*
X44566D01*
X41680Y443798D02*
Y438025D01*
X46009Y426480D02*
X38794D01*
X37351Y425037D01*
Y422151D01*
X38794Y420708D01*
X46009D01*
X37351Y417822D02*
X46009D01*
X37351Y412049D01*
X46009D01*
X44566Y403391D02*
X46009Y404834D01*
Y407720D01*
X44566Y409163D01*
X43123D01*
X41680Y407720D01*
Y404834D01*
X40237Y403391D01*
X38794D01*
X37351Y404834D01*
Y407720D01*
X38794Y409163D01*
X46009Y400505D02*
X37351D01*
X40237Y397618D01*
X37351Y394732D01*
X46009D01*
X41680Y383187D02*
Y377415D01*
X46009Y365870D02*
X37351D01*
X41680D01*
Y360098D01*
X46009D01*
X37351D01*
Y357211D02*
Y354325D01*
Y355768D01*
X43123D01*
Y357211D01*
X41680Y349996D02*
Y344224D01*
X46009Y335565D02*
Y341337D01*
X41680D01*
Y338451D01*
Y341337D01*
X37351D01*
Y332679D02*
Y329793D01*
Y331236D01*
X43123D01*
Y332679D01*
X37351Y321134D02*
Y324020D01*
X38794Y325463D01*
X41680D01*
X43123Y324020D01*
Y321134D01*
X41680Y319691D01*
X40237D01*
Y325463D01*
X37351Y316805D02*
Y313918D01*
Y315361D01*
X46009D01*
Y316805D01*
Y303817D02*
X37351D01*
Y308146D01*
X38794Y309589D01*
X41680D01*
X43123Y308146D01*
Y303817D01*
Y292272D02*
X37351Y286500D01*
X40237Y289386D01*
X43123Y286500D01*
X37351Y292272D01*
Y277841D02*
Y283613D01*
X43123Y277841D01*
X44566D01*
X46009Y279284D01*
Y282170D01*
X44566Y283613D01*
X46009Y269182D02*
Y274955D01*
X41680D01*
X43123Y272068D01*
Y270625D01*
X41680Y269182D01*
X38794D01*
X37351Y270625D01*
Y273512D01*
X38794Y274955D01*
X46009Y260524D02*
X44566Y263410D01*
X41680Y266296D01*
X38794D01*
X37351Y264853D01*
Y261967D01*
X38794Y260524D01*
X40237D01*
X41680Y261967D01*
Y266296D01*
X46009Y248979D02*
X37351D01*
X41680D01*
Y243206D01*
X46009D01*
X37351D01*
X43123Y238877D02*
Y235991D01*
X41680Y234548D01*
X37351D01*
Y238877D01*
X38794Y240320D01*
X40237Y238877D01*
Y234548D01*
X37351Y231662D02*
Y228775D01*
Y230218D01*
X46009D01*
Y231662D01*
X37351Y224446D02*
Y221560D01*
Y223003D01*
X46009D01*
Y224446D01*
X37351Y208572D02*
X43123D01*
X46009Y205686D01*
X43123Y202800D01*
X37351D01*
X41680D01*
Y208572D01*
X43123Y199913D02*
X37351D01*
X40237D01*
X41680Y198470D01*
X43123Y197027D01*
Y195584D01*
Y191255D02*
X37351D01*
X40237D01*
X41680Y189812D01*
X43123Y188368D01*
Y186925D01*
Y181153D02*
Y178267D01*
X41680Y176824D01*
X37351D01*
Y181153D01*
X38794Y182596D01*
X40237Y181153D01*
Y176824D01*
X43123Y173937D02*
X38794D01*
X37351Y172494D01*
Y168165D01*
X35908D01*
X34465Y169608D01*
Y171051D01*
X37351Y168165D02*
X43123D01*
X44566Y150848D02*
X46009Y152291D01*
Y155177D01*
X44566Y156620D01*
X43123D01*
X41680Y155177D01*
Y152291D01*
X40237Y150848D01*
X38794D01*
X37351Y152291D01*
Y155177D01*
X38794Y156620D01*
X37351Y143632D02*
Y146518D01*
X38794Y147961D01*
X41680D01*
X43123Y146518D01*
Y143632D01*
X41680Y142189D01*
X40237D01*
Y147961D01*
X37351Y139303D02*
X43123D01*
Y134974D01*
X41680Y133530D01*
X37351D01*
Y130644D02*
Y126315D01*
X38794Y124872D01*
X40237Y126315D01*
Y129201D01*
X41680Y130644D01*
X43123Y129201D01*
Y124872D01*
X37351Y120543D02*
Y117656D01*
X38794Y116213D01*
X41680D01*
X43123Y117656D01*
Y120543D01*
X41680Y121986D01*
X38794D01*
X37351Y120543D01*
X43123Y113327D02*
X37351D01*
X40237D01*
X41680Y111884D01*
X43123Y110441D01*
Y108998D01*
X671337Y123124D02*
X670338Y124124D01*
X668338D01*
X667339Y123124D01*
Y119126D01*
X668338Y118126D01*
X670338D01*
X671337Y119126D01*
Y121125D01*
X669338D01*
X673337Y118126D02*
Y124124D01*
X677335Y118126D01*
Y124124D01*
X679335D02*
Y118126D01*
X682334D01*
X683333Y119126D01*
Y123124D01*
X682334Y124124D01*
X679335D01*
X662524Y107466D02*
X658525D01*
Y104467D01*
X660524Y105466D01*
X661524D01*
X662524Y104467D01*
Y102467D01*
X661524Y101468D01*
X659525D01*
X658525Y102467D01*
X664523Y107466D02*
Y103467D01*
X666522Y101468D01*
X668522Y103467D01*
Y107466D01*
X680041Y346503D02*
Y341505D01*
X681041Y340505D01*
X683040D01*
X684040Y341505D01*
Y346503D01*
X690038Y340505D02*
X686039D01*
X690038Y344504D01*
Y345503D01*
X689038Y346503D01*
X687039D01*
X686039Y345503D01*
X641877Y114629D02*
X635879D01*
Y110630D01*
Y108631D02*
Y106631D01*
Y107631D01*
X641877D01*
X640877Y108631D01*
X660921Y383834D02*
X658921D01*
X659921D01*
Y378835D01*
X658921Y377836D01*
X657922D01*
X656922Y378835D01*
X662920Y377836D02*
X664919D01*
X663920D01*
Y383834D01*
X662920Y382834D01*
D11*
X644353Y305858D02*
G03*
X644353Y305858I-492J0D01*
G01*
X485626Y189306D02*
G03*
X485626Y189306I-492J0D01*
G01*
Y153873D02*
G03*
X485626Y153873I-492J0D01*
G01*
Y118440D02*
G03*
X485626Y118440I-492J0D01*
G01*
Y83007D02*
G03*
X485626Y83007I-492J0D01*
G01*
X521059D02*
G03*
X521059Y83007I-492J0D01*
G01*
Y153873D02*
G03*
X521059Y153873I-492J0D01*
G01*
Y118440D02*
G03*
X521059Y118440I-492J0D01*
G01*
X591925Y83007D02*
G03*
X591925Y83007I-492J0D01*
G01*
X556492D02*
G03*
X556492Y83007I-492J0D01*
G01*
Y118440D02*
G03*
X556492Y118440I-492J0D01*
G01*
Y153873D02*
G03*
X556492Y153873I-492J0D01*
G01*
Y189306D02*
G03*
X556492Y189306I-492J0D01*
G01*
X521059D02*
G03*
X521059Y189306I-492J0D01*
G01*
X591925Y153873D02*
G03*
X591925Y153873I-492J0D01*
G01*
Y189306D02*
G03*
X591925Y189306I-492J0D01*
G01*
Y118440D02*
G03*
X591925Y118440I-492J0D01*
G01*
X343841Y189366D02*
G03*
X343841Y189366I-492J0D01*
G01*
Y153933D02*
G03*
X343841Y153933I-492J0D01*
G01*
Y118500D02*
G03*
X343841Y118500I-492J0D01*
G01*
Y83067D02*
G03*
X343841Y83067I-492J0D01*
G01*
X450141Y189366D02*
G03*
X450141Y189366I-492J0D01*
G01*
Y83067D02*
G03*
X450141Y83067I-492J0D01*
G01*
X379275Y189366D02*
G03*
X379275Y189366I-492J0D01*
G01*
X414708Y153933D02*
G03*
X414708Y153933I-492J0D01*
G01*
Y189366D02*
G03*
X414708Y189366I-492J0D01*
G01*
X379275Y153933D02*
G03*
X379275Y153933I-492J0D01*
G01*
X414708Y118500D02*
G03*
X414708Y118500I-492J0D01*
G01*
Y83067D02*
G03*
X414708Y83067I-492J0D01*
G01*
X379275Y118500D02*
G03*
X379275Y118500I-492J0D01*
G01*
Y83067D02*
G03*
X379275Y83067I-492J0D01*
G01*
X450141Y153933D02*
G03*
X450141Y153933I-492J0D01*
G01*
Y118500D02*
G03*
X450141Y118500I-492J0D01*
G01*
X237546Y189333D02*
G03*
X237546Y189333I-492J0D01*
G01*
X202113D02*
G03*
X202113Y189333I-492J0D01*
G01*
X272979D02*
G03*
X272979Y189333I-492J0D01*
G01*
Y153901D02*
G03*
X272979Y153901I-492J0D01*
G01*
Y118467D02*
G03*
X272979Y118467I-492J0D01*
G01*
X308412D02*
G03*
X308412Y118467I-492J0D01*
G01*
Y83034D02*
G03*
X308412Y83034I-492J0D01*
G01*
X272979D02*
G03*
X272979Y83034I-492J0D01*
G01*
X308412Y189333D02*
G03*
X308412Y189333I-492J0D01*
G01*
Y153901D02*
G03*
X308412Y153901I-492J0D01*
G01*
X237546D02*
G03*
X237546Y153901I-492J0D01*
G01*
Y83034D02*
G03*
X237546Y83034I-492J0D01*
G01*
Y118467D02*
G03*
X237546Y118467I-492J0D01*
G01*
X202113Y83034D02*
G03*
X202113Y83034I-492J0D01*
G01*
Y153901D02*
G03*
X202113Y153901I-492J0D01*
G01*
Y118467D02*
G03*
X202113Y118467I-492J0D01*
G01*
X166653Y83154D02*
G03*
X166653Y83154I-492J0D01*
G01*
Y154020D02*
G03*
X166653Y154020I-492J0D01*
G01*
Y189453D02*
G03*
X166653Y189453I-492J0D01*
G01*
Y118587D02*
G03*
X166653Y118587I-492J0D01*
G01*
X131220Y83154D02*
G03*
X131220Y83154I-492J0D01*
G01*
Y118587D02*
G03*
X131220Y118587I-492J0D01*
G01*
X60354D02*
G03*
X60354Y118587I-492J0D01*
G01*
X95787Y189453D02*
G03*
X95787Y189453I-492J0D01*
G01*
X60354Y154020D02*
G03*
X60354Y154020I-492J0D01*
G01*
X95787D02*
G03*
X95787Y154020I-492J0D01*
G01*
X131220D02*
G03*
X131220Y154020I-492J0D01*
G01*
Y189453D02*
G03*
X131220Y189453I-492J0D01*
G01*
X95787Y118587D02*
G03*
X95787Y118587I-492J0D01*
G01*
Y83154D02*
G03*
X95787Y83154I-492J0D01*
G01*
X60354D02*
G03*
X60354Y83154I-492J0D01*
G01*
Y189453D02*
G03*
X60354Y189453I-492J0D01*
G01*
X485476Y331104D02*
G03*
X485476Y331104I-492J0D01*
G01*
Y295671D02*
G03*
X485476Y295671I-492J0D01*
G01*
X520910Y331104D02*
G03*
X520910Y331104I-492J0D01*
G01*
Y295671D02*
G03*
X520910Y295671I-492J0D01*
G01*
X556343D02*
G03*
X556343Y295671I-492J0D01*
G01*
Y331104D02*
G03*
X556343Y331104I-492J0D01*
G01*
X591776D02*
G03*
X591776Y331104I-492J0D01*
G01*
Y295671D02*
G03*
X591776Y295671I-492J0D01*
G01*
X556343Y260238D02*
G03*
X556343Y260238I-492J0D01*
G01*
X520910D02*
G03*
X520910Y260238I-492J0D01*
G01*
X591776D02*
G03*
X591776Y260238I-492J0D01*
G01*
Y224805D02*
G03*
X591776Y224805I-492J0D01*
G01*
X556343D02*
G03*
X556343Y224805I-492J0D01*
G01*
X520910D02*
G03*
X520910Y224805I-492J0D01*
G01*
X485476D02*
G03*
X485476Y224805I-492J0D01*
G01*
Y260238D02*
G03*
X485476Y260238I-492J0D01*
G01*
X343820Y224829D02*
G03*
X343820Y224829I-492J0D01*
G01*
Y260262D02*
G03*
X343820Y260262I-492J0D01*
G01*
Y331128D02*
G03*
X343820Y331128I-492J0D01*
G01*
Y295695D02*
G03*
X343820Y295695I-492J0D01*
G01*
X379253Y331128D02*
G03*
X379253Y331128I-492J0D01*
G01*
Y295695D02*
G03*
X379253Y295695I-492J0D01*
G01*
Y224829D02*
G03*
X379253Y224829I-492J0D01*
G01*
Y260262D02*
G03*
X379253Y260262I-492J0D01*
G01*
X414686Y224829D02*
G03*
X414686Y224829I-492J0D01*
G01*
Y331128D02*
G03*
X414686Y331128I-492J0D01*
G01*
Y295695D02*
G03*
X414686Y295695I-492J0D01*
G01*
Y260262D02*
G03*
X414686Y260262I-492J0D01*
G01*
X450119Y331128D02*
G03*
X450119Y331128I-492J0D01*
G01*
Y295695D02*
G03*
X450119Y295695I-492J0D01*
G01*
Y224829D02*
G03*
X450119Y224829I-492J0D01*
G01*
Y260262D02*
G03*
X450119Y260262I-492J0D01*
G01*
X201965Y224713D02*
G03*
X201965Y224713I-492J0D01*
G01*
Y295579D02*
G03*
X201965Y295579I-492J0D01*
G01*
Y260146D02*
G03*
X201965Y260146I-492J0D01*
G01*
Y331012D02*
G03*
X201965Y331012I-492J0D01*
G01*
X237398Y224713D02*
G03*
X237398Y224713I-492J0D01*
G01*
Y260146D02*
G03*
X237398Y260146I-492J0D01*
G01*
Y331012D02*
G03*
X237398Y331012I-492J0D01*
G01*
Y295579D02*
G03*
X237398Y295579I-492J0D01*
G01*
X272831Y331012D02*
G03*
X272831Y331012I-492J0D01*
G01*
Y295579D02*
G03*
X272831Y295579I-492J0D01*
G01*
Y260146D02*
G03*
X272831Y260146I-492J0D01*
G01*
Y224713D02*
G03*
X272831Y224713I-492J0D01*
G01*
X308264D02*
G03*
X308264Y224713I-492J0D01*
G01*
Y295579D02*
G03*
X308264Y295579I-492J0D01*
G01*
Y331012D02*
G03*
X308264Y331012I-492J0D01*
G01*
Y260146D02*
G03*
X308264Y260146I-492J0D01*
G01*
X95662Y331182D02*
G03*
X95662Y331182I-492J0D01*
G01*
Y295748D02*
G03*
X95662Y295748I-492J0D01*
G01*
X166528Y260315D02*
G03*
X166528Y260315I-492J0D01*
G01*
Y224882D02*
G03*
X166528Y224882I-492J0D01*
G01*
X60229Y331182D02*
G03*
X60229Y331182I-492J0D01*
G01*
Y295748D02*
G03*
X60229Y295748I-492J0D01*
G01*
X131095Y224882D02*
G03*
X131095Y224882I-492J0D01*
G01*
Y260315D02*
G03*
X131095Y260315I-492J0D01*
G01*
Y295748D02*
G03*
X131095Y295748I-492J0D01*
G01*
X166528D02*
G03*
X166528Y295748I-492J0D01*
G01*
Y331182D02*
G03*
X166528Y331182I-492J0D01*
G01*
X131095D02*
G03*
X131095Y331182I-492J0D01*
G01*
X60229Y260315D02*
G03*
X60229Y260315I-492J0D01*
G01*
X95662Y224882D02*
G03*
X95662Y224882I-492J0D01*
G01*
Y260315D02*
G03*
X95662Y260315I-492J0D01*
G01*
X60229Y224882D02*
G03*
X60229Y224882I-492J0D01*
G01*
X520932Y437405D02*
G03*
X520932Y437405I-492J0D01*
G01*
X485499D02*
G03*
X485499Y437405I-492J0D01*
G01*
Y472838D02*
G03*
X485499Y472838I-492J0D01*
G01*
X556365Y437405D02*
G03*
X556365Y437405I-492J0D01*
G01*
X591798D02*
G03*
X591798Y437405I-492J0D01*
G01*
Y401972D02*
G03*
X591798Y401972I-492J0D01*
G01*
X556365D02*
G03*
X556365Y401972I-492J0D01*
G01*
Y366539D02*
G03*
X556365Y366539I-492J0D01*
G01*
X591798D02*
G03*
X591798Y366539I-492J0D01*
G01*
X520932Y472838D02*
G03*
X520932Y472838I-492J0D01*
G01*
X591798D02*
G03*
X591798Y472838I-492J0D01*
G01*
X556365D02*
G03*
X556365Y472838I-492J0D01*
G01*
X485499Y401972D02*
G03*
X485499Y401972I-492J0D01*
G01*
X520932Y366539D02*
G03*
X520932Y366539I-492J0D01*
G01*
X485499D02*
G03*
X485499Y366539I-492J0D01*
G01*
X520932Y401972D02*
G03*
X520932Y401972I-492J0D01*
G01*
X343717Y472820D02*
G03*
X343717Y472820I-492J0D01*
G01*
X379150D02*
G03*
X379150Y472820I-492J0D01*
G01*
X450016D02*
G03*
X450016Y472820I-492J0D01*
G01*
X414583Y401954D02*
G03*
X414583Y401954I-492J0D01*
G01*
X343717Y437387D02*
G03*
X343717Y437387I-492J0D01*
G01*
X379150Y401954D02*
G03*
X379150Y401954I-492J0D01*
G01*
X450016Y437387D02*
G03*
X450016Y437387I-492J0D01*
G01*
Y401954D02*
G03*
X450016Y401954I-492J0D01*
G01*
Y366521D02*
G03*
X450016Y366521I-492J0D01*
G01*
X414583D02*
G03*
X414583Y366521I-492J0D01*
G01*
X379150D02*
G03*
X379150Y366521I-492J0D01*
G01*
X414583Y437387D02*
G03*
X414583Y437387I-492J0D01*
G01*
Y472820D02*
G03*
X414583Y472820I-492J0D01*
G01*
X379150Y437387D02*
G03*
X379150Y437387I-492J0D01*
G01*
X343717Y366521D02*
G03*
X343717Y366521I-492J0D01*
G01*
Y401954D02*
G03*
X343717Y401954I-492J0D01*
G01*
X202002Y401831D02*
G03*
X202002Y401831I-492J0D01*
G01*
Y472697D02*
G03*
X202002Y472697I-492J0D01*
G01*
Y437264D02*
G03*
X202002Y437264I-492J0D01*
G01*
Y366398D02*
G03*
X202002Y366398I-492J0D01*
G01*
X237435Y401831D02*
G03*
X237435Y401831I-492J0D01*
G01*
Y472697D02*
G03*
X237435Y472697I-492J0D01*
G01*
Y437264D02*
G03*
X237435Y437264I-492J0D01*
G01*
X308301Y472697D02*
G03*
X308301Y472697I-492J0D01*
G01*
Y437264D02*
G03*
X308301Y437264I-492J0D01*
G01*
X272868Y472697D02*
G03*
X272868Y472697I-492J0D01*
G01*
Y437264D02*
G03*
X272868Y437264I-492J0D01*
G01*
Y401831D02*
G03*
X272868Y401831I-492J0D01*
G01*
X237435Y366398D02*
G03*
X237435Y366398I-492J0D01*
G01*
X272868D02*
G03*
X272868Y366398I-492J0D01*
G01*
X308301Y401831D02*
G03*
X308301Y401831I-492J0D01*
G01*
Y366398D02*
G03*
X308301Y366398I-492J0D01*
G01*
X131224Y472914D02*
G03*
X131224Y472914I-492J0D01*
G01*
Y437480D02*
G03*
X131224Y437480I-492J0D01*
G01*
X166657Y472914D02*
G03*
X166657Y472914I-492J0D01*
G01*
Y437480D02*
G03*
X166657Y437480I-492J0D01*
G01*
Y366614D02*
G03*
X166657Y366614I-492J0D01*
G01*
Y402047D02*
G03*
X166657Y402047I-492J0D01*
G01*
X131224Y366614D02*
G03*
X131224Y366614I-492J0D01*
G01*
Y402047D02*
G03*
X131224Y402047I-492J0D01*
G01*
X95791Y366614D02*
G03*
X95791Y366614I-492J0D01*
G01*
Y402047D02*
G03*
X95791Y402047I-492J0D01*
G01*
Y472914D02*
G03*
X95791Y472914I-492J0D01*
G01*
Y437480D02*
G03*
X95791Y437480I-492J0D01*
G01*
X60358Y366614D02*
G03*
X60358Y366614I-492J0D01*
G01*
Y472914D02*
G03*
X60358Y472914I-492J0D01*
G01*
Y402047D02*
G03*
X60358Y402047I-492J0D01*
G01*
Y437480D02*
G03*
X60358Y437480I-492J0D01*
G01*
X521055Y579134D02*
G03*
X521055Y579134I-492J0D01*
G01*
X556488Y614567D02*
G03*
X556488Y614567I-492J0D01*
G01*
X591921D02*
G03*
X591921Y614567I-492J0D01*
G01*
X485622Y579134D02*
G03*
X485622Y579134I-492J0D01*
G01*
X521055Y614567D02*
G03*
X521055Y614567I-492J0D01*
G01*
X485622D02*
G03*
X485622Y614567I-492J0D01*
G01*
X556488Y579134D02*
G03*
X556488Y579134I-492J0D01*
G01*
X591921D02*
G03*
X591921Y579134I-492J0D01*
G01*
Y543701D02*
G03*
X591921Y543701I-492J0D01*
G01*
X556488D02*
G03*
X556488Y543701I-492J0D01*
G01*
X521055Y508268D02*
G03*
X521055Y508268I-492J0D01*
G01*
Y543701D02*
G03*
X521055Y543701I-492J0D01*
G01*
X485622Y508268D02*
G03*
X485622Y508268I-492J0D01*
G01*
Y543701D02*
G03*
X485622Y543701I-492J0D01*
G01*
X556488Y508268D02*
G03*
X556488Y508268I-492J0D01*
G01*
X591921D02*
G03*
X591921Y508268I-492J0D01*
G01*
X343987Y508345D02*
G03*
X343987Y508345I-492J0D01*
G01*
X414853Y614644D02*
G03*
X414853Y614644I-492J0D01*
G01*
X379420D02*
G03*
X379420Y614644I-492J0D01*
G01*
X450286Y543778D02*
G03*
X450286Y543778I-492J0D01*
G01*
X414853D02*
G03*
X414853Y543778I-492J0D01*
G01*
X450286Y508345D02*
G03*
X450286Y508345I-492J0D01*
G01*
X414853D02*
G03*
X414853Y508345I-492J0D01*
G01*
X379420D02*
G03*
X379420Y508345I-492J0D01*
G01*
X343987Y543778D02*
G03*
X343987Y543778I-492J0D01*
G01*
Y614644D02*
G03*
X343987Y614644I-492J0D01*
G01*
Y579211D02*
G03*
X343987Y579211I-492J0D01*
G01*
X450286Y614644D02*
G03*
X450286Y614644I-492J0D01*
G01*
Y579211D02*
G03*
X450286Y579211I-492J0D01*
G01*
X414853D02*
G03*
X414853Y579211I-492J0D01*
G01*
X379420Y543778D02*
G03*
X379420Y543778I-492J0D01*
G01*
Y579211D02*
G03*
X379420Y579211I-492J0D01*
G01*
X308479Y579203D02*
G03*
X308479Y579203I-492J0D01*
G01*
X273046Y508337D02*
G03*
X273046Y508337I-492J0D01*
G01*
X308479Y543770D02*
G03*
X308479Y543770I-492J0D01*
G01*
Y508337D02*
G03*
X308479Y508337I-492J0D01*
G01*
Y614636D02*
G03*
X308479Y614636I-492J0D01*
G01*
X273046Y543770D02*
G03*
X273046Y543770I-492J0D01*
G01*
Y579203D02*
G03*
X273046Y579203I-492J0D01*
G01*
Y614636D02*
G03*
X273046Y614636I-492J0D01*
G01*
X237613Y508337D02*
G03*
X237613Y508337I-492J0D01*
G01*
Y543770D02*
G03*
X237613Y543770I-492J0D01*
G01*
X202180Y508337D02*
G03*
X202180Y508337I-492J0D01*
G01*
X237613Y614636D02*
G03*
X237613Y614636I-492J0D01*
G01*
Y579203D02*
G03*
X237613Y579203I-492J0D01*
G01*
X202180D02*
G03*
X202180Y579203I-492J0D01*
G01*
Y543770D02*
G03*
X202180Y543770I-492J0D01*
G01*
Y614636D02*
G03*
X202180Y614636I-492J0D01*
G01*
X131201Y543701D02*
G03*
X131201Y543701I-492J0D01*
G01*
X60335Y614567D02*
G03*
X60335Y614567I-492J0D01*
G01*
Y579134D02*
G03*
X60335Y579134I-492J0D01*
G01*
X688115Y508046D02*
G03*
X688115Y508046I-492J0D01*
G01*
X623351Y505446D02*
G03*
X623351Y505446I-492J0D01*
G01*
Y453281D02*
G03*
X623351Y453281I-492J0D01*
G01*
X687894Y217028D02*
G03*
X687894Y217028I-492J0D01*
G01*
X166634Y579134D02*
G03*
X166634Y579134I-492J0D01*
G01*
X95768Y614567D02*
G03*
X95768Y614567I-492J0D01*
G01*
Y579134D02*
G03*
X95768Y579134I-492J0D01*
G01*
X131201D02*
G03*
X131201Y579134I-492J0D01*
G01*
X166634Y614567D02*
G03*
X166634Y614567I-492J0D01*
G01*
X131201D02*
G03*
X131201Y614567I-492J0D01*
G01*
X95768Y508268D02*
G03*
X95768Y508268I-492J0D01*
G01*
X60335Y508268D02*
G03*
X60335Y508268I-492J0D01*
G01*
X95768Y543701D02*
G03*
X95768Y543701I-492J0D01*
G01*
X60335Y543701D02*
G03*
X60335Y543701I-492J0D01*
G01*
X166634D02*
G03*
X166634Y543701I-492J0D01*
G01*
Y508268D02*
G03*
X166634Y508268I-492J0D01*
G01*
X131201D02*
G03*
X131201Y508268I-492J0D01*
G01*
X623130Y162262D02*
G03*
X623130Y162262I-492J0D01*
G01*
X623130Y214428D02*
G03*
X623130Y214428I-492J0D01*
G01*
D12*
X635140Y305361D02*
G03*
X635140Y304968I0J-197D01*
G01*
D02*
G03*
X635140Y305361I0J197D01*
G01*
X634943Y336956D02*
G03*
X634943Y336562I0J-197D01*
G01*
D02*
G03*
X634943Y336956I0J197D01*
G01*
X687207Y337054D02*
G03*
X687207Y337448I0J197D01*
G01*
D02*
G03*
X687207Y337054I0J-197D01*
G01*
D13*
X624630Y519377D02*
G03*
X624630Y519377I-984J0D01*
G01*
Y467211D02*
G03*
X624630Y467211I-984J0D01*
G01*
X624409Y176193D02*
G03*
X624409Y176193I-984J0D01*
G01*
Y228358D02*
G03*
X624409Y228358I-984J0D01*
G01*
D14*
X662380Y375405D02*
X665888D01*
X672975Y368319D01*
Y368063D02*
Y368319D01*
Y303240D02*
Y303496D01*
X662380Y296153D02*
X665888D01*
X672975Y303240D01*
X649274Y296153D02*
X651128D01*
X649274Y375405D02*
X651128D01*
X649274Y368082D02*
Y375405D01*
Y296153D02*
Y303476D01*
X662047Y125295D02*
X710236D01*
Y99114D02*
Y125295D01*
X662047Y99114D02*
X710236D01*
X673937Y131890D02*
X677874Y131890D01*
X675906Y127953D02*
X677874Y131890D01*
X673937Y131890D02*
X675906Y127953D01*
D15*
X625197Y124803D02*
X652362D01*
Y119291D02*
Y124803D01*
X625197Y119291D02*
Y124803D01*
Y97638D02*
X625197Y103150D01*
X652362Y97638D02*
X652362Y103150D01*
X625197Y97638D02*
X652362D01*
X641242Y586910D02*
X641242Y566241D01*
X641242Y586910D02*
X650297Y586910D01*
X647344Y560138D02*
X650297D01*
X641242Y566241D02*
X647344Y560138D01*
X661911D02*
X668013Y566241D01*
X658958Y560138D02*
X661911D01*
X658958Y586910D02*
X668013D01*
Y566241D02*
Y586910D01*
X654921Y620669D02*
X675591D01*
X675591Y611614D01*
X648819D02*
X648819Y614567D01*
X654921Y620669D01*
X648819Y600000D02*
X654921Y593898D01*
X648819Y600000D02*
Y602953D01*
X675591Y593898D02*
X675591Y602953D01*
X654921Y593898D02*
X675591Y593898D01*
X607777Y566241D02*
Y586910D01*
X616832D01*
X613880Y560138D02*
X616832D01*
X607777Y566241D02*
X613880Y560138D01*
X628447D02*
X634549Y566241D01*
X625494Y560138D02*
X628447D01*
X625494Y586910D02*
X634549Y586910D01*
X634549Y566241D02*
X634549Y586910D01*
X488087Y187928D02*
X492024D01*
Y184778D02*
Y187928D01*
X488087Y176117D02*
X492024D01*
Y179267D01*
X488087Y152495D02*
X492024D01*
Y149345D02*
Y152495D01*
X488087Y140684D02*
X492024D01*
Y143833D01*
X488087Y117062D02*
X492024D01*
Y113912D02*
Y117062D01*
X488087Y105251D02*
X492024D01*
Y108400D01*
X488087Y81629D02*
X492024D01*
Y78479D02*
Y81629D01*
X488087Y69818D02*
X492024D01*
Y72967D01*
X523520Y81629D02*
X527457D01*
Y78479D02*
Y81629D01*
X523520Y69818D02*
X527457D01*
Y72967D01*
X523520Y152495D02*
X527457D01*
Y149345D02*
Y152495D01*
X523520Y140684D02*
X527457D01*
Y143833D01*
X523520Y117062D02*
X527457D01*
Y113912D02*
Y117062D01*
X523520Y105251D02*
X527457D01*
Y108400D01*
X594386Y81629D02*
X598323D01*
Y78479D02*
Y81629D01*
X594386Y69818D02*
X598323D01*
Y72967D01*
X558953Y81629D02*
X562890D01*
Y78479D02*
Y81629D01*
X558953Y69818D02*
X562890D01*
Y72967D01*
X558953Y117062D02*
X562890D01*
Y113912D02*
Y117062D01*
X558953Y105251D02*
X562890D01*
Y108400D01*
X558953Y152495D02*
X562890D01*
Y149345D02*
Y152495D01*
X558953Y140684D02*
X562890D01*
Y143833D01*
X558953Y187928D02*
X562890D01*
Y184778D02*
Y187928D01*
X558953Y176117D02*
X562890D01*
Y179267D01*
X523520Y187928D02*
X527457D01*
Y184778D02*
Y187928D01*
X523520Y176117D02*
X527457D01*
Y179267D01*
X594386Y152495D02*
X598323D01*
Y149345D02*
Y152495D01*
X594386Y140684D02*
X598323D01*
Y143833D01*
X594386Y187928D02*
X598323D01*
Y184778D02*
Y187928D01*
X594386Y176117D02*
X598323D01*
Y179267D01*
X594386Y117062D02*
X598323D01*
Y113912D02*
Y117062D01*
X594386Y105251D02*
X598323D01*
Y108400D01*
X346302Y187988D02*
X350239D01*
Y184838D02*
Y187988D01*
X346302Y176177D02*
X350239D01*
Y179327D01*
X346302Y152555D02*
X350239D01*
Y149405D02*
Y152555D01*
X346302Y140744D02*
X350239D01*
Y143894D01*
X346302Y117122D02*
X350239D01*
Y113972D02*
Y117122D01*
X346302Y105311D02*
X350239D01*
Y108460D01*
X346302Y81689D02*
X350239D01*
Y78539D02*
Y81689D01*
X346302Y69878D02*
X350239D01*
Y73027D01*
X452601Y187988D02*
X456538D01*
Y184838D02*
Y187988D01*
X452601Y176177D02*
X456538D01*
Y179327D01*
X452601Y81689D02*
X456538D01*
Y78539D02*
Y81689D01*
X452601Y69878D02*
X456538D01*
Y73027D01*
X381735Y187988D02*
X385672D01*
Y184838D02*
Y187988D01*
X381735Y176177D02*
X385672D01*
Y179327D01*
X417168Y152555D02*
X421105D01*
Y149405D02*
Y152555D01*
X417168Y140744D02*
X421105D01*
Y143894D01*
X417168Y187988D02*
X421105D01*
Y184838D02*
Y187988D01*
X417168Y176177D02*
X421105D01*
Y179327D01*
X381735Y152555D02*
X385672D01*
Y149405D02*
Y152555D01*
X381735Y140744D02*
X385672D01*
Y143894D01*
X417168Y117122D02*
X421105D01*
Y113972D02*
Y117122D01*
X417168Y105311D02*
X421105D01*
Y108460D01*
X417168Y81689D02*
X421105D01*
Y78539D02*
Y81689D01*
X417168Y69878D02*
X421105D01*
Y73027D01*
X381735Y117122D02*
X385672D01*
Y113972D02*
Y117122D01*
X381735Y105311D02*
X385672D01*
Y108460D01*
X381735Y81689D02*
X385672D01*
Y78539D02*
Y81689D01*
X381735Y69878D02*
X385672D01*
Y73027D01*
X452601Y152555D02*
X456538D01*
Y149405D02*
Y152555D01*
X452601Y140744D02*
X456538D01*
Y143894D01*
X452601Y117122D02*
X456538D01*
Y113972D02*
Y117122D01*
X452601Y105311D02*
X456538D01*
Y108460D01*
X240007Y187956D02*
X243944D01*
Y184806D02*
Y187956D01*
X240007Y176145D02*
X243944D01*
Y179294D01*
X204574Y187956D02*
X208511D01*
Y184806D02*
Y187956D01*
X204574Y176145D02*
X208511D01*
Y179294D01*
X275440Y187956D02*
X279377D01*
Y184806D02*
Y187956D01*
X275440Y176145D02*
X279377D01*
Y179294D01*
X275440Y152523D02*
X279377D01*
Y149373D02*
Y152523D01*
X275440Y140711D02*
X279377D01*
Y143861D01*
X275440Y117089D02*
X279377D01*
Y113940D02*
Y117089D01*
X275440Y105278D02*
X279377D01*
Y108428D01*
X310873Y117089D02*
X314810D01*
Y113940D02*
Y117089D01*
X310873Y105278D02*
X314810D01*
Y108428D01*
X310873Y81656D02*
X314810D01*
Y78507D02*
Y81656D01*
X310873Y69845D02*
X314810D01*
Y72995D01*
X275440Y81656D02*
X279377D01*
Y78507D02*
Y81656D01*
X275440Y69845D02*
X279377D01*
Y72995D01*
X310873Y187956D02*
X314810D01*
Y184806D02*
Y187956D01*
X310873Y176145D02*
X314810D01*
Y179294D01*
X310873Y152523D02*
X314810D01*
Y149373D02*
Y152523D01*
X310873Y140711D02*
X314810D01*
Y143861D01*
X240007Y152523D02*
X243944D01*
Y149373D02*
Y152523D01*
X240007Y140711D02*
X243944D01*
Y143861D01*
X240007Y81656D02*
X243944D01*
Y78507D02*
Y81656D01*
X240007Y69845D02*
X243944D01*
Y72995D01*
X240007Y117089D02*
X243944D01*
Y113940D02*
Y117089D01*
X240007Y105278D02*
X243944D01*
Y108428D01*
X204574Y81656D02*
X208511D01*
Y78507D02*
Y81656D01*
X204574Y69845D02*
X208511D01*
Y72995D01*
X204574Y152523D02*
X208511D01*
Y149373D02*
Y152523D01*
X204574Y140711D02*
X208511D01*
Y143861D01*
X204574Y117089D02*
X208511D01*
Y113940D02*
Y117089D01*
X204574Y105278D02*
X208511D01*
Y108428D01*
X169114Y81776D02*
X173051D01*
Y78626D02*
Y81776D01*
X169114Y69965D02*
X173051D01*
Y73115D01*
X169114Y152642D02*
X173051D01*
Y149492D02*
Y152642D01*
X169114Y140831D02*
X173051D01*
Y143981D01*
X169114Y188075D02*
X173051D01*
Y184925D02*
Y188075D01*
X169114Y176264D02*
X173051D01*
Y179414D01*
X169114Y117209D02*
X173051D01*
Y114059D02*
Y117209D01*
X169114Y105398D02*
X173051D01*
Y108547D01*
X133681Y81776D02*
X137618D01*
Y78626D02*
Y81776D01*
X133681Y69965D02*
X137618D01*
Y73115D01*
X133681Y117209D02*
X137618D01*
Y114059D02*
Y117209D01*
X133681Y105398D02*
X137618D01*
Y108547D01*
X62815Y117209D02*
X66752D01*
Y114059D02*
Y117209D01*
X62815Y105398D02*
X66752D01*
Y108547D01*
X98248Y188075D02*
X102185D01*
Y184925D02*
Y188075D01*
X98248Y176264D02*
X102185D01*
Y179414D01*
X62815Y152642D02*
X66752D01*
Y149492D02*
Y152642D01*
X62815Y140831D02*
X66752D01*
Y143981D01*
X98248Y152642D02*
X102185D01*
Y149492D02*
Y152642D01*
X98248Y140831D02*
X102185D01*
Y143981D01*
X133681Y152642D02*
X137618D01*
Y149492D02*
Y152642D01*
X133681Y140831D02*
X137618D01*
Y143981D01*
X133681Y188075D02*
X137618D01*
Y184925D02*
Y188075D01*
X133681Y176264D02*
X137618D01*
Y179414D01*
X98248Y117209D02*
X102185D01*
Y114059D02*
Y117209D01*
X98248Y105398D02*
X102185D01*
Y108547D01*
X98248Y81776D02*
X102185D01*
Y78626D02*
Y81776D01*
X98248Y69965D02*
X102185D01*
Y73115D01*
X62815Y81776D02*
X66752D01*
Y78626D02*
Y81776D01*
X62815Y69965D02*
X66752D01*
Y73115D01*
X62815Y188075D02*
X66752D01*
Y184925D02*
Y188075D01*
X62815Y176264D02*
X66752D01*
Y179414D01*
X487937Y329727D02*
X491874D01*
Y326577D02*
Y329727D01*
X487937Y317916D02*
X491874D01*
Y321065D01*
X487937Y294293D02*
X491874D01*
Y291144D02*
Y294293D01*
X487937Y282482D02*
X491874D01*
Y285632D01*
X523370Y329727D02*
X527307D01*
Y326577D02*
Y329727D01*
X523370Y317916D02*
X527307D01*
Y321065D01*
X523370Y294293D02*
X527307D01*
Y291144D02*
Y294293D01*
X523370Y282482D02*
X527307D01*
Y285632D01*
X558803Y294293D02*
X562740D01*
Y291144D02*
Y294293D01*
X558803Y282482D02*
X562740D01*
Y285632D01*
X558803Y329727D02*
X562740D01*
Y326577D02*
Y329727D01*
X558803Y317916D02*
X562740D01*
Y321065D01*
X594236Y329727D02*
X598173D01*
Y326577D02*
Y329727D01*
X594236Y317916D02*
X598173D01*
Y321065D01*
X594236Y294293D02*
X598173D01*
Y291144D02*
Y294293D01*
X594236Y282482D02*
X598173D01*
Y285632D01*
X558803Y258860D02*
X562740D01*
Y255711D02*
Y258860D01*
X558803Y247049D02*
X562740D01*
Y250199D01*
X523370Y258860D02*
X527307D01*
Y255711D02*
Y258860D01*
X523370Y247049D02*
X527307D01*
Y250199D01*
X594236Y258860D02*
X598173D01*
Y255711D02*
Y258860D01*
X594236Y247049D02*
X598173D01*
Y250199D01*
X594236Y223427D02*
X598173D01*
Y220278D02*
Y223427D01*
X594236Y211616D02*
X598173D01*
Y214766D01*
X558803Y223427D02*
X562740D01*
Y220278D02*
Y223427D01*
X558803Y211616D02*
X562740D01*
Y214766D01*
X523370Y223427D02*
X527307D01*
Y220278D02*
Y223427D01*
X523370Y211616D02*
X527307D01*
Y214766D01*
X487937Y223427D02*
X491874D01*
Y220278D02*
Y223427D01*
X487937Y211616D02*
X491874D01*
Y214766D01*
X487937Y258860D02*
X491874D01*
Y255711D02*
Y258860D01*
X487937Y247049D02*
X491874D01*
Y250199D01*
X346281Y223451D02*
X350218D01*
Y220302D02*
Y223451D01*
X346281Y211640D02*
X350218D01*
Y214790D01*
X346281Y258884D02*
X350218D01*
Y255735D02*
Y258884D01*
X346281Y247073D02*
X350218D01*
Y250223D01*
X346281Y329750D02*
X350218D01*
Y326601D02*
Y329750D01*
X346281Y317939D02*
X350218D01*
Y321089D01*
X346281Y294317D02*
X350218D01*
Y291168D02*
Y294317D01*
X346281Y282506D02*
X350218D01*
Y285656D01*
X381714Y329750D02*
X385651D01*
Y326601D02*
Y329750D01*
X381714Y317939D02*
X385651D01*
Y321089D01*
X381714Y294317D02*
X385651D01*
Y291168D02*
Y294317D01*
X381714Y282506D02*
X385651D01*
Y285656D01*
X381714Y223451D02*
X385651D01*
Y220302D02*
Y223451D01*
X381714Y211640D02*
X385651D01*
Y214790D01*
X381714Y258884D02*
X385651D01*
Y255735D02*
Y258884D01*
X381714Y247073D02*
X385651D01*
Y250223D01*
X417147Y223451D02*
X421084D01*
Y220302D02*
Y223451D01*
X417147Y211640D02*
X421084D01*
Y214790D01*
X417147Y329750D02*
X421084D01*
Y326601D02*
Y329750D01*
X417147Y317939D02*
X421084D01*
Y321089D01*
X417147Y294317D02*
X421084D01*
Y291168D02*
Y294317D01*
X417147Y282506D02*
X421084D01*
Y285656D01*
X417147Y258884D02*
X421084D01*
Y255735D02*
Y258884D01*
X417147Y247073D02*
X421084D01*
Y250223D01*
X452580Y329750D02*
X456517D01*
Y326601D02*
Y329750D01*
X452580Y317939D02*
X456517D01*
Y321089D01*
X452580Y294317D02*
X456517D01*
Y291168D02*
Y294317D01*
X452580Y282506D02*
X456517D01*
Y285656D01*
X452580Y223451D02*
X456517D01*
Y220302D02*
Y223451D01*
X452580Y211640D02*
X456517D01*
Y214790D01*
X452580Y258884D02*
X456517D01*
Y255735D02*
Y258884D01*
X452580Y247073D02*
X456517D01*
Y250223D01*
X204425Y223335D02*
X208362D01*
Y220185D02*
Y223335D01*
X204425Y211524D02*
X208362D01*
Y214673D01*
X204425Y294201D02*
X208362D01*
Y291051D02*
Y294201D01*
X204425Y282390D02*
X208362D01*
Y285540D01*
X204425Y258768D02*
X208362D01*
Y255618D02*
Y258768D01*
X204425Y246957D02*
X208362D01*
Y250106D01*
X204425Y329634D02*
X208362D01*
Y326484D02*
Y329634D01*
X204425Y317823D02*
X208362D01*
Y320973D01*
X239858Y223335D02*
X243795D01*
Y220185D02*
Y223335D01*
X239858Y211524D02*
X243795D01*
Y214673D01*
X239858Y258768D02*
X243795D01*
Y255618D02*
Y258768D01*
X239858Y246957D02*
X243795D01*
Y250106D01*
X239858Y329634D02*
X243795D01*
Y326484D02*
Y329634D01*
X239858Y317823D02*
X243795D01*
Y320973D01*
X239858Y294201D02*
X243795D01*
Y291051D02*
Y294201D01*
X239858Y282390D02*
X243795D01*
Y285540D01*
X275291Y329634D02*
X279228D01*
Y326484D02*
Y329634D01*
X275291Y317823D02*
X279228D01*
Y320973D01*
X275291Y294201D02*
X279228D01*
Y291051D02*
Y294201D01*
X275291Y282390D02*
X279228D01*
Y285540D01*
X275291Y258768D02*
X279228D01*
Y255618D02*
Y258768D01*
X275291Y246957D02*
X279228D01*
Y250106D01*
X275291Y223335D02*
X279228D01*
Y220185D02*
Y223335D01*
X275291Y211524D02*
X279228D01*
Y214673D01*
X310724Y223335D02*
X314661D01*
Y220185D02*
Y223335D01*
X310724Y211524D02*
X314661D01*
Y214673D01*
X310724Y294201D02*
X314661D01*
Y291051D02*
Y294201D01*
X310724Y282390D02*
X314661D01*
Y285540D01*
X310724Y329634D02*
X314661D01*
Y326484D02*
Y329634D01*
X310724Y317823D02*
X314661D01*
Y320973D01*
X310724Y258768D02*
X314661D01*
Y255618D02*
Y258768D01*
X310724Y246957D02*
X314661D01*
Y250106D01*
X98122Y329804D02*
X102059D01*
Y326654D02*
Y329804D01*
X98122Y317993D02*
X102059D01*
Y321142D01*
X98122Y294371D02*
X102059D01*
Y291221D02*
Y294371D01*
X98122Y282559D02*
X102059D01*
Y285709D01*
X168988Y258938D02*
X172925D01*
Y255788D02*
Y258938D01*
X168988Y247127D02*
X172925D01*
Y250276D01*
X168988Y223504D02*
X172925D01*
Y220355D02*
Y223504D01*
X168988Y211693D02*
X172925D01*
Y214843D01*
X62689Y329804D02*
X66626D01*
Y326654D02*
Y329804D01*
X62689Y317993D02*
X66626D01*
Y321142D01*
X62689Y294371D02*
X66626D01*
Y291221D02*
Y294371D01*
X62689Y282559D02*
X66626D01*
Y285709D01*
X133555Y223504D02*
X137492D01*
Y220355D02*
Y223504D01*
X133555Y211693D02*
X137492D01*
Y214843D01*
X133555Y258938D02*
X137492D01*
Y255788D02*
Y258938D01*
X133555Y247127D02*
X137492D01*
Y250276D01*
X133555Y294371D02*
X137492D01*
Y291221D02*
Y294371D01*
X133555Y282559D02*
X137492D01*
Y285709D01*
X168988Y294371D02*
X172925D01*
Y291221D02*
Y294371D01*
X168988Y282559D02*
X172925D01*
Y285709D01*
X168988Y329804D02*
X172925D01*
Y326654D02*
Y329804D01*
X168988Y317993D02*
X172925D01*
Y321142D01*
X133555Y329804D02*
X137492D01*
Y326654D02*
Y329804D01*
X133555Y317993D02*
X137492D01*
Y321142D01*
X62689Y258938D02*
X66626D01*
Y255788D02*
Y258938D01*
X62689Y247127D02*
X66626D01*
Y250276D01*
X98122Y223504D02*
X102059D01*
Y220355D02*
Y223504D01*
X98122Y211693D02*
X102059D01*
Y214843D01*
X98122Y258938D02*
X102059D01*
Y255788D02*
Y258938D01*
X98122Y247127D02*
X102059D01*
Y250276D01*
X62689Y223504D02*
X66626D01*
Y220355D02*
Y223504D01*
X62689Y211693D02*
X66626D01*
Y214843D01*
X523392Y436027D02*
X527329D01*
Y432878D02*
Y436027D01*
X523392Y424217D02*
X527329D01*
Y427366D01*
X487959Y436027D02*
X491896D01*
Y432878D02*
Y436027D01*
X487959Y424217D02*
X491896D01*
Y427366D01*
X487959Y471461D02*
X491896D01*
Y468311D02*
Y471461D01*
X487959Y459650D02*
X491896D01*
Y462799D01*
X558825Y436027D02*
X562762D01*
Y432878D02*
Y436027D01*
X558825Y424217D02*
X562762D01*
Y427366D01*
X594258Y436027D02*
X598195D01*
Y432878D02*
Y436027D01*
X594258Y424217D02*
X598195D01*
Y427366D01*
X594258Y400594D02*
X598195D01*
Y397445D02*
Y400594D01*
X594258Y388783D02*
X598195D01*
Y391933D01*
X558825Y400594D02*
X562762D01*
Y397445D02*
Y400594D01*
X558825Y388783D02*
X562762D01*
Y391933D01*
X558825Y365161D02*
X562762D01*
Y362012D02*
Y365161D01*
X558825Y353350D02*
X562762D01*
Y356500D01*
X594258Y365161D02*
X598195D01*
Y362012D02*
Y365161D01*
X594258Y353350D02*
X598195D01*
Y356500D01*
X523392Y471461D02*
X527329D01*
Y468311D02*
Y471461D01*
X523392Y459650D02*
X527329D01*
Y462799D01*
X594258Y471461D02*
X598195D01*
Y468311D02*
Y471461D01*
X594258Y459650D02*
X598195D01*
Y462799D01*
X558825Y471461D02*
X562762D01*
Y468311D02*
Y471461D01*
X558825Y459650D02*
X562762D01*
Y462799D01*
X487959Y400594D02*
X491896D01*
Y397445D02*
Y400594D01*
X487959Y388783D02*
X491896D01*
Y391933D01*
X523392Y365161D02*
X527329D01*
Y362012D02*
Y365161D01*
X523392Y353350D02*
X527329D01*
Y356500D01*
X487959Y365161D02*
X491896D01*
Y362012D02*
Y365161D01*
X487959Y353350D02*
X491896D01*
Y356500D01*
X523392Y400594D02*
X527329D01*
Y397445D02*
Y400594D01*
X523392Y388783D02*
X527329D01*
Y391933D01*
X346178Y471442D02*
X350114D01*
Y468293D02*
Y471442D01*
X346178Y459631D02*
X350114D01*
Y462781D01*
X381611Y471442D02*
X385548D01*
Y468293D02*
Y471442D01*
X381611Y459631D02*
X385548D01*
Y462781D01*
X452477Y471442D02*
X456414D01*
Y468293D02*
Y471442D01*
X452477Y459631D02*
X456414D01*
Y462781D01*
X417044Y400576D02*
X420981D01*
Y397427D02*
Y400576D01*
X417044Y388765D02*
X420981D01*
Y391915D01*
X346178Y436009D02*
X350114D01*
Y432860D02*
Y436009D01*
X346178Y424198D02*
X350114D01*
Y427348D01*
X381611Y400576D02*
X385548D01*
Y397427D02*
Y400576D01*
X381611Y388765D02*
X385548D01*
Y391915D01*
X452477Y436009D02*
X456414D01*
Y432860D02*
Y436009D01*
X452477Y424198D02*
X456414D01*
Y427348D01*
X452477Y400576D02*
X456414D01*
Y397427D02*
Y400576D01*
X452477Y388765D02*
X456414D01*
Y391915D01*
X452477Y365143D02*
X456414D01*
Y361994D02*
Y365143D01*
X452477Y353332D02*
X456414D01*
Y356482D01*
X417044Y365143D02*
X420981D01*
Y361994D02*
Y365143D01*
X417044Y353332D02*
X420981D01*
Y356482D01*
X381611Y365143D02*
X385548D01*
Y361994D02*
Y365143D01*
X381611Y353332D02*
X385548D01*
Y356482D01*
X417044Y436009D02*
X420981D01*
Y432860D02*
Y436009D01*
X417044Y424198D02*
X420981D01*
Y427348D01*
X417044Y471442D02*
X420981D01*
Y468293D02*
Y471442D01*
X417044Y459631D02*
X420981D01*
Y462781D01*
X381611Y436009D02*
X385548D01*
Y432860D02*
Y436009D01*
X381611Y424198D02*
X385548D01*
Y427348D01*
X346178Y365143D02*
X350114D01*
Y361994D02*
Y365143D01*
X346178Y353332D02*
X350114D01*
Y356482D01*
X346178Y400576D02*
X350114D01*
Y397427D02*
Y400576D01*
X346178Y388765D02*
X350114D01*
Y391915D01*
X204462Y400453D02*
X208399D01*
Y397304D02*
Y400453D01*
X204462Y388642D02*
X208399D01*
Y391792D01*
X204462Y471319D02*
X208399D01*
Y468170D02*
Y471319D01*
X204462Y459508D02*
X208399D01*
Y462658D01*
X204462Y435886D02*
X208399D01*
Y432737D02*
Y435886D01*
X204462Y424075D02*
X208399D01*
Y427225D01*
X204462Y365020D02*
X208399D01*
Y361871D02*
Y365020D01*
X204462Y353209D02*
X208399D01*
Y356359D01*
X239895Y400453D02*
X243832D01*
Y397304D02*
Y400453D01*
X239895Y388642D02*
X243832D01*
Y391792D01*
X239895Y471319D02*
X243832D01*
Y468170D02*
Y471319D01*
X239895Y459508D02*
X243832D01*
Y462658D01*
X239895Y435886D02*
X243832D01*
Y432737D02*
Y435886D01*
X239895Y424075D02*
X243832D01*
Y427225D01*
X310761Y471319D02*
X314699D01*
Y468170D02*
Y471319D01*
X310761Y459508D02*
X314699D01*
Y462658D01*
X310761Y435886D02*
X314699D01*
Y432737D02*
Y435886D01*
X310761Y424075D02*
X314699D01*
Y427225D01*
X275328Y471319D02*
X279265D01*
Y468170D02*
Y471319D01*
X275328Y459508D02*
X279265D01*
Y462658D01*
X275328Y435886D02*
X279265D01*
Y432737D02*
Y435886D01*
X275328Y424075D02*
X279265D01*
Y427225D01*
X275328Y400453D02*
X279265D01*
Y397304D02*
Y400453D01*
X275328Y388642D02*
X279265D01*
Y391792D01*
X239895Y365020D02*
X243832D01*
Y361871D02*
Y365020D01*
X239895Y353209D02*
X243832D01*
Y356359D01*
X275328Y365020D02*
X279265D01*
Y361871D02*
Y365020D01*
X275328Y353209D02*
X279265D01*
Y356359D01*
X310761Y400453D02*
X314699D01*
Y397304D02*
Y400453D01*
X310761Y388642D02*
X314699D01*
Y391792D01*
X310761Y365020D02*
X314699D01*
Y361871D02*
Y365020D01*
X310761Y353209D02*
X314699D01*
Y356359D01*
X133685Y471536D02*
X137622D01*
Y468386D02*
Y471536D01*
X133685Y459725D02*
X137622D01*
Y462874D01*
X133685Y436102D02*
X137622D01*
Y432953D02*
Y436102D01*
X133685Y424292D02*
X137622D01*
Y427441D01*
X169118Y471536D02*
X173055D01*
Y468386D02*
Y471536D01*
X169118Y459725D02*
X173055D01*
Y462874D01*
X169118Y436102D02*
X173055D01*
Y432953D02*
Y436102D01*
X169118Y424292D02*
X173055D01*
Y427441D01*
X169118Y365236D02*
X173055D01*
Y362087D02*
Y365236D01*
X169118Y353425D02*
X173055D01*
Y356575D01*
X169118Y400669D02*
X173055D01*
Y397520D02*
Y400669D01*
X169118Y388858D02*
X173055D01*
Y392008D01*
X133685Y365236D02*
X137622D01*
Y362087D02*
Y365236D01*
X133685Y353425D02*
X137622D01*
Y356575D01*
X133685Y400669D02*
X137622D01*
Y397520D02*
Y400669D01*
X133685Y388858D02*
X137622D01*
Y392008D01*
X98252Y365236D02*
X102189D01*
Y362087D02*
Y365236D01*
X98252Y353425D02*
X102189D01*
Y356575D01*
X98252Y400669D02*
X102189D01*
Y397520D02*
Y400669D01*
X98252Y388858D02*
X102189D01*
Y392008D01*
X98252Y471536D02*
X102189D01*
Y468386D02*
Y471536D01*
X98252Y459725D02*
X102189D01*
Y462874D01*
X98252Y436102D02*
X102189D01*
Y432953D02*
Y436102D01*
X98252Y424292D02*
X102189D01*
Y427441D01*
X62819Y365236D02*
X66756D01*
Y362087D02*
Y365236D01*
X62819Y353425D02*
X66756D01*
Y356575D01*
X62819Y471536D02*
X66756D01*
Y468386D02*
Y471536D01*
X62819Y459725D02*
X66756D01*
Y462874D01*
X62819Y400669D02*
X66756D01*
Y397520D02*
Y400669D01*
X62819Y388858D02*
X66756D01*
Y392008D01*
X62819Y436102D02*
X66756D01*
Y432953D02*
Y436102D01*
X62819Y424292D02*
X66756D01*
Y427441D01*
X523516Y577756D02*
X527453D01*
Y574607D02*
Y577756D01*
X523516Y565945D02*
X527453D01*
Y569095D01*
X558949Y613189D02*
X562886D01*
Y610040D02*
Y613189D01*
X558949Y601378D02*
X562886D01*
Y604528D01*
X594382Y613189D02*
X598319D01*
Y610040D02*
Y613189D01*
X594382Y601378D02*
X598319D01*
Y604528D01*
X488083Y577756D02*
X492020D01*
Y574607D02*
Y577756D01*
X488083Y565945D02*
X492020D01*
Y569095D01*
X523516Y613189D02*
X527453D01*
Y610040D02*
Y613189D01*
X523516Y601378D02*
X527453D01*
Y604528D01*
X488083Y613189D02*
X492020D01*
Y610040D02*
Y613189D01*
X488083Y601378D02*
X492020D01*
Y604528D01*
X558949Y577756D02*
X562886D01*
Y574607D02*
Y577756D01*
X558949Y565945D02*
X562886D01*
Y569095D01*
X594382Y577756D02*
X598319D01*
Y574607D02*
Y577756D01*
X594382Y565945D02*
X598319D01*
Y569095D01*
X594382Y542323D02*
X598319D01*
Y539174D02*
Y542323D01*
X594382Y530512D02*
X598319D01*
Y533662D01*
X558949Y542323D02*
X562886D01*
Y539174D02*
Y542323D01*
X558949Y530512D02*
X562886D01*
Y533662D01*
X523516Y506890D02*
X527453D01*
Y503741D02*
Y506890D01*
X523516Y495079D02*
X527453D01*
Y498229D01*
X523516Y542323D02*
X527453D01*
Y539174D02*
Y542323D01*
X523516Y530512D02*
X527453D01*
Y533662D01*
X488083Y506890D02*
X492020D01*
Y503741D02*
Y506890D01*
X488083Y495079D02*
X492020D01*
Y498229D01*
X488083Y542323D02*
X492020D01*
Y539174D02*
Y542323D01*
X488083Y530512D02*
X492020D01*
Y533662D01*
X558949Y506890D02*
X562886D01*
Y503741D02*
Y506890D01*
X558949Y495079D02*
X562886D01*
Y498229D01*
X594382Y506890D02*
X598319D01*
Y503741D02*
Y506890D01*
X594382Y495079D02*
X598319D01*
Y498229D01*
X346447Y506967D02*
X350384D01*
Y503817D02*
Y506967D01*
X346447Y495156D02*
X350384D01*
Y498305D01*
X417314Y613266D02*
X421251D01*
Y610116D02*
Y613266D01*
X417314Y601455D02*
X421251D01*
Y604604D01*
X381881Y613266D02*
X385818D01*
Y610116D02*
Y613266D01*
X381881Y601455D02*
X385818D01*
Y604604D01*
X452747Y542400D02*
X456684D01*
Y539250D02*
Y542400D01*
X452747Y530589D02*
X456684D01*
Y533738D01*
X417314Y542400D02*
X421251D01*
Y539250D02*
Y542400D01*
X417314Y530589D02*
X421251D01*
Y533738D01*
X452747Y506967D02*
X456684D01*
Y503817D02*
Y506967D01*
X452747Y495156D02*
X456684D01*
Y498305D01*
X417314Y506967D02*
X421251D01*
Y503817D02*
Y506967D01*
X417314Y495156D02*
X421251D01*
Y498305D01*
X381881Y506967D02*
X385818D01*
Y503817D02*
Y506967D01*
X381881Y495156D02*
X385818D01*
Y498305D01*
X346447Y542400D02*
X350384D01*
Y539250D02*
Y542400D01*
X346447Y530589D02*
X350384D01*
Y533738D01*
X346447Y613266D02*
X350384D01*
Y610116D02*
Y613266D01*
X346447Y601455D02*
X350384D01*
Y604604D01*
X346447Y577833D02*
X350384D01*
Y574683D02*
Y577833D01*
X346447Y566022D02*
X350384D01*
Y569171D01*
X452747Y613266D02*
X456684D01*
Y610116D02*
Y613266D01*
X452747Y601455D02*
X456684D01*
Y604604D01*
X452747Y577833D02*
X456684D01*
Y574683D02*
Y577833D01*
X452747Y566022D02*
X456684D01*
Y569171D01*
X417314Y577833D02*
X421251D01*
Y574683D02*
Y577833D01*
X417314Y566022D02*
X421251D01*
Y569171D01*
X381881Y542400D02*
X385818D01*
Y539250D02*
Y542400D01*
X381881Y530589D02*
X385818D01*
Y533738D01*
X381881Y577833D02*
X385818D01*
Y574683D02*
Y577833D01*
X381881Y566022D02*
X385818D01*
Y569171D01*
X310940Y577825D02*
X314877D01*
Y574676D02*
Y577825D01*
X310940Y566014D02*
X314877D01*
Y569164D01*
X275507Y506959D02*
X279444D01*
Y503810D02*
Y506959D01*
X275507Y495148D02*
X279444D01*
Y498298D01*
X310940Y542392D02*
X314877D01*
Y539243D02*
Y542392D01*
X310940Y530581D02*
X314877D01*
Y533731D01*
X310940Y506959D02*
X314877D01*
Y503810D02*
Y506959D01*
X310940Y495148D02*
X314877D01*
Y498298D01*
X310940Y613258D02*
X314877D01*
Y610109D02*
Y613258D01*
X310940Y601447D02*
X314877D01*
Y604597D01*
X275507Y542392D02*
X279444D01*
Y539243D02*
Y542392D01*
X275507Y530581D02*
X279444D01*
Y533731D01*
X275507Y577825D02*
X279444D01*
Y574676D02*
Y577825D01*
X275507Y566014D02*
X279444D01*
Y569164D01*
X275507Y613258D02*
X279444D01*
Y610109D02*
Y613258D01*
X275507Y601447D02*
X279444D01*
Y604597D01*
X240073Y506959D02*
X244010D01*
Y503810D02*
Y506959D01*
X240073Y495148D02*
X244010D01*
Y498298D01*
X240073Y542392D02*
X244010D01*
Y539243D02*
Y542392D01*
X240073Y530581D02*
X244010D01*
Y533731D01*
X204641Y506959D02*
X208577D01*
Y503810D02*
Y506959D01*
X204641Y495148D02*
X208577D01*
Y498298D01*
X240073Y613258D02*
X244010D01*
Y610109D02*
Y613258D01*
X240073Y601447D02*
X244010D01*
Y604597D01*
X240073Y577825D02*
X244010D01*
Y574676D02*
Y577825D01*
X240073Y566014D02*
X244010D01*
Y569164D01*
X204641Y577825D02*
X208577D01*
Y574676D02*
Y577825D01*
X204641Y566014D02*
X208577D01*
Y569164D01*
X204641Y542392D02*
X208577D01*
Y539243D02*
Y542392D01*
X204641Y530581D02*
X208577D01*
Y533731D01*
X204641Y613258D02*
X208577D01*
Y610109D02*
Y613258D01*
X204641Y601447D02*
X208577D01*
Y604597D01*
X137598Y530512D02*
Y533661D01*
X133661Y530512D02*
X137598D01*
Y539173D02*
Y542323D01*
X133661D02*
X137598D01*
X66732Y601378D02*
Y604528D01*
X62795Y601378D02*
X66732D01*
Y610039D02*
Y613189D01*
X62795D02*
X66732D01*
Y565945D02*
Y569095D01*
X62795Y565945D02*
X66732D01*
Y574606D02*
Y577756D01*
X62795D02*
X66732D01*
X648425Y96063D02*
X669095D01*
X669095Y87008D01*
X642323D02*
X642323Y89961D01*
X648425Y96063D01*
X642323Y75394D02*
X648425Y69291D01*
X642323Y75394D02*
X642323Y78347D01*
X669095Y78347D02*
X669095Y69291D01*
X648425Y69291D02*
X669095Y69291D01*
X640945Y618504D02*
Y621260D01*
X634646Y618504D02*
X634646Y621260D01*
X640945D01*
X620693Y516424D02*
X640379D01*
Y528212D01*
X620693D02*
X640379D01*
X620693Y516424D02*
Y528212D01*
Y464258D02*
X640379D01*
Y476046D01*
X620693D02*
X640379D01*
X620693Y464258D02*
Y476046D01*
X169095Y577756D02*
X173031D01*
Y574606D02*
Y577756D01*
X169095Y565945D02*
X173031D01*
Y569095D01*
X98228Y613189D02*
X102165D01*
Y610039D02*
Y613189D01*
X98228Y601378D02*
X102165D01*
Y604528D01*
X98228Y577756D02*
X102165D01*
Y574606D02*
Y577756D01*
X98228Y565945D02*
X102165D01*
Y569095D01*
X133661Y577756D02*
X137598D01*
Y574606D02*
Y577756D01*
X133661Y565945D02*
X137598D01*
Y569095D01*
X169095Y613189D02*
X173031D01*
Y610039D02*
Y613189D01*
X169095Y601378D02*
X173031D01*
Y604528D01*
X133661Y613189D02*
X137598D01*
Y610039D02*
Y613189D01*
X133661Y601378D02*
X137598D01*
Y604528D01*
X98228Y506890D02*
X102165D01*
Y503740D02*
Y506890D01*
X98228Y495079D02*
X102165D01*
Y498228D01*
X62795Y506890D02*
X66732D01*
X66732Y503740D02*
X66732Y506890D01*
X62795Y495079D02*
X66732D01*
Y498228D01*
X98228Y542323D02*
X102165D01*
X102165Y539173D02*
X102165Y542323D01*
X98228Y530512D02*
X102165D01*
Y533661D01*
X62795Y542323D02*
X66732D01*
X66732Y539173D01*
X62795Y530512D02*
X66732D01*
Y533661D01*
X169095Y542323D02*
X173031D01*
Y539173D02*
Y542323D01*
X169095Y530512D02*
X173031D01*
Y533661D01*
X169095Y506890D02*
X173031D01*
Y503740D02*
Y506890D01*
X169095Y495079D02*
X173031D01*
Y498228D01*
X133661Y506890D02*
X137598D01*
Y503740D02*
Y506890D01*
X133661Y495079D02*
X137598D01*
Y498228D01*
X620472Y173240D02*
X640158D01*
Y185028D01*
X620472D02*
X640158D01*
X620472Y173240D02*
Y185028D01*
Y225405D02*
X640158D01*
Y237193D01*
X620472D02*
X640158D01*
X620472Y225405D02*
Y237193D01*
X701478Y566241D02*
X701478Y586910D01*
X692423Y586910D02*
X701478Y586910D01*
X692423Y560138D02*
X695376D01*
X701478Y566241D01*
X674706D02*
X680809Y560138D01*
X683762D01*
X674706Y586910D02*
X683762D01*
X674706Y566241D02*
Y586910D01*
D16*
X656773Y552373D02*
X652659D01*
X654716Y554430D02*
Y550316D01*
X641053Y605139D02*
Y609252D01*
X643110Y607195D02*
X638997D01*
X623308Y552373D02*
X619195D01*
X621251Y554430D02*
Y550316D01*
X634557Y80532D02*
Y84646D01*
X636614Y82589D02*
X632501D01*
X690237Y552373D02*
X686124D01*
X688180Y554430D02*
Y550316D01*
M02*
