G04*
G04 #@! TF.GenerationSoftware,Altium Limited,Altium Designer,25.0.2 (28)*
G04*
G04 Layer_Color=8388736*
%FSLAX25Y25*%
%MOIN*%
G70*
G04*
G04 #@! TF.SameCoordinates,7C83500D-BFB9-469C-A41D-0C693C3E1856*
G04*
G04*
G04 #@! TF.FilePolarity,Negative*
G04*
G01*
G75*
G04:AMPARAMS|DCode=35|XSize=70.41mil|YSize=16.57mil|CornerRadius=8.28mil|HoleSize=0mil|Usage=FLASHONLY|Rotation=90.000|XOffset=0mil|YOffset=0mil|HoleType=Round|Shape=RoundedRectangle|*
%AMROUNDEDRECTD35*
21,1,0.07041,0.00000,0,0,90.0*
21,1,0.05384,0.01657,0,0,90.0*
1,1,0.01657,0.00000,0.02692*
1,1,0.01657,0.00000,-0.02692*
1,1,0.01657,0.00000,-0.02692*
1,1,0.01657,0.00000,0.02692*
%
%ADD35ROUNDEDRECTD35*%
%ADD36R,0.01657X0.07041*%
%ADD37R,0.03320X0.19304*%
%ADD38R,0.03320X0.10800*%
%ADD39R,0.06509X0.02611*%
%ADD40R,0.12414X0.14580*%
%ADD41R,0.03162X0.01784*%
%ADD42R,0.09068X0.16942*%
%ADD43R,0.01784X0.03162*%
G04:AMPARAMS|DCode=44|XSize=39.5mil|YSize=47.37mil|CornerRadius=7.94mil|HoleSize=0mil|Usage=FLASHONLY|Rotation=90.000|XOffset=0mil|YOffset=0mil|HoleType=Round|Shape=RoundedRectangle|*
%AMROUNDEDRECTD44*
21,1,0.03950,0.03150,0,0,90.0*
21,1,0.02362,0.04737,0,0,90.0*
1,1,0.01587,0.01575,0.01181*
1,1,0.01587,0.01575,-0.01181*
1,1,0.01587,-0.01575,-0.01181*
1,1,0.01587,-0.01575,0.01181*
%
%ADD44ROUNDEDRECTD44*%
%ADD45R,0.07099X0.14580*%
%ADD46R,0.14580X0.07099*%
%ADD47C,0.03937*%
G04:AMPARAMS|DCode=48|XSize=39.5mil|YSize=47.37mil|CornerRadius=7.94mil|HoleSize=0mil|Usage=FLASHONLY|Rotation=0.000|XOffset=0mil|YOffset=0mil|HoleType=Round|Shape=RoundedRectangle|*
%AMROUNDEDRECTD48*
21,1,0.03950,0.03150,0,0,0.0*
21,1,0.02362,0.04737,0,0,0.0*
1,1,0.01587,0.01181,-0.01575*
1,1,0.01587,-0.01181,-0.01575*
1,1,0.01587,-0.01181,0.01575*
1,1,0.01587,0.01181,0.01575*
%
%ADD48ROUNDEDRECTD48*%
%ADD49R,0.05918X0.03162*%
G04:AMPARAMS|DCode=50|XSize=63.12mil|YSize=74.93mil|CornerRadius=10.89mil|HoleSize=0mil|Usage=FLASHONLY|Rotation=270.000|XOffset=0mil|YOffset=0mil|HoleType=Round|Shape=RoundedRectangle|*
%AMROUNDEDRECTD50*
21,1,0.06312,0.05315,0,0,270.0*
21,1,0.04134,0.07493,0,0,270.0*
1,1,0.02178,-0.02657,-0.02067*
1,1,0.02178,-0.02657,0.02067*
1,1,0.02178,0.02657,0.02067*
1,1,0.02178,0.02657,-0.02067*
%
%ADD50ROUNDEDRECTD50*%
G04:AMPARAMS|DCode=51|XSize=39.5mil|YSize=47.37mil|CornerRadius=7.94mil|HoleSize=0mil|Usage=FLASHONLY|Rotation=225.000|XOffset=0mil|YOffset=0mil|HoleType=Round|Shape=RoundedRectangle|*
%AMROUNDEDRECTD51*
21,1,0.03950,0.03150,0,0,225.0*
21,1,0.02362,0.04737,0,0,225.0*
1,1,0.01587,-0.01949,0.00278*
1,1,0.01587,-0.00278,0.01949*
1,1,0.01587,0.01949,-0.00278*
1,1,0.01587,0.00278,-0.01949*
%
%ADD51ROUNDEDRECTD51*%
%ADD52R,0.01981X0.04147*%
%ADD53R,0.04147X0.01981*%
%ADD54R,0.03162X0.03162*%
G04:AMPARAMS|DCode=55|XSize=39.5mil|YSize=47.37mil|CornerRadius=7.94mil|HoleSize=0mil|Usage=FLASHONLY|Rotation=135.000|XOffset=0mil|YOffset=0mil|HoleType=Round|Shape=RoundedRectangle|*
%AMROUNDEDRECTD55*
21,1,0.03950,0.03150,0,0,135.0*
21,1,0.02362,0.04737,0,0,135.0*
1,1,0.01587,0.00278,0.01949*
1,1,0.01587,0.01949,0.00278*
1,1,0.01587,-0.00278,-0.01949*
1,1,0.01587,-0.01949,-0.00278*
%
%ADD55ROUNDEDRECTD55*%
%ADD56C,0.04816*%
%ADD57C,0.06706*%
%ADD58R,0.06784X0.06784*%
%ADD59C,0.06784*%
%ADD60C,0.12611*%
%ADD61C,0.25997*%
%ADD62C,0.02572*%
%ADD63C,0.02769*%
G36*
X689920Y256798D02*
X689933D01*
X689946Y256796D01*
X689959Y256795D01*
X689972Y256792D01*
X689985Y256791D01*
X691811Y256428D01*
X691823Y256424D01*
X691836Y256422D01*
X691849Y256417D01*
X691861Y256414D01*
X691874Y256409D01*
X691886Y256405D01*
X693606Y255693D01*
X693617Y255687D01*
X693629Y255682D01*
X693641Y255675D01*
X693652Y255669D01*
X693664Y255662D01*
X693675Y255656D01*
X695222Y254622D01*
X695233Y254613D01*
X695244Y254606D01*
X695254Y254598D01*
X695264Y254590D01*
X695273Y254580D01*
X695283Y254572D01*
X696599Y253256D01*
X696608Y253246D01*
X696617Y253236D01*
X696625Y253226D01*
X696634Y253216D01*
X696641Y253205D01*
X696649Y253195D01*
X697683Y251647D01*
X697690Y251636D01*
X697697Y251625D01*
X697703Y251613D01*
X697709Y251602D01*
X697714Y251590D01*
X697720Y251578D01*
X698432Y249858D01*
X698437Y249846D01*
X698442Y249834D01*
X698445Y249821D01*
X698449Y249809D01*
X698452Y249796D01*
X698455Y249783D01*
X698818Y247958D01*
X698820Y247945D01*
X698823Y247932D01*
X698823Y247919D01*
X698825Y247906D01*
Y247893D01*
X698826Y247879D01*
Y246949D01*
X698826Y246949D01*
Y208760D01*
D01*
X698826Y162697D01*
X698826Y162697D01*
X698826Y161766D01*
X698825Y161753D01*
Y161740D01*
X698823Y161727D01*
X698823Y161714D01*
X698820Y161701D01*
X698818Y161688D01*
X698455Y159862D01*
X698452Y159850D01*
X698449Y159837D01*
X698445Y159825D01*
X698442Y159812D01*
X698437Y159800D01*
X698432Y159787D01*
X697720Y158068D01*
X697714Y158056D01*
X697709Y158044D01*
X697703Y158033D01*
X697697Y158021D01*
X697690Y158010D01*
X697683Y157998D01*
X696649Y156451D01*
X696641Y156440D01*
X696634Y156430D01*
X696625Y156420D01*
X696617Y156409D01*
X696608Y156400D01*
X696599Y156390D01*
X695283Y155074D01*
X695273Y155065D01*
X695264Y155056D01*
X695254Y155048D01*
X695244Y155040D01*
X695233Y155032D01*
X695222Y155024D01*
X693675Y153990D01*
X693663Y153983D01*
X693652Y153976D01*
X693641Y153971D01*
X693629Y153964D01*
X693617Y153959D01*
X693606Y153953D01*
X691886Y153241D01*
X691874Y153237D01*
X691861Y153232D01*
X691849Y153228D01*
X691836Y153224D01*
X691823Y153221D01*
X691811Y153218D01*
X689985Y152855D01*
X689972Y152853D01*
X689959Y152851D01*
X689946Y152850D01*
X689933Y152848D01*
X689920D01*
X689907Y152847D01*
X688976Y152847D01*
X620472D01*
X620472Y152847D01*
X619542Y152847D01*
X619529Y152848D01*
X619516D01*
X619503Y152850D01*
X619489Y152851D01*
X619477Y152853D01*
X619464Y152855D01*
X617638Y153218D01*
X617625Y153221D01*
X617613Y153224D01*
X617600Y153228D01*
X617588Y153232D01*
X617575Y153237D01*
X617563Y153241D01*
X615843Y153953D01*
X615832Y153959D01*
X615819Y153964D01*
X615808Y153970D01*
X615796Y153976D01*
X615785Y153984D01*
X615774Y153990D01*
X614226Y155024D01*
X614216Y155032D01*
X614205Y155040D01*
X614195Y155048D01*
X614185Y155056D01*
X614176Y155065D01*
X614166Y155074D01*
X612850Y156390D01*
X612841Y156400D01*
X612832Y156409D01*
X612824Y156420D01*
X612815Y156430D01*
X612808Y156440D01*
X612800Y156451D01*
X611766Y157999D01*
X611759Y158010D01*
X611752Y158021D01*
X611746Y158033D01*
X611739Y158044D01*
X611734Y158056D01*
X611729Y158068D01*
X611016Y159787D01*
X611012Y159800D01*
X611007Y159812D01*
X611004Y159825D01*
X610999Y159837D01*
X610997Y159850D01*
X610993Y159863D01*
X610631Y161688D01*
X610629Y161701D01*
X610626Y161714D01*
X610625Y161727D01*
X610624Y161740D01*
Y161753D01*
X610623Y161766D01*
X610623Y162697D01*
X610623Y205807D01*
Y205807D01*
Y246949D01*
X610623Y247879D01*
X610624Y247893D01*
Y247906D01*
X610625Y247919D01*
X610626Y247932D01*
X610629Y247945D01*
X610630Y247958D01*
X610993Y249783D01*
X610997Y249796D01*
X610999Y249809D01*
X611004Y249821D01*
X611007Y249834D01*
X611012Y249846D01*
X611016Y249858D01*
X611729Y251578D01*
X611734Y251590D01*
X611739Y251602D01*
X611746Y251613D01*
X611752Y251625D01*
X611759Y251636D01*
X611766Y251647D01*
X612800Y253195D01*
X612808Y253205D01*
X612815Y253216D01*
X612824Y253226D01*
X612832Y253236D01*
X612841Y253246D01*
X612850Y253256D01*
X614166Y254572D01*
X614176Y254580D01*
X614185Y254590D01*
X614195Y254597D01*
X614205Y254606D01*
X614216Y254613D01*
X614226Y254622D01*
X615774Y255656D01*
X615785Y255662D01*
X615796Y255669D01*
X615808Y255675D01*
X615819Y255682D01*
X615832Y255687D01*
X615843Y255693D01*
X617563Y256405D01*
X617575Y256409D01*
X617587Y256414D01*
X617600Y256417D01*
X617613Y256422D01*
X617625Y256424D01*
X617638Y256428D01*
X619464Y256791D01*
X619477Y256792D01*
X619489Y256795D01*
X619502Y256796D01*
X619516Y256798D01*
X619529D01*
X619542Y256799D01*
X620472Y256799D01*
X620472Y256799D01*
X688976Y256799D01*
X689907Y256799D01*
X689920Y256798D01*
D02*
G37*
G36*
X690219Y547830D02*
X690232D01*
X690245Y547828D01*
X690259Y547827D01*
X690271Y547824D01*
X690284Y547823D01*
X692110Y547460D01*
X692123Y547456D01*
X692135Y547454D01*
X692148Y547449D01*
X692161Y547446D01*
X692173Y547441D01*
X692185Y547437D01*
X693905Y546725D01*
X693916Y546719D01*
X693928Y546714D01*
X693940Y546707D01*
X693952Y546701D01*
X693963Y546694D01*
X693974Y546688D01*
X695521Y545653D01*
X695532Y545645D01*
X695543Y545638D01*
X695553Y545630D01*
X695563Y545621D01*
X695573Y545612D01*
X695582Y545604D01*
X696898Y544287D01*
X696907Y544277D01*
X696916Y544268D01*
X696924Y544258D01*
X696933Y544248D01*
X696940Y544237D01*
X696948Y544227D01*
X697982Y542679D01*
X697989Y542668D01*
X697996Y542657D01*
X698002Y542645D01*
X698008Y542634D01*
X698013Y542622D01*
X698019Y542610D01*
X698732Y540890D01*
X698736Y540878D01*
X698741Y540866D01*
X698744Y540853D01*
X698748Y540841D01*
X698751Y540828D01*
X698754Y540815D01*
X699118Y538990D01*
X699119Y538976D01*
X699122Y538964D01*
X699123Y538951D01*
X699124Y538938D01*
Y538925D01*
X699125Y538911D01*
Y537981D01*
X699125Y537981D01*
Y499792D01*
D01*
X699125Y453729D01*
X699125Y453729D01*
X699125Y452798D01*
X699124Y452785D01*
Y452772D01*
X699123Y452759D01*
X699122Y452746D01*
X699119Y452733D01*
X699118Y452720D01*
X698754Y450894D01*
X698751Y450882D01*
X698748Y450869D01*
X698744Y450856D01*
X698741Y450844D01*
X698736Y450832D01*
X698732Y450819D01*
X698019Y449100D01*
X698013Y449088D01*
X698008Y449076D01*
X698002Y449064D01*
X697996Y449053D01*
X697989Y449042D01*
X697982Y449030D01*
X696948Y447483D01*
X696940Y447472D01*
X696933Y447461D01*
X696924Y447452D01*
X696916Y447441D01*
X696907Y447432D01*
X696898Y447422D01*
X695582Y446106D01*
X695572Y446097D01*
X695563Y446088D01*
X695553Y446080D01*
X695543Y446071D01*
X695532Y446064D01*
X695522Y446056D01*
X693974Y445022D01*
X693963Y445015D01*
X693952Y445008D01*
X693940Y445002D01*
X693929Y444996D01*
X693916Y444991D01*
X693905Y444985D01*
X692185Y444273D01*
X692173Y444269D01*
X692161Y444264D01*
X692148Y444260D01*
X692135Y444256D01*
X692123Y444253D01*
X692110Y444250D01*
X690284Y443887D01*
X690271Y443885D01*
X690259Y443883D01*
X690245Y443882D01*
X690232Y443880D01*
X690219D01*
X690206Y443879D01*
X689276Y443879D01*
X620772D01*
X620772Y443879D01*
X619841Y443879D01*
X619828Y443880D01*
X619815D01*
X619802Y443882D01*
X619789Y443883D01*
X619776Y443885D01*
X619763Y443887D01*
X617937Y444250D01*
X617925Y444253D01*
X617912Y444256D01*
X617899Y444260D01*
X617887Y444264D01*
X617874Y444269D01*
X617862Y444273D01*
X616143Y444985D01*
X616131Y444991D01*
X616119Y444996D01*
X616107Y445002D01*
X616095Y445008D01*
X616084Y445015D01*
X616073Y445022D01*
X614526Y446056D01*
X614515Y446064D01*
X614504Y446071D01*
X614494Y446080D01*
X614484Y446088D01*
X614475Y446097D01*
X614465Y446106D01*
X613149Y447422D01*
X613140Y447432D01*
X613131Y447441D01*
X613123Y447452D01*
X613114Y447461D01*
X613107Y447472D01*
X613099Y447483D01*
X612065Y449030D01*
X612058Y449042D01*
X612051Y449053D01*
X612045Y449064D01*
X612039Y449076D01*
X612034Y449088D01*
X612028Y449100D01*
X611315Y450819D01*
X611311Y450832D01*
X611306Y450844D01*
X611303Y450856D01*
X611299Y450869D01*
X611296Y450882D01*
X611293Y450894D01*
X610930Y452720D01*
X610928Y452733D01*
X610925Y452746D01*
X610924Y452759D01*
X610923Y452772D01*
Y452785D01*
X610922Y452798D01*
X610922Y453729D01*
X610922Y496839D01*
Y496839D01*
Y537981D01*
X610922Y538911D01*
X610923Y538925D01*
Y538938D01*
X610924Y538951D01*
X610925Y538964D01*
X610928Y538976D01*
X610930Y538989D01*
X611293Y540815D01*
X611296Y540828D01*
X611299Y540841D01*
X611303Y540853D01*
X611306Y540866D01*
X611311Y540878D01*
X611315Y540890D01*
X612028Y542610D01*
X612034Y542622D01*
X612039Y542634D01*
X612045Y542645D01*
X612051Y542657D01*
X612058Y542668D01*
X612065Y542679D01*
X613099Y544227D01*
X613107Y544237D01*
X613114Y544248D01*
X613123Y544258D01*
X613131Y544268D01*
X613140Y544277D01*
X613149Y544287D01*
X614465Y545604D01*
X614475Y545612D01*
X614484Y545621D01*
X614494Y545629D01*
X614504Y545638D01*
X614515Y545645D01*
X614526Y545653D01*
X616073Y546688D01*
X616084Y546694D01*
X616095Y546701D01*
X616107Y546707D01*
X616119Y546714D01*
X616131Y546719D01*
X616143Y546725D01*
X617862Y547437D01*
X617874Y547441D01*
X617887Y547446D01*
X617899Y547449D01*
X617912Y547454D01*
X617924Y547456D01*
X617937Y547460D01*
X619763Y547823D01*
X619776Y547824D01*
X619789Y547827D01*
X619802Y547828D01*
X619815Y547830D01*
X619828D01*
X619841Y547830D01*
X620772Y547830D01*
X620772Y547830D01*
X689276Y547830D01*
X690206Y547830D01*
X690219Y547830D01*
D02*
G37*
%LPC*%
G36*
X620482Y250091D02*
X620174Y250076D01*
X619561Y249954D01*
X618992Y249718D01*
X618480Y249377D01*
X618045Y248941D01*
X617703Y248429D01*
X617467Y247861D01*
X617345Y247247D01*
X617330Y246939D01*
X617330Y207200D01*
X617330Y162707D01*
X617345Y162399D01*
X617467Y161785D01*
X617703Y161216D01*
X618045Y160705D01*
X618480Y160269D01*
X618992Y159927D01*
X619561Y159692D01*
X620174Y159570D01*
X620482Y159554D01*
X688967D01*
X689275Y159570D01*
X689888Y159692D01*
X690457Y159927D01*
X690969Y160269D01*
X691404Y160705D01*
X691746Y161216D01*
X691982Y161785D01*
X692104Y162399D01*
X692119Y162707D01*
X692119Y208760D01*
D01*
Y246939D01*
X692104Y247247D01*
X691982Y247861D01*
X691746Y248429D01*
X691404Y248941D01*
X690969Y249377D01*
X690457Y249718D01*
X689888Y249954D01*
X689275Y250076D01*
X688967Y250091D01*
X620482Y250091D01*
D02*
G37*
G36*
X620782Y541123D02*
X620473Y541108D01*
X619860Y540986D01*
X619291Y540750D01*
X618779Y540408D01*
X618344Y539973D01*
X618002Y539461D01*
X617766Y538892D01*
X617644Y538279D01*
X617629Y537971D01*
X617629Y498232D01*
X617629Y453739D01*
X617644Y453431D01*
X617766Y452817D01*
X618002Y452248D01*
X618344Y451736D01*
X618779Y451301D01*
X619291Y450959D01*
X619860Y450724D01*
X620473Y450601D01*
X620782Y450586D01*
X689266D01*
X689574Y450601D01*
X690187Y450724D01*
X690756Y450959D01*
X691268Y451301D01*
X691703Y451736D01*
X692045Y452248D01*
X692281Y452817D01*
X692403Y453431D01*
X692418Y453739D01*
X692418Y499792D01*
D01*
Y537971D01*
X692403Y538279D01*
X692281Y538892D01*
X692045Y539461D01*
X691703Y539973D01*
X691268Y540408D01*
X690756Y540750D01*
X690187Y540986D01*
X689574Y541108D01*
X689266Y541123D01*
X620782Y541123D01*
D02*
G37*
%LPD*%
D35*
X622859Y533701D02*
D03*
X625418D02*
D03*
X627977D02*
D03*
X630536D02*
D03*
X633095D02*
D03*
X635654D02*
D03*
X638213D02*
D03*
Y510935D02*
D03*
X635654D02*
D03*
X633095D02*
D03*
X630536D02*
D03*
X627977D02*
D03*
X625418D02*
D03*
X622859Y481535D02*
D03*
X625418D02*
D03*
X627977D02*
D03*
X630536D02*
D03*
X633095D02*
D03*
X635654D02*
D03*
X638213D02*
D03*
Y458770D02*
D03*
X635654D02*
D03*
X633095D02*
D03*
X630536D02*
D03*
X627977D02*
D03*
X625418D02*
D03*
X622638Y190517D02*
D03*
X625197D02*
D03*
X627756D02*
D03*
X630315D02*
D03*
X632874D02*
D03*
X635433D02*
D03*
X637992D02*
D03*
Y167751D02*
D03*
X635433D02*
D03*
X632874D02*
D03*
X630315D02*
D03*
X627756D02*
D03*
X625197D02*
D03*
X622638Y242682D02*
D03*
X625197D02*
D03*
X627756D02*
D03*
X630315D02*
D03*
X632874D02*
D03*
X635433D02*
D03*
X637992D02*
D03*
Y219917D02*
D03*
X635433D02*
D03*
X632874D02*
D03*
X630315D02*
D03*
X627756D02*
D03*
X625197D02*
D03*
D36*
X622859Y510935D02*
D03*
Y458770D02*
D03*
X622638Y167751D02*
D03*
Y219917D02*
D03*
D37*
X661124Y348279D02*
D03*
Y323279D02*
D03*
D38*
Y369027D02*
D03*
Y302531D02*
D03*
D39*
X673270Y365701D02*
D03*
Y362551D02*
D03*
Y359401D02*
D03*
Y356252D02*
D03*
Y353102D02*
D03*
Y349952D02*
D03*
Y346803D02*
D03*
Y343653D02*
D03*
Y340504D02*
D03*
Y337354D02*
D03*
Y334204D02*
D03*
Y331055D02*
D03*
Y327905D02*
D03*
Y324756D02*
D03*
Y321606D02*
D03*
Y318456D02*
D03*
Y315307D02*
D03*
Y312157D02*
D03*
Y309008D02*
D03*
Y305858D02*
D03*
X648979Y365701D02*
D03*
Y362551D02*
D03*
Y359401D02*
D03*
Y356252D02*
D03*
Y353102D02*
D03*
Y349952D02*
D03*
Y346803D02*
D03*
Y343653D02*
D03*
Y340504D02*
D03*
Y337354D02*
D03*
Y334204D02*
D03*
Y331055D02*
D03*
Y327905D02*
D03*
Y324756D02*
D03*
Y321606D02*
D03*
Y318456D02*
D03*
Y315307D02*
D03*
Y312157D02*
D03*
Y309008D02*
D03*
Y305858D02*
D03*
D40*
X649508Y111221D02*
D03*
X628051Y111221D02*
D03*
D41*
X625691Y323275D02*
D03*
X625691Y319338D02*
D03*
X625691Y321306D02*
D03*
Y325243D02*
D03*
X625691Y309495D02*
D03*
X625691Y311464D02*
D03*
Y313432D02*
D03*
Y315401D02*
D03*
X625691Y317369D02*
D03*
X625691Y327212D02*
D03*
X638683Y327212D02*
D03*
X638683Y325243D02*
D03*
Y323275D02*
D03*
Y321306D02*
D03*
Y319338D02*
D03*
X638683Y317369D02*
D03*
X638683Y315401D02*
D03*
Y313432D02*
D03*
Y311464D02*
D03*
X638683Y309495D02*
D03*
X625494Y341090D02*
D03*
X625494Y343058D02*
D03*
Y345027D02*
D03*
Y346995D02*
D03*
X625494Y348964D02*
D03*
X625494Y350932D02*
D03*
Y352901D02*
D03*
Y354869D02*
D03*
Y356838D02*
D03*
X625494Y358806D02*
D03*
X638486Y358806D02*
D03*
X638486Y356838D02*
D03*
Y354869D02*
D03*
Y352901D02*
D03*
X638486Y350932D02*
D03*
Y348964D02*
D03*
X638486Y346995D02*
D03*
Y345027D02*
D03*
Y343058D02*
D03*
X638486Y341090D02*
D03*
X696656Y332920D02*
D03*
Y330952D02*
D03*
Y328983D02*
D03*
Y327015D02*
D03*
Y325046D02*
D03*
Y323078D02*
D03*
Y321109D02*
D03*
Y319141D02*
D03*
Y317172D02*
D03*
Y315204D02*
D03*
X683664D02*
D03*
Y317172D02*
D03*
Y319141D02*
D03*
Y321109D02*
D03*
Y323078D02*
D03*
Y325046D02*
D03*
Y327015D02*
D03*
Y328983D02*
D03*
Y330952D02*
D03*
Y332920D02*
D03*
D42*
X632187Y318354D02*
D03*
X631990Y349948D02*
D03*
X690160Y324062D02*
D03*
D43*
X629235Y307920D02*
D03*
X629235Y328787D02*
D03*
X635140Y328787D02*
D03*
Y307920D02*
D03*
X629038Y339515D02*
D03*
Y360381D02*
D03*
X634943Y360381D02*
D03*
X634943Y339515D02*
D03*
X693112Y334495D02*
D03*
Y313629D02*
D03*
X687207D02*
D03*
Y334495D02*
D03*
D44*
X617126Y299213D02*
D03*
Y305118D02*
D03*
X609771Y302102D02*
D03*
Y308007D02*
D03*
X617052Y331455D02*
D03*
Y337361D02*
D03*
X609771Y334416D02*
D03*
Y340321D02*
D03*
X576276Y134975D02*
D03*
Y129070D02*
D03*
X434491Y135035D02*
D03*
Y129130D02*
D03*
X292763Y135003D02*
D03*
Y129097D02*
D03*
X151004Y135122D02*
D03*
Y129217D02*
D03*
X576126Y276774D02*
D03*
Y270868D02*
D03*
X434470Y276798D02*
D03*
Y270892D02*
D03*
X292614Y276681D02*
D03*
Y270776D02*
D03*
X150878Y276851D02*
D03*
Y270945D02*
D03*
X576148Y418508D02*
D03*
Y412602D02*
D03*
X434367Y418490D02*
D03*
Y412584D02*
D03*
X292651Y418367D02*
D03*
Y412461D02*
D03*
X151008Y418583D02*
D03*
Y412677D02*
D03*
X576272Y560237D02*
D03*
Y554331D02*
D03*
X434636Y560313D02*
D03*
Y554408D02*
D03*
X292829Y560306D02*
D03*
Y554400D02*
D03*
X625000Y129921D02*
D03*
Y135827D02*
D03*
X637795Y612402D02*
D03*
Y618307D02*
D03*
Y599311D02*
D03*
X637795Y605217D02*
D03*
X686638Y523302D02*
D03*
Y517396D02*
D03*
X678764Y523302D02*
D03*
Y517396D02*
D03*
Y479995D02*
D03*
Y474089D02*
D03*
X686638Y479995D02*
D03*
Y474089D02*
D03*
X678543Y232283D02*
D03*
Y226378D02*
D03*
X150984Y560236D02*
D03*
Y554331D02*
D03*
X686417Y188976D02*
D03*
Y183071D02*
D03*
Y232283D02*
D03*
Y226378D02*
D03*
X678543Y188976D02*
D03*
Y183071D02*
D03*
D45*
X654628Y584548D02*
D03*
Y562500D02*
D03*
X621163Y584548D02*
D03*
Y562500D02*
D03*
X688092D02*
D03*
Y584548D02*
D03*
D46*
X673228Y607283D02*
D03*
X651181D02*
D03*
X666732Y82677D02*
D03*
X644685D02*
D03*
D47*
X645465Y598285D02*
D03*
X645669Y618110D02*
D03*
X635227Y89301D02*
D03*
X678549Y82677D02*
D03*
D48*
X486315Y192849D02*
D03*
X492221D02*
D03*
X486315Y157416D02*
D03*
X492221D02*
D03*
X486315Y121983D02*
D03*
X492221D02*
D03*
X486315Y86550D02*
D03*
X492221D02*
D03*
X521748D02*
D03*
X527654D02*
D03*
X557181D02*
D03*
X563087D02*
D03*
X592615Y121983D02*
D03*
X598520D02*
D03*
X557181D02*
D03*
X563087D02*
D03*
X521748D02*
D03*
X527654D02*
D03*
X592615Y86550D02*
D03*
X598520D02*
D03*
X550685Y129070D02*
D03*
X556591D02*
D03*
X557181Y157416D02*
D03*
X563087D02*
D03*
X521748Y192849D02*
D03*
X527654D02*
D03*
X521748Y157416D02*
D03*
X527654D02*
D03*
X557181Y192849D02*
D03*
X563087D02*
D03*
X592615D02*
D03*
X598520D02*
D03*
X592615Y157416D02*
D03*
X598520D02*
D03*
X344530Y122043D02*
D03*
X350436D02*
D03*
X344530Y192909D02*
D03*
X350436D02*
D03*
X344530Y157476D02*
D03*
X350436D02*
D03*
X344530Y86610D02*
D03*
X350436D02*
D03*
X450830Y192909D02*
D03*
X456735D02*
D03*
X450830Y122043D02*
D03*
X456735D02*
D03*
X450830Y86610D02*
D03*
X456735D02*
D03*
X415396Y157476D02*
D03*
X421302D02*
D03*
X379963Y192909D02*
D03*
X385869D02*
D03*
X408900Y129130D02*
D03*
X414806D02*
D03*
X415396Y192909D02*
D03*
X421302D02*
D03*
X379963Y157476D02*
D03*
X385869D02*
D03*
X415396Y122043D02*
D03*
X421302D02*
D03*
X379963D02*
D03*
X385869D02*
D03*
X415396Y86610D02*
D03*
X421302D02*
D03*
X379963D02*
D03*
X385869D02*
D03*
X450830Y157476D02*
D03*
X456735D02*
D03*
X238235Y192877D02*
D03*
X244141D02*
D03*
X202802D02*
D03*
X208707D02*
D03*
X238235Y157444D02*
D03*
X244141D02*
D03*
X273668Y192877D02*
D03*
X279574D02*
D03*
X273668Y157444D02*
D03*
X279574D02*
D03*
X309101D02*
D03*
X315007D02*
D03*
X267172Y129097D02*
D03*
X273078D02*
D03*
X273668Y122011D02*
D03*
X279574D02*
D03*
X309101D02*
D03*
X315007D02*
D03*
X273668Y86578D02*
D03*
X279574D02*
D03*
X309101D02*
D03*
X315007D02*
D03*
X309101Y192877D02*
D03*
X315007D02*
D03*
X238235Y122011D02*
D03*
X244141D02*
D03*
X202802Y157444D02*
D03*
X208707D02*
D03*
X238235Y86578D02*
D03*
X244141D02*
D03*
X202802D02*
D03*
X208707D02*
D03*
X202802Y122011D02*
D03*
X208707D02*
D03*
X167342Y192996D02*
D03*
X173248D02*
D03*
X167342Y122130D02*
D03*
X173248D02*
D03*
X167342Y157563D02*
D03*
X173248D02*
D03*
X167342Y86697D02*
D03*
X173248D02*
D03*
X131909D02*
D03*
X137815D02*
D03*
X96476D02*
D03*
X102382D02*
D03*
X61043Y122130D02*
D03*
X66949D02*
D03*
X96476D02*
D03*
X102382D02*
D03*
X96476Y157563D02*
D03*
X102382D02*
D03*
X131909D02*
D03*
X137815D02*
D03*
X125413Y129217D02*
D03*
X131319D02*
D03*
X131909Y122130D02*
D03*
X137815D02*
D03*
X96476Y192996D02*
D03*
X102382D02*
D03*
X131909D02*
D03*
X137815D02*
D03*
X61043Y86697D02*
D03*
X66949D02*
D03*
X61043Y192996D02*
D03*
X66949D02*
D03*
X61043Y157563D02*
D03*
X66949D02*
D03*
X486165Y299215D02*
D03*
X492071D02*
D03*
X486165Y334648D02*
D03*
X492071D02*
D03*
X521598D02*
D03*
X527504D02*
D03*
X521598Y299215D02*
D03*
X527504D02*
D03*
X557032D02*
D03*
X562937D02*
D03*
X557032Y334648D02*
D03*
X562937D02*
D03*
X550535Y270868D02*
D03*
X556441D02*
D03*
X592465Y299215D02*
D03*
X598370D02*
D03*
X592465Y334648D02*
D03*
X598370D02*
D03*
X521598Y263782D02*
D03*
X527504D02*
D03*
X557032D02*
D03*
X562937D02*
D03*
X592465D02*
D03*
X598370D02*
D03*
X592465Y228349D02*
D03*
X598370D02*
D03*
X557032D02*
D03*
X562937D02*
D03*
X521598D02*
D03*
X527504D02*
D03*
X486165Y263782D02*
D03*
X492071D02*
D03*
X486165Y228349D02*
D03*
X492071D02*
D03*
X344509Y228373D02*
D03*
X350414D02*
D03*
X344509Y263806D02*
D03*
X350414D02*
D03*
X344509Y299239D02*
D03*
X350414D02*
D03*
X344509Y334672D02*
D03*
X350414D02*
D03*
X379942D02*
D03*
X385847D02*
D03*
X379942Y263806D02*
D03*
X385847D02*
D03*
X379942Y299239D02*
D03*
X385847D02*
D03*
X379942Y228373D02*
D03*
X385847D02*
D03*
X450808D02*
D03*
X456714D02*
D03*
X415375D02*
D03*
X421280D02*
D03*
X415375Y263806D02*
D03*
X421280D02*
D03*
X415375Y299239D02*
D03*
X421280D02*
D03*
X415375Y334672D02*
D03*
X421280D02*
D03*
X408879Y270892D02*
D03*
X414784D02*
D03*
X450808Y299239D02*
D03*
X456714D02*
D03*
X450808Y334672D02*
D03*
X456714D02*
D03*
X450808Y263806D02*
D03*
X456714D02*
D03*
X202654Y228256D02*
D03*
X208559D02*
D03*
X202654Y263689D02*
D03*
X208559D02*
D03*
X202654Y334555D02*
D03*
X208559D02*
D03*
X202654Y299122D02*
D03*
X208559D02*
D03*
X238087Y228256D02*
D03*
X243992D02*
D03*
X238087Y334555D02*
D03*
X243992D02*
D03*
X238087Y299122D02*
D03*
X243992D02*
D03*
X273520D02*
D03*
X279425D02*
D03*
X308953Y334555D02*
D03*
X314858D02*
D03*
X273520D02*
D03*
X279425D02*
D03*
X308953Y263689D02*
D03*
X314858D02*
D03*
X308953Y299122D02*
D03*
X314858D02*
D03*
X273520Y263689D02*
D03*
X279425D02*
D03*
X238087D02*
D03*
X243992D02*
D03*
X267024Y270776D02*
D03*
X272929D02*
D03*
X308953Y228256D02*
D03*
X314858D02*
D03*
X273520D02*
D03*
X279425D02*
D03*
X96351Y334725D02*
D03*
X102256D02*
D03*
X96351Y299292D02*
D03*
X102256D02*
D03*
X96351Y263859D02*
D03*
X102256D02*
D03*
X131784D02*
D03*
X137689D02*
D03*
X167217Y228426D02*
D03*
X173122D02*
D03*
X60918Y263859D02*
D03*
X66823D02*
D03*
X60918Y299292D02*
D03*
X66823D02*
D03*
X60918Y334725D02*
D03*
X66823D02*
D03*
X131784Y228426D02*
D03*
X137689D02*
D03*
X131784Y299292D02*
D03*
X137689D02*
D03*
X131784Y334725D02*
D03*
X137689D02*
D03*
X125288Y270945D02*
D03*
X131193D02*
D03*
X167217Y263859D02*
D03*
X173122D02*
D03*
X167217Y334725D02*
D03*
X173122D02*
D03*
X167217Y299292D02*
D03*
X173122D02*
D03*
X96351Y228426D02*
D03*
X102256D02*
D03*
X60918D02*
D03*
X66823D02*
D03*
X557054Y440949D02*
D03*
X562959D02*
D03*
X592487Y476382D02*
D03*
X598392D02*
D03*
X557054D02*
D03*
X562959D02*
D03*
X592487Y440949D02*
D03*
X598392D02*
D03*
X521621Y476382D02*
D03*
X527526D02*
D03*
X521621Y440949D02*
D03*
X527526D02*
D03*
X486188D02*
D03*
X492093D02*
D03*
X486188Y476382D02*
D03*
X492093D02*
D03*
X550558Y412602D02*
D03*
X556463D02*
D03*
X557054Y405516D02*
D03*
X562959D02*
D03*
X592487D02*
D03*
X598392D02*
D03*
X557054Y370083D02*
D03*
X562959D02*
D03*
X592487D02*
D03*
X598392D02*
D03*
X486188Y405516D02*
D03*
X492093D02*
D03*
X486188Y370083D02*
D03*
X492093D02*
D03*
X521621D02*
D03*
X527526D02*
D03*
X521621Y405516D02*
D03*
X527526D02*
D03*
X344406Y476364D02*
D03*
X350311D02*
D03*
X344406Y440931D02*
D03*
X350311D02*
D03*
X379839Y476364D02*
D03*
X385745D02*
D03*
X415272D02*
D03*
X421177D02*
D03*
X450705D02*
D03*
X456611D02*
D03*
X415272Y370064D02*
D03*
X421177D02*
D03*
X450705D02*
D03*
X456611D02*
D03*
X344406Y405498D02*
D03*
X350311D02*
D03*
X450705Y440931D02*
D03*
X456611D02*
D03*
X450705Y405498D02*
D03*
X456611D02*
D03*
X379839Y370064D02*
D03*
X385745D02*
D03*
X415272Y440931D02*
D03*
X421177D02*
D03*
X415272Y405498D02*
D03*
X421177D02*
D03*
X379839D02*
D03*
X385745D02*
D03*
X379839Y440931D02*
D03*
X385745D02*
D03*
X408776Y412584D02*
D03*
X414681D02*
D03*
X344406Y370064D02*
D03*
X350311D02*
D03*
X202691Y405374D02*
D03*
X208596D02*
D03*
X202691Y476241D02*
D03*
X208596D02*
D03*
X202691Y440807D02*
D03*
X208596D02*
D03*
X202691Y369941D02*
D03*
X208596D02*
D03*
X238124Y405374D02*
D03*
X244029D02*
D03*
X238124Y440807D02*
D03*
X244029D02*
D03*
X238124Y476241D02*
D03*
X244029D02*
D03*
X308990D02*
D03*
X314895D02*
D03*
X308990Y440807D02*
D03*
X314895D02*
D03*
X273557Y476241D02*
D03*
X279462D02*
D03*
X267061Y412461D02*
D03*
X272966D02*
D03*
X273557Y405374D02*
D03*
X279462D02*
D03*
X308990Y369941D02*
D03*
X314895D02*
D03*
X308990Y405374D02*
D03*
X314895D02*
D03*
X273557Y440807D02*
D03*
X279462D02*
D03*
X273557Y369941D02*
D03*
X279462D02*
D03*
X238124D02*
D03*
X244029D02*
D03*
X96480Y370158D02*
D03*
X102386D02*
D03*
X96480Y441024D02*
D03*
X102386D02*
D03*
X96480Y405591D02*
D03*
X102386D02*
D03*
X96480Y476457D02*
D03*
X102386D02*
D03*
X131913D02*
D03*
X137819D02*
D03*
X131913Y441024D02*
D03*
X137819D02*
D03*
X131913Y405591D02*
D03*
X137819D02*
D03*
X167346Y441024D02*
D03*
X173252D02*
D03*
X167346Y476457D02*
D03*
X173252D02*
D03*
X167346Y405591D02*
D03*
X173252D02*
D03*
X131913Y370158D02*
D03*
X137819D02*
D03*
X167346D02*
D03*
X173252D02*
D03*
X125417Y412677D02*
D03*
X131323D02*
D03*
X61047Y405591D02*
D03*
X66953D02*
D03*
X61047Y441024D02*
D03*
X66953D02*
D03*
X61047Y370158D02*
D03*
X66953D02*
D03*
X61047Y476457D02*
D03*
X66953D02*
D03*
X557177Y582678D02*
D03*
X563083D02*
D03*
X592610Y618111D02*
D03*
X598516D02*
D03*
X557177D02*
D03*
X563083D02*
D03*
X592610Y582678D02*
D03*
X598516D02*
D03*
X486311Y547245D02*
D03*
X492216D02*
D03*
X521744Y618111D02*
D03*
X527649D02*
D03*
X521744Y582678D02*
D03*
X527649D02*
D03*
X486311D02*
D03*
X492216D02*
D03*
X486311Y618111D02*
D03*
X492216D02*
D03*
X550681Y554331D02*
D03*
X556587D02*
D03*
X557177Y547245D02*
D03*
X563083D02*
D03*
X592610D02*
D03*
X598516D02*
D03*
X521744D02*
D03*
X527649D02*
D03*
X521744Y511811D02*
D03*
X527649D02*
D03*
X486311D02*
D03*
X492216D02*
D03*
X557177D02*
D03*
X563083D02*
D03*
X592610D02*
D03*
X598516D02*
D03*
X344676Y511888D02*
D03*
X350581D02*
D03*
X450975Y547321D02*
D03*
X456881D02*
D03*
X415542Y582754D02*
D03*
X421448D02*
D03*
X415542Y618187D02*
D03*
X421448D02*
D03*
X380109D02*
D03*
X386014D02*
D03*
X380109Y582754D02*
D03*
X386014D02*
D03*
X450975Y511888D02*
D03*
X456881D02*
D03*
X415542D02*
D03*
X421448D02*
D03*
X380109D02*
D03*
X386014D02*
D03*
X344676Y547321D02*
D03*
X350581D02*
D03*
X344676Y582754D02*
D03*
X350581D02*
D03*
X344676Y618187D02*
D03*
X350581D02*
D03*
X450975Y582754D02*
D03*
X456881D02*
D03*
X450975Y618187D02*
D03*
X456881D02*
D03*
X409046Y554408D02*
D03*
X414951D02*
D03*
X380109Y547321D02*
D03*
X386014D02*
D03*
X415542D02*
D03*
X421448D02*
D03*
X267239Y554400D02*
D03*
X273144D02*
D03*
X273735Y547313D02*
D03*
X279641D02*
D03*
X273735Y511880D02*
D03*
X279641D02*
D03*
X309168Y547313D02*
D03*
X315073D02*
D03*
X309168Y511880D02*
D03*
X315073D02*
D03*
X273735Y582747D02*
D03*
X279641D02*
D03*
X273735Y618180D02*
D03*
X279641D02*
D03*
X309168Y582747D02*
D03*
X315073D02*
D03*
X309168Y618180D02*
D03*
X315073D02*
D03*
X238302Y511880D02*
D03*
X244207D02*
D03*
X238302Y547313D02*
D03*
X244207D02*
D03*
X238302Y582747D02*
D03*
X244207D02*
D03*
X238302Y618180D02*
D03*
X244207D02*
D03*
X202869Y511880D02*
D03*
X208774D02*
D03*
X202869Y547313D02*
D03*
X208774D02*
D03*
X202869Y618180D02*
D03*
X208774D02*
D03*
X202869Y582747D02*
D03*
X208774D02*
D03*
X66929Y618110D02*
D03*
X61024D02*
D03*
X647268Y518381D02*
D03*
X653174D02*
D03*
X647268Y510507D02*
D03*
X653174D02*
D03*
X647268Y526255D02*
D03*
X653174D02*
D03*
X647268Y534129D02*
D03*
X653174D02*
D03*
X664985Y514444D02*
D03*
X659079D02*
D03*
X647268Y481963D02*
D03*
X653174D02*
D03*
X647268Y466215D02*
D03*
X653174D02*
D03*
X647268Y458341D02*
D03*
X653174D02*
D03*
X647268Y474089D02*
D03*
X653174D02*
D03*
X647047Y190945D02*
D03*
X652953D02*
D03*
X167323Y582677D02*
D03*
X173228D02*
D03*
X125394Y554331D02*
D03*
X131299D02*
D03*
X167323Y547244D02*
D03*
X173228D02*
D03*
X61024Y511811D02*
D03*
X66929D02*
D03*
X96457Y618110D02*
D03*
X102362D02*
D03*
X61024Y582677D02*
D03*
X66929D02*
D03*
X96457D02*
D03*
X102362D02*
D03*
X131890D02*
D03*
X137795D02*
D03*
X167323Y618110D02*
D03*
X173228D02*
D03*
X131890D02*
D03*
X137795D02*
D03*
X96457Y511811D02*
D03*
X102362D02*
D03*
X96457Y547244D02*
D03*
X102362D02*
D03*
X61024D02*
D03*
X66929D02*
D03*
X131890D02*
D03*
X137795D02*
D03*
X167323Y511811D02*
D03*
X173228D02*
D03*
X131890D02*
D03*
X137795D02*
D03*
X647047Y167323D02*
D03*
X652953D02*
D03*
X647047Y175197D02*
D03*
X652953D02*
D03*
X647047Y183071D02*
D03*
X652953D02*
D03*
X647047Y219488D02*
D03*
X652953D02*
D03*
X647047Y227362D02*
D03*
X652953D02*
D03*
X664764Y223425D02*
D03*
X658858D02*
D03*
X647047Y243110D02*
D03*
X652953D02*
D03*
X647047Y235236D02*
D03*
X652953D02*
D03*
D49*
X485134Y185959D02*
D03*
Y178085D02*
D03*
X493402Y182022D02*
D03*
X485134Y150526D02*
D03*
Y142652D02*
D03*
X493402Y146589D02*
D03*
X485134Y115093D02*
D03*
Y107219D02*
D03*
X493402Y111156D02*
D03*
X485134Y79660D02*
D03*
Y71786D02*
D03*
X493402Y75723D02*
D03*
X520567Y79660D02*
D03*
Y71786D02*
D03*
X528835Y75723D02*
D03*
X520567Y150526D02*
D03*
Y142652D02*
D03*
X528835Y146589D02*
D03*
X520567Y115093D02*
D03*
Y107219D02*
D03*
X528835Y111156D02*
D03*
X591433Y79660D02*
D03*
Y71786D02*
D03*
X599701Y75723D02*
D03*
X556000Y79660D02*
D03*
Y71786D02*
D03*
X564268Y75723D02*
D03*
X556000Y115093D02*
D03*
Y107219D02*
D03*
X564268Y111156D02*
D03*
X556000Y150526D02*
D03*
Y142652D02*
D03*
X564268Y146589D02*
D03*
X556000Y185959D02*
D03*
Y178085D02*
D03*
X564268Y182022D02*
D03*
X520567Y185959D02*
D03*
Y178085D02*
D03*
X528835Y182022D02*
D03*
X591433Y150526D02*
D03*
Y142652D02*
D03*
X599701Y146589D02*
D03*
X591433Y185959D02*
D03*
Y178085D02*
D03*
X599701Y182022D02*
D03*
X591433Y115093D02*
D03*
Y107219D02*
D03*
X599701Y111156D02*
D03*
X343349Y186020D02*
D03*
Y178146D02*
D03*
X351617Y182082D02*
D03*
X343349Y150586D02*
D03*
Y142712D02*
D03*
X351617Y146650D02*
D03*
X343349Y115153D02*
D03*
Y107279D02*
D03*
X351617Y111216D02*
D03*
X343349Y79720D02*
D03*
Y71846D02*
D03*
X351617Y75783D02*
D03*
X449649Y186020D02*
D03*
Y178146D02*
D03*
X457916Y182082D02*
D03*
X449649Y79720D02*
D03*
Y71846D02*
D03*
X457916Y75783D02*
D03*
X378782Y186020D02*
D03*
Y178146D02*
D03*
X387050Y182082D02*
D03*
X414215Y150586D02*
D03*
Y142712D02*
D03*
X422483Y146650D02*
D03*
X414215Y186020D02*
D03*
Y178146D02*
D03*
X422483Y182082D02*
D03*
X378782Y150586D02*
D03*
Y142712D02*
D03*
X387050Y146650D02*
D03*
X414215Y115153D02*
D03*
Y107279D02*
D03*
X422483Y111216D02*
D03*
X414215Y79720D02*
D03*
Y71846D02*
D03*
X422483Y75783D02*
D03*
X378782Y115153D02*
D03*
Y107279D02*
D03*
X387050Y111216D02*
D03*
X378782Y79720D02*
D03*
Y71846D02*
D03*
X387050Y75783D02*
D03*
X449649Y150586D02*
D03*
Y142712D02*
D03*
X457916Y146650D02*
D03*
X449649Y115153D02*
D03*
Y107279D02*
D03*
X457916Y111216D02*
D03*
X237054Y185987D02*
D03*
Y178113D02*
D03*
X245322Y182050D02*
D03*
X201621Y185987D02*
D03*
Y178113D02*
D03*
X209889Y182050D02*
D03*
X272487Y185987D02*
D03*
Y178113D02*
D03*
X280755Y182050D02*
D03*
X272487Y150554D02*
D03*
Y142680D02*
D03*
X280755Y146617D02*
D03*
X272487Y115121D02*
D03*
Y107247D02*
D03*
X280755Y111184D02*
D03*
X307920Y115121D02*
D03*
Y107247D02*
D03*
X316188Y111184D02*
D03*
X307920Y79688D02*
D03*
Y71814D02*
D03*
X316188Y75751D02*
D03*
X272487Y79688D02*
D03*
Y71814D02*
D03*
X280755Y75751D02*
D03*
X307920Y185987D02*
D03*
Y178113D02*
D03*
X316188Y182050D02*
D03*
X307920Y150554D02*
D03*
Y142680D02*
D03*
X316188Y146617D02*
D03*
X237054Y150554D02*
D03*
Y142680D02*
D03*
X245322Y146617D02*
D03*
X237054Y79688D02*
D03*
Y71814D02*
D03*
X245322Y75751D02*
D03*
X237054Y115121D02*
D03*
Y107247D02*
D03*
X245322Y111184D02*
D03*
X201621Y79688D02*
D03*
Y71814D02*
D03*
X209889Y75751D02*
D03*
X201621Y150554D02*
D03*
Y142680D02*
D03*
X209889Y146617D02*
D03*
X201621Y115121D02*
D03*
Y107247D02*
D03*
X209889Y111184D02*
D03*
X166161Y79807D02*
D03*
Y71933D02*
D03*
X174429Y75870D02*
D03*
X166161Y150673D02*
D03*
Y142799D02*
D03*
X174429Y146737D02*
D03*
X166161Y186107D02*
D03*
Y178233D02*
D03*
X174429Y182170D02*
D03*
X166161Y115240D02*
D03*
Y107366D02*
D03*
X174429Y111303D02*
D03*
X130728Y79807D02*
D03*
Y71933D02*
D03*
X138996Y75870D02*
D03*
X130728Y115240D02*
D03*
Y107366D02*
D03*
X138996Y111303D02*
D03*
X59862Y115240D02*
D03*
Y107366D02*
D03*
X68130Y111303D02*
D03*
X95295Y186107D02*
D03*
Y178233D02*
D03*
X103563Y182170D02*
D03*
X59862Y150673D02*
D03*
Y142799D02*
D03*
X68130Y146737D02*
D03*
X95295Y150673D02*
D03*
Y142799D02*
D03*
X103563Y146737D02*
D03*
X130728Y150673D02*
D03*
Y142799D02*
D03*
X138996Y146737D02*
D03*
X130728Y186107D02*
D03*
Y178233D02*
D03*
X138996Y182170D02*
D03*
X95295Y115240D02*
D03*
Y107366D02*
D03*
X103563Y111303D02*
D03*
X95295Y79807D02*
D03*
Y71933D02*
D03*
X103563Y75870D02*
D03*
X59862Y79807D02*
D03*
Y71933D02*
D03*
X68130Y75870D02*
D03*
X59862Y186107D02*
D03*
Y178233D02*
D03*
X68130Y182170D02*
D03*
X484984Y327758D02*
D03*
Y319884D02*
D03*
X493252Y323821D02*
D03*
X484984Y292325D02*
D03*
Y284451D02*
D03*
X493252Y288388D02*
D03*
X520417Y327758D02*
D03*
Y319884D02*
D03*
X528685Y323821D02*
D03*
X520417Y292325D02*
D03*
Y284451D02*
D03*
X528685Y288388D02*
D03*
X555851Y292325D02*
D03*
Y284451D02*
D03*
X564118Y288388D02*
D03*
X555851Y327758D02*
D03*
Y319884D02*
D03*
X564118Y323821D02*
D03*
X591284Y327758D02*
D03*
Y319884D02*
D03*
X599551Y323821D02*
D03*
X591284Y292325D02*
D03*
Y284451D02*
D03*
X599551Y288388D02*
D03*
X555851Y256892D02*
D03*
Y249018D02*
D03*
X564118Y252955D02*
D03*
X520417Y256892D02*
D03*
Y249018D02*
D03*
X528685Y252955D02*
D03*
X591284Y256892D02*
D03*
Y249018D02*
D03*
X599551Y252955D02*
D03*
X591284Y221459D02*
D03*
Y213585D02*
D03*
X599551Y217522D02*
D03*
X555851Y221459D02*
D03*
Y213585D02*
D03*
X564118Y217522D02*
D03*
X520417Y221459D02*
D03*
Y213585D02*
D03*
X528685Y217522D02*
D03*
X484984Y221459D02*
D03*
Y213585D02*
D03*
X493252Y217522D02*
D03*
X484984Y256892D02*
D03*
Y249018D02*
D03*
X493252Y252955D02*
D03*
X343328Y221483D02*
D03*
Y213609D02*
D03*
X351595Y217546D02*
D03*
X343328Y256916D02*
D03*
Y249042D02*
D03*
X351595Y252979D02*
D03*
X343328Y327782D02*
D03*
Y319908D02*
D03*
X351595Y323845D02*
D03*
X343328Y292349D02*
D03*
Y284475D02*
D03*
X351595Y288412D02*
D03*
X378761Y327782D02*
D03*
Y319908D02*
D03*
X387029Y323845D02*
D03*
X378761Y292349D02*
D03*
Y284475D02*
D03*
X387029Y288412D02*
D03*
X378761Y221483D02*
D03*
Y213609D02*
D03*
X387029Y217546D02*
D03*
X378761Y256916D02*
D03*
Y249042D02*
D03*
X387029Y252979D02*
D03*
X414194Y221483D02*
D03*
Y213609D02*
D03*
X422462Y217546D02*
D03*
X414194Y327782D02*
D03*
Y319908D02*
D03*
X422462Y323845D02*
D03*
X414194Y292349D02*
D03*
Y284475D02*
D03*
X422462Y288412D02*
D03*
X414194Y256916D02*
D03*
Y249042D02*
D03*
X422462Y252979D02*
D03*
X449627Y327782D02*
D03*
Y319908D02*
D03*
X457895Y323845D02*
D03*
X449627Y292349D02*
D03*
Y284475D02*
D03*
X457895Y288412D02*
D03*
X449627Y221483D02*
D03*
Y213609D02*
D03*
X457895Y217546D02*
D03*
X449627Y256916D02*
D03*
Y249042D02*
D03*
X457895Y252979D02*
D03*
X201472Y221366D02*
D03*
Y213492D02*
D03*
X209740Y217429D02*
D03*
X201472Y292232D02*
D03*
Y284358D02*
D03*
X209740Y288295D02*
D03*
X201472Y256799D02*
D03*
Y248925D02*
D03*
X209740Y252862D02*
D03*
X201472Y327665D02*
D03*
Y319792D02*
D03*
X209740Y323728D02*
D03*
X236906Y221366D02*
D03*
Y213492D02*
D03*
X245173Y217429D02*
D03*
X236906Y256799D02*
D03*
Y248925D02*
D03*
X245173Y252862D02*
D03*
X236906Y327665D02*
D03*
Y319792D02*
D03*
X245173Y323728D02*
D03*
X236906Y292232D02*
D03*
Y284358D02*
D03*
X245173Y288295D02*
D03*
X272339Y327665D02*
D03*
Y319792D02*
D03*
X280606Y323728D02*
D03*
X272339Y292232D02*
D03*
Y284358D02*
D03*
X280606Y288295D02*
D03*
X272339Y256799D02*
D03*
Y248925D02*
D03*
X280606Y252862D02*
D03*
X272339Y221366D02*
D03*
Y213492D02*
D03*
X280606Y217429D02*
D03*
X307772Y221366D02*
D03*
Y213492D02*
D03*
X316039Y217429D02*
D03*
X307772Y292232D02*
D03*
Y284358D02*
D03*
X316039Y288295D02*
D03*
X307772Y327665D02*
D03*
Y319792D02*
D03*
X316039Y323728D02*
D03*
X307772Y256799D02*
D03*
Y248925D02*
D03*
X316039Y252862D02*
D03*
X95170Y327835D02*
D03*
Y319961D02*
D03*
X103437Y323898D02*
D03*
X95170Y292402D02*
D03*
Y284528D02*
D03*
X103437Y288465D02*
D03*
X166036Y256969D02*
D03*
Y249095D02*
D03*
X174303Y253032D02*
D03*
X166036Y221536D02*
D03*
Y213662D02*
D03*
X174303Y217599D02*
D03*
X59737Y327835D02*
D03*
Y319961D02*
D03*
X68004Y323898D02*
D03*
X59737Y292402D02*
D03*
Y284528D02*
D03*
X68004Y288465D02*
D03*
X130603Y221536D02*
D03*
Y213662D02*
D03*
X138870Y217599D02*
D03*
X130603Y256969D02*
D03*
Y249095D02*
D03*
X138870Y253032D02*
D03*
X130603Y292402D02*
D03*
Y284528D02*
D03*
X138870Y288465D02*
D03*
X166036Y292402D02*
D03*
Y284528D02*
D03*
X174303Y288465D02*
D03*
X166036Y327835D02*
D03*
Y319961D02*
D03*
X174303Y323898D02*
D03*
X130603Y327835D02*
D03*
Y319961D02*
D03*
X138870Y323898D02*
D03*
X59737Y256969D02*
D03*
Y249095D02*
D03*
X68004Y253032D02*
D03*
X95170Y221536D02*
D03*
Y213662D02*
D03*
X103437Y217599D02*
D03*
X95170Y256969D02*
D03*
Y249095D02*
D03*
X103437Y253032D02*
D03*
X59737Y221536D02*
D03*
Y213662D02*
D03*
X68004Y217599D02*
D03*
X520439Y434059D02*
D03*
Y426185D02*
D03*
X528707Y430122D02*
D03*
X485007Y434059D02*
D03*
Y426185D02*
D03*
X493274Y430122D02*
D03*
X485007Y469492D02*
D03*
Y461618D02*
D03*
X493274Y465555D02*
D03*
X555873Y434059D02*
D03*
Y426185D02*
D03*
X564140Y430122D02*
D03*
X591306Y434059D02*
D03*
Y426185D02*
D03*
X599573Y430122D02*
D03*
X591306Y398626D02*
D03*
Y390752D02*
D03*
X599573Y394689D02*
D03*
X555873Y398626D02*
D03*
Y390752D02*
D03*
X564140Y394689D02*
D03*
X555873Y363193D02*
D03*
Y355319D02*
D03*
X564140Y359256D02*
D03*
X591306Y363193D02*
D03*
Y355319D02*
D03*
X599573Y359256D02*
D03*
X520439Y469492D02*
D03*
Y461618D02*
D03*
X528707Y465555D02*
D03*
X591306Y469492D02*
D03*
Y461618D02*
D03*
X599573Y465555D02*
D03*
X555873Y469492D02*
D03*
Y461618D02*
D03*
X564140Y465555D02*
D03*
X485007Y398626D02*
D03*
Y390752D02*
D03*
X493274Y394689D02*
D03*
X520439Y363193D02*
D03*
Y355319D02*
D03*
X528707Y359256D02*
D03*
X485007Y363193D02*
D03*
Y355319D02*
D03*
X493274Y359256D02*
D03*
X520439Y398626D02*
D03*
Y390752D02*
D03*
X528707Y394689D02*
D03*
X343225Y469474D02*
D03*
Y461600D02*
D03*
X351493Y465537D02*
D03*
X378658Y469474D02*
D03*
Y461600D02*
D03*
X386926Y465537D02*
D03*
X449524Y469474D02*
D03*
Y461600D02*
D03*
X457792Y465537D02*
D03*
X414091Y398608D02*
D03*
Y390734D02*
D03*
X422359Y394671D02*
D03*
X343225Y434041D02*
D03*
Y426167D02*
D03*
X351493Y430104D02*
D03*
X378658Y398608D02*
D03*
Y390734D02*
D03*
X386926Y394671D02*
D03*
X449524Y434041D02*
D03*
Y426167D02*
D03*
X457792Y430104D02*
D03*
X449524Y398608D02*
D03*
Y390734D02*
D03*
X457792Y394671D02*
D03*
X449524Y363175D02*
D03*
Y355301D02*
D03*
X457792Y359238D02*
D03*
X414091Y363175D02*
D03*
Y355301D02*
D03*
X422359Y359238D02*
D03*
X378658Y363175D02*
D03*
Y355301D02*
D03*
X386926Y359238D02*
D03*
X414091Y434041D02*
D03*
Y426167D02*
D03*
X422359Y430104D02*
D03*
X414091Y469474D02*
D03*
Y461600D02*
D03*
X422359Y465537D02*
D03*
X378658Y434041D02*
D03*
Y426167D02*
D03*
X386926Y430104D02*
D03*
X343225Y363175D02*
D03*
Y355301D02*
D03*
X351493Y359238D02*
D03*
X343225Y398608D02*
D03*
Y390734D02*
D03*
X351493Y394671D02*
D03*
X201510Y398485D02*
D03*
Y390611D02*
D03*
X209777Y394548D02*
D03*
X201510Y469351D02*
D03*
Y461477D02*
D03*
X209777Y465414D02*
D03*
X201510Y433918D02*
D03*
Y426044D02*
D03*
X209777Y429981D02*
D03*
X201510Y363052D02*
D03*
Y355178D02*
D03*
X209777Y359115D02*
D03*
X236943Y398485D02*
D03*
Y390611D02*
D03*
X245210Y394548D02*
D03*
X236943Y469351D02*
D03*
Y461477D02*
D03*
X245210Y465414D02*
D03*
X236943Y433918D02*
D03*
Y426044D02*
D03*
X245210Y429981D02*
D03*
X307809Y469351D02*
D03*
Y461477D02*
D03*
X316076Y465414D02*
D03*
X307809Y433918D02*
D03*
Y426044D02*
D03*
X316076Y429981D02*
D03*
X272376Y469351D02*
D03*
Y461477D02*
D03*
X280643Y465414D02*
D03*
X272376Y433918D02*
D03*
Y426044D02*
D03*
X280643Y429981D02*
D03*
X272376Y398485D02*
D03*
Y390611D02*
D03*
X280643Y394548D02*
D03*
X236943Y363052D02*
D03*
Y355178D02*
D03*
X245210Y359115D02*
D03*
X272376Y363052D02*
D03*
Y355178D02*
D03*
X280643Y359115D02*
D03*
X307809Y398485D02*
D03*
Y390611D02*
D03*
X316076Y394548D02*
D03*
X307809Y363052D02*
D03*
Y355178D02*
D03*
X316076Y359115D02*
D03*
X130732Y469567D02*
D03*
Y461693D02*
D03*
X139000Y465630D02*
D03*
X130732Y434134D02*
D03*
Y426260D02*
D03*
X139000Y430197D02*
D03*
X166165Y469567D02*
D03*
Y461693D02*
D03*
X174433Y465630D02*
D03*
X166165Y434134D02*
D03*
Y426260D02*
D03*
X174433Y430197D02*
D03*
X166165Y363268D02*
D03*
Y355394D02*
D03*
X174433Y359331D02*
D03*
X166165Y398701D02*
D03*
Y390827D02*
D03*
X174433Y394764D02*
D03*
X130732Y363268D02*
D03*
Y355394D02*
D03*
X139000Y359331D02*
D03*
X130732Y398701D02*
D03*
Y390827D02*
D03*
X139000Y394764D02*
D03*
X95299Y363268D02*
D03*
Y355394D02*
D03*
X103567Y359331D02*
D03*
X95299Y398701D02*
D03*
Y390827D02*
D03*
X103567Y394764D02*
D03*
X95299Y469567D02*
D03*
Y461693D02*
D03*
X103567Y465630D02*
D03*
X95299Y434134D02*
D03*
Y426260D02*
D03*
X103567Y430197D02*
D03*
X59866Y363268D02*
D03*
Y355394D02*
D03*
X68134Y359331D02*
D03*
X59866Y469567D02*
D03*
Y461693D02*
D03*
X68134Y465630D02*
D03*
X59866Y398701D02*
D03*
Y390827D02*
D03*
X68134Y394764D02*
D03*
X59866Y434134D02*
D03*
Y426260D02*
D03*
X68134Y430197D02*
D03*
X520563Y575788D02*
D03*
Y567914D02*
D03*
X528831Y571851D02*
D03*
X555996Y611221D02*
D03*
Y603347D02*
D03*
X564264Y607284D02*
D03*
X591429Y611221D02*
D03*
Y603347D02*
D03*
X599697Y607284D02*
D03*
X485130Y575788D02*
D03*
Y567914D02*
D03*
X493398Y571851D02*
D03*
X520563Y611221D02*
D03*
Y603347D02*
D03*
X528831Y607284D02*
D03*
X485130Y611221D02*
D03*
Y603347D02*
D03*
X493398Y607284D02*
D03*
X555996Y575788D02*
D03*
Y567914D02*
D03*
X564264Y571851D02*
D03*
X591429Y575788D02*
D03*
Y567914D02*
D03*
X599697Y571851D02*
D03*
X591429Y540355D02*
D03*
Y532481D02*
D03*
X599697Y536418D02*
D03*
X555996Y540355D02*
D03*
Y532481D02*
D03*
X564264Y536418D02*
D03*
X520563Y504922D02*
D03*
Y497048D02*
D03*
X528831Y500985D02*
D03*
X520563Y540355D02*
D03*
Y532481D02*
D03*
X528831Y536418D02*
D03*
X485130Y504922D02*
D03*
Y497048D02*
D03*
X493398Y500985D02*
D03*
X485130Y540355D02*
D03*
Y532481D02*
D03*
X493398Y536418D02*
D03*
X555996Y504922D02*
D03*
Y497048D02*
D03*
X564264Y500985D02*
D03*
X591429Y504922D02*
D03*
Y497048D02*
D03*
X599697Y500985D02*
D03*
X343495Y504998D02*
D03*
Y497124D02*
D03*
X351763Y501061D02*
D03*
X414361Y611297D02*
D03*
Y603423D02*
D03*
X422629Y607360D02*
D03*
X378928Y611297D02*
D03*
Y603423D02*
D03*
X387195Y607360D02*
D03*
X449794Y540431D02*
D03*
Y532557D02*
D03*
X458062Y536494D02*
D03*
X414361Y540431D02*
D03*
Y532557D02*
D03*
X422629Y536494D02*
D03*
X449794Y504998D02*
D03*
Y497124D02*
D03*
X458062Y501061D02*
D03*
X414361Y504998D02*
D03*
Y497124D02*
D03*
X422629Y501061D02*
D03*
X378928Y504998D02*
D03*
Y497124D02*
D03*
X387195Y501061D02*
D03*
X343495Y540431D02*
D03*
Y532557D02*
D03*
X351763Y536494D02*
D03*
X343495Y611297D02*
D03*
Y603423D02*
D03*
X351763Y607360D02*
D03*
X343495Y575864D02*
D03*
Y567990D02*
D03*
X351763Y571927D02*
D03*
X449794Y611297D02*
D03*
Y603423D02*
D03*
X458062Y607360D02*
D03*
X449794Y575864D02*
D03*
Y567990D02*
D03*
X458062Y571927D02*
D03*
X414361Y575864D02*
D03*
Y567990D02*
D03*
X422629Y571927D02*
D03*
X378928Y540431D02*
D03*
Y532557D02*
D03*
X387195Y536494D02*
D03*
X378928Y575864D02*
D03*
Y567990D02*
D03*
X387195Y571927D02*
D03*
X307987Y575857D02*
D03*
Y567983D02*
D03*
X316255Y571920D02*
D03*
X272554Y504991D02*
D03*
Y497117D02*
D03*
X280821Y501054D02*
D03*
X307987Y540424D02*
D03*
Y532550D02*
D03*
X316255Y536487D02*
D03*
X307987Y504991D02*
D03*
Y497117D02*
D03*
X316255Y501054D02*
D03*
X307987Y611290D02*
D03*
Y603416D02*
D03*
X316255Y607353D02*
D03*
X272554Y540424D02*
D03*
Y532550D02*
D03*
X280821Y536487D02*
D03*
X272554Y575857D02*
D03*
Y567983D02*
D03*
X280821Y571920D02*
D03*
X272554Y611290D02*
D03*
Y603416D02*
D03*
X280821Y607353D02*
D03*
X237121Y504991D02*
D03*
Y497117D02*
D03*
X245389Y501054D02*
D03*
X237121Y540424D02*
D03*
Y532550D02*
D03*
X245389Y536487D02*
D03*
X201688Y504991D02*
D03*
Y497117D02*
D03*
X209955Y501054D02*
D03*
X237121Y611290D02*
D03*
Y603416D02*
D03*
X245389Y607353D02*
D03*
X237121Y575857D02*
D03*
Y567983D02*
D03*
X245389Y571920D02*
D03*
X201688Y575857D02*
D03*
Y567983D02*
D03*
X209955Y571920D02*
D03*
X201688Y540424D02*
D03*
Y532550D02*
D03*
X209955Y536487D02*
D03*
X201688Y611290D02*
D03*
Y603416D02*
D03*
X209955Y607353D02*
D03*
X138976Y536417D02*
D03*
X130709Y532480D02*
D03*
Y540354D02*
D03*
X68110Y607283D02*
D03*
X59842Y603346D02*
D03*
Y611221D02*
D03*
X68110Y571850D02*
D03*
X59842Y567913D02*
D03*
Y575787D02*
D03*
X166142D02*
D03*
Y567913D02*
D03*
X174409Y571850D02*
D03*
X95276Y611221D02*
D03*
Y603346D02*
D03*
X103543Y607283D02*
D03*
X95276Y575787D02*
D03*
Y567913D02*
D03*
X103543Y571850D02*
D03*
X130709Y575787D02*
D03*
Y567913D02*
D03*
X138976Y571850D02*
D03*
X166142Y611221D02*
D03*
Y603346D02*
D03*
X174409Y607283D02*
D03*
X130709Y611221D02*
D03*
Y603346D02*
D03*
X138976Y607283D02*
D03*
X95276Y504921D02*
D03*
Y497047D02*
D03*
X103543Y500984D02*
D03*
X59842Y504921D02*
D03*
Y497047D02*
D03*
X68110Y500984D02*
D03*
X95276Y540354D02*
D03*
Y532480D02*
D03*
X103543Y536417D02*
D03*
X59842Y540354D02*
D03*
Y532480D02*
D03*
X68110Y536417D02*
D03*
X166142Y540354D02*
D03*
Y532480D02*
D03*
X174409Y536417D02*
D03*
X166142Y504921D02*
D03*
Y497047D02*
D03*
X174409Y500984D02*
D03*
X130709Y504921D02*
D03*
Y497047D02*
D03*
X138976Y500984D02*
D03*
D50*
X654554Y130459D02*
D03*
Y139459D02*
D03*
X633688Y139388D02*
D03*
X633688Y130388D02*
D03*
X643924Y139360D02*
D03*
X643924Y130360D02*
D03*
D51*
X665224Y534368D02*
D03*
X661048Y530192D02*
D03*
X669041Y526374D02*
D03*
X664865Y522198D02*
D03*
X655888Y501410D02*
D03*
X660064Y505585D02*
D03*
X655667Y210391D02*
D03*
X659842Y214567D02*
D03*
X665003Y243349D02*
D03*
X660827Y239173D02*
D03*
X668820Y235356D02*
D03*
X664644Y231180D02*
D03*
D52*
X684670Y506373D02*
D03*
X682701D02*
D03*
X680733D02*
D03*
X678764D02*
D03*
X676796D02*
D03*
X674827D02*
D03*
Y491018D02*
D03*
X676796D02*
D03*
X678764D02*
D03*
X680733D02*
D03*
X682701D02*
D03*
X684670D02*
D03*
X684449Y215354D02*
D03*
X682480D02*
D03*
X680512D02*
D03*
X678543D02*
D03*
X676575D02*
D03*
X674606D02*
D03*
Y200000D02*
D03*
X676575D02*
D03*
X678543D02*
D03*
X680512D02*
D03*
X682480D02*
D03*
X684449D02*
D03*
D53*
X672071Y503617D02*
D03*
Y501648D02*
D03*
Y499680D02*
D03*
Y497711D02*
D03*
Y495743D02*
D03*
Y493774D02*
D03*
X687426D02*
D03*
Y495743D02*
D03*
Y497711D02*
D03*
Y499680D02*
D03*
Y501648D02*
D03*
Y503617D02*
D03*
X671850Y212598D02*
D03*
Y210630D02*
D03*
Y208661D02*
D03*
Y206693D02*
D03*
Y204724D02*
D03*
Y202756D02*
D03*
X687205D02*
D03*
Y204724D02*
D03*
Y206693D02*
D03*
Y208661D02*
D03*
Y210630D02*
D03*
Y212598D02*
D03*
D54*
X679748Y498696D02*
D03*
X679528Y207677D02*
D03*
D55*
X669336Y479002D02*
D03*
X665160Y483178D02*
D03*
X654039Y491925D02*
D03*
X658214Y487749D02*
D03*
X665104Y470033D02*
D03*
X660928Y474209D02*
D03*
X666208Y457118D02*
D03*
X662032Y461294D02*
D03*
X665987Y166100D02*
D03*
X661811Y170276D02*
D03*
X664883Y179015D02*
D03*
X660707Y183190D02*
D03*
X653818Y200907D02*
D03*
X657993Y196731D02*
D03*
X669114Y187984D02*
D03*
X664939Y192160D02*
D03*
D56*
X653112Y372157D02*
D03*
Y299401D02*
D03*
D57*
X680614Y544477D02*
D03*
X629433Y447233D02*
D03*
X680315Y253445D02*
D03*
X629134Y156201D02*
D03*
D58*
X675906Y112205D02*
D03*
D59*
X664094D02*
D03*
D60*
X692913D02*
D03*
D61*
X40354Y81693D02*
D03*
X620079Y609252D02*
D03*
X40354D02*
D03*
X696850Y81693D02*
D03*
X620079D02*
D03*
X696850Y609252D02*
D03*
D62*
X624016Y105315D02*
D03*
X625000Y112205D02*
D03*
X625563Y108917D02*
D03*
X627953Y106299D02*
D03*
X630905Y111221D02*
D03*
X642987Y333567D02*
D03*
X86364Y556422D02*
D03*
X80141Y429284D02*
D03*
X692913Y580709D02*
D03*
X700787Y564961D02*
D03*
X692913Y549213D02*
D03*
X700787Y501968D02*
D03*
X692913Y423228D02*
D03*
Y391732D02*
D03*
Y360236D02*
D03*
Y297244D02*
D03*
Y265748D02*
D03*
X700787Y155512D02*
D03*
X692913Y139764D02*
D03*
X700787Y124016D02*
D03*
X677165Y612205D02*
D03*
X685039Y596457D02*
D03*
X677165Y580709D02*
D03*
Y549213D02*
D03*
X685039Y470472D02*
D03*
X677165Y454724D02*
D03*
X685039Y438976D02*
D03*
X677165Y423228D02*
D03*
X685039Y407480D02*
D03*
X677165Y391732D02*
D03*
X685039Y375984D02*
D03*
Y312992D02*
D03*
X677165Y297244D02*
D03*
Y265748D02*
D03*
Y171260D02*
D03*
X685039Y124016D02*
D03*
Y92520D02*
D03*
X677165Y76772D02*
D03*
X661417Y612205D02*
D03*
X669291Y596457D02*
D03*
X661417Y580709D02*
D03*
X669291Y564961D02*
D03*
X661417Y549213D02*
D03*
X669291Y533464D02*
D03*
X661417Y517717D02*
D03*
Y486220D02*
D03*
Y423228D02*
D03*
X669291Y407480D02*
D03*
X661417Y391732D02*
D03*
X669291Y375984D02*
D03*
X661417Y360236D02*
D03*
X669291Y281496D02*
D03*
X661417Y265748D02*
D03*
Y202756D02*
D03*
Y139764D02*
D03*
X669291Y92520D02*
D03*
X661417Y76772D02*
D03*
X645669Y612205D02*
D03*
X653543Y596457D02*
D03*
X645669Y580709D02*
D03*
Y549213D02*
D03*
X653543Y407480D02*
D03*
Y312992D02*
D03*
X645669Y297244D02*
D03*
X653543Y281496D02*
D03*
X645669Y265748D02*
D03*
Y202756D02*
D03*
X653543Y187008D02*
D03*
X645669Y171260D02*
D03*
X653543Y124016D02*
D03*
Y92520D02*
D03*
X645669Y76772D02*
D03*
X629921Y580709D02*
D03*
X637795Y564961D02*
D03*
X629921Y549213D02*
D03*
X637795Y470472D02*
D03*
Y438976D02*
D03*
X629921Y423228D02*
D03*
X637795Y407480D02*
D03*
Y375984D02*
D03*
X629921Y297244D02*
D03*
X614173Y580709D02*
D03*
X622047Y501968D02*
D03*
Y470472D02*
D03*
X614173Y423228D02*
D03*
X622047Y407480D02*
D03*
Y375984D02*
D03*
X614173Y328740D02*
D03*
X622047Y281496D02*
D03*
X614173Y139764D02*
D03*
Y108268D02*
D03*
X606299Y596457D02*
D03*
Y564961D02*
D03*
Y533464D02*
D03*
X598425Y517717D02*
D03*
X606299Y501968D02*
D03*
Y470472D02*
D03*
X598425Y454724D02*
D03*
X606299Y407480D02*
D03*
X598425Y391732D02*
D03*
X606299Y344488D02*
D03*
Y281496D02*
D03*
Y250000D02*
D03*
X598425Y234252D02*
D03*
X606299Y218504D02*
D03*
Y187008D02*
D03*
X598425Y171260D02*
D03*
X606299Y155512D02*
D03*
Y124016D02*
D03*
X598425Y108268D02*
D03*
X606299Y92520D02*
D03*
X582677Y612205D02*
D03*
X590551Y596457D02*
D03*
X582677Y580709D02*
D03*
Y517717D02*
D03*
Y454724D02*
D03*
Y423228D02*
D03*
Y391732D02*
D03*
Y360236D02*
D03*
X590551Y344488D02*
D03*
X582677Y328740D02*
D03*
Y297244D02*
D03*
Y234252D02*
D03*
Y171260D02*
D03*
Y139764D02*
D03*
Y108268D02*
D03*
X590551Y92520D02*
D03*
X582677Y76772D02*
D03*
X574803Y596457D02*
D03*
X566929Y580709D02*
D03*
X574803Y564961D02*
D03*
Y533464D02*
D03*
X566929Y517717D02*
D03*
X574803Y470472D02*
D03*
Y438976D02*
D03*
X566929Y423228D02*
D03*
X574803Y407480D02*
D03*
X566929Y391732D02*
D03*
X574803Y344488D02*
D03*
X566929Y297244D02*
D03*
X574803Y281496D02*
D03*
Y250000D02*
D03*
X566929Y234252D02*
D03*
X574803Y187008D02*
D03*
Y155512D02*
D03*
X566929Y139764D02*
D03*
X574803Y124016D02*
D03*
X566929Y108268D02*
D03*
X574803Y92520D02*
D03*
X559055Y596457D02*
D03*
X551181Y517717D02*
D03*
X559055Y344488D02*
D03*
X551181Y234252D02*
D03*
X535433Y612205D02*
D03*
X543307Y596457D02*
D03*
X535433Y580709D02*
D03*
Y517717D02*
D03*
X543307Y501968D02*
D03*
Y470472D02*
D03*
X535433Y454724D02*
D03*
Y391732D02*
D03*
Y360236D02*
D03*
X543307Y344488D02*
D03*
X535433Y328740D02*
D03*
Y297244D02*
D03*
Y234252D02*
D03*
X543307Y218504D02*
D03*
Y187008D02*
D03*
X535433Y171260D02*
D03*
Y108268D02*
D03*
Y76772D02*
D03*
X519685Y517717D02*
D03*
Y454724D02*
D03*
X527559Y344488D02*
D03*
X519685Y234252D02*
D03*
Y171260D02*
D03*
X527559Y92520D02*
D03*
X503937Y612205D02*
D03*
Y360236D02*
D03*
X511811Y344488D02*
D03*
X503937Y328740D02*
D03*
X511811Y92520D02*
D03*
X503937Y76772D02*
D03*
X488189Y517717D02*
D03*
Y454724D02*
D03*
X496063Y438976D02*
D03*
Y407480D02*
D03*
Y375984D02*
D03*
Y344488D02*
D03*
Y312992D02*
D03*
X488189Y234252D02*
D03*
Y171260D02*
D03*
X496063Y155512D02*
D03*
Y124016D02*
D03*
X472441Y612205D02*
D03*
Y580709D02*
D03*
X480315Y564961D02*
D03*
X472441Y549213D02*
D03*
X480315Y533464D02*
D03*
X472441Y517717D02*
D03*
X480315Y501968D02*
D03*
X472441Y454724D02*
D03*
Y423228D02*
D03*
Y391732D02*
D03*
X480315Y375984D02*
D03*
X472441Y360236D02*
D03*
X480315Y344488D02*
D03*
X472441Y328740D02*
D03*
X480315Y312992D02*
D03*
X472441Y297244D02*
D03*
X480315Y281496D02*
D03*
Y250000D02*
D03*
X472441Y234252D02*
D03*
X480315Y218504D02*
D03*
X472441Y171260D02*
D03*
Y139764D02*
D03*
Y108268D02*
D03*
Y76772D02*
D03*
X464567Y564961D02*
D03*
Y533464D02*
D03*
X456693Y517717D02*
D03*
X464567Y501968D02*
D03*
Y470472D02*
D03*
X456693Y454724D02*
D03*
X464567Y438976D02*
D03*
X456693Y423228D02*
D03*
X464567Y407480D02*
D03*
X456693Y391732D02*
D03*
X464567Y375984D02*
D03*
Y344488D02*
D03*
Y312992D02*
D03*
Y281496D02*
D03*
Y250000D02*
D03*
X456693Y234252D02*
D03*
X464567Y218504D02*
D03*
Y187008D02*
D03*
X456693Y171260D02*
D03*
X464567Y155512D02*
D03*
X456693Y139764D02*
D03*
X464567Y124016D02*
D03*
X456693Y108268D02*
D03*
X440945Y612205D02*
D03*
Y580709D02*
D03*
Y517717D02*
D03*
Y454724D02*
D03*
Y423228D02*
D03*
Y391732D02*
D03*
X448819Y375984D02*
D03*
X440945Y360236D02*
D03*
X448819Y344488D02*
D03*
X440945Y328740D02*
D03*
X448819Y312992D02*
D03*
X440945Y297244D02*
D03*
Y234252D02*
D03*
Y171260D02*
D03*
Y139764D02*
D03*
Y108268D02*
D03*
Y76772D02*
D03*
X425197Y580709D02*
D03*
X433071Y564961D02*
D03*
Y533464D02*
D03*
X425197Y517717D02*
D03*
X433071Y470472D02*
D03*
Y438976D02*
D03*
X425197Y423228D02*
D03*
X433071Y407480D02*
D03*
X425197Y391732D02*
D03*
X433071Y375984D02*
D03*
Y344488D02*
D03*
Y312992D02*
D03*
X425197Y297244D02*
D03*
X433071Y281496D02*
D03*
Y250000D02*
D03*
X425197Y234252D02*
D03*
X433071Y187008D02*
D03*
Y155512D02*
D03*
X425197Y139764D02*
D03*
X433071Y124016D02*
D03*
X425197Y108268D02*
D03*
X409449Y517717D02*
D03*
X417323Y344488D02*
D03*
Y312992D02*
D03*
X409449Y234252D02*
D03*
X393701Y612205D02*
D03*
Y580709D02*
D03*
Y517717D02*
D03*
X401575Y501968D02*
D03*
Y470472D02*
D03*
X393701Y454724D02*
D03*
Y391732D02*
D03*
Y360236D02*
D03*
X401575Y344488D02*
D03*
X393701Y328740D02*
D03*
X401575Y312992D02*
D03*
X393701Y297244D02*
D03*
Y234252D02*
D03*
X401575Y218504D02*
D03*
Y187008D02*
D03*
X393701Y171260D02*
D03*
Y108268D02*
D03*
Y76772D02*
D03*
X377953Y517717D02*
D03*
Y454724D02*
D03*
X385827Y375984D02*
D03*
Y344488D02*
D03*
X377953Y234252D02*
D03*
Y171260D02*
D03*
X362205Y612205D02*
D03*
X370079Y375984D02*
D03*
X362205Y360236D02*
D03*
X370079Y344488D02*
D03*
X362205Y328740D02*
D03*
Y76772D02*
D03*
X354331Y596457D02*
D03*
X346457Y517717D02*
D03*
Y454724D02*
D03*
X354331Y438976D02*
D03*
Y407480D02*
D03*
Y344488D02*
D03*
X346457Y234252D02*
D03*
Y171260D02*
D03*
X354331Y155512D02*
D03*
Y124016D02*
D03*
Y92520D02*
D03*
X330709Y612205D02*
D03*
X338583Y596457D02*
D03*
X330709Y580709D02*
D03*
X338583Y564961D02*
D03*
X330709Y549213D02*
D03*
X338583Y533464D02*
D03*
X330709Y517717D02*
D03*
X338583Y501968D02*
D03*
X330709Y423228D02*
D03*
Y391732D02*
D03*
Y360236D02*
D03*
X338583Y344488D02*
D03*
X330709Y328740D02*
D03*
Y297244D02*
D03*
X338583Y281496D02*
D03*
Y250000D02*
D03*
Y218504D02*
D03*
X330709Y139764D02*
D03*
Y108268D02*
D03*
X338583Y92520D02*
D03*
X330709Y76772D02*
D03*
X322835Y596457D02*
D03*
Y564961D02*
D03*
Y533464D02*
D03*
X314961Y517717D02*
D03*
X322835Y501968D02*
D03*
Y470472D02*
D03*
X314961Y454724D02*
D03*
X322835Y438976D02*
D03*
X314961Y423228D02*
D03*
X322835Y407480D02*
D03*
X314961Y391732D02*
D03*
X322835Y344488D02*
D03*
Y281496D02*
D03*
Y250000D02*
D03*
X314961Y234252D02*
D03*
X322835Y218504D02*
D03*
Y187008D02*
D03*
X314961Y171260D02*
D03*
X322835Y155512D02*
D03*
X314961Y139764D02*
D03*
X322835Y124016D02*
D03*
X314961Y108268D02*
D03*
X322835Y92520D02*
D03*
X299213Y612205D02*
D03*
X307087Y596457D02*
D03*
X299213Y580709D02*
D03*
Y517717D02*
D03*
Y454724D02*
D03*
Y423228D02*
D03*
Y391732D02*
D03*
Y360236D02*
D03*
X307087Y344488D02*
D03*
X299213Y328740D02*
D03*
Y297244D02*
D03*
Y234252D02*
D03*
Y171260D02*
D03*
Y139764D02*
D03*
Y108268D02*
D03*
X307087Y92520D02*
D03*
X299213Y76772D02*
D03*
X291338Y596457D02*
D03*
X283465Y580709D02*
D03*
X291338Y564961D02*
D03*
Y533464D02*
D03*
X283465Y517717D02*
D03*
X291338Y470472D02*
D03*
Y438976D02*
D03*
X283465Y423228D02*
D03*
X291338Y407480D02*
D03*
X283465Y391732D02*
D03*
X291338Y344488D02*
D03*
X283465Y297244D02*
D03*
X291338Y281496D02*
D03*
Y250000D02*
D03*
X283465Y234252D02*
D03*
X291338Y187008D02*
D03*
Y155512D02*
D03*
X283465Y139764D02*
D03*
X291338Y124016D02*
D03*
X283465Y108268D02*
D03*
X291338Y92520D02*
D03*
X275590Y596457D02*
D03*
X267717Y517717D02*
D03*
X275590Y344488D02*
D03*
X267717Y234252D02*
D03*
X251969Y612205D02*
D03*
X259842Y596457D02*
D03*
X251969Y580709D02*
D03*
Y517717D02*
D03*
X259842Y501968D02*
D03*
Y470472D02*
D03*
X251969Y454724D02*
D03*
Y391732D02*
D03*
Y360236D02*
D03*
X259842Y344488D02*
D03*
X251969Y328740D02*
D03*
Y297244D02*
D03*
Y234252D02*
D03*
X259842Y218504D02*
D03*
Y187008D02*
D03*
X251969Y171260D02*
D03*
Y108268D02*
D03*
Y76772D02*
D03*
X236220Y517717D02*
D03*
Y454724D02*
D03*
X244094Y344488D02*
D03*
X236220Y234252D02*
D03*
Y171260D02*
D03*
X244094Y92520D02*
D03*
X220472Y612205D02*
D03*
Y360236D02*
D03*
X228346Y344488D02*
D03*
X220472Y328740D02*
D03*
X228346Y92520D02*
D03*
X220472Y76772D02*
D03*
X204724Y517717D02*
D03*
Y454724D02*
D03*
X212598Y438976D02*
D03*
Y407480D02*
D03*
Y375984D02*
D03*
Y344488D02*
D03*
Y312992D02*
D03*
X204724Y234252D02*
D03*
Y171260D02*
D03*
X212598Y155512D02*
D03*
Y124016D02*
D03*
X188976Y612205D02*
D03*
Y580709D02*
D03*
X196850Y564961D02*
D03*
Y533464D02*
D03*
Y501968D02*
D03*
X188976Y486220D02*
D03*
Y423228D02*
D03*
Y391732D02*
D03*
X196850Y375984D02*
D03*
X188976Y360236D02*
D03*
X196850Y344488D02*
D03*
X188976Y328740D02*
D03*
X196850Y312992D02*
D03*
X188976Y297244D02*
D03*
X196850Y281496D02*
D03*
Y250000D02*
D03*
X188976Y202756D02*
D03*
Y139764D02*
D03*
Y108268D02*
D03*
Y76772D02*
D03*
X181102Y564961D02*
D03*
Y533464D02*
D03*
X173228Y517717D02*
D03*
X181102Y501968D02*
D03*
X173228Y486220D02*
D03*
X181102Y470472D02*
D03*
X173228Y454724D02*
D03*
X181102Y438976D02*
D03*
X173228Y423228D02*
D03*
X181102Y407480D02*
D03*
X173228Y391732D02*
D03*
X181102Y375984D02*
D03*
Y344488D02*
D03*
Y312992D02*
D03*
Y281496D02*
D03*
Y250000D02*
D03*
X173228Y234252D02*
D03*
X181102Y218504D02*
D03*
X173228Y202756D02*
D03*
X181102Y187008D02*
D03*
X173228Y171260D02*
D03*
X181102Y155512D02*
D03*
X173228Y139764D02*
D03*
X181102Y124016D02*
D03*
X173228Y108268D02*
D03*
X157480Y612205D02*
D03*
Y580709D02*
D03*
Y517717D02*
D03*
Y486220D02*
D03*
Y454724D02*
D03*
Y423228D02*
D03*
Y391732D02*
D03*
X165354Y375984D02*
D03*
X157480Y360236D02*
D03*
X165354Y344488D02*
D03*
X157480Y328740D02*
D03*
X165354Y312992D02*
D03*
X157480Y297244D02*
D03*
Y234252D02*
D03*
Y202756D02*
D03*
Y171260D02*
D03*
Y139764D02*
D03*
Y108268D02*
D03*
Y76772D02*
D03*
X141732Y580709D02*
D03*
X149606Y564961D02*
D03*
Y533464D02*
D03*
X141732Y517717D02*
D03*
Y486220D02*
D03*
X149606Y470472D02*
D03*
Y438976D02*
D03*
X141732Y423228D02*
D03*
X149606Y407480D02*
D03*
X141732Y391732D02*
D03*
X149606Y375984D02*
D03*
Y344488D02*
D03*
Y312992D02*
D03*
X141732Y297244D02*
D03*
X149606Y281496D02*
D03*
Y250000D02*
D03*
X141732Y234252D02*
D03*
Y202756D02*
D03*
X149606Y187008D02*
D03*
Y155512D02*
D03*
X141732Y139764D02*
D03*
X149606Y124016D02*
D03*
X141732Y108268D02*
D03*
X125984Y517717D02*
D03*
Y486220D02*
D03*
X133858Y344488D02*
D03*
Y312992D02*
D03*
X125984Y234252D02*
D03*
Y202756D02*
D03*
X110236Y612205D02*
D03*
Y580709D02*
D03*
Y517717D02*
D03*
X118110Y501968D02*
D03*
X110236Y486220D02*
D03*
X118110Y470472D02*
D03*
X110236Y454724D02*
D03*
Y391732D02*
D03*
Y360236D02*
D03*
X118110Y344488D02*
D03*
X110236Y328740D02*
D03*
X118110Y312992D02*
D03*
X110236Y297244D02*
D03*
Y234252D02*
D03*
X118110Y218504D02*
D03*
X110236Y202756D02*
D03*
X118110Y187008D02*
D03*
X110236Y171260D02*
D03*
Y108268D02*
D03*
Y76772D02*
D03*
X94488Y517717D02*
D03*
Y486220D02*
D03*
Y454724D02*
D03*
X102362Y375984D02*
D03*
Y344488D02*
D03*
X94488Y234252D02*
D03*
Y202756D02*
D03*
Y171260D02*
D03*
X78740Y612205D02*
D03*
X86614Y407480D02*
D03*
Y375984D02*
D03*
X78740Y360236D02*
D03*
X86614Y344488D02*
D03*
X78740Y328740D02*
D03*
Y297244D02*
D03*
Y76772D02*
D03*
X70866Y596457D02*
D03*
X62992Y517717D02*
D03*
Y486220D02*
D03*
Y454724D02*
D03*
X70866Y438976D02*
D03*
Y407480D02*
D03*
Y375984D02*
D03*
Y344488D02*
D03*
Y312992D02*
D03*
X62992Y234252D02*
D03*
Y202756D02*
D03*
Y171260D02*
D03*
X70866Y155512D02*
D03*
Y124016D02*
D03*
Y92520D02*
D03*
X55118Y596457D02*
D03*
X47244Y580709D02*
D03*
X55118Y564961D02*
D03*
X47244Y549213D02*
D03*
X55118Y533464D02*
D03*
X47244Y517717D02*
D03*
X55118Y501968D02*
D03*
X47244Y486220D02*
D03*
Y454724D02*
D03*
Y423228D02*
D03*
Y391732D02*
D03*
X55118Y375984D02*
D03*
X47244Y360236D02*
D03*
X55118Y344488D02*
D03*
X47244Y328740D02*
D03*
X55118Y312992D02*
D03*
X47244Y297244D02*
D03*
X55118Y281496D02*
D03*
X47244Y265748D02*
D03*
X55118Y250000D02*
D03*
X47244Y234252D02*
D03*
X55118Y218504D02*
D03*
X47244Y202756D02*
D03*
Y171260D02*
D03*
Y139764D02*
D03*
Y108268D02*
D03*
X55118Y92520D02*
D03*
X31496Y580709D02*
D03*
X39370Y564961D02*
D03*
X31496Y549213D02*
D03*
X39370Y533464D02*
D03*
X31496Y517717D02*
D03*
X39370Y501968D02*
D03*
X31496Y486220D02*
D03*
X39370Y470472D02*
D03*
X31496Y454724D02*
D03*
X39370Y438976D02*
D03*
X31496Y423228D02*
D03*
X39370Y407480D02*
D03*
X31496Y391732D02*
D03*
X39370Y375984D02*
D03*
X31496Y360236D02*
D03*
X39370Y344488D02*
D03*
X31496Y328740D02*
D03*
X39370Y312992D02*
D03*
X31496Y297244D02*
D03*
X39370Y281496D02*
D03*
X31496Y265748D02*
D03*
X39370Y250000D02*
D03*
X31496Y234252D02*
D03*
X39370Y218504D02*
D03*
X31496Y202756D02*
D03*
X39370Y187008D02*
D03*
X31496Y171260D02*
D03*
X39370Y155512D02*
D03*
X31496Y139764D02*
D03*
X39370Y124016D02*
D03*
X31496Y108268D02*
D03*
X76598Y404894D02*
D03*
X83400Y420621D02*
D03*
X86606Y416202D02*
D03*
X83092Y562590D02*
D03*
X79842Y570590D02*
D03*
X76466Y544505D02*
D03*
X218297Y558875D02*
D03*
X221523Y562930D02*
D03*
X225012Y570429D02*
D03*
X228413Y548149D02*
D03*
X218260Y416008D02*
D03*
X221743Y420573D02*
D03*
X224943Y428526D02*
D03*
X228331Y406078D02*
D03*
X363282Y428688D02*
D03*
X366636Y419867D02*
D03*
X370079Y413386D02*
D03*
X359974Y404016D02*
D03*
X360117Y546511D02*
D03*
X363401Y570941D02*
D03*
X366766Y561009D02*
D03*
X369930Y555682D02*
D03*
X501642Y555703D02*
D03*
X505148Y562478D02*
D03*
X508338Y569804D02*
D03*
X511795Y540315D02*
D03*
X501722Y413402D02*
D03*
X505048Y420658D02*
D03*
X508474Y427107D02*
D03*
X511880Y399132D02*
D03*
X82460Y285433D02*
D03*
X78895Y277581D02*
D03*
X75440Y270636D02*
D03*
X85693Y263434D02*
D03*
X75565Y133831D02*
D03*
X78853Y137834D02*
D03*
X82368Y144084D02*
D03*
X85423Y122278D02*
D03*
X227306Y133298D02*
D03*
X223991Y137489D02*
D03*
X220561Y143701D02*
D03*
X217278Y120746D02*
D03*
X220683Y285673D02*
D03*
X224058Y278115D02*
D03*
X227249Y272392D02*
D03*
X217307Y263881D02*
D03*
X359750Y274743D02*
D03*
X363205Y279469D02*
D03*
X366468Y287408D02*
D03*
X369795Y264309D02*
D03*
X359681Y133284D02*
D03*
X363083Y137633D02*
D03*
X366556Y144788D02*
D03*
X369947Y123979D02*
D03*
X510793Y131109D02*
D03*
X507519Y137691D02*
D03*
X504109Y143284D02*
D03*
X500766Y120604D02*
D03*
X510738Y273212D02*
D03*
X507339Y276393D02*
D03*
X504121Y279177D02*
D03*
X500759Y265366D02*
D03*
X449627Y319908D02*
D03*
X555851Y319884D02*
D03*
X591284D02*
D03*
X377117Y401910D02*
D03*
X236943Y390611D02*
D03*
X341684Y366477D02*
D03*
X306268Y366354D02*
D03*
X307809Y355178D02*
D03*
X377117Y437344D02*
D03*
X485130Y603347D02*
D03*
X483589Y579091D02*
D03*
X448253Y579167D02*
D03*
X412820D02*
D03*
X377387D02*
D03*
X341954D02*
D03*
X306446Y579160D02*
D03*
X591306Y355319D02*
D03*
X707098Y341940D02*
D03*
X667821Y300264D02*
D03*
X656301Y303393D02*
D03*
X617126Y299213D02*
D03*
X626312Y337404D02*
D03*
X620473Y333645D02*
D03*
X626509Y305809D02*
D03*
X620616Y301943D02*
D03*
X621783Y313349D02*
D03*
X620572Y341127D02*
D03*
X621872Y345258D02*
D03*
X699662Y307719D02*
D03*
X706038Y315857D02*
D03*
X696643Y310612D02*
D03*
X702305Y316025D02*
D03*
X702716Y325431D02*
D03*
X695179Y349456D02*
D03*
X700494Y336562D02*
D03*
X702680Y333374D02*
D03*
X652364Y378196D02*
D03*
X655317Y361464D02*
D03*
X666144Y341779D02*
D03*
X666395Y371645D02*
D03*
X655317Y332920D02*
D03*
Y345716D02*
D03*
X661223Y311267D02*
D03*
X655233Y319188D02*
D03*
X667128Y352606D02*
D03*
Y327015D02*
D03*
X687274Y339709D02*
D03*
X681400Y343649D02*
D03*
X620616Y309327D02*
D03*
X643219Y365699D02*
D03*
X637459Y305629D02*
D03*
X609771Y302102D02*
D03*
X637453Y336782D02*
D03*
X617052Y331455D02*
D03*
X609771Y334416D02*
D03*
X643408Y308413D02*
D03*
X643463Y301890D02*
D03*
X648824Y454304D02*
D03*
X690914Y496894D02*
D03*
X669885Y486999D02*
D03*
X683242Y486790D02*
D03*
X683292Y498696D02*
D03*
X679650Y495054D02*
D03*
X676279Y211910D02*
D03*
X668504Y220472D02*
D03*
X676083Y220276D02*
D03*
X672956Y230928D02*
D03*
X690694Y205876D02*
D03*
X576272Y554331D02*
D03*
X628002Y536248D02*
D03*
X627949Y484035D02*
D03*
X630930Y497711D02*
D03*
X633240Y483921D02*
D03*
X118736Y429866D02*
D03*
X123861Y429843D02*
D03*
X113635Y429850D02*
D03*
X576148Y419683D02*
D03*
X632970Y217354D02*
D03*
X536158Y265060D02*
D03*
X576126Y270868D02*
D03*
X175216Y151658D02*
D03*
X554460Y153829D02*
D03*
X632843Y165131D02*
D03*
X627764Y165129D02*
D03*
X632848Y193040D02*
D03*
X627743Y193064D02*
D03*
X627724Y217385D02*
D03*
X632857Y245156D02*
D03*
X627776Y245181D02*
D03*
X633146Y456209D02*
D03*
X628037Y456185D02*
D03*
X633080Y536313D02*
D03*
X628038Y508340D02*
D03*
X657173Y92124D02*
D03*
X649130Y92028D02*
D03*
X633489Y96428D02*
D03*
X636002Y98576D02*
D03*
X637756Y95611D02*
D03*
X637817Y100905D02*
D03*
X632976Y100875D02*
D03*
X614611Y99593D02*
D03*
X669291Y133858D02*
D03*
X679134D02*
D03*
Y143701D02*
D03*
X669291D02*
D03*
X610236Y123031D02*
D03*
X614173D02*
D03*
X617126Y118110D02*
D03*
X612205Y127953D02*
D03*
X617126D02*
D03*
X611221Y118110D02*
D03*
X618110Y123031D02*
D03*
X656975Y123902D02*
D03*
X648161Y126404D02*
D03*
X625000Y135827D02*
D03*
X654528Y139764D02*
D03*
X643701D02*
D03*
X633858D02*
D03*
X670276Y82677D02*
D03*
X663386D02*
D03*
X169488Y275859D02*
D03*
X139658Y328819D02*
D03*
X175091D02*
D03*
X104225Y222520D02*
D03*
X139658D02*
D03*
X68792Y328819D02*
D03*
X175091Y293386D02*
D03*
Y222520D02*
D03*
Y257953D02*
D03*
X104225Y328819D02*
D03*
X68792Y293386D02*
D03*
X150878Y276851D02*
D03*
X139658Y293386D02*
D03*
X128899Y280328D02*
D03*
X125288Y270945D02*
D03*
X104225Y293386D02*
D03*
X152453Y254016D02*
D03*
X104082Y256459D02*
D03*
X139658Y257953D02*
D03*
X68792D02*
D03*
Y222520D02*
D03*
X164495Y331138D02*
D03*
X129062D02*
D03*
X93629Y224839D02*
D03*
X58196Y331138D02*
D03*
X93629D02*
D03*
X105806Y279956D02*
D03*
X129062Y295705D02*
D03*
X164495D02*
D03*
X131286Y256917D02*
D03*
X131193Y270945D02*
D03*
X93629Y295705D02*
D03*
X58196D02*
D03*
X164495Y224839D02*
D03*
X129062D02*
D03*
X150878Y270945D02*
D03*
X164495Y260272D02*
D03*
X93629D02*
D03*
X58196D02*
D03*
Y224839D02*
D03*
X105753Y265242D02*
D03*
X59737Y249095D02*
D03*
X126077Y282906D02*
D03*
X135289Y284515D02*
D03*
X123731Y288111D02*
D03*
X166036Y284528D02*
D03*
X121208Y283524D02*
D03*
X166036Y319961D02*
D03*
X118606Y288134D02*
D03*
X130603Y319961D02*
D03*
X116018Y283568D02*
D03*
X95170Y319961D02*
D03*
X113505Y288118D02*
D03*
X59737Y319961D02*
D03*
X110921Y283272D02*
D03*
X59737Y284528D02*
D03*
X123664Y260212D02*
D03*
X166036Y249095D02*
D03*
X121149Y264944D02*
D03*
X130603Y249095D02*
D03*
X118620Y260382D02*
D03*
X166036Y213662D02*
D03*
X116032Y264980D02*
D03*
X130603Y213662D02*
D03*
X113410Y260277D02*
D03*
X95170Y213662D02*
D03*
X110910Y265137D02*
D03*
X59737Y213662D02*
D03*
X108323Y260102D02*
D03*
X95170Y249095D02*
D03*
X108395Y288206D02*
D03*
X95170Y284528D02*
D03*
X594758Y417516D02*
D03*
X564928Y470476D02*
D03*
X600361D02*
D03*
X529495Y364177D02*
D03*
X564928D02*
D03*
X494062Y470476D02*
D03*
X600361Y435043D02*
D03*
Y364177D02*
D03*
Y399610D02*
D03*
X529495Y470476D02*
D03*
X494062Y435043D02*
D03*
X564928D02*
D03*
X554169Y421985D02*
D03*
X550558Y412602D02*
D03*
X529495Y435043D02*
D03*
X577723Y395673D02*
D03*
X529352Y398116D02*
D03*
X564928Y399610D02*
D03*
X494062D02*
D03*
Y364177D02*
D03*
X589765Y472795D02*
D03*
X554332D02*
D03*
X518899Y366496D02*
D03*
X483466Y472795D02*
D03*
X518899D02*
D03*
X531076Y421613D02*
D03*
X554332Y437362D02*
D03*
X589765D02*
D03*
X556556Y398574D02*
D03*
X556463Y412602D02*
D03*
X518899Y437362D02*
D03*
X483466D02*
D03*
X589765Y366496D02*
D03*
X554332D02*
D03*
X576148Y412602D02*
D03*
X589765Y401929D02*
D03*
X518899D02*
D03*
X483466D02*
D03*
Y366496D02*
D03*
X531023Y406899D02*
D03*
X485007Y390752D02*
D03*
X551347Y424563D02*
D03*
X560559Y426172D02*
D03*
X549001Y429768D02*
D03*
X591306Y426185D02*
D03*
X546478Y425181D02*
D03*
X591306Y461618D02*
D03*
X543876Y429791D02*
D03*
X555873Y461618D02*
D03*
X541288Y425225D02*
D03*
X520439Y461618D02*
D03*
X538775Y429775D02*
D03*
X485007Y461618D02*
D03*
X536191Y424929D02*
D03*
X485007Y426185D02*
D03*
X548934Y401869D02*
D03*
X591306Y390752D02*
D03*
X546419Y406601D02*
D03*
X555873Y390752D02*
D03*
X543890Y402039D02*
D03*
X541302Y406637D02*
D03*
X555873Y355319D02*
D03*
X538680Y401934D02*
D03*
X520439Y355319D02*
D03*
X536180Y406794D02*
D03*
X485007Y355319D02*
D03*
X533593Y401759D02*
D03*
X520439Y390752D02*
D03*
X533665Y429863D02*
D03*
X520439Y426185D02*
D03*
X452976Y417497D02*
D03*
X423146Y470458D02*
D03*
X458579D02*
D03*
X387713Y364159D02*
D03*
X423146D02*
D03*
X352280Y470458D02*
D03*
X458579Y435025D02*
D03*
Y364159D02*
D03*
Y399592D02*
D03*
X387713Y470458D02*
D03*
X352280Y435025D02*
D03*
X434367Y418490D02*
D03*
X423146Y435025D02*
D03*
X412387Y421967D02*
D03*
X408776Y412584D02*
D03*
X387713Y435025D02*
D03*
X435941Y395655D02*
D03*
X387570Y398097D02*
D03*
X423146Y399592D02*
D03*
X352280D02*
D03*
Y364159D02*
D03*
X447984Y472777D02*
D03*
X412550D02*
D03*
X377117Y366477D02*
D03*
X341684Y472777D02*
D03*
X377117D02*
D03*
X389294Y421595D02*
D03*
X412550Y437344D02*
D03*
X447984D02*
D03*
X414774Y398555D02*
D03*
X414681Y412584D02*
D03*
X341684Y437344D02*
D03*
X447984Y366477D02*
D03*
X412550D02*
D03*
X434367Y412584D02*
D03*
X447984Y401910D02*
D03*
X341684D02*
D03*
X389241Y406881D02*
D03*
X343225Y390734D02*
D03*
X409565Y424545D02*
D03*
X418777Y426154D02*
D03*
X407219Y429750D02*
D03*
X449524Y426167D02*
D03*
X404696Y425163D02*
D03*
X449524Y461600D02*
D03*
X402094Y429773D02*
D03*
X414091Y461600D02*
D03*
X399506Y425207D02*
D03*
X378658Y461600D02*
D03*
X396994Y429757D02*
D03*
X343225Y461600D02*
D03*
X394409Y424911D02*
D03*
X343225Y426167D02*
D03*
X407153Y401851D02*
D03*
X449524Y390734D02*
D03*
X404637Y406582D02*
D03*
X414091Y390734D02*
D03*
X402108Y402021D02*
D03*
X449524Y355301D02*
D03*
X399521Y406619D02*
D03*
X414091Y355301D02*
D03*
X396898Y401916D02*
D03*
X378658Y355301D02*
D03*
X394398Y406776D02*
D03*
X343225Y355301D02*
D03*
X391811Y401741D02*
D03*
X378658Y390734D02*
D03*
X391883Y429845D02*
D03*
X378658Y426167D02*
D03*
X311261Y417375D02*
D03*
X281431Y470335D02*
D03*
X316864D02*
D03*
X245998Y364036D02*
D03*
X281431D02*
D03*
X210565Y470335D02*
D03*
X316864Y434902D02*
D03*
Y364036D02*
D03*
Y399469D02*
D03*
X245998Y470335D02*
D03*
X210565Y434902D02*
D03*
X292651Y418367D02*
D03*
X281431Y434902D02*
D03*
X270672Y421843D02*
D03*
X267061Y412461D02*
D03*
X245998Y434902D02*
D03*
X294226Y395532D02*
D03*
X245855Y397974D02*
D03*
X281431Y399469D02*
D03*
X210565D02*
D03*
Y364036D02*
D03*
X306268Y472654D02*
D03*
X270835D02*
D03*
X235402Y366354D02*
D03*
X199969Y472654D02*
D03*
X235402D02*
D03*
X247579Y421472D02*
D03*
X270835Y437220D02*
D03*
X306268D02*
D03*
X273059Y398432D02*
D03*
X272966Y412461D02*
D03*
X235402Y437220D02*
D03*
X199969D02*
D03*
X270835Y366354D02*
D03*
X292651Y412461D02*
D03*
X306268Y401787D02*
D03*
X235402D02*
D03*
X199969D02*
D03*
Y366354D02*
D03*
X247526Y406758D02*
D03*
X201510Y390611D02*
D03*
X267850Y424422D02*
D03*
X277062Y426031D02*
D03*
X265504Y429627D02*
D03*
X307809Y426044D02*
D03*
X262981Y425040D02*
D03*
X307809Y461477D02*
D03*
X260379Y429650D02*
D03*
X272376Y461477D02*
D03*
X257791Y425083D02*
D03*
X236943Y461477D02*
D03*
X255278Y429634D02*
D03*
X201510Y461477D02*
D03*
X252694Y424788D02*
D03*
X201510Y426044D02*
D03*
X265437Y401728D02*
D03*
X307809Y390611D02*
D03*
X262922Y406459D02*
D03*
X272376Y390611D02*
D03*
X260393Y401898D02*
D03*
X257805Y406496D02*
D03*
X272376Y355178D02*
D03*
X255183Y401793D02*
D03*
X236943Y355178D02*
D03*
X252683Y406653D02*
D03*
X201510Y355178D02*
D03*
X250096Y401618D02*
D03*
X250168Y429722D02*
D03*
X236943Y426044D02*
D03*
X169618Y417591D02*
D03*
X139787Y470551D02*
D03*
X175220D02*
D03*
X104354Y364252D02*
D03*
X139787D02*
D03*
X68921Y470551D02*
D03*
X175220Y435118D02*
D03*
Y364252D02*
D03*
Y399685D02*
D03*
X104354Y470551D02*
D03*
X68921Y435118D02*
D03*
X151008Y418583D02*
D03*
X139787Y435118D02*
D03*
X129028Y422060D02*
D03*
X125417Y412677D02*
D03*
X104354Y435118D02*
D03*
X152583Y395748D02*
D03*
X104212Y398191D02*
D03*
X139787Y399685D02*
D03*
X68921D02*
D03*
Y364252D02*
D03*
X164625Y472870D02*
D03*
X129192D02*
D03*
X93759Y366571D02*
D03*
X58325Y472870D02*
D03*
X93759D02*
D03*
X105935Y421688D02*
D03*
X129192Y437437D02*
D03*
X164625D02*
D03*
X131415Y398649D02*
D03*
X131323Y412677D02*
D03*
X93759Y437437D02*
D03*
X58325D02*
D03*
X164625Y366571D02*
D03*
X129192D02*
D03*
X151008Y412677D02*
D03*
X164625Y402004D02*
D03*
X93759D02*
D03*
X58325D02*
D03*
Y366571D02*
D03*
X105882Y406974D02*
D03*
X59866Y390827D02*
D03*
X126207Y424638D02*
D03*
X135418Y426247D02*
D03*
X166165Y426260D02*
D03*
X121338Y425256D02*
D03*
X166165Y461693D02*
D03*
X130732D02*
D03*
X116147Y425300D02*
D03*
X95299Y461693D02*
D03*
X59866D02*
D03*
X111050Y425004D02*
D03*
X59866Y426260D02*
D03*
X123794Y401944D02*
D03*
X166165Y390827D02*
D03*
X121279Y406675D02*
D03*
X130732Y390827D02*
D03*
X118749Y402114D02*
D03*
X166165Y355394D02*
D03*
X116162Y406712D02*
D03*
X130732Y355394D02*
D03*
X113540Y402009D02*
D03*
X95299Y355394D02*
D03*
X111039Y406869D02*
D03*
X59866Y355394D02*
D03*
X108452Y401834D02*
D03*
X95299Y390827D02*
D03*
X108525Y429938D02*
D03*
X95299Y426260D02*
D03*
X594881Y559244D02*
D03*
X565051Y612205D02*
D03*
X600484D02*
D03*
X529618Y505906D02*
D03*
X565051D02*
D03*
X494185Y612205D02*
D03*
X600484Y576772D02*
D03*
Y505906D02*
D03*
Y541339D02*
D03*
X529618Y612205D02*
D03*
X494185Y576772D02*
D03*
X576272Y560237D02*
D03*
X565051Y576772D02*
D03*
X554292Y563714D02*
D03*
X550681Y554331D02*
D03*
X529618Y576772D02*
D03*
X577846Y537402D02*
D03*
X529475Y539844D02*
D03*
X565051Y541339D02*
D03*
X494185D02*
D03*
Y505906D02*
D03*
X589888Y614524D02*
D03*
X554455D02*
D03*
X519022Y508224D02*
D03*
X483589Y614524D02*
D03*
X519022D02*
D03*
X531199Y563342D02*
D03*
X554455Y579091D02*
D03*
X589888D02*
D03*
X556679Y540302D02*
D03*
X556587Y554331D02*
D03*
X519022Y579091D02*
D03*
X589888Y508224D02*
D03*
X554455D02*
D03*
X589888Y543657D02*
D03*
X519022D02*
D03*
X483589D02*
D03*
Y508224D02*
D03*
X531146Y548628D02*
D03*
X485130Y532481D02*
D03*
X551470Y566292D02*
D03*
X560682Y567901D02*
D03*
X549124Y571497D02*
D03*
X591429Y567914D02*
D03*
X546601Y566910D02*
D03*
X591429Y603347D02*
D03*
X543999Y571520D02*
D03*
X555996Y603347D02*
D03*
X541411Y566954D02*
D03*
X520563Y603347D02*
D03*
X538899Y571504D02*
D03*
X536314Y566658D02*
D03*
X485130Y567914D02*
D03*
X549058Y543598D02*
D03*
X591429Y532481D02*
D03*
X546543Y548329D02*
D03*
X555996Y532481D02*
D03*
X544013Y543768D02*
D03*
X591429Y497048D02*
D03*
X541426Y548366D02*
D03*
X555996Y497048D02*
D03*
X538803Y543663D02*
D03*
X520563Y497048D02*
D03*
X536303Y548523D02*
D03*
X485130Y497048D02*
D03*
X533716Y543488D02*
D03*
X520563Y532481D02*
D03*
X533788Y571592D02*
D03*
X520563Y567914D02*
D03*
X453246Y559321D02*
D03*
X423416Y612282D02*
D03*
X458849D02*
D03*
X387983Y505982D02*
D03*
X423416D02*
D03*
X352550Y612282D02*
D03*
X458849Y576849D02*
D03*
Y505982D02*
D03*
Y541415D02*
D03*
X387983Y612282D02*
D03*
X352550Y576849D02*
D03*
X434636Y560313D02*
D03*
X423416Y576849D02*
D03*
X412657Y563790D02*
D03*
X409046Y554408D02*
D03*
X387983Y576849D02*
D03*
X436211Y537478D02*
D03*
X387840Y539921D02*
D03*
X423416Y541415D02*
D03*
X352550D02*
D03*
Y505982D02*
D03*
X448253Y614600D02*
D03*
X412820D02*
D03*
X377387Y508301D02*
D03*
X341954Y614600D02*
D03*
X377387D02*
D03*
X389564Y563418D02*
D03*
X415044Y540379D02*
D03*
X414951Y554408D02*
D03*
X448253Y508301D02*
D03*
X412820D02*
D03*
X434636Y554408D02*
D03*
X448253Y543734D02*
D03*
X377387D02*
D03*
X341954D02*
D03*
Y508301D02*
D03*
X389511Y548704D02*
D03*
X343495Y532557D02*
D03*
X409835Y566368D02*
D03*
X419047Y567978D02*
D03*
X407489Y571573D02*
D03*
X449794Y567990D02*
D03*
X404966Y566986D02*
D03*
X449794Y603423D02*
D03*
X402364Y571596D02*
D03*
X414361Y603423D02*
D03*
X399776Y567030D02*
D03*
X378928Y603423D02*
D03*
X397264Y571580D02*
D03*
X343495Y603423D02*
D03*
X394679Y566734D02*
D03*
X343495Y567990D02*
D03*
X407422Y543674D02*
D03*
X449794Y532557D02*
D03*
X404907Y548406D02*
D03*
X414361Y532557D02*
D03*
X402378Y543844D02*
D03*
X449794Y497124D02*
D03*
X399791Y548442D02*
D03*
X414361Y497124D02*
D03*
X397168Y543739D02*
D03*
X378928Y497124D02*
D03*
X394668Y548599D02*
D03*
X343495Y497124D02*
D03*
X392081Y543564D02*
D03*
X378928Y532557D02*
D03*
X392153Y571668D02*
D03*
X378928Y567990D02*
D03*
X311439Y559314D02*
D03*
X281609Y612274D02*
D03*
X317042D02*
D03*
X246176Y505975D02*
D03*
X281609D02*
D03*
X210743Y612274D02*
D03*
X317042Y576841D02*
D03*
Y505975D02*
D03*
Y541408D02*
D03*
X246176Y612274D02*
D03*
X210743Y576841D02*
D03*
X292829Y560306D02*
D03*
X281609Y576841D02*
D03*
X270850Y563783D02*
D03*
X267239Y554400D02*
D03*
X246176Y576841D02*
D03*
X294404Y537471D02*
D03*
X246033Y539914D02*
D03*
X281609Y541408D02*
D03*
X210743D02*
D03*
Y505975D02*
D03*
X306446Y614593D02*
D03*
X271013D02*
D03*
X235580Y508293D02*
D03*
X200147Y614593D02*
D03*
X235580D02*
D03*
X247757Y563411D02*
D03*
X271013Y579160D02*
D03*
X273237Y540371D02*
D03*
X273144Y554400D02*
D03*
X235580Y579160D02*
D03*
X200147D02*
D03*
X306446Y508293D02*
D03*
X271013D02*
D03*
X292829Y554400D02*
D03*
X306446Y543726D02*
D03*
X235580D02*
D03*
X200147D02*
D03*
Y508293D02*
D03*
X247704Y548697D02*
D03*
X201688Y532550D02*
D03*
X268028Y566361D02*
D03*
X277240Y567970D02*
D03*
X265682Y571566D02*
D03*
X307987Y567983D02*
D03*
X263159Y566979D02*
D03*
X307987Y603416D02*
D03*
X260557Y571589D02*
D03*
X272554Y603416D02*
D03*
X257969Y567023D02*
D03*
X237121Y603416D02*
D03*
X255457Y571573D02*
D03*
X201688Y603416D02*
D03*
X252872Y566727D02*
D03*
X201688Y567983D02*
D03*
X265616Y543667D02*
D03*
X307987Y532550D02*
D03*
X263100Y548398D02*
D03*
X272554Y532550D02*
D03*
X260571Y543837D02*
D03*
X307987Y497117D02*
D03*
X257984Y548435D02*
D03*
X272554Y497117D02*
D03*
X255361Y543732D02*
D03*
X237121Y497117D02*
D03*
X252861Y548592D02*
D03*
X201688Y497117D02*
D03*
X250274Y543557D02*
D03*
X237121Y532550D02*
D03*
X250346Y571661D02*
D03*
X237121Y567983D02*
D03*
X594886Y133983D02*
D03*
X565055Y186944D02*
D03*
X600489D02*
D03*
X529622Y80644D02*
D03*
X565055D02*
D03*
X494189Y186944D02*
D03*
X600489Y151511D02*
D03*
Y80644D02*
D03*
Y116077D02*
D03*
X529622Y186944D02*
D03*
X494189Y151511D02*
D03*
X576276Y134975D02*
D03*
X565055Y151511D02*
D03*
X554296Y138452D02*
D03*
X550685Y129070D02*
D03*
X529622Y151511D02*
D03*
X577851Y112141D02*
D03*
X529480Y114583D02*
D03*
X565055Y116077D02*
D03*
X494189D02*
D03*
Y80644D02*
D03*
X589893Y189262D02*
D03*
X554460D02*
D03*
X519027Y82963D02*
D03*
X483594Y189262D02*
D03*
X519027D02*
D03*
X531203Y138081D02*
D03*
X589893Y153829D02*
D03*
X556684Y115041D02*
D03*
X556591Y129070D02*
D03*
X519027Y153829D02*
D03*
X483594D02*
D03*
X589893Y82963D02*
D03*
X554460D02*
D03*
X576276Y129070D02*
D03*
X589893Y118396D02*
D03*
X519027D02*
D03*
X483594D02*
D03*
Y82963D02*
D03*
X531150Y123366D02*
D03*
X485134Y107219D02*
D03*
X551475Y141030D02*
D03*
X560686Y142640D02*
D03*
X549129Y146236D02*
D03*
X591433Y142652D02*
D03*
X546606Y141648D02*
D03*
X591433Y178085D02*
D03*
X544004Y146258D02*
D03*
X556000Y178085D02*
D03*
X541415Y141692D02*
D03*
X520567Y178085D02*
D03*
X538903Y146242D02*
D03*
X485134Y178085D02*
D03*
X536319Y141396D02*
D03*
X485134Y142652D02*
D03*
X549062Y118337D02*
D03*
X591433Y107219D02*
D03*
X546547Y123068D02*
D03*
X556000Y107219D02*
D03*
X544018Y118506D02*
D03*
X591433Y71786D02*
D03*
X541430Y123104D02*
D03*
X556000Y71786D02*
D03*
X538808Y118401D02*
D03*
X520567Y71786D02*
D03*
X536308Y123262D02*
D03*
X485134Y71786D02*
D03*
X533720Y118227D02*
D03*
X520567Y107219D02*
D03*
X533793Y146330D02*
D03*
X520567Y142652D02*
D03*
X453101Y134043D02*
D03*
X423271Y187004D02*
D03*
X458704D02*
D03*
X387838Y80705D02*
D03*
X423271D02*
D03*
X352404Y187004D02*
D03*
X458704Y151571D02*
D03*
Y80705D02*
D03*
Y116138D02*
D03*
X387838Y187004D02*
D03*
X352404Y151571D02*
D03*
X434491Y135035D02*
D03*
X423271Y151571D02*
D03*
X412512Y138512D02*
D03*
X408900Y129130D02*
D03*
X387838Y151571D02*
D03*
X436066Y112201D02*
D03*
X387695Y114643D02*
D03*
X423271Y116138D02*
D03*
X352404D02*
D03*
Y80705D02*
D03*
X448108Y189322D02*
D03*
X412675D02*
D03*
X377242Y83023D02*
D03*
X341809Y189322D02*
D03*
X377242D02*
D03*
X389418Y138141D02*
D03*
X412675Y153889D02*
D03*
X448108D02*
D03*
X414899Y115101D02*
D03*
X414806Y129130D02*
D03*
X377242Y153889D02*
D03*
X341809D02*
D03*
X448108Y83023D02*
D03*
X412675D02*
D03*
X434491Y129130D02*
D03*
X448108Y118456D02*
D03*
X377242D02*
D03*
X341809D02*
D03*
Y83023D02*
D03*
X389365Y123427D02*
D03*
X343349Y107279D02*
D03*
X409690Y141091D02*
D03*
X418901Y142700D02*
D03*
X407344Y146296D02*
D03*
X449649Y142712D02*
D03*
X404821Y141708D02*
D03*
X449649Y178146D02*
D03*
X402219Y146318D02*
D03*
X414215Y178146D02*
D03*
X399630Y141752D02*
D03*
X378782Y178146D02*
D03*
X397118Y146302D02*
D03*
X343349Y178146D02*
D03*
X394534Y141457D02*
D03*
X343349Y142712D02*
D03*
X407277Y118397D02*
D03*
X449649Y107279D02*
D03*
X404762Y123128D02*
D03*
X414215Y107279D02*
D03*
X402233Y118566D02*
D03*
X449649Y71846D02*
D03*
X399645Y123164D02*
D03*
X414215Y71846D02*
D03*
X397023Y118461D02*
D03*
X378782Y71846D02*
D03*
X394523Y123322D02*
D03*
X343349Y71846D02*
D03*
X391935Y118287D02*
D03*
X378782Y107279D02*
D03*
X392008Y146391D02*
D03*
X378782Y142712D02*
D03*
X311372Y134011D02*
D03*
X281542Y186971D02*
D03*
X316975D02*
D03*
X246109Y80672D02*
D03*
X281542D02*
D03*
X210676Y186971D02*
D03*
X316975Y151538D02*
D03*
Y80672D02*
D03*
Y116105D02*
D03*
X246109Y186971D02*
D03*
X210676Y151538D02*
D03*
X292763Y135003D02*
D03*
X281542Y151538D02*
D03*
X270783Y138480D02*
D03*
X267172Y129097D02*
D03*
X246109Y151538D02*
D03*
X294337Y112168D02*
D03*
X245967Y114611D02*
D03*
X281542Y116105D02*
D03*
X210676D02*
D03*
Y80672D02*
D03*
X306380Y189290D02*
D03*
X270946D02*
D03*
X235513Y82991D02*
D03*
X200080Y189290D02*
D03*
X235513D02*
D03*
X247690Y138108D02*
D03*
X270946Y153857D02*
D03*
X306380D02*
D03*
X273170Y115069D02*
D03*
X273078Y129097D02*
D03*
X235513Y153857D02*
D03*
X200080D02*
D03*
X306380Y82991D02*
D03*
X270946D02*
D03*
X292763Y129097D02*
D03*
X306380Y118424D02*
D03*
X235513D02*
D03*
X200080D02*
D03*
Y82991D02*
D03*
X247637Y123394D02*
D03*
X201621Y107247D02*
D03*
X267961Y141058D02*
D03*
X277173Y142667D02*
D03*
X265615Y146263D02*
D03*
X307920Y142680D02*
D03*
X263092Y141676D02*
D03*
X307920Y178113D02*
D03*
X260490Y146286D02*
D03*
X272487Y178113D02*
D03*
X257902Y141720D02*
D03*
X237054Y178113D02*
D03*
X255390Y146270D02*
D03*
X201621Y178113D02*
D03*
X252805Y141424D02*
D03*
X201621Y142680D02*
D03*
X265549Y118364D02*
D03*
X307920Y107247D02*
D03*
X263034Y123095D02*
D03*
X272487Y107247D02*
D03*
X260504Y118534D02*
D03*
X307920Y71814D02*
D03*
X257917Y123132D02*
D03*
X272487Y71814D02*
D03*
X255294Y118429D02*
D03*
X237054Y71814D02*
D03*
X252794Y123289D02*
D03*
X201621Y71814D02*
D03*
X250207Y118254D02*
D03*
X237054Y107247D02*
D03*
X250279Y146358D02*
D03*
X237054Y142680D02*
D03*
X169614Y134130D02*
D03*
X139783Y187091D02*
D03*
X175216D02*
D03*
X104350Y80792D02*
D03*
X139783D02*
D03*
X68917Y187091D02*
D03*
X175216Y80792D02*
D03*
Y116225D02*
D03*
X104350Y187091D02*
D03*
X68917Y151658D02*
D03*
X151004Y135122D02*
D03*
X139783Y151658D02*
D03*
X129024Y138599D02*
D03*
X125413Y129217D02*
D03*
X104350Y151658D02*
D03*
X152579Y112288D02*
D03*
X104208Y114730D02*
D03*
X139783Y116225D02*
D03*
X68917D02*
D03*
Y80792D02*
D03*
X164621Y189409D02*
D03*
X129188D02*
D03*
X93755Y83110D02*
D03*
X58321Y189409D02*
D03*
X93755D02*
D03*
X105931Y138228D02*
D03*
X129188Y153976D02*
D03*
X164621D02*
D03*
X131412Y115188D02*
D03*
X131319Y129217D02*
D03*
X93755Y153976D02*
D03*
X58321D02*
D03*
X164621Y83110D02*
D03*
X129188D02*
D03*
X151004Y129217D02*
D03*
X164621Y118543D02*
D03*
X93755D02*
D03*
X58321D02*
D03*
Y83110D02*
D03*
X105878Y123514D02*
D03*
X59862Y107366D02*
D03*
X126203Y141177D02*
D03*
X135414Y142787D02*
D03*
X123857Y146383D02*
D03*
X166161Y142799D02*
D03*
X121334Y141795D02*
D03*
X166161Y178233D02*
D03*
X118732Y146405D02*
D03*
X130728Y178233D02*
D03*
X116143Y141839D02*
D03*
X95295Y178233D02*
D03*
X113631Y146390D02*
D03*
X59862Y178233D02*
D03*
X111047Y141544D02*
D03*
X59862Y142799D02*
D03*
X123790Y118484D02*
D03*
X166161Y107366D02*
D03*
X121275Y123215D02*
D03*
X130728Y107366D02*
D03*
X118746Y118653D02*
D03*
X166161Y71933D02*
D03*
X116158Y123251D02*
D03*
X130728Y71933D02*
D03*
X113536Y118549D02*
D03*
X95295Y71933D02*
D03*
X111036Y123409D02*
D03*
X59862Y71933D02*
D03*
X108448Y118374D02*
D03*
X95295Y107366D02*
D03*
X108521Y146478D02*
D03*
X95295Y142799D02*
D03*
X594736Y275782D02*
D03*
X564906Y328742D02*
D03*
X600339D02*
D03*
X529472Y222443D02*
D03*
X564906D02*
D03*
X494039Y328742D02*
D03*
X600339Y293309D02*
D03*
Y222443D02*
D03*
Y257876D02*
D03*
X529472Y328742D02*
D03*
X494039Y293309D02*
D03*
X576126Y276774D02*
D03*
X564906Y293309D02*
D03*
X554147Y280251D02*
D03*
X550535Y270868D02*
D03*
X529472Y293309D02*
D03*
X577701Y253939D02*
D03*
X529330Y256382D02*
D03*
X564906Y257876D02*
D03*
X494039D02*
D03*
Y222443D02*
D03*
X589743Y331061D02*
D03*
X554310D02*
D03*
X518877Y224762D02*
D03*
X483444Y331061D02*
D03*
X518877D02*
D03*
X531053Y279879D02*
D03*
X554310Y295628D02*
D03*
X589743D02*
D03*
X556534Y256839D02*
D03*
X556441Y270868D02*
D03*
X518877Y295628D02*
D03*
X483444D02*
D03*
X589743Y224762D02*
D03*
X554310D02*
D03*
X589743Y260195D02*
D03*
X518877D02*
D03*
X483444D02*
D03*
Y224762D02*
D03*
X531000Y265165D02*
D03*
X484984Y249018D02*
D03*
X551325Y282829D02*
D03*
X560536Y284438D02*
D03*
X548979Y288034D02*
D03*
X591284Y284451D02*
D03*
X546456Y283447D02*
D03*
X543854Y288057D02*
D03*
X541266Y283491D02*
D03*
X520417Y319884D02*
D03*
X538753Y288041D02*
D03*
X484984Y319884D02*
D03*
X536169Y283195D02*
D03*
X484984Y284451D02*
D03*
X548912Y260135D02*
D03*
X591284Y249018D02*
D03*
X546397Y264866D02*
D03*
X555851Y249018D02*
D03*
X543868Y260305D02*
D03*
X591284Y213585D02*
D03*
X541280Y264903D02*
D03*
X555851Y213585D02*
D03*
X538658Y260200D02*
D03*
X520417Y213585D02*
D03*
X484984D02*
D03*
X533570Y260025D02*
D03*
X520417Y249018D02*
D03*
X533643Y288129D02*
D03*
X520417Y284451D02*
D03*
X453079Y275806D02*
D03*
X423249Y328766D02*
D03*
X458682D02*
D03*
X387816Y222467D02*
D03*
X423249D02*
D03*
X352383Y328766D02*
D03*
X458682Y293333D02*
D03*
Y222467D02*
D03*
Y257900D02*
D03*
X387816Y328766D02*
D03*
X352383Y293333D02*
D03*
X434470Y276798D02*
D03*
X423249Y293333D02*
D03*
X412490Y280275D02*
D03*
X408879Y270892D02*
D03*
X387816Y293333D02*
D03*
X436044Y253963D02*
D03*
X387673Y256405D02*
D03*
X423249Y257900D02*
D03*
X352383D02*
D03*
Y222467D02*
D03*
X448087Y331085D02*
D03*
X412653D02*
D03*
X377220Y224785D02*
D03*
X341787Y331085D02*
D03*
X377220D02*
D03*
X389397Y279903D02*
D03*
X412653Y295652D02*
D03*
X448087D02*
D03*
X414877Y256863D02*
D03*
X414784Y270892D02*
D03*
X377220Y295652D02*
D03*
X341787D02*
D03*
X448087Y224785D02*
D03*
X412653D02*
D03*
X434470Y270892D02*
D03*
X448087Y260219D02*
D03*
X377220D02*
D03*
X341787D02*
D03*
Y224785D02*
D03*
X389344Y265189D02*
D03*
X343328Y249042D02*
D03*
X409668Y282853D02*
D03*
X418880Y284462D02*
D03*
X407322Y288058D02*
D03*
X449627Y284475D02*
D03*
X404799Y283471D02*
D03*
X402197Y288081D02*
D03*
X414194Y319908D02*
D03*
X399609Y283515D02*
D03*
X378761Y319908D02*
D03*
X397097Y288065D02*
D03*
X343328Y319908D02*
D03*
X394512Y283219D02*
D03*
X343328Y284475D02*
D03*
X407256Y260159D02*
D03*
X449627Y249042D02*
D03*
X404740Y264890D02*
D03*
X414194Y249042D02*
D03*
X402211Y260329D02*
D03*
X449627Y213609D02*
D03*
X399624Y264927D02*
D03*
X414194Y213609D02*
D03*
X397001Y260224D02*
D03*
X378761Y213609D02*
D03*
X394501Y265084D02*
D03*
X343328Y213609D02*
D03*
X391914Y260049D02*
D03*
X378761Y249042D02*
D03*
X391986Y288153D02*
D03*
X378761Y284475D02*
D03*
X311224Y275689D02*
D03*
X281394Y328650D02*
D03*
X316827D02*
D03*
X245961Y222351D02*
D03*
X281394D02*
D03*
X210528Y328650D02*
D03*
X316827Y293217D02*
D03*
Y222351D02*
D03*
Y257784D02*
D03*
X245961Y328650D02*
D03*
X210528Y293217D02*
D03*
X292614Y276681D02*
D03*
X281394Y293217D02*
D03*
X270635Y280158D02*
D03*
X267024Y270776D02*
D03*
X245961Y293217D02*
D03*
X294189Y253847D02*
D03*
X245818Y256289D02*
D03*
X281394Y257784D02*
D03*
X210528D02*
D03*
Y222351D02*
D03*
X306231Y330968D02*
D03*
X270798D02*
D03*
X235365Y224669D02*
D03*
X199932Y330968D02*
D03*
X235365D02*
D03*
X247542Y279787D02*
D03*
X270798Y295535D02*
D03*
X306231D02*
D03*
X273022Y256747D02*
D03*
X272929Y270776D02*
D03*
X235365Y295535D02*
D03*
X199932D02*
D03*
X306231Y224669D02*
D03*
X270798D02*
D03*
X292614Y270776D02*
D03*
X306231Y260102D02*
D03*
X235365D02*
D03*
X199932D02*
D03*
Y224669D02*
D03*
X247488Y265073D02*
D03*
X201472Y248925D02*
D03*
X267813Y282736D02*
D03*
X277025Y284346D02*
D03*
X265467Y287942D02*
D03*
X307772Y284358D02*
D03*
X262944Y283354D02*
D03*
X307772Y319792D02*
D03*
X260342Y287964D02*
D03*
X272339Y319792D02*
D03*
X257754Y283398D02*
D03*
X236906Y319792D02*
D03*
X255241Y287948D02*
D03*
X201472Y319792D02*
D03*
X252657Y283103D02*
D03*
X201472Y284358D02*
D03*
X265400Y260043D02*
D03*
X307772Y248925D02*
D03*
X262885Y264774D02*
D03*
X272339Y248925D02*
D03*
X260356Y260212D02*
D03*
X307772Y213492D02*
D03*
X257768Y264810D02*
D03*
X272339Y213492D02*
D03*
X255146Y260107D02*
D03*
X236906Y213492D02*
D03*
X252646Y264968D02*
D03*
X201472Y213492D02*
D03*
X250059Y259933D02*
D03*
X236906Y248925D02*
D03*
X250131Y288037D02*
D03*
X236906Y284358D02*
D03*
X123770Y543598D02*
D03*
X139764Y541339D02*
D03*
X131392Y540302D02*
D03*
X130709Y497047D02*
D03*
X121255Y548329D02*
D03*
X118726Y543767D02*
D03*
X116139Y548365D02*
D03*
X113516Y543662D02*
D03*
X111016Y548523D02*
D03*
X108429Y543488D02*
D03*
X105859Y548628D02*
D03*
X104188Y539844D02*
D03*
X135395Y567901D02*
D03*
X169594Y559244D02*
D03*
X175197Y505905D02*
D03*
X164601Y508224D02*
D03*
X166142Y497047D02*
D03*
X139764Y505905D02*
D03*
X129168Y508224D02*
D03*
X104331Y505905D02*
D03*
X93735Y508224D02*
D03*
X95276Y497047D02*
D03*
X68898Y505905D02*
D03*
X58302Y508224D02*
D03*
X59842Y497047D02*
D03*
X93735Y543657D02*
D03*
X166142Y532480D02*
D03*
X164601Y543657D02*
D03*
X175197Y541339D02*
D03*
X130709Y532480D02*
D03*
X95276D02*
D03*
X59842D02*
D03*
X58302Y543657D02*
D03*
X68898Y541339D02*
D03*
X59842Y567913D02*
D03*
X58302Y579090D02*
D03*
X68898Y576772D02*
D03*
X95276Y567913D02*
D03*
X93735Y579090D02*
D03*
X104331Y576772D02*
D03*
X129168Y579090D02*
D03*
X139764Y576772D02*
D03*
X166142Y567913D02*
D03*
X164601Y579090D02*
D03*
X175197Y576772D02*
D03*
X166142Y603346D02*
D03*
X164601Y614523D02*
D03*
X175197Y612205D02*
D03*
X130709Y603346D02*
D03*
X129168Y614523D02*
D03*
X139764Y612205D02*
D03*
X95276Y603346D02*
D03*
X93735Y614523D02*
D03*
X104331Y612205D02*
D03*
X68898D02*
D03*
X58302Y614523D02*
D03*
X59842Y603346D02*
D03*
X676304Y511294D02*
D03*
X640634Y453082D02*
D03*
X660457Y454404D02*
D03*
X673252Y453420D02*
D03*
X681126D02*
D03*
X687032Y530192D02*
D03*
X681126Y534129D02*
D03*
X635851Y491806D02*
D03*
X638804Y502633D02*
D03*
X647662Y495743D02*
D03*
X642741Y462278D02*
D03*
X658489Y465231D02*
D03*
X643725Y470152D02*
D03*
X642741Y478026D02*
D03*
X658489Y481963D02*
D03*
X656520Y530192D02*
D03*
X642741D02*
D03*
X659473Y521334D02*
D03*
X634842Y210630D02*
D03*
X635827Y198819D02*
D03*
X642717Y171260D02*
D03*
X641732Y179134D02*
D03*
Y187008D02*
D03*
X658465Y190945D02*
D03*
X642717Y239173D02*
D03*
Y223425D02*
D03*
X628937Y204724D02*
D03*
X642717D02*
D03*
X673228Y170276D02*
D03*
X681102Y169291D02*
D03*
X690290Y209494D02*
D03*
X680610Y219488D02*
D03*
X679528Y207677D02*
D03*
X679626Y211417D02*
D03*
X679429Y204035D02*
D03*
X691034Y500818D02*
D03*
X679748Y498696D02*
D03*
X676008D02*
D03*
Y494955D02*
D03*
Y502436D02*
D03*
X683489D02*
D03*
X637789Y599305D02*
D03*
X637795Y618307D02*
D03*
X666208Y457118D02*
D03*
X695792Y510900D02*
D03*
X679847Y502436D02*
D03*
X680831Y510507D02*
D03*
X683489Y494955D02*
D03*
X669336Y479002D02*
D03*
X665104Y470033D02*
D03*
X678871Y486632D02*
D03*
X678764Y474089D02*
D03*
X665224Y534368D02*
D03*
X664985Y514444D02*
D03*
X668725Y511491D02*
D03*
X678764Y523302D02*
D03*
X669041Y526374D02*
D03*
X673056Y521826D02*
D03*
X630473Y476018D02*
D03*
X630536Y470152D02*
D03*
X633095Y508440D02*
D03*
X630536Y517396D02*
D03*
X630578Y464209D02*
D03*
X630536Y523302D02*
D03*
X630559Y528705D02*
D03*
X655888Y501410D02*
D03*
X654039Y491925D02*
D03*
X686638Y474089D02*
D03*
X685203Y510271D02*
D03*
X686638Y523302D02*
D03*
X686646Y489846D02*
D03*
X686425Y198828D02*
D03*
X669664Y195980D02*
D03*
X678650Y195614D02*
D03*
X675787Y203937D02*
D03*
X683268D02*
D03*
X683071Y207677D02*
D03*
X682329Y195771D02*
D03*
X684982Y219252D02*
D03*
X683268Y211417D02*
D03*
X675787Y207677D02*
D03*
X630315Y232283D02*
D03*
Y226378D02*
D03*
Y179134D02*
D03*
X630357Y173190D02*
D03*
X665987Y166100D02*
D03*
X664883Y179015D02*
D03*
X669114Y187984D02*
D03*
X630338Y237686D02*
D03*
X630252Y184999D02*
D03*
X653818Y200907D02*
D03*
X664764Y223425D02*
D03*
X655667Y210391D02*
D03*
X668820Y235356D02*
D03*
X665003Y243349D02*
D03*
X678543Y183071D02*
D03*
X686417D02*
D03*
X678543Y232283D02*
D03*
X686417D02*
D03*
X126183Y566291D02*
D03*
X113611Y571503D02*
D03*
X123837Y571497D02*
D03*
X121314Y566909D02*
D03*
X118712Y571519D02*
D03*
X116124Y566953D02*
D03*
X111027Y566658D02*
D03*
X108501Y571592D02*
D03*
X129005Y563713D02*
D03*
X105912Y563342D02*
D03*
X152559Y537402D02*
D03*
X150984Y560236D02*
D03*
Y554331D02*
D03*
X125394D02*
D03*
X131299D02*
D03*
D63*
X631989Y313155D02*
D03*
X632048Y346578D02*
D03*
X632146Y357652D02*
D03*
X631883Y326539D02*
D03*
X632055Y318758D02*
D03*
X689864Y318846D02*
D03*
X695229Y338924D02*
D03*
X689864Y323767D02*
D03*
X689963Y328787D02*
D03*
X632113Y352148D02*
D03*
X614214Y477467D02*
D03*
X614173Y468504D02*
D03*
X613797Y458217D02*
D03*
X659696Y253585D02*
D03*
X648869D02*
D03*
X639027D02*
D03*
X671260Y253937D02*
D03*
X693898Y250984D02*
D03*
X695571Y187106D02*
D03*
X695693Y498892D02*
D03*
X695276Y211221D02*
D03*
X695571Y218898D02*
D03*
X695374Y225886D02*
D03*
X695472Y238976D02*
D03*
X687623Y447416D02*
D03*
X654134Y607382D02*
D03*
X647244Y607283D02*
D03*
X674016Y606890D02*
D03*
X621063Y559547D02*
D03*
X620965Y566142D02*
D03*
X654626Y558957D02*
D03*
X654823Y565650D02*
D03*
X688189Y558464D02*
D03*
Y565354D02*
D03*
X688092Y584548D02*
D03*
X654628D02*
D03*
X621163D02*
D03*
X668528Y545054D02*
D03*
X671678Y447121D02*
D03*
X679256Y446826D02*
D03*
X650811Y447121D02*
D03*
X662130Y446924D02*
D03*
X640083Y447318D02*
D03*
X618823Y447613D02*
D03*
X614001Y504109D02*
D03*
Y521629D02*
D03*
X614197Y512377D02*
D03*
X614001Y530585D02*
D03*
X614985Y539739D02*
D03*
X624532Y544070D02*
D03*
X647071Y544660D02*
D03*
X658489Y544463D02*
D03*
X636835Y544857D02*
D03*
X687229Y544463D02*
D03*
X695890Y522908D02*
D03*
X695595Y537967D02*
D03*
X695693Y529995D02*
D03*
X693233Y543282D02*
D03*
X695398Y468184D02*
D03*
X695693Y479798D02*
D03*
X695398Y459916D02*
D03*
X694906Y452534D02*
D03*
X695693Y487771D02*
D03*
X624311Y253051D02*
D03*
X614764Y248721D02*
D03*
X613779Y239567D02*
D03*
Y230610D02*
D03*
X613976Y221358D02*
D03*
X613779Y213090D02*
D03*
X613878Y194587D02*
D03*
X614075Y187598D02*
D03*
X613976Y179429D02*
D03*
X613779Y169783D02*
D03*
X618602Y156595D02*
D03*
X639862Y156299D02*
D03*
X650591Y156102D02*
D03*
X661909Y155905D02*
D03*
X671457Y156102D02*
D03*
X679035Y155807D02*
D03*
X688976D02*
D03*
X694685Y161516D02*
D03*
X695177Y168898D02*
D03*
Y177165D02*
D03*
X695472Y196752D02*
D03*
X695669Y231890D02*
D03*
M02*
