G04*
G04 #@! TF.GenerationSoftware,Altium Limited,Altium Designer,25.0.2 (28)*
G04*
G04 Layer_Color=16711935*
%FSLAX25Y25*%
%MOIN*%
G70*
G04*
G04 #@! TF.SameCoordinates,7C83500D-BFB9-469C-A41D-0C693C3E1856*
G04*
G04*
G04 #@! TF.FilePolarity,Negative*
G04*
G01*
G75*
%ADD40R,0.12414X0.14580*%
G04:AMPARAMS|DCode=44|XSize=39.5mil|YSize=47.37mil|CornerRadius=7.94mil|HoleSize=0mil|Usage=FLASHONLY|Rotation=90.000|XOffset=0mil|YOffset=0mil|HoleType=Round|Shape=RoundedRectangle|*
%AMROUNDEDRECTD44*
21,1,0.03950,0.03150,0,0,90.0*
21,1,0.02362,0.04737,0,0,90.0*
1,1,0.01587,0.01575,0.01181*
1,1,0.01587,0.01575,-0.01181*
1,1,0.01587,-0.01575,-0.01181*
1,1,0.01587,-0.01575,0.01181*
%
%ADD44ROUNDEDRECTD44*%
G04:AMPARAMS|DCode=48|XSize=39.5mil|YSize=47.37mil|CornerRadius=7.94mil|HoleSize=0mil|Usage=FLASHONLY|Rotation=0.000|XOffset=0mil|YOffset=0mil|HoleType=Round|Shape=RoundedRectangle|*
%AMROUNDEDRECTD48*
21,1,0.03950,0.03150,0,0,0.0*
21,1,0.02362,0.04737,0,0,0.0*
1,1,0.01587,0.01181,-0.01575*
1,1,0.01587,-0.01181,-0.01575*
1,1,0.01587,-0.01181,0.01575*
1,1,0.01587,0.01181,0.01575*
%
%ADD48ROUNDEDRECTD48*%
G04:AMPARAMS|DCode=50|XSize=63.12mil|YSize=74.93mil|CornerRadius=10.89mil|HoleSize=0mil|Usage=FLASHONLY|Rotation=270.000|XOffset=0mil|YOffset=0mil|HoleType=Round|Shape=RoundedRectangle|*
%AMROUNDEDRECTD50*
21,1,0.06312,0.05315,0,0,270.0*
21,1,0.04134,0.07493,0,0,270.0*
1,1,0.02178,-0.02657,-0.02067*
1,1,0.02178,-0.02657,0.02067*
1,1,0.02178,0.02657,0.02067*
1,1,0.02178,0.02657,-0.02067*
%
%ADD50ROUNDEDRECTD50*%
G04:AMPARAMS|DCode=55|XSize=39.5mil|YSize=47.37mil|CornerRadius=7.94mil|HoleSize=0mil|Usage=FLASHONLY|Rotation=135.000|XOffset=0mil|YOffset=0mil|HoleType=Round|Shape=RoundedRectangle|*
%AMROUNDEDRECTD55*
21,1,0.03950,0.03150,0,0,135.0*
21,1,0.02362,0.04737,0,0,135.0*
1,1,0.01587,0.00278,0.01949*
1,1,0.01587,0.01949,0.00278*
1,1,0.01587,-0.00278,-0.01949*
1,1,0.01587,-0.01949,-0.00278*
%
%ADD55ROUNDEDRECTD55*%
%ADD56C,0.04816*%
%ADD57C,0.06706*%
%ADD58R,0.06784X0.06784*%
%ADD59C,0.06784*%
%ADD60C,0.12611*%
%ADD61C,0.25997*%
%ADD62C,0.02572*%
%ADD63C,0.02769*%
G04:AMPARAMS|DCode=88|XSize=80.87mil|YSize=19.68mil|CornerRadius=9.84mil|HoleSize=0mil|Usage=FLASHONLY|Rotation=0.000|XOffset=0mil|YOffset=0mil|HoleType=Round|Shape=RoundedRectangle|*
%AMROUNDEDRECTD88*
21,1,0.08087,0.00000,0,0,0.0*
21,1,0.06119,0.01968,0,0,0.0*
1,1,0.01968,0.03059,0.00000*
1,1,0.01968,-0.03059,0.00000*
1,1,0.01968,-0.03059,0.00000*
1,1,0.01968,0.03059,0.00000*
%
%ADD88ROUNDEDRECTD88*%
%ADD89R,0.08087X0.01968*%
%ADD93R,0.04343X0.01981*%
%ADD94R,0.01981X0.04343*%
%ADD95R,0.09265X0.09265*%
G04:AMPARAMS|DCode=96|XSize=58mil|YSize=90.68mil|CornerRadius=10.25mil|HoleSize=0mil|Usage=FLASHONLY|Rotation=180.000|XOffset=0mil|YOffset=0mil|HoleType=Round|Shape=RoundedRectangle|*
%AMROUNDEDRECTD96*
21,1,0.05800,0.07018,0,0,180.0*
21,1,0.03750,0.09068,0,0,180.0*
1,1,0.02050,-0.01875,0.03509*
1,1,0.02050,0.01875,0.03509*
1,1,0.02050,0.01875,-0.03509*
1,1,0.02050,-0.01875,-0.03509*
%
%ADD96ROUNDEDRECTD96*%
%ADD97O,0.02178X0.08083*%
G04:AMPARAMS|DCode=98|XSize=63.12mil|YSize=74.93mil|CornerRadius=10.89mil|HoleSize=0mil|Usage=FLASHONLY|Rotation=180.000|XOffset=0mil|YOffset=0mil|HoleType=Round|Shape=RoundedRectangle|*
%AMROUNDEDRECTD98*
21,1,0.06312,0.05315,0,0,180.0*
21,1,0.04134,0.07493,0,0,180.0*
1,1,0.02178,-0.02067,0.02657*
1,1,0.02178,0.02067,0.02657*
1,1,0.02178,0.02067,-0.02657*
1,1,0.02178,-0.02067,-0.02657*
%
%ADD98ROUNDEDRECTD98*%
D40*
X614751Y122918D02*
D03*
X636208Y122918D02*
D03*
D44*
X695081Y334692D02*
D03*
Y328787D02*
D03*
X695179Y343550D02*
D03*
Y349456D02*
D03*
X657151Y98099D02*
D03*
Y92193D02*
D03*
X649277Y98099D02*
D03*
Y92193D02*
D03*
X649168Y105177D02*
D03*
Y111083D02*
D03*
X656975Y117996D02*
D03*
Y123902D02*
D03*
X657103Y111083D02*
D03*
X657103Y105177D02*
D03*
X594977Y128085D02*
D03*
Y133991D02*
D03*
X453192Y128146D02*
D03*
Y134051D02*
D03*
X311463Y128113D02*
D03*
Y134019D02*
D03*
X169705Y128233D02*
D03*
Y134138D02*
D03*
X594827Y269884D02*
D03*
Y275789D02*
D03*
X453170Y269908D02*
D03*
Y275813D02*
D03*
X311315Y269792D02*
D03*
Y275697D02*
D03*
X169579Y269961D02*
D03*
Y275867D02*
D03*
X594849Y411618D02*
D03*
Y417524D02*
D03*
X453067Y411600D02*
D03*
Y417505D02*
D03*
X311352Y411477D02*
D03*
Y417382D02*
D03*
X169709Y411693D02*
D03*
Y417599D02*
D03*
X594972Y553347D02*
D03*
Y559252D02*
D03*
X453337Y553423D02*
D03*
Y559329D02*
D03*
X311530Y553416D02*
D03*
Y559321D02*
D03*
X682701Y492889D02*
D03*
Y486983D02*
D03*
X685752Y504503D02*
D03*
Y510408D02*
D03*
X680930Y504306D02*
D03*
Y510211D02*
D03*
X630536Y523302D02*
D03*
Y517396D02*
D03*
Y470152D02*
D03*
Y464247D02*
D03*
X688803Y492889D02*
D03*
Y486983D02*
D03*
X688582Y201870D02*
D03*
Y195965D02*
D03*
X682480Y201870D02*
D03*
Y195965D02*
D03*
X680709Y213287D02*
D03*
Y219193D02*
D03*
X685532Y213484D02*
D03*
Y219390D02*
D03*
X630315Y179134D02*
D03*
Y173228D02*
D03*
Y232283D02*
D03*
Y226378D02*
D03*
X169685Y553346D02*
D03*
Y559252D02*
D03*
D48*
X681359Y346913D02*
D03*
X687265D02*
D03*
X687274Y339709D02*
D03*
X681368D02*
D03*
X637459Y309270D02*
D03*
X643365D02*
D03*
X626378Y333645D02*
D03*
X620473D02*
D03*
X626477Y341127D02*
D03*
X620572D02*
D03*
X626521Y301943D02*
D03*
X620616Y301943D02*
D03*
X637503Y340501D02*
D03*
X643408Y340501D02*
D03*
X637558Y301890D02*
D03*
X643463D02*
D03*
X626522Y309327D02*
D03*
X620616D02*
D03*
X637404Y333117D02*
D03*
X643309D02*
D03*
X614681Y99625D02*
D03*
X620586Y99625D02*
D03*
X565055Y120015D02*
D03*
X570961D02*
D03*
X577851Y112141D02*
D03*
X583756D02*
D03*
X577851Y120015D02*
D03*
X583756D02*
D03*
X436066Y120075D02*
D03*
X441971D02*
D03*
X436066Y112201D02*
D03*
X441971D02*
D03*
X423271Y120075D02*
D03*
X429176D02*
D03*
X294337Y112168D02*
D03*
X300243D02*
D03*
X281542Y120042D02*
D03*
X287448D02*
D03*
X294337D02*
D03*
X300243D02*
D03*
X139783Y120162D02*
D03*
X145689D02*
D03*
X152579Y112288D02*
D03*
X158484D02*
D03*
X152579Y120162D02*
D03*
X158484D02*
D03*
X577701Y261813D02*
D03*
X583606D02*
D03*
X564906D02*
D03*
X570811D02*
D03*
X577701Y253939D02*
D03*
X583606D02*
D03*
X423249Y261837D02*
D03*
X429154D02*
D03*
X436044D02*
D03*
X441950D02*
D03*
X436044Y253963D02*
D03*
X441950D02*
D03*
X281394Y261721D02*
D03*
X287299D02*
D03*
X294189Y253847D02*
D03*
X300095D02*
D03*
X294189Y261721D02*
D03*
X300095D02*
D03*
X139658Y261890D02*
D03*
X145563D02*
D03*
X152453D02*
D03*
X158359D02*
D03*
X152453Y254016D02*
D03*
X158359D02*
D03*
X564928Y403547D02*
D03*
X570833D02*
D03*
X577723Y395673D02*
D03*
X583629D02*
D03*
X577723Y403547D02*
D03*
X583629D02*
D03*
X435941Y395655D02*
D03*
X441847D02*
D03*
X435941Y403529D02*
D03*
X441847D02*
D03*
X423146D02*
D03*
X429051D02*
D03*
X281431Y403406D02*
D03*
X287336D02*
D03*
X294226D02*
D03*
X300132D02*
D03*
X294226Y395532D02*
D03*
X300132D02*
D03*
X152583Y395748D02*
D03*
X158488D02*
D03*
X152583Y403622D02*
D03*
X158488D02*
D03*
X139787D02*
D03*
X145693D02*
D03*
X577846Y545276D02*
D03*
X583752D02*
D03*
X577846Y537402D02*
D03*
X583752D02*
D03*
X565051Y545276D02*
D03*
X570957D02*
D03*
X423416Y545352D02*
D03*
X429321D02*
D03*
X436211Y537478D02*
D03*
X442117D02*
D03*
X436211Y545352D02*
D03*
X442117D02*
D03*
X281609Y545345D02*
D03*
X287514D02*
D03*
X294404Y537471D02*
D03*
X300310D02*
D03*
X294404Y545345D02*
D03*
X300310D02*
D03*
X670005Y486983D02*
D03*
X675910D02*
D03*
X668922Y511392D02*
D03*
X674827D02*
D03*
X669783Y195965D02*
D03*
X675689D02*
D03*
X668701Y220374D02*
D03*
X674606D02*
D03*
X139764Y545276D02*
D03*
X145669D02*
D03*
X152559D02*
D03*
X158465D02*
D03*
X152559Y537402D02*
D03*
X158465D02*
D03*
D50*
X648117Y119402D02*
D03*
Y128402D02*
D03*
X669505Y143502D02*
D03*
Y134502D02*
D03*
X679348Y143502D02*
D03*
Y134502D02*
D03*
D55*
X672838Y521059D02*
D03*
X677014Y516883D02*
D03*
X672617Y230041D02*
D03*
X676793Y225865D02*
D03*
D56*
X653112Y372157D02*
D03*
Y299401D02*
D03*
D57*
X680614Y544477D02*
D03*
X629433Y447233D02*
D03*
X680315Y253445D02*
D03*
X629134Y156201D02*
D03*
D58*
X675906Y112205D02*
D03*
D59*
X664094D02*
D03*
D60*
X692913D02*
D03*
D61*
X40354Y81693D02*
D03*
X620079Y609252D02*
D03*
X40354D02*
D03*
X696850Y81693D02*
D03*
X620079D02*
D03*
X696850Y609252D02*
D03*
D62*
X624016Y105315D02*
D03*
X625000Y112205D02*
D03*
X625563Y108917D02*
D03*
X627953Y106299D02*
D03*
X630905Y111221D02*
D03*
X642987Y333567D02*
D03*
X86364Y556422D02*
D03*
X80141Y429284D02*
D03*
X692913Y580709D02*
D03*
X700787Y564961D02*
D03*
X692913Y549213D02*
D03*
X700787Y501968D02*
D03*
X692913Y423228D02*
D03*
Y391732D02*
D03*
Y360236D02*
D03*
Y297244D02*
D03*
Y265748D02*
D03*
X700787Y155512D02*
D03*
X692913Y139764D02*
D03*
X700787Y124016D02*
D03*
X677165Y612205D02*
D03*
X685039Y596457D02*
D03*
X677165Y580709D02*
D03*
Y549213D02*
D03*
X685039Y470472D02*
D03*
X677165Y454724D02*
D03*
X685039Y438976D02*
D03*
X677165Y423228D02*
D03*
X685039Y407480D02*
D03*
X677165Y391732D02*
D03*
X685039Y375984D02*
D03*
Y312992D02*
D03*
X677165Y297244D02*
D03*
Y265748D02*
D03*
Y171260D02*
D03*
X685039Y124016D02*
D03*
Y92520D02*
D03*
X677165Y76772D02*
D03*
X661417Y612205D02*
D03*
X669291Y596457D02*
D03*
X661417Y580709D02*
D03*
X669291Y564961D02*
D03*
X661417Y549213D02*
D03*
X669291Y533464D02*
D03*
X661417Y517717D02*
D03*
Y486220D02*
D03*
Y423228D02*
D03*
X669291Y407480D02*
D03*
X661417Y391732D02*
D03*
X669291Y375984D02*
D03*
X661417Y360236D02*
D03*
X669291Y281496D02*
D03*
X661417Y265748D02*
D03*
Y202756D02*
D03*
Y139764D02*
D03*
X669291Y92520D02*
D03*
X661417Y76772D02*
D03*
X645669Y612205D02*
D03*
X653543Y596457D02*
D03*
X645669Y580709D02*
D03*
Y549213D02*
D03*
X653543Y407480D02*
D03*
Y312992D02*
D03*
X645669Y297244D02*
D03*
X653543Y281496D02*
D03*
X645669Y265748D02*
D03*
Y202756D02*
D03*
X653543Y187008D02*
D03*
X645669Y171260D02*
D03*
X653543Y124016D02*
D03*
Y92520D02*
D03*
X645669Y76772D02*
D03*
X629921Y580709D02*
D03*
X637795Y564961D02*
D03*
X629921Y549213D02*
D03*
X637795Y470472D02*
D03*
Y438976D02*
D03*
X629921Y423228D02*
D03*
X637795Y407480D02*
D03*
Y375984D02*
D03*
X629921Y297244D02*
D03*
X614173Y580709D02*
D03*
X622047Y501968D02*
D03*
Y470472D02*
D03*
X614173Y423228D02*
D03*
X622047Y407480D02*
D03*
Y375984D02*
D03*
X614173Y328740D02*
D03*
X622047Y281496D02*
D03*
X614173Y139764D02*
D03*
Y108268D02*
D03*
X606299Y596457D02*
D03*
Y564961D02*
D03*
Y533464D02*
D03*
X598425Y517717D02*
D03*
X606299Y501968D02*
D03*
Y470472D02*
D03*
X598425Y454724D02*
D03*
X606299Y407480D02*
D03*
X598425Y391732D02*
D03*
X606299Y344488D02*
D03*
Y281496D02*
D03*
Y250000D02*
D03*
X598425Y234252D02*
D03*
X606299Y218504D02*
D03*
Y187008D02*
D03*
X598425Y171260D02*
D03*
X606299Y155512D02*
D03*
Y124016D02*
D03*
X598425Y108268D02*
D03*
X606299Y92520D02*
D03*
X582677Y612205D02*
D03*
X590551Y596457D02*
D03*
X582677Y580709D02*
D03*
Y517717D02*
D03*
Y454724D02*
D03*
Y423228D02*
D03*
Y391732D02*
D03*
Y360236D02*
D03*
X590551Y344488D02*
D03*
X582677Y328740D02*
D03*
Y297244D02*
D03*
Y234252D02*
D03*
Y171260D02*
D03*
Y139764D02*
D03*
Y108268D02*
D03*
X590551Y92520D02*
D03*
X582677Y76772D02*
D03*
X574803Y596457D02*
D03*
X566929Y580709D02*
D03*
X574803Y564961D02*
D03*
Y533464D02*
D03*
X566929Y517717D02*
D03*
X574803Y470472D02*
D03*
Y438976D02*
D03*
X566929Y423228D02*
D03*
X574803Y407480D02*
D03*
X566929Y391732D02*
D03*
X574803Y344488D02*
D03*
X566929Y297244D02*
D03*
X574803Y281496D02*
D03*
Y250000D02*
D03*
X566929Y234252D02*
D03*
X574803Y187008D02*
D03*
Y155512D02*
D03*
X566929Y139764D02*
D03*
X574803Y124016D02*
D03*
X566929Y108268D02*
D03*
X574803Y92520D02*
D03*
X559055Y596457D02*
D03*
X551181Y517717D02*
D03*
X559055Y344488D02*
D03*
X551181Y234252D02*
D03*
X535433Y612205D02*
D03*
X543307Y596457D02*
D03*
X535433Y580709D02*
D03*
Y517717D02*
D03*
X543307Y501968D02*
D03*
Y470472D02*
D03*
X535433Y454724D02*
D03*
Y391732D02*
D03*
Y360236D02*
D03*
X543307Y344488D02*
D03*
X535433Y328740D02*
D03*
Y297244D02*
D03*
Y234252D02*
D03*
X543307Y218504D02*
D03*
Y187008D02*
D03*
X535433Y171260D02*
D03*
Y108268D02*
D03*
Y76772D02*
D03*
X519685Y517717D02*
D03*
Y454724D02*
D03*
X527559Y344488D02*
D03*
X519685Y234252D02*
D03*
Y171260D02*
D03*
X527559Y92520D02*
D03*
X503937Y612205D02*
D03*
Y360236D02*
D03*
X511811Y344488D02*
D03*
X503937Y328740D02*
D03*
X511811Y92520D02*
D03*
X503937Y76772D02*
D03*
X488189Y517717D02*
D03*
Y454724D02*
D03*
X496063Y438976D02*
D03*
Y407480D02*
D03*
Y375984D02*
D03*
Y344488D02*
D03*
Y312992D02*
D03*
X488189Y234252D02*
D03*
Y171260D02*
D03*
X496063Y155512D02*
D03*
Y124016D02*
D03*
X472441Y612205D02*
D03*
Y580709D02*
D03*
X480315Y564961D02*
D03*
X472441Y549213D02*
D03*
X480315Y533464D02*
D03*
X472441Y517717D02*
D03*
X480315Y501968D02*
D03*
X472441Y454724D02*
D03*
Y423228D02*
D03*
Y391732D02*
D03*
X480315Y375984D02*
D03*
X472441Y360236D02*
D03*
X480315Y344488D02*
D03*
X472441Y328740D02*
D03*
X480315Y312992D02*
D03*
X472441Y297244D02*
D03*
X480315Y281496D02*
D03*
Y250000D02*
D03*
X472441Y234252D02*
D03*
X480315Y218504D02*
D03*
X472441Y171260D02*
D03*
Y139764D02*
D03*
Y108268D02*
D03*
Y76772D02*
D03*
X464567Y564961D02*
D03*
Y533464D02*
D03*
X456693Y517717D02*
D03*
X464567Y501968D02*
D03*
Y470472D02*
D03*
X456693Y454724D02*
D03*
X464567Y438976D02*
D03*
X456693Y423228D02*
D03*
X464567Y407480D02*
D03*
X456693Y391732D02*
D03*
X464567Y375984D02*
D03*
Y344488D02*
D03*
Y312992D02*
D03*
Y281496D02*
D03*
Y250000D02*
D03*
X456693Y234252D02*
D03*
X464567Y218504D02*
D03*
Y187008D02*
D03*
X456693Y171260D02*
D03*
X464567Y155512D02*
D03*
X456693Y139764D02*
D03*
X464567Y124016D02*
D03*
X456693Y108268D02*
D03*
X440945Y612205D02*
D03*
Y580709D02*
D03*
Y517717D02*
D03*
Y454724D02*
D03*
Y423228D02*
D03*
Y391732D02*
D03*
X448819Y375984D02*
D03*
X440945Y360236D02*
D03*
X448819Y344488D02*
D03*
X440945Y328740D02*
D03*
X448819Y312992D02*
D03*
X440945Y297244D02*
D03*
Y234252D02*
D03*
Y171260D02*
D03*
Y139764D02*
D03*
Y108268D02*
D03*
Y76772D02*
D03*
X425197Y580709D02*
D03*
X433071Y564961D02*
D03*
Y533464D02*
D03*
X425197Y517717D02*
D03*
X433071Y470472D02*
D03*
Y438976D02*
D03*
X425197Y423228D02*
D03*
X433071Y407480D02*
D03*
X425197Y391732D02*
D03*
X433071Y375984D02*
D03*
Y344488D02*
D03*
Y312992D02*
D03*
X425197Y297244D02*
D03*
X433071Y281496D02*
D03*
Y250000D02*
D03*
X425197Y234252D02*
D03*
X433071Y187008D02*
D03*
Y155512D02*
D03*
X425197Y139764D02*
D03*
X433071Y124016D02*
D03*
X425197Y108268D02*
D03*
X409449Y517717D02*
D03*
X417323Y344488D02*
D03*
Y312992D02*
D03*
X409449Y234252D02*
D03*
X393701Y612205D02*
D03*
Y580709D02*
D03*
Y517717D02*
D03*
X401575Y501968D02*
D03*
Y470472D02*
D03*
X393701Y454724D02*
D03*
Y391732D02*
D03*
Y360236D02*
D03*
X401575Y344488D02*
D03*
X393701Y328740D02*
D03*
X401575Y312992D02*
D03*
X393701Y297244D02*
D03*
Y234252D02*
D03*
X401575Y218504D02*
D03*
Y187008D02*
D03*
X393701Y171260D02*
D03*
Y108268D02*
D03*
Y76772D02*
D03*
X377953Y517717D02*
D03*
Y454724D02*
D03*
X385827Y375984D02*
D03*
Y344488D02*
D03*
X377953Y234252D02*
D03*
Y171260D02*
D03*
X362205Y612205D02*
D03*
X370079Y375984D02*
D03*
X362205Y360236D02*
D03*
X370079Y344488D02*
D03*
X362205Y328740D02*
D03*
Y76772D02*
D03*
X354331Y596457D02*
D03*
X346457Y517717D02*
D03*
Y454724D02*
D03*
X354331Y438976D02*
D03*
Y407480D02*
D03*
Y344488D02*
D03*
X346457Y234252D02*
D03*
Y171260D02*
D03*
X354331Y155512D02*
D03*
Y124016D02*
D03*
Y92520D02*
D03*
X330709Y612205D02*
D03*
X338583Y596457D02*
D03*
X330709Y580709D02*
D03*
X338583Y564961D02*
D03*
X330709Y549213D02*
D03*
X338583Y533464D02*
D03*
X330709Y517717D02*
D03*
X338583Y501968D02*
D03*
X330709Y423228D02*
D03*
Y391732D02*
D03*
Y360236D02*
D03*
X338583Y344488D02*
D03*
X330709Y328740D02*
D03*
Y297244D02*
D03*
X338583Y281496D02*
D03*
Y250000D02*
D03*
Y218504D02*
D03*
X330709Y139764D02*
D03*
Y108268D02*
D03*
X338583Y92520D02*
D03*
X330709Y76772D02*
D03*
X322835Y596457D02*
D03*
Y564961D02*
D03*
Y533464D02*
D03*
X314961Y517717D02*
D03*
X322835Y501968D02*
D03*
Y470472D02*
D03*
X314961Y454724D02*
D03*
X322835Y438976D02*
D03*
X314961Y423228D02*
D03*
X322835Y407480D02*
D03*
X314961Y391732D02*
D03*
X322835Y344488D02*
D03*
Y281496D02*
D03*
Y250000D02*
D03*
X314961Y234252D02*
D03*
X322835Y218504D02*
D03*
Y187008D02*
D03*
X314961Y171260D02*
D03*
X322835Y155512D02*
D03*
X314961Y139764D02*
D03*
X322835Y124016D02*
D03*
X314961Y108268D02*
D03*
X322835Y92520D02*
D03*
X299213Y612205D02*
D03*
X307087Y596457D02*
D03*
X299213Y580709D02*
D03*
Y517717D02*
D03*
Y454724D02*
D03*
Y423228D02*
D03*
Y391732D02*
D03*
Y360236D02*
D03*
X307087Y344488D02*
D03*
X299213Y328740D02*
D03*
Y297244D02*
D03*
Y234252D02*
D03*
Y171260D02*
D03*
Y139764D02*
D03*
Y108268D02*
D03*
X307087Y92520D02*
D03*
X299213Y76772D02*
D03*
X291338Y596457D02*
D03*
X283465Y580709D02*
D03*
X291338Y564961D02*
D03*
Y533464D02*
D03*
X283465Y517717D02*
D03*
X291338Y470472D02*
D03*
Y438976D02*
D03*
X283465Y423228D02*
D03*
X291338Y407480D02*
D03*
X283465Y391732D02*
D03*
X291338Y344488D02*
D03*
X283465Y297244D02*
D03*
X291338Y281496D02*
D03*
Y250000D02*
D03*
X283465Y234252D02*
D03*
X291338Y187008D02*
D03*
Y155512D02*
D03*
X283465Y139764D02*
D03*
X291338Y124016D02*
D03*
X283465Y108268D02*
D03*
X291338Y92520D02*
D03*
X275590Y596457D02*
D03*
X267717Y517717D02*
D03*
X275590Y344488D02*
D03*
X267717Y234252D02*
D03*
X251969Y612205D02*
D03*
X259842Y596457D02*
D03*
X251969Y580709D02*
D03*
Y517717D02*
D03*
X259842Y501968D02*
D03*
Y470472D02*
D03*
X251969Y454724D02*
D03*
Y391732D02*
D03*
Y360236D02*
D03*
X259842Y344488D02*
D03*
X251969Y328740D02*
D03*
Y297244D02*
D03*
Y234252D02*
D03*
X259842Y218504D02*
D03*
Y187008D02*
D03*
X251969Y171260D02*
D03*
Y108268D02*
D03*
Y76772D02*
D03*
X236220Y517717D02*
D03*
Y454724D02*
D03*
X244094Y344488D02*
D03*
X236220Y234252D02*
D03*
Y171260D02*
D03*
X244094Y92520D02*
D03*
X220472Y612205D02*
D03*
Y360236D02*
D03*
X228346Y344488D02*
D03*
X220472Y328740D02*
D03*
X228346Y92520D02*
D03*
X220472Y76772D02*
D03*
X204724Y517717D02*
D03*
Y454724D02*
D03*
X212598Y438976D02*
D03*
Y407480D02*
D03*
Y375984D02*
D03*
Y344488D02*
D03*
Y312992D02*
D03*
X204724Y234252D02*
D03*
Y171260D02*
D03*
X212598Y155512D02*
D03*
Y124016D02*
D03*
X188976Y612205D02*
D03*
Y580709D02*
D03*
X196850Y564961D02*
D03*
Y533464D02*
D03*
Y501968D02*
D03*
X188976Y486220D02*
D03*
Y423228D02*
D03*
Y391732D02*
D03*
X196850Y375984D02*
D03*
X188976Y360236D02*
D03*
X196850Y344488D02*
D03*
X188976Y328740D02*
D03*
X196850Y312992D02*
D03*
X188976Y297244D02*
D03*
X196850Y281496D02*
D03*
Y250000D02*
D03*
X188976Y202756D02*
D03*
Y139764D02*
D03*
Y108268D02*
D03*
Y76772D02*
D03*
X181102Y564961D02*
D03*
Y533464D02*
D03*
X173228Y517717D02*
D03*
X181102Y501968D02*
D03*
X173228Y486220D02*
D03*
X181102Y470472D02*
D03*
X173228Y454724D02*
D03*
X181102Y438976D02*
D03*
X173228Y423228D02*
D03*
X181102Y407480D02*
D03*
X173228Y391732D02*
D03*
X181102Y375984D02*
D03*
Y344488D02*
D03*
Y312992D02*
D03*
Y281496D02*
D03*
Y250000D02*
D03*
X173228Y234252D02*
D03*
X181102Y218504D02*
D03*
X173228Y202756D02*
D03*
X181102Y187008D02*
D03*
X173228Y171260D02*
D03*
X181102Y155512D02*
D03*
X173228Y139764D02*
D03*
X181102Y124016D02*
D03*
X173228Y108268D02*
D03*
X157480Y612205D02*
D03*
Y580709D02*
D03*
Y517717D02*
D03*
Y486220D02*
D03*
Y454724D02*
D03*
Y423228D02*
D03*
Y391732D02*
D03*
X165354Y375984D02*
D03*
X157480Y360236D02*
D03*
X165354Y344488D02*
D03*
X157480Y328740D02*
D03*
X165354Y312992D02*
D03*
X157480Y297244D02*
D03*
Y234252D02*
D03*
Y202756D02*
D03*
Y171260D02*
D03*
Y139764D02*
D03*
Y108268D02*
D03*
Y76772D02*
D03*
X141732Y580709D02*
D03*
X149606Y564961D02*
D03*
Y533464D02*
D03*
X141732Y517717D02*
D03*
Y486220D02*
D03*
X149606Y470472D02*
D03*
Y438976D02*
D03*
X141732Y423228D02*
D03*
X149606Y407480D02*
D03*
X141732Y391732D02*
D03*
X149606Y375984D02*
D03*
Y344488D02*
D03*
Y312992D02*
D03*
X141732Y297244D02*
D03*
X149606Y281496D02*
D03*
Y250000D02*
D03*
X141732Y234252D02*
D03*
Y202756D02*
D03*
X149606Y187008D02*
D03*
Y155512D02*
D03*
X141732Y139764D02*
D03*
X149606Y124016D02*
D03*
X141732Y108268D02*
D03*
X125984Y517717D02*
D03*
Y486220D02*
D03*
X133858Y344488D02*
D03*
Y312992D02*
D03*
X125984Y234252D02*
D03*
Y202756D02*
D03*
X110236Y612205D02*
D03*
Y580709D02*
D03*
Y517717D02*
D03*
X118110Y501968D02*
D03*
X110236Y486220D02*
D03*
X118110Y470472D02*
D03*
X110236Y454724D02*
D03*
Y391732D02*
D03*
Y360236D02*
D03*
X118110Y344488D02*
D03*
X110236Y328740D02*
D03*
X118110Y312992D02*
D03*
X110236Y297244D02*
D03*
Y234252D02*
D03*
X118110Y218504D02*
D03*
X110236Y202756D02*
D03*
X118110Y187008D02*
D03*
X110236Y171260D02*
D03*
Y108268D02*
D03*
Y76772D02*
D03*
X94488Y517717D02*
D03*
Y486220D02*
D03*
Y454724D02*
D03*
X102362Y375984D02*
D03*
Y344488D02*
D03*
X94488Y234252D02*
D03*
Y202756D02*
D03*
Y171260D02*
D03*
X78740Y612205D02*
D03*
X86614Y407480D02*
D03*
Y375984D02*
D03*
X78740Y360236D02*
D03*
X86614Y344488D02*
D03*
X78740Y328740D02*
D03*
Y297244D02*
D03*
Y76772D02*
D03*
X70866Y596457D02*
D03*
X62992Y517717D02*
D03*
Y486220D02*
D03*
Y454724D02*
D03*
X70866Y438976D02*
D03*
Y407480D02*
D03*
Y375984D02*
D03*
Y344488D02*
D03*
Y312992D02*
D03*
X62992Y234252D02*
D03*
Y202756D02*
D03*
Y171260D02*
D03*
X70866Y155512D02*
D03*
Y124016D02*
D03*
Y92520D02*
D03*
X55118Y596457D02*
D03*
X47244Y580709D02*
D03*
X55118Y564961D02*
D03*
X47244Y549213D02*
D03*
X55118Y533464D02*
D03*
X47244Y517717D02*
D03*
X55118Y501968D02*
D03*
X47244Y486220D02*
D03*
Y454724D02*
D03*
Y423228D02*
D03*
Y391732D02*
D03*
X55118Y375984D02*
D03*
X47244Y360236D02*
D03*
X55118Y344488D02*
D03*
X47244Y328740D02*
D03*
X55118Y312992D02*
D03*
X47244Y297244D02*
D03*
X55118Y281496D02*
D03*
X47244Y265748D02*
D03*
X55118Y250000D02*
D03*
X47244Y234252D02*
D03*
X55118Y218504D02*
D03*
X47244Y202756D02*
D03*
Y171260D02*
D03*
Y139764D02*
D03*
Y108268D02*
D03*
X55118Y92520D02*
D03*
X31496Y580709D02*
D03*
X39370Y564961D02*
D03*
X31496Y549213D02*
D03*
X39370Y533464D02*
D03*
X31496Y517717D02*
D03*
X39370Y501968D02*
D03*
X31496Y486220D02*
D03*
X39370Y470472D02*
D03*
X31496Y454724D02*
D03*
X39370Y438976D02*
D03*
X31496Y423228D02*
D03*
X39370Y407480D02*
D03*
X31496Y391732D02*
D03*
X39370Y375984D02*
D03*
X31496Y360236D02*
D03*
X39370Y344488D02*
D03*
X31496Y328740D02*
D03*
X39370Y312992D02*
D03*
X31496Y297244D02*
D03*
X39370Y281496D02*
D03*
X31496Y265748D02*
D03*
X39370Y250000D02*
D03*
X31496Y234252D02*
D03*
X39370Y218504D02*
D03*
X31496Y202756D02*
D03*
X39370Y187008D02*
D03*
X31496Y171260D02*
D03*
X39370Y155512D02*
D03*
X31496Y139764D02*
D03*
X39370Y124016D02*
D03*
X31496Y108268D02*
D03*
X76598Y404894D02*
D03*
X83400Y420621D02*
D03*
X86606Y416202D02*
D03*
X83092Y562590D02*
D03*
X79842Y570590D02*
D03*
X76466Y544505D02*
D03*
X218297Y558875D02*
D03*
X221523Y562930D02*
D03*
X225012Y570429D02*
D03*
X228413Y548149D02*
D03*
X218260Y416008D02*
D03*
X221743Y420573D02*
D03*
X224943Y428526D02*
D03*
X228331Y406078D02*
D03*
X363282Y428688D02*
D03*
X366636Y419867D02*
D03*
X370079Y413386D02*
D03*
X359974Y404016D02*
D03*
X360117Y546511D02*
D03*
X363401Y570941D02*
D03*
X366766Y561009D02*
D03*
X369930Y555682D02*
D03*
X501642Y555703D02*
D03*
X505148Y562478D02*
D03*
X508338Y569804D02*
D03*
X511795Y540315D02*
D03*
X501722Y413402D02*
D03*
X505048Y420658D02*
D03*
X508474Y427107D02*
D03*
X511880Y399132D02*
D03*
X82460Y285433D02*
D03*
X78895Y277581D02*
D03*
X75440Y270636D02*
D03*
X85693Y263434D02*
D03*
X75565Y133831D02*
D03*
X78853Y137834D02*
D03*
X82368Y144084D02*
D03*
X85423Y122278D02*
D03*
X227306Y133298D02*
D03*
X223991Y137489D02*
D03*
X220561Y143701D02*
D03*
X217278Y120746D02*
D03*
X220683Y285673D02*
D03*
X224058Y278115D02*
D03*
X227249Y272392D02*
D03*
X217307Y263881D02*
D03*
X359750Y274743D02*
D03*
X363205Y279469D02*
D03*
X366468Y287408D02*
D03*
X369795Y264309D02*
D03*
X359681Y133284D02*
D03*
X363083Y137633D02*
D03*
X366556Y144788D02*
D03*
X369947Y123979D02*
D03*
X510793Y131109D02*
D03*
X507519Y137691D02*
D03*
X504109Y143284D02*
D03*
X500766Y120604D02*
D03*
X510738Y273212D02*
D03*
X507339Y276393D02*
D03*
X504121Y279177D02*
D03*
X500759Y265366D02*
D03*
X449627Y319908D02*
D03*
X555851Y319884D02*
D03*
X591284D02*
D03*
X377117Y401910D02*
D03*
X236943Y390611D02*
D03*
X341684Y366477D02*
D03*
X306268Y366354D02*
D03*
X307809Y355178D02*
D03*
X377117Y437344D02*
D03*
X485130Y603347D02*
D03*
X483589Y579091D02*
D03*
X448253Y579167D02*
D03*
X412820D02*
D03*
X377387D02*
D03*
X341954D02*
D03*
X306446Y579160D02*
D03*
X591306Y355319D02*
D03*
X707098Y341940D02*
D03*
X667821Y300264D02*
D03*
X656301Y303393D02*
D03*
X617126Y299213D02*
D03*
X626312Y337404D02*
D03*
X620473Y333645D02*
D03*
X626509Y305809D02*
D03*
X620616Y301943D02*
D03*
X621783Y313349D02*
D03*
X620572Y341127D02*
D03*
X621872Y345258D02*
D03*
X699662Y307719D02*
D03*
X706038Y315857D02*
D03*
X696643Y310612D02*
D03*
X702305Y316025D02*
D03*
X702716Y325431D02*
D03*
X695179Y349456D02*
D03*
X700494Y336562D02*
D03*
X702680Y333374D02*
D03*
X652364Y378196D02*
D03*
X655317Y361464D02*
D03*
X666144Y341779D02*
D03*
X666395Y371645D02*
D03*
X655317Y332920D02*
D03*
Y345716D02*
D03*
X661223Y311267D02*
D03*
X655233Y319188D02*
D03*
X667128Y352606D02*
D03*
Y327015D02*
D03*
X687274Y339709D02*
D03*
X681400Y343649D02*
D03*
X620616Y309327D02*
D03*
X643219Y365699D02*
D03*
X637459Y305629D02*
D03*
X609771Y302102D02*
D03*
X637453Y336782D02*
D03*
X617052Y331455D02*
D03*
X609771Y334416D02*
D03*
X643408Y308413D02*
D03*
X643463Y301890D02*
D03*
X648824Y454304D02*
D03*
X690914Y496894D02*
D03*
X669885Y486999D02*
D03*
X683242Y486790D02*
D03*
X683292Y498696D02*
D03*
X679650Y495054D02*
D03*
X676279Y211910D02*
D03*
X668504Y220472D02*
D03*
X676083Y220276D02*
D03*
X672956Y230928D02*
D03*
X690694Y205876D02*
D03*
X576272Y554331D02*
D03*
X628002Y536248D02*
D03*
X627949Y484035D02*
D03*
X630930Y497711D02*
D03*
X633240Y483921D02*
D03*
X118736Y429866D02*
D03*
X123861Y429843D02*
D03*
X113635Y429850D02*
D03*
X576148Y419683D02*
D03*
X632970Y217354D02*
D03*
X536158Y265060D02*
D03*
X576126Y270868D02*
D03*
X175216Y151658D02*
D03*
X554460Y153829D02*
D03*
X632843Y165131D02*
D03*
X627764Y165129D02*
D03*
X632848Y193040D02*
D03*
X627743Y193064D02*
D03*
X627724Y217385D02*
D03*
X632857Y245156D02*
D03*
X627776Y245181D02*
D03*
X633146Y456209D02*
D03*
X628037Y456185D02*
D03*
X633080Y536313D02*
D03*
X628038Y508340D02*
D03*
X657173Y92124D02*
D03*
X649130Y92028D02*
D03*
X633489Y96428D02*
D03*
X636002Y98576D02*
D03*
X637756Y95611D02*
D03*
X637817Y100905D02*
D03*
X632976Y100875D02*
D03*
X614611Y99593D02*
D03*
X669291Y133858D02*
D03*
X679134D02*
D03*
Y143701D02*
D03*
X669291D02*
D03*
X610236Y123031D02*
D03*
X614173D02*
D03*
X617126Y118110D02*
D03*
X612205Y127953D02*
D03*
X617126D02*
D03*
X611221Y118110D02*
D03*
X618110Y123031D02*
D03*
X656975Y123902D02*
D03*
X648161Y126404D02*
D03*
X625000Y135827D02*
D03*
X654528Y139764D02*
D03*
X643701D02*
D03*
X633858D02*
D03*
X670276Y82677D02*
D03*
X663386D02*
D03*
X169488Y275859D02*
D03*
X139658Y328819D02*
D03*
X175091D02*
D03*
X104225Y222520D02*
D03*
X139658D02*
D03*
X68792Y328819D02*
D03*
X175091Y293386D02*
D03*
Y222520D02*
D03*
Y257953D02*
D03*
X104225Y328819D02*
D03*
X68792Y293386D02*
D03*
X150878Y276851D02*
D03*
X139658Y293386D02*
D03*
X128899Y280328D02*
D03*
X125288Y270945D02*
D03*
X104225Y293386D02*
D03*
X152453Y254016D02*
D03*
X104082Y256459D02*
D03*
X139658Y257953D02*
D03*
X68792D02*
D03*
Y222520D02*
D03*
X164495Y331138D02*
D03*
X129062D02*
D03*
X93629Y224839D02*
D03*
X58196Y331138D02*
D03*
X93629D02*
D03*
X105806Y279956D02*
D03*
X129062Y295705D02*
D03*
X164495D02*
D03*
X131286Y256917D02*
D03*
X131193Y270945D02*
D03*
X93629Y295705D02*
D03*
X58196D02*
D03*
X164495Y224839D02*
D03*
X129062D02*
D03*
X150878Y270945D02*
D03*
X164495Y260272D02*
D03*
X93629D02*
D03*
X58196D02*
D03*
Y224839D02*
D03*
X105753Y265242D02*
D03*
X59737Y249095D02*
D03*
X126077Y282906D02*
D03*
X135289Y284515D02*
D03*
X123731Y288111D02*
D03*
X166036Y284528D02*
D03*
X121208Y283524D02*
D03*
X166036Y319961D02*
D03*
X118606Y288134D02*
D03*
X130603Y319961D02*
D03*
X116018Y283568D02*
D03*
X95170Y319961D02*
D03*
X113505Y288118D02*
D03*
X59737Y319961D02*
D03*
X110921Y283272D02*
D03*
X59737Y284528D02*
D03*
X123664Y260212D02*
D03*
X166036Y249095D02*
D03*
X121149Y264944D02*
D03*
X130603Y249095D02*
D03*
X118620Y260382D02*
D03*
X166036Y213662D02*
D03*
X116032Y264980D02*
D03*
X130603Y213662D02*
D03*
X113410Y260277D02*
D03*
X95170Y213662D02*
D03*
X110910Y265137D02*
D03*
X59737Y213662D02*
D03*
X108323Y260102D02*
D03*
X95170Y249095D02*
D03*
X108395Y288206D02*
D03*
X95170Y284528D02*
D03*
X594758Y417516D02*
D03*
X564928Y470476D02*
D03*
X600361D02*
D03*
X529495Y364177D02*
D03*
X564928D02*
D03*
X494062Y470476D02*
D03*
X600361Y435043D02*
D03*
Y364177D02*
D03*
Y399610D02*
D03*
X529495Y470476D02*
D03*
X494062Y435043D02*
D03*
X564928D02*
D03*
X554169Y421985D02*
D03*
X550558Y412602D02*
D03*
X529495Y435043D02*
D03*
X577723Y395673D02*
D03*
X529352Y398116D02*
D03*
X564928Y399610D02*
D03*
X494062D02*
D03*
Y364177D02*
D03*
X589765Y472795D02*
D03*
X554332D02*
D03*
X518899Y366496D02*
D03*
X483466Y472795D02*
D03*
X518899D02*
D03*
X531076Y421613D02*
D03*
X554332Y437362D02*
D03*
X589765D02*
D03*
X556556Y398574D02*
D03*
X556463Y412602D02*
D03*
X518899Y437362D02*
D03*
X483466D02*
D03*
X589765Y366496D02*
D03*
X554332D02*
D03*
X576148Y412602D02*
D03*
X589765Y401929D02*
D03*
X518899D02*
D03*
X483466D02*
D03*
Y366496D02*
D03*
X531023Y406899D02*
D03*
X485007Y390752D02*
D03*
X551347Y424563D02*
D03*
X560559Y426172D02*
D03*
X549001Y429768D02*
D03*
X591306Y426185D02*
D03*
X546478Y425181D02*
D03*
X591306Y461618D02*
D03*
X543876Y429791D02*
D03*
X555873Y461618D02*
D03*
X541288Y425225D02*
D03*
X520439Y461618D02*
D03*
X538775Y429775D02*
D03*
X485007Y461618D02*
D03*
X536191Y424929D02*
D03*
X485007Y426185D02*
D03*
X548934Y401869D02*
D03*
X591306Y390752D02*
D03*
X546419Y406601D02*
D03*
X555873Y390752D02*
D03*
X543890Y402039D02*
D03*
X541302Y406637D02*
D03*
X555873Y355319D02*
D03*
X538680Y401934D02*
D03*
X520439Y355319D02*
D03*
X536180Y406794D02*
D03*
X485007Y355319D02*
D03*
X533593Y401759D02*
D03*
X520439Y390752D02*
D03*
X533665Y429863D02*
D03*
X520439Y426185D02*
D03*
X452976Y417497D02*
D03*
X423146Y470458D02*
D03*
X458579D02*
D03*
X387713Y364159D02*
D03*
X423146D02*
D03*
X352280Y470458D02*
D03*
X458579Y435025D02*
D03*
Y364159D02*
D03*
Y399592D02*
D03*
X387713Y470458D02*
D03*
X352280Y435025D02*
D03*
X434367Y418490D02*
D03*
X423146Y435025D02*
D03*
X412387Y421967D02*
D03*
X408776Y412584D02*
D03*
X387713Y435025D02*
D03*
X435941Y395655D02*
D03*
X387570Y398097D02*
D03*
X423146Y399592D02*
D03*
X352280D02*
D03*
Y364159D02*
D03*
X447984Y472777D02*
D03*
X412550D02*
D03*
X377117Y366477D02*
D03*
X341684Y472777D02*
D03*
X377117D02*
D03*
X389294Y421595D02*
D03*
X412550Y437344D02*
D03*
X447984D02*
D03*
X414774Y398555D02*
D03*
X414681Y412584D02*
D03*
X341684Y437344D02*
D03*
X447984Y366477D02*
D03*
X412550D02*
D03*
X434367Y412584D02*
D03*
X447984Y401910D02*
D03*
X341684D02*
D03*
X389241Y406881D02*
D03*
X343225Y390734D02*
D03*
X409565Y424545D02*
D03*
X418777Y426154D02*
D03*
X407219Y429750D02*
D03*
X449524Y426167D02*
D03*
X404696Y425163D02*
D03*
X449524Y461600D02*
D03*
X402094Y429773D02*
D03*
X414091Y461600D02*
D03*
X399506Y425207D02*
D03*
X378658Y461600D02*
D03*
X396994Y429757D02*
D03*
X343225Y461600D02*
D03*
X394409Y424911D02*
D03*
X343225Y426167D02*
D03*
X407153Y401851D02*
D03*
X449524Y390734D02*
D03*
X404637Y406582D02*
D03*
X414091Y390734D02*
D03*
X402108Y402021D02*
D03*
X449524Y355301D02*
D03*
X399521Y406619D02*
D03*
X414091Y355301D02*
D03*
X396898Y401916D02*
D03*
X378658Y355301D02*
D03*
X394398Y406776D02*
D03*
X343225Y355301D02*
D03*
X391811Y401741D02*
D03*
X378658Y390734D02*
D03*
X391883Y429845D02*
D03*
X378658Y426167D02*
D03*
X311261Y417375D02*
D03*
X281431Y470335D02*
D03*
X316864D02*
D03*
X245998Y364036D02*
D03*
X281431D02*
D03*
X210565Y470335D02*
D03*
X316864Y434902D02*
D03*
Y364036D02*
D03*
Y399469D02*
D03*
X245998Y470335D02*
D03*
X210565Y434902D02*
D03*
X292651Y418367D02*
D03*
X281431Y434902D02*
D03*
X270672Y421843D02*
D03*
X267061Y412461D02*
D03*
X245998Y434902D02*
D03*
X294226Y395532D02*
D03*
X245855Y397974D02*
D03*
X281431Y399469D02*
D03*
X210565D02*
D03*
Y364036D02*
D03*
X306268Y472654D02*
D03*
X270835D02*
D03*
X235402Y366354D02*
D03*
X199969Y472654D02*
D03*
X235402D02*
D03*
X247579Y421472D02*
D03*
X270835Y437220D02*
D03*
X306268D02*
D03*
X273059Y398432D02*
D03*
X272966Y412461D02*
D03*
X235402Y437220D02*
D03*
X199969D02*
D03*
X270835Y366354D02*
D03*
X292651Y412461D02*
D03*
X306268Y401787D02*
D03*
X235402D02*
D03*
X199969D02*
D03*
Y366354D02*
D03*
X247526Y406758D02*
D03*
X201510Y390611D02*
D03*
X267850Y424422D02*
D03*
X277062Y426031D02*
D03*
X265504Y429627D02*
D03*
X307809Y426044D02*
D03*
X262981Y425040D02*
D03*
X307809Y461477D02*
D03*
X260379Y429650D02*
D03*
X272376Y461477D02*
D03*
X257791Y425083D02*
D03*
X236943Y461477D02*
D03*
X255278Y429634D02*
D03*
X201510Y461477D02*
D03*
X252694Y424788D02*
D03*
X201510Y426044D02*
D03*
X265437Y401728D02*
D03*
X307809Y390611D02*
D03*
X262922Y406459D02*
D03*
X272376Y390611D02*
D03*
X260393Y401898D02*
D03*
X257805Y406496D02*
D03*
X272376Y355178D02*
D03*
X255183Y401793D02*
D03*
X236943Y355178D02*
D03*
X252683Y406653D02*
D03*
X201510Y355178D02*
D03*
X250096Y401618D02*
D03*
X250168Y429722D02*
D03*
X236943Y426044D02*
D03*
X169618Y417591D02*
D03*
X139787Y470551D02*
D03*
X175220D02*
D03*
X104354Y364252D02*
D03*
X139787D02*
D03*
X68921Y470551D02*
D03*
X175220Y435118D02*
D03*
Y364252D02*
D03*
Y399685D02*
D03*
X104354Y470551D02*
D03*
X68921Y435118D02*
D03*
X151008Y418583D02*
D03*
X139787Y435118D02*
D03*
X129028Y422060D02*
D03*
X125417Y412677D02*
D03*
X104354Y435118D02*
D03*
X152583Y395748D02*
D03*
X104212Y398191D02*
D03*
X139787Y399685D02*
D03*
X68921D02*
D03*
Y364252D02*
D03*
X164625Y472870D02*
D03*
X129192D02*
D03*
X93759Y366571D02*
D03*
X58325Y472870D02*
D03*
X93759D02*
D03*
X105935Y421688D02*
D03*
X129192Y437437D02*
D03*
X164625D02*
D03*
X131415Y398649D02*
D03*
X131323Y412677D02*
D03*
X93759Y437437D02*
D03*
X58325D02*
D03*
X164625Y366571D02*
D03*
X129192D02*
D03*
X151008Y412677D02*
D03*
X164625Y402004D02*
D03*
X93759D02*
D03*
X58325D02*
D03*
Y366571D02*
D03*
X105882Y406974D02*
D03*
X59866Y390827D02*
D03*
X126207Y424638D02*
D03*
X135418Y426247D02*
D03*
X166165Y426260D02*
D03*
X121338Y425256D02*
D03*
X166165Y461693D02*
D03*
X130732D02*
D03*
X116147Y425300D02*
D03*
X95299Y461693D02*
D03*
X59866D02*
D03*
X111050Y425004D02*
D03*
X59866Y426260D02*
D03*
X123794Y401944D02*
D03*
X166165Y390827D02*
D03*
X121279Y406675D02*
D03*
X130732Y390827D02*
D03*
X118749Y402114D02*
D03*
X166165Y355394D02*
D03*
X116162Y406712D02*
D03*
X130732Y355394D02*
D03*
X113540Y402009D02*
D03*
X95299Y355394D02*
D03*
X111039Y406869D02*
D03*
X59866Y355394D02*
D03*
X108452Y401834D02*
D03*
X95299Y390827D02*
D03*
X108525Y429938D02*
D03*
X95299Y426260D02*
D03*
X594881Y559244D02*
D03*
X565051Y612205D02*
D03*
X600484D02*
D03*
X529618Y505906D02*
D03*
X565051D02*
D03*
X494185Y612205D02*
D03*
X600484Y576772D02*
D03*
Y505906D02*
D03*
Y541339D02*
D03*
X529618Y612205D02*
D03*
X494185Y576772D02*
D03*
X576272Y560237D02*
D03*
X565051Y576772D02*
D03*
X554292Y563714D02*
D03*
X550681Y554331D02*
D03*
X529618Y576772D02*
D03*
X577846Y537402D02*
D03*
X529475Y539844D02*
D03*
X565051Y541339D02*
D03*
X494185D02*
D03*
Y505906D02*
D03*
X589888Y614524D02*
D03*
X554455D02*
D03*
X519022Y508224D02*
D03*
X483589Y614524D02*
D03*
X519022D02*
D03*
X531199Y563342D02*
D03*
X554455Y579091D02*
D03*
X589888D02*
D03*
X556679Y540302D02*
D03*
X556587Y554331D02*
D03*
X519022Y579091D02*
D03*
X589888Y508224D02*
D03*
X554455D02*
D03*
X589888Y543657D02*
D03*
X519022D02*
D03*
X483589D02*
D03*
Y508224D02*
D03*
X531146Y548628D02*
D03*
X485130Y532481D02*
D03*
X551470Y566292D02*
D03*
X560682Y567901D02*
D03*
X549124Y571497D02*
D03*
X591429Y567914D02*
D03*
X546601Y566910D02*
D03*
X591429Y603347D02*
D03*
X543999Y571520D02*
D03*
X555996Y603347D02*
D03*
X541411Y566954D02*
D03*
X520563Y603347D02*
D03*
X538899Y571504D02*
D03*
X536314Y566658D02*
D03*
X485130Y567914D02*
D03*
X549058Y543598D02*
D03*
X591429Y532481D02*
D03*
X546543Y548329D02*
D03*
X555996Y532481D02*
D03*
X544013Y543768D02*
D03*
X591429Y497048D02*
D03*
X541426Y548366D02*
D03*
X555996Y497048D02*
D03*
X538803Y543663D02*
D03*
X520563Y497048D02*
D03*
X536303Y548523D02*
D03*
X485130Y497048D02*
D03*
X533716Y543488D02*
D03*
X520563Y532481D02*
D03*
X533788Y571592D02*
D03*
X520563Y567914D02*
D03*
X453246Y559321D02*
D03*
X423416Y612282D02*
D03*
X458849D02*
D03*
X387983Y505982D02*
D03*
X423416D02*
D03*
X352550Y612282D02*
D03*
X458849Y576849D02*
D03*
Y505982D02*
D03*
Y541415D02*
D03*
X387983Y612282D02*
D03*
X352550Y576849D02*
D03*
X434636Y560313D02*
D03*
X423416Y576849D02*
D03*
X412657Y563790D02*
D03*
X409046Y554408D02*
D03*
X387983Y576849D02*
D03*
X436211Y537478D02*
D03*
X387840Y539921D02*
D03*
X423416Y541415D02*
D03*
X352550D02*
D03*
Y505982D02*
D03*
X448253Y614600D02*
D03*
X412820D02*
D03*
X377387Y508301D02*
D03*
X341954Y614600D02*
D03*
X377387D02*
D03*
X389564Y563418D02*
D03*
X415044Y540379D02*
D03*
X414951Y554408D02*
D03*
X448253Y508301D02*
D03*
X412820D02*
D03*
X434636Y554408D02*
D03*
X448253Y543734D02*
D03*
X377387D02*
D03*
X341954D02*
D03*
Y508301D02*
D03*
X389511Y548704D02*
D03*
X343495Y532557D02*
D03*
X409835Y566368D02*
D03*
X419047Y567978D02*
D03*
X407489Y571573D02*
D03*
X449794Y567990D02*
D03*
X404966Y566986D02*
D03*
X449794Y603423D02*
D03*
X402364Y571596D02*
D03*
X414361Y603423D02*
D03*
X399776Y567030D02*
D03*
X378928Y603423D02*
D03*
X397264Y571580D02*
D03*
X343495Y603423D02*
D03*
X394679Y566734D02*
D03*
X343495Y567990D02*
D03*
X407422Y543674D02*
D03*
X449794Y532557D02*
D03*
X404907Y548406D02*
D03*
X414361Y532557D02*
D03*
X402378Y543844D02*
D03*
X449794Y497124D02*
D03*
X399791Y548442D02*
D03*
X414361Y497124D02*
D03*
X397168Y543739D02*
D03*
X378928Y497124D02*
D03*
X394668Y548599D02*
D03*
X343495Y497124D02*
D03*
X392081Y543564D02*
D03*
X378928Y532557D02*
D03*
X392153Y571668D02*
D03*
X378928Y567990D02*
D03*
X311439Y559314D02*
D03*
X281609Y612274D02*
D03*
X317042D02*
D03*
X246176Y505975D02*
D03*
X281609D02*
D03*
X210743Y612274D02*
D03*
X317042Y576841D02*
D03*
Y505975D02*
D03*
Y541408D02*
D03*
X246176Y612274D02*
D03*
X210743Y576841D02*
D03*
X292829Y560306D02*
D03*
X281609Y576841D02*
D03*
X270850Y563783D02*
D03*
X267239Y554400D02*
D03*
X246176Y576841D02*
D03*
X294404Y537471D02*
D03*
X246033Y539914D02*
D03*
X281609Y541408D02*
D03*
X210743D02*
D03*
Y505975D02*
D03*
X306446Y614593D02*
D03*
X271013D02*
D03*
X235580Y508293D02*
D03*
X200147Y614593D02*
D03*
X235580D02*
D03*
X247757Y563411D02*
D03*
X271013Y579160D02*
D03*
X273237Y540371D02*
D03*
X273144Y554400D02*
D03*
X235580Y579160D02*
D03*
X200147D02*
D03*
X306446Y508293D02*
D03*
X271013D02*
D03*
X292829Y554400D02*
D03*
X306446Y543726D02*
D03*
X235580D02*
D03*
X200147D02*
D03*
Y508293D02*
D03*
X247704Y548697D02*
D03*
X201688Y532550D02*
D03*
X268028Y566361D02*
D03*
X277240Y567970D02*
D03*
X265682Y571566D02*
D03*
X307987Y567983D02*
D03*
X263159Y566979D02*
D03*
X307987Y603416D02*
D03*
X260557Y571589D02*
D03*
X272554Y603416D02*
D03*
X257969Y567023D02*
D03*
X237121Y603416D02*
D03*
X255457Y571573D02*
D03*
X201688Y603416D02*
D03*
X252872Y566727D02*
D03*
X201688Y567983D02*
D03*
X265616Y543667D02*
D03*
X307987Y532550D02*
D03*
X263100Y548398D02*
D03*
X272554Y532550D02*
D03*
X260571Y543837D02*
D03*
X307987Y497117D02*
D03*
X257984Y548435D02*
D03*
X272554Y497117D02*
D03*
X255361Y543732D02*
D03*
X237121Y497117D02*
D03*
X252861Y548592D02*
D03*
X201688Y497117D02*
D03*
X250274Y543557D02*
D03*
X237121Y532550D02*
D03*
X250346Y571661D02*
D03*
X237121Y567983D02*
D03*
X594886Y133983D02*
D03*
X565055Y186944D02*
D03*
X600489D02*
D03*
X529622Y80644D02*
D03*
X565055D02*
D03*
X494189Y186944D02*
D03*
X600489Y151511D02*
D03*
Y80644D02*
D03*
Y116077D02*
D03*
X529622Y186944D02*
D03*
X494189Y151511D02*
D03*
X576276Y134975D02*
D03*
X565055Y151511D02*
D03*
X554296Y138452D02*
D03*
X550685Y129070D02*
D03*
X529622Y151511D02*
D03*
X577851Y112141D02*
D03*
X529480Y114583D02*
D03*
X565055Y116077D02*
D03*
X494189D02*
D03*
Y80644D02*
D03*
X589893Y189262D02*
D03*
X554460D02*
D03*
X519027Y82963D02*
D03*
X483594Y189262D02*
D03*
X519027D02*
D03*
X531203Y138081D02*
D03*
X589893Y153829D02*
D03*
X556684Y115041D02*
D03*
X556591Y129070D02*
D03*
X519027Y153829D02*
D03*
X483594D02*
D03*
X589893Y82963D02*
D03*
X554460D02*
D03*
X576276Y129070D02*
D03*
X589893Y118396D02*
D03*
X519027D02*
D03*
X483594D02*
D03*
Y82963D02*
D03*
X531150Y123366D02*
D03*
X485134Y107219D02*
D03*
X551475Y141030D02*
D03*
X560686Y142640D02*
D03*
X549129Y146236D02*
D03*
X591433Y142652D02*
D03*
X546606Y141648D02*
D03*
X591433Y178085D02*
D03*
X544004Y146258D02*
D03*
X556000Y178085D02*
D03*
X541415Y141692D02*
D03*
X520567Y178085D02*
D03*
X538903Y146242D02*
D03*
X485134Y178085D02*
D03*
X536319Y141396D02*
D03*
X485134Y142652D02*
D03*
X549062Y118337D02*
D03*
X591433Y107219D02*
D03*
X546547Y123068D02*
D03*
X556000Y107219D02*
D03*
X544018Y118506D02*
D03*
X591433Y71786D02*
D03*
X541430Y123104D02*
D03*
X556000Y71786D02*
D03*
X538808Y118401D02*
D03*
X520567Y71786D02*
D03*
X536308Y123262D02*
D03*
X485134Y71786D02*
D03*
X533720Y118227D02*
D03*
X520567Y107219D02*
D03*
X533793Y146330D02*
D03*
X520567Y142652D02*
D03*
X453101Y134043D02*
D03*
X423271Y187004D02*
D03*
X458704D02*
D03*
X387838Y80705D02*
D03*
X423271D02*
D03*
X352404Y187004D02*
D03*
X458704Y151571D02*
D03*
Y80705D02*
D03*
Y116138D02*
D03*
X387838Y187004D02*
D03*
X352404Y151571D02*
D03*
X434491Y135035D02*
D03*
X423271Y151571D02*
D03*
X412512Y138512D02*
D03*
X408900Y129130D02*
D03*
X387838Y151571D02*
D03*
X436066Y112201D02*
D03*
X387695Y114643D02*
D03*
X423271Y116138D02*
D03*
X352404D02*
D03*
Y80705D02*
D03*
X448108Y189322D02*
D03*
X412675D02*
D03*
X377242Y83023D02*
D03*
X341809Y189322D02*
D03*
X377242D02*
D03*
X389418Y138141D02*
D03*
X412675Y153889D02*
D03*
X448108D02*
D03*
X414899Y115101D02*
D03*
X414806Y129130D02*
D03*
X377242Y153889D02*
D03*
X341809D02*
D03*
X448108Y83023D02*
D03*
X412675D02*
D03*
X434491Y129130D02*
D03*
X448108Y118456D02*
D03*
X377242D02*
D03*
X341809D02*
D03*
Y83023D02*
D03*
X389365Y123427D02*
D03*
X343349Y107279D02*
D03*
X409690Y141091D02*
D03*
X418901Y142700D02*
D03*
X407344Y146296D02*
D03*
X449649Y142712D02*
D03*
X404821Y141708D02*
D03*
X449649Y178146D02*
D03*
X402219Y146318D02*
D03*
X414215Y178146D02*
D03*
X399630Y141752D02*
D03*
X378782Y178146D02*
D03*
X397118Y146302D02*
D03*
X343349Y178146D02*
D03*
X394534Y141457D02*
D03*
X343349Y142712D02*
D03*
X407277Y118397D02*
D03*
X449649Y107279D02*
D03*
X404762Y123128D02*
D03*
X414215Y107279D02*
D03*
X402233Y118566D02*
D03*
X449649Y71846D02*
D03*
X399645Y123164D02*
D03*
X414215Y71846D02*
D03*
X397023Y118461D02*
D03*
X378782Y71846D02*
D03*
X394523Y123322D02*
D03*
X343349Y71846D02*
D03*
X391935Y118287D02*
D03*
X378782Y107279D02*
D03*
X392008Y146391D02*
D03*
X378782Y142712D02*
D03*
X311372Y134011D02*
D03*
X281542Y186971D02*
D03*
X316975D02*
D03*
X246109Y80672D02*
D03*
X281542D02*
D03*
X210676Y186971D02*
D03*
X316975Y151538D02*
D03*
Y80672D02*
D03*
Y116105D02*
D03*
X246109Y186971D02*
D03*
X210676Y151538D02*
D03*
X292763Y135003D02*
D03*
X281542Y151538D02*
D03*
X270783Y138480D02*
D03*
X267172Y129097D02*
D03*
X246109Y151538D02*
D03*
X294337Y112168D02*
D03*
X245967Y114611D02*
D03*
X281542Y116105D02*
D03*
X210676D02*
D03*
Y80672D02*
D03*
X306380Y189290D02*
D03*
X270946D02*
D03*
X235513Y82991D02*
D03*
X200080Y189290D02*
D03*
X235513D02*
D03*
X247690Y138108D02*
D03*
X270946Y153857D02*
D03*
X306380D02*
D03*
X273170Y115069D02*
D03*
X273078Y129097D02*
D03*
X235513Y153857D02*
D03*
X200080D02*
D03*
X306380Y82991D02*
D03*
X270946D02*
D03*
X292763Y129097D02*
D03*
X306380Y118424D02*
D03*
X235513D02*
D03*
X200080D02*
D03*
Y82991D02*
D03*
X247637Y123394D02*
D03*
X201621Y107247D02*
D03*
X267961Y141058D02*
D03*
X277173Y142667D02*
D03*
X265615Y146263D02*
D03*
X307920Y142680D02*
D03*
X263092Y141676D02*
D03*
X307920Y178113D02*
D03*
X260490Y146286D02*
D03*
X272487Y178113D02*
D03*
X257902Y141720D02*
D03*
X237054Y178113D02*
D03*
X255390Y146270D02*
D03*
X201621Y178113D02*
D03*
X252805Y141424D02*
D03*
X201621Y142680D02*
D03*
X265549Y118364D02*
D03*
X307920Y107247D02*
D03*
X263034Y123095D02*
D03*
X272487Y107247D02*
D03*
X260504Y118534D02*
D03*
X307920Y71814D02*
D03*
X257917Y123132D02*
D03*
X272487Y71814D02*
D03*
X255294Y118429D02*
D03*
X237054Y71814D02*
D03*
X252794Y123289D02*
D03*
X201621Y71814D02*
D03*
X250207Y118254D02*
D03*
X237054Y107247D02*
D03*
X250279Y146358D02*
D03*
X237054Y142680D02*
D03*
X169614Y134130D02*
D03*
X139783Y187091D02*
D03*
X175216D02*
D03*
X104350Y80792D02*
D03*
X139783D02*
D03*
X68917Y187091D02*
D03*
X175216Y80792D02*
D03*
Y116225D02*
D03*
X104350Y187091D02*
D03*
X68917Y151658D02*
D03*
X151004Y135122D02*
D03*
X139783Y151658D02*
D03*
X129024Y138599D02*
D03*
X125413Y129217D02*
D03*
X104350Y151658D02*
D03*
X152579Y112288D02*
D03*
X104208Y114730D02*
D03*
X139783Y116225D02*
D03*
X68917D02*
D03*
Y80792D02*
D03*
X164621Y189409D02*
D03*
X129188D02*
D03*
X93755Y83110D02*
D03*
X58321Y189409D02*
D03*
X93755D02*
D03*
X105931Y138228D02*
D03*
X129188Y153976D02*
D03*
X164621D02*
D03*
X131412Y115188D02*
D03*
X131319Y129217D02*
D03*
X93755Y153976D02*
D03*
X58321D02*
D03*
X164621Y83110D02*
D03*
X129188D02*
D03*
X151004Y129217D02*
D03*
X164621Y118543D02*
D03*
X93755D02*
D03*
X58321D02*
D03*
Y83110D02*
D03*
X105878Y123514D02*
D03*
X59862Y107366D02*
D03*
X126203Y141177D02*
D03*
X135414Y142787D02*
D03*
X123857Y146383D02*
D03*
X166161Y142799D02*
D03*
X121334Y141795D02*
D03*
X166161Y178233D02*
D03*
X118732Y146405D02*
D03*
X130728Y178233D02*
D03*
X116143Y141839D02*
D03*
X95295Y178233D02*
D03*
X113631Y146390D02*
D03*
X59862Y178233D02*
D03*
X111047Y141544D02*
D03*
X59862Y142799D02*
D03*
X123790Y118484D02*
D03*
X166161Y107366D02*
D03*
X121275Y123215D02*
D03*
X130728Y107366D02*
D03*
X118746Y118653D02*
D03*
X166161Y71933D02*
D03*
X116158Y123251D02*
D03*
X130728Y71933D02*
D03*
X113536Y118549D02*
D03*
X95295Y71933D02*
D03*
X111036Y123409D02*
D03*
X59862Y71933D02*
D03*
X108448Y118374D02*
D03*
X95295Y107366D02*
D03*
X108521Y146478D02*
D03*
X95295Y142799D02*
D03*
X594736Y275782D02*
D03*
X564906Y328742D02*
D03*
X600339D02*
D03*
X529472Y222443D02*
D03*
X564906D02*
D03*
X494039Y328742D02*
D03*
X600339Y293309D02*
D03*
Y222443D02*
D03*
Y257876D02*
D03*
X529472Y328742D02*
D03*
X494039Y293309D02*
D03*
X576126Y276774D02*
D03*
X564906Y293309D02*
D03*
X554147Y280251D02*
D03*
X550535Y270868D02*
D03*
X529472Y293309D02*
D03*
X577701Y253939D02*
D03*
X529330Y256382D02*
D03*
X564906Y257876D02*
D03*
X494039D02*
D03*
Y222443D02*
D03*
X589743Y331061D02*
D03*
X554310D02*
D03*
X518877Y224762D02*
D03*
X483444Y331061D02*
D03*
X518877D02*
D03*
X531053Y279879D02*
D03*
X554310Y295628D02*
D03*
X589743D02*
D03*
X556534Y256839D02*
D03*
X556441Y270868D02*
D03*
X518877Y295628D02*
D03*
X483444D02*
D03*
X589743Y224762D02*
D03*
X554310D02*
D03*
X589743Y260195D02*
D03*
X518877D02*
D03*
X483444D02*
D03*
Y224762D02*
D03*
X531000Y265165D02*
D03*
X484984Y249018D02*
D03*
X551325Y282829D02*
D03*
X560536Y284438D02*
D03*
X548979Y288034D02*
D03*
X591284Y284451D02*
D03*
X546456Y283447D02*
D03*
X543854Y288057D02*
D03*
X541266Y283491D02*
D03*
X520417Y319884D02*
D03*
X538753Y288041D02*
D03*
X484984Y319884D02*
D03*
X536169Y283195D02*
D03*
X484984Y284451D02*
D03*
X548912Y260135D02*
D03*
X591284Y249018D02*
D03*
X546397Y264866D02*
D03*
X555851Y249018D02*
D03*
X543868Y260305D02*
D03*
X591284Y213585D02*
D03*
X541280Y264903D02*
D03*
X555851Y213585D02*
D03*
X538658Y260200D02*
D03*
X520417Y213585D02*
D03*
X484984D02*
D03*
X533570Y260025D02*
D03*
X520417Y249018D02*
D03*
X533643Y288129D02*
D03*
X520417Y284451D02*
D03*
X453079Y275806D02*
D03*
X423249Y328766D02*
D03*
X458682D02*
D03*
X387816Y222467D02*
D03*
X423249D02*
D03*
X352383Y328766D02*
D03*
X458682Y293333D02*
D03*
Y222467D02*
D03*
Y257900D02*
D03*
X387816Y328766D02*
D03*
X352383Y293333D02*
D03*
X434470Y276798D02*
D03*
X423249Y293333D02*
D03*
X412490Y280275D02*
D03*
X408879Y270892D02*
D03*
X387816Y293333D02*
D03*
X436044Y253963D02*
D03*
X387673Y256405D02*
D03*
X423249Y257900D02*
D03*
X352383D02*
D03*
Y222467D02*
D03*
X448087Y331085D02*
D03*
X412653D02*
D03*
X377220Y224785D02*
D03*
X341787Y331085D02*
D03*
X377220D02*
D03*
X389397Y279903D02*
D03*
X412653Y295652D02*
D03*
X448087D02*
D03*
X414877Y256863D02*
D03*
X414784Y270892D02*
D03*
X377220Y295652D02*
D03*
X341787D02*
D03*
X448087Y224785D02*
D03*
X412653D02*
D03*
X434470Y270892D02*
D03*
X448087Y260219D02*
D03*
X377220D02*
D03*
X341787D02*
D03*
Y224785D02*
D03*
X389344Y265189D02*
D03*
X343328Y249042D02*
D03*
X409668Y282853D02*
D03*
X418880Y284462D02*
D03*
X407322Y288058D02*
D03*
X449627Y284475D02*
D03*
X404799Y283471D02*
D03*
X402197Y288081D02*
D03*
X414194Y319908D02*
D03*
X399609Y283515D02*
D03*
X378761Y319908D02*
D03*
X397097Y288065D02*
D03*
X343328Y319908D02*
D03*
X394512Y283219D02*
D03*
X343328Y284475D02*
D03*
X407256Y260159D02*
D03*
X449627Y249042D02*
D03*
X404740Y264890D02*
D03*
X414194Y249042D02*
D03*
X402211Y260329D02*
D03*
X449627Y213609D02*
D03*
X399624Y264927D02*
D03*
X414194Y213609D02*
D03*
X397001Y260224D02*
D03*
X378761Y213609D02*
D03*
X394501Y265084D02*
D03*
X343328Y213609D02*
D03*
X391914Y260049D02*
D03*
X378761Y249042D02*
D03*
X391986Y288153D02*
D03*
X378761Y284475D02*
D03*
X311224Y275689D02*
D03*
X281394Y328650D02*
D03*
X316827D02*
D03*
X245961Y222351D02*
D03*
X281394D02*
D03*
X210528Y328650D02*
D03*
X316827Y293217D02*
D03*
Y222351D02*
D03*
Y257784D02*
D03*
X245961Y328650D02*
D03*
X210528Y293217D02*
D03*
X292614Y276681D02*
D03*
X281394Y293217D02*
D03*
X270635Y280158D02*
D03*
X267024Y270776D02*
D03*
X245961Y293217D02*
D03*
X294189Y253847D02*
D03*
X245818Y256289D02*
D03*
X281394Y257784D02*
D03*
X210528D02*
D03*
Y222351D02*
D03*
X306231Y330968D02*
D03*
X270798D02*
D03*
X235365Y224669D02*
D03*
X199932Y330968D02*
D03*
X235365D02*
D03*
X247542Y279787D02*
D03*
X270798Y295535D02*
D03*
X306231D02*
D03*
X273022Y256747D02*
D03*
X272929Y270776D02*
D03*
X235365Y295535D02*
D03*
X199932D02*
D03*
X306231Y224669D02*
D03*
X270798D02*
D03*
X292614Y270776D02*
D03*
X306231Y260102D02*
D03*
X235365D02*
D03*
X199932D02*
D03*
Y224669D02*
D03*
X247488Y265073D02*
D03*
X201472Y248925D02*
D03*
X267813Y282736D02*
D03*
X277025Y284346D02*
D03*
X265467Y287942D02*
D03*
X307772Y284358D02*
D03*
X262944Y283354D02*
D03*
X307772Y319792D02*
D03*
X260342Y287964D02*
D03*
X272339Y319792D02*
D03*
X257754Y283398D02*
D03*
X236906Y319792D02*
D03*
X255241Y287948D02*
D03*
X201472Y319792D02*
D03*
X252657Y283103D02*
D03*
X201472Y284358D02*
D03*
X265400Y260043D02*
D03*
X307772Y248925D02*
D03*
X262885Y264774D02*
D03*
X272339Y248925D02*
D03*
X260356Y260212D02*
D03*
X307772Y213492D02*
D03*
X257768Y264810D02*
D03*
X272339Y213492D02*
D03*
X255146Y260107D02*
D03*
X236906Y213492D02*
D03*
X252646Y264968D02*
D03*
X201472Y213492D02*
D03*
X250059Y259933D02*
D03*
X236906Y248925D02*
D03*
X250131Y288037D02*
D03*
X236906Y284358D02*
D03*
X123770Y543598D02*
D03*
X139764Y541339D02*
D03*
X131392Y540302D02*
D03*
X130709Y497047D02*
D03*
X121255Y548329D02*
D03*
X118726Y543767D02*
D03*
X116139Y548365D02*
D03*
X113516Y543662D02*
D03*
X111016Y548523D02*
D03*
X108429Y543488D02*
D03*
X105859Y548628D02*
D03*
X104188Y539844D02*
D03*
X135395Y567901D02*
D03*
X169594Y559244D02*
D03*
X175197Y505905D02*
D03*
X164601Y508224D02*
D03*
X166142Y497047D02*
D03*
X139764Y505905D02*
D03*
X129168Y508224D02*
D03*
X104331Y505905D02*
D03*
X93735Y508224D02*
D03*
X95276Y497047D02*
D03*
X68898Y505905D02*
D03*
X58302Y508224D02*
D03*
X59842Y497047D02*
D03*
X93735Y543657D02*
D03*
X166142Y532480D02*
D03*
X164601Y543657D02*
D03*
X175197Y541339D02*
D03*
X130709Y532480D02*
D03*
X95276D02*
D03*
X59842D02*
D03*
X58302Y543657D02*
D03*
X68898Y541339D02*
D03*
X59842Y567913D02*
D03*
X58302Y579090D02*
D03*
X68898Y576772D02*
D03*
X95276Y567913D02*
D03*
X93735Y579090D02*
D03*
X104331Y576772D02*
D03*
X129168Y579090D02*
D03*
X139764Y576772D02*
D03*
X166142Y567913D02*
D03*
X164601Y579090D02*
D03*
X175197Y576772D02*
D03*
X166142Y603346D02*
D03*
X164601Y614523D02*
D03*
X175197Y612205D02*
D03*
X130709Y603346D02*
D03*
X129168Y614523D02*
D03*
X139764Y612205D02*
D03*
X95276Y603346D02*
D03*
X93735Y614523D02*
D03*
X104331Y612205D02*
D03*
X68898D02*
D03*
X58302Y614523D02*
D03*
X59842Y603346D02*
D03*
X676304Y511294D02*
D03*
X640634Y453082D02*
D03*
X660457Y454404D02*
D03*
X673252Y453420D02*
D03*
X681126D02*
D03*
X687032Y530192D02*
D03*
X681126Y534129D02*
D03*
X635851Y491806D02*
D03*
X638804Y502633D02*
D03*
X647662Y495743D02*
D03*
X642741Y462278D02*
D03*
X658489Y465231D02*
D03*
X643725Y470152D02*
D03*
X642741Y478026D02*
D03*
X658489Y481963D02*
D03*
X656520Y530192D02*
D03*
X642741D02*
D03*
X659473Y521334D02*
D03*
X634842Y210630D02*
D03*
X635827Y198819D02*
D03*
X642717Y171260D02*
D03*
X641732Y179134D02*
D03*
Y187008D02*
D03*
X658465Y190945D02*
D03*
X642717Y239173D02*
D03*
Y223425D02*
D03*
X628937Y204724D02*
D03*
X642717D02*
D03*
X673228Y170276D02*
D03*
X681102Y169291D02*
D03*
X690290Y209494D02*
D03*
X680610Y219488D02*
D03*
X679528Y207677D02*
D03*
X679626Y211417D02*
D03*
X679429Y204035D02*
D03*
X691034Y500818D02*
D03*
X679748Y498696D02*
D03*
X676008D02*
D03*
Y494955D02*
D03*
Y502436D02*
D03*
X683489D02*
D03*
X637789Y599305D02*
D03*
X637795Y618307D02*
D03*
X666208Y457118D02*
D03*
X695792Y510900D02*
D03*
X679847Y502436D02*
D03*
X680831Y510507D02*
D03*
X683489Y494955D02*
D03*
X669336Y479002D02*
D03*
X665104Y470033D02*
D03*
X678871Y486632D02*
D03*
X678764Y474089D02*
D03*
X665224Y534368D02*
D03*
X664985Y514444D02*
D03*
X668725Y511491D02*
D03*
X678764Y523302D02*
D03*
X669041Y526374D02*
D03*
X673056Y521826D02*
D03*
X630473Y476018D02*
D03*
X630536Y470152D02*
D03*
X633095Y508440D02*
D03*
X630536Y517396D02*
D03*
X630578Y464209D02*
D03*
X630536Y523302D02*
D03*
X630559Y528705D02*
D03*
X655888Y501410D02*
D03*
X654039Y491925D02*
D03*
X686638Y474089D02*
D03*
X685203Y510271D02*
D03*
X686638Y523302D02*
D03*
X686646Y489846D02*
D03*
X686425Y198828D02*
D03*
X669664Y195980D02*
D03*
X678650Y195614D02*
D03*
X675787Y203937D02*
D03*
X683268D02*
D03*
X683071Y207677D02*
D03*
X682329Y195771D02*
D03*
X684982Y219252D02*
D03*
X683268Y211417D02*
D03*
X675787Y207677D02*
D03*
X630315Y232283D02*
D03*
Y226378D02*
D03*
Y179134D02*
D03*
X630357Y173190D02*
D03*
X665987Y166100D02*
D03*
X664883Y179015D02*
D03*
X669114Y187984D02*
D03*
X630338Y237686D02*
D03*
X630252Y184999D02*
D03*
X653818Y200907D02*
D03*
X664764Y223425D02*
D03*
X655667Y210391D02*
D03*
X668820Y235356D02*
D03*
X665003Y243349D02*
D03*
X678543Y183071D02*
D03*
X686417D02*
D03*
X678543Y232283D02*
D03*
X686417D02*
D03*
X126183Y566291D02*
D03*
X113611Y571503D02*
D03*
X123837Y571497D02*
D03*
X121314Y566909D02*
D03*
X118712Y571519D02*
D03*
X116124Y566953D02*
D03*
X111027Y566658D02*
D03*
X108501Y571592D02*
D03*
X129005Y563713D02*
D03*
X105912Y563342D02*
D03*
X152559Y537402D02*
D03*
X150984Y560236D02*
D03*
Y554331D02*
D03*
X125394D02*
D03*
X131299D02*
D03*
D63*
X631989Y313155D02*
D03*
X632048Y346578D02*
D03*
X632146Y357652D02*
D03*
X631883Y326539D02*
D03*
X632055Y318758D02*
D03*
X689864Y318846D02*
D03*
X695229Y338924D02*
D03*
X689864Y323767D02*
D03*
X689963Y328787D02*
D03*
X632113Y352148D02*
D03*
X614214Y477467D02*
D03*
X614173Y468504D02*
D03*
X613797Y458217D02*
D03*
X659696Y253585D02*
D03*
X648869D02*
D03*
X639027D02*
D03*
X671260Y253937D02*
D03*
X693898Y250984D02*
D03*
X695571Y187106D02*
D03*
X695693Y498892D02*
D03*
X695276Y211221D02*
D03*
X695571Y218898D02*
D03*
X695374Y225886D02*
D03*
X695472Y238976D02*
D03*
X687623Y447416D02*
D03*
X654134Y607382D02*
D03*
X647244Y607283D02*
D03*
X674016Y606890D02*
D03*
X621063Y559547D02*
D03*
X620965Y566142D02*
D03*
X654626Y558957D02*
D03*
X654823Y565650D02*
D03*
X688189Y558464D02*
D03*
Y565354D02*
D03*
X688092Y584548D02*
D03*
X654628D02*
D03*
X621163D02*
D03*
X668528Y545054D02*
D03*
X671678Y447121D02*
D03*
X679256Y446826D02*
D03*
X650811Y447121D02*
D03*
X662130Y446924D02*
D03*
X640083Y447318D02*
D03*
X618823Y447613D02*
D03*
X614001Y504109D02*
D03*
Y521629D02*
D03*
X614197Y512377D02*
D03*
X614001Y530585D02*
D03*
X614985Y539739D02*
D03*
X624532Y544070D02*
D03*
X647071Y544660D02*
D03*
X658489Y544463D02*
D03*
X636835Y544857D02*
D03*
X687229Y544463D02*
D03*
X695890Y522908D02*
D03*
X695595Y537967D02*
D03*
X695693Y529995D02*
D03*
X693233Y543282D02*
D03*
X695398Y468184D02*
D03*
X695693Y479798D02*
D03*
X695398Y459916D02*
D03*
X694906Y452534D02*
D03*
X695693Y487771D02*
D03*
X624311Y253051D02*
D03*
X614764Y248721D02*
D03*
X613779Y239567D02*
D03*
Y230610D02*
D03*
X613976Y221358D02*
D03*
X613779Y213090D02*
D03*
X613878Y194587D02*
D03*
X614075Y187598D02*
D03*
X613976Y179429D02*
D03*
X613779Y169783D02*
D03*
X618602Y156595D02*
D03*
X639862Y156299D02*
D03*
X650591Y156102D02*
D03*
X661909Y155905D02*
D03*
X671457Y156102D02*
D03*
X679035Y155807D02*
D03*
X688976D02*
D03*
X694685Y161516D02*
D03*
X695177Y168898D02*
D03*
Y177165D02*
D03*
X695472Y196752D02*
D03*
X695669Y231890D02*
D03*
D88*
X584545Y128184D02*
D03*
Y130743D02*
D03*
Y133302D02*
D03*
Y135861D02*
D03*
X568007D02*
D03*
Y133302D02*
D03*
Y130743D02*
D03*
X442760Y128244D02*
D03*
Y130803D02*
D03*
Y133362D02*
D03*
Y135921D02*
D03*
X426222D02*
D03*
Y133362D02*
D03*
Y130803D02*
D03*
X301032Y128211D02*
D03*
Y130771D02*
D03*
Y133330D02*
D03*
Y135889D02*
D03*
X284493D02*
D03*
Y133330D02*
D03*
Y130771D02*
D03*
X159273Y128331D02*
D03*
Y130890D02*
D03*
Y133449D02*
D03*
Y136008D02*
D03*
X142734D02*
D03*
Y133449D02*
D03*
Y130890D02*
D03*
X584395Y269982D02*
D03*
Y272541D02*
D03*
Y275100D02*
D03*
Y277660D02*
D03*
X567857D02*
D03*
Y275100D02*
D03*
Y272541D02*
D03*
X442739Y270006D02*
D03*
Y272565D02*
D03*
Y275124D02*
D03*
Y277683D02*
D03*
X426200D02*
D03*
Y275124D02*
D03*
Y272565D02*
D03*
X300884Y269890D02*
D03*
Y272449D02*
D03*
Y275008D02*
D03*
Y277567D02*
D03*
X284345D02*
D03*
Y275008D02*
D03*
Y272449D02*
D03*
X159148Y270059D02*
D03*
Y272619D02*
D03*
Y275178D02*
D03*
Y277737D02*
D03*
X142609D02*
D03*
Y275178D02*
D03*
Y272619D02*
D03*
X584418Y411717D02*
D03*
Y414276D02*
D03*
Y416835D02*
D03*
Y419394D02*
D03*
X567879D02*
D03*
Y416835D02*
D03*
Y414276D02*
D03*
X442636Y411698D02*
D03*
Y414257D02*
D03*
Y416816D02*
D03*
Y419375D02*
D03*
X426097D02*
D03*
Y416816D02*
D03*
Y414257D02*
D03*
X300921Y411575D02*
D03*
Y414134D02*
D03*
Y416693D02*
D03*
Y419252D02*
D03*
X284382D02*
D03*
Y416693D02*
D03*
Y414134D02*
D03*
X159277Y411792D02*
D03*
Y414351D02*
D03*
Y416910D02*
D03*
Y419469D02*
D03*
X142738D02*
D03*
Y416910D02*
D03*
Y414351D02*
D03*
X584541Y553445D02*
D03*
Y556004D02*
D03*
Y558563D02*
D03*
Y561122D02*
D03*
X568002D02*
D03*
Y558563D02*
D03*
Y556004D02*
D03*
X442906Y553522D02*
D03*
Y556081D02*
D03*
Y558640D02*
D03*
Y561199D02*
D03*
X426367D02*
D03*
Y558640D02*
D03*
Y556081D02*
D03*
X301099Y553514D02*
D03*
Y556073D02*
D03*
Y558632D02*
D03*
Y561192D02*
D03*
X284560D02*
D03*
Y558632D02*
D03*
Y556073D02*
D03*
X159254Y553445D02*
D03*
Y556004D02*
D03*
Y558563D02*
D03*
Y561122D02*
D03*
X142715D02*
D03*
Y558563D02*
D03*
Y556004D02*
D03*
D89*
X568007Y128184D02*
D03*
X426222Y128244D02*
D03*
X284493Y128211D02*
D03*
X142734Y128331D02*
D03*
X567857Y269982D02*
D03*
X426200Y270006D02*
D03*
X284345Y269890D02*
D03*
X142609Y270059D02*
D03*
X567879Y411717D02*
D03*
X426097Y411698D02*
D03*
X284382Y411575D02*
D03*
X142738Y411792D02*
D03*
X568002Y553445D02*
D03*
X426367Y553522D02*
D03*
X284560Y553514D02*
D03*
X142715Y553445D02*
D03*
D93*
X642190Y102233D02*
D03*
X642190Y100264D02*
D03*
Y98295D02*
D03*
X642190Y96327D02*
D03*
Y94358D02*
D03*
X628804Y94358D02*
D03*
Y96327D02*
D03*
X628804Y98295D02*
D03*
X628804Y100264D02*
D03*
Y102233D02*
D03*
D94*
X639434Y91603D02*
D03*
X637466Y91603D02*
D03*
X635497Y91603D02*
D03*
X633529D02*
D03*
X631560D02*
D03*
X631560Y104988D02*
D03*
X633529D02*
D03*
X635497Y104988D02*
D03*
X637466Y104988D02*
D03*
X639434Y104988D02*
D03*
D95*
X635497Y98295D02*
D03*
D96*
X680059Y99409D02*
D03*
X664429D02*
D03*
D97*
X556793Y120735D02*
D03*
X554234D02*
D03*
X551675D02*
D03*
X549116D02*
D03*
X546557D02*
D03*
X543998D02*
D03*
X541439D02*
D03*
X538880D02*
D03*
X536321D02*
D03*
X533762D02*
D03*
X531203D02*
D03*
X528644D02*
D03*
X526085D02*
D03*
X523526D02*
D03*
X556793Y143766D02*
D03*
X554234D02*
D03*
X551675D02*
D03*
X549116D02*
D03*
X546557D02*
D03*
X543998D02*
D03*
X541439D02*
D03*
X538880D02*
D03*
X536321D02*
D03*
X533762D02*
D03*
X531203D02*
D03*
X528644D02*
D03*
X526085D02*
D03*
X523526D02*
D03*
X415008Y120795D02*
D03*
X412449D02*
D03*
X409890D02*
D03*
X407331D02*
D03*
X404772D02*
D03*
X402213D02*
D03*
X399654D02*
D03*
X397095D02*
D03*
X394536D02*
D03*
X391977D02*
D03*
X389418D02*
D03*
X386859D02*
D03*
X384300D02*
D03*
X381741D02*
D03*
X415008Y143826D02*
D03*
X412449D02*
D03*
X409890D02*
D03*
X407331D02*
D03*
X404772D02*
D03*
X402213D02*
D03*
X399654D02*
D03*
X397095D02*
D03*
X394536D02*
D03*
X391977D02*
D03*
X389418D02*
D03*
X386859D02*
D03*
X384300D02*
D03*
X381741D02*
D03*
X273280Y120763D02*
D03*
X270721D02*
D03*
X268162D02*
D03*
X265603D02*
D03*
X263044D02*
D03*
X260485D02*
D03*
X257926D02*
D03*
X255367D02*
D03*
X252808D02*
D03*
X250249D02*
D03*
X247690D02*
D03*
X245130D02*
D03*
X242571D02*
D03*
X240012D02*
D03*
X273280Y143794D02*
D03*
X270721D02*
D03*
X268162D02*
D03*
X265603D02*
D03*
X263044D02*
D03*
X260485D02*
D03*
X257926D02*
D03*
X255367D02*
D03*
X252808D02*
D03*
X250249D02*
D03*
X247690D02*
D03*
X245130D02*
D03*
X242571D02*
D03*
X240012D02*
D03*
X131521Y120882D02*
D03*
X128962D02*
D03*
X126403D02*
D03*
X123844D02*
D03*
X121285D02*
D03*
X118726D02*
D03*
X116167D02*
D03*
X113608D02*
D03*
X111049D02*
D03*
X108490D02*
D03*
X105931D02*
D03*
X103372D02*
D03*
X100813D02*
D03*
X98254D02*
D03*
X131521Y143914D02*
D03*
X128962D02*
D03*
X126403D02*
D03*
X123844D02*
D03*
X121285D02*
D03*
X118726D02*
D03*
X116167D02*
D03*
X113608D02*
D03*
X111049D02*
D03*
X108490D02*
D03*
X105931D02*
D03*
X103372D02*
D03*
X100813D02*
D03*
X98254D02*
D03*
X556643Y262533D02*
D03*
X554084D02*
D03*
X551525D02*
D03*
X548966D02*
D03*
X546407D02*
D03*
X543848D02*
D03*
X541289D02*
D03*
X538730D02*
D03*
X536171D02*
D03*
X533612D02*
D03*
X531053D02*
D03*
X528494D02*
D03*
X525935D02*
D03*
X523376D02*
D03*
X556643Y285565D02*
D03*
X554084D02*
D03*
X551525D02*
D03*
X548966D02*
D03*
X546407D02*
D03*
X543848D02*
D03*
X541289D02*
D03*
X538730D02*
D03*
X536171D02*
D03*
X533612D02*
D03*
X531053D02*
D03*
X528494D02*
D03*
X525935D02*
D03*
X523376D02*
D03*
X414987Y262557D02*
D03*
X412428D02*
D03*
X409869D02*
D03*
X407310D02*
D03*
X404751D02*
D03*
X402192D02*
D03*
X399633D02*
D03*
X397074D02*
D03*
X394514D02*
D03*
X391955D02*
D03*
X389396D02*
D03*
X386837D02*
D03*
X384278D02*
D03*
X381719D02*
D03*
X414987Y285589D02*
D03*
X412428D02*
D03*
X409869D02*
D03*
X407310D02*
D03*
X404751D02*
D03*
X402192D02*
D03*
X399633D02*
D03*
X397074D02*
D03*
X394514D02*
D03*
X391955D02*
D03*
X389396D02*
D03*
X386837D02*
D03*
X384278D02*
D03*
X381719D02*
D03*
X273132Y262441D02*
D03*
X270573D02*
D03*
X268014D02*
D03*
X265455D02*
D03*
X262895D02*
D03*
X260336D02*
D03*
X257777D02*
D03*
X255218D02*
D03*
X252659D02*
D03*
X250100D02*
D03*
X247541D02*
D03*
X244982D02*
D03*
X242423D02*
D03*
X239864D02*
D03*
X273132Y285472D02*
D03*
X270573D02*
D03*
X268014D02*
D03*
X265455D02*
D03*
X262895D02*
D03*
X260336D02*
D03*
X257777D02*
D03*
X255218D02*
D03*
X252659D02*
D03*
X250100D02*
D03*
X247541D02*
D03*
X244982D02*
D03*
X242423D02*
D03*
X239864D02*
D03*
X131396Y262611D02*
D03*
X128837D02*
D03*
X126277D02*
D03*
X123719D02*
D03*
X121159D02*
D03*
X118600D02*
D03*
X116041D02*
D03*
X113482D02*
D03*
X110923D02*
D03*
X108364D02*
D03*
X105805D02*
D03*
X103246D02*
D03*
X100687D02*
D03*
X98128D02*
D03*
X131396Y285642D02*
D03*
X128837D02*
D03*
X126277D02*
D03*
X123719D02*
D03*
X121159D02*
D03*
X118600D02*
D03*
X116041D02*
D03*
X113482D02*
D03*
X110923D02*
D03*
X108364D02*
D03*
X105805D02*
D03*
X103246D02*
D03*
X100687D02*
D03*
X98128D02*
D03*
X556666Y404268D02*
D03*
X554107D02*
D03*
X551547D02*
D03*
X548988D02*
D03*
X546429D02*
D03*
X543870D02*
D03*
X541311D02*
D03*
X538752D02*
D03*
X536193D02*
D03*
X533634D02*
D03*
X531075D02*
D03*
X528516D02*
D03*
X525957D02*
D03*
X523398D02*
D03*
X556666Y427299D02*
D03*
X554107D02*
D03*
X551547D02*
D03*
X548988D02*
D03*
X546429D02*
D03*
X543870D02*
D03*
X541311D02*
D03*
X538752D02*
D03*
X536193D02*
D03*
X533634D02*
D03*
X531075D02*
D03*
X528516D02*
D03*
X525957D02*
D03*
X523398D02*
D03*
X414884Y404249D02*
D03*
X412325D02*
D03*
X409766D02*
D03*
X407207D02*
D03*
X404648D02*
D03*
X402089D02*
D03*
X399530D02*
D03*
X396971D02*
D03*
X394411D02*
D03*
X391852D02*
D03*
X389293D02*
D03*
X386734D02*
D03*
X384175D02*
D03*
X381616D02*
D03*
X414884Y427281D02*
D03*
X412325D02*
D03*
X409766D02*
D03*
X407207D02*
D03*
X404648D02*
D03*
X402089D02*
D03*
X399530D02*
D03*
X396971D02*
D03*
X394411D02*
D03*
X391852D02*
D03*
X389293D02*
D03*
X386734D02*
D03*
X384175D02*
D03*
X381616D02*
D03*
X273169Y404126D02*
D03*
X270610D02*
D03*
X268051D02*
D03*
X265492D02*
D03*
X262932D02*
D03*
X260373D02*
D03*
X257814D02*
D03*
X255255D02*
D03*
X252696D02*
D03*
X250137D02*
D03*
X247578D02*
D03*
X245019D02*
D03*
X242460D02*
D03*
X239901D02*
D03*
X273169Y427158D02*
D03*
X270610D02*
D03*
X268051D02*
D03*
X265492D02*
D03*
X262932D02*
D03*
X260373D02*
D03*
X257814D02*
D03*
X255255D02*
D03*
X252696D02*
D03*
X250137D02*
D03*
X247578D02*
D03*
X245019D02*
D03*
X242460D02*
D03*
X239901D02*
D03*
X131525Y404343D02*
D03*
X128966D02*
D03*
X126407D02*
D03*
X123848D02*
D03*
X121289D02*
D03*
X118730D02*
D03*
X116171D02*
D03*
X113612D02*
D03*
X111053D02*
D03*
X108494D02*
D03*
X105935D02*
D03*
X103376D02*
D03*
X100817D02*
D03*
X98257D02*
D03*
X131525Y427374D02*
D03*
X128966D02*
D03*
X126407D02*
D03*
X123848D02*
D03*
X121289D02*
D03*
X118730D02*
D03*
X116171D02*
D03*
X113612D02*
D03*
X111053D02*
D03*
X108494D02*
D03*
X105935D02*
D03*
X103376D02*
D03*
X100817D02*
D03*
X98257D02*
D03*
X556789Y545996D02*
D03*
X554230D02*
D03*
X551671D02*
D03*
X549112D02*
D03*
X546553D02*
D03*
X543994D02*
D03*
X541435D02*
D03*
X538876D02*
D03*
X536317D02*
D03*
X533757D02*
D03*
X531199D02*
D03*
X528639D02*
D03*
X526080D02*
D03*
X523521D02*
D03*
X556789Y569028D02*
D03*
X554230D02*
D03*
X551671D02*
D03*
X549112D02*
D03*
X546553D02*
D03*
X543994D02*
D03*
X541435D02*
D03*
X538876D02*
D03*
X536317D02*
D03*
X533757D02*
D03*
X531199D02*
D03*
X528639D02*
D03*
X526080D02*
D03*
X523521D02*
D03*
X415154Y546073D02*
D03*
X412595D02*
D03*
X410036D02*
D03*
X407477D02*
D03*
X404918D02*
D03*
X402359D02*
D03*
X399800D02*
D03*
X397240D02*
D03*
X394682D02*
D03*
X392122D02*
D03*
X389563D02*
D03*
X387004D02*
D03*
X384445D02*
D03*
X381886D02*
D03*
X415154Y569104D02*
D03*
X412595D02*
D03*
X410036D02*
D03*
X407477D02*
D03*
X404918D02*
D03*
X402359D02*
D03*
X399800D02*
D03*
X397240D02*
D03*
X394682D02*
D03*
X392122D02*
D03*
X389563D02*
D03*
X387004D02*
D03*
X384445D02*
D03*
X381886D02*
D03*
X273347Y546065D02*
D03*
X270788D02*
D03*
X268229D02*
D03*
X265670D02*
D03*
X263111D02*
D03*
X260552D02*
D03*
X257993D02*
D03*
X255434D02*
D03*
X252874D02*
D03*
X250315D02*
D03*
X247756D02*
D03*
X245197D02*
D03*
X242638D02*
D03*
X240079D02*
D03*
X273347Y569097D02*
D03*
X270788D02*
D03*
X268229D02*
D03*
X265670D02*
D03*
X263111D02*
D03*
X260552D02*
D03*
X257993D02*
D03*
X255434D02*
D03*
X252874D02*
D03*
X250315D02*
D03*
X247756D02*
D03*
X245197D02*
D03*
X242638D02*
D03*
X240079D02*
D03*
X131502Y545996D02*
D03*
X128943D02*
D03*
X126384D02*
D03*
X123825D02*
D03*
X121265D02*
D03*
X118706D02*
D03*
X116147D02*
D03*
X113588D02*
D03*
X111029D02*
D03*
X108470D02*
D03*
X105911D02*
D03*
X103352D02*
D03*
X100793D02*
D03*
X98234D02*
D03*
X131502Y569028D02*
D03*
X128943D02*
D03*
X126384D02*
D03*
X123825D02*
D03*
X121265D02*
D03*
X118706D02*
D03*
X116147D02*
D03*
X113588D02*
D03*
X111029D02*
D03*
X108470D02*
D03*
X105911D02*
D03*
X103352D02*
D03*
X100793D02*
D03*
X98234D02*
D03*
D98*
X665160Y121270D02*
D03*
X674160D02*
D03*
M02*
