M48
;Layer_Color=9474304
;FILE_FORMAT=2:4
INCH,TZ
;TYPE=PLATED
T01F00S00C0.0118
T02F00S00C0.0402
T03F00S00C0.0512
T04F00S00C0.1260
;TYPE=NON_PLATED
T05F00S00C0.0402
T06F00S00C0.1181
%
T01
X70079Y12402
X69291Y13976
X68898Y15581
X69468Y16152
X69518Y16890
Y17717
X69557Y18711
X69547Y19675
X69069Y20588
X69029Y20949
X69528Y21122
X70079Y15551
X67904Y15581
X67146Y15610
X66191Y15591
X65059Y15610
X63986Y15630
X63284Y16513
X62776Y16513
X63036Y17319
X63032Y17913
X63025Y18500
X62774Y19306
X63285Y19304
X63583Y19882
X62894Y20472
X63484Y21063
X64272Y20472
X64567Y20276
X65382Y20091
X66142Y20276
X65567Y21039
X67628Y21191
X67963Y21142
X68327
X68307Y20768
X67953
X67943Y20404
X67579Y20394
Y20768
X68327Y20394
X68643Y19883
X68233Y19577
X67865Y19561
X66966Y19598
X66911Y18798
X66488Y17901
X66599Y16610
X67323Y17028
X67717Y17126
X68110Y16929
X67854Y18307
X68642
X65846Y19094
X65354Y18701
X64173Y18701
Y17913
X64272Y17126
X64567Y17126
X61378Y16978
X61398Y17943
X61407Y18760
X61388Y19459
X60630Y18701
X60049Y18694
X58989Y18926
X59143Y17809
X59843Y17126
X58268
X57480Y18701
X56506Y18694
X55446Y18926
X55600Y17809
X54331Y18701
X53543Y17126
X53379Y14633
X53890Y14624
X54400Y14626
X54913Y14624
X54661Y14165
X54142Y14169
X53632Y14140
X53120Y13808
X53115Y12337
X53631Y12326
X54143Y12310
X54655Y12307
X54402Y11851
X54906Y11834
X53881Y11840
X53372Y11823
X53543Y10827
X55600Y10722
X55668Y11504
X56506Y11608
X56693Y10827
X57785Y11214
X58268Y10827
X59143Y10722
X59843Y10827
X60049Y11608
X61122Y11811
X61024Y12303
X61417
X61811
X61713Y11811
Y12795
X61220
X60630Y12402
X59489Y13398
X59143Y14265
X58268Y13976
X57628Y13498
Y12907
X57480Y12402
X58989Y11840
X59055Y9252
X58989Y8296
X59143Y7179
X58268Y7677
X56506Y8064
X55446Y8296
X55600Y7179
X53543Y7677
X57480Y9252
X60630
X61461Y9959
X61417Y10827
X62556Y10892
X62500Y11220
X63091Y11122
X62795Y10630
X62402Y10532
X63298Y10087
X63782Y10091
X63600Y9858
X63349Y9643
X63776Y9561
X64913Y9203
X65354Y9252
X65717Y9212
X66929Y9252
X67028Y8268
X66339
X66142Y7677
X67717
X68504Y9252
Y12402
X67913Y13386
X66929
Y14370
X67913
X66142Y13976
X65453Y13976
X64370
X63386
X62500Y13583
X61417Y13976
X61860Y15659
X60630Y15551
X60049Y15151
X58989Y15383
X57480Y15551
X56506Y15151
X55446Y15383
X55430Y13845
X55147Y14103
X56069Y14264
X56693Y13976
X55659Y12907
X55069
X55585Y21358
X59128
X61378Y21309
X64816Y12640
X65354Y12402
X65698Y12390
X64567Y7677
X60049Y8064
X52962
X51903Y8296
X52057Y7179
X50394Y7677
X49419Y8064
X48359Y8296
X48513Y7179
X47244Y7677
X45870Y8070
X44811Y8302
X44965Y7185
X44094Y7677
X42327Y8070
X41267Y8302
X41422Y7185
X39370Y7677
X38784Y8070
X37724Y8302
X37878Y7185
Y10728
X37724Y11846
X38769Y11464
X39194Y11829
X39702Y11846
X40223Y11857
X40728Y11840
X40476Y12313
X39965Y12316
X39452Y12332
X38937Y12343
X38942Y13814
X39453Y14146
X39963Y14175
X40482Y14171
X40969Y14109
X41251Y13851
X41890Y14270
X42520Y13976
X42327Y15157
X41267Y15389
X40734Y14630
X40222Y14632
X39712Y14630
X39201Y14639
X38784Y15157
X37724Y15389
X37878Y14271
X37795Y17126
X37878Y17815
X37724Y18932
X38784Y18700
X40157Y18701
X41267Y18932
X41422Y17815
X42327Y18700
X43307Y18701
X44811Y18932
X44965Y17815
X45669Y17126
X47244
X48819
X48513Y17809
X48359Y18926
X49419Y18694
X51903Y18926
X52057Y17809
X51968Y17126
X51903Y15383
X52057Y14265
X50411Y14328
X50752Y13769
X51079Y13111
X50077Y12060
X49606Y12402
X49419Y11608
X48359Y11840
X48513Y10722
X47244Y10827
X45669
X44965Y10728
X44094Y10827
X43607Y11220
X42520Y10827
X42327Y11614
X41490Y11510
X41422Y10728
X39370Y10827
X40890Y12913
X41481
X43449
Y13504
X44094Y13976
X44965Y14271
X45669Y13976
X45310Y13404
X44811Y11846
X45870Y11614
X46457Y12402
X47244Y13976
X48513Y14265
X48359Y15383
X49419Y15151
X49606Y15551
X46457
X45870Y15157
X44811Y15389
X43307Y15551
X44094Y17126
X45870Y18700
X46457Y18701
X44963Y21361
X48498Y21358
X52042
X52962Y18694
Y15151
X52948Y11458
X51903Y11840
X52057Y10722
X52756Y9252
X51181
X43307Y12402
X39370Y17126
X37876Y21361
X41419
X34333
X34181Y18932
X34335Y17815
X34646Y17126
X35240Y18700
X32283Y18701
X31698Y18697
X30638Y18929
X30792Y17811
X31496Y17126
X29921
X29134Y18701
X28154Y18697
X27095Y18929
X27249Y17811
X25984Y18701
X24611Y18697
X23551Y18929
X23705Y17811
X23622Y17126
X25197
X24611Y15154
X25028Y14636
X25539Y14627
X26049Y14629
X26562Y14626
X26309Y14168
X25790Y14172
X25281Y14142
X24769Y13811
X24764Y12339
X25279Y12329
X25792Y12313
X26303Y12310
X26050Y11853
X26555Y11836
X25529Y11843
X25021Y11825
X24597Y11461
X25197Y10827
X23705Y10725
X23551Y11842
X22731Y13330
X22399Y13749
X22056Y14370
X23705Y14268
X23551Y15386
X27095
X28154Y15154
X27717Y14267
X28346Y13976
X27078Y13848
X26796Y14106
X26717Y12910
X27308
X27317Y11507
X27249Y10725
X28346Y10827
X28154Y11611
X29434Y11217
X29921Y10827
X30792Y10725
X31496Y10827
X31698Y11611
X30638Y11842
X31137Y13401
X31496Y13976
X30792Y14268
X29921Y13976
X29276Y13500
Y12910
X29134Y12402
X32283
X33071Y13976
X34335Y14271
X34181Y15389
X35240Y15157
X35433Y15551
X36656Y14479
X36308Y13763
X35968Y13328
X35433Y12402
X35240Y11614
X34181Y11846
X34335Y10728
X33071Y10827
X33858Y9252
X34181Y8302
X34335Y7185
X33071Y7677
X31698Y8067
X30638Y8299
X30709Y9252
X32283
X35433
X35240Y8070
X36220Y7677
X36995Y12398
X32283Y15551
X31698Y15154
X30638Y15386
X29134Y15551
Y9252
X28154Y8067
X27095Y8299
X27249Y7181
X25197Y7677
X24611Y8067
X23551Y8299
X23705Y7181
X22047Y7677
X22835Y9252
X24409
X29921Y7677
X30792Y7181
X30777Y21349
X27234
X23691
X20147
X18898Y20276
X17323
X15748
X14173
X12598
X13060Y21366
X12919Y18941
X13073Y17823
X13978Y18709
X14961Y18701
X16462Y18941
X16616Y17823
X17323Y17126
X15748
X14961Y15551
X13978Y15166
X12919Y15398
X12386Y14638
X11873Y14641
X11363Y14639
X10852Y14648
X11105Y14154
X11614Y14184
X12133Y14180
X12620Y14118
X12902Y13860
X13541Y14279
X14173Y13976
X15100Y13512
Y12922
X14961Y12402
X15258Y11229
X15748Y10827
X16616Y10737
X17323Y10827
X17522Y11622
X16462Y11854
X16961Y13413
X17323Y13976
X16616Y14280
X15748Y13976
X16462Y15398
X17522Y15166
X18110Y15551
X20008Y15386
X20162Y14268
X18898Y13976
X18110Y12402
X18898Y10827
X20162Y10725
X20008Y11842
X21068Y11611
X21260Y12402
X21728Y12075
X21068Y15154
X21260Y15551
X20472Y17126
X20162Y17811
X20008Y18929
X21068Y18697
X18110Y18701
X17522Y18709
X16604Y21366
X11024Y20276
X9449
X9517Y21366
X9375Y18941
X9530Y17823
X9449Y17126
X11024
X10435Y18709
X11811Y18701
X10435Y15166
X9375Y15398
X9530Y14280
X8237Y14408
X7885Y13783
X7557Y13383
X7087Y12402
X6892Y11622
X8542Y12228
X9375Y11854
X9530Y10737
X11024Y10827
X10845Y11837
X11354Y11855
X11875Y11865
X12379Y11848
X12127Y12321
X11616Y12325
X11104Y12341
X10588Y12351
X10421Y11473
X10593Y13823
X12541Y12922
X13132
X13141Y11519
X13073Y10737
X14173Y10827
X13978Y11622
Y8079
X12919Y8311
X13073Y7193
X11024Y7677
X10435Y8079
X9375Y8311
X9530Y7193
X7874Y7677
X6892Y8079
X7087Y9252
X6892Y15166
X7087Y15551
X6299Y17126
X6892Y18709
X6299Y20276
X15748Y7677
X16462Y8311
X16616Y7193
X17522Y8079
X18898Y7677
X20008Y8299
X20162Y7181
X21068Y8067
X5832Y8311
X5512Y9252
X5986Y10737
X5832Y11854
X4724Y10827
X3150
X3937Y12402
X3150Y13976
X4724
X5986Y14280
X5832Y15398
X3937Y15551
X3150Y17126
X4724
X5986Y17823
X5832Y18941
X3937Y18701
X3150Y20276
X4724
X5974Y21366
X5986Y7193
X5512Y21850
X5820Y22484
X4724Y23425
X3150
X3937Y25000
X5512
X5974Y24910
X5820Y26027
X4724Y26575
X3150
X3937Y28150
X5512
X5974Y28453
X5820Y29570
X4724Y29724
X3150
X3937Y31299
X5512
X5974Y31996
X5820Y33114
X4724Y32874
X3150
X3937Y34449
X5512
X5987Y35539
X5833Y36657
X4724Y36024
X3150
X3937Y21850
X6879Y22252
X6299Y23425
X6879Y25795
X7544Y27064
X7889Y27758
X8246Y28543
X9517Y28453
X9363Y29570
X10422Y29339
X10840Y28821
X11351Y28812
X11861Y28813
X12373Y28811
X12121Y28352
X11602Y28357
X11092Y28327
X10581Y27996
X10575Y26524
X11091Y26514
X11603Y26498
X12115Y26494
X11862Y26038
X12366Y26021
X11341Y26028
X10832Y26010
X10408Y25646
X9363Y26027
X8569Y26343
X9517Y24910
X9449Y23425
X9363Y22484
X10422Y22252
X11024Y23425
X12598
X12906Y22484
X13966Y22252
X14173Y23425
X15748
X17323
X17509Y22252
X18110Y21850
X16450Y22484
X16604Y24910
X16450Y26027
X17509Y25795
X18110Y25000
X19685
X20147Y24893
X19993Y26010
X21053Y25778
X21731Y26388
X21053Y29322
X19993Y29554
X18898Y29724
X17509Y29339
X16450Y29570
X15748Y29724
X14173
X13966Y29339
X12906Y29570
X12890Y28033
X12608Y28291
X13529Y28452
X14961Y28150
X15088Y27685
Y27095
X15245Y25402
X14961Y25000
X13966Y25795
X13129Y25692
X13060Y24910
X13119Y27095
X12529
X11024Y29724
X11811Y31299
X13386
X13060Y31996
X12906Y33114
X13966Y32882
X15748Y32874
X16450Y33114
X16604Y31996
X16535Y31299
X18110
X19685
X20147Y31979
X19993Y33097
X21053Y32865
X21260Y31299
Y34449
X19685
X20151Y35518
X19997Y36635
X21056Y36404
X18898Y36024
X17522Y36425
X16462Y36657
X16617Y35539
X16535Y34449
X18110
X17509Y32882
X18898Y32874
X19685Y28150
X20147Y28436
X18110Y28150
X16949Y27586
X16604Y28453
X14961Y31299
Y34449
X13386
X13073Y35539
X12919Y36657
X13979Y36425
X15748Y36024
X11024
X10435Y36425
X9376Y36657
X9530Y35539
X10236Y34449
X11811
X11024Y32874
X10422Y32882
X9363Y33114
X9517Y31996
X7874Y32874
X6879Y32882
X7087Y34449
X8661
X7874Y36024
X6892Y36425
X7087Y31299
X6879Y29339
X7874Y29724
X11811Y21850
X19993Y22467
X21053Y22235
X20472Y23425
X23622
X23537Y22467
X24596Y22235
X25984Y21850
X27080Y22467
X26772Y23425
X28346
X28139Y22235
X30623Y22467
X31683Y22235
X32283Y21850
X33858
X34179Y22479
X35238Y22247
X34646Y23425
X34333Y24904
X33858Y25000
X34179Y26022
X35238Y25790
X36980Y26431
X35975Y27474
X36320Y27947
X36647Y28741
X35238Y29333
X34179Y29565
X33071Y29724
X31683Y29322
X30623Y29554
X29921Y29724
X28346
X28139Y29322
X27080Y29554
X26547Y28794
X26034Y28796
X25524Y28795
X25013Y28804
X25266Y28310
X25775Y28340
X26294Y28335
X26781Y28274
X27063Y28016
X27702Y28435
X29134Y28150
X29261Y27668
Y27078
X29419Y25385
X29134Y25000
X30777Y24893
X30623Y26010
X31683Y25778
X32283Y25000
X31496Y23425
X29921
X28139Y25778
X27302Y25675
X27234Y24893
X26540Y26004
X26036Y26021
X25515Y26011
X25006Y25993
X25265Y26497
X24749Y26507
X24582Y25629
X23537Y26010
X23691Y24893
X25197Y23425
X25777Y26481
X26289Y26477
X26702Y27078
X27293
X24754Y27979
X24596Y29322
X25197Y29724
X23537Y29554
X23691Y28436
X22068Y28567
X22406Y27812
X22725Y27239
X23691Y31979
X23537Y33097
X24596Y32865
X25197Y32874
X27080Y33097
X27234Y31979
X28139Y32865
X29921Y32874
X30623Y33097
X30777Y31979
X31683Y32865
X33071Y32874
X34179Y33108
X34333Y31991
X35238Y32877
X36220Y32874
X37008Y34449
X35433
X33858
X34322Y35530
X34168Y36648
X35228Y36416
X36220Y36024
X33071
X31686Y36404
X30627Y36635
X30781Y35518
X30709Y34449
X32283
X29134
X27559
X27238Y35518
X27084Y36635
X28143Y36404
X29921Y36024
X25197
X24600Y36404
X23540Y36635
X23694Y35518
X24409Y34449
X25984
X22835
X22047Y36024
Y32874
X30777Y28436
X31122Y27569
X32283Y28150
X33858
X34333Y28447
X37876
X37722Y29565
X38782Y29333
X39199Y28815
X39710Y28806
X40220Y28808
X40732Y28806
X40480Y28347
X39961Y28351
X39451Y28322
X38940Y27990
X38934Y26519
X39450Y26508
X39962Y26493
X40474Y26489
X40221Y26033
X40726Y26016
X39700Y26022
X39191Y26005
X38767Y25641
X37722Y26022
X37876Y24904
X37795Y23425
X37722Y22479
X38782Y22247
X39370Y23425
X40945
X41265Y22479
X42325Y22247
X42520Y23425
X44094
X45669
X45868Y22247
X46457Y21850
X48031
X48344Y22476
X49404Y22244
X48819Y23425
X47244
X48031Y25000
X48498Y24902
X48344Y26019
X49404Y25788
X50076Y26537
X50412Y27918
X50734Y27639
X51074Y27321
X52042Y28445
X51888Y29563
X52947Y29331
Y32874
X51888Y33106
X52042Y31988
X50394Y32874
X49404Y32874
X48344Y33106
X48498Y31988
X48031Y31299
X49606
X49404Y29331
X48344Y29563
X47244Y29724
X45868Y29333
X44809Y29565
X44094Y29724
X42520
X42325Y29333
X41265Y29565
X41249Y28027
X40967Y28285
X41888Y28446
X43307Y28150
X43447Y27680
Y27089
X43604Y25396
X43307Y25000
X44963Y24904
X44809Y26022
X45868Y25790
X46457Y25000
Y28150
X48031
X48498Y28445
X44963Y28447
X45308Y27581
X44882Y31299
X44963Y31991
X44809Y33108
X44094Y32874
X42325Y32877
X41265Y33108
X41419Y31991
X41732Y31299
X43307
X46457
X45868Y32877
X47244Y32874
X48031Y34449
X48501Y35532
X48347Y36650
X49406Y36418
X50394Y36024
X51890Y36650
X52044Y35532
X52949Y36418
X52756Y34449
X51181
X49606
X46457
X44882
X44952Y35530
X44798Y36648
X45858Y36416
X47244Y36024
X44094
X42315Y36416
X41255Y36648
X41409Y35530
X41732Y34449
X43307
X40157
X38583
X38782Y32877
X39370Y32874
X37722Y33108
X37876Y31991
X40157Y31299
X39370Y29724
X40888Y27089
X41478
X41488Y25686
X41419Y24904
X42325Y25790
X44809Y22479
X40157Y21850
X51888Y22476
X51968Y23425
X52042Y24902
X51888Y26019
X52933Y25638
X52947Y22244
X39370Y36024
X38771Y36416
X37712Y36648
X37866Y35530
X53543Y36024
X54331Y34449
X55906
X55587Y35532
X55433Y36650
X56493Y36418
X58268Y36024
X58977Y36650
X59131Y35532
X59055Y34449
X58974Y33106
X58268Y32874
X59128Y31988
X60034Y32874
X61417Y32874
X61705Y33146
X62047Y33365
X62057Y34113
X62187Y34526
X63205Y34658
X63211Y35215
X63215Y35765
X64322Y36570
X65532Y36146
X66142Y36024
X66713Y35261
X66614Y34178
X65532Y34572
Y33292
X64299Y33357
X63745Y33678
X62631Y33740
X63188Y32654
X63205Y31876
X63199Y31316
X62178Y31335
X62062Y30933
X62062Y30194
X61713Y29921
X60977Y30210
X60034Y29331
X58974Y29563
X58268Y29724
X56693
X56491Y29331
X55431Y29563
X54898Y28803
X54385Y28806
X53875Y28804
X53364Y28813
X53617Y28320
X54127Y28349
X54646Y28345
X55132Y28283
X55415Y28025
X56054Y28444
X57480Y28150
X57613Y27677
Y27087
X57770Y25394
X57480Y25000
X59128Y24902
X58974Y26019
X60034Y25788
X60630Y25000
X61476Y24872
X61378Y23957
Y23061
X61398Y22136
X60630Y21850
X60034Y22244
X58974Y22476
X58268Y23425
X59843
X56693
X56491Y22244
X55431Y22476
X55118Y23425
X53543
X54331Y21850
X54387Y26030
X54891Y26014
X54640Y26487
X54128Y26490
X53616Y26506
X53100Y26517
X53357Y26003
X53866Y26020
X55653Y25684
X55585Y24902
X56491Y25788
X55644Y27087
X55054
X53105Y27988
X53543Y29724
Y32874
X55431Y33106
X55585Y31988
X56491Y32874
X57480Y34449
X60630
X60977Y33442
X60036Y36418
X66640Y37164
X68140Y34365
X66713Y32701
X65523Y31919
X65354Y31299
X66122Y31127
X65630Y30339
X64346Y30189
X64341Y30841
X63746Y30563
X62651Y30581
X62992Y29724
X64567
X65354Y28150
X66929
X66782Y30026
X67717Y29724
X68504Y31299
X67717Y26575
X66142
X65970Y25358
X64887
X63903
X63286Y24516
X62778Y24518
X63034Y23769
X63032Y23228
Y22638
X62772Y21739
X63297Y21735
X64272Y22343
Y23917
X66500Y24335
X66882Y23536
X67296Y23093
X67854Y23228
X68642
X68498Y21925
X68061Y21949
X67608Y22028
X66850Y22047
X66476Y22343
X67126Y25394
X64567Y26575
X62431Y25305
X62205Y28150
X60630
X59474Y27578
X59128Y28445
X69291Y29724
X69664Y31061
X69966Y30772
X70230Y31603
X70604Y31586
X70272Y32543
X70268Y33337
X70049Y33656
X69523Y33892
X68727Y33971
X68996Y32879
X68986Y32377
Y31885
X69518Y34946
X69291Y36024
X70710Y34194
X69291Y26575
X69390Y25098
X69547Y23898
X69567Y23189
X69537Y22589
X69557Y21890
X69291Y39173
Y42323
X68762Y44742
X69491Y45253
X69540Y45992
Y46818
X69569Y47980
Y48777
Y49889
X69103Y50082
X69091Y49689
X70079Y50197
X69579Y51090
X69589Y52291
X68664Y52330
X67876
X67306Y52183
X66904Y52637
X65947Y52133
X66142Y51772
X66498Y51444
X66872Y51149
X67630Y51129
X68083Y51051
X68520Y51027
X68349Y50244
X67985
X67975Y49870
X68329
X68349Y49496
X67965Y49505
X67601Y49496
Y49870
Y50244
X67887Y48663
X68324Y48679
X68665Y48985
X68664Y47409
X68504Y47047
X67876Y47409
X66934Y47900
X66989Y48700
X66142Y48622
X65849Y48196
X65404Y49193
X64766Y49574
X65589Y50141
X63880Y50263
X63309Y50844
X62804Y50834
X63054Y51740
Y52330
X61400Y52163
X61420Y51238
X61400Y50411
X60630Y50197
X60048Y50591
X58989Y50822
X59143Y49705
X58977Y47279
X59131Y46162
X59843Y45472
X58268
X57480Y47047
X56493Y47048
X55433Y47279
X55587Y46162
X54331Y47047
X53543Y45472
X53367Y42986
X53878Y42978
X54388Y42979
X54900Y42977
X54648Y42518
X54129Y42522
X53619Y42493
X53108Y42161
X53102Y40690
X53618Y40679
X54130Y40664
X54642Y40660
X54389Y40204
X54893Y40187
X53868Y40193
X53359Y40176
X53543Y39173
X55587Y39075
X55656Y39857
X56493Y39961
X56693Y39173
X57772Y39567
X58268Y39173
X59131Y39075
X59843Y39173
X60036Y39961
X58977Y40193
X57480Y40748
X57615Y41260
Y41968
X58268Y42323
X59131Y42618
X59476Y41752
X60630Y40748
X62205
X63780
X65354
X66929
X68504
X67717Y42323
X66142
X66213Y44692
X66046Y45440
X66621Y45712
X67325Y45342
X67717Y45472
X68113Y45342
X67926Y44683
X67168Y44712
X65081
X64882Y45430
X64063Y45308
X64008Y44732
X63780Y43898
X63315Y45621
X62804Y45619
X63058Y46421
X63054Y47015
X63047Y47602
X62795Y48403
X63324Y48392
X63585Y49181
X63093Y49771
X62205Y50197
Y47047
X61417Y46850
X61421Y47747
X60630Y47047
X60036Y47048
X61380Y45822
X61882Y44761
X61417Y42323
X62992
X60036Y43504
X58977Y43736
X57480Y43898
X56493Y43504
X55433Y43736
X55417Y42198
X55135Y42456
X56056Y42617
X56693Y42323
X55646Y41260
X55056
X55600Y49705
X55446Y50822
X55118Y51772
X56693
X56505Y50591
X54331Y50197
X53543Y51772
X58268
X59843
X64274Y47803
X64372Y47015
X63780Y47047
X64274Y46228
X65849Y46523
X66510Y47003
X68504Y43898
X67717Y39173
X66142
X65236Y37820
X63780Y37598
X62205
X66929
X68504
X52935Y39812
X51890Y40193
X51188Y39913
X52044Y39075
X49406Y39961
X49606Y40748
X50172Y41340
X50505Y42066
X50847Y42711
X52044Y42618
X51890Y43736
X52949Y43504
X51968Y45472
X52044Y46162
X51890Y47279
X52949Y47048
X49406
X48347Y47279
X48501Y46162
X48819Y45472
X47244
X45669
X44952Y46160
X44798Y47278
X45858Y47046
X46457Y47047
Y50197
X45885Y50598
X44825Y50830
X44979Y49712
X45669Y51772
X47244
X48819
X48359Y50822
X48031Y50197
X48513Y49705
X49418Y50591
X51902Y50822
X51968Y51772
X52056Y49705
X52962Y50591
X44094Y51772
X42520
X42342Y50598
X41282Y50830
X41436Y49712
X40157Y50197
X38798Y50598
X37739Y50830
X37795Y51772
X39370
X40945
X41255Y47278
X41409Y46160
X42315Y47046
X43307Y47047
X44094Y45472
X43307Y43898
X42315Y43502
X41255Y43734
X40722Y42975
X40209Y42977
X39699Y42976
X39188Y42984
X39441Y42491
X39951Y42521
X40470Y42516
X40957Y42454
X41239Y42197
X41878Y42615
X42520Y42323
X43437Y41849
Y41258
X43307Y40748
X43594Y39565
X44094Y39173
X44952Y39073
X45669Y39173
X45858Y39959
X44798Y40191
X45298Y41750
X45669Y42323
X44952Y42617
X44094Y42323
X44798Y43734
X45858Y43502
X46457Y43898
X48347Y43736
X48501Y42618
X47244Y42323
X46457Y40748
X47244Y39173
X48501Y39075
X48347Y40193
X48031Y37598
X49606
X46457
X44882
X43307
X42520Y39173
X42315Y39959
X41477Y39856
X41409Y39073
X40715Y40185
X40211Y40202
X39690Y40192
X39181Y40174
X39440Y40678
X38924Y40688
X38757Y39810
X39370Y39173
X37866Y39073
X37712Y40191
X37866Y42617
X37712Y43734
X38771Y43502
X38929Y42160
X39952Y40662
X40464Y40658
X40878Y41258
X41468
X39370Y45472
X37795
X37866Y46160
X37712Y47278
X38771Y47046
X40157Y47047
X37893Y49712
X38583Y37598
X49406Y43504
X49606Y43898
X35433
X35228Y43502
X34168Y43734
X34322Y42617
X33071Y42323
X31496
X31126Y41737
X30781Y42604
X29921Y42323
X29265Y41837
Y41246
X29134Y40748
X29423Y39553
X29921Y39173
X30781Y39061
X31496Y39173
X31686Y39947
X30627Y40179
X32283Y40748
X33071Y39173
X34322Y39073
X34168Y40191
X35228Y39959
X35433Y40748
X35997Y40402
X37008Y41339
X36664Y41987
X36328Y42869
X34646Y45472
X34322Y46160
X34168Y47278
X35228Y47046
X32283Y47047
X31686Y47034
X30627Y47265
X30781Y46148
X31496Y45472
X29921
X29134Y47047
X28143Y47034
X27084Y47265
X27238Y46148
X25984Y47047
X24600Y47034
X23540Y47265
X23694Y46148
X23622Y45472
X25197
X24600Y43490
X25017Y42972
X25528Y42963
X26038Y42965
X26550Y42963
X26298Y42504
X25779Y42508
X25269Y42479
X24758Y42147
X24753Y40676
X25268Y40665
X25781Y40650
X26292Y40646
X26039Y40190
X26544Y40173
X25518Y40179
X25010Y40162
X24586Y39797
X25197Y39173
X23694Y39061
X23540Y40179
X22833Y40608
X21826Y41601
X22174Y42057
X22494Y42853
X23694Y42604
X23540Y43722
X27084
X28143Y43490
X27706Y42603
X28346Y42323
X27067Y42184
X26785Y42442
X26706Y41246
X27297
X27306Y39843
X27238Y39061
X28346Y39173
X28143Y39947
X29134Y43898
X30627Y43722
X31686Y43490
X32283Y43898
Y50197
X31704Y50597
X30645Y50829
X30799Y49712
X31496Y51772
X33071
X34646
X34195Y50830
X33858Y50197
X34349Y49712
X35255Y50598
X29921Y51772
X28346
X28161Y50597
X27101Y50829
X27255Y49712
X25984Y50197
X24618Y50597
X23558Y50829
X23622Y51772
X25197
X26772
X23712Y49712
X37008Y37598
X21260
X19685
X18110
X16535
X16617Y39083
X17323Y39173
X17522Y39969
X16462Y40200
X15748Y39173
X15258Y39575
X14961Y40748
X15101Y41268
Y41858
X15748Y42323
X16617Y42626
X17323Y42323
X16962Y41759
X18110Y40748
X18898Y42323
X20151Y42604
X19997Y43722
X21056Y43490
X21260Y43898
X20472Y45472
X20151Y46148
X19997Y47265
X21056Y47034
X18110Y47047
X17522Y47055
X16462Y47287
X16617Y46169
X17323Y45472
X15748
X14961Y47047
X13979Y47055
X12919Y47287
X13073Y46169
X11811Y47047
X10435Y47055
X9376Y47287
X9530Y46169
X9449Y45472
X11024
X10435Y43512
X10852Y42994
X11363Y42985
X11874Y42987
X12386Y42984
X12134Y42526
X11615Y42530
X11105Y42500
X10594Y42169
X10588Y40697
X11104Y40687
X11616Y40671
X12128Y40668
X11875Y40211
X12379Y40194
X11354Y40201
X10845Y40183
X10421Y39819
X11024Y39173
X9530Y39083
X9376Y40200
X8661Y40748
X8661Y41620
X8340Y42062
X8014Y42928
X6892Y43512
X7087Y43898
X6299Y45472
X6892Y47055
X6299Y48622
X6890Y50591
X6299Y51772
X9449
X9374Y50822
X9528Y49705
X9449Y48622
X11024
X12598
X13071Y49705
X12917Y50822
X12598Y51772
X14173
X13976Y50591
X14173Y48622
X15748
X17323
X18898
X20169Y49712
X19685Y50197
X20015Y50829
X21074Y50597
X20472Y51772
X17323
X17520Y50591
X18110Y50197
X16614Y49705
X16460Y50822
X15748Y51772
X11024
X10433Y50591
X11811Y50197
X12919Y43744
X13979Y43512
X13542Y42625
X14173Y42323
X12903Y42206
X12621Y42464
X12542Y41268
X13132
X13142Y39865
X13073Y39083
X14173Y39173
X13979Y39969
X14961Y37598
X10236
X8661
X7087
X6892Y39969
X7087Y40748
X7660Y40489
X9530Y42626
X9376Y43744
X14961Y43898
X16462Y43744
X17522Y43512
X18110Y43898
X18898Y39173
X20151Y39061
X19997Y40179
X21056Y39947
X21260Y40748
X5833Y40200
X5987Y39083
X4724Y39173
X3150
X3937Y40748
X3150Y42323
X4724
X5987Y42626
X5833Y43744
X3937Y43898
X3150Y45472
X4724
X5987Y46169
X5833Y47287
X3937Y47047
X3150Y48622
X4724
X5984Y49705
X5512Y50197
X5830Y50822
X4724Y51772
X3150
X3937Y50197
Y37598
X5512
Y53346
X5984Y53248
X5830Y54366
X4724Y54921
X3150
X3937Y56496
X5512
X5984Y56791
X5830Y57909
X4724Y58071
X3150
X5512Y59646
X5984Y60335
X5830Y61452
X3937Y53346
X6890Y54134
X7647Y54451
X9374Y54366
X9528Y53248
X10419Y53984
X10843Y54349
X11352Y54366
X11873Y54377
X12377Y54360
X12126Y54833
X11614Y54837
X11102Y54852
X10586Y54863
X10591Y56334
X11103Y56666
X11612Y56695
X12131Y56691
X12618Y56629
X12900Y56371
X13539Y56790
X13976Y57677
X14173Y58071
X12917Y57909
X12384Y57150
X11871Y57152
X11361Y57150
X10850Y57159
X10433Y57677
X11024Y58071
X9374Y57909
X9528Y56791
X8309Y56259
X8636Y55642
X7984Y57059
X6890Y57677
X7087Y59646
X6890Y61220
X7874Y61220
X9374Y61452
X9528Y60335
X10433Y61220
X11024Y61220
X12917Y61452
X13071Y60335
X13976Y61220
X15748Y61220
X16460Y61452
X16614Y60335
X17520Y61220
X18898Y61220
X20015Y61459
X20169Y60342
X21074Y61227
Y57684
X20015Y57916
X20169Y56798
X19685Y56496
X18110
X16959Y55924
X16614Y56791
X16460Y57909
X15748Y58071
X17520Y57677
X18898Y58071
X20015Y54373
X20169Y53255
X19685Y53346
X18110
X17520Y54134
X16460Y54366
X16614Y53248
X14961Y53346
X15256Y53740
X13976Y54134
X13139Y54030
X13071Y53248
X13130Y55433
X12539
X15098
Y56024
X14961Y56496
X21074Y54141
X22841Y54815
X23558Y54373
X23712Y53255
X24603Y53991
X25027Y54356
X25536Y54373
X26057Y54384
X26562Y54367
X26310Y54840
X25798Y54843
X25286Y54859
X24770Y54870
X24776Y56341
X25287Y56673
X25797Y56702
X26316Y56698
X26803Y56636
X27085Y56378
X27724Y56797
X28161Y57684
X28346Y58071
X27101Y57916
X26568Y57157
X26056Y57159
X25546Y57157
X25035Y57166
X24618Y57684
X25197Y58071
X23558Y57916
X23712Y56798
X22501Y57043
X22152Y56293
X21830Y55887
X26724Y55440
X27314
X27324Y54037
X27255Y53255
X28161Y54141
X29440Y53747
X29134Y53346
X30799Y53255
X30645Y54373
X31704Y54141
X32283Y53346
X33858
X34349Y53256
X34195Y54373
X35255Y54142
X36012Y54651
X36993Y55568
X36677Y56101
X36340Y57094
X35255Y57685
X34195Y57917
X34349Y56799
X33858Y56496
X32283
X31144Y55931
X30799Y56798
X30645Y57916
X29921Y58071
X31704Y57684
X33071Y58071
X33858Y59646
X34349Y60342
X34195Y61460
X35255Y61228
X36220Y61220
X35433Y59646
X32283
X30709
X30799Y60342
X30645Y61459
X29921Y61220
X28161Y61227
X27101Y61459
X27255Y60342
X27559Y59646
X29134
Y56496
X29283Y56031
Y55440
X33071Y54921
Y61220
X31704Y61227
X25197Y61220
X24618Y61227
X23558Y61459
X23712Y60342
X22047Y61220
X25984Y59646
X37893Y60342
X37739Y61460
X38798Y61228
X39370Y61220
X41282Y61460
X41436Y60342
X42342Y61228
X44094Y61220
X44825Y61460
X44979Y60342
X45885Y61228
X47244Y61220
X48359Y61452
X48513Y60335
X49418Y61221
X50394Y61220
X51902Y61452
X52056Y60335
X52962Y61221
Y57677
X51902Y57909
X52056Y56791
X50834Y56980
X50515Y56248
X50164Y55570
X49418Y54134
X48359Y54366
X48513Y53248
X48031Y53346
X46457
X45885Y54142
X44825Y54373
X44979Y53256
X43307Y53346
X43621Y53748
X42342Y54142
X41504Y54038
X41436Y53256
X40742Y54367
X40238Y54384
X39717Y54374
X39208Y54356
X39467Y54860
X38951Y54870
X38784Y53992
X37739Y54373
X37893Y53256
Y56799
X37739Y57917
X38798Y57685
X39215Y57167
X39726Y57158
X40236Y57160
X40749Y57157
X40497Y56699
X39978Y56703
X39468Y56673
X38956Y56342
X39370Y58071
X41282Y57917
X42342Y57685
X42520Y58071
X44094
X44825Y57917
X44979Y56799
X45325Y55932
X46457Y56496
X48031
X48513Y56791
X48359Y57909
X47244Y58071
X45885Y57685
X49418Y57677
X47244Y54921
X43464Y55441
Y56031
X43307Y56496
X41905Y56798
X41266Y56379
X40984Y56637
X40905Y55441
X41495
X40491Y54841
X39979Y54844
X51179Y54031
X51902Y54366
X52056Y53248
X52948Y53984
X53372Y54349
X53880Y54366
X54401Y54377
X54906Y54360
X54654Y54833
X54143Y54837
X53630Y54852
X53115Y54863
X53120Y56334
X53631Y56666
X54141Y56695
X54660Y56691
X55147Y56629
X55429Y56371
X56068Y56790
X56505Y57677
X56693Y58071
X55446Y57909
X54912Y57150
X54400Y57152
X53890Y57150
X53379Y57159
X53543Y58071
X54331Y59646
X55906
X55600Y60335
X55446Y61452
X56505Y61221
X58268Y61220
X58989Y61452
X59143Y60335
X59055Y59646
X60630
X60048Y61221
Y57677
X58989Y57909
X58268Y58071
X59143Y56791
X59488Y55924
X60630Y56496
X62096Y56614
X62106Y55955
X62453Y54407
X62992Y54921
X63684Y54486
X64707Y54466
X64567Y54921
X66142
X65849Y54446
X66853Y54505
X66929Y53346
X66522Y53437
X65652Y53019
X64274
X63056Y52870
X62800Y53625
X63308Y53631
X61498Y53974
X61400Y53059
X60630Y53346
X60048Y54134
X58989Y54366
X59143Y53248
X57480Y53346
X57785Y53740
X56505Y54134
X55668Y54030
X55600Y53248
X55659Y55433
X55068
X57627
Y56024
X57480Y56496
Y59646
X53543Y61220
X63780Y61831
X64567Y61220
X64724Y60728
X65413Y60738
X65354Y59646
X65463Y58455
X66142Y58071
X67717
X68504Y59646
X66929
X67402Y60689
X67717Y61220
X66142
X63779Y59930
X62992Y58071
X62116Y58455
X61417Y58071
X64567
X63780Y56496
X65482Y56565
X65463Y55896
X66929Y56496
X67717Y54921
X68113Y53413
X68703Y53019
X69569Y52999
X69559Y53797
X69323Y54328
X69291Y54921
X68723Y54446
X68819Y55846
Y56535
X70079Y56496
X69291Y58071
X68809Y58455
T02
X66409Y11220
X67591
T03
X62913Y15620
X68032Y25344
X62943Y44723
X68061Y54448
T04
X69685Y8169
X62008
X4035
Y60925
X62008
X69685
T05
X65311Y29940
Y37216
T06
X69291Y11220
M30
